<svg width="95" height="31" viewBox="0 0 95 31" fill="none" xmlns="http://www.w3.org/2000/svg">
  <path d="M26.9 24.211h1v4.5h-1v-4.5Zm4.1 2.9c0-.5-.2-.7-.7-.7-.4 0-.7.4-.7.8v1.7h-.9v-3.2h.8v.4c.3-.4.6-.5 1-.5.7 0 1.4.3 1.4 1.6v1.7H31v-1.8Zm2.8-.8c-.3 0-.5.1-.5.3 0 .2.2.3.5.3.6 0 1.4.1 1.4 1 0 .5-.4 1.1-1.4 1.1-.5 0-1-.1-1.5-.5l.4-.6c.4.3.8.4 1.1.4.3 0 .5-.1.5-.3 0-.1-.1-.3-.5-.3-.6 0-1.3-.3-1.3-1s.7-1 1.4-1c.5 0 .9.1 1.2.4l-.5.6c-.2-.4-.5-.4-.8-.4Zm2.8 1c0 .5.2.7.7.7.4 0 .7-.4.7-.8v-1.7h.9v3.2H38v-.4c-.3.4-.6.5-1 .5-.7 0-1.4-.3-1.4-1.6v-1.7h.9v1.8h.1Zm3.9-1.4c.2-.3.5-.4.9-.4.3 0 .6.1.8.3l-.4.7c-.1-.1-.3-.2-.5-.2-.4 0-.7.3-.7.7v1.7h-.9v-3.2h.9l-.1.4Zm5.2-.3v3.2h-.8l-.1-.4c-.2.4-.7.5-1 .5-1 0-1.7-.6-1.7-1.7 0-1 .7-1.7 1.6-1.7.4 0 .8.1 1 .4v-.4h1v.1Zm-2.6 1.6c0 .5.4.8.8.8.5 0 .9-.4.9-.8 0-.5-.3-.9-.9-.9-.4 0-.8.3-.8.9Zm5.6-.1c0-.5-.2-.7-.7-.7-.4 0-.7.4-.7.8v1.7h-.9v-3.2h.8v.4c.3-.4.6-.5 1-.5.7 0 1.4.3 1.4 1.6v1.7h-.9v-1.8Zm3.1 1.8c-.9 0-1.8-.5-1.8-1.7 0-1.1.8-1.7 1.7-1.7.5 0 .8.1 1.2.5l-.5.6c-.2-.1-.4-.2-.6-.2-.5 0-.8.3-.8.8s.4.8.8.8c.2 0 .5-.1.6-.2l.6.6c-.3.4-.7.5-1.2.5Zm3.3-.8c.3 0 .6-.1.8-.3l.5.6c-.3.3-.9.5-1.4.5-1.2 0-1.8-.7-1.8-1.7s.7-1.7 1.7-1.7 1.6.5 1.6 1.6v.4h-2.4c.2.3.5.6 1 .6Zm-.1-1.8c-.4 0-.7.2-.8.5h1.5c0-.3-.3-.5-.7-.5Zm7.4-.8c0 .4-.2.7-.6.9.5.2.7.6.7 1.1v.2c-.1.7-.7 1.1-1.7 1.1h-2.3v-4.5h2.2c1-.1 1.7.3 1.7 1.2Zm-1.6.5c.4 0 .6-.2.6-.4 0-.3-.2-.5-.6-.5h-1.2v.9h1.2Zm0 1.9c.5 0 .7-.2.7-.5s-.2-.5-.7-.5h-1.2v1.1h1.2v-.1Zm3.2-2c.2-.3.5-.4.9-.4.3 0 .6.1.8.3l-.4.7c-.1-.1-.3-.2-.5-.2-.4 0-.7.3-.7.7v1.7h-.9v-3.2h.9l-.1.4Zm1.7 1.3c0-1 .7-1.7 1.8-1.7s1.8.7 1.8 1.7-.7 1.7-1.8 1.7-1.8-.7-1.8-1.7Zm2.6 0c0-.4-.2-.8-.8-.8-.6 0-.8.4-.8.8s.2.9.8.9c.5-.1.8-.5.8-.9Zm2.3-.4.9-1.2h1.1v.1l-1.2 1.4 1.4 1.6v.1h-1.1l-1.1-1.4v1.4h-.9v-4.5h.9v2.5Zm4.2 1.3c.3 0 .6-.1.8-.3l.5.6c-.3.3-.9.5-1.4.5-1.2 0-1.8-.7-1.8-1.7s.7-1.7 1.7-1.7 1.6.5 1.6 1.6v.4h-2.4c.1.3.4.6 1 .6Zm-.1-1.8c-.4 0-.7.2-.8.5h1.5c0-.3-.4-.5-.7-.5Zm3-.4c.2-.3.5-.4.9-.4.3 0 .6.1.8.3l-.4.7c-.1-.1-.3-.2-.5-.2-.4 0-.7.3-.7.7v1.7h-.9v-3.2h.9l-.1.4Zm5.2-.3v3.2h-.8l-.1-.4c-.2.4-.7.5-1 .5-1 0-1.7-.6-1.7-1.7 0-1 .7-1.7 1.6-1.7.4 0 .8.1 1 .4v-.4h1v.1Zm-2.6 1.6c0 .5.4.8.8.8.5 0 .9-.4.9-.8 0-.5-.3-.9-.9-.9-.4 0-.8.3-.8.9Zm4.8 2.7c.4 0 .8-.2.8-.6 0-.3-.2-.6-.8-.6-1.1 0-1.7-.6-1.7-1.6 0-1.1.8-1.6 1.7-1.6.2 0 .5 0 .8.2l.4-.5.7.5-.4.5c.2.3.3.6.3.9 0 .5-.2.9-.7 1.2.7.3.7.9.7 1 0 1-.9 1.4-1.7 1.4-1.1 0-1.7-.5-1.7-1.5h.9c0 .5.3.7.7.7Zm-.8-2.8c0 .5.4.8.8.8s.8-.3.8-.8c0-.4-.3-.8-.8-.8-.4 0-.8.3-.8.8Zm4.7 1c.3 0 .6-.1.8-.3l.5.6c-.3.3-.9.5-1.4.5-1.2 0-1.8-.7-1.8-1.7s.7-1.7 1.7-1.7 1.6.5 1.6 1.6v.4H88c.2.3.5.6 1 .6Zm-.1-1.8c-.4 0-.7.2-.8.5h1.5c.1-.3-.3-.5-.7-.5Z" fill="#6E6F72"/>
  <path fill-rule="evenodd" clip-rule="evenodd" d="M25.6 4.211c-8.4 0-9.6 9.1-9.5 10.3.1 5.5 5.4 5.2 6 5.2 8.7 0 9.3-9.9 9.2-10.2-.1-5.4-5.2-5.3-5.7-5.3Zm-3.1 12c-.2 0-2.1-.3-1.9-2.5.1-.9 1-5.7 4.5-5.7.8 0 2 .4 2.1 2.2 0 .2-.7 5.8-4.7 6Z" fill="#282781"/>
  <path d="m65.6 12.511-.7 3s-1.1 1.1-2.6 1.1c-.4 0-1.7 0-1.7-1.2-.1-3.2 5-2.9 5-2.9Zm.7-2.7s-3.6-.3-6.5 1c-2.2.9-3.9 2.8-3.9 5.7 0 .8 1 3.1 4.1 3.3.1 0 2.7.2 4.1-.8l-.2.8h4.4s1.6-5.8 2.8-11.7c0-.2.7-4.1-6-3.9h-5l-.9 3.7h4.6c3.5 0 2.8 1.9 2.5 1.9ZM18 4.211l1-4.2h-4.3c-1.2 0-11.6-.9-12.4 13.4 0 .9-.1 6.4 7.3 6.4h4.6l1.1-4.2s-1.1.1-3.7 0c-2.7 0-4.9.6-4.6-3.3.1-.9 1.2-8.1 7-8.1h4Zm12.4 15.6H35s2.5-10.2 2.5-10.5c0-.2.5-1.4 2.5-1.4.6 0 1.9.2 1.8 1.8 0 .5-2.4 10.1-2.4 10.1h4.4s2.5-9.8 2.6-10.5c0-.2 1.1-4.6-3.2-5-.5 0-1.9-.3-4.7.8l.2-.8h-4.4l-3.9 15.5Zm55.9-17.9h4.4l-.5 2.3h4.2l-.3 1.1-.6 2.6h-4.4s-1.5 6.1-1.5 6.3c-.1.4-.6 1.9 1.4 1.9h2.4l-.9 3.6h-3.3c-.5 0-4.8.2-4.6-3.2.3-.6 3.7-14.6 3.7-14.6Zm-36.2 0h4.4l-.5 2.4h4.2l-.2 1-.7 2.7H53s-1.5 6.1-1.5 6.3c-.1.4-.6 1.9 1.4 1.9h2.4l-.9 3.6h-3.3c-.5 0-4.8.2-4.6-3.2.1-.7 3.6-14.7 3.6-14.7Zm33 6h-2.8c-4.6 0-5 5-5 5.8 0 2.5 2 2.4 2.9 2.4h3l-.9 3.6H77c-6.5 0-6.4-4.8-6.4-5.4 1-10.6 10.1-10.1 10.4-10.1h3.1l-1 3.7Z" fill="#282781"/>
  <path d="m12 24.811-.8 4h12.9l1.1-4H12Z" fill="#F58220"/>
  <path d="m12 24.811-.8 4H6l.7-4H12Z" fill="#FDB933"/>
  <path d="m6.7 24.811-.7 4H0l.9-4h5.8Z" fill="#FFDE22"/>
</svg>
