<svg width="136" height="41" viewBox="0 0 136 41" fill="none" xmlns="http://www.w3.org/2000/svg">
  <path d="m98.2 32.4-1.7 6.8H74.7l1.6-6.8h21.9Z" fill="#E4862D"/>
  <path d="m98.2 32.4-1.7 6.8H74.7l1.6-6.8h21.9Z" fill="#E4862D"/>
  <path d="M71.5 1H56.6l-1.7 6.7h14.9L71.5 1ZM25.9 1H11.7L9.9 7.7h14.3L25.9 1Zm64.7 0h-7.9L81 7.7h7.9L90.6 1Z" fill="#131F6B"/>
  <path d="M88.4 10.7H82l-2 7.7c-.5 2-1 4.6-7 4.6-2.9 0-4.6-.7-5.4-2.1-.6-1.2 0-2.7.1-3.3l1.8-6.9h-7.3l-1.8 6.9c-.1.2-.1.4-.1.6l-.1.2c-.6 2.2-.3 4.4-4.5 4.4h-8.3c-.4-4.3-4.5-8.4-6.8-11-.6-.7-1.3-1.5-1.9-2.2 6.7-3.5 10.5-1.9 10.6-2L51 .7c-.4.2-8.4 0-15.6 3.8-2.5 1.3-3.4 3-3.8 4.2-1 3.1 1 5.5 3.4 8.1 1.6 1.7 3.4 3.8 4.2 5.9H25.4c1.2-2 1.7-3.8 1.9-4.7l1.9-7.4h-6.4L20.9 18c-.5 2-1.2 4.6-7.2 4.6-2.9 0-4.8-.7-5.5-2.1-.6-1.2-.3-2.7-.1-3.3l1.7-6.6H3.1l-1.7 6.6C0 22.7 1.8 29 11.1 29.4h40.5c4.3 0 7.7-.8 10.5-2.9 1.7 2 4.6 3.3 9.1 3.3 5.1 0 9.1-1.6 12-4.7 2.4-2.6 3-5.4 3.3-6.6l1.9-7.8Zm31.1-6c-2.5 1.3-3.4 3-3.8 4.2-1 3.1 1 5.5 3.4 8.1 1.6 1.7 3.4 3.8 4.2 5.9H109l.8-3.3c.3-1 .5-1.9.6-2.6v-.2c.2-1.1.2-1.8.2-1.8-.1-7.5-6.9-7.9-8.2-7.9h-.1c-3.7 0-6.7 1.2-9.1 3.6-3.9 4-4.6 9.9-4.6 11.2.1 6.9 5.9 7.7 8.4 7.7h.3c.9 0 1.7-.1 2.5-.2.1 0 .3-.1.4-.1.2-.1.5-.1.7-.2l-2.4 10.1h6.7l2.3-9.7h21.7l.8-3.5c1.6-6.4-2.4-10.9-5.4-14.2-.6-.7-1.3-1.5-1.8-2.2 6.7-3.5 10.5-1.9 10.6-2l1.7-6.9c-.4.3-8.4.1-15.6 4ZM96.3 22.9c-.5-.5-.7-1.3-.6-2.2 0-.1.9-7.7 5.9-7.7.6 0 2.5.2 2.5 2.6 0 .8-1.2 7.8-6.2 8.1-.1.1-1-.1-1.6-.8Z" fill="#131F6B"/>
  <path d="m122.3 32.4-1 6.8h-14.1l1.7-6.8h13.4Z" fill="#E8AC42"/>
  <path d="m121.3 32.4-1.3 6.8h7.6l1.1-6.8h-7.4Z" fill="#DFDA44"/>
  <path d="M7.9 39.1H6.5c-.8 0-1.4-.4-1.7-1.3-.3.4-.7.6-1.4.6-1.2 0-2-1.1-2-2.5 0-1.5.8-2.5 2.1-2.5h2.7v3.2c0 .7.3 1.1 1 1.1h.7v1.4Zm-4.2-6.6H2.4v-1.2h1.3v1.2Zm1 3.4v-1.4h-.9c-.6 0-1 .6-1 1.5 0 .7.4 1.3 1 1.3.5 0 .9-.6.9-1.4Zm.9-3.4H4.3v-1.2h1.3v1.2Zm3.1 8.3H7.4v-1.2h1.3v1.2Zm3.5-1.7H7.6v-1.4h.9c.5 0 .7-.3.7-1v-2.3h1.4v2.2c0 .4-.1.7-.2 1h1.7v1.5h.1Zm-1.6 1.7H9.3v-1.2h1.3v1.2Zm6-1.7H12v-1.4h.9c.5 0 .7-.3.7-1v-2.3H15v2.2c0 .4-.1.7-.2 1h1.7v1.5h.1ZM15 33.7h-1.3v-1.2H15v1.2Zm2.4 7.1h-1.3v-1.2h1.3v1.2Zm3.6-1.7h-4.6v-1.4h.9c.5 0 .7-.3.7-1v-2.3h1.4v2.2c0 .4-.1.7-.2 1H21v1.5Zm-1.7 1.7H18v-1.2h1.3v1.2Zm7.5-3.1c0 1.4-.9 2.4-2.3 2.4-.9 0-1.5-.3-1.9-.9h-1.8v-1.4h1.4c0-1.5.8-2.4 2.3-2.4 1.5 0 2.3.9 2.3 2.3Zm-1.4 0c0-.8-.3-1.2-.9-1.2h-.1c-.5 0-.9.5-.9 1.2s.3 1.2 1 1.2c.5-.1.9-.5.9-1.2Zm4-5.8h-1.8v-.5h.4v-.3c0-.5.3-.8.8-.8.3 0 .5.2.7.5l-.6.2c0-.1-.1-.2-.2-.2-.2 0-.2.1-.2.3 0 .2.1.3.1.3h.8v.5Zm1.5 7.2h-1.3c-1.1 0-1.7-.6-1.7-1.7v-5h1.4v4.2c0 .7.2 1.1 1.2 1.1h.4v1.4Zm.8-5.4h-1.3v-1.2h1.3v1.2Zm2 3.4c0 .5-.2 1-.4 1.4-.3.4-.8.6-1.4.6h-1.2v-1.4h.9c.5 0 .7-.3.7-1v-2.3h1.4v2.7Zm-.1-3.4h-1.3v-1.2h1.3v1.2Zm9.4 5.4h-1.4c-.8 0-1.4-.4-1.7-1.3-.3.4-.7.6-1.4.6-1.2 0-2-1.1-2-2.5 0-1.5.8-2.5 2.1-2.5h2.7v3.2c0 .7.3 1.1 1 1.1h.7v1.4Zm-4.2-6.6h-1.3v-1.2h1.3v1.2Zm1 3.4v-1.4h-.9c-.6 0-1 .6-1 1.5 0 .7.4 1.3 1 1.3.5 0 .9-.6.9-1.4Zm.9-3.4h-1.3v-1.2h1.3v1.2Zm10.5 6.6h-8.9v-1.4h2.1v-5.3h1.4l-.1 3.4c.9-1 1.8-1.4 2.8-1.4 1.8 0 2.8 1.4 2.8 3.7 0 .4 0 .7-.1 1Zm-1.4-1.4v-.2c0-1.1-.5-1.8-1.4-1.8-1 0-2 .7-2.8 2.1h4.2v-.1Zm5.6 1.4h-1.3c-1.1 0-1.7-.6-1.7-1.7v-5h1.4v4.2c0 .7.2 1.1 1.2 1.1h.4v1.4Zm-.4 0v-1.4h1.3c.3 0 .5-.2.7-.5 0-.1.1-.3.1-.5v-2.3h1.4v2.2c0 .4-.1.7-.2 1h.9c.5 0 .7-.3.7-.9v-2.4h1.4v2.2c0 .4-.1.7-.2 1h.9c.5 0 .7-.3.7-.9v-2.4h1.4v2.2c0 .8-.2 1.4-.7 1.9-.4.4-.9.5-1.4.5h-7v.3Zm14.7-.2c0 1.3-.8 1.9-2.3 1.9h-.1v-1.2h.1c.6 0 1.1-.4 1.1-1-.2.3-.5.5-1 .5-1.3 0-2.3-1-2.3-2.4s1-2.4 2.3-2.4c1.3 0 2.3 1 2.3 2.4v2.2h-.1Zm-1.4-2.1c0-.6-.4-1.1-.9-1.1s-.8.4-.8 1 .3 1.1.9 1.1c.5 0 .8-.4.8-1Z" fill="#64696D"/>
</svg>
