<svg width="135" height="41" viewBox="0 0 135 41" fill="none" xmlns="http://www.w3.org/2000/svg">
  <path d="m97.8 31.8-1.7 6.8H63.4l1.7-6.8h32.7Z" fill="#E4862D"/>
  <path d="m97.8 31.8-1.7 6.8H63.4l1.7-6.8h32.7Z" fill="#E4862D"/>
  <path d="M71.1.4H56.2l-1.7 6.7h14.9L71.1.4ZM25.6.4H11.3L9.6 7.1h14.2L25.6.4Zm64.6 0h-7.9l-1.7 6.7h7.9L90.2.4Z" fill="#131F6B"/>
  <path d="M88 10.1h-6.4l-2 7.7c-.5 2-1 4.6-7 4.6-2.9 0-4.6-.7-5.4-2.1-.6-1.2 0-2.7.1-3.3l1.8-6.9h-7.3L60 17c-.1.2-.1.4-.1.6l-.1.2c-.6 2.2-.3 4.4-4.5 4.4H47c-.4-4.3-4.5-8.4-6.8-11-.6-.7-1.3-1.5-1.9-2.2C45 5.5 48.8 7.1 48.9 7L50.6.1C50.2.3 42.2.1 35 4c-2.5 1.3-3.4 3-3.8 4.2-1 3.1 1 5.5 3.4 8.1 1.6 1.7 3.4 3.8 4.2 5.9H24.9c1.2-2 1.7-3.8 1.9-4.7l1.9-7.4h-6.4l-1.9 7.4c-.5 2-1.2 4.6-7.2 4.6-2.9 0-4.8-.7-5.5-2.1-.6-1.2-.3-2.7-.1-3.3l1.7-6.6H2.6L.9 16.7c-1.4 5.4.3 11.7 9.7 12.1h40.5c4.3 0 7.7-.8 10.5-2.9 1.7 1.9 4.6 3.3 9.1 3.3 5.1 0 9.1-1.6 12-4.7 2.4-2.6 3-5.4 3.3-6.6l2-7.8Zm31.1-6c-2.5 1.3-3.4 3-3.8 4.2-1 3.1 1 5.5 3.4 8.1 1.6 1.7 3.4 3.8 4.2 5.9h-14.3l.8-3.3c.3-1 .5-1.9.6-2.6v-.2c.2-1.1.2-1.8.2-1.8-.1-7.5-6.9-7.9-8.2-7.9h-.1c-3.7 0-6.7 1.2-9.1 3.6-3.9 4-4.6 9.9-4.6 11.2.1 6.9 5.9 7.7 8.4 7.7h.3c.9 0 1.7-.1 2.5-.2.1 0 .3-.1.4-.1.2-.1.5-.1.7-.2l-2.4 10.1h6.7l2.3-9.7h21.7l.9-3.5c1.6-6.4-2.4-10.9-5.4-14.2-.6-.7-1.3-1.5-1.8-2.2 6.7-3.5 10.5-1.9 10.6-2l1.7-6.9c-.4.3-8.5.1-15.7 4ZM95.9 22.4c-.5-.5-.7-1.3-.6-2.2 0-.1.9-7.7 5.9-7.7.6 0 2.5.2 2.5 2.6 0 .8-1.2 7.8-6.2 8.1-.1 0-1-.2-1.6-.8Z" fill="#131F6B"/>
  <path d="m122 31.8-1.1 6.8h-14.1l1.7-6.8H122Z" fill="#E8AC42"/>
  <path d="m120.9 31.8-1.3 6.8h7.7l1-6.8h-7.4Z" fill="#DFDA44"/>
  <path d="M10.1 38.6c-.9 0-1.5-.2-1.9-.6-.3 1.4-1.8 2.3-3.4 2.3-2 0-3.6-1.5-3.6-3.5v-1.2h1.4v1.1c0 1.4.8 2.3 2.2 2.3 1.1 0 2.1-.7 2.1-1.7 0-.5-.5-.9-.9-.9h-.2v-1.3h.6c1 0 1.8.5 2.3 1.4.2.5.6.6 1.2.6h.2v1.5Zm4.4 0H9.9v-1.4h1c.5 0 .7-.3.7-1V32H13v4.2c0 .4-.1.7-.2 1h1.7v1.4Zm.9 1.8h-1.3v-1.2h1.3v1.2Zm2-3.7c0 .5-.2 1-.4 1.4-.3.4-.8.6-1.4.6h-1.2v-1.4h.9c.5 0 .7-.3.7-1V34h1.4v2.7Zm-.1 3.7H16v-1.2h1.3v1.2Zm6.9-1.8h-1.3c-.2 1.1-.9 1.7-2.3 1.7h-.2v-1.2h.1c.5 0 .9-.2 1-.6-.1 0-.4.1-.9.1-1.3 0-2.3-1-2.3-2.4s1-2.3 2.3-2.3c1.3 0 2.3 1 2.3 2.4v.9h1.3v1.4Zm-2.7-1.3v-1c0-.6-.4-1-.9-1s-.8.4-.8 1 .3 1 .9 1h.8Zm9.4 1.3h-1.6c-.4.6-1.1.9-1.9.9-.9 0-1.5-.3-1.9-.9h-1.6v-1.4H25c0-1.5.8-2.4 2.3-2.4 1.5 0 2.4.9 2.4 2.4h1.2v1.4Zm-2.6-1.4c0-.8-.3-1.2-.9-1.2h-.1c-.5 0-.9.5-.9 1.2s.3 1.2.9 1.2c.6 0 1-.5 1-1.2Zm3.3-4h-1.3V32h1.3v1.2Zm2 3.5c0 .5-.2 1-.4 1.4-.3.4-.8.6-1.4.6h-1.2v-1.4h.9c.5 0 .7-.3.7-1V34h1.4v2.7Zm-.1-3.5h-1.3V32h1.3v1.2Zm7.4 5.4h-1.6c-.2 1.1-1.1 1.7-2.8 1.7v-1.2c.9 0 1.4-.5 1.4-1.4V34h1.4v3.3h1.5v1.3h.1Zm.7 1.8h-1.3v-1.2h1.3v1.2Zm3.5-1.8h-4.6v-1.4h.9c.5 0 .7-.3.7-1V34h1.4v2.2c0 .4-.1.7-.2 1H45v1.4h.1Zm-1.6 1.8h-1.3v-1.2h1.3v1.2Zm8.6-1.8h-7.3v-1.4h5.8c-.1-1.2-.9-2.1-2.1-2.1-.6 0-1.3.3-1.7.7-.1-.2-.4-.5-.7-1 .7-.7 1.5-1.1 2.5-1.1 2.3 0 3.5 1.6 3.5 4.3v.6Zm-2.7 1.8h-1.3v-1.2h1.3v1.2Zm5.4-9H53v-.5h.4v-.3c0-.5.3-.8.8-.8.3 0 .5.2.7.5l-.5.2c0-.1-.1-.2-.2-.2-.2 0-.2.1-.2.3 0 .2.1.3.1.3h.8v.5h-.1Zm1.4 7.2h-1.3c-1.1 0-1.7-.6-1.7-1.7v-5h1.4v4.2c0 .7.2 1.1 1.2 1.1h.4v1.4Zm.8-5.4h-1.3V32H57v1.2Zm2.1 3.5c0 .5-.2 1-.4 1.4-.3.4-.8.6-1.4.6H56v-1.4h.9c.5 0 .7-.3.7-1V34H59v2.7h.1Zm-.1-3.5h-1.3V32H59v1.2Z" fill="#4B000B"/>
</svg>
