<svg width="31" height="31" viewBox="0 0 31 31" fill="none" xmlns="http://www.w3.org/2000/svg">
  <path d="M21.987 29.224H2.647A2.193 2.193 0 0 1 .454 27.03V2.648c0-1.211.982-2.193 2.193-2.193h19.34c1.211 0 2.193.982 2.193 2.193v24.383a2.193 2.193 0 0 1-2.193 2.193Z" fill="#8C9BA6"/>
  <path d="M21.987.454h-3.718c1.21 0 2.193.982 2.193 2.193V27.03a2.193 2.193 0 0 1-2.194 2.193h3.719a2.193 2.193 0 0 0 2.193-2.193V2.647A2.193 2.193 0 0 0 21.987.454Z" fill="#7C8B96"/>
  <path d="M2.91 7.957V3.39c0-.202.164-.366.366-.366h18.082c.202 0 .366.164.366.366v4.566a.366.366 0 0 1-.366.366H3.276a.366.366 0 0 1-.366-.366Z" fill="#DDEAFB"/>
  <path d="M21.358 3.025H17.64c.202 0 .366.164.366.366v4.566a.366.366 0 0 1-.366.366h3.718a.366.366 0 0 0 .366-.366V3.391a.366.366 0 0 0-.366-.366Z" fill="#BED8FB"/>
  <path d="M5.606 14.235H3.363a.293.293 0 0 1-.293-.292V11.7c0-.162.131-.293.293-.293h2.243c.162 0 .293.13.293.293v2.243a.293.293 0 0 1-.293.292Zm5.222 0H8.585a.293.293 0 0 1-.293-.293V11.7c0-.162.13-.293.293-.293h2.243c.161 0 .293.131.293.293v2.243a.293.293 0 0 1-.293.293Zm5.222 0h-2.244a.293.293 0 0 1-.292-.293V11.7c0-.162.13-.293.292-.293h2.243c.162 0 .293.131.293.293v2.243a.293.293 0 0 1-.293.293Zm5.221 0h-2.243a.293.293 0 0 1-.293-.293V11.7c0-.162.131-.293.293-.293h2.243c.162 0 .293.131.293.293v2.243a.293.293 0 0 1-.293.293ZM5.606 19.76H3.363a.293.293 0 0 1-.293-.293v-2.243c0-.162.131-.293.293-.293h2.243c.162 0 .293.131.293.293v2.243a.293.293 0 0 1-.293.293Zm5.222 0H8.585a.293.293 0 0 1-.293-.293v-2.244c0-.161.13-.292.293-.292h2.243c.161 0 .293.13.293.292v2.244a.293.293 0 0 1-.293.292Zm5.222 0h-2.244a.293.293 0 0 1-.292-.293v-2.244c0-.161.13-.292.292-.292h2.243c.162 0 .293.13.293.292v2.244a.293.293 0 0 1-.293.292ZM5.606 25.284H3.363a.293.293 0 0 1-.293-.293v-2.243c0-.162.131-.293.293-.293h2.243c.162 0 .293.131.293.293v2.243a.293.293 0 0 1-.293.293Zm5.222-.001H8.585a.293.293 0 0 1-.293-.293v-2.243c0-.161.13-.292.293-.292h2.243c.161 0 .293.13.293.292v2.244a.293.293 0 0 1-.293.292Zm5.222 0h-2.244a.293.293 0 0 1-.292-.293v-2.243c0-.161.13-.292.292-.292h2.243c.162 0 .293.13.293.292v2.244a.293.293 0 0 1-.293.292Z" fill="#DAE4EA"/>
  <path d="M22.625 30.53a7.39 7.39 0 1 0 0-14.78 7.39 7.39 0 0 0 0 14.78Z" fill="#EAB14D"/>
  <path d="M22.625 28.707a5.568 5.568 0 1 0 0-11.136 5.568 5.568 0 0 0 0 11.136Z" fill="#FBE77B"/>
  <path d="M22.624 17.571c-.651 0-1.276.112-1.857.318a5.57 5.57 0 0 1 0 10.5 5.568 5.568 0 1 0 1.858-10.818Z" fill="#FFD064"/>
  <path d="M23.476 22.672a21.88 21.88 0 0 1-.441-.152v-2.165c.399.08.637.27.656.287a.454.454 0 0 0 .593-.688 2.53 2.53 0 0 0-1.249-.518v-.178a.454.454 0 0 0-.908 0v.211a3.077 3.077 0 0 0-.234.057 1.882 1.882 0 0 0-1.343 1.486c-.116.634.104 1.244.573 1.59.254.188.57.359 1.004.54v2.738c-.402-.024-.67-.108-1.117-.384a.454.454 0 0 0-.476.773c.621.382 1.042.492 1.593.518v.234a.454.454 0 0 0 .908 0v-.268a2.302 2.302 0 0 0 1.87-1.87c.159-1.002-.402-1.87-1.43-2.211Zm-1.814-.8c-.225-.166-.26-.47-.22-.698a.983.983 0 0 1 .685-.77v1.743a3.099 3.099 0 0 1-.465-.275Zm2.346 2.868c-.07.442-.399.913-.973 1.082v-2.341l.154.052c.601.2.908.651.82 1.207Zm-1.83-21.35a.82.82 0 0 0-.82-.82H3.276a.82.82 0 0 0-.82.82v1.224a.454.454 0 0 0 .908 0V3.478H21.27v4.39H3.364V6.736a.454.454 0 0 0-.908 0v1.222c0 .452.368.82.82.82h18.082a.82.82 0 0 0 .82-.82V3.39ZM6.352 11.699a.747.747 0 0 0-.746-.747H3.363a.747.747 0 0 0-.747.747v2.243c0 .412.335.746.747.746h2.243a.747.747 0 0 0 .746-.746v-2.243Zm-.907 2.082H3.524V11.86h1.92v1.92Zm6.129-2.082a.748.748 0 0 0-.746-.747H8.585a.747.747 0 0 0-.747.747v2.243c0 .412.335.746.747.746h2.243a.748.748 0 0 0 .746-.746v-2.243Zm-.907 2.082H8.746V11.86h1.92v1.92Zm3.139-2.829a.747.747 0 0 0-.746.747v2.243c0 .412.335.746.746.746h2.243a.748.748 0 0 0 .747-.746v-2.243a.747.747 0 0 0-.747-.747h-2.243Zm2.082 2.829h-1.92V11.86h1.92v1.92Zm5.383-2.829h-2.243a.747.747 0 0 0-.746.747v2.243c0 .412.334.746.746.746h2.243a.748.748 0 0 0 .747-.746v-2.243a.747.747 0 0 0-.747-.747Zm-.16 2.829h-1.922V11.86h1.921v1.92ZM6.352 17.223a.747.747 0 0 0-.746-.747H3.363a.747.747 0 0 0-.747.747v2.243c0 .411.335.746.747.746h2.243a.747.747 0 0 0 .746-.746v-2.243Zm-.907 2.082H3.524v-1.921h1.92v1.92Zm6.129-2.082a.747.747 0 0 0-.746-.747H8.585a.747.747 0 0 0-.747.747v2.243c0 .411.335.746.747.746h2.243a.748.748 0 0 0 .746-.746v-2.243Zm-.907 2.082H8.746v-1.921h1.92v1.92ZM10.828 22H8.585a.747.747 0 0 0-.747.747v2.243c0 .412.335.747.747.747h2.243a.748.748 0 0 0 .746-.747v-2.243a.747.747 0 0 0-.746-.747Zm-.161 2.83H8.746v-1.922h1.92v1.921Z" fill="#000"/>
  <path d="M22.625 15.294a7.826 7.826 0 0 0-5.829 2.6v-.672a.747.747 0 0 0-.747-.746h-2.243a.747.747 0 0 0-.746.746v2.243c0 .412.335.747.746.747h1.541A7.782 7.782 0 0 0 14.863 22h-1.057a.747.747 0 0 0-.746.747v2.243c0 .411.335.746.746.746h1.417c1.075 3.052 3.986 5.247 7.402 5.247 4.325 0 7.843-3.52 7.843-7.845 0-4.325-3.518-7.844-7.843-7.844Zm-8.658 4.01v-1.92h1.921v1.74l-.104.18h-1.817Zm0 5.525v-1.921h.817a7.847 7.847 0 0 0 .18 1.921h-.997Zm8.658 5.246a6.944 6.944 0 0 1-6.937-6.937 6.944 6.944 0 0 1 6.937-6.936 6.944 6.944 0 0 1 6.936 6.936 6.944 6.944 0 0 1-6.936 6.937Z" fill="#000"/>
  <path d="M22.625 17.117a6.029 6.029 0 0 0-6.022 6.022 6.029 6.029 0 0 0 6.021 6.022 6.029 6.029 0 0 0 6.022-6.022 6.028 6.028 0 0 0-6.021-6.022Zm0 11.136a5.12 5.12 0 0 1-5.115-5.114 5.12 5.12 0 0 1 5.114-5.114 5.12 5.12 0 0 1 5.115 5.114 5.12 5.12 0 0 1-5.114 5.114ZM5.606 22H3.363a.747.747 0 0 0-.747.747v2.243c0 .412.335.747.747.747h2.243a.747.747 0 0 0 .746-.747v-2.243A.747.747 0 0 0 5.606 22Zm-.161 2.83H3.524v-1.922h1.92v1.921Z" fill="#000"/>
  <path d="M16.047 28.77h-13.4c-.959 0-1.74-.781-1.74-1.74V2.647c0-.959.781-1.74 1.74-1.74h19.34c.959 0 1.74.781 1.74 1.74v11.138a.454.454 0 1 0 .907 0V2.647A2.65 2.65 0 0 0 21.987 0H2.647A2.65 2.65 0 0 0 0 2.647V27.03a2.65 2.65 0 0 0 2.647 2.647h13.4a.454.454 0 1 0 0-.908Z" fill="#000"/>
</svg>
