<svg width="135" height="41" viewBox="0 0 135 41" fill="none" xmlns="http://www.w3.org/2000/svg">
  <path d="m97.8 32-1.7 6.8H61.8l1.7-6.8h34.3Z" fill="#E4862D"/>
  <path d="m97.8 32-1.7 6.8H61.8l1.7-6.8h34.3Z" fill="#E4862D"/>
  <path d="M71.1.6H56.2l-1.7 6.6h14.9L71.1.6ZM25.6.6H11.3L9.6 7.2h14.2L25.6.6Zm64.6 0h-7.9l-1.7 6.6h7.9L90.2.6Z" fill="#131F6B"/>
  <path d="M88 10.3h-6.4l-2 7.7c-.5 2-1 4.6-7 4.6-2.9 0-4.6-.7-5.4-2.1-.6-1.2 0-2.7.1-3.3l1.8-6.9h-7.3L60 17.2c-.1.2-.1.4-.1.6l.1.2c-.6 2.2-.3 4.4-4.5 4.4h-8.3c-.4-4.3-4.5-8.4-6.8-11-.6-.7-1.3-1.5-1.9-2.2 6.7-3.5 10.5-1.9 10.6-2L50.8.3c-.4.2-8.4 0-15.6 3.9-2.5 1.3-3.4 3-3.8 4.2-1 3.1 1 5.5 3.4 8.1 1.6 1.7 3.4 3.8 4.2 5.9H25.1c1.2-2 1.7-3.8 1.9-4.7l1.9-7.4h-6.4l-1.9 7.4c-.5 2-1.2 4.6-7.2 4.6-2.9 0-4.8-.7-5.5-2.1-.6-1.2-.3-2.7-.1-3.3l1.7-6.6H2.8l-1.7 6.6c-1.4 5.4.3 11.7 9.7 12.1h40.5c4.3 0 7.7-.8 10.5-2.9 1.7 1.9 4.6 3.3 9.1 3.3 5.1 0 9.1-1.6 12-4.7 2.4-2.6 3-5.4 3.3-6.6l1.8-7.8Zm31.1-6c-2.5 1.3-3.4 3-3.8 4.2-1 3.1 1 5.5 3.4 8.1 1.6 1.7 3.4 3.8 4.2 5.9h-14.3l.8-3.3c.3-1 .5-1.9.6-2.6v-.2c.2-1.1.2-1.8.2-1.8-.1-7.5-6.9-7.9-8.2-7.9h-.1c-3.7 0-6.7 1.2-9.1 3.6-3.9 4-4.6 9.9-4.6 11.2.1 6.9 5.9 7.7 8.4 7.7h.3c.9 0 1.7-.1 2.5-.2.1 0 .3-.1.4-.1.2-.1.5-.1.7-.2l-2.4 10.1h6.7l2.3-9.7h21.7l.9-3.5c1.6-6.4-2.4-10.9-5.4-14.2-.6-.7-1.3-1.5-1.8-2.2 6.7-3.5 10.5-1.9 10.6-2l1.7-6.9c-.4.3-8.5.1-15.7 4ZM95.9 22.5c-.5-.5-.7-1.3-.6-2.2 0-.1.9-7.7 5.9-7.7.6 0 2.5.2 2.5 2.6 0 .8-1.2 7.8-6.2 8.1-.1 0-1-.1-1.6-.8Z" fill="#131F6B"/>
  <path d="m122 32-1.1 6.8h-14.1l1.7-6.8H122Z" fill="#E8AC42"/>
  <path d="m120.9 32-1.3 6.8h7.7l1-6.8h-7.4Z" fill="#DFDA44"/>
  <path d="M8.5 35.8V37c0 1-.3 1.8-1 2.5s-1.6 1-2.6 1h-.1c-1 0-1.9-.3-2.6-1-.7-.7-1-1.5-1-2.5v-1.2h1.4v1.1c0 .4.1.8.2 1.1.3.7 1.1 1.2 2.1 1.2S6.6 38.7 7 38c.1-.2.2-.5.2-.8H4.5c0-1 .3-1.9.8-2.5.6-.6 1.3-1 2.2-1h.6v1.4h-.6c-.6 0-1 .2-1.4.7h2.4Zm3.7 2c0 .9-.2 1.6-.7 2.1-.4.4-1.1.6-2.1.6v-1.2c.9 0 1.4-.5 1.4-1.4v-3.8h1.4v3.7Zm4.1 1H15c-1.1 0-1.7-.6-1.7-1.7v-5h1.4v4.2c0 .7.2 1.1 1.2 1.1h.4v1.4Zm6.4 0h-.8c-1 0-1.8-.1-2.5-.4-.7.3-1.6.4-2.5.4H16v-1.4h.9c.4 0 .7 0 .8-.1-.4-.5-.7-1.1-.7-1.7 0-.3 0-.5.1-.8.3-1 1.2-1.6 2.2-1.6 1.1 0 1.9.6 2.2 1.6.1.3.1.5.1.8 0 .6-.2 1.2-.7 1.7.1.1.4.1.8.1h.8v1.4h.2ZM19 32.3h-1.3v-1.2H19v1.2Zm.8 4.4c.4-.3.6-.7.6-1.2 0-.6-.4-1.2-1.1-1.2-.3 0-.6.1-.8.4-.2.2-.3.5-.3.8 0 .5.2.9.6 1.2.2.1.3.2.5.3.2-.1.4-.2.5-.3Zm1.1-4.4h-1.3v-1.2h1.3v1.2Zm7.2 6.5h-5.7v-1.4H24c-.1-.4-.2-.7-.2-1 0-.7.2-1.2.6-1.7.4-.5 1-.7 1.7-.7.9 0 1.6.5 2 1.3l-1.2.5c-.1-.4-.4-.6-.8-.6-.3 0-.5.1-.7.4-.1.2-.2.5-.2.8 0 .5.2.9.6 1.1h2.4v1.3h-.1Zm10.7 0h-2c-.6 1.1-1.6 1.7-2.8 1.7-1.8 0-3.2-1.5-3.2-3.5v-1h1.4v.9c0 1.4.7 2.3 1.8 2.3s1.8-.9 1.8-2.3v-4.7h1.4v5.3h1.5v1.3h.1Zm.7 1.7h-1.3v-1.2h1.3v1.2Zm2.1-3.7c0 .5-.2 1-.4 1.4-.3.4-.8.6-1.4.6h-1.2v-1.4h.9c.5 0 .7-.3.7-1v-2.3h1.4v2.7Zm-.1 3.7h-1.3v-1.2h1.3v1.2Zm6.9-1.7H47c-.2 1.1-.9 1.7-2.3 1.7h-.2v-1.2h.1c.5 0 .9-.2 1-.6-.1 0-.4.1-.9.1-1.3 0-2.3-1-2.3-2.4s1-2.3 2.3-2.3c1.3 0 2.3 1 2.3 2.4v.9h1.3v1.4h.1Zm-2.8-1.4v-1c0-.6-.4-1-.9-1s-.8.4-.8 1 .3 1 .9 1h.8Zm9.4 1.4h-1.6c-.4.6-1.1.9-1.9.9-.9 0-1.5-.3-1.9-.9H48v-1.4h1.1c0-1.5.8-2.4 2.3-2.4 1.5 0 2.4.9 2.4 2.4H55v1.4Zm-2.6-1.4c0-.8-.3-1.2-.9-1.2h-.1c-.5 0-.9.5-.9 1.2s.3 1.2.9 1.2c.7-.1 1-.6 1-1.2Zm3.4-4.1h-1.3v-1.2h1.3v1.2Zm2 3.5c0 .5-.2 1-.4 1.4-.3.4-.8.6-1.4.6h-1.2v-1.4h.9c.5 0 .7-.3.7-1v-2.3h1.4v2.7Zm-.1-3.5h-1.3v-1.2h1.3v1.2Z" fill="#2B978D"/>
</svg>
