<svg width="136" height="41" viewBox="0 0 136 41" fill="none" xmlns="http://www.w3.org/2000/svg">
  <path d="m98.1 31.8-1.7 6.8H60l1.6-6.8h36.5Z" fill="#E4862D"/>
  <path d="m75.5 31.8-1.7 6.8h-41l1.7-6.8h41Z" fill="#E4862D"/>
  <path d="M71.4.4H56.5l-1.7 6.7h14.9L71.4.4ZM25.8.4H11.6L9.9 7.1h14.2L25.8.4Zm64.7 0h-7.9l-1.7 6.7h7.9L90.5.4Z" fill="#131F6B"/>
  <path d="M88.3 10.1H82l-2 7.7c-.5 2-1 4.6-7 4.6-2.9 0-4.6-.7-5.4-2.1-.6-1.2 0-2.7.1-3.3l1.8-6.9h-7.3L60.4 17c-.1.2-.1.4-.1.6l-.1.2c-.6 2.2-.3 4.4-4.5 4.4h-8.3c-.4-4.3-4.5-8.4-6.8-11-.6-.7-1.3-1.5-1.9-2.2 6.7-3.5 10.5-1.9 10.6-2L51 .1c-.4.2-8.4 0-15.6 3.9-2.5 1.3-3.4 3-3.8 4.2-1 3.1 1 5.5 3.4 8.1 1.6 1.7 3.4 3.8 4.2 5.9H25.3c1.2-2 1.7-3.8 1.9-4.7l1.9-7.4h-6.4l-1.9 7.4c-.5 2-1.2 4.6-7.2 4.6-2.9 0-4.8-.7-5.5-2.1-.6-1.2-.3-2.7-.1-3.3l1.7-6.6H3l-1.7 6.6c-1.4 5.4.3 11.7 9.7 12.1h40.5c4.3 0 7.7-.8 10.5-2.9 1.7 1.9 4.6 3.3 9.1 3.3 5.1 0 9.1-1.6 12-4.7 2.4-2.6 3-5.4 3.3-6.6l1.9-7.8Zm31.1-6c-2.5 1.3-3.4 3-3.8 4.2-1 3.1 1 5.5 3.4 8.1 1.6 1.7 3.4 3.8 4.2 5.9h-14.3l.8-3.3c.3-1 .5-1.9.6-2.6v-.2c.2-1.1.2-1.8.2-1.8-.1-7.5-6.9-7.9-8.2-7.9h-.1c-3.7 0-6.7 1.2-9.1 3.6-3.9 4-4.6 9.9-4.6 11.2.1 6.9 5.9 7.7 8.4 7.7h.3c.9 0 1.7-.1 2.5-.2.1 0 .3-.1.4-.1.2-.1.5-.1.7-.2l-2.4 10.1h6.7l2.3-9.7h21.7l.9-3.5c1.6-6.4-2.4-10.9-5.4-14.2-.6-.7-1.3-1.5-1.8-2.2 6.7-3.5 10.5-1.9 10.6-2l1.7-6.9c-.4.3-8.5.1-15.7 4ZM96.2 22.4c-.5-.5-.7-1.3-.6-2.2 0-.1.9-7.7 5.9-7.7.6 0 2.5.2 2.5 2.6 0 .8-1.2 7.8-6.2 8.1-.1 0-1-.2-1.6-.8Z" fill="#131F6B"/>
  <path d="m122.3 31.8-1.1 6.8h-14.1l1.7-6.8h13.5Z" fill="#E8AC42"/>
  <path d="m121.2 31.8-1.3 6.8h7.6l1.1-6.8h-7.4Z" fill="#DFDA44"/>
  <path d="M8.5 36.9c0 1.9-1.5 3.4-3.5 3.4s-3.6-1.4-3.6-3.4v-2h1.4v1.8c0 1.4.8 2.2 2.2 2.2.9 0 1.5-.3 1.9-1-.2 0-.4.1-.6.1-1.4 0-2.3-.9-2.3-2.3s.9-2.2 2.2-2.2c1.4 0 2.3.8 2.3 2.2v1.2Zm-2.7-3.8H4.6V32h1.2v1.1Zm1.3 2.8c0-.8-.3-1.2-.9-1.2h-.1c-.5 0-.8.5-.8 1.1 0 .7.3 1.1.9 1.1.6.1.9-.4.9-1Zm.6-2.8H6.5V32h1.2v1.1Zm7.6 5.5H14c-.2 1.1-.9 1.7-2.3 1.7h-.2v-1.2h.1c.5 0 .9-.2 1-.6-.1 0-.4.1-.9.1-1.3 0-2.3-1-2.3-2.4s1-2.3 2.3-2.3c1.3 0 2.3 1 2.3 2.4v.9h1.3v1.4Zm-2.7-1.4v-1c0-.6-.4-1-.9-1s-.8.4-.8 1 .3 1 .9 1h.8Zm12.9 1.4H15v-1.4h1.1c.5 0 .7-.3.7-1v-2.3h1.4v2.2c0 .4-.1.7-.2 1h1c.5 0 .7-.3.7-.9v-2.4h1.4V36c0 .4-.1.7-.2 1h.9c.5 0 .7-.3.7-.9v-2.4H24v2.2c0 .4-.1.7-.2 1.1h1.7v1.6Zm.8-5.4H25V32h1.3v1.2Zm2 3.4c0 .5-.2 1-.4 1.4-.3.4-.8.6-1.4.6h-1.2v-1.4h.9c.5 0 .7-.3.7-1v-2.3h1.4v2.7Zm-.1-3.4h-1.3V32h1.3v1.2Z" fill="#71337B"/>
</svg>
