<svg width="136" height="41" viewBox="0 0 136 41" fill="none" xmlns="http://www.w3.org/2000/svg">
  <path d="m98.2 32-1.7 6.8H59.7l1.7-6.8h36.8Z" fill="#E4862D"/>
  <path d="M71.5.6H56.6l-1.7 6.6h14.9L71.5.6ZM25.9.6H11.7L9.9 7.2h14.3L25.9.6Zm64.7 0h-7.9L81 7.2h7.9L90.6.6Z" fill="#131F6B"/>
  <path d="M88.4 10.3H82L80 18c-.5 2-1 4.6-7 4.6-2.9 0-4.6-.7-5.4-2.1-.6-1.2 0-2.7.1-3.3l1.8-6.9h-7.3l-1.8 6.9c-.1.2-.1.4-.1.6l-.1.2c-.6 2.2-.3 4.4-4.5 4.4h-8.3c-.4-4.3-4.5-8.4-6.8-11-.6-.7-1.3-1.5-1.9-2.2 6.7-3.5 10.5-1.9 10.6-2L51 .3c-.4.2-8.4 0-15.6 3.9-2.5 1.3-3.4 3-3.8 4.2-1 3.1 1 5.5 3.4 8.1 1.6 1.7 3.4 3.8 4.2 5.9H25.4c1.2-2 1.7-3.8 1.9-4.7l1.9-7.4h-6.4l-1.9 7.4c-.5 2-1.2 4.6-7.2 4.6-2.9 0-4.8-.7-5.5-2.1-.6-1.2-.3-2.7-.1-3.3l1.7-6.6H3.1l-1.7 6.6C0 22.3 1.7 28.6 11.1 29h40.5c4.3 0 7.7-.8 10.5-2.9 1.7 1.9 4.6 3.3 9.1 3.3 5.1 0 9.1-1.6 12-4.7 2.4-2.6 3-5.4 3.3-6.6l1.9-7.8Zm31.1-6c-2.5 1.3-3.4 3-3.8 4.2-1 3.1 1 5.5 3.4 8.1 1.6 1.7 3.4 3.8 4.2 5.9H109l.8-3.3c.3-1 .5-1.9.6-2.6v-.2c.2-1.1.2-1.8.2-1.8-.1-7.5-6.9-7.9-8.2-7.9h-.1c-3.7 0-6.7 1.2-9.1 3.6-3.9 4-4.6 9.9-4.6 11.2.1 6.9 5.9 7.7 8.4 7.7h.3c.9 0 1.7-.1 2.5-.2.1 0 .3-.1.4-.1.2-.1.5-.1.7-.2l-2.4 10.1h6.7l2.3-9.7h21.7l.9-3.5c1.6-6.4-2.4-10.9-5.4-14.2-.6-.7-1.3-1.5-1.8-2.2 6.7-3.5 10.5-1.9 10.6-2l1.7-6.9c-.5.3-8.5.1-15.7 4ZM96.3 22.5c-.5-.5-.7-1.3-.6-2.2 0-.1.9-7.7 5.9-7.7.6 0 2.5.2 2.5 2.6 0 .8-1.2 7.8-6.2 8.1-.1 0-1-.1-1.6-.8Z" fill="#131F6B"/>
  <path d="m122.3 32-1 6.8h-14.1l1.7-6.8h13.4Z" fill="#E8AC42"/>
  <path d="m121.3 32-1.3 6.8h7.6l1.1-6.8h-7.4Z" fill="#DFDA44"/>
  <path d="M9.4 38.8h-2c-.6 1.1-1.6 1.7-2.8 1.7-1.8 0-3.2-1.5-3.2-3.5v-1h1.4v.9c0 1.4.7 2.3 1.8 2.3s1.8-.9 1.8-2.3v-4.7h1.4v5.3h1.5v1.3h.1Zm6.5 0H15c-1 0-1.8-.1-2.5-.4-.7.3-1.6.4-2.5.4H9v-1.4h1c.4 0 .7 0 .8-.1-.4-.5-.7-1.1-.7-1.7 0-.3 0-.5.1-.8.3-1 1.2-1.6 2.2-1.6 1.1 0 1.9.6 2.2 1.6.1.3.1.5.1.8 0 .6-.2 1.2-.7 1.7.1.1.4.1.8.1h.8v1.4h.3Zm-3.7-6.5h-1.3v-1.2h1.3v1.2Zm.8 4.4c.4-.3.6-.7.6-1.2 0-.6-.4-1.2-1.1-1.2-.3 0-.6.1-.8.4-.2.2-.3.5-.3.8 0 .5.2.9.6 1.2.2.1.3.2.5.3.2-.1.3-.2.5-.3Zm1.1-4.4h-1.3v-1.2h1.3v1.2Zm6 6.5h-4.6v-1.4h.9c.5 0 .7-.3.7-1v-2.3h1.4v2.2c0 .4-.1.7-.2 1H20v1.5h.1Zm-1.6-5.5h-1.3v-1.2h1.3v1.2Zm4.4 3.5c0 .5-.2 1-.4 1.4-.3.4-.8.6-1.4.6h-1.3v-1.4h1c.5 0 .7-.3.7-1v-4.2h1.4v4.6Zm2.4 2h-1.4v-6.7h1.4v6.7Zm10.9 0h-2c-.6 1.1-1.6 1.7-2.8 1.7-1.8 0-3.2-1.5-3.2-3.5v-1h1.4v.9c0 1.4.7 2.3 1.8 2.3s1.8-.9 1.8-2.3v-4.7h1.4v5.3h1.5v1.3h.1Zm.8 1.7h-1.3v-1.2H37v1.2Zm2-3.7c0 .5-.2 1-.4 1.4-.3.4-.8.6-1.4.6H36v-1.4h.9c.5 0 .7-.3.7-1v-2.3H39v2.7Zm-.1 3.7h-1.3v-1.2h1.3v1.2Zm6.9-1.7h-1.3c-.2 1.1-.9 1.7-2.3 1.7H42v-1.2h.1c.5 0 .9-.2 1-.6-.1 0-.4.1-.9.1-1.3 0-2.3-1-2.3-2.4s1-2.3 2.3-2.3c1.3 0 2.3 1 2.3 2.4v.9h1.3v1.4Zm-2.7-1.4v-1c0-.6-.4-1-.9-1s-.8.4-.8 1 .3 1 .9 1h.8Zm9.4 1.4h-1.6c-.4.6-1.1.9-1.9.9-.9 0-1.5-.3-1.9-.9h-1.6v-1.4h1.1c0-1.5.8-2.4 2.3-2.4 1.5 0 2.4.9 2.4 2.4h1.2v1.4Zm-2.6-1.4c0-.8-.3-1.2-.9-1.2h-.1c-.5 0-.9.5-.9 1.2s.3 1.2.9 1.2c.6-.1 1-.5 1-1.2Zm3.3-4.1h-1.3v-1.2h1.3v1.2Zm2 3.5c0 .5-.2 1-.4 1.4-.3.4-.8.6-1.4.6h-1.2v-1.4h.9c.5 0 .7-.3.7-1v-2.3h1.4v2.7Zm-.1-3.5h-1.3v-1.2h1.3v1.2Z" fill="#23516D"/>
</svg>
