<svg width="95" height="30" viewBox="0 0 95 30" fill="none" xmlns="http://www.w3.org/2000/svg">
  <path d="M64.9 24.956v-1.2h4.8v1.2h-1.8v4.7h-1.3v-4.7h-1.7Zm6.5 1c.3-.4.6-.6 1.1-.6.4 0 .7.1 1 .4l-.5.9c-.2-.1-.4-.2-.7-.2-.5 0-1 .3-1 .9v2.1h-1.2v-4.1h1.1l.2.6Zm3.6 1.8c0 .6.3 1 .8 1 .6 0 .9-.5.9-1v-2.3h1.2v4.1h-1.1v-.5c-.4.5-.8.6-1.3.6-.9 0-1.8-.4-1.8-2v-2.2H75v2.3Zm5.8 2c-1.2 0-2.2-.7-2.2-2.2 0-1.4 1-2.2 2.2-2.2.6 0 1.1.1 1.5.6l-.7.8c-.3-.2-.5-.2-.8-.2-.6 0-1.1.4-1.1 1.1 0 .7.5 1 1.1 1 .3 0 .6-.1.8-.3l.8.8c-.5.5-1.1.6-1.6.6Zm3.2-2.6 1.2-1.6h1.4v.1l-1.5 1.8 1.7 2.1v.1h-1.4l-1.4-1.8v1.8h-1.2v-5.8H84v3.3Zm4.9-.8c-.4 0-.6.1-.6.3 0 .2.2.4.6.4.8 0 1.8.2 1.8 1.3 0 .6-.5 1.4-1.8 1.4-.6 0-1.2-.1-1.9-.7l.5-.8c.5.4 1 .5 1.5.5.3 0 .6-.1.6-.3 0-.2-.1-.3-.7-.4-.8 0-1.7-.4-1.7-1.3s.9-1.3 1.8-1.3c.6 0 1.1.2 1.6.5l-.6.7c-.5-.2-.8-.3-1.1-.3Z" fill="#1F4256"/>
  <path fill-rule="evenodd" clip-rule="evenodd" d="M25.6 5.056c-8.4 0-9.6 9.1-9.5 10.3.1 5.5 5.4 5.2 6 5.2 8.7 0 9.3-9.9 9.2-10.2-.1-5.4-5.2-5.3-5.7-5.3Zm-3.1 12c-.2 0-2.1-.3-1.9-2.5.1-.9 1-5.7 4.5-5.7.8 0 2 .4 2.1 2.2 0 .2-.7 5.8-4.7 6Z" fill="#282781"/>
  <path d="m65.6 13.356-.7 3s-1.1 1.1-2.6 1.1c-.4 0-1.7 0-1.7-1.2-.1-3.2 5-2.9 5-2.9Zm.7-2.7s-3.6-.3-6.5 1c-2.2.9-3.9 2.8-3.9 5.7 0 .8 1 3.1 4.1 3.3.1 0 2.7.2 4.1-.8l-.2.8h4.4s1.6-5.8 2.8-11.7c0-.2.7-4.1-6-3.9h-5l-.9 3.7h4.6c3.5 0 2.8 1.9 2.5 1.9ZM18 5.056l1-4.2h-4.3c-1.2 0-11.6-.9-12.4 13.4 0 .9-.1 6.4 7.3 6.4h4.6l1.1-4.2s-1.1.1-3.7 0c-2.7 0-4.9.6-4.6-3.3.1-.9 1.2-8.1 7-8.1h4Zm12.4 15.6H35s2.5-10.2 2.5-10.5c.1-.3.6-1.4 2.6-1.4.6 0 1.9.2 1.8 1.8 0 .5-2.4 10.1-2.4 10.1h4.4s2.5-9.8 2.6-10.5c0-.2 1.1-4.6-3.2-5-.5 0-1.9-.3-4.7.8l.2-.8h-4.4l-4 15.5Zm55.9-17.9h4.4l-.5 2.3h4.2l-.3 1.1-.6 2.6h-4.4s-1.5 6.1-1.5 6.3c-.1.4-.6 1.9 1.4 1.9h2.4l-.9 3.6h-3.3c-.5 0-4.8.2-4.6-3.2.3-.6 3.7-14.6 3.7-14.6Zm-36.2 0h4.4l-.5 2.3h4.2l-.3 1.1-.6 2.6H53s-1.5 6.1-1.5 6.3c-.1.4-.6 1.9 1.4 1.9h2.4l-.9 3.6h-3.3c-.5 0-4.8.2-4.6-3.2.1-.6 3.6-14.6 3.6-14.6Zm33 6h-2.8c-4.6 0-5 5-5 5.8 0 2.5 2 2.4 2.9 2.4h3l-.9 3.6H77c-6.5 0-6.4-4.8-6.4-5.4 1-10.7 10.1-10.2 10.4-10.2h3.1l-1 3.8Z" fill="#282781"/>
  <path d="m16.5 25.656-.8 4h46l1.1-4H16.5Z" fill="#F58220"/>
  <path d="m16.5 25.656-.8 4H6l.7-4h9.8Z" fill="#FDB933"/>
  <path d="m6.7 25.656-.7 4H0l.9-4h5.8Z" fill="#FFDE22"/>
</svg>
