<svg width="21" height="21" viewBox="0 0 21 21" fill="none" xmlns="http://www.w3.org/2000/svg">
  <path d="M18.375 13.125a.875.875 0 0 1 1.75 0v3.5a3.5 3.5 0 0 1-3.5 3.5H4.375a3.5 3.5 0 0 1-3.5-3.5v-3.5a.875.875 0 0 1 1.75 0v3.5c0 .966.784 1.75 1.75 1.75h12.25a1.75 1.75 0 0 0 1.75-1.75v-3.5ZM20.125 7v2.625c0 .275-.13.535-.35.7-2.493 1.87-5.594 2.8-9.275 2.8s-6.782-.93-9.275-2.8a.875.875 0 0 1-.35-.7V7A2.625 2.625 0 0 1 3.5 4.375h14A2.625 2.625 0 0 1 20.125 7Zm-1.75 0a.875.875 0 0 0-.875-.875h-14A.875.875 0 0 0 2.625 7v2.177c2.115 1.463 4.732 2.198 7.875 2.198s5.76-.735 7.875-2.198V7Z" fill="#828282"/>
  <path d="M11.375 8.75a.875.875 0 1 1 0 1.75h-1.75a.875.875 0 0 1 0-1.75h1.75ZM7.619 3.244A.875.875 0 1 1 6.38 2.006l.363-.362A2.625 2.625 0 0 1 8.6.875h3.8c.696 0 1.364.277 1.856.769l.363.362a.875.875 0 0 1-1.238 1.238l-.362-.363a.875.875 0 0 0-.619-.256H8.6a.875.875 0 0 0-.619.256l-.362.363Z" fill="#828282"/>
</svg>
