<svg width="52" height="52" viewBox="0 0 52 52" fill="none" xmlns="http://www.w3.org/2000/svg">
  <circle cx="26" cy="26" r="25" stroke="#EEE433" stroke-width="2"/>
  <mask id="path-2-inside-1" fill="#fff">
    <path d="M1.522 17.235a26 26 0 1 1-.22 16.89L26 26 1.522 17.235Z"/>
  </mask>
  <path d="M1.522 17.235a26 26 0 1 1-.22 16.89L26 26 1.522 17.235Z" stroke="#F4B938" stroke-width="4" mask="url(#path-2-inside-1)"/>
  <mask id="path-3-inside-2" fill="#fff">
    <path d="M1.522 17.235a26 26 0 1 1 15.713 33.243L26 26 1.522 17.235Z"/>
  </mask>
  <path d="M1.522 17.235a26 26 0 1 1 15.713 33.243L26 26 1.522 17.235Z" stroke="#EE8F21" stroke-width="4" mask="url(#path-3-inside-2)"/>
  <circle cx="26" cy="26" r="24" fill="#0F206C"/>
  <path d="m34.173 18.024.99-4.012H31.04c-1.154 0-11.073-.906-11.815 12.832-.055.852-.11 6.073 7.006 6.073.55 0 3.6-.028 4.342-.028l1.044-4.011s-1.072.055-3.49.027c-2.528-.027-4.67.55-4.341-3.16.082-.852 1.099-7.694 6.65-7.694h3.736v-.027Z" fill="#fff"/>
  <path d="M25.958 35.17 25.381 38h4.571l.797-2.83h-4.791Z" fill="#EE8F21"/>
  <path d="M26.204 35.17 25.627 38h-4.34l.522-2.83h4.395Z" fill="#F4B938"/>
  <path d="M21.808 35.17 21.287 38H17l.632-2.83h4.176Z" fill="#EEE433"/>
</svg>
