<svg width="21" height="21" viewBox="0 0 21 21" fill="none" xmlns="http://www.w3.org/2000/svg">
  <path d="M7 18.375V14c0-.483.392-.875.875-.875h5.25c.483 0 .875.392.875.875v5.25a.875.875 0 1 1-1.75 0v-4.375h-3.5v4.375a.875.875 0 0 1-.875.875h-3.5a3.5 3.5 0 0 1-3.5-3.5v-8.75c0-.286.14-.553.373-.717l8.75-6.125a.875.875 0 0 1 1.004 0l8.75 6.125a.875.875 0 0 1 .373.717v8.754a3.5 3.5 0 0 1-3.5 3.5.875.875 0 1 1 0-1.75 1.75 1.75 0 0 0 1.75-1.75V8.33L10.5 2.818 2.625 8.331v8.294c0 .966.784 1.75 1.75 1.75H7Z" fill="#828282"/>
  <path d="M7.875 11.375a.875.875 0 0 1 0-1.75h5.25a.875.875 0 0 1 0 1.75h-5.25Z" fill="#828282"/>
</svg>
