<svg width="60" height="53" viewBox="0 0 60 53" fill="none" xmlns="http://www.w3.org/2000/svg">
  <g clip-path="url(#clip0)">
    <path d="M53.257 9.41H24.495V53h28.762C56.972 53 60 49.954 60 46.218v-30.03c0-3.735-3.028-6.78-6.743-6.78Z" fill="#EE8F21"/>
    <path d="M24.495 53v-9.41h9.083L24.495 53Z" fill="#915B1C"/>
    <path d="M6.743 43.59H33.44V0H6.743C3.028 0 0 3.044 0 6.78v30.03c0 3.736 3.028 6.78 6.743 6.78Zm40.184-15.222c-1.79.692-3.44 1.384-4.68 2.214-1.375.83-2.339 1.938-2.339 3.045 0 2.352 2.615 4.013 6.33 4.013 1.377 0 2.615-.139 3.578-.415l.138.276a13.622 13.622 0 0 1-2.34 1.523c-.412.276-1.238.415-2.339.415-3.44 0-6.192-1.66-6.192-5.259 0-1.799.963-3.32 2.339-4.566-1.514-1.107-2.064-1.8-2.064-3.045 0-.553.275-1.383.688-2.075.688-1.107 1.514-1.661 2.615-1.661 1.238 0 2.201.554 3.027 1.799l-.275.277a5.679 5.679 0 0 0-2.202-.415c-1.514 0-2.752.83-2.752 1.383 0 .692.413 1.107 1.238 1.8.55.415 1.239.691 1.514.691.275 0 .55-.138.826-.276l3.715-1.661h.138l-.963 1.937Z" fill="#F0EFFF"/>
    <path d="M6.055 27.676V16.052h8.532v2.352H8.67v2.214h5.642v2.214H8.67v2.353H15v2.49H6.055Zm18.715-7.75v-3.874h2.615v11.624h-2.202l-5.78-7.473.138 3.875v3.598h-2.614V16.052h2.201l5.78 7.61-.137-3.736Z" fill="#0F206C"/>
  </g>
  <defs>
    <clipPath id="clip0">
      <path fill="#fff" d="M0 0h60v53H0z"/>
    </clipPath>
  </defs>
</svg>
