<svg width="28" height="24" viewBox="0 0 28 24" fill="none" xmlns="http://www.w3.org/2000/svg">
  <path d="M24.25 4.261H11.155V24h13.097a3.075 3.075 0 0 0 3.07-3.07V7.33a3.075 3.075 0 0 0-3.07-3.07Z" fill="#EE8F21"/>
  <path d="M11.154 24v-4.26h4.136L11.154 24Z" fill="#915B1C"/>
  <path d="M3.07 19.739h12.157V0H3.07A3.075 3.075 0 0 0 0 3.07v13.598a3.075 3.075 0 0 0 3.07 3.07Zm18.298-6.893c-.814.313-1.566.627-2.13 1.002-.627.377-1.066.878-1.066 1.38 0 1.064 1.19 1.816 2.883 1.816.626 0 1.19-.062 1.63-.188l.062.126a6.28 6.28 0 0 1-1.066.689c-.188.125-.564.188-1.065.188-1.566 0-2.82-.752-2.82-2.381 0-.815.439-1.504 1.066-2.068-.69-.502-.94-.815-.94-1.379 0-.25.125-.626.313-.94.313-.501.69-.752 1.19-.752.564 0 1.003.251 1.38.815l-.126.125a2.598 2.598 0 0 0-1.003-.188c-.69 0-1.253.376-1.253.627 0 .313.188.501.564.815.25.188.564.313.69.313.125 0 .25-.063.375-.125l1.692-.752h.063l-.439.877Z" fill="#F0EFFF"/>
  <path d="M2.757 12.533V7.269h3.885v1.065H3.948v1.003h2.569v1.002h-2.57v1.066H6.83v1.128H2.757Zm8.523-3.51V7.27h1.19v5.264h-1.003L8.836 9.149l.062 1.754v1.63h-1.19V7.269H8.71l2.632 3.446-.063-1.692Z" fill="#0F206C"/>
</svg>
