<svg width="110" height="94" viewBox="0 0 110 94" fill="none" xmlns="http://www.w3.org/2000/svg">
  <path d="M107.291 18.452s-.611-.462-.771-1.153c-.114-.514.177-1.153.2-1.182l-.816-.165s-.24 1.085.165 1.81c.126.222.491.524.725.639.263.131.497.051.497.051Z" fill="#6BB7BF"/>
  <path d="m108.712 17.955.742.85s-2.106.56-3.311-.93c.006 0 1.781.6 2.569.08Z" fill="#86D1CD"/>
  <path d="M70.325 7.258s.76-1.261 2.1-.49l.737-.8s-.765-.508-2.392.6c-1.062.719-.445.69-.445.69Z" fill="#F99746"/>
  <path d="M69.577 8.491s-.257-1.375 2.01-2.391c0 0-.811.462-.982 1.86l-1.028.531Z" fill="#F99746"/>
  <path d="M23.45 48.186s-1.245-.491-.754-1.81l-.828-.536s-.336.764.897 2.049c.804.845.685.297.685.297Z" fill="#5685D8"/>
  <path d="M24.671 48.67s-1.193.434-2.443-1.438c0 0 .537.657 1.815.6l.628.839Z" fill="#739AF0"/>
  <path d="M27.034 30.936s.685-.434.76-.96c0 0 .667.035.81.252 0 0-.308.868-.668 1.027.006.006-.81.058-.902-.32Z" fill="#F1A34F"/>
  <path d="M64.052 21.432s-1.022-.645-1.13-1.427c0 0-1 .051-1.21.376 0 0 .456 1.29.998 1.536-.005 0 1.205.08 1.342-.485Z" fill="#86D1CD"/>
  <path d="M101.862 35.72H81.97v57.298h19.892V35.719Z" fill="#FFA412"/>
  <path d="M81.97 35.72H29.414v57.298h52.554V35.719Z" fill="#FFB93E"/>
  <path d="M81.968 67.762v-4.013H29.413v4.013h52.555Z" fill="#FFA412"/>
  <path d="M101.86 67.763V63.75H81.967v4.013h19.893Z" fill="#FA9712"/>
  <path d="M65.65 36.335s11.873-7.717 19.944-5.234l-1.667 1.553.748 2.614s-8.973-2.923-19.276 1.507l.25-.44Zm-.662-1.745s-2.095-.252-5.218-.686c-8.288-1.142-23.814-3.528-26.6-5.73-4.378-3.466 6-18.193 10.486-20.242 4.493-2.038 21.332 26.657 21.332 26.657Zm32.844-18.341c.748 3.647-33.158 19.407-33.158 19.407s.616-1.666 1.62-4.28l.007-.007C69.965 21.831 78.796-.305 81.7.003c.291.029.634.137 1.016.303 4.453 1.963 14.43 12.586 15.115 15.943Z" fill="#F99746"/>
  <path d="M82.426 3.554c-2.072 3.596-15.908 27.45-16.125 27.822C69.965 21.837 78.796-.3 81.7.009c0 0 .577-.017 1.016.303.526.382.85 1.256-.29 3.242Zm-22.65 30.35c-8.294-1.142-23.82-3.528-26.606-5.73-1.255-3.546 2.01-3.837 4.384-4.082 2.37-.251 22.222 9.812 22.222 9.812Z" fill="#ED7D2B"/>
  <path d="M58.663 35.72s1.901-4.322 5.64-4.562c3.904-.25 6.125 4.561 6.125 4.561H58.663Z" fill="#ED7D2B"/>
  <path d="M82.814 35.72H27.822v7.882h54.992V35.72Z" fill="#FFC261"/>
  <path d="M103.541 35.72H82.814v7.882h20.727V35.72Z" fill="#FA9712"/>
  <path d="M60.587 35.063s-10.772-3.414-18.038-1.16c-8.38 2.598-7.883 12.935-7.883 12.935l1.97-.81 2.66 1.25s.45-10.948 7.277-12.478c5.914-1.324 14.014.263 14.014.263Z" fill="#F99746"/>
  <path d="M55.067 35.72h-4.013v57.292h4.013V35.719Z" fill="#FFA412"/>
  <path d="m18.246 18.52-3.68 1.234 3.553 10.603 3.68-1.234-3.553-10.603Z" fill="#ED7D2B"/>
  <path d="m14.565 19.756-9.726 3.26L8.392 33.62l9.727-3.26-3.554-10.603Z" fill="#F99746"/>
  <path d="m16.551 25.684-.248-.741-9.727 3.26.249.741 9.726-3.26Z" fill="#FFB93E"/>
  <path d="m20.233 24.453-.249-.741-3.68 1.233.248.742 3.68-1.234Z" fill="#F69B34"/>
  <path d="M11.88 20.473s2.528-2.352 4.777-2.535l-.32.417.371.422s-2.517.172-4.863 1.798l.034-.102Zm-.526.126s-.405.085-1.01.2c-1.604.302-4.63.821-5.28.587-1.028-.37-.018-3.738.685-4.395.707-.656 5.605 3.608 5.605 3.608Zm4.937-5.434c.366.628-4.931 5.652-4.931 5.652s.011-.349.034-.89c.085-1.993.348-6.64.902-6.76a.602.602 0 0 1 .205-.005c.954.08 3.454 1.427 3.79 2.003Z" fill="#FFB93E"/>
  <path d="M12.656 13.771c-.16.794-1.244 6.068-1.256 6.148.086-1.992.349-6.638.902-6.758 0 0 .103-.04.206-.006.12.04.234.177.148.617Zm-2.312 7.027c-1.604.303-4.63.828-5.28.588-.451-.576.13-.833.559-1.027.422-.194 4.72.44 4.72.44Z" fill="#F69B34"/>
  <path d="M10.252 21.198s.086-.92.76-1.193c.707-.291 1.415.462 1.415.462l-2.175.73Z" fill="#F69B34"/>
  <path d="M14.727 19.703 4.546 23.115l.49 1.462 10.18-3.413-.49-1.461Z" fill="#FFA15A"/>
  <path d="m18.56 18.42-3.837 1.286.487 1.457 3.838-1.287-.488-1.456Z" fill="#F78639"/>
  <path d="M10.566 20.958s-2.203.034-3.408.908c-1.387.998-.656 2.882-.656 2.882l.314-.274.57.069s-.593-2.055.572-2.763c1.01-.61 2.608-.822 2.608-.822Z" fill="#FFBE55"/>
  <path d="m9.588 21.423-.741.249 3.584 10.695.742-.249-3.585-10.695Z" fill="#FFB93E"/>
  <path d="M82.386 41.798s-1.455.857-.565 2.518c0 0-1.273-.234-1.552-.617 0 0 .034.16.08.24 0 0-1.17-.268-1.553-.754-.383-.49 1.495-6.347 4.543-4.829 0 0 2.786.52 1.696 3.608-1.09 3.094-.057 3.368-.057 3.368s-.326.063-.463.028c0 0-.182-.131-.194-.25 0 0-.005.187.029.256 0 0-1.142-.188-1.587-.76-.445-.57-.708-2.197-.377-2.808Z" fill="#233862"/>
  <path d="M83.819 45.76c.04.382.091.724.114.89.051.365-3.43.125-3.653.125.154-.068.628-1.564.776-2.14.183-.697.326-1.444.326-1.444l2.46.154.148.011c-.091.337-.154.65-.2.948l-.017.12c-.045.33-.005.862.046 1.335Z" fill="#FFB27D"/>
  <path d="M81.045 42.951s-.4-1.267-.32-2.237c.057-.69 1.045-3.054 3.414-2.05 0 0 .696.263 1.25.891.44.502 1.004 1.49-.423 3.396l-.416.663-3.505-.663Z" fill="#233862"/>
  <path d="M83.819 45.76c-1.724-.502-2.449-2.495-2.449-2.495.73.023 1.678.526 2.42 1.04l-.017.12c-.045.33-.005.861.046 1.335Z" fill="#ED975D"/>
  <path d="M83.945 45.063s-3.111-.77-2.603-2.7c.508-1.93.45-3.328 2.454-2.917 2.01.411 2.198 1.245 2.186 1.93-.011.685-1.216 3.836-2.037 3.687Z" fill="#FFB27D"/>
  <path d="M85.223 39.772s-1.444 2.038-2.837 2.026c-1.387-.011-1.86-.508-1.86-.508s1.21-.53 1.78-1.855c0 0 2.563-.908 2.917.337Z" fill="#233862"/>
  <path d="M84.96 39.897s.497.674.526 1.205c.022.53-.172 1.564.131 1.604 0 0 1.045-1.37.56-2.426-.52-1.125-1.216-.383-1.216-.383Z" fill="#233862"/>
  <path d="M85.058 40.006s-1.233 2.209-3.071 2.534c0 0 2.026-1.022 2.58-2.546.553-1.524.49.012.49.012Z" fill="#233862"/>
  <path d="M83.46 43.825s.04.29.228.365c.188.069.685.194.736.166.051-.029.234-.263.234-.263s-.788-.303-1.199-.268Z" fill="#fff"/>
  <path d="m82.295 73.336-.12.49c-.234.977-.45 1.879-.588 2.632-.177.982-.222 1.718.011 2.02.965 1.268 0 11.314 0 11.314l-1.101 1.13s-1.912-9.92-2.426-11.473c-.234-.708-.577-3.727-.885-6.804-.017-.154-.029-.308-.046-.462-.05-.537-.102-1.074-.154-1.599-.274-2.916-.474-5.41-.474-5.41s2.027-1.428 3.87-1.582c1.085-.097 2.107.251 2.61 1.581.741 1.94-.006 5.286-.697 8.163Z" fill="#FFB27D"/>
  <path d="M82.295 73.336c-1.507-1.085-3.625-3.026-4.395-6.194-.149-1.575 1.096-3.076 2.483-3.55 1.084-.097 2.106.251 2.608 1.581.742 1.94-.005 5.286-.696 8.163Z" fill="#ED975D"/>
  <path d="m87.786 54.174 7.398 1.912v.862s-7.364-.086-7.837-.908c-.474-.816.44-1.866.44-1.866Zm7.404 28.477-.349 1.427S84.83 78.907 83.54 77.914c-.52-.4-1.204-2.563-1.844-5.018-.947-3.653-1.78-7.934-1.78-7.934s1.404-5.394 5.16-2.095c2.249 1.975 1.9 5.788 1.65 8.75-.166 1.987-.28 3.597.462 4.013 1.455.81 5.72 4.55 7.072 7.124l.93-.103ZM78.208 58.666c-2.614-.668-5.486-4.72-5.486-4.72l.737-.64c.765.896 3.933 2.449 3.933 2.449a23.38 23.38 0 0 1 .057-2.255c.354-4.64 2.1-6.188 2.58-6.525.074-.057.12-.08.12-.08s0 .035.005.097c.006.138.017.417.035.8.085 2.837.205 11.427-1.981 10.874Z" fill="#FFB27D"/>
  <path d="M80.28 53.095c-.137 3.31-.628 6.587-2.072 6.376-1.764-.257-2.226-1.907-2.318-3.134-.057-.765.029-1.364.029-1.364s.868-.006 1.01-.131c.668-.617.468-6.667.8-7.295.33-.628 2.477-1.034 2.477-1.034s.205 3.311.074 6.582Z" fill="#fff"/>
  <path d="M80.28 53.095c-.137 3.31-.628 6.587-2.072 6.376-1.764-.257-2.226-1.907-2.318-3.134.434-.023 1.199-.126 1.502-.588.433-.662 1.786-4.926 1.786-4.926s.531.959 1.102 2.272Z" fill="#DFEBFD"/>
  <path d="M91.422 54.173c.48.68.217 1.998-.787 3.06-.623.657-1.468 1.05-2.843.845-.6-.086-2.272-1.033-2.449-2.186-.034-.212-.051-.332-.051-.332s-.765.765-.788.908c-.011.063-.08.64-.091.72-.012.096.057.445.057.445s-3.642 1.592-6.65-.223c0 0-.856-7.352-.24-8.58.308-.61 2.026-1.792 2.62-2.317.137-.12.268-.474.234-.702-.028-.194.194-.52.377-.457.36.114 1.375.617 2.095.428.353-.097.81-.508 1.153-.41.422.114-.023 1.13.217 1.147.33.017 2.112.37 2.26.662.051.103.565 1.456 1.204 3.254v.005c1.21 3.368 2.974 2.735 3.682 3.733Z" fill="#fff"/>
  <path d="M85.292 55.56s-.092-2.808-.314-2.774c-.229.035-3.5 3.186-2.723 4.441.776 1.268 3.037-1.666 3.037-1.666Z" fill="#DFEBFD"/>
  <path d="M87.786 67.069s-1.261.388-3.117.644c-2.3.32-5.514.434-8.385-.644 0 0-.234-4.27.445-6.496.68-2.227 1-3.294 1-3.294s2.722.685 5.49.154a8.444 8.444 0 0 0 1.16-.302s1.706 3.624 2.174 5.177c.468 1.553 1.233 4.76 1.233 4.76Z" fill="#2B478B"/>
  <path d="M87.786 67.068s-1.261.388-3.117.645c-3.407-1.93-1.746-10.058-1.746-10.058.102-.08.2-.16.297-.228a8.443 8.443 0 0 0 1.158-.303s1.707 3.625 2.175 5.178c.468 1.552 1.233 4.766 1.233 4.766Z" fill="#233862"/>
  <path d="M80.622 58.078c-2.02 0-2.848-.697-2.91-.742l-.132-.953c.017.017 2.728 1.638 6.918.085l-.091.72c-1.61.599-2.734.89-3.785.89Z" fill="#B64C41"/>
  <path d="M95.19 56.085s1.358-.667 1.895-.73c.542-.063 1.444-.086 1.444 0 0 .085-.97.69-1.233.73-.257.046-.754.411-.605.457.148.046.947-.143.959 0 .011.143-.485.228-.571.337-.086.108-.388.24-.873.171a18.24 18.24 0 0 0-1.022-.097v-.868h.006ZM73.453 53.3l-.736.645s-1.313-.959-1.376-1.353v-.04c0-.41.833-1.255 1.524-1.29.069 0 .131.017.188.046.371.228.411 1.187.411 1.684-.005.188-.011.308-.011.308Z" fill="#FFB27D"/>
  <path d="m95.19 82.651-.349 1.427S84.83 78.907 83.54 77.914c-.52-.4-1.204-2.563-1.844-5.018.857.177 2.7.268 5.03-1.284-.166 1.986-.28 3.596.462 4.013 1.455.81 5.72 4.549 7.072 7.123l.93-.097Z" fill="#2B478B"/>
  <path d="M97.165 83.211h-.012c-.046-.011-.251-.08-.388-.405-.091-.217-.114-.394-.2-.605l-.337-.583c-.353-.468-.479-.353-.479-.353s-.091.12-.228.273c-.229.257-.571.617-.817.708a.676.676 0 0 0-.348.274.66.66 0 0 0-.103.24s.725.126.663.485c-.126.69-.092.816-.08.84l.005.005s1.239.65 1.633.776c.702.229 1.073.702 1.301.925a.394.394 0 0 0 .349.109c.188-.029.428-.092.479-.206l-1.438-2.483Zm-15.561-4.733c.965 1.268 0 11.314 0 11.314l-1.102 1.13s-1.912-9.92-2.425-11.473c-.234-.708-.577-3.727-.885-6.804.913.41 3.15 1.296 4.989 1.176-.234.976-.451 1.878-.588 2.631-.183.988-.223 1.718.011 2.026Z" fill="#233862"/>
  <path d="m82.706 91.43-.594.32c-.217.075-.394.097-.61.183-.332.126-.566.377-.577.422-.166.68-.405.64-.405.64l-2.38.022c-.115-.057.08-.536.17-.627.223-.223.903-.109 1.148-.81.137-.395.822-1.61.822-1.61l.006-.006c.022-.012.148-.04.839.108.354.074.502-.65.502-.65s.114.022.234.108a.698.698 0 0 1 .263.36c.085.245.433.605.685.839.154.142.268.234.268.234s.108.125-.371.468Z" fill="#233862"/>
  <path d="M58.76 63.951H48.645v29.14H58.76v-29.14Z" fill="#4A75CB"/>
  <path d="M48.645 63.951H21.92v29.14h26.725v-29.14Z" fill="#739AF0"/>
  <path d="M48.644 80.245v-2.038H21.918v2.038h26.726Z" fill="#AFCDFB"/>
  <path d="M58.76 80.243v-2.038H48.645v2.038H58.76Z" fill="#88B3FF"/>
  <path d="M41.413 63.507s8.191-3.722 13.905-2.306l-1.142.764.577 1.348s-6.353-1.656-13.505.416l.165-.222Z" fill="#4A75CB"/>
  <path d="M40.009 63.364s-1.068-.132-2.654-.348c-4.213-.583-12.113-1.793-13.529-2.917-2.226-1.764 3.048-9.253 5.332-10.292 2.289-1.039 10.85 13.557 10.85 13.557Zm16.708-9.327c.382 1.855-16.862 9.87-16.862 9.87s.314-.851.822-2.175c1.866-4.852 6.353-16.109 7.831-15.955.149.017.32.069.514.154 2.272.994 7.34 6.393 7.695 8.106Z" fill="#72A9F7"/>
  <path d="M48.88 47.575a7570.485 7570.485 0 0 1-8.203 14.15c1.866-4.852 6.353-16.108 7.831-15.954 0 0 .291-.006.514.154.274.2.44.645-.143 1.65ZM37.36 63.016c-4.218-.582-12.112-1.792-13.534-2.917-.64-1.804 1.022-1.952 2.226-2.078 1.21-.125 11.308 4.995 11.308 4.995Z" fill="#4A75CB"/>
  <path d="M36.795 63.935s.965-2.198 2.871-2.324c1.987-.125 3.117 2.324 3.117 2.324h-5.988Z" fill="#4A75CB"/>
  <path d="M49.074 63.951H21.109v4.007h27.965v-4.007Z" fill="#88B3FF"/>
  <path d="M59.616 63.951H49.074v4.007h10.542v-4.007Z" fill="#3969B7"/>
  <path d="M37.771 63.615s-5.48-1.735-9.173-.588c-4.258 1.324-4.007 6.581-4.007 6.581l1.005-.41 1.353.633s.228-5.565 3.699-6.347c3.002-.674 7.123.13 7.123.13Z" fill="#4A75CB"/>
  <path d="M34.957 63.951H32.92v29.391h2.038v-29.39Z" fill="#AFCDFB"/>
  <path d="M6.338 76.95c.08.05.166.096.251.142.029.017.057.034.086.046.068.034.131.068.2.102a6.662 6.662 0 0 0 6.148-11.816c-.086-.045-.172-.09-.258-.137-.085-.04-.17-.08-.25-.12a7.009 7.009 0 0 0-.794-.296c-.4-.12-.8-.2-1.205-.246a6.691 6.691 0 0 0-3.636.645 6.61 6.61 0 0 0-2.9 2.769 6.658 6.658 0 0 0 2.358 8.91Z" fill="#FFB93E"/>
  <path d="M9.763 77.4a6.076 6.076 0 0 0 5.32-3.14 6.034 6.034 0 0 0 .514-4.617 6.024 6.024 0 0 0-2.9-3.63 6.04 6.04 0 0 0-2.923-.754 6.076 6.076 0 0 0-5.32 3.14 6.034 6.034 0 0 0-.513 4.617 6.024 6.024 0 0 0 2.9 3.63 6.09 6.09 0 0 0 2.922.754Zm.011-11.781c.96 0 1.907.245 2.752.707a5.661 5.661 0 0 1 2.728 3.414 5.662 5.662 0 0 1-.485 4.338 5.713 5.713 0 0 1-7.752 2.243 5.661 5.661 0 0 1-2.728-3.413 5.663 5.663 0 0 1 .485-4.338 5.711 5.711 0 0 1 5-2.951Z" fill="#FFA412"/>
  <path d="m9.769 66.863-1.342 2.711-2.99.434 2.168 2.112-.513 2.98 2.677-1.41 2.677 1.41-.514-2.98 2.17-2.112-2.998-.434-1.335-2.711Z" fill="#FFA412"/>
  <path d="M2.348 60.738c.046.028.091.057.143.08.017.011.034.017.051.028.04.017.074.04.114.057a3.763 3.763 0 0 0 4.95-1.558 3.756 3.756 0 0 0-1.48-5.103 1.187 1.187 0 0 0-.148-.074c-.045-.023-.097-.046-.142-.069a4.696 4.696 0 0 0-.446-.165 3.501 3.501 0 0 0-.679-.137 3.8 3.8 0 0 0-2.055.365 3.745 3.745 0 0 0-1.638 1.558 3.742 3.742 0 0 0 1.33 5.018Z" fill="#FFB93E"/>
  <path d="M4.277 60.995c1.25 0 2.398-.68 3.003-1.77.44-.799.542-1.724.291-2.603a3.433 3.433 0 0 0-3.288-2.477c-1.25 0-2.397.68-3.002 1.77a3.42 3.42 0 0 0-.292 2.602 3.394 3.394 0 0 0 1.639 2.05 3.43 3.43 0 0 0 1.65.428Zm.012-6.65a3.2 3.2 0 0 1 1.552.4 3.218 3.218 0 0 1-1.558 6.039 3.218 3.218 0 1 1 .006-6.439Z" fill="#FFA412"/>
  <path d="m4.283 55.047-.753 1.53-1.69.245 1.22 1.188-.29 1.684 1.512-.793 1.513.793-.291-1.684 1.221-1.187-1.69-.245-.753-1.53Z" fill="#FFA412"/>
  <path d="M58.406 9.959a1.682 1.682 0 0 1-.085.097c-.012.011-.017.023-.029.034-.023.023-.046.051-.068.074a3.01 3.01 0 0 1-4.156.137 3.006 3.006 0 0 1-.468-3.967c.069-.097.143-.194.223-.285.028-.035.057-.063.09-.098.03-.028.058-.062.092-.09a2.873 2.873 0 0 1 .77-.532 3.013 3.013 0 0 1 3.305.468 3.032 3.032 0 0 1 .326 4.162Z" fill="#CDE0FB"/>
  <path d="M56.094 10.82a2.728 2.728 0 0 1-1.82-.696 2.708 2.708 0 0 1-.914-1.89c-.04-.73.206-1.438.69-1.98a2.708 2.708 0 0 1 1.89-.913 2.734 2.734 0 0 1 1.981.69c.548.486.873 1.16.913 1.89.04.73-.205 1.438-.69 1.98a2.708 2.708 0 0 1-1.89.914c-.051.005-.108.005-.16.005ZM56.1 5.5c-.051 0-.103 0-.154.006-.69.04-1.319.343-1.775.862a2.57 2.57 0 0 0-.65 1.867c.039.69.341 1.318.861 1.775a2.57 2.57 0 0 0 1.867.65 2.533 2.533 0 0 0 1.775-.861 2.57 2.57 0 0 0 .65-1.867 2.533 2.533 0 0 0-.861-1.775A2.54 2.54 0 0 0 56.1 5.5Z" fill="#AFCDFB"/>
  <path d="m55.427 6.174.976.953 1.341-.262-.605 1.221.668 1.199-1.353-.2-.93 1.005-.234-1.348-1.24-.576 1.211-.634.166-1.358Z" fill="#AFCDFB"/>
  <path d="M49.599 91.042c-.052.063-.097.12-.154.177-.018.018-.035.04-.052.058a5.384 5.384 0 0 1-7.546.382 5.376 5.376 0 0 1-.44-7.592c.052-.057.109-.114.16-.171.052-.057.109-.109.16-.16a5.61 5.61 0 0 1 .525-.44 5.356 5.356 0 0 1 3.796-.993A5.39 5.39 0 0 1 49 83.628c2.17 1.918 2.41 5.194.6 7.414Z" fill="#CDE0FB"/>
  <path d="M45.472 92.584a4.848 4.848 0 0 1-3.254-1.244 4.878 4.878 0 0 1-1.633-3.38 4.899 4.899 0 0 1 1.233-3.544 4.844 4.844 0 0 1 3.38-1.633 4.899 4.899 0 0 1 5.177 4.612 4.899 4.899 0 0 1-1.233 3.545 4.844 4.844 0 0 1-3.38 1.633c-.102.005-.193.011-.29.011Zm.011-9.51c-.091 0-.183 0-.274.006a4.563 4.563 0 0 0-3.174 1.535 4.574 4.574 0 0 0-1.158 3.334 4.575 4.575 0 0 0 1.535 3.174 4.574 4.574 0 0 0 3.334 1.159 4.564 4.564 0 0 0 3.173-1.536 4.574 4.574 0 0 0 1.16-3.334 4.564 4.564 0 0 0-1.536-3.173 4.596 4.596 0 0 0-3.06-1.165Z" fill="#AFCDFB"/>
  <path d="m44.273 84.279 1.752 1.706 2.392-.474-1.079 2.193 1.187 2.129-2.414-.354-1.661 1.792-.411-2.403-2.215-1.027 2.163-1.136.286-2.426Z" fill="#AFCDFB"/>
  <path d="M66.455 56.36s-.742.508-1.576.422c-.616-.063-1.221-.633-1.244-.668l-.491.85s1.119.68 2.084.492c.296-.057.77-.349.987-.571.234-.234.24-.525.24-.525Z" fill="#6BB7BF"/>
  <path d="m66.432 54.585 1.233-.508s-.171 2.557-2.283 3.339c0 0 1.335-1.752 1.05-2.831Z" fill="#86D1CD"/>
  <path d="M75.074 85.175s.537.61 1.067.599c0 0 .069.668-.12.845 0 0-.907-.166-1.124-.497-.006-.006-.188-.799.177-.947Z" fill="#F99746"/>
  <path d="M66.637 76.8s-.485-.593-.48-1.295c.007-.525.44-1.079.469-1.102l-.76-.348s-.49.999-.256 1.798c.068.245.354.628.56.793.222.177.467.155.467.155Z" fill="#CDE0FB"/>
  <path d="m68.133 76.647.525 1.004s-2.175.052-3.002-1.672c.005-.006 1.586.993 2.477.668Z" fill="#CDE0FB"/>
</svg>
