<svg width="21" height="21" viewBox="0 0 21 21" fill="none" xmlns="http://www.w3.org/2000/svg">
  <g clip-path="url(#clip0)" fill="#828282">
    <path d="M14.402 16.19a1.75 1.75 0 0 0-1.74-.438l-2.785.836a.875.875 0 1 1-.504-1.676l2.785-.836a3.5 3.5 0 0 1 3.482.877l1.35 1.35a1.744 1.744 0 0 1 0 2.466l-1.966 1.966a.876.876 0 0 1-.586.255 13.874 13.874 0 0 1-10.363-4.065A13.874 13.874 0 0 1 .01 6.562c.008-.22.1-.43.256-.586L2.23 4.011a1.744 1.744 0 0 1 2.467 0l1.349 1.35a3.5 3.5 0 0 1 .877 3.48l-.836 2.786a.875.875 0 1 1-1.676-.504l.836-2.785a1.75 1.75 0 0 0-.438-1.74L3.464 5.252 1.751 6.966a12.121 12.121 0 0 0 3.561 8.722 12.122 12.122 0 0 0 8.722 3.561l1.714-1.713-1.346-1.346ZM21 10.5a.875.875 0 0 1-1.75 0 8.75 8.75 0 0 0-8.75-8.75.875.875 0 0 1 0-1.75C16.299 0 21 4.701 21 10.5Zm-3.5 0a.875.875 0 0 1-1.75 0c0-2.9-2.35-5.25-5.25-5.25a.875.875 0 0 1 0-1.75 7 7 0 0 1 7 7Zm-3.5 0a.875.875 0 0 1-1.75 0 1.75 1.75 0 0 0-1.75-1.75.875.875 0 0 1 0-1.75 3.5 3.5 0 0 1 3.5 3.5Z"/>
  </g>
  <defs>
    <clipPath id="clip0">
      <path fill="#fff" d="M0 0h21v21H0z"/>
    </clipPath>
  </defs>
</svg>
