<svg width="17" height="17" viewBox="0 0 17 17" fill="none" xmlns="http://www.w3.org/2000/svg">
  <path fill-rule="evenodd" clip-rule="evenodd" d="m3.282 5.172.502 5.977a.87.87 0 0 0 .872.805h9.097a.88.88 0 0 0 .867-.753l.792-5.465a.488.488 0 0 0-.094-.365.483.483 0 0 0-.323-.193c-.174.007-7.402-.003-11.713-.006Zm1.372 8.032a2.135 2.135 0 0 1-2.116-1.953l-.763-9.078-1.256-.217a.626.626 0 0 1-.51-.723.637.637 0 0 1 .723-.51l1.733.3c.28.05.492.282.516.565l.196 2.334c11.896.005 11.935.011 11.992.018.464.067.873.31 1.151.683.278.373.395.832.328 1.292l-.79 5.465a2.135 2.135 0 0 1-2.103 1.824H4.654Z" fill="#000"/>
  <path fill-rule="evenodd" clip-rule="evenodd" d="M12.415 8.252h-2.31a.625.625 0 1 1 0-1.25h2.31a.625.625 0 0 1 0 1.25Zm-8.119 7.216a.453.453 0 1 1 0 .907.454.454 0 1 1 0-.907Z" fill="#000"/>
</svg>
