<svg width="95" height="32" viewBox="0 0 95 32" fill="none" xmlns="http://www.w3.org/2000/svg">
  <path d="M56.3 24.6c-.6 0-1 .2-1 .6 0 .5.5.6 1.2.7 1.2.1 2.2.5 2.2 1.9 0 1.3-1.2 1.8-2.5 1.8-1 0-2.1-.4-2.5-1.2l.8-.8c.4.6 1.2.8 1.8.8.7 0 1.2-.3 1.2-.7 0-.5-.4-.7-1.2-.8-1.2-.1-2.3-.4-2.3-1.8 0-1.2 1.1-1.7 2.3-1.7.9 0 1.6.2 2.2.9l-.9.7c-.3-.3-.9-.4-1.3-.4Zm4.2 1.2c.3-.4.8-.6 1.2-.6 1 0 1.6.5 1.6 2v2.2h-1.2v-2.2c0-.6-.3-.9-.8-.9s-.9.3-.9 1v2.1h-1.2v-5.8h1.2v2.2h.1Zm3.5 1.6c0-1.2.9-2.2 2.2-2.2 1.4 0 2.3.9 2.3 2.2 0 1.3-.9 2.2-2.3 2.2s-2.2-.9-2.2-2.2Zm3.3 0c0-.5-.3-1.1-1-1.1s-1 .6-1 1.1c0 .6.3 1.1 1 1.1s1-.5 1-1.1Zm1.8-2.1h1.1l.1.5c.4-.5.8-.6 1.4-.6 1.2 0 2 .9 2 2.1 0 1.3-.8 2.2-2 2.2-.4 0-.9-.1-1.3-.5v2.2h-1.2v-5.9h-.1Zm3.3 2.1c0-.6-.4-1.1-1-1.1-.5 0-1.1.3-1.1 1.1 0 .7.5 1.1 1.1 1.1.7 0 1-.5 1-1.1Zm1.9-2.1h1.1l.1.5c.4-.5.8-.6 1.4-.6 1.2 0 2 .9 2 2.1 0 1.3-.8 2.2-2 2.2-.4 0-.9-.1-1.3-.5v2.2h-1.2v-5.9h-.1Zm3.3 2.1c0-.6-.4-1.1-1-1.1-.5 0-1.1.3-1.1 1.1 0 .7.5 1.1 1.1 1.1.6 0 1-.5 1-1.1Zm2.4-3.8c.3 0 .7.2.7.7 0 .5-.3.7-.7.7-.4 0-.7-.2-.7-.7 0-.5.4-.7.7-.7Zm.6 5.9h-1.2v-4.1h1.2v4.1Zm3.8-2.2c0-.6-.3-1-.8-1-.6 0-.9.5-.9 1v2.1h-1.2v-4.1h1.1v.5c.4-.5.8-.6 1.3-.6.9 0 1.8.4 1.8 2v2.2h-1.2v-2.1h-.1Zm4 3.6c.5 0 1-.3 1-.8 0-.4-.3-.7-1-.7-1.3 0-2.2-.8-2.2-2.1 0-1.4 1.1-2.1 2.2-2.1.3 0 .7 0 1 .2l.4-.6.9.7-.5.6c.3.3.4.7.4 1.1 0 .6-.3 1.2-.9 1.5.9.4.9 1.1.9 1.3 0 1.2-1.1 1.8-2.2 1.8-1.4 0-2.2-.7-2.1-1.9h1.1c0 .8.5 1 1 1Zm-1-3.6c0 .6.5 1 1.1 1 .5 0 1-.3 1-1 0-.6-.4-1-1-1-.7 0-1.1.4-1.1 1Z" fill="#73347C"/>
  <path fill-rule="evenodd" clip-rule="evenodd" d="M25.6 4.9c-8.4 0-9.6 9.1-9.5 10.3.1 5.5 5.4 5.2 6 5.2 8.7 0 9.3-9.9 9.2-10.2-.1-5.4-5.2-5.3-5.7-5.3Zm-3.1 12c-.2 0-2.1-.3-1.9-2.5.1-.9 1-5.7 4.5-5.7.8 0 2 .4 2.1 2.2 0 .2-.7 5.8-4.7 6Z" fill="#282781"/>
  <path d="m65.6 13.2-.7 3s-1.1 1.1-2.6 1.1c-.4 0-1.7 0-1.7-1.2-.1-3.3 5-2.9 5-2.9Zm.7-2.7s-3.6-.3-6.5 1c-2.2.9-3.9 2.8-3.9 5.7 0 .8 1 3.1 4.1 3.3.1 0 2.7.2 4.1-.8l-.2.8h4.4s1.6-5.8 2.8-11.7c0-.2.7-4.1-6-3.9h-5l-.9 3.7h4.6c3.5 0 2.8 1.9 2.5 1.9ZM18 4.9l1-4.2h-4.3C13.5.7 3.1-.2 2.3 14.1c0 .9-.1 6.4 7.3 6.4h4.6l1.1-4.2s-1.1.1-3.7 0c-2.7 0-4.9.6-4.6-3.3.1-.9 1.2-8.1 7-8.1h4Zm12.4 15.6H35s2.5-10.2 2.5-10.5c.1-.3.6-1.4 2.6-1.4.6 0 1.9.2 1.8 1.8 0 .5-2.4 10.1-2.4 10.1h4.4s2.5-9.8 2.6-10.5c0-.2 1.1-4.6-3.2-5-.5 0-1.9-.3-4.7.8l.2-.8h-4.4l-4 15.5ZM86.3 2.6h4.4l-.5 2.3h4.2L94.2 6l-.6 2.6h-4.4s-1.5 6.1-1.5 6.3c-.1.4-.6 1.9 1.4 1.9h2.4l-.9 3.6h-3.3c-.5 0-4.8.2-4.6-3.2.2-.7 3.6-14.6 3.6-14.6Zm-36.2 0h4.4L54 4.9h4.2L58 6l-.6 2.6H53s-1.5 6.1-1.5 6.3c-.1.4-.6 1.9 1.4 1.9h2.4l-.9 3.6h-3.3c-.5 0-4.8.2-4.6-3.2.1-.6 3.6-14.6 3.6-14.6Zm33 6h-2.8c-4.6 0-5 5-5 5.8 0 2.5 2 2.4 2.9 2.4h3l-.9 3.6H77c-6.5 0-6.4-4.8-6.4-5.4C71.6 4.3 80.7 4.8 81 4.8h3.1l-1 3.8Z" fill="#282781"/>
  <path d="m16.5 25.5-.8 4h34.8l1.1-4H16.5Z" fill="#F58220"/>
  <path d="m16.5 25.5-.8 3.9H6l.7-3.9h9.8Z" fill="#FDB933"/>
  <path d="M6.7 25.5 6 29.4H0l.9-3.9h5.8Z" fill="#FFDE22"/>
</svg>
