<svg width="55" height="55" viewBox="0 0 55 55" fill="none" xmlns="http://www.w3.org/2000/svg">
  <circle cx="27.5" cy="27.5" r="27.5" fill="#F4B938"/>
  <path d="M23.635 27.02h3.924c4.536 0 5.364 1.872 5.364 3.384 0 2.7-3.204 3.708-5.616 3.708-2.052 0-5.544-.9-5.544-3.492h-4.788c0 5.76 5.544 7.74 10.296 7.74 4.86 0 10.656-1.8 10.656-7.992 0-2.448-1.656-4.464-4.104-5.292 2.196-.684 3.492-2.664 3.492-4.968 0-5.328-5.148-7.668-9.9-7.668-4.644 0-10.044 1.98-10.044 7.416h4.752c0-2.304 3.024-3.096 5.256-3.096 3.996 0 5.184 1.908 5.184 3.348 0 2.34-2.736 3.024-5.292 3.024h-3.636v3.888Z" fill="#fff"/>
</svg>
