<svg width="21" height="21" viewBox="0 0 21 21" fill="none" xmlns="http://www.w3.org/2000/svg">
  <path d="M15.75.875a.875.875 0 0 1 0 1.75H3.5a.875.875 0 1 0 0 1.75h13.125a3.5 3.5 0 0 1 3.5 3.5v8.75a3.5 3.5 0 0 1-3.5 3.5H4.375a3.5 3.5 0 0 1-3.5-3.5v-8.75a.875.875 0 1 1 1.75 0v8.75c0 .966.784 1.75 1.75 1.75h12.25a1.75 1.75 0 0 0 1.75-1.75v-8.75a1.75 1.75 0 0 0-1.75-1.75H3.5a2.625 2.625 0 1 1 0-5.25h12.25Z" fill="#0F206C"/>
  <path d="M15.75 13.125a.875.875 0 0 1 0 1.75h-2.625a2.625 2.625 0 0 1 0-5.25h2.625a.875.875 0 0 1 0 1.75h-2.625a.875.875 0 0 0 0 1.75h2.625Z" fill="#EE8F21"/>
</svg>
