<svg width="85" height="86" viewBox="0 0 85 86" fill="none" xmlns="http://www.w3.org/2000/svg">
  <path d="M42.446 85.82c23.442 0 42.445-19.004 42.445-42.446C84.891 19.93 65.888.928 42.446.928 19.003.928 0 19.93 0 43.374c0 23.442 19.003 42.445 42.446 42.445Z" fill="#fff"/>
  <g clip-path="url(#clip0)">
    <path d="M44.739 31.074h-7.21L36.7 34.31h7.21l.828-3.237Zm-22.054 0h-6.898l-.828 3.237h6.898l.828-3.237Z" fill="#061F70"/>
    <path d="M57.669 46.285H9.313L9 48.73h48.08l.589-2.446Z" fill="#E68721"/>
    <path d="m62.69 46.285-.625 2.446h6.787l.515-2.446H62.69Z" fill="#ECB138"/>
    <path d="m68.834 46.285-.607 2.446h3.697l.515-2.446h-3.605Z" fill="#E6DB30"/>
    <path d="M53.99 31.074h-3.807l-.828 3.237h3.808l.827-3.237Zm-1.048 4.708h-3.09l-.957 3.753c-.257.993-.496 2.225-3.384 2.225-1.416 0-2.244-.35-2.594-1.03-.294-.588-.018-1.306.056-1.582l.846-3.347h-3.532l-.846 3.347c-.018.092-.055.203-.074.295l-.018.11c-.276 1.067-.147 2.134-2.17 2.134h-4.01c-.22-2.097-2.17-4.065-3.292-5.316a23.183 23.183 0 0 1-.902-1.067c3.22-1.692 5.058-.938 5.114-.956L34.935 31c-.184.074-4.084-.018-7.56 1.858-1.196.644-1.655 1.453-1.858 2.023-.496 1.527.497 2.649 1.656 3.918.754.828 1.637 1.82 2.023 2.85h-6.75c.606-.956.809-1.839.92-2.28l.919-3.587h-3.09l-.92 3.587c-.257.993-.588 2.226-3.476 2.226-1.416 0-2.336-.35-2.686-1.03-.294-.589-.128-1.306-.055-1.582l.81-3.2H11.63l-.81 3.2c-.661 2.612.166 5.647 4.691 5.83H35.12c2.078 0 3.752-.367 5.076-1.416.81.938 2.207 1.582 4.415 1.582 2.483 0 4.396-.754 5.794-2.262 1.158-1.251 1.453-2.612 1.6-3.2l.938-3.735Zm15.064-2.924c-1.196.644-1.655 1.453-1.858 2.023-.496 1.527.497 2.649 1.656 3.918.754.828 1.618 1.82 2.023 2.85h-6.916l.368-1.618c.147-.478.239-.92.294-1.269l.019-.074c.092-.515.092-.846.092-.846-.074-3.66-3.33-3.844-3.992-3.844h-.037c-1.784 0-3.255.589-4.414 1.766-1.876 1.913-2.226 4.8-2.226 5.408.056 3.366 2.87 3.715 4.065 3.715h.148c.422 0 .827-.037 1.213-.092v.018a1.83 1.83 0 0 0 .184-.055c.13-.018.24-.055.35-.073l-1.067 4.193h3.219l1.011-3.973h10.485l.423-1.673c.79-3.072-1.159-5.28-2.612-6.88-.294-.33-.607-.735-.864-1.066 3.237-1.693 5.058-.938 5.113-.957L75.566 31c-.184.092-4.084-.018-7.56 1.858Zm-11.238 8.847c-.24-.258-.35-.625-.313-1.085 0-.037.423-3.716 2.87-3.716.275 0 1.195.092 1.213 1.288 0 .386-.588 3.789-2.998 3.918-.055 0-.478-.074-.772-.405Z" fill="#061F70"/>
  </g>
  <defs>
    <clipPath id="clip0">
      <path fill="#fff" d="M9 31h66.566v17.86H9z"/>
    </clipPath>
  </defs>
</svg>
