<svg width="85" height="86" viewBox="0 0 85 86" fill="none" xmlns="http://www.w3.org/2000/svg">
  <path d="M42.446 85.82c23.442 0 42.445-19.004 42.445-42.446C84.891 19.93 65.888.928 42.446.928 19.003.928 0 19.93 0 43.374c0 23.442 19.003 42.445 42.446 42.445Z" fill="#fff"/>
  <path fill-rule="evenodd" clip-rule="evenodd" d="M26.438 34.995c-6.022 0-6.87 6.44-6.85 7.34.062 3.886 3.911 3.722 4.284 3.722 6.27-.02 6.643-7.014 6.643-7.218-.062-3.906-3.787-3.844-4.077-3.844ZM24.182 43.5c-.124 0-1.49-.204-1.365-1.779.062-.654.724-4.09 3.27-4.09.62 0 1.468.328 1.49 1.534 0 .245-.518 4.213-3.395 4.335Z" fill="#0F206C"/>
  <path d="m55.183 40.904-.518 2.106s-.765.757-1.862.757c-.29 0-1.221 0-1.242-.859-.02-2.27 3.622-2.004 3.622-2.004Zm.476-1.942s-2.566-.205-4.677.674c-1.552.655-2.815 1.963-2.815 4.07 0 .593.745 2.229 2.98 2.33.083 0 1.925.103 2.939-.572l-.145.593h3.166s1.138-4.09 2.028-8.281c.02-.123.476-2.925-4.346-2.74-.6.02-2.607-.02-3.621-.02l-.662 2.657h3.29c2.608-.02 2.07 1.289 1.863 1.289Zm-34.725-3.967.745-2.986h-3.104c-.87 0-8.34-.675-8.899 9.55-.041.634-.082 4.519 5.277 4.519.414 0 2.711-.02 3.27-.02l.786-2.986s-.807.04-2.628.02c-1.904-.02-3.518.41-3.27-2.351.063-.634.828-5.726 5.008-5.726h2.815v-.02Zm8.919 11.062h3.27s1.78-7.239 1.82-7.422c.042-.185.414-.962 1.842-.962.414 0 1.345.123 1.263 1.268-.021.389-1.718 7.137-1.718 7.137h3.187s1.8-6.973 1.883-7.444c.02-.143.828-3.292-2.297-3.578-.393-.04-1.324-.204-3.394.552l.124-.572h-3.166l-2.814 11.021Zm13.969-12.719h3.186l-.372 1.657 3.063-.02-.663 2.657h-3.124s-1.056 4.315-1.118 4.5c-.082.285-.455 1.328 1.035 1.328.58 0 1.718-.02 1.718-.02l-.621 2.576h-2.4c-.394 0-3.477.144-3.27-2.29.082-.45 2.566-10.388 2.566-10.388Zm26.26 0h3.187l-.373 1.657h3.064l-.186.797-.455 1.861h-3.104s-1.056 4.315-1.118 4.499c-.083.286-.455 1.329 1.035 1.329.58 0 1.717-.02 1.717-.02l-.62 2.576h-2.4c-.394 0-3.478.143-3.27-2.29.04-.47 2.524-10.409 2.524-10.409Zm-2.318 4.315h-2.027c-3.29 0-3.58 3.538-3.58 4.11.04 1.8 1.448 1.718 2.069 1.718h2.131l-.62 2.597h-2.38c-4.677 0-4.636-3.395-4.594-3.824.724-7.607 7.263-7.239 7.47-7.239h2.214l-.683 2.638Z" fill="#0F206C"/>
  <path d="m16.94 47.754-.435 2.107h55.75l.6-2.107H16.94Z" fill="#EE8F21"/>
  <path d="m16.94 47.754-.435 2.107h-5.277l.393-2.107h5.319Z" fill="#F4B938"/>
  <path d="m11.621 47.754-.393 2.107H8l.476-2.107h3.145Z" fill="#EEE433"/>
</svg>
