<svg width="113" height="113" viewBox="0 0 113 113" fill="none" xmlns="http://www.w3.org/2000/svg">
  <g filter="url(#filter0_d)">
    <path d="M56.5 93C79.42 93 98 74.42 98 51.5S79.42 10 56.5 10 15 28.58 15 51.5 33.58 93 56.5 93Z" fill="#fff"/>
  </g>
  <mask id="path-2-inside-1" fill="#fff">
    <path d="M15.337 62.013a42.445 42.445 0 0 1 1.133-24.836l39.975 14.268-41.108 10.568Z"/>
  </mask>
  <path d="M15.337 62.013a42.445 42.445 0 0 1 1.133-24.836l39.975 14.268-41.108 10.568Z" stroke="#EEE433" stroke-width="4" mask="url(#path-2-inside-1)"/>
  <mask id="path-3-inside-2" fill="#fff">
    <path d="M29.553 84.284a42.446 42.446 0 0 1-14.265-22.462l41.157-10.377-26.892 32.84Z"/>
  </mask>
  <path d="M29.553 84.284a42.446 42.446 0 0 1-14.265-22.462l41.157-10.377-26.892 32.84Z" stroke="#F4B938" stroke-width="4" mask="url(#path-3-inside-2)"/>
  <mask id="path-4-inside-3" fill="#fff">
    <path d="M16.485 37.136a42.446 42.446 0 1 1 12.932 47.036l27.028-32.727-39.96-14.309Z"/>
  </mask>
  <path d="M16.485 37.136a42.446 42.446 0 1 1 12.932 47.036l27.028-32.727-39.96-14.309Z" stroke="#EE8F21" stroke-width="4" mask="url(#path-4-inside-3)"/>
  <circle cx="56.5" cy="51.5" r="40.5" fill="#fff"/>
  <path d="M48.897 47h-2.509c-.715 1.352-2.028 2.158-3.549 2.158-2.288 0-4.108-1.924-4.108-4.42v-1.287h1.82v1.118c0 1.703.845 2.899 2.301 2.899 1.43 0 2.275-1.079 2.275-2.899v-5.941h1.82v6.63h1.95V47Zm3.586-2.509c0 .689-.195 1.261-.572 1.716-.43.533-1.027.793-1.781.793h-1.547v-1.742h1.157c.61 0 .923-.429.923-1.274v-2.873h1.82v3.38Zm-.117 4.667H50.74V47.65h1.625v1.508Zm-2.457 0h-1.612V47.65h1.612v1.508ZM61.235 47H59.52c-.208 1.43-1.196 2.145-2.964 2.145h-.195v-1.456h.156c.702 0 1.118-.26 1.261-.767-.143.052-.507.078-1.118.078-1.703 0-2.95-1.235-2.95-2.964 0-1.755 1.221-2.938 2.95-2.938 1.664 0 2.886 1.248 2.886 2.977v1.183h1.69V47Zm-3.51-1.742v-1.261c0-.767-.455-1.261-1.118-1.261-.689 0-1.053.533-1.053 1.222 0 .741.442 1.3 1.118 1.3h1.053ZM69.751 47h-2.08c-.533.741-1.352 1.118-2.431 1.118-1.105 0-1.924-.377-2.47-1.118h-1.989v-1.742h1.456c0-1.872 1.066-3.042 2.951-3.042 1.898 0 3.042 1.131 3.042 3.042h1.521V47Zm-3.328-1.781c0-1.027-.39-1.547-1.157-1.547h-.13c-.663 0-1.105.624-1.105 1.469 0 .871.442 1.495 1.209 1.495.741 0 1.183-.546 1.183-1.417Zm6.725-5.096h-1.625v-1.495h1.625v1.495Zm-2.457 0H69.08v-1.495h1.612v1.495Zm2.574 4.368c0 .689-.195 1.261-.572 1.716-.429.533-1.027.793-1.78.793h-1.548v-1.742h1.157c.611 0 .923-.429.923-1.274v-2.873h1.82v3.38ZM40.931 63h-8.84c-2.873 0-4.303-1.209-4.303-3.64v-2.249h1.794v2.249c0 .767.247 1.3.728 1.573.377.221.975.325 1.82.325h4.147c.611 0 .923-.416.923-1.248v-2.899h1.82v2.834c0 .481-.065.91-.208 1.313h2.12V63Zm-6.474 2.158h-1.625V63.65h1.625v1.508ZM46.575 63h-5.85v-1.742h1.196c.611 0 .91-.416.91-1.248v-2.899h1.833v2.834c0 .481-.065.91-.208 1.313h2.12V63Zm-2.093 2.158H42.87V63.65h1.612v1.508Zm-2.444 0h-1.612V63.65h1.612v1.508ZM58.7 63H46.362v-1.742h2.08v-6.63h1.807l-.169 4.251c1.17-1.222 2.34-1.794 3.64-1.794 2.145 0 3.367 1.508 3.562 4.173H58.7V63Zm-3.328-1.742c.013-.091.013-.169.013-.26 0-1.352-.676-2.327-1.807-2.327-1.339 0-2.535.871-3.536 2.587h5.33ZM71.8 63H58.15v-1.742h1.637c.599 0 .923-.325.923-1.235v-2.912h1.833v2.834c0 .481-.078.923-.22 1.313h1.156c.611 0 .923-.39.923-1.17v-2.977h1.82v2.834c0 .481-.078.923-.22 1.313h1.156c.612 0 .924-.39.924-1.17v-2.977h1.832v2.821c0 .481-.078.923-.233 1.326h2.118V63Zm-6.956-6.877h-1.625v-1.495h1.626v1.495Zm1.197-2.145h-1.613v-1.495h1.612v1.495Zm1.247 2.145h-1.612v-1.495h1.612v1.495Zm8.007 0h-1.612v-1.495h1.612v1.495Zm-2.444 0h-1.612v-1.495h1.612v1.495ZM77.348 63h-5.863v-1.742h1.196c.61 0 .923-.416.923-1.248v-2.899h1.833v2.834c0 .481-.078.91-.221 1.313h2.132V63Zm3.532-2.509c0 .689-.195 1.261-.572 1.716-.43.533-1.027.793-1.794.793h-1.716v-1.742h1.339c.61 0 .923-.429.923-1.274v-5.356h1.82v5.863ZM84.032 63h-1.82v-8.385h1.82V63Z" fill="#967858"/>
  <defs>
    <filter id="filter0_d" x="0" y="0" width="113" height="113" filterUnits="userSpaceOnUse" color-interpolation-filters="sRGB">
      <feFlood flood-opacity="0" result="BackgroundImageFix"/>
      <feColorMatrix in="SourceAlpha" values="0 0 0 0 0 0 0 0 0 0 0 0 0 0 0 0 0 0 127 0"/>
      <feOffset dy="5"/>
      <feGaussianBlur stdDeviation="7.5"/>
      <feColorMatrix values="0 0 0 0 0 0 0 0 0 0 0 0 0 0 0 0 0 0 0.15 0"/>
      <feBlend in2="BackgroundImageFix" result="effect1_dropShadow"/>
      <feBlend in="SourceGraphic" in2="effect1_dropShadow" result="shape"/>
    </filter>
  </defs>
</svg>
