<svg width="113" height="113" viewBox="0 0 113 113" fill="none" xmlns="http://www.w3.org/2000/svg">
  <g filter="url(#filter0_d)">
    <path d="M56.5 93C79.42 93 98 74.42 98 51.5S79.42 10 56.5 10 15 28.58 15 51.5 33.58 93 56.5 93Z" fill="#fff"/>
  </g>
  <mask id="path-2-inside-1" fill="#fff">
    <path d="M15.337 62.013a42.445 42.445 0 0 1 1.133-24.836l39.975 14.268-41.108 10.568Z"/>
  </mask>
  <path d="M15.337 62.013a42.445 42.445 0 0 1 1.133-24.836l39.975 14.268-41.108 10.568Z" stroke="#EEE433" stroke-width="4" mask="url(#path-2-inside-1)"/>
  <mask id="path-3-inside-2" fill="#fff">
    <path d="M29.553 84.284a42.446 42.446 0 0 1-14.265-22.462l41.157-10.377-26.892 32.84Z"/>
  </mask>
  <path d="M29.553 84.284a42.446 42.446 0 0 1-14.265-22.462l41.157-10.377-26.892 32.84Z" stroke="#F4B938" stroke-width="4" mask="url(#path-3-inside-2)"/>
  <mask id="path-4-inside-3" fill="#fff">
    <path d="M16.485 37.136a42.446 42.446 0 1 1 12.932 47.036l27.028-32.727-39.96-14.309Z"/>
  </mask>
  <path d="M16.485 37.136a42.446 42.446 0 1 1 12.932 47.036l27.028-32.727-39.96-14.309Z" stroke="#EE8F21" stroke-width="4" mask="url(#path-4-inside-3)"/>
  <circle cx="56.5" cy="51.5" r="40.5" fill="#fff"/>
  <path d="M40.175 38.628h-1.612V37.12h1.612v1.508Zm-2.444 0h-1.612V37.12h1.612v1.508ZM43.087 47h-1.833c-1.04 0-1.768-.533-2.184-1.599-.325.507-.95.78-1.846.78-1.56 0-2.561-1.352-2.561-3.146 0-1.937.975-3.185 2.69-3.185 0-.013 1.158-.013 3.472-.013v4.095c0 .858.442 1.326 1.326 1.326h.936V47Zm-4.134-4.108v-1.716h-1.196c-.741 0-1.287.819-1.287 1.833 0 .91.52 1.664 1.248 1.664.767 0 1.235-.715 1.235-1.781ZM53.63 47H42.19v-1.742h2.665v-6.63h1.807l-.169 4.251c1.17-1.222 2.34-1.794 3.627-1.794 2.34 0 3.575 1.807 3.575 4.719 0 .39-.026.793-.065 1.196Zm-1.846-1.742c.013-.091.013-.169.013-.26 0-1.352-.676-2.327-1.807-2.327-1.339 0-2.535.871-3.536 2.587h5.33ZM58.95 47h-1.716c-1.39 0-2.197-.806-2.197-2.145v-6.24h1.82v5.291c0 .884.221 1.352 1.56 1.352h.533V47Zm-.554 0v-1.742h1.638c.416 0 .702-.195.845-.572.052-.104.078-.325.078-.676v-2.899h1.833v2.834c0 .481-.078.923-.221 1.313h1.157c.611 0 .923-.39.923-1.17v-2.977h1.82v2.834c0 .481-.078.923-.221 1.313h1.157c.611 0 .923-.39.923-1.17v-2.977h1.833v2.821c0 1.014-.312 1.807-.949 2.379-.507.455-1.092.689-1.742.689h-9.074Zm18.928-.26c0 1.599-.987 2.405-2.977 2.405h-.181v-1.456h.117c.727 0 1.442-.507 1.442-1.209-.246.403-.675.598-1.286.598-1.677 0-2.925-1.274-2.925-3.016 0-1.781 1.222-2.977 2.925-2.977 1.677 0 2.886 1.287 2.886 3.003v2.652Zm-1.82-2.652c0-.793-.455-1.352-1.105-1.352-.636 0-1.066.546-1.066 1.313 0 .728.416 1.339 1.132 1.339.65 0 1.04-.507 1.04-1.3Zm-34.707 10.54h-1.612V53.12h1.612v1.508Zm-2.444 0H36.74V53.12h1.612v1.508ZM43.709 63h-1.833c-1.04 0-1.768-.533-2.184-1.599-.325.507-.95.78-1.846.78-1.56 0-2.561-1.352-2.561-3.146 0-1.937.975-3.185 2.69-3.185 0-.013 1.158-.013 3.472-.013v4.095c0 .858.442 1.326 1.326 1.326h.936V63Zm-4.134-4.108v-1.716h-1.196c-.741 0-1.287.819-1.287 1.833 0 .91.52 1.664 1.248 1.664.767 0 1.235-.715 1.235-1.781ZM49.235 63h-5.85v-1.742h1.196c.611 0 .91-.416.91-1.248v-2.899h1.833v2.834c0 .481-.065.91-.208 1.313h2.12V63Zm-2.093 2.158H45.53V63.65h1.612v1.508Zm-2.444 0h-1.612V63.65h1.612v1.508Zm8.068-9.035h-1.625v-1.495h1.625v1.495ZM54.82 63h-5.863v-1.742h1.196c.611 0 .923-.416.923-1.248v-2.899h1.833v2.834c0 .481-.078.91-.22 1.313h2.131V63Zm5.625 0h-5.85v-1.742h1.196c.611 0 .91-.416.91-1.248v-2.899h1.833v2.834c0 .481-.065.91-.208 1.313h2.119V63Zm-2.093 2.158H56.74V63.65h1.612v1.508Zm-2.444 0h-1.612V63.65h1.612v1.508Zm11.93-4.004c0 1.742-1.17 2.964-2.99 2.964-1.106 0-1.938-.377-2.47-1.118h-2.34v-1.742h1.806c0-1.859 1.066-3.042 2.938-3.042s3.055 1.157 3.055 2.938Zm-1.808.065c0-1.027-.39-1.547-1.157-1.547h-.13c-.663 0-1.118.611-1.118 1.469 0 .884.442 1.495 1.222 1.495.715 0 1.183-.572 1.183-1.417Zm5.672-7.709c-.299.364-.598.546-.897.546-.286 0-1.118-.468-1.417-.468-.195 0-.39.143-.598.429l-.26-.715c.273-.364.56-.546.858-.546.286 0 1.235.481 1.404.481.195 0 .416-.143.663-.429l.247.702ZM73.08 63h-1.716c-1.39 0-2.197-.806-2.197-2.145v-6.24h1.82v5.291c0 .884.221 1.352 1.56 1.352h.533V63Zm3.515-6.877H74.97v-1.495h1.625v1.495Zm-2.457 0h-1.612v-1.495h1.612v1.495Zm2.574 4.368c0 .689-.195 1.261-.572 1.716-.43.533-1.027.793-1.781.793h-1.547v-1.742h1.157c.61 0 .923-.429.923-1.274v-2.873h1.82v3.38Z" fill="#6E6F72"/>
  <defs>
    <filter id="filter0_d" x="0" y="0" width="113" height="113" filterUnits="userSpaceOnUse" color-interpolation-filters="sRGB">
      <feFlood flood-opacity="0" result="BackgroundImageFix"/>
      <feColorMatrix in="SourceAlpha" values="0 0 0 0 0 0 0 0 0 0 0 0 0 0 0 0 0 0 127 0"/>
      <feOffset dy="5"/>
      <feGaussianBlur stdDeviation="7.5"/>
      <feColorMatrix values="0 0 0 0 0 0 0 0 0 0 0 0 0 0 0 0 0 0 0.15 0"/>
      <feBlend in2="BackgroundImageFix" result="effect1_dropShadow"/>
      <feBlend in="SourceGraphic" in2="effect1_dropShadow" result="shape"/>
    </filter>
  </defs>
</svg>
