<svg width="113" height="113" viewBox="0 0 113 113" fill="none" xmlns="http://www.w3.org/2000/svg">
  <g filter="url(#filter0_d)">
    <path d="M56.5 93C79.42 93 98 74.42 98 51.5S79.42 10 56.5 10 15 28.58 15 51.5 33.58 93 56.5 93Z" fill="#fff"/>
  </g>
  <mask id="path-2-inside-1" fill="#fff">
    <path d="M15.337 62.013a42.445 42.445 0 0 1 1.133-24.836l39.975 14.268-41.108 10.568Z"/>
  </mask>
  <path d="M15.337 62.013a42.445 42.445 0 0 1 1.133-24.836l39.975 14.268-41.108 10.568Z" stroke="#EEE433" stroke-width="4" mask="url(#path-2-inside-1)"/>
  <mask id="path-3-inside-2" fill="#fff">
    <path d="M29.553 84.284a42.446 42.446 0 0 1-14.265-22.462l41.157-10.377-26.892 32.84Z"/>
  </mask>
  <path d="M29.553 84.284a42.446 42.446 0 0 1-14.265-22.462l41.157-10.377-26.892 32.84Z" stroke="#F4B938" stroke-width="4" mask="url(#path-3-inside-2)"/>
  <mask id="path-4-inside-3" fill="#fff">
    <path d="M16.485 37.136a42.446 42.446 0 1 1 12.932 47.036l27.028-32.727-39.96-14.309Z"/>
  </mask>
  <path d="M16.485 37.136a42.446 42.446 0 1 1 12.932 47.036l27.028-32.727-39.96-14.309Z" stroke="#EE8F21" stroke-width="4" mask="url(#path-4-inside-3)"/>
  <circle cx="56.5" cy="51.5" r="40.5" fill="#fff"/>
  <path d="M28.036 48v-9.1h-2.56V48h2.56Zm8.32 0v-3.562c0-2.288-1.157-3.003-2.509-3.016-.676-.013-1.482.221-2.028.858l-.104-.702h-2.119V48h2.366v-3.38c0-.845.533-1.235 1.105-1.235.442 0 .897.273.897 1.066V48h2.392Zm.872-.676c.728.533 1.989.845 3.107.845 1.547 0 2.99-.598 2.99-2.184 0-1.703-1.612-2.08-2.951-2.119-.39-.013-.481-.195-.481-.312 0-.234.234-.312.572-.312.52-.013 1.261.169 1.612.39l1.014-1.43c-.624-.468-1.586-.78-2.626-.78-1.508 0-2.964.559-2.964 2.106 0 1.56 1.508 2.067 2.756 2.106.468.039.676.143.676.351s-.221.312-.65.312c-.52-.026-1.3-.078-2.275-.715l-.78 1.742Zm7.017-5.746v3.562c0 2.288 1.157 3.003 2.509 3.016.676.013 1.482-.221 2.028-.858l.104.702h2.119v-6.422h-2.366v3.419c0 .845-.533 1.196-1.105 1.196-.442 0-.897-.273-.897-1.066v-3.549h-2.392Zm8.165 0V48h2.392v-3.341c0-.845.507-1.209 1.105-1.209.403 0 .689.078 1.079.39l.962-1.729c-.416-.442-1.04-.689-1.69-.689-.625 0-1.223.26-1.56.858l-.144-.702H52.41Zm10.62.689c-.338-.52-.975-.832-1.885-.832-1.872 0-3.12 1.456-3.12 3.354 0 1.872 1.053 3.211 2.938 3.328.715.039 1.573-.182 2.12-.806l.103.689h2.21v-6.422h-2.249l-.117.689Zm-1.339 1.105c.845 0 1.326.559 1.326 1.417 0 .754-.52 1.404-1.326 1.404-.715 0-1.287-.507-1.287-1.404 0-.897.572-1.417 1.287-1.417ZM73.566 48v-3.562c0-2.288-1.157-3.003-2.509-3.016-.676-.013-1.482.221-2.028.858l-.104-.702h-2.119V48h2.366v-3.38c0-.845.533-1.235 1.105-1.235.442 0 .897.273.897 1.066V48h2.392Zm5.903-2.392a1.62 1.62 0 0 1-1.196.533c-.91 0-1.391-.624-1.391-1.326 0-.806.494-1.469 1.404-1.469.429 0 .793.143 1.105.468l1.274-1.378c-.676-.676-1.6-1.001-2.522-1.001-1.807 0-3.601 1.027-3.601 3.367 0 2.405 1.768 3.328 3.64 3.328.962 0 1.885-.403 2.652-1.092l-1.365-1.43Zm4.093-1.677c.156-1.053 2.262-1.014 2.327 0h-2.327Zm1.144-2.509c-1.742 0-3.575 1.04-3.575 3.38s1.716 3.341 3.744 3.341c1.105 0 2.158-.351 2.925-1.066l-1.17-1.313c-.416.312-.95.52-1.651.52-.52 0-1.261-.247-1.43-.819h4.485c.546-2.535-1.053-4.043-3.328-4.043ZM25.8 57.269h2.171c.637 0 .962.377.962.871 0 .507-.312.858-.962.858h-2.17v-1.729Zm0-3.289h2.08c.507 0 .793.312.793.715 0 .403-.286.676-.819.676H25.8V53.98Zm-2.535-2.08V61h4.693c1.664-.013 3.523-.624 3.523-2.665a2.39 2.39 0 0 0-1.26-2.119c.792-.364 1-1.079 1-1.768 0-1.742-1.482-2.548-3.302-2.548h-4.654Zm9.3 2.678V61h2.393v-3.341c0-.845.507-1.209 1.105-1.209.403 0 .689.078 1.079.39l.962-1.729c-.416-.442-1.04-.689-1.69-.689-.624 0-1.222.26-1.56.858l-.143-.702h-2.145Zm9.282-.143c-1.858 0-3.666.988-3.666 3.367 0 2.34 1.82 3.354 3.666 3.354 1.808 0 3.666-1.014 3.666-3.354s-1.768-3.367-3.666-3.367Zm0 4.758c-.844 0-1.325-.65-1.325-1.391s.48-1.404 1.325-1.404c.846 0 1.327.663 1.327 1.404 0 .78-.52 1.391-1.326 1.391ZM46.57 51.9V61h2.405v-2.236L50.639 61h2.704v-.143l-2.613-3.263 2.249-2.912v-.104h-2.665l-1.34 1.885V51.9H46.57Zm9.138 5.031c.156-1.053 2.262-1.014 2.327 0h-2.327Zm1.144-2.509c-1.742 0-3.575 1.04-3.575 3.38s1.716 3.341 3.744 3.341c1.105 0 2.158-.351 2.925-1.066l-1.17-1.313c-.416.312-.949.52-1.65.52-.52 0-1.262-.247-1.43-.819h4.484c.546-2.535-1.053-4.043-3.328-4.043Zm4.444.156V61h2.392v-3.341c0-.845.507-1.209 1.105-1.209.403 0 .69.078 1.08.39l.961-1.729c-.416-.442-1.04-.689-1.69-.689-.624 0-1.222.26-1.56.858l-.143-.702h-2.145Zm10.621.689c-.338-.52-.975-.832-1.885-.832-1.872 0-3.12 1.456-3.12 3.354 0 1.872 1.053 3.211 2.938 3.328.715.039 1.573-.182 2.119-.806l.104.689h2.21v-6.422h-2.249l-.117.689Zm-1.339 1.105c.845 0 1.326.559 1.326 1.417 0 .754-.52 1.404-1.326 1.404-.715 0-1.287-.507-1.287-1.404 0-.897.572-1.417 1.287-1.417Zm4.855 5.083c-.13 1.963 1.157 3.159 3.458 3.159 1.833 0 3.64-.78 3.64-2.86 0-.351-.078-1.261-1.261-1.937.74-.533 1.157-1.326 1.17-2.132a2.406 2.406 0 0 0-.611-1.729l.832-.988-1.73-1.235c-.207.273-.467.598-.688.884a3.923 3.923 0 0 0-1.326-.247c-1.99 0-3.575 1.274-3.575 3.289 0 1.989 1.417 3.237 3.575 3.237.87 0 1.157.39 1.157.858 0 .624-.56.923-1.183.923-.637 0-1.235-.221-1.21-1.222h-2.248Zm3.484-5.122c.702 0 1.209.598 1.209 1.326 0 .858-.572 1.261-1.21 1.261-.701 0-1.247-.494-1.247-1.261 0-.858.546-1.326 1.248-1.326Zm6.854.598c.156-1.053 2.262-1.014 2.327 0H85.77Zm1.144-2.509c-1.742 0-3.575 1.04-3.575 3.38s1.716 3.341 3.744 3.341c1.105 0 2.158-.351 2.925-1.066l-1.17-1.313c-.416.312-.95.52-1.651.52-.52 0-1.261-.247-1.43-.819h4.485c.546-2.535-1.053-4.043-3.328-4.043Z" fill="#6E6F72"/>
  <defs>
    <filter id="filter0_d" x="0" y="0" width="113" height="113" filterUnits="userSpaceOnUse" color-interpolation-filters="sRGB">
      <feFlood flood-opacity="0" result="BackgroundImageFix"/>
      <feColorMatrix in="SourceAlpha" values="0 0 0 0 0 0 0 0 0 0 0 0 0 0 0 0 0 0 127 0"/>
      <feOffset dy="5"/>
      <feGaussianBlur stdDeviation="7.5"/>
      <feColorMatrix values="0 0 0 0 0 0 0 0 0 0 0 0 0 0 0 0 0 0 0.15 0"/>
      <feBlend in2="BackgroundImageFix" result="effect1_dropShadow"/>
      <feBlend in="SourceGraphic" in2="effect1_dropShadow" result="shape"/>
    </filter>
  </defs>
</svg>
