<svg width="113" height="113" viewBox="0 0 113 113" fill="none" xmlns="http://www.w3.org/2000/svg">
  <g filter="url(#filter0_d)">
    <path d="M56.5 93C79.42 93 98 74.42 98 51.5S79.42 10 56.5 10 15 28.58 15 51.5 33.58 93 56.5 93Z" fill="#fff"/>
  </g>
  <mask id="path-2-inside-1" fill="#fff">
    <path d="M15.337 62.013a42.445 42.445 0 0 1 1.133-24.836l39.975 14.268-41.108 10.568Z"/>
  </mask>
  <path d="M15.337 62.013a42.445 42.445 0 0 1 1.133-24.836l39.975 14.268-41.108 10.568Z" stroke="#EEE433" stroke-width="4" mask="url(#path-2-inside-1)"/>
  <mask id="path-3-inside-2" fill="#fff">
    <path d="M29.553 84.284a42.446 42.446 0 0 1-14.265-22.462l41.157-10.377-26.892 32.84Z"/>
  </mask>
  <path d="M29.553 84.284a42.446 42.446 0 0 1-14.265-22.462l41.157-10.377-26.892 32.84Z" stroke="#F4B938" stroke-width="4" mask="url(#path-3-inside-2)"/>
  <mask id="path-4-inside-3" fill="#fff">
    <path d="M16.485 37.136a42.446 42.446 0 1 1 12.932 47.036l27.028-32.727-39.96-14.309Z"/>
  </mask>
  <path d="M16.485 37.136a42.446 42.446 0 1 1 12.932 47.036l27.028-32.727-39.96-14.309Z" stroke="#EE8F21" stroke-width="4" mask="url(#path-4-inside-3)"/>
  <circle cx="56.5" cy="51.5" r="40.5" fill="#fff"/>
  <path d="M47.759 47h-2.015c-.3 1.43-1.47 2.145-3.536 2.145v-1.469c1.196 0 1.794-.572 1.794-1.716v-4.849h1.833v4.147h1.924V47Zm5.486 0h-5.85v-1.742h1.196c.611 0 .91-.416.91-1.248v-2.899h1.833v2.834c0 .481-.065.91-.208 1.313h2.12V47Zm-2.093 2.158H49.54V47.65h1.612v1.508Zm-2.444 0h-1.612V47.65h1.612v1.508ZM62.158 47h-9.295v-1.742h7.358c-.078-1.469-1.196-2.613-2.717-2.613-.78 0-1.664.403-2.184.936l-.91-1.235c.884-.923 1.963-1.378 3.224-1.378 2.977.013 4.524 2.041 4.524 5.434V47Zm-3.523 2.158H57.01V47.65h1.625v1.508Zm7.391-11.648c-.299.364-.598.546-.897.546-.286 0-1.118-.468-1.417-.468-.195 0-.39.143-.598.429l-.26-.715c.273-.364.56-.546.858-.546.286 0 1.235.481 1.404.481.195 0 .416-.143.663-.429l.247.702ZM67.404 47h-1.716c-1.39 0-2.197-.806-2.197-2.145v-6.24h1.82v5.291c0 .884.221 1.352 1.56 1.352h.533V47Zm3.515-6.877h-1.625v-1.495h1.625v1.495Zm-2.457 0H66.85v-1.495h1.612v1.495Zm2.574 4.368c0 .689-.195 1.261-.572 1.716-.43.533-1.027.793-1.781.793h-1.547v-1.742h1.157c.61 0 .923-.429.923-1.274v-2.873h1.82v3.38ZM47.18 63h-.091c-1.054 0-1.834-.26-2.34-.767-.404 1.755-2.25 2.925-4.368 2.925-2.6 0-4.654-1.911-4.654-4.433v-1.56h1.82v1.391c0 1.742 1.026 2.912 2.872 2.912 1.404 0 2.743-.884 2.743-2.093 0-.689-.584-1.144-1.208-1.144-.105 0-.209.013-.313.039v-1.586c0-.013.26-.013.793-.013 1.313 0 2.288.598 2.912 1.794.313.598.767.793 1.547.793h.287V63Zm5.67 0h-5.902v-1.742h1.235c.61 0 .923-.416.923-1.248v-5.382h1.833v5.317c0 .481-.078.91-.221 1.313h2.132V63Zm3.636-2.509c0 .689-.195 1.261-.572 1.716-.43.533-1.027.793-1.781.793h-1.547v-1.742h1.157c.61 0 .923-.429.923-1.274v-2.873h1.82v3.38Zm-.117 4.667h-1.625V63.65h1.625v1.508Zm-2.457 0H52.3V63.65h1.612v1.508ZM65.239 63h-1.716c-.208 1.43-1.196 2.145-2.964 2.145h-.195v-1.456h.156c.702 0 1.118-.26 1.261-.767-.143.052-.507.078-1.118.078-1.703 0-2.95-1.235-2.95-2.964 0-1.755 1.221-2.938 2.95-2.938 1.664 0 2.886 1.248 2.886 2.977v1.183h1.69V63Zm-3.51-1.742v-1.261c0-.767-.455-1.261-1.118-1.261-.689 0-1.053.533-1.053 1.222 0 .741.442 1.3 1.118 1.3h1.053ZM73.755 63h-2.08c-.533.741-1.352 1.118-2.431 1.118-1.105 0-1.924-.377-2.47-1.118h-1.99v-1.742h1.457c0-1.872 1.066-3.042 2.95-3.042 1.899 0 3.043 1.131 3.043 3.042h1.52V63Zm-3.328-1.781c0-1.027-.39-1.547-1.157-1.547h-.13c-.663 0-1.105.624-1.105 1.469 0 .871.442 1.495 1.209 1.495.74 0 1.183-.546 1.183-1.417Zm6.725-5.096h-1.625v-1.495h1.625v1.495Zm-2.457 0h-1.612v-1.495h1.612v1.495Zm2.574 4.368c0 .689-.195 1.261-.572 1.716-.429.533-1.027.793-1.781.793h-1.547v-1.742h1.157c.611 0 .923-.429.923-1.274v-2.873h1.82v3.38Z" fill="#7A1315"/>
  <defs>
    <filter id="filter0_d" x="0" y="0" width="113" height="113" filterUnits="userSpaceOnUse" color-interpolation-filters="sRGB">
      <feFlood flood-opacity="0" result="BackgroundImageFix"/>
      <feColorMatrix in="SourceAlpha" values="0 0 0 0 0 0 0 0 0 0 0 0 0 0 0 0 0 0 127 0"/>
      <feOffset dy="5"/>
      <feGaussianBlur stdDeviation="7.5"/>
      <feColorMatrix values="0 0 0 0 0 0 0 0 0 0 0 0 0 0 0 0 0 0 0.15 0"/>
      <feBlend in2="BackgroundImageFix" result="effect1_dropShadow"/>
      <feBlend in="SourceGraphic" in2="effect1_dropShadow" result="shape"/>
    </filter>
  </defs>
</svg>
