<svg width="113" height="113" viewBox="0 0 113 113" fill="none" xmlns="http://www.w3.org/2000/svg">
  <g filter="url(#filter0_d)">
    <path d="M56.5 93C79.42 93 98 74.42 98 51.5S79.42 10 56.5 10 15 28.58 15 51.5 33.58 93 56.5 93Z" fill="#fff"/>
  </g>
  <mask id="path-2-inside-1" fill="#fff">
    <path d="M15.337 62.013a42.445 42.445 0 0 1 1.133-24.836l39.975 14.268-41.108 10.568Z"/>
  </mask>
  <path d="M15.337 62.013a42.445 42.445 0 0 1 1.133-24.836l39.975 14.268-41.108 10.568Z" stroke="#EEE433" stroke-width="4" mask="url(#path-2-inside-1)"/>
  <mask id="path-3-inside-2" fill="#fff">
    <path d="M29.553 84.284a42.446 42.446 0 0 1-14.265-22.462l41.157-10.377-26.892 32.84Z"/>
  </mask>
  <path d="M29.553 84.284a42.446 42.446 0 0 1-14.265-22.462l41.157-10.377-26.892 32.84Z" stroke="#F4B938" stroke-width="4" mask="url(#path-3-inside-2)"/>
  <mask id="path-4-inside-3" fill="#fff">
    <path d="M16.485 37.136a42.446 42.446 0 1 1 12.932 47.036l27.028-32.727-39.96-14.309Z"/>
  </mask>
  <path d="M16.485 37.136a42.446 42.446 0 1 1 12.932 47.036l27.028-32.727-39.96-14.309Z" stroke="#EE8F21" stroke-width="4" mask="url(#path-4-inside-3)"/>
  <circle cx="56.5" cy="51.5" r="40.5" fill="#fff"/>
  <path d="M32.077 45.9V55h6.929v-2.184H34.65V45.9h-2.574Zm9.92 5.031c.156-1.053 2.262-1.014 2.327 0h-2.327Zm1.144-2.509c-1.742 0-3.575 1.04-3.575 3.38s1.716 3.341 3.744 3.341c1.105 0 2.158-.351 2.925-1.066l-1.17-1.313c-.416.312-.949.52-1.65.52-.52 0-1.262-.247-1.43-.819h4.484c.546-2.535-1.053-4.043-3.328-4.043Zm9.098.845c-.338-.52-.975-.832-1.885-.832-1.872 0-3.12 1.456-3.12 3.354 0 1.872 1.053 3.211 2.938 3.328.715.039 1.573-.182 2.12-.806l.103.689h2.21v-6.422h-2.249l-.117.689ZM50.9 50.372c.845 0 1.326.559 1.326 1.417 0 .754-.52 1.404-1.326 1.404-.715 0-1.287-.507-1.287-1.404 0-.897.572-1.417 1.287-1.417Zm4.66 3.952c.728.533 1.989.845 3.107.845 1.547 0 2.99-.598 2.99-2.184 0-1.703-1.612-2.08-2.951-2.119-.39-.013-.481-.195-.481-.312 0-.234.234-.312.572-.312.52-.013 1.261.169 1.612.39l1.014-1.43c-.624-.468-1.586-.78-2.626-.78-1.508 0-2.964.559-2.964 2.106 0 1.56 1.508 2.067 2.756 2.106.468.039.676.143.676.351s-.221.312-.65.312c-.52-.026-1.3-.078-2.275-.715l-.78 1.742Zm6.952-7.397c0 .793.676 1.196 1.352 1.196.663 0 1.339-.403 1.339-1.196 0-.806-.676-1.209-1.34-1.209-.675 0-1.351.403-1.351 1.209ZM62.655 55v-6.318h2.405V55h-2.405Zm10.568 0v-3.562c0-2.288-1.157-3.003-2.509-3.016-.676-.013-1.482.221-2.028.858l-.104-.702h-2.119V55h2.366v-3.38c0-.845.533-1.235 1.105-1.235.442 0 .897.273.897 1.066V55h2.392Zm1.067.455c-.13 1.963 1.157 3.159 3.458 3.159 1.833 0 3.64-.78 3.64-2.86 0-.351-.078-1.261-1.26-1.937.74-.533 1.156-1.326 1.17-2.132a2.406 2.406 0 0 0-.612-1.729l.832-.988-1.729-1.235c-.208.273-.468.598-.689.884a3.923 3.923 0 0 0-1.326-.247c-1.989 0-3.575 1.274-3.575 3.289 0 1.989 1.417 3.237 3.575 3.237.871 0 1.157.39 1.157.858 0 .624-.559.923-1.183.923-.637 0-1.235-.221-1.209-1.222H74.29Zm3.484-5.122c.702 0 1.21.598 1.21 1.326 0 .858-.573 1.261-1.21 1.261-.702 0-1.248-.494-1.248-1.261 0-.858.546-1.326 1.248-1.326Z" fill="#7A1315"/>
  <defs>
    <filter id="filter0_d" x="0" y="0" width="113" height="113" filterUnits="userSpaceOnUse" color-interpolation-filters="sRGB">
      <feFlood flood-opacity="0" result="BackgroundImageFix"/>
      <feColorMatrix in="SourceAlpha" values="0 0 0 0 0 0 0 0 0 0 0 0 0 0 0 0 0 0 127 0"/>
      <feOffset dy="5"/>
      <feGaussianBlur stdDeviation="7.5"/>
      <feColorMatrix values="0 0 0 0 0 0 0 0 0 0 0 0 0 0 0 0 0 0 0.15 0"/>
      <feBlend in2="BackgroundImageFix" result="effect1_dropShadow"/>
      <feBlend in="SourceGraphic" in2="effect1_dropShadow" result="shape"/>
    </filter>
  </defs>
</svg>
