<svg width="113" height="113" viewBox="0 0 113 113" fill="none" xmlns="http://www.w3.org/2000/svg">
  <g filter="url(#filter0_d)">
    <path d="M56.5 93C79.42 93 98 74.42 98 51.5S79.42 10 56.5 10 15 28.58 15 51.5 33.58 93 56.5 93Z" fill="#fff"/>
  </g>
  <mask id="path-2-inside-1" fill="#fff">
    <path d="M15.337 62.013a42.445 42.445 0 0 1 1.133-24.836l39.975 14.268-41.108 10.568Z"/>
  </mask>
  <path d="M15.337 62.013a42.445 42.445 0 0 1 1.133-24.836l39.975 14.268-41.108 10.568Z" stroke="#EEE433" stroke-width="4" mask="url(#path-2-inside-1)"/>
  <mask id="path-3-inside-2" fill="#fff">
    <path d="M29.553 84.284a42.446 42.446 0 0 1-14.265-22.462l41.157-10.377-26.892 32.84Z"/>
  </mask>
  <path d="M29.553 84.284a42.446 42.446 0 0 1-14.265-22.462l41.157-10.377-26.892 32.84Z" stroke="#F4B938" stroke-width="4" mask="url(#path-3-inside-2)"/>
  <mask id="path-4-inside-3" fill="#fff">
    <path d="M16.485 37.136a42.446 42.446 0 1 1 12.932 47.036l27.028-32.727-39.96-14.309Z"/>
  </mask>
  <path d="M16.485 37.136a42.446 42.446 0 1 1 12.932 47.036l27.028-32.727-39.96-14.309Z" stroke="#EE8F21" stroke-width="4" mask="url(#path-4-inside-3)"/>
  <circle cx="56.5" cy="51.5" r="40.5" fill="#fff"/>
  <path d="M32.886 55h2.548v-9.1h-2.678l-2.392 3.081-2.392-3.081h-2.69V55h2.547v-5.408l2.275 2.743h.455l2.327-2.756V55Zm7.321-6.565c-1.859 0-3.666.988-3.666 3.367 0 2.34 1.82 3.354 3.666 3.354 1.807 0 3.666-1.014 3.666-3.354s-1.768-3.367-3.666-3.367Zm0 4.758c-.845 0-1.326-.65-1.326-1.391s.481-1.404 1.326-1.404c.845 0 1.326.663 1.326 1.404 0 .78-.52 1.391-1.326 1.391Zm4.722-4.615V55h2.392v-3.341c0-.845.507-1.209 1.105-1.209.403 0 .689.078 1.079.39l.962-1.729c-.416-.442-1.04-.689-1.69-.689-.624 0-1.222.26-1.56.858l-.143-.702h-2.145Zm6.703-1.56v1.599h-1.027v1.833h1.027v2.106c-.039 2.015 1.105 2.6 2.38 2.6.662 0 1.3-.117 1.845-.429l-.52-1.768c-.195.13-.468.221-.702.221-.364 0-.624-.169-.637-.624V50.45h1.456v-1.833h-1.443v-1.859l-2.379.26Zm4.716 8.437c-.13 1.963 1.157 3.159 3.458 3.159 1.833 0 3.64-.78 3.64-2.86 0-.351-.078-1.261-1.26-1.937.74-.533 1.156-1.326 1.17-2.132a2.406 2.406 0 0 0-.612-1.729l.832-.988-1.729-1.235c-.208.273-.468.598-.689.884a3.923 3.923 0 0 0-1.326-.247c-1.989 0-3.575 1.274-3.575 3.289 0 1.989 1.417 3.237 3.575 3.237.871 0 1.157.39 1.157.858 0 .624-.559.923-1.183.923-.637 0-1.235-.221-1.209-1.222h-2.249Zm3.484-5.122c.702 0 1.21.598 1.21 1.326 0 .858-.573 1.261-1.21 1.261-.702 0-1.248-.494-1.248-1.261 0-.858.546-1.326 1.248-1.326Zm9.428-1.066c-.338-.52-.975-.832-1.885-.832-1.872 0-3.12 1.456-3.12 3.354 0 1.872 1.053 3.211 2.938 3.328.715.039 1.573-.182 2.12-.806l.103.689h2.21v-6.422h-2.249l-.117.689Zm-1.339 1.105c.845 0 1.326.559 1.326 1.417 0 .754-.52 1.404-1.326 1.404-.715 0-1.287-.507-1.287-1.404 0-.897.572-1.417 1.287-1.417Zm4.855 5.083c-.13 1.963 1.157 3.159 3.458 3.159 1.833 0 3.64-.78 3.64-2.86 0-.351-.078-1.261-1.261-1.937.741-.533 1.157-1.326 1.17-2.132a2.406 2.406 0 0 0-.611-1.729l.832-.988-1.729-1.235c-.208.273-.468.598-.689.884a3.923 3.923 0 0 0-1.326-.247c-1.989 0-3.575 1.274-3.575 3.289 0 1.989 1.417 3.237 3.575 3.237.871 0 1.157.39 1.157.858 0 .624-.559.923-1.183.923-.637 0-1.235-.221-1.209-1.222h-2.249Zm3.484-5.122c.702 0 1.209.598 1.209 1.326 0 .858-.572 1.261-1.209 1.261-.702 0-1.248-.494-1.248-1.261 0-.858.546-1.326 1.248-1.326Zm6.854.598c.156-1.053 2.262-1.014 2.327 0h-2.327Zm1.144-2.509c-1.742 0-3.575 1.04-3.575 3.38s1.716 3.341 3.744 3.341c1.105 0 2.158-.351 2.925-1.066l-1.17-1.313c-.416.312-.949.52-1.651.52-.52 0-1.261-.247-1.43-.819h4.485c.546-2.535-1.053-4.043-3.328-4.043Z" fill="#2C988D"/>
  <defs>
    <filter id="filter0_d" x="0" y="0" width="113" height="113" filterUnits="userSpaceOnUse" color-interpolation-filters="sRGB">
      <feFlood flood-opacity="0" result="BackgroundImageFix"/>
      <feColorMatrix in="SourceAlpha" values="0 0 0 0 0 0 0 0 0 0 0 0 0 0 0 0 0 0 127 0"/>
      <feOffset dy="5"/>
      <feGaussianBlur stdDeviation="7.5"/>
      <feColorMatrix values="0 0 0 0 0 0 0 0 0 0 0 0 0 0 0 0 0 0 0.15 0"/>
      <feBlend in2="BackgroundImageFix" result="effect1_dropShadow"/>
      <feBlend in="SourceGraphic" in2="effect1_dropShadow" result="shape"/>
    </filter>
  </defs>
</svg>
