<svg width="113" height="113" viewBox="0 0 113 113" fill="none" xmlns="http://www.w3.org/2000/svg">
  <g filter="url(#filter0_d)">
    <path d="M56.5 93C79.42 93 98 74.42 98 51.5S79.42 10 56.5 10 15 28.58 15 51.5 33.58 93 56.5 93Z" fill="#fff"/>
  </g>
  <mask id="path-2-inside-1" fill="#fff">
    <path d="M15.337 62.013a42.445 42.445 0 0 1 1.133-24.836l39.975 14.268-41.108 10.568Z"/>
  </mask>
  <path d="M15.337 62.013a42.445 42.445 0 0 1 1.133-24.836l39.975 14.268-41.108 10.568Z" stroke="#EEE433" stroke-width="4" mask="url(#path-2-inside-1)"/>
  <mask id="path-3-inside-2" fill="#fff">
    <path d="M29.553 84.284a42.446 42.446 0 0 1-14.265-22.462l41.157-10.377-26.892 32.84Z"/>
  </mask>
  <path d="M29.553 84.284a42.446 42.446 0 0 1-14.265-22.462l41.157-10.377-26.892 32.84Z" stroke="#F4B938" stroke-width="4" mask="url(#path-3-inside-2)"/>
  <mask id="path-4-inside-3" fill="#fff">
    <path d="M16.485 37.136a42.446 42.446 0 1 1 12.932 47.036l27.028-32.727-39.96-14.309Z"/>
  </mask>
  <path d="M16.485 37.136a42.446 42.446 0 1 1 12.932 47.036l27.028-32.727-39.96-14.309Z" stroke="#EE8F21" stroke-width="4" mask="url(#path-4-inside-3)"/>
  <circle cx="56.5" cy="51.5" r="40.5" fill="#fff"/>
  <path d="M49.213 47h-2.51c-.714 1.352-2.027 2.158-3.548 2.158-2.288 0-4.108-1.924-4.108-4.42v-1.287h1.82v1.118c0 1.703.845 2.899 2.3 2.899 1.43 0 2.276-1.079 2.276-2.899v-5.941h1.82v6.63h1.95V47Zm3.585-2.509c0 .689-.195 1.261-.572 1.716-.429.533-1.027.793-1.78.793h-1.548v-1.742h1.157c.611 0 .923-.429.923-1.274v-2.873h1.82v3.38Zm-.117 4.667h-1.625V47.65h1.625v1.508Zm-2.457 0h-1.612V47.65h1.612v1.508ZM61.551 47h-1.716c-.208 1.43-1.196 2.145-2.964 2.145h-.195v-1.456h.156c.702 0 1.118-.26 1.26-.767-.142.052-.506.078-1.117.078-1.703 0-2.951-1.235-2.951-2.964 0-1.755 1.222-2.938 2.95-2.938 1.665 0 2.887 1.248 2.887 2.977v1.183h1.69V47Zm-3.51-1.742v-1.261c0-.767-.455-1.261-1.118-1.261-.69 0-1.053.533-1.053 1.222 0 .741.442 1.3 1.118 1.3h1.053ZM70.066 47h-2.08c-.533.741-1.352 1.118-2.43 1.118-1.106 0-1.925-.377-2.47-1.118h-1.99v-1.742h1.456c0-1.872 1.066-3.042 2.951-3.042 1.898 0 3.042 1.131 3.042 3.042h1.521V47Zm-3.328-1.781c0-1.027-.39-1.547-1.157-1.547h-.13c-.663 0-1.105.624-1.105 1.469 0 .871.442 1.495 1.21 1.495.74 0 1.182-.546 1.182-1.417Zm6.725-5.096H71.84v-1.495h1.624v1.495Zm-2.456 0h-1.613v-1.495h1.612v1.495Zm2.573 4.368c0 .689-.195 1.261-.572 1.716-.428.533-1.026.793-1.78.793H69.68v-1.742h1.157c.61 0 .922-.429.922-1.274v-2.873h1.82v3.38ZM48.483 59.204v1.521c0 1.261-.442 2.314-1.339 3.159-.897.845-1.989 1.274-3.302 1.274h-.078c-1.313 0-2.418-.429-3.315-1.274-.897-.845-1.339-1.898-1.339-3.159v-1.56h1.82v1.391c0 .52.078.975.234 1.365.403.936 1.391 1.547 2.64 1.547 1.234 0 2.222-.611 2.625-1.547.117-.286.195-.624.221-1.001h-3.393c0-1.313.364-2.366 1.08-3.185.727-.819 1.69-1.235 2.872-1.235h.78v1.768h-.78c-.74 0-1.313.312-1.742.936h3.016Zm4.721 2.6c0 1.196-.299 2.054-.91 2.587-.559.507-1.469.754-2.717.754v-1.469c1.196 0 1.794-.572 1.794-1.716v-4.849h1.833v4.693ZM58.447 63h-1.716c-1.391 0-2.197-.806-2.197-2.145v-6.24h1.82v5.291c0 .884.221 1.352 1.56 1.352h.533V63Zm6.01-8.151h-1.611v-1.495h1.612v1.495Zm-2.456 0h-1.612v-1.495H62v1.495ZM66.72 63h-1.053c-1.261 0-2.34-.156-3.25-.481-.91.325-1.99.481-3.25.481h-1.183v-1.742h1.183c.572 0 .923-.039 1.066-.104-.56-.637-.845-1.352-.845-2.132 0-.325.052-.663.156-.988.416-1.261 1.508-2.054 2.873-2.054 1.39 0 2.47.793 2.873 2.054.104.325.156.663.156.988 0 .78-.286 1.495-.845 2.132.156.065.507.104 1.066.104h1.053V63Zm-3.666-2.613c.507-.364.754-.858.754-1.495 0-.819-.52-1.495-1.391-1.495a1.34 1.34 0 0 0-1.04.455 1.663 1.663 0 0 0-.338 1.04c0 .637.247 1.131.754 1.495.208.156.416.286.624.39a4.95 4.95 0 0 0 .637-.39ZM73.57 63h-7.319v-1.742h2.054c-.169-.455-.26-.871-.26-1.248 0-.845.273-1.573.82-2.171.558-.598 1.26-.897 2.118-.897 1.105 0 2.041.624 2.496 1.651l-1.495.689c-.169-.507-.507-.767-1.04-.767-.364 0-.65.143-.845.442-.182.247-.273.572-.273.962 0 .689.247 1.144.728 1.339h3.016V63Z" fill="#2C988D"/>
  <defs>
    <filter id="filter0_d" x="0" y="0" width="113" height="113" filterUnits="userSpaceOnUse" color-interpolation-filters="sRGB">
      <feFlood flood-opacity="0" result="BackgroundImageFix"/>
      <feColorMatrix in="SourceAlpha" values="0 0 0 0 0 0 0 0 0 0 0 0 0 0 0 0 0 0 127 0"/>
      <feOffset dy="5"/>
      <feGaussianBlur stdDeviation="7.5"/>
      <feColorMatrix values="0 0 0 0 0 0 0 0 0 0 0 0 0 0 0 0 0 0 0.15 0"/>
      <feBlend in2="BackgroundImageFix" result="effect1_dropShadow"/>
      <feBlend in="SourceGraphic" in2="effect1_dropShadow" result="shape"/>
    </filter>
  </defs>
</svg>
