<svg width="113" height="113" viewBox="0 0 113 113" fill="none" xmlns="http://www.w3.org/2000/svg">
  <g filter="url(#filter0_d)">
    <path d="M56.5 93C79.42 93 98 74.42 98 51.5S79.42 10 56.5 10 15 28.58 15 51.5 33.58 93 56.5 93Z" fill="#fff"/>
  </g>
  <mask id="path-2-inside-1" fill="#fff">
    <path d="M15.337 62.013a42.445 42.445 0 0 1 1.133-24.836l39.975 14.268-41.108 10.568Z"/>
  </mask>
  <path d="M15.337 62.013a42.445 42.445 0 0 1 1.133-24.836l39.975 14.268-41.108 10.568Z" stroke="#EEE433" stroke-width="4" mask="url(#path-2-inside-1)"/>
  <mask id="path-3-inside-2" fill="#fff">
    <path d="M29.553 84.284a42.446 42.446 0 0 1-14.265-22.462l41.157-10.377-26.892 32.84Z"/>
  </mask>
  <path d="M29.553 84.284a42.446 42.446 0 0 1-14.265-22.462l41.157-10.377-26.892 32.84Z" stroke="#F4B938" stroke-width="4" mask="url(#path-3-inside-2)"/>
  <mask id="path-4-inside-3" fill="#fff">
    <path d="M16.485 37.136a42.446 42.446 0 1 1 12.932 47.036l27.028-32.727-39.96-14.309Z"/>
  </mask>
  <path d="M16.485 37.136a42.446 42.446 0 1 1 12.932 47.036l27.028-32.727-39.96-14.309Z" stroke="#EE8F21" stroke-width="4" mask="url(#path-4-inside-3)"/>
  <circle cx="56.5" cy="51.5" r="40.5" fill="#fff"/>
  <path d="M46.822 48.058h-1.547v-1.43h1.547v1.43Zm-2.366 0h-1.534v-1.43h1.534v1.43Zm3.367 4.836c0 2.405-1.963 4.264-4.46 4.264-2.495 0-4.55-1.781-4.55-4.264v-2.483h1.756v2.327c0 1.716 1 2.782 2.756 2.782 1.13 0 1.937-.403 2.405-1.222a3.779 3.779 0 0 1-.78.078c-1.755 0-2.886-1.092-2.886-2.847 0-1.729 1.105-2.834 2.834-2.834 1.78 0 2.925 1.066 2.925 2.795v1.404Zm-1.73-1.313c0-.975-.363-1.469-1.104-1.469h-.13c-.65 0-1.066.598-1.066 1.404 0 .845.429 1.443 1.157 1.443.702 0 1.144-.572 1.144-1.378ZM56.584 55h-1.716c-.209 1.43-1.197 2.145-2.964 2.145h-.195v-1.456h.156c.702 0 1.117-.26 1.26-.767-.143.052-.507.078-1.117.078-1.703 0-2.951-1.235-2.951-2.964 0-1.755 1.222-2.938 2.95-2.938 1.664 0 2.886 1.248 2.886 2.977v1.183h1.69V55Zm-3.51-1.742v-1.261c0-.767-.456-1.261-1.118-1.261-.69 0-1.053.533-1.053 1.222 0 .741.441 1.3 1.117 1.3h1.053ZM69.582 55h-13.39v-1.742h1.378c.598 0 .923-.325.923-1.235v-2.912h1.833v2.834c0 .481-.078.923-.22 1.313h1.156c.611 0 .923-.39.923-1.17v-2.977h1.82v2.834c0 .481-.078.923-.22 1.313h1.156c.611 0 .923-.39.923-1.17v-2.977h1.833v2.821c0 .481-.078.923-.234 1.326h2.12V55Zm3.483-6.877H71.44v-1.495h1.625v1.495Zm-2.457 0h-1.612v-1.495h1.612v1.495Zm2.574 4.368c0 .689-.195 1.261-.572 1.716-.43.533-1.027.793-1.781.793h-1.547v-1.742h1.157c.61 0 .923-.429.923-1.274v-2.873h1.82v3.38Z" fill="#73347C"/>
  <defs>
    <filter id="filter0_d" x="0" y="0" width="113" height="113" filterUnits="userSpaceOnUse" color-interpolation-filters="sRGB">
      <feFlood flood-opacity="0" result="BackgroundImageFix"/>
      <feColorMatrix in="SourceAlpha" values="0 0 0 0 0 0 0 0 0 0 0 0 0 0 0 0 0 0 127 0"/>
      <feOffset dy="5"/>
      <feGaussianBlur stdDeviation="7.5"/>
      <feColorMatrix values="0 0 0 0 0 0 0 0 0 0 0 0 0 0 0 0 0 0 0.15 0"/>
      <feBlend in2="BackgroundImageFix" result="effect1_dropShadow"/>
      <feBlend in="SourceGraphic" in2="effect1_dropShadow" result="shape"/>
    </filter>
  </defs>
</svg>
