<svg width="113" height="113" viewBox="0 0 113 113" fill="none" xmlns="http://www.w3.org/2000/svg">
  <g filter="url(#filter0_d)">
    <path d="M56.5 93C79.42 93 98 74.42 98 51.5S79.42 10 56.5 10 15 28.58 15 51.5 33.58 93 56.5 93Z" fill="#fff"/>
  </g>
  <mask id="path-2-inside-1" fill="#fff">
    <path d="M15.337 62.013a42.445 42.445 0 0 1 1.133-24.836l39.975 14.268-41.108 10.568Z"/>
  </mask>
  <path d="M15.337 62.013a42.445 42.445 0 0 1 1.133-24.836l39.975 14.268-41.108 10.568Z" stroke="#EEE433" stroke-width="4" mask="url(#path-2-inside-1)"/>
  <mask id="path-3-inside-2" fill="#fff">
    <path d="M29.553 84.284a42.446 42.446 0 0 1-14.265-22.462l41.157-10.377-26.892 32.84Z"/>
  </mask>
  <path d="M29.553 84.284a42.446 42.446 0 0 1-14.265-22.462l41.157-10.377-26.892 32.84Z" stroke="#F4B938" stroke-width="4" mask="url(#path-3-inside-2)"/>
  <mask id="path-4-inside-3" fill="#fff">
    <path d="M16.485 37.136a42.446 42.446 0 1 1 12.932 47.036l27.028-32.727-39.96-14.309Z"/>
  </mask>
  <path d="M16.485 37.136a42.446 42.446 0 1 1 12.932 47.036l27.028-32.727-39.96-14.309Z" stroke="#EE8F21" stroke-width="4" mask="url(#path-4-inside-3)"/>
  <circle cx="56.5" cy="51.5" r="40.5" fill="#fff"/>
  <path d="M33.198 45.797c-.975-.767-2.041-1.079-3.406-1.079-1.924 0-3.81.832-3.81 2.756 0 2.262 1.717 2.769 3.706 2.951 1 .091 1.52.377 1.52.832 0 .507-.584.806-1.43.806-.766 0-1.767-.156-2.664-1.027l-1.417 1.625c1.26 1.326 2.43 1.612 4.069 1.599 2.04-.013 3.99-.897 3.99-2.964 0-2.093-1.884-2.821-3.691-3.016-.897-.091-1.508-.182-1.508-.806 0-.481.61-.676 1.235-.676.793 0 1.508.156 2.132.624l1.274-1.625Zm1.497-.897V54H37.1v-3.393c.013-.754.533-1.105 1-1.105.482 0 .846.221.872.949V54h2.379v-3.562c0-2.158-1.222-3.003-2.522-3.003-.767 0-1.261.247-1.716.832V44.9h-2.418Zm11.287 2.535c-1.859 0-3.666.988-3.666 3.367 0 2.34 1.82 3.354 3.666 3.354 1.807 0 3.666-1.014 3.666-3.354s-1.768-3.367-3.666-3.367Zm0 4.758c-.845 0-1.326-.65-1.326-1.391s.481-1.404 1.326-1.404c.845 0 1.326.663 1.326 1.404 0 .78-.52 1.391-1.326 1.391Zm7.114 1.261c.35.429.962.689 1.78.689 1.873 0 3.12-1.391 3.12-3.354 0-2.028-1.053-3.211-2.938-3.328-.715-.039-1.572.182-2.118.806l-.104-.689h-2.133v9.1h2.392v-3.224Zm1.235-1.248c-.846 0-1.288-.702-1.288-1.482 0-.676.482-1.339 1.288-1.339.714 0 1.286.507 1.286 1.404 0 .897-.572 1.417-1.286 1.417Zm7.118 1.248c.351.429.962.689 1.781.689 1.872 0 3.12-1.391 3.12-3.354 0-2.028-1.053-3.211-2.938-3.328-.715-.039-1.573.182-2.119.806l-.104-.689h-2.132v9.1h2.392v-3.224Zm1.235-1.248c-.845 0-1.287-.702-1.287-1.482 0-.676.481-1.339 1.287-1.339.715 0 1.287.507 1.287 1.404 0 .897-.572 1.417-1.287 1.417Zm4.584-6.279c0 .793.675 1.196 1.352 1.196.662 0 1.338-.403 1.338-1.196 0-.806-.675-1.209-1.338-1.209-.677 0-1.353.403-1.353 1.209ZM67.41 54v-6.318h2.406V54H67.41Zm10.57 0v-3.562c0-2.288-1.158-3.003-2.51-3.016-.676-.013-1.482.221-2.028.858l-.104-.702H71.22V54h2.366v-3.38c0-.845.533-1.235 1.105-1.235.442 0 .897.273.897 1.066V54h2.392Zm1.066.455c-.13 1.963 1.157 3.159 3.458 3.159 1.833 0 3.64-.78 3.64-2.86 0-.351-.078-1.261-1.261-1.937.741-.533 1.157-1.326 1.17-2.132a2.406 2.406 0 0 0-.611-1.729l.832-.988-1.729-1.235c-.208.273-.468.598-.689.884a3.923 3.923 0 0 0-1.326-.247c-1.989 0-3.575 1.274-3.575 3.289 0 1.989 1.417 3.237 3.575 3.237.871 0 1.157.39 1.157.858 0 .624-.559.923-1.183.923-.637 0-1.235-.221-1.209-1.222h-2.249Zm3.484-5.122c.702 0 1.209.598 1.209 1.326 0 .858-.572 1.261-1.209 1.261-.702 0-1.248-.494-1.248-1.261 0-.858.546-1.326 1.248-1.326Z" fill="#73347C"/>
  <defs>
    <filter id="filter0_d" x="0" y="0" width="113" height="113" filterUnits="userSpaceOnUse" color-interpolation-filters="sRGB">
      <feFlood flood-opacity="0" result="BackgroundImageFix"/>
      <feColorMatrix in="SourceAlpha" values="0 0 0 0 0 0 0 0 0 0 0 0 0 0 0 0 0 0 127 0"/>
      <feOffset dy="5"/>
      <feGaussianBlur stdDeviation="7.5"/>
      <feColorMatrix values="0 0 0 0 0 0 0 0 0 0 0 0 0 0 0 0 0 0 0.15 0"/>
      <feBlend in2="BackgroundImageFix" result="effect1_dropShadow"/>
      <feBlend in="SourceGraphic" in2="effect1_dropShadow" result="shape"/>
    </filter>
  </defs>
</svg>
