<svg width="113" height="113" viewBox="0 0 113 113" fill="none" xmlns="http://www.w3.org/2000/svg">
  <g filter="url(#filter0_d)">
    <path d="M56.5 93C79.42 93 98 74.42 98 51.5S79.42 10 56.5 10 15 28.58 15 51.5 33.58 93 56.5 93Z" fill="#fff"/>
  </g>
  <mask id="path-2-inside-1" fill="#fff">
    <path d="M15.337 62.013a42.445 42.445 0 0 1 1.133-24.836l39.975 14.268-41.108 10.568Z"/>
  </mask>
  <path d="M15.337 62.013a42.445 42.445 0 0 1 1.133-24.836l39.975 14.268-41.108 10.568Z" stroke="#EEE433" stroke-width="4" mask="url(#path-2-inside-1)"/>
  <mask id="path-3-inside-2" fill="#fff">
    <path d="M29.553 84.284a42.446 42.446 0 0 1-14.265-22.462l41.157-10.377-26.892 32.84Z"/>
  </mask>
  <path d="M29.553 84.284a42.446 42.446 0 0 1-14.265-22.462l41.157-10.377-26.892 32.84Z" stroke="#F4B938" stroke-width="4" mask="url(#path-3-inside-2)"/>
  <mask id="path-4-inside-3" fill="#fff">
    <path d="M16.485 37.136a42.446 42.446 0 1 1 12.932 47.036l27.028-32.727-39.96-14.309Z"/>
  </mask>
  <path d="M16.485 37.136a42.446 42.446 0 1 1 12.932 47.036l27.028-32.727-39.96-14.309Z" stroke="#EE8F21" stroke-width="4" mask="url(#path-4-inside-3)"/>
  <circle cx="56.5" cy="51.5" r="40.5" fill="#fff"/>
  <path d="M38.165 55h2.56v-6.981h2.666V45.9h-7.878v2.119h2.652V55Zm5.32-6.422V55h2.392v-3.341c0-.845.507-1.209 1.105-1.209.403 0 .689.078 1.079.39l.962-1.729c-.416-.442-1.04-.689-1.69-.689-.624 0-1.222.26-1.56.858l-.143-.702h-2.145Zm6.054 0v3.562c0 2.288 1.157 3.003 2.509 3.016.676.013 1.482-.221 2.028-.858l.104.702h2.119v-6.422h-2.366v3.419c0 .845-.533 1.196-1.105 1.196-.442 0-.897-.273-.897-1.066v-3.549h-2.392Zm12.74 4.03a1.62 1.62 0 0 1-1.196.533c-.91 0-1.39-.624-1.39-1.326 0-.806.494-1.469 1.404-1.469.428 0 .792.143 1.105.468l1.273-1.378c-.675-.676-1.599-1.001-2.522-1.001-1.806 0-3.6 1.027-3.6 3.367 0 2.405 1.767 3.328 3.64 3.328.962 0 1.884-.403 2.651-1.092l-1.364-1.43Zm2.166-6.708V55h2.405v-2.236L68.514 55h2.704v-.143l-2.613-3.263 2.249-2.912v-.104h-2.665l-1.34 1.885V45.9h-2.404Zm6.845 8.424c.727.533 1.988.845 3.106.845 1.547 0 2.99-.598 2.99-2.184 0-1.703-1.611-2.08-2.95-2.119-.39-.013-.482-.195-.482-.312 0-.234.235-.312.573-.312.52-.013 1.26.169 1.611.39l1.014-1.43c-.624-.468-1.585-.78-2.626-.78-1.507 0-2.963.559-2.963 2.106 0 1.56 1.507 2.067 2.755 2.106.469.039.677.143.677.351s-.222.312-.65.312c-.52-.026-1.3-.078-2.275-.715l-.78 1.742Z" fill="#1F4255"/>
  <defs>
    <filter id="filter0_d" x="0" y="0" width="113" height="113" filterUnits="userSpaceOnUse" color-interpolation-filters="sRGB">
      <feFlood flood-opacity="0" result="BackgroundImageFix"/>
      <feColorMatrix in="SourceAlpha" values="0 0 0 0 0 0 0 0 0 0 0 0 0 0 0 0 0 0 127 0"/>
      <feOffset dy="5"/>
      <feGaussianBlur stdDeviation="7.5"/>
      <feColorMatrix values="0 0 0 0 0 0 0 0 0 0 0 0 0 0 0 0 0 0 0.15 0"/>
      <feBlend in2="BackgroundImageFix" result="effect1_dropShadow"/>
      <feBlend in="SourceGraphic" in2="effect1_dropShadow" result="shape"/>
    </filter>
  </defs>
</svg>
