<svg width="81" height="86" viewBox="0 0 81 86" fill="none" xmlns="http://www.w3.org/2000/svg">
  <path fill-rule="evenodd" clip-rule="evenodd" d="M1.322 3.71A1.317 1.317 0 0 0 0 5.024v79.66A1.317 1.317 0 0 0 1.318 86h63.076a1.317 1.317 0 0 0 1.317-1.316V63.701a1.316 1.316 0 1 0-2.633 0v19.666H2.633V6.345l45.243.123a1.317 1.317 0 1 0 .007-2.632L1.322 3.71Z" fill="#EE8F21"/>
  <path fill-rule="evenodd" clip-rule="evenodd" d="M33.634 8.74c-2.854 0-5.195 2.34-5.195 5.194 0 2.855 2.34 5.196 5.195 5.196 2.855 0 5.194-2.341 5.194-5.196 0-2.854-2.339-5.194-5.194-5.194Zm0 2.455a2.72 2.72 0 0 1 2.74 2.74 2.721 2.721 0 0 1-2.74 2.74 2.723 2.723 0 0 1-2.74-2.74 2.721 2.721 0 0 1 2.74-2.74Z" fill="#fff"/>
  <path d="M25.176 32.192a1.265 1.265 0 1 0-.006 2.532l16.493.04a1.266 1.266 0 1 0 .006-2.532l-16.493-.04Z" fill="#fff"/>
  <path fill-rule="evenodd" clip-rule="evenodd" d="M30.667 20.266c-1.63 0-3.112.297-4.293.86-1.18.565-2.251 1.514-2.251 2.907v9.43a1.227 1.227 0 1 0 2.455 0v-9.43c0-.014.114-.337.855-.69.741-.355 1.918-.622 3.234-.622h5.932c1.316 0 2.493.267 3.234.621.741.354.856.677.856.69v9.478a1.227 1.227 0 1 0 2.455 0v-9.477c0-1.393-1.071-2.342-2.252-2.906-1.181-.564-2.663-.861-4.293-.861h-5.932Z" fill="#fff"/>
  <path d="M6.234 43.117a1.218 1.218 0 0 0 0 2.436l45.094.02a1.218 1.218 0 1 0 0-2.435l-45.094-.021Zm0-4.452a1.216 1.216 0 0 0-.88 2.088 1.217 1.217 0 0 0 .88.346l45.094.021a1.216 1.216 0 0 0 .88-2.088 1.218 1.218 0 0 0-.88-.346l-45.094-.02Zm-.001 8.905a1.216 1.216 0 0 0-.88 2.089 1.217 1.217 0 0 0 .88.346l45.095.02a1.216 1.216 0 0 0 .88-2.087 1.218 1.218 0 0 0-.88-.346L6.233 47.57Z" fill="#EE8F21"/>
  <path fill-rule="evenodd" clip-rule="evenodd" d="M64.234 0c-8.922 0-16.182 7.258-16.182 16.18s7.26 16.183 16.182 16.183c8.922 0 16.18-7.26 16.18-16.183C80.415 7.258 73.157 0 64.235 0Zm0 2.455c7.596 0 13.726 6.13 13.726 13.725 0 7.596-6.13 13.728-13.726 13.728A13.71 13.71 0 0 1 50.507 16.18 13.708 13.708 0 0 1 64.234 2.455Z" fill="#EE8F21"/>
  <path d="M64.23 31.064a1.228 1.228 0 0 0-1.212 1.243l-.027 16.735a1.226 1.226 0 0 0 1.7 1.152 1.226 1.226 0 0 0 .755-1.148l.027-16.735a1.229 1.229 0 0 0-1.243-1.247Zm8.848-3.385a1.228 1.228 0 0 0-1.21 1.245l-.021 32.8a1.227 1.227 0 1 0 2.455.002l.021-32.8a1.23 1.23 0 0 0-1.245-1.247Zm-17.676 0a1.228 1.228 0 0 0-1.21 1.245l-.022 32.8a1.229 1.229 0 1 0 2.455.002l.022-32.8a1.23 1.23 0 0 0-1.245-1.247Z" fill="#EE8F21"/>
  <path d="M64.018 55.968a1.228 1.228 0 0 0-.516 2.332l8.98 4.538a1.227 1.227 0 1 0 1.106-2.19l-8.98-4.54a1.228 1.228 0 0 0-.59-.14Z" fill="#EE8F21"/>
  <path d="M64.037 55.968a1.229 1.229 0 0 0-.55.147l-8.672 4.54a1.229 1.229 0 1 0 1.14 2.175l8.669-4.54a1.227 1.227 0 0 0-.587-2.322ZM6.234 58.4a1.218 1.218 0 1 0 0 2.436l45.094.02a1.218 1.218 0 0 0 0-2.435L6.234 58.4Zm0-4.452a1.218 1.218 0 1 0 0 2.434l45.094.021a1.216 1.216 0 0 0 .88-2.088 1.218 1.218 0 0 0-.88-.346l-45.094-.021Zm-.001 8.905a1.218 1.218 0 1 0 0 2.434l45.095.021a1.216 1.216 0 0 0 .88-2.088 1.218 1.218 0 0 0-.88-.346l-45.095-.02Z" fill="#EE8F21"/>
  <path d="M30.084 69.472a5.157 5.157 0 0 0-1.897.5c-1.171.552-2.21 1.436-3.155 2.414-1.891 1.955-3.4 4.329-4.078 5.46a1.23 1.23 0 0 0 .404 1.716 1.23 1.23 0 0 0 1.702-.455c.623-1.04 2.09-3.311 3.737-5.014.823-.852 1.697-1.551 2.437-1.9.685-.324 1.137-.313 1.598-.122.05.07.123.165.184.342.144.415.284 1.03.39 1.668.211 1.277.303 2.73.303 3.086 0-.31-.116.235-.313.7-.098.233-.235.442-.244.954a1.45 1.45 0 0 0 .394 1.024c.33.34.77.428 1.049.428l.424-.075.197-.094s.136-.091.169-.119c.067-.056.09-.082.111-.104.042-.044.058-.065.075-.086.035-.042.062-.077.094-.119l.245-.318c.2-.259.469-.604.768-.955.23-.272.35-.327.602-.564.003.055.002.1.033.224.02.082.039.192.168.391.065.1.165.228.342.35.088.06.315.156.316.157l.382.06c.295 0 .376-.111.526-.196.107.08.089.16.316.216.565.141.636.041.873.012.236-.03.484-.07.719-.113.23-.043.445-.087.604-.12.448.235.871.54 1.364.638.793.157 1.64.204 2.47.201 1.66-.006 3.195-.209 3.982-.384a1.23 1.23 0 0 0 .967-1.472 1.227 1.227 0 0 0-1.5-.923c-.462.102-2.012.318-3.458.324-.724.003-1.437-.045-1.984-.153-.547-.109-.894-.31-.938-.353l-.475-.296-.225-.052s-.149-.012-.186-.011c-.074 0-.1.005-.122.008-.047.005-.064.006-.081.01-.035.005-.057.011-.084.016l-.202.039c-.158.031-.365.074-.575.113-.123.022-.225.036-.338.054a1.18 1.18 0 0 0-.596-.432c-.037-.262-.034-.507-.248-.85a1.656 1.656 0 0 0-.853-.686 1.713 1.713 0 0 0-1.151.05c-.526.21-.941.529-1.32.872-.053-.634-.051-1.087-.178-1.853-.12-.72-.27-1.433-.491-2.07-.22-.639-.388-1.3-1.276-1.744a3.886 3.886 0 0 0-1.977-.394Zm8.643 8.961c.216.216.507.215.752.351a41.07 41.07 0 0 1-.052-.004l-.225-.051-.475-.296Z" fill="#fff"/>
</svg>
