<svg xmlns="http://www.w3.org/2000/svg" width="1080" viewBox="0 0 810 810" height="1080" version="1.0">
  <defs>
    <clipPath id="9084e5caf1">
      <path d="M66 513h649v215.813H66Zm0 0"/>
    </clipPath>
  </defs>
  <path fill="#0f0550" d="M322.098 642.512c-3.157 1.363-6.645 2.539-9.989 1.718-3.828-.937-7.671-8.472-7.992-12.207a832 832 0 0 1-2.789-88.144c.086-3.957.23-8.055 1.95-11.621 3.53-7.317 12.769-10.23 20.85-9.387 8.087.844 15.54 4.559 23.227 7.192 12.09 4.136 24.926 5.628 37.184 9.222 9.168 2.688 18.457 6.91 23.926 14.738 4.043 5.79 5.582 12.985 6 20.036.824 13.972-3.082 29.136-13.996 37.906-4.16 3.34-9.086 5.566-13.992 7.664-21 8.976-43.532 13.887-64.38 22.883m.297.683c10.468-4.52 21.578-8.074 32.32-11.508 10.62-3.398 21.605-6.91 32.055-11.378 5.058-2.16 9.949-4.383 14.164-7.77 9.894-7.945 15.226-22.348 14.273-38.527-.508-8.559-2.512-15.235-6.133-20.414-4.672-6.688-12.629-11.602-24.324-15.028-5.445-1.597-11.086-2.797-16.54-3.957-6.839-1.453-13.913-2.96-20.612-5.254-2.094-.714-4.211-1.53-6.258-2.316-5.488-2.11-11.164-4.29-17.13-4.914-7.995-.836-17.776 1.875-21.597 9.805-1.851 3.84-1.949 8.324-2.023 11.93a836 836 0 0 0 2.789 88.222c.324 3.766 4.156 11.789 8.555 12.863.824.203 1.656.293 2.484.293 2.781 0 5.543-.996 7.977-2.047m1.66-119.59c5.773.606 11.351 2.75 16.754 4.825 2.058.789 4.191 1.61 6.308 2.332 6.785 2.324 13.903 3.84 20.785 5.304 5.426 1.153 11.04 2.348 16.43 3.926 11.36 3.328 19.055 8.055 23.527 14.453 3.454 4.95 5.375 11.375 5.864 19.653.93 15.699-4.2 29.636-13.72 37.28-4.07 3.27-8.855 5.446-13.815 7.563-10.387 4.442-21.336 7.946-31.926 11.332-10.778 3.446-21.918 7.008-32.457 11.559-2.93 1.266-6.352 2.453-9.52 1.68-3.328-.817-7.117-7.903-7.426-11.551a834 834 0 0 1-2.785-88.066c.074-3.461.164-7.77 1.875-11.317 3.102-6.43 10.578-9.11 17.434-9.11.906 0 1.8.048 2.672.137m62.425 96.024h.012ZM94.094 542.156c7.656-3.078 15.66-6.406 20.828-12.84 6.266-7.793 7.11-18.632 6.121-28.582-.54-5.464-1.606-11.027-4.492-15.699-4.54-7.332-13.145-11.496-21.739-12.273-8.593-.782-17.199 1.433-25.246 4.539-5.761 2.226-11.84 5.426-14.082 11.18-1.375 3.535-1.054 7.472-.714 11.25q1.003 11.17 2.011 22.34c.36 3.988.735 8.05 2.29 11.741 2.027 4.825 3.343 16.125 9.37 17.805 5.946 1.66 20.008-7.187 25.653-9.46m-5.602 3.528c2.371-1.204 4.414-2.25 5.88-2.836 6.995-2.817 15.706-6.317 21.128-13.067 5.418-6.738 7.531-16.535 6.281-29.117-.472-4.754-1.422-10.871-4.605-16.016-4.348-7.03-12.684-11.753-22.297-12.625-7.57-.683-15.695.774-25.582 4.59-5.473 2.114-12.067 5.34-14.504 11.602-1.469 3.77-1.094 7.922-.766 11.582l2.012 22.344c.36 3.996.73 8.129 2.344 11.96.5 1.196.976 2.856 1.476 4.614 1.559 5.46 3.496 12.258 8.383 13.62.567.161 1.2.231 1.875.231 4.867 0 12.278-3.773 18.375-6.882m6.254-72.184c9.152.832 17.067 5.29 21.172 11.93 3.02 4.882 3.934 10.785 4.387 15.379 1.21 12.183-.797 21.62-5.961 28.043-5.18 6.449-13.336 9.726-20.528 12.617-1.523.613-3.597 1.672-6 2.894-6.363 3.242-15.078 7.684-19.175 6.543-4.086-1.14-5.899-7.492-7.352-12.597-.516-1.805-1-3.508-1.535-4.782-1.524-3.62-1.887-7.636-2.234-11.523l-2.012-22.34c-.317-3.5-.676-7.469.668-10.914 2.226-5.719 8.465-8.75 13.656-10.758 8.145-3.144 15.043-4.652 21.398-4.652a40 40 0 0 1 3.516.16m0 0"/>
  <g clip-path="url(#9084e5caf1)">
    <path fill="#f2aca1" d="M714.242 667.898c-2.351 10.461-8.492 18.528-18.246 23.973-9.281 5.184-20.652 7.25-31.676 7.25-9.96 0-19.636-1.687-27.226-4.297-1.543-.527-4.305-1.715-7.434-3.453-4.754-2.637-12.793-7.902-13.203-13.516-.164-2.285.93-4.343 3.258-6.125 3.11-2.37 8.41-2.246 13.082-2.136 1.969.043 3.832.09 5.312-.063 6.211-.633 12.5-1.574 18.586-2.484l4.192-.629c15.996-2.395 32.539-4.871 48.996-3.648 1.562.113 3.453.449 4.246 2.039.492.98.344 2.066.113 3.09m-298.117-83.574c-3.54-7.453-7.2-15.156-12.95-20.77-7.835-7.644-21.73-5.98-32.894-4.64-1.66.2-3.25.39-4.742.54-5.633.562-12.164 1.538-17.914 4.503-4.129 2.129-8.04 5.356-11.953 9.867-13.805 15.906-20.711 39.32-20.527 69.59.168 27.664 5.808 48.84 17.25 64.738 11.097 15.418 28.02 18.461 44.398 20.258a59 59 0 0 0 6.426.356c16.84 0 30.91-7.598 39.219-21.41 10.933-18.176 11.277-35.004 11.671-54.489.446-21.918-4.324-42.703-13.793-60.11-1.449-2.667-2.78-5.468-4.191-8.433m-265.957 1.2c-.766-2.22-1.563-4.516-2.184-7.098-2.535-10.578-5.988-21.059-9.332-31.2a1869 1869 0 0 1-2.172-6.613c-.488-1.511-.945-3.152-1.43-4.886-1.738-6.243-3.706-13.32-8.292-17.555-7.664-7.07-23.121-4.93-27.676-4.106-8.844 1.602-16.855 7.727-23.824 18.207-15.031 22.614-9.457 60.672.773 88.75 1.942 5.329 3.989 10.454 7.656 14.547 6.583 7.344 14.88 8.778 23.43 8.778 2.754 0 5.535-.149 8.293-.297 2.547-.137 5.176-.278 7.762-.297 1.734-.016 3.527-.031 5.219-.656 1.316-.489 2.46-1.313 3.433-2.047 14.903-11.309 20.63-22.602 21.125-41.676.13-4.992-1.054-8.855-2.496-13.027Zm0 0"/>
  </g>
  <path fill="#5f95d7" d="M766.484 603.578c-.726 3.805-.941 9.176-1.172 14.863-.597 14.934-1.343 33.516-11.632 40.118-4.528 2.902-9.774 4.043-15.2 5.043-17.171 3.175-34.78 4.472-51.812 5.726-10.742.793-21.856 1.613-32.738 2.895-27.957 3.297-57.953 6.39-87.89 6.707l-110.872 1.183c-.668.008-1.328.012-1.988.012-7.72 0-15.008-.617-20.528-5.031-3.238-2.59-5.441-6.25-7.422-9.774-11.117-19.8-17.648-41.82-23.964-63.11-.891-3.003-1.782-6.003-2.684-9-.613-2.026-1.203-4.07-1.797-6.12-5.273-18.262-10.73-37.145-31.406-43.36-14.461-4.34-25.395-6.73-37.742-8.242-1.719-.21-3.664-.449-5.29.25-1.96.844-3.187 2.961-4.034 4.715-4.239 8.746-5.235 18.856-5.68 28.473-.485 10.562.012 21.195.496 31.476.16 3.5.328 7.004.453 10.52 0 1.765.027 3.535.055 5.332.129 9.137.261 18.59-2.707 26.976-.211.594-.653 1.047-1.274 1.31-3.219 1.358-11.734-2.376-20.918-6.657-2.508-1.172-4.675-2.18-5.52-2.418-12.94-3.617-26.624-7.25-43.058-11.426-10.316-2.621-20.644-5.48-30.633-8.242-17.832-4.938-36.27-10.04-54.925-13.852-6.434-1.316-12.079-2.746-16.004-6.949-3-3.215-4.368-7.547-5.575-11.367-3.597-11.41-7.695-21.754-12.027-32.707-2.723-6.875-5.539-13.988-8.191-21.324-1.239-3.418-2.192-7.078-3.114-10.614-2.906-11.164-5.656-21.71-16.68-26.914-5.003-2.36-13.44-3.746-19.222-1.664-2.723.98-4.637 2.625-5.7 4.887-8.273 17.648-5.956 39.125-2.558 54.035l.426 1.863-1.57-1.086c-5.317-3.675-11.344-7.84-14.887-13.918-3.762-6.46-4.246-14.343-4.406-21.226a286.8 286.8 0 0 1 6.601-68.066c1.336-6.086 2.97-12.461 6.86-17.625 1.656-2.196 3.672-4.09 5.62-5.926.657-.617 1.317-1.235 1.958-1.867 9.355-9.141 15.953-20.82 22.336-32.11 4.55-8.058 9.258-16.387 14.965-23.828 6.035-7.875 13.27-14.86 20.261-21.617 4.047-3.906 8.633-8.336 14.235-10.75 4.992-2.156 10.418-2.621 15.664-3.067 3.078-.265 6.187-.562 9.316-.867 8.168-.789 16.613-1.601 24.762-1.758a2131 2131 0 0 1 232.242 8.297c29.996 2.72 54.668 9.075 80 20.61 24.82 11.3 47.426 33.343 63.934 49.437 4.472 4.363 9.058 8.649 13.547 12.75 4.28-2.539 12.828-.68 16.656.352 5.98 1.605 10.629 5.39 12.441 10.12 1.64 4.274.586 10.044-3.219 13.036 4.133 3.7 8.383 7.098 12.813 9.363 6.59 3.375 15.047 5.145 23.226 6.856 5.157 1.078 10.028 2.097 14.481 3.492a544 544 0 0 1 72.387 28.484c8.945 4.286 18.867 9.641 23.355 18.97 2.121 4.401 2.125 8.624 2.13 12.706 0 2.512.003 5.11.495 7.738.54 2.848 2.266 4.914 4.094 7.106 1.05 1.262 2.14 2.566 3.008 4.047 3.254 5.543 4.777 12.457 5.476 17.281.41 2.805.606 5.648.797 8.395.266 3.84.54 7.804 1.399 11.578 2.023 8.847 1.402 15.785-.45 25.48m0 0"/>
  <path fill="#f9b054" d="M550.328 558.04c2.582 5.366 2.352 9.655-.621 11.472-.95.582-2.016.773-3.07.773-1.23 0-2.45-.262-3.465-.48-12.832-2.77-26.129-3.98-38.985-5.149-4.976-.453-10.12-.922-15.171-1.472a260 260 0 0 0-6.024-.57c-13.629-1.208-30.59-2.7-38.8-13.196-1.637-2.09-2.778-4.469-3.587-6.305-.394-.894-.77-1.797-1.14-2.699-.274-.652-.813-1.726-1.438-2.973-2.761-5.507-7.39-14.734-4.859-18.55.836-1.262 2.309-1.828 4.379-1.703l85.515 5.39c2.836.176 6.047.379 8.75 1.988 3.368 2.008 5.168 5.754 6.618 8.766Zm203.66-41.134c-.699-3.375-1.84-7.004-5-8.32-2.629-1.09-5.437-.074-8.093 1.055-.946.406-2.278.84-3.817 1.347-4.476 1.469-10.047 3.297-11.719 6.14-3.27 5.602.106 18.63 2.575 28.138.757 2.925 1.414 5.457 1.714 7.187.098.57.25 1.434.883 2.027.574.543 1.332.672 2.032.672q.326-.002.625-.027c10.335-.879 19.507-8.848 21.808-18.953 1.438-6.32.29-12.98-1.008-19.266M57.422 427.86c-5.484.715-12.617 19.711-12.676 19.899-3.008 9.62-3.746 19.847-2.137 29.582.516 3.133 2.211 4.055 3.176 4.328q.524.145 1.082.144c1.707 0 3.61-.992 5.11-2.726 2.18-2.52 3.773-6.242 4.875-11.379.878-4.105 1.093-8.348 1.3-12.45.059-1.109.114-2.222.184-3.327.11-1.762.68-4.16 1.289-6.696 1.36-5.675 2.902-12.101.527-15.87-.894-1.419-1.972-1.594-2.73-1.505m0 0"/>
  <path fill="#f2aca1" d="M721.074 587.816c-5.508 3.141-14.41 3.274-22.265 3.395-3.25.047-6.32.094-8.844.351-10.406 1.063-21.172 2.157-32.02 2.649-20.383.941-41.035 1.379-61.004 1.8-.832.02-1.89.09-3.07.169-1.863.125-3.93.261-5.89.261-2.485 0-4.797-.218-6.31-.972a3.52 3.52 0 0 1-1.816-2.324c-.175-.79-.023-1.547.438-2.133.441-.563 1.07-.86 1.621-1.094 6.5-2.773 14.535-3.027 22.3-3.27 3.071-.097 5.973-.187 8.692-.433 12.516-1.13 25.266-1.188 37.598-1.246 15.543-.074 31.613-.149 47.277-2.375 1.817-.258 3.63-.547 5.442-.832 4.48-.715 9.113-1.453 13.734-1.7 3.414-.183 5.668.813 6.36 2.79.699 1.996-.633 4.046-2.243 4.964M620.54 511.207a38.7 38.7 0 0 0 8.004.828 39 39 0 0 0 8.227-.875c1-.219 4.043-.883 4.058-2.863.016-2.09-3.5-3.688-5.719-4.203-5.445-1.274-11.816.765-14.3 1.699-.985.367-2.282 1.21-2.692 2.379a2.01 2.01 0 0 0 .168 1.742c.555.934 1.703 1.176 2.254 1.293m0 0"/>
  <path fill="#f4e6d5" d="M595.219 443.004c-1.528 3.234-12.328 4.36-35.008 3.652-1.195-.035-2.016-.062-2.453-.062-8.36.02-16.863.242-25.086.46-2.797.071-5.594.145-8.387.212-21.687.511-45.246 1.398-72.015 2.71-9.711.477-19.579 1.22-29.122 1.934-5.84.438-11.68.875-17.515 1.262-1.668.11-4.649.473-8.426.941-11.855 1.461-24.184 2.813-33.879 2.813-9.488 0-16.457-1.293-18.004-5.04-6.566-15.902-13.64-30.913-21.629-45.902q-2.212-4.156-4.414-8.316c-2.933-5.543-5.87-11.082-8.863-16.594-2.629-4.84-5.047-10.281-3.063-13.941 1.243-2.301 3.961-3.594 8.301-3.945 18.582-1.516 38.754-2.5 61.668-3.004 19.797-.438 40.965-.739 61.653 0 11.62.418 22.191 1.101 32.312 2.101 1.492.145 3.461.293 5.734.461 11.196.828 29.934 2.219 36.09 7.125a816 816 0 0 1 45.7 39.293c1.746 1.621 3.472 3.297 5.207 4.98 4.699 4.563 9.558 9.278 14.96 12.93l1.34.903c6.012 4.054 8.758 5.906 14.188 12.09 1.125 1.285 1.008 2.308.71 2.937M373.19 601.25c-7.253-8.824-16.597-13.5-24.984-12.508-6.824.813-12.379 5.254-16.066 12.848-9.329 19.219-10.567 43.875-3.485 69.43 5.074 18.312 11.707 28.738 20.278 31.875q2.624.96 5.453.96c4.379 0 9.113-1.722 14.14-5.152 14.63-9.976 15.996-27.933 17.203-43.777l.172-2.242c.7-8.977.36-17.348-1.015-24.883-1.918-10.508-5.852-19.442-11.696-26.551M91.637 537.297c-7.43-1.32-9.89 3.879-12.27 8.902q-.448.961-.922 1.918c-8.437 16.969-6.316 34.106-3.132 48.633l.148.672c1.86 8.508 5.32 24.344 13.91 28.3a9.7 9.7 0 0 0 4.098.903c2.02 0 4.156-.602 6.39-1.797 2.047-1.098 3.45-2.976 4.664-4.844 2.375-3.656 4.391-7.726 5.989-12.097 6.547-17.926 5.547-38.727-2.61-54.282-5.144-9.816-10.62-15.304-16.265-16.308m0 0"/>
  <path fill="#5f95d7" d="m380.605 651.555-.14 1.843c-.996 13.075-2.125 27.895-14.219 36.141-4.164 2.84-8.086 4.266-11.719 4.266q-2.35 0-4.535-.797c-7.097-2.602-12.586-11.211-16.773-26.328-5.84-21.075-4.817-41.407 2.875-57.258 3.058-6.293 7.664-9.977 13.328-10.649 6.95-.832 14.687 3.043 20.687 10.34 4.829 5.875 8.075 13.25 9.657 21.922 1.136 6.219 1.418 13.121.84 20.52M91.973 544.25c-6.34-1.133-8.426 3.29-10.45 7.559a74 74 0 0 1-.773 1.609c-7.113 14.312-5.328 28.754-2.645 40.996l.125.563c1.57 7.18 4.489 20.543 11.766 23.898a8.3 8.3 0 0 0 3.5.77c1.719 0 3.535-.512 5.434-1.528 1.742-.93 2.933-2.527 3.965-4.113 2.003-3.082 3.703-6.516 5.05-10.2 5.52-15.113 4.676-32.648-2.199-45.769-4.351-8.297-8.984-12.933-13.773-13.785m0 0"/>
  <path fill="#f4e6d5" d="m382.594 648.578-.086.383-.371.144c-1.965.778-4.02.016-5.836-.652q-.423-.16-.84-.308c-1.863-.649-4.098-.688-4.902.69-.36.618-.372 1.454-.332 2.27.226 4.797 1.777 9.47 3.273 13.993.484 1.457 1.102 2.925 1.75 4.476 2.016 4.805 4.098 9.778 2.105 14.559-2.02 4.84-7.77 8.734-12.386 11.863-.61.41-1.196.809-1.739 1.188l-1.023.71-2.777-25.308c-.282-2.578-.817-5.328-2.578-6.645a215 215 0 0 0-12.61 26.899l-.312.812-.75-.437c-5.024-2.914-8.473-8.516-9.227-14.98-.75-6.465 1.32-12.708 5.54-16.696 1.05-.988 2.206-1.867 3.323-2.71 1.329-1.005 2.579-1.95 3.688-3.087 1.8-1.851 3.426-4.793 2.574-7.504-.875-2.8-4.015-4.367-6.887-5.62l-11.394-4.962c-1.223-.531-3.07-1.336-3.863-3.008-.622-1.304-.434-2.757-.192-4.132.848-4.82 2.004-9.633 3.442-14.313.265-.867.761-2.48 2.156-3.105 2.441-1.102 4.558 1.652 5.46 2.828 3.442 4.48 8.532 7.574 14.083 8.601-.278-1.55-.86-3.855-1.512-6.445-2.726-10.82-4.75-20-1.871-22.781 1.715-1.656 3.8-2.063 6.035-1.184 5.485 2.168 10.594 11.63 10.781 15.36.141 2.78-.16 5.59-.445 8.308-.406 3.836-.793 7.461-.066 11.063.172.855.418 1.453.754 1.808l12.625-11.968 1.023 1.074a.4.4 0 0 0 .117-.18c-.234.934 1.45 6.648 2.086 8.8.27.915.469 1.602.527 1.868 1.54 6.863 2.098 11.82.657 18.328m-269.926-68.281c.293 1.547.508 3.164-.387 4.5-.703 1.043-1.86 1.527-2.875 1.953l-.496.21c-2.597 1.138-4.992 3.767-4.308 6.403.261 1.004.925 1.875 1.632 2.793.395.508.786 1.02 1.118 1.559 1.945 3.156 1.964 7.644.054 11.726-1.691 3.614-4.457 6.473-7.129 9.243l-.96.996-4.254-19.278a108 108 0 0 0-8.137 17.93l-.438 1.258-.84-1.031c-4.43-5.426-7.25-12.25-7.941-19.22-.074-.745-.121-1.534.164-2.312.422-1.129 1.438-1.84 2.184-2.363l7.89-5.523c1.774-1.243 3.418-2.63 3.457-4.371.032-1.372-.949-2.758-2.996-4.243a37.5 37.5 0 0 0-10.07-5.207c-1.012-.34-2.254-.761-2.89-1.86-.466-.792-.466-1.687-.426-2.534a60 60 0 0 1 2.64-15.117l.309-1.004 12.136 9.062c-2.21-5.726-3.832-16.61-2.3-19.113 2.664-4.352 5.28-4.688 7.007-4.2 3.805 1.071 6.364 7.083 6.364 12.024 0 1.902.258 10.172.687 11.805.446 1.699 2.645 1.453 3.309 1.332 1.355-.238 2.824-.922 3.078-1.313.422-.648 1.148-1.105 1.855-1.168a1.61 1.61 0 0 1 1.352.5c.375.399.473.914.54 1.254.519 2.711.433 5.309.347 7.82-.082 2.544-.164 4.942.324 7.489M290.527 408c-5.449-12.14-12.59-26.082-24.265-37.45-8.39-8.167-20.297-10.702-31.774-12.605-9.09-1.504-18.418-1.43-27.449-1.36-7.488.056-15.234-.081-22.726-.214-20.532-.363-41.758-.738-61.82 2.695-10.583 1.813-10.372 19.692-10.27 28.286l.02 1.64c.003 1.219-.016 2.567-.036 4.008-.164 11.71-.41 29.406 11.758 33.574 3.187 1.086 6.906 1.531 10.504 1.957 2.777.332 5.652.676 8.187 1.313 17.028 4.277 34.637 7.254 51.664 10.133 15.934 2.691 32.41 5.476 48.332 9.32 18.262 4.402 36.168 8.394 54.47 8.836.179.004.366.008.55.008 1.27 0 2.629-.145 3.668-1 1.34-1.11 1.61-2.875 1.7-4.621.76-15.079-5.415-28.782-11.392-42.032Zm0 0"/>
  <path fill="#5f95d7" d="M364.434 644.379c-.45 3.117-2.43 6.594-5.723 6.86a5 5 0 0 1-.328.015c-2.39 0-4.336-2.113-4.875-4.266-.781-3.097-.344-7.511 1.996-9.582.984-.87 2.738-1.687 5.5-.629 2.605 1.004 3.953 3.985 3.43 7.602M98.906 571.98l-.531.176c-1.875.614-3.187 2.121-3.605 4.133-.532 2.566.44 5.461 2.418 7.207.214.188.804.707 1.546.707q.17 0 .352-.039c.7-.152 1.105-.723 1.348-1.14 2.03-3.47.703-7.739-1.215-10.579Zm0 0"/>
  <path fill="#0f0550" d="M752.547 644.691c-.047 5.262-2.875 6.008-6.453 6.954-.606.16-1.25.332-1.93.53-20.512 6.102-42.426 7.169-63.617 8.196-2.883.14-5.762.277-8.629.43-18.7.992-37.719 1.617-56.117 2.226-6.196.203-12.387.407-18.582.63-.809.027-3.012.062-6.18.113-43.945.722-67.137 1.96-68.937 3.68a.36.36 0 0 0 .09-.231l-1.477-.114c.496-6.789 5.062-11.378 9.476-15.812q.91-.908 1.801-1.82c1.453-1.5 3.059-3.055 4.957-4.301 4.563-3 9.68-3.637 14.535-3.887a201 201 0 0 1 3.649-.133c2.316-.07 4.715-.144 6.984-.402 9.485-1.074 19.692-2.121 30.063-2.504l138.53-5.133c4.868-.18 10.935-.402 15.84 2.39 2.93 1.669 6.028 5.458 5.997 9.188m-453.45-220.203c-.933-.035-1.663.586-2.019.895-3.484 3.008-6.035 6.82-8.5 10.508-3.156 4.722-6.137 9.183-10.941 12.187-3.707 2.317-6.735 6.348-5.145 10.137.867 2.055 2.836 3.281 4.653 4.215a44.5 44.5 0 0 0 21.085 4.87c1.247-.027 2.528-.163 3.485-.995.71-.625 1.066-1.512 1.324-2.16 3.008-7.52 4.434-13.739 4.492-19.575.07-7.453-2.23-14.175-6.488-18.925-.492-.547-1.106-1.114-1.945-1.157m0 0"/>
  <path fill="#5f95d7" d="M289.54 455.945c-1.474.707-3.11.88-4.653.88-.793 0-1.563-.048-2.27-.087-6.351-.375-12.71-1.117-18.863-1.836-3.418-.398-6.84-.8-10.277-1.14-.938-.09-1.95-.137-2.989-.18-4.347-.191-9.273-.402-12.09-4.133-2.93-3.883-2.933-16.21-1.18-20.453 3.22-7.762 13.188-9.625 20.407-10.355 1.027-.102 2.254-.246 3.605-.41 6.73-.801 15.957-1.903 20.497-.31 9.601 3.376 11.91 16.384 12.386 20.29.301 2.453 1.48 14.824-4.574 17.734m0 0"/>
  <path fill="#0f0550" d="M591.64 524.3c13.614.376 27.692.763 41.505-.167l8.609-.57c25.957-1.704 50.48-3.313 76.031-8.243a.75.75 0 0 1 .871.586.745.745 0 0 1-.59.871c-25.64 4.946-50.207 6.559-76.214 8.266l-8.606.57c-6.39.43-12.832.578-19.25.578-7.527 0-15.031-.203-22.398-.406l-2.84-.078c-5.727-.156-11.637-.05-17.352.047-9.027.156-18.363.316-27.34-.524a.747.747 0 0 1-.671-.808c.039-.406.414-.688.808-.668 8.899.832 18.192.672 27.18.516 5.726-.098 11.652-.204 17.418-.047Zm172.508 99.56-.425-.594c-1.47-2.043-3.262-4.543-5.246-6.875a.7.7 0 0 0 .238-.383c1.805-8.293-5.309-15.86-12.942-18.113-7.37-2.176-15.136-.793-22.648.543l-.852.152c-27.351 4.847-57.191 7.43-93.918 8.125-16.93.324-33.425.21-47.328.058-2.062-.023-4.14-.066-6.23-.113-11.738-.258-23.887-.531-35.18 3.29-7.64 2.581-13.84 7.976-19.832 13.19-5.262 4.579-10.7 9.313-17.062 12.075-7.356 3.195-15.512 3.664-23.399 4.113l-60.258 3.45a.742.742 0 0 0 .043 1.48h.04l60.257-3.45c7.645-.437 16.309-.93 23.906-4.23 6.575-2.86 12.102-7.668 17.446-12.32 5.887-5.117 11.969-10.414 19.336-12.903 11.043-3.738 23.054-3.468 34.672-3.21 2.093.043 4.18.09 6.246.113 13.918.152 30.426.265 47.37-.059 36.806-.699 66.723-3.289 94.15-8.148l.855-.153c7.34-1.304 14.933-2.656 21.968-.578 6.836 2.02 13.114 8.778 11.997 15.797-2.32-2.543-4.86-4.73-7.426-5.672-4.172-1.523-10.68-.804-16.418-.164-2.406.27-4.68.524-6.508.574-23.895.668-48.145 2.047-71.59 3.38-20.074 1.14-40.824 2.32-61.265 3.05-18.465.66-45.56 3.102-67.625 16.66-1.887 1.16-3.75 2.41-5.56 3.621-3.683 2.477-7.5 5.036-11.589 6.86-8.926 3.98-19.305 4.5-28.465 4.957l-54.347 2.722a.74.74 0 0 0 .039 1.48h.035l54.347-2.722c9.29-.46 19.817-.988 28.997-5.082 4.203-1.879 8.074-4.472 11.812-6.98 1.79-1.203 3.645-2.446 5.504-3.59 21.77-13.375 48.605-15.79 66.898-16.441 20.461-.73 41.223-1.91 61.301-3.055 23.434-1.332 47.672-2.711 71.547-3.38 1.89-.05 4.191-.308 6.633-.577 5.574-.625 11.894-1.328 15.742.082 4.832 1.765 10.008 8.98 13.098 13.293l.43.594a.745.745 0 0 0 1.035.171.74.74 0 0 0 .171-1.039M441.734 508.866a.743.743 0 0 0 .383-1.379c-32.722-19.593-70.504-27.062-107.043-34.285a.746.746 0 0 0-.875.582.75.75 0 0 0 .586.875c36.414 7.2 74.07 14.645 106.567 34.102.12.07.253.105.382.105m-241.882-80.441q.076.016.148.015a.74.74 0 0 0 .727-.593 704 704 0 0 1 14.62-58.871.742.742 0 0 0-1.425-.418 705 705 0 0 0-14.649 58.992.74.74 0 0 0 .579.875m-67.903-12.57a.743.743 0 0 0 .875-.578 167 167 0 0 1 19.028-50.47.746.746 0 0 0-.274-1.015.746.746 0 0 0-1.016.273 168.6 168.6 0 0 0-19.195 50.918.74.74 0 0 0 .582.871m154.598-56.458c8.2 8.883 14.242 19.844 19.262 29.422a622 622 0 0 1 29.902 66.203c.418 1.094.894 2.336 1.883 3.239a4.12 4.12 0 0 0 2.828 1.11c.512 0 1.043-.09 1.582-.274 2.562-.864 4.887-3.641 5.402-6.461 1.008-5.473-1.203-10.828-3.761-16.29a1246 1246 0 0 0-29.032-58.023c-5.879-11.02-11.82-21.664-19.781-30.762-5.922-6.761-11.738-10.933-17.789-12.75-4.617-1.382-13.16-2.269-17.754.965-1.918 1.352-2.953 3.262-3.082 5.684l-.031.672.664.101c13.351 2.051 23.527 10.465 29.707 17.164m171.066-15.484c15.852 4.582 30.825 8.906 43.215 19.05l87.05 81.231.048.043c.781.614 1.726.711 2.558.801.368.04.735.074 1.086.16 1.688.418 3.098.59 4.356.59 1.445 0 2.695-.223 3.96-.562a4.06 4.06 0 0 0 2.813-2.63 4.02 4.02 0 0 0-.629-3.765c-1.734-2.246-3.937-4.52-4.996-5.504l-18.242-16.93c-25.105-23.296-42.062-37.886-67.2-57.82-10.175-8.066-24.109-19.117-39.308-21.574-4.762-.77-9.64-1.031-14.36-1.29-2.917-.155-5.94-.32-8.894-.6-3.004-.29-7.547-.72-10.129 2.14l-.78.871 11.632 3.5a659 659 0 0 0 7.82 2.29M307.843 615.54c-.429-2.52-.573-2.863-2.894-3.41a36 36 0 0 1-3.5-.984c-4.867-1.63-9.781-3.403-14.535-5.122-10.008-3.617-20.355-7.355-30.902-9.96-7.774-1.922-15.653-3.958-23.278-5.926-11.234-2.903-22.851-5.903-34.332-8.59-21.175-4.957-38.582-8.031-54.777-9.68-1.441-.148-2.793-.351-4.094-.543-4.008-.597-7.793-1.16-12.379.203l-.68.207.176.692c1.692 6.62 6.274 19.457 12.735 25.554 7.008 6.614 17.426 7.45 26.617 8.192l1.898.152c4.477.375 8.91 1.567 13.2 2.715 6.304 1.691 12.672 3.574 18.832 5.399 13.297 3.933 27.05 8 40.957 10.355 11.804 1.992 22.718 5.617 34.273 9.457l.465.152c4.09 1.36 7.367 2.782 10.535 4.16 5.203 2.258 10.117 4.395 17.438 5.61.277.047.683.113 1.132.113.618 0 1.313-.125 1.864-.61.758-.663.898-1.675.988-2.343 1.156-8.375 2.043-16.973.758-23.133a67 67 0 0 1-.496-2.66m-52.128-160.13c7.46 1.242 15.25 1.875 23.926 2.516q.03.005.058.004a.743.743 0 0 0 .055-1.484c-8.64-.637-16.39-1.27-23.793-2.5-8.852-1.477-15.254-3.571-17.133-5.61a.746.746 0 0 0-1.05-.043.74.74 0 0 0-.044 1.047c2.907 3.16 12.512 5.16 17.98 6.07m0 0"/>
  <path fill="#f4e6d5" d="M690.145 672.484a.744.744 0 0 1 .168 1.036c-6.766 9.332-16.489 16.543-27.383 20.312a.754.754 0 0 1-.945-.46.75.75 0 0 1 .46-.946c10.61-3.668 20.078-10.688 26.664-19.774a.744.744 0 0 1 1.036-.168m-54.606-201.632c3.926 1.824 7.984 3.71 11.754 5.906 9.21 5.37 17.113 12.824 24.758 20.035a.75.75 0 0 0 .508.2.74.74 0 0 0 .507-1.282c-7.699-7.266-15.668-14.777-25.027-20.234-3.824-2.235-7.918-4.137-11.875-5.973-6.297-2.926-12.812-5.953-18.258-10.344a.743.743 0 0 0-.934 1.156c5.59 4.508 12.184 7.57 18.567 10.536M527.32 504.188a425.4 425.4 0 0 1-70.472-31.946.744.744 0 1 0-.735 1.293 427 427 0 0 0 70.723 32.055q.121.042.242.043a.745.745 0 0 0 .703-.5.744.744 0 0 0-.46-.945m-9.785 97.609c1.598 4.844-3 11.16-6.695 16.238a109 109 0 0 0-1.836 2.567c-1.281 1.859-2.684 3.8-4.492 5.343-3.645 3.098-8.254 4.13-13.219 4.13-3.559 0-7.3-.528-11.008-1.204-2.305-.422-5.457-1-7.527-3.113-1.223-1.246-1.922-2.871-2.535-4.305l-6.356-14.832c-.797-1.863-1.703-3.976-1.86-6.207-.179-2.566.774-4.957 2.497-6.23 1.402-1.04 3.156-1.305 4.828-1.493 14.059-1.55 28.629-.125 42.121 4.125 3.29 1.04 5.336 2.715 6.082 4.98m-1.41.469c-.598-1.817-2.273-3.133-5.121-4.032-9.805-3.09-20.188-4.668-30.524-4.668-3.68 0-7.347.2-10.988.602-1.531.168-3 .39-4.105 1.207-1.575 1.164-2.012 3.313-1.899 4.934.14 1.98.953 3.886 1.746 5.726l6.356 14.832c.586 1.38 1.2 2.801 2.226 3.852 1.61 1.64 4 2.187 6.735 2.687 8.527 1.559 17.215 2.32 23-2.593 1.668-1.422 3.004-3.278 4.226-5.051a126 126 0 0 1 1.864-2.602c3.308-4.547 7.843-10.777 6.484-14.894m247.023 3.09c-.59 1.738-1.41 2.613-2.453 2.613q-.17-.001-.351-.032l-.407-.074-.152-.383c-2.293-5.78-4.77-14.523-3.555-23.335a22.3 22.3 0 0 1 2.602-7.778c.336-.601.883-.949 1.508-.949h.004c.75.004 1.488.5 1.926 1.3 3.175 5.81 3.625 20.532.878 28.637m-2.18-27.926c-.187-.34-.464-.524-.624-.524h-.004c-.028 0-.11 0-.211.184a20.8 20.8 0 0 0-2.43 7.262c-1.133 8.207 1.082 16.402 3.242 22.011.266-.215.547-.726.801-1.48 2.594-7.66 2.188-22.028-.773-27.453m-183.808-.922c-3.375-.274-6.726-2.305-9.2-5.57-2.155-2.848-3.417-6.157-4.624-9.575-.207-.59-.563-1.48-1.008-2.59-2.594-6.441-7.98-19.855-4.707-25.46.852-1.458 2.2-2.32 4.02-2.56 5.527-.733 11.129-.901 14.558 2.86 2.399 2.633 2.817 6.32 3.184 9.574a353 353 0 0 0 3.96 26.149c.231 1.2.489 2.559.04 3.875-.793 2.328-3.352 3.32-5.61 3.32q-.312 0-.613-.023m.121-1.48c1.887.156 4.114-.583 4.696-2.294.32-.949.109-2.054-.094-3.12a354 354 0 0 1-3.977-26.259c-.343-3.03-.73-6.468-2.804-8.742-1.957-2.144-4.864-2.797-8.09-2.797-1.668 0-3.426.172-5.18.407-1.355.18-2.316.777-2.934 1.836-2.906 4.976 2.497 18.421 4.805 24.16.453 1.133.82 2.043 1.031 2.648 1.164 3.305 2.38 6.496 4.41 9.176 2.22 2.93 5.184 4.746 8.137 4.984m12.121-22.747c-1.144-4.203-4.18-15.37-.25-20.25 1.38-1.707 3.438-2.504 6.137-2.37l4.227.214c.71.035 1.515.078 2.28.426 1.161.527 1.864 1.601 2.43 2.465 4.172 6.375 5.32 13.066 6.532 20.144.523 3.047 1.062 6.2 1.863 9.34 1.645 6.438.813 10.938-2.414 13.02-1.305.84-2.809 1.12-3.973 1.27q-1.063.133-2.023.132c-9.852 0-11.89-10.309-13.55-18.692-.407-2.043-.786-3.976-1.259-5.699m1.434-.39c.484 1.773.871 3.73 1.281 5.804 1.817 9.18 3.707 18.668 13.926 17.371 1.504-.191 2.535-.511 3.36-1.043 3.331-2.152 2.808-7.39 1.78-11.406-.816-3.199-1.363-6.379-1.89-9.457-1.184-6.926-2.305-13.465-6.309-19.582-.586-.894-1.09-1.601-1.804-1.93-.504-.226-1.133-.261-1.742-.289l-4.223-.218a12 12 0 0 0-.52-.012c-1.957 0-3.394.601-4.386 1.832-3.457 4.289-.559 14.926.527 18.93m41.934 22.21-6.649-.015c-.8 0-1.898-.004-2.781-.629-.938-.66-1.285-1.738-1.563-2.789-3.066-11.559-4.254-21.137-5.09-31.965-.414-5.367 3.254-7.851 6.524-8.351 4.293-.657 9.566 1.761 10.879 7.511 2.547 11.121 3.535 21.918 2.941 32.102-.05.863-.144 2.472-1.285 3.398-.863.696-2.004.735-2.82.735-.051.004-.106.004-.156.004m-6.645-1.5 6.652.016c.84-.012 1.567-.027 2.035-.406.586-.473.688-1.453.739-2.332.586-10.043-.395-20.7-2.906-31.684-.997-4.363-4.672-6.46-8.036-6.46q-.596 0-1.175.09c-2.762.417-5.598 2.417-5.266 6.769.832 10.742 2.008 20.246 5.043 31.695.219.82.457 1.586.984 1.961.465.324 1.149.352 1.93.352m35.934-17.636c.035 3.305.07 6.426.386 9.36.11 1.003.235 2.14.016 3.26-.305 1.583-1.223 2.923-2.66 3.864-1.266.832-2.805 1.27-4.332 1.27-.555 0-1.11-.059-1.649-.176-4.527-1-5.117-3.832-5.8-7.113a49 49 0 0 0-.34-1.563 212 212 0 0 1-1.746-8.285c-1.23-6.41-2.196-12.754-3.051-18.652-.309-2.117.402-4.067 2.004-5.489 2.113-1.879 5.601-2.648 8.476-1.882 4.02 1.074 5.848 5.394 7.11 9.48 1.468 4.77 1.527 10.441 1.586 15.926m-1.09 9.52c-.324-3.005-.36-6.31-.395-9.5-.058-5.38-.117-10.942-1.523-15.505-1.14-3.699-2.754-7.597-6.07-8.484a7.5 7.5 0 0 0-1.93-.242c-1.91 0-3.89.652-5.18 1.8-.86.762-1.82 2.102-1.52 4.165.856 5.883 1.813 12.207 3.04 18.59a205 205 0 0 0 1.738 8.222c.129.559.238 1.09.344 1.602.672 3.222 1.078 5.172 4.664 5.965 1.62.359 3.472.02 4.847-.887.762-.5 1.735-1.41 2.02-2.902.172-.907.066-1.88-.035-2.825m9.152-34.235c2.36-.703 5.598-1.664 8.508-.621 8.215 2.926 8.324 18.324 7.695 29.652-.117 2.074-.469 8.39-4.972 9.836a5.4 5.4 0 0 1-1.606.246c-2.414 0-4.703-1.613-5.941-3.539-1.535-2.394-1.926-5.277-2.27-7.82-.238-1.766-.656-3.887-1.101-6.133-1.391-7.027-3.121-15.777-.786-21.203l.137-.32Zm.762 1.324c-1.953 5.04-.313 13.324 1.008 20.012.449 2.27.87 4.414 1.117 6.219.324 2.39.687 5.101 2.047 7.215 1.18 1.832 3.62 3.406 5.847 2.683 2.375-.762 3.664-3.543 3.942-8.504.347-6.254 1.406-25.281-6.711-28.176-2.18-.773-4.578-.23-7.25.551m19.992 14.887c-.875-4.008-1.777-8.152-1.047-12.035.582-3.07 3.059-5.688 6.16-6.516 2.922-.773 5.809.2 7.922 2.668 1.024 1.207 1.336 2.738 1.586 4.336a157 157 0 0 1 1.887 27.258c-.024 1.277-.106 2.508-.813 3.555-.554.824-1.5 1.453-2.652 1.773a6.6 6.6 0 0 1-1.766.238c-3.164 0-6.117-2.226-7.64-4.816-1.856-3.152-2.207-6.899-2.524-10.207-.187-1.992-.636-4.059-1.113-6.254m1.45-.313c.46 2.137.945 4.348 1.144 6.426.297 3.153.636 6.727 2.32 9.598 1.516 2.578 4.664 4.746 7.727 3.898.816-.226 1.464-.644 1.824-1.18.48-.706.535-1.66.558-2.75.164-9.007-.464-18.09-1.87-26.995-.216-1.38-.477-2.692-1.25-3.602-1.633-1.914-3.419-2.406-4.817-2.406a6 6 0 0 0-1.594.21c-2.523.669-4.61 2.872-5.082 5.352-.676 3.586.195 7.582 1.04 11.45m32.59 8.012c.179.988.382 2.11.214 3.235-.406 2.726-1.926 4.73-4.07 5.359a5 5 0 0 1-1.41.203c-1.465 0-2.899-.648-3.946-1.84-.312-.355-.59-.804-.848-1.379-.93-2.047-1.398-5.215-1.773-7.761-.152-1.004-.281-1.895-.418-2.559l-.293-1.34c-1.402-6.402-4.016-18.32 2.711-21.664 1.531-.754 3.719-.601 4.734.969.391.61.516 1.285.621 1.883Zm-1.462.266-4.48-24.895c-.086-.484-.176-.984-.41-1.343-.32-.5-.938-.727-1.583-.727-.43 0-.867.101-1.242.285-5.687 2.824-3.144 14.434-1.918 20.016l.29 1.351c.144.684.28 1.61.437 2.649.363 2.449.812 5.504 1.656 7.363v.004c.2.43.402.77.613 1.008.996 1.136 2.461 1.593 3.82 1.195 1.598-.469 2.696-1.984 3.02-4.156.133-.883-.039-1.832-.203-2.75m-288.047-8.461-22.691-2.375c-2.305-.242-4.692-.488-7.067-.399a25.2 25.2 0 0 0-12.136 3.676.743.743 0 0 0 .773 1.27 23.74 23.74 0 0 1 11.422-3.461c2.27-.086 4.602.156 6.863.39l22.684 2.375a.745.745 0 0 0 .812-.66.737.737 0 0 0-.66-.816m185.746 91.851a.74.74 0 0 0-.597.864c.554 3.117.804 6.308.746 9.48-.059 3.223-2.418 6.008-5.61 6.625-3.52.688-6.933.715-10.543.746l-19.171.164c-2.372.028-5.063.047-7.254-1.093-4.38-2.278-5.36-8.168-5.739-13.63a.747.747 0 0 0-.789-.69.746.746 0 0 0-.691.792c.406 5.871 1.504 12.227 6.535 14.844 2.188 1.14 4.746 1.266 6.969 1.266q.505.001.98-.004l19.168-.164c3.684-.032 7.16-.063 10.82-.774 3.872-.75 6.735-4.14 6.81-8.054.062-3.27-.2-6.56-.774-9.774a.737.737 0 0 0-.86-.598m49.903 14.961c.687-1.02.093-13.437-1.04-16.187a.741.741 0 1 0-1.371.566c1.153 2.801 1.344 13.578 1.122 14.88-.254.339-.586.581-.91.648-9.723 1.996-16.422 2.125-24.086 1.687a111 111 0 0 0-2.153-.086c-2.183-.066-5.484-.172-6.054-.93-2.387-3.164-2.649-7.785-2.883-11.859-.063-1.11-.121-2.176-.223-3.168a.74.74 0 0 0-.812-.66.735.735 0 0 0-.66.809c.093.968.152 2.015.214 3.101.242 4.29.52 9.145 3.18 12.672 1 1.328 4.008 1.418 7.195 1.52.723.023 1.442.046 2.114.085 2.25.13 4.417.207 6.601.207 5.371 0 10.844-.484 17.867-1.921.727-.153 1.422-.649 1.899-1.364m42.425-18.14a.74.74 0 0 0-.285 1.008 18.16 18.16 0 0 1 2.196 10.418c-.133 1.476-.528 2.406-1.207 2.843-.387.25-.91.364-1.422.469-3.809.797-7.235 1.246-11.207 1.766l-1.36.175c-4.008.528-14.836.43-15.722-.773-1.86-3.719-2.211-11.691-2.274-14.047a.74.74 0 0 0-.742-.719h-.023a.74.74 0 0 0-.72.762c.083 3.117.493 10.785 2.434 14.668.758 1.52 5.461 1.883 9.762 1.883 3.863 0 7.403-.293 7.477-.3l1.36-.18c4-.52 7.456-.97 11.32-1.782.613-.129 1.308-.273 1.925-.676 1.086-.703 1.7-1.996 1.88-3.953a19.65 19.65 0 0 0-2.38-11.273.74.74 0 0 0-1.012-.29M357.799 571.65a.746.746 0 0 0-.902.535.74.74 0 0 0 .535.903c7.386 1.894 25.57 9.617 34.812 40.398 9.754 32.473 4.613 68.88-13.742 97.39a.74.74 0 0 0 .625 1.142c.242 0 .48-.118.625-.34 18.59-28.871 23.79-65.739 13.918-98.617-9.461-31.504-28.238-39.454-35.871-41.41M82.344 456.66c-.164 6.828-4.492 11.281-8.446 12.527a8.2 8.2 0 0 1-2.476.399c-1.543 0-2.977-.48-4.125-1.414-1.672-1.356-3.531-4.258-2.918-10.395.34-3.441 1.133-7.726 4.25-10.336 2.289-1.918 4.984-2.285 7.59-1.035 3.531 1.7 6.226 6.203 6.125 10.254m-1.485-.039c.086-3.512-2.234-7.41-5.285-8.879-.664-.32-1.492-.582-2.414-.582-1.09 0-2.316.363-3.578 1.418-2.703 2.266-3.41 6.184-3.727 9.344-.425 4.273.418 7.508 2.38 9.098 1.37 1.113 3.226 1.382 5.214.753 3.469-1.093 7.262-5.046 7.41-11.152m232.313 5.484a.74.74 0 0 0-.926.497 43.8 43.8 0 0 1-10.715 18.046c-.355.36-.715.711-1.078 1.067-1.433 1.406-2.918 2.863-3.98 4.648-1.418 2.383-1.953 5.059-2.457 8.055-3.875 23.012-4.555 46.215-4.72 63.855-.116 12.844.802 20.454 2.188 31.97.305 2.53.63 5.241.973 8.234a.74.74 0 0 0 .738.656q.042.001.082-.004a.74.74 0 0 0 .657-.82c-.344-2.996-.672-5.711-.977-8.243-1.379-11.46-2.289-19.035-2.172-31.777.156-17.59.836-40.715 4.695-63.625.48-2.848.98-5.383 2.266-7.543.969-1.621 2.317-2.945 3.746-4.348q.557-.54 1.098-1.086a45.25 45.25 0 0 0 11.078-18.66.745.745 0 0 0-.496-.922m-42.344 121.547q.089.019.172.02c.336 0 .64-.23.719-.574a.74.74 0 0 0-.551-.891c-24.898-5.816-50.023-12.418-74.32-18.8-20.918-5.497-42.543-11.177-63.914-16.333-1.309-.312-2.79-.672-3.903-1.492-1.554-1.148-2.336-3.098-2.949-5.031-1.523-4.797-2.324-9.887-3.102-14.809-.625-3.969-1.273-8.074-2.293-12.043-1.64-6.347-5.902-17.629-16.05-21.875a29 29 0 0 0-.938-.375c-1.43-.562-2.781-1.094-3.617-2.16-.852-1.09-1.043-2.648-1.16-4.027-1.621-19.52 6.746-39.399 21.84-51.887a.743.743 0 0 0-.946-1.145c-15.464 12.793-24.039 33.16-22.375 53.157.133 1.59.368 3.406 1.473 4.82 1.082 1.383 2.688 2.012 4.242 2.625.305.121.61.238.906.363 9.56 4 13.614 14.797 15.184 20.88 1.004 3.898 1.645 7.968 2.266 11.902.785 4.976 1.593 10.12 3.152 15.027.656 2.066 1.586 4.371 3.484 5.773 1.356 1 2.993 1.395 4.434 1.746 21.36 5.149 42.977 10.829 63.887 16.32 24.308 6.384 49.445 12.989 74.36 18.81M192.586 450.11a.737.737 0 0 0-.961.414c-12.71 31.918-9.852 68.215-6.176 99.73a.743.743 0 0 0 .738.657c.028 0 .055-.004.086-.004.407-.05.7-.418.649-.824-3.656-31.336-6.5-67.414 6.082-99.012a.74.74 0 0 0-.418-.96m14.16 53.485a.743.743 0 0 0 .68.797 289 289 0 0 1 58.937 11.02.74.74 0 0 0 .926-.5.74.74 0 0 0-.5-.923 290.7 290.7 0 0 0-59.242-11.074.75.75 0 0 0-.8.68m-94.887-22.88a.74.74 0 0 0 .579.876 745 745 0 0 1 42.027 9.918.74.74 0 0 0 .906-.523.743.743 0 0 0-.523-.91 752 752 0 0 0-42.114-9.938.74.74 0 0 0-.875.578m-13.035 42.727a.74.74 0 0 0-.144 1.04c21.742 28.69 25.902 69.773 10.347 102.234a.75.75 0 0 0 .348.992c.105.047.215.07.32.07a.74.74 0 0 0 .672-.422c15.785-32.945 11.567-74.648-10.504-103.77a.74.74 0 0 0-1.039-.144m187.942 98.61a2167 2167 0 0 1-140.461-33.098.745.745 0 0 0-.91.524c-.106.394.128.8.523.91a2164 2164 0 0 0 140.559 33.117.743.743 0 0 0 .875-.578.75.75 0 0 0-.586-.875m6.523-256.739c-3.926-6.449-9.621-12.07-16.465-16.246-4.695-2.867-9.312-4.828-13.726-5.832-22.551-5.129-44.926-7.863-64.711-7.914a779 779 0 0 1-9.672-.101c-16.727-.254-32.528-.492-49.188 5.433a.746.746 0 0 0-.453.95.75.75 0 0 0 .95.453c16.41-5.84 32.081-5.606 48.667-5.352 3.184.047 6.41.094 9.692.102 19.676.047 41.937 2.773 64.387 7.875 4.257.968 8.722 2.87 13.277 5.652 6.648 4.055 12.168 9.504 15.973 15.754 18.488 30.39 32.082 57.863 44.078 89.09a.745.745 0 0 0 .691.476q.136.001.266-.05a.74.74 0 0 0 .43-.957c-12.028-31.313-25.66-58.864-44.196-89.332m0 0"/>
  <path fill="#0f0550" d="M129.703 457.664c-.035 1.383-.555 2.426-1.543 3.106-.894.613-2.097.855-3.45.855-3.48 0-7.952-1.598-10.714-2.582-.453-.164-.836-.3-1.129-.398-1.597-.532-3.722-1.75-4.449-3.442a2.92 2.92 0 0 1 .035-2.45c.535-1.132 1.95-2.37 5.633-1.827.523.074 1.223.144 2.039.23 5.129.516 13.71 1.383 13.578 6.508m83.215 11.715c-3.273-2.379-8.082-2.953-11.945-3.414l-1.239-.149c-1.558-.199-3.199-.285-4.664.395-1.554.715-2.847 2.61-2.226 4.414.523 1.527 2.152 2.281 3.031 2.684a107 107 0 0 0 12.375 4.812c1.316.422 2.555.625 3.656.625 2.102 0 3.711-.742 4.426-2.148.848-1.676.395-4.45-3.414-7.22m0 0"/>
</svg>
