<svg width="48" height="48" viewBox="0 0 48 48" fill="none" xmlns="http://www.w3.org/2000/svg">
  <path d="M0 24C0 10.745 10.745 0 24 0s24 10.745 24 24-10.745 24-24 24S0 37.255 0 24" fill="#EEE"/>
  <path d="M24.272 10.667h-.544l-.224.004c-3.065.12-5.488 2.647-5.488 5.723v3.214l.008.283a5.96 5.96 0 0 0 1.788 3.984l1.433 1.4.092.102c.175.213.27.48.27.758v.195l-.009.141a1.15 1.15 0 0 1-.613.88l-9.015 4.622-.156.088a2.4 2.4 0 0 0-1.147 2.048v.4l.006.155c.078.96.88 1.717 1.858 1.717H35.47c1.03 0 1.864-.837 1.864-1.869v-.401a2.4 2.4 0 0 0-1.303-2.138l-9.015-4.622a1.15 1.15 0 0 1-.622-1.022v-.195c0-.323.131-.633.362-.859l1.433-1.4a5.96 5.96 0 0 0 1.795-4.267v-3.214c0-3.163-2.557-5.727-5.711-5.727Z" fill="#CCC"/>
</svg>
