<svg xmlns="http://www.w3.org/2000/svg" width="16" height="16" viewBox="0 0 16 16" fill="none">
  <g clip-path="url(#clip0_5382_11797)" stroke="#4B5565">
    <path d="M1.333 8c0-3.142 0-4.713.976-5.69.977-.976 2.548-.976 5.69-.976s4.715 0 5.691.976c.976.977.976 2.548.976 5.69s0 4.715-.976 5.691-2.548.976-5.69.976-4.714 0-5.69-.976c-.977-.976-.977-2.548-.977-5.69Z"/>
    <path d="M11.334 7.333v-.666c0-1.257 0-1.886-.39-2.276C10.552 4 9.923 4 8.666 4H7.334c-1.257 0-1.886 0-2.276.39-.391.391-.391 1.02-.391 2.277v.666"/>
    <path d="M3.333 7.334h9.333m-7.333 3.332h5.333" stroke-linecap="round"/>
  </g>
  <defs>
    <clipPath id="clip0_5382_11797">
      <path fill="#fff" d="M0 0h16v16H0z"/>
    </clipPath>
  </defs>
</svg>
