<svg width="32" height="39" viewBox="0 0 32 39" fill="none" xmlns="http://www.w3.org/2000/svg">
  <g clip-path="url(#clip0_382_17957)" fill="#294BA0">
    <path d="M30.706 38.33a.866.866 0 0 0 .907-.82V9.077a.78.78 0 0 0-.279-.59L21.782.226 21.5.062A1 1 0 0 0 21.155 0H.907A.866.866 0 0 0 0 .82v36.69a.866.866 0 0 0 .907.82h29.8zM22.062 2.734l6.807 5.886h-6.807zm-20.248-1.1h18.434v7.8a.865.865 0 0 0 .906.82h8.645v26.437H1.814z"/>
    <path d="M8.626 16.284v1.17a.819.819 0 0 0 1.637 0v-1.109a2.9 2.9 0 0 0 1.344-.62 3.8 3.8 0 0 0 1.18-1.838 2.62 2.62 0 0 0-.33-2.26 3.74 3.74 0 0 0-2.194-1.377V7.526a1.13 1.13 0 0 1 .558.826.82.82 0 0 0 1.629-.164 2.77 2.77 0 0 0-2.187-2.4v-.656a.819.819 0 0 0-1.637 0v.644A2.89 2.89 0 0 0 6.272 8.83a3.01 3.01 0 0 0 2.354 2.792v2.927a1.86 1.86 0 0 1-.952-1.356.82.82 0 1 0-1.6.353 3.42 3.42 0 0 0 2.552 2.738m2.485-3.728a.98.98 0 0 1 .1.89 2.13 2.13 0 0 1-.665 1.03q-.128.105-.283.166v-2.68c.334.113.627.319.847.594Zm-3.2-3.73a1.29 1.29 0 0 1 .717-1.35v2.391a1.28 1.28 0 0 1-.72-1.04zm17.61 12.47H6.624a.828.828 0 0 0-.67 1.45.83.83 0 0 0 .67.187h18.9a.83.83 0 1 0 0-1.637zm0 3.892H6.624a.83.83 0 1 0 0 1.637h18.9a.828.828 0 0 0 .67-1.45.83.83 0 0 0-.67-.187zm-8.893 3.894H6.482a.82.82 0 1 0 0 1.637h10.146a.818.818 0 1 0 0-1.637"/>
  </g>
  <defs>
    <clipPath id="clip0_382_17957">
      <path fill="#fff" d="M0 0h31.613v38.33H0z"/>
    </clipPath>
  </defs>
</svg>
