<svg width="32" height="32" viewBox="0 0 32 32" fill="none" xmlns="http://www.w3.org/2000/svg">
  <path d="M13.773 10.015A7.7 7.7 0 0 1 16 9.682a6.67 6.67 0 0 1 6.667 6.666A6.67 6.67 0 0 1 16 23.015a6.67 6.67 0 0 1-6.667-6.667c0-1.373.414-2.64 1.12-3.706m2.374-2.441 2.213-2.547m-2.213 2.547 2.586 1.893" stroke="#2D317F" stroke-width="2" stroke-linecap="round" stroke-linejoin="round"/>
  <path d="M12 29.333h8c6.667 0 9.333-2.667 9.333-9.334v-8c0-6.666-2.666-9.333-9.333-9.333h-8c-6.667 0-9.333 2.667-9.333 9.333v8c0 6.667 2.666 9.334 9.333 9.334" stroke="#2D317F" stroke-width="2" stroke-linecap="round" stroke-linejoin="round"/>
</svg>
