<svg width="32" height="32" viewBox="0 0 32 32" fill="none" xmlns="http://www.w3.org/2000/svg">
  <path d="M19.016 20.584h-6.667m3.333-3.252v6.667" stroke="#2D317F" stroke-width="1.969" stroke-miterlimit="10" stroke-linecap="round" stroke-linejoin="round"/>
  <path d="m16.88 3.357-.04.093-3.867 8.973h-3.8c-.906 0-1.773.187-2.56.52L8.947 7.37 9 7.237l.093-.213c.027-.08.054-.16.094-.227 1.747-4.04 3.72-4.96 7.693-3.44" stroke="#2D317F" stroke-width="1.969" stroke-linecap="round" stroke-linejoin="round"/>
  <path d="M24.067 12.69a6.4 6.4 0 0 0-1.88-.266h-9.214l3.867-8.973.04-.094c.2.067.387.16.587.24l2.946 1.24c1.64.68 2.787 1.387 3.48 2.24.134.16.24.307.334.48.12.187.213.374.266.574.054.12.094.24.12.346.36 1.12.147 2.494-.546 4.214Z" stroke="#2D317F" stroke-width="1.969" stroke-linecap="round" stroke-linejoin="round"/>
  <path d="M28.696 18.932v2.6c0 .267-.014.534-.027.8-.253 4.654-2.853 7-7.787 7h-10.4c-.32 0-.64-.026-.946-.066-4.24-.28-6.507-2.547-6.787-6.787a7 7 0 0 1-.067-.947v-2.6a6.53 6.53 0 0 1 3.947-5.986 6.6 6.6 0 0 1 2.56-.52h13.013c.654 0 1.294.093 1.88.266 2.654.814 4.614 3.294 4.614 6.24" stroke="#2D317F" stroke-width="1.969" stroke-linecap="round" stroke-linejoin="round"/>
  <path d="m8.947 7.37-2.334 5.573a6.53 6.53 0 0 0-3.946 5.986v-3.906a7.8 7.8 0 0 1 6.28-7.654Zm19.744 7.654v3.907a6.505 6.505 0 0 0-4.613-6.227c.693-1.733.893-3.093.56-4.226a1.5 1.5 0 0 0-.12-.347 7.76 7.76 0 0 1 4.173 6.893" stroke="#2D317F" stroke-width="1.969" stroke-linecap="round" stroke-linejoin="round"/>
</svg>
