<svg width="32" height="32" viewBox="0 0 32 32" fill="none" xmlns="http://www.w3.org/2000/svg">
  <path d="M12.667 18.334c0 1.293 1 2.333 2.226 2.333H17.4c1.067 0 1.933-.907 1.933-2.04 0-1.213-.533-1.653-1.32-1.933L14 15.294c-.787-.28-1.32-.707-1.32-1.934 0-1.12.867-2.04 1.933-2.04h2.507c1.227 0 2.227 1.04 2.227 2.334M16 10v12" stroke="#2D317F" stroke-width="2" stroke-linecap="round" stroke-linejoin="round"/>
  <path d="M29.333 16c0 7.36-5.973 13.333-13.333 13.333S2.667 23.359 2.667 15.999 8.64 2.666 16 2.666M29.333 8V2.665H24m-1.333 6.668 6.666-6.667" stroke="#2D317F" stroke-width="2" stroke-linecap="round" stroke-linejoin="round"/>
</svg>
