<svg id="Group_4930" data-name="Group 4930" xmlns="http://www.w3.org/2000/svg" width="15.802" height="14.366" viewBox="0 0 15.802 14.366">
  <g id="Group_2413" data-name="Group 2413">
    <g id="Group_2412" data-name="Group 2412">
      <g id="Group_2411" data-name="Group 2411">
        <path id="Path_1588" data-name="Path 1588" d="M1.022 6.179H12.35L7.912 1.742A1.021 1.021 0 1 1 9.355.3l6.151 6.15a1.02 1.02 0 0 1 .294.735v.04a1 1 0 0 1-.075.366 1 1 0 0 1-.127.192 1 1 0 0 1-.09.137l-6.153 6.15a1.021 1.021 0 1 1-1.443-1.443l4.406-4.407H1.022a1.021 1.021 0 1 1 0-2.041" transform="translate(-.001 -.001)" fill="#081f70" fill-rule="evenodd"/>
      </g>
    </g>
  </g>
</svg>
