<svg width="16" height="15" viewBox="0 0 16 15" fill="none" xmlns="http://www.w3.org/2000/svg">
<g clip-path="url(#clip0_24_7)">
<path fill-rule="evenodd" clip-rule="evenodd" d="M14.979 8.822H3.65097L8.08897 13.259C8.19065 13.3521 8.27241 13.4649 8.32933 13.5905C8.38625 13.716 8.41714 13.8519 8.42014 13.9897C8.42314 14.1276 8.39819 14.2646 8.34679 14.3925C8.2954 14.5205 8.21862 14.6367 8.12109 14.7341C8.02356 14.8316 7.9073 14.9083 7.77932 14.9596C7.65134 15.0109 7.5143 15.0358 7.37645 15.0327C7.23861 15.0296 7.10282 14.9986 6.97727 14.9416C6.85173 14.8846 6.73903 14.8027 6.64597 14.701L0.494972 8.551C0.39946 8.45426 0.324248 8.3394 0.27376 8.21318C0.223271 8.08696 0.198524 7.95192 0.200972 7.816V7.776C0.202757 7.65037 0.228201 7.5262 0.275971 7.41C0.310773 7.34132 0.353389 7.2769 0.402972 7.218C0.429173 7.16994 0.459273 7.12412 0.492971 7.081L6.64597 0.930998C6.73943 0.830645 6.85215 0.750148 6.9774 0.69431C7.10265 0.638473 7.23787 0.60844 7.37498 0.606003C7.5121 0.603566 7.64829 0.628774 7.77545 0.680125C7.90261 0.731476 8.01812 0.807917 8.11508 0.904885C8.21205 1.00185 8.28849 1.11736 8.33984 1.24452C8.3912 1.37168 8.4164 1.50787 8.41397 1.64499C8.41153 1.7821 8.3815 1.91731 8.32566 2.04257C8.26982 2.16782 8.18933 2.28054 8.08897 2.374L3.68297 6.781H14.979C15.1157 6.77672 15.2518 6.79995 15.3794 6.84931C15.5069 6.89867 15.6233 6.97315 15.7215 7.06833C15.8197 7.16352 15.8978 7.27746 15.9511 7.40341C16.0044 7.52935 16.0319 7.66473 16.0319 7.8015C16.0319 7.93827 16.0044 8.07364 15.9511 8.19959C15.8978 8.32553 15.8197 8.43948 15.7215 8.53466C15.6233 8.62985 15.5069 8.70433 15.3794 8.75369C15.2518 8.80305 15.1157 8.82628 14.979 8.822Z" fill="#081F70"/>
</g>
<defs>
<clipPath id="clip0_24_7">
<rect width="15.802" height="14.366" fill="white" transform="matrix(-1 0 0 -1 16 15)"/>
</clipPath>
</defs>
</svg>
