<svg xmlns="http://www.w3.org/2000/svg" width="1080" viewBox="0 0 810 810" height="1080" version="1.0">
  <defs>
    <clipPath id="f20c3e8727">
      <path d="M110.055 453H136v26h-25.945Zm0 0"/>
    </clipPath>
    <clipPath id="7dc57e225a">
      <path d="M122 487h180v222.824H122Zm0 0"/>
    </clipPath>
    <clipPath id="39c1bb434e">
      <path d="M671 215h29.305v202H671Zm0 0"/>
    </clipPath>
    <clipPath id="4e0b61e28e">
      <path d="M679 173h21.305v22H679Zm0 0"/>
    </clipPath>
    <clipPath id="4ac4e00856">
      <path d="M144 100.074h504V709H144Zm0 0"/>
    </clipPath>
  </defs>
  <g clip-path="url(#f20c3e8727)">
    <path fill="#c9c9c7" d="M116.117 478.832a459 459 0 0 1-6.02-19.133l20.153-5.847a442 442 0 0 0 5.742 18.257Zm0 0"/>
  </g>
  <g clip-path="url(#7dc57e225a)">
    <path fill="#c9c9c7" d="M289.664 709.574a458.8 458.8 0 0 1-94.715-87.937 458 458 0 0 1-25.597-34.801 461.2 461.2 0 0 1-47.286-91.5l19.602-7.477a440.3 440.3 0 0 0 45.14 87.344 437 437 0 0 0 24.434 33.223 437 437 0 0 0 27.45 30.777 438 438 0 0 0 62.953 53.16Zm0 0"/>
  </g>
  <g clip-path="url(#39c1bb434e)">
    <path fill="#c9c9c7" d="m692.293 416.785-20.617-3.887a441.7 441.7 0 0 0 7.644-81.921V215.668h20.985v115.309c0 28.851-2.672 57.457-8.012 85.808m0 0"/>
  </g>
  <g clip-path="url(#4e0b61e28e)">
    <path fill="#c9c9c7" d="M679.32 173.734h20.985V194.7H679.32Zm0 0"/>
  </g>
  <g clip-path="url(#4ac4e00856)">
    <path fill="#c9c9c7" d="M647.848 163.25v167.727q.002 7.517-.278 15.023a410 410 0 0 1-2.207 29.96q-.826 7.47-1.93 14.9a413 413 0 0 1-2.472 14.82 409 409 0 0 1-15.29 58.07 412 412 0 0 1-10.8 28.035 410 410 0 0 1-6.168 13.703 410 410 0 0 1-21.46 39.617 419 419 0 0 1-8.11 12.653 407 407 0 0 1-8.57 12.347 403 403 0 0 1-9.016 12.02 411 411 0 0 1-9.453 11.684 407 407 0 0 1-20.164 22.289 401 401 0 0 1-10.68 10.57 407 407 0 0 1-22.492 19.937 410 410 0 0 1-11.781 9.332 409 409 0 0 1-37.29 25.325 407 407 0 0 1-26.312 14.535 411 411 0 0 1-13.54 6.535 410 410 0 0 1-13.772 6.031 407 407 0 0 1-27.309-12.566 407 407 0 0 1-26.313-14.535 414 414 0 0 1-12.738-7.98 409 409 0 0 1-24.55-17.344 406 406 0 0 1-23.21-19.094 407 407 0 0 1-11.064-10.176 407 407 0 0 1-10.684-10.57 407 407 0 0 1-10.285-10.961 407 407 0 0 1-9.875-11.328 405 405 0 0 1-9.453-11.684 403 403 0 0 1-9.016-12.02 407 407 0 0 1-8.57-12.347 404 404 0 0 1-8.11-12.653 405 405 0 0 1-14.792-26.152 410 410 0 0 1-6.668-13.465 408 408 0 0 1-11.824-27.621 409 409 0 0 1-13.86-42.871 407 407 0 0 1-3.554-14.598 401 401 0 0 1-3.02-14.718 404 404 0 0 1-4.402-29.72 408 408 0 0 1-1.383-14.96c-.367-4.996-.64-9.996-.828-15a410 410 0 0 1-.274-15.023V163.25l251.782-62.895Zm0 0"/>
  </g>
  <path fill="#0093b9" d="M595.395 204.176v126.8a357 357 0 0 1-5.563 62.899 356 356 0 0 1-9.766 40.543 358 358 0 0 1-6.644 19.773 355 355 0 0 1-16.7 38.22 358 358 0 0 1-21.054 36.007 359 359 0 0 1-12.066 17.02 357 357 0 0 1-57.57 60.191 355 355 0 0 1-16.47 12.816 357 357 0 0 1-53.5 32.395 363 363 0 0 1-11.046-5.66 346 346 0 0 1-10.848-6.043 349 349 0 0 1-10.629-6.414q-5.261-3.3-10.398-6.782-5.14-3.48-10.157-7.136a370 370 0 0 1-9.902-7.489 363 363 0 0 1-9.633-7.828 364 364 0 0 1-9.355-8.16 357 357 0 0 1-9.063-8.48 358 358 0 0 1-8.765-8.79 350 350 0 0 1-8.45-9.09 363 363 0 0 1-8.132-9.378 369 369 0 0 1-7.797-9.656 359 359 0 0 1-14.559-20.098 348 348 0 0 1-6.746-10.418 345 345 0 0 1-6.379-10.645 350 350 0 0 1-6.004-10.863 350 350 0 0 1-5.625-11.062 354 354 0 0 1-10.066-22.68 355 355 0 0 1-12.082-35.195 356 356 0 0 1-8.336-36.262q-1.073-6.111-1.934-12.258-.855-6.147-1.5-12.316a354 354 0 0 1-1.922-37.16V204.176l199.329-49.797Zm0 0"/>
  <path fill="#5db9d2" d="M589.832 393.875a356 356 0 0 1-9.766 40.543 358 358 0 0 1-6.644 19.773 355 355 0 0 1-16.7 38.22 358 358 0 0 1-21.054 36.007 359 359 0 0 1-12.066 17.02 357 357 0 0 1-57.57 60.191 355 355 0 0 1-16.47 12.816 357 357 0 0 1-53.5 32.395V393.875ZM396.063 154.379v239.496H202.297a356.7 356.7 0 0 1-5.563-62.898V204.176Zm0 0"/>
</svg>
