<svg width="25" height="24" viewBox="0 0 25 24" fill="none" xmlns="http://www.w3.org/2000/svg">
  <path d="M4.568 20.535C5.886 22 8.008 22 12.25 22s6.364 0 7.682-1.465C21.25 19.071 21.25 16.714 21.25 12s0-7.072-1.318-8.536S16.492 2 12.25 2 5.886 2 4.568 3.464 3.25 7.285 3.25 11.999s0 7.072 1.318 8.536Z" stroke="#4B5565" stroke-width="1.5"/>
  <path d="M7.25 8c0-.465 0-.698.051-.889a1.5 1.5 0 0 1 1.06-1.06C8.554 6 8.786 6 9.25 6h6c.465 0 .697 0 .888.05a1.5 1.5 0 0 1 1.06 1.061c.052.191.052.424.052.889 0 .464 0 .697-.051.888a1.5 1.5 0 0 1-1.06 1.06c-.191.052-.424.052-.889.052h-6c-.465 0-.697 0-.888-.052a1.5 1.5 0 0 1-1.06-1.06C7.25 8.697 7.25 8.464 7.25 8Z" stroke="#4B5565" stroke-width="1.5"/>
  <circle cx="8.25" cy="13" fill="#4B5565" r="1"/>
  <circle cx="8.25" cy="17" r="1" fill="#4B5565"/>
  <circle cx="12.25" cy="13" r="1" fill="#4B5565"/>
  <circle cx="12.25" cy="17" fill="#4B5565" r="1"/>
  <circle cx="16.25" cy="13" fill="#4B5565" r="1"/>
  <circle cx="16.25" cy="17" r="1" fill="#4B5565"/>
</svg>
