<svg width="20" height="20" viewBox="0 0 20 20" fill="none" xmlns="http://www.w3.org/2000/svg">
<mask id="path-1-inside-1_7995_13757" fill="white">
<path fill-rule="evenodd" clip-rule="evenodd" d="M6.66667 4.33464C6.17117 4.33464 5.75984 3.97425 5.68049 3.5013H5C4.17157 3.5013 3.5 4.17288 3.5 5.0013V6.5013H16.5V5.0013C16.5 4.17287 15.8284 3.5013 15 3.5013H14.3195C14.2402 3.97425 13.8288 4.33464 13.3333 4.33464C12.8378 4.33464 12.4265 3.97425 12.3472 3.5013H7.65284C7.57349 3.97425 7.16217 4.33464 6.66667 4.33464ZM3.5 15.8346V8.5013H16.5V10.8346C16.5 11.3869 16.9477 11.8346 17.5 11.8346C18.0523 11.8346 18.5 11.3869 18.5 10.8346V7.5013V5.0013C18.5 3.06831 16.933 1.5013 15 1.5013H14.3195C14.2402 1.02835 13.8288 0.667969 13.3333 0.667969C12.8378 0.667969 12.4265 1.02835 12.3472 1.5013H7.65284C7.57349 1.02835 7.16217 0.667969 6.66667 0.667969C6.17117 0.667969 5.75984 1.02835 5.68049 1.5013H5C3.067 1.5013 1.5 3.06831 1.5 5.0013V7.5013V15.8346C1.5 17.7676 3.067 19.3346 5 19.3346H10.4167C10.969 19.3346 11.4167 18.8869 11.4167 18.3346C11.4167 17.7824 10.969 17.3346 10.4167 17.3346H5C4.17157 17.3346 3.5 16.6631 3.5 15.8346ZM15.2867 12.6939C15.1799 12.4371 14.8161 12.4371 14.7094 12.6939L14.2158 13.8806C14.171 13.9882 14.0702 14.0619 13.9542 14.072L12.786 14.1736C12.5179 14.1969 12.4026 14.5254 12.5972 14.7112L13.4846 15.5579C13.5651 15.6347 13.5987 15.7485 13.5729 15.8567L13.2724 17.1165C13.2078 17.387 13.5021 17.6008 13.7394 17.4558L14.8351 16.7866C14.9351 16.7255 15.0609 16.7255 15.161 16.7866L16.2566 17.4558C16.4939 17.6008 16.7882 17.387 16.7237 17.1165L16.4232 15.8571C16.3974 15.7487 16.4312 15.6347 16.512 15.5579L17.4023 14.7116C17.5976 14.526 17.4823 14.1968 17.2139 14.1736L16.0419 14.072C15.9258 14.0619 15.825 13.9881 15.7802 13.8806L15.2867 12.6939Z"/>
</mask>
<path fill-rule="evenodd" clip-rule="evenodd" d="M6.66667 4.33464C6.17117 4.33464 5.75984 3.97425 5.68049 3.5013H5C4.17157 3.5013 3.5 4.17288 3.5 5.0013V6.5013H16.5V5.0013C16.5 4.17287 15.8284 3.5013 15 3.5013H14.3195C14.2402 3.97425 13.8288 4.33464 13.3333 4.33464C12.8378 4.33464 12.4265 3.97425 12.3472 3.5013H7.65284C7.57349 3.97425 7.16217 4.33464 6.66667 4.33464ZM3.5 15.8346V8.5013H16.5V10.8346C16.5 11.3869 16.9477 11.8346 17.5 11.8346C18.0523 11.8346 18.5 11.3869 18.5 10.8346V7.5013V5.0013C18.5 3.06831 16.933 1.5013 15 1.5013H14.3195C14.2402 1.02835 13.8288 0.667969 13.3333 0.667969C12.8378 0.667969 12.4265 1.02835 12.3472 1.5013H7.65284C7.57349 1.02835 7.16217 0.667969 6.66667 0.667969C6.17117 0.667969 5.75984 1.02835 5.68049 1.5013H5C3.067 1.5013 1.5 3.06831 1.5 5.0013V7.5013V15.8346C1.5 17.7676 3.067 19.3346 5 19.3346H10.4167C10.969 19.3346 11.4167 18.8869 11.4167 18.3346C11.4167 17.7824 10.969 17.3346 10.4167 17.3346H5C4.17157 17.3346 3.5 16.6631 3.5 15.8346ZM15.2867 12.6939C15.1799 12.4371 14.8161 12.4371 14.7094 12.6939L14.2158 13.8806C14.171 13.9882 14.0702 14.0619 13.9542 14.072L12.786 14.1736C12.5179 14.1969 12.4026 14.5254 12.5972 14.7112L13.4846 15.5579C13.5651 15.6347 13.5987 15.7485 13.5729 15.8567L13.2724 17.1165C13.2078 17.387 13.5021 17.6008 13.7394 17.4558L14.8351 16.7866C14.9351 16.7255 15.0609 16.7255 15.161 16.7866L16.2566 17.4558C16.4939 17.6008 16.7882 17.387 16.7237 17.1165L16.4232 15.8571C16.3974 15.7487 16.4312 15.6347 16.512 15.5579L17.4023 14.7116C17.5976 14.526 17.4823 14.1968 17.2139 14.1736L16.0419 14.072C15.9258 14.0619 15.825 13.9881 15.7802 13.8806L15.2867 12.6939Z" fill="black"/>
<path d="M5.68049 3.5013L7.15982 3.25312L6.9498 2.0013H5.68049V3.5013ZM3.5 6.5013H2V8.0013H3.5V6.5013ZM16.5 6.5013V8.0013H18V6.5013H16.5ZM14.3195 3.5013V2.0013H13.0502L12.8402 3.25312L14.3195 3.5013ZM12.3472 3.5013L13.8265 3.25312L13.6165 2.0013H12.3472V3.5013ZM7.65284 3.5013V2.0013H6.38353L6.17351 3.25312L7.65284 3.5013ZM3.5 8.5013V7.0013H2V8.5013H3.5ZM16.5 8.5013H18V7.0013H16.5V8.5013ZM14.3195 1.5013L12.8402 1.74949L13.0502 3.0013H14.3195V1.5013ZM12.3472 1.5013V3.0013H13.6165L13.8265 1.74949L12.3472 1.5013ZM7.65284 1.5013L6.17351 1.74949L6.38353 3.0013H7.65284V1.5013ZM5.68049 1.5013V3.0013H6.9498L7.15982 1.74949L5.68049 1.5013ZM14.7094 12.6939L13.3244 12.1178L13.3244 12.1178L14.7094 12.6939ZM15.2867 12.6939L13.9017 13.2699V13.2699L15.2867 12.6939ZM14.2158 13.8806L15.6007 14.4567L15.6007 14.4567L14.2158 13.8806ZM13.9542 14.072L13.8243 12.5776H13.8243L13.9542 14.072ZM12.786 14.1736L12.9159 15.6679H12.9159L12.786 14.1736ZM12.5972 14.7112L11.5617 15.7964L12.5972 14.7112ZM13.4846 15.5579L14.5201 14.4727L14.5201 14.4727L13.4846 15.5579ZM13.5729 15.8567L12.1138 15.5086L12.1138 15.5086L13.5729 15.8567ZM13.2724 17.1165L14.7314 17.4645L14.7314 17.4645L13.2724 17.1165ZM13.7394 17.4558L12.9575 16.1757L12.9575 16.1757L13.7394 17.4558ZM14.8351 16.7866L14.0532 15.5065L14.0532 15.5065L14.8351 16.7866ZM15.161 16.7866L14.3791 18.0667L14.3791 18.0667L15.161 16.7866ZM16.2566 17.4558L17.0385 16.1757L17.0385 16.1757L16.2566 17.4558ZM16.7237 17.1165L15.2646 17.4645L15.2646 17.4645L16.7237 17.1165ZM16.4232 15.8571L17.8823 15.509V15.509L16.4232 15.8571ZM16.512 15.5579L15.4785 14.4707L15.4785 14.4707L16.512 15.5579ZM17.4023 14.7116L18.4357 15.7989L18.4357 15.7989L17.4023 14.7116ZM17.2139 14.1736L17.3435 12.6792H17.3435L17.2139 14.1736ZM16.0419 14.072L16.1714 12.5776H16.1714L16.0419 14.072ZM15.7802 13.8806L14.3953 14.4566L14.3953 14.4566L15.7802 13.8806ZM4.20117 3.74949C4.39972 4.933 5.42643 5.83464 6.66667 5.83464V2.83464C6.91591 2.83464 7.11995 3.0155 7.15982 3.25312L4.20117 3.74949ZM5 5.0013H5.68049V2.0013H5V5.0013ZM5 5.0013V2.0013C3.34315 2.0013 2 3.34445 2 5.0013H5ZM5 6.5013V5.0013H2V6.5013H5ZM16.5 5.0013H3.5V8.0013H16.5V5.0013ZM15 5.0013V6.5013H18V5.0013H15ZM15 5.0013H18C18 3.34445 16.6569 2.0013 15 2.0013V5.0013ZM14.3195 5.0013H15V2.0013H14.3195V5.0013ZM13.3333 5.83464C14.5736 5.83464 15.6003 4.933 15.7988 3.74949L12.8402 3.25312C12.88 3.01551 13.0841 2.83464 13.3333 2.83464V5.83464ZM10.8678 3.74949C11.0664 4.933 12.0931 5.83464 13.3333 5.83464V2.83464C13.5826 2.83464 13.7866 3.0155 13.8265 3.25312L10.8678 3.74949ZM7.65284 5.0013H12.3472V2.0013H7.65284V5.0013ZM6.66667 5.83464C7.9069 5.83464 8.93361 4.93301 9.13217 3.74949L6.17351 3.25312C6.21338 3.0155 6.41743 2.83464 6.66667 2.83464V5.83464ZM2 8.5013V15.8346H5V8.5013H2ZM16.5 7.0013H3.5V10.0013H16.5V7.0013ZM18 10.8346V8.5013H15V10.8346H18ZM17.5 10.3346C17.7761 10.3346 18 10.5585 18 10.8346H15C15 12.2153 16.1193 13.3346 17.5 13.3346V10.3346ZM17 10.8346C17 10.5585 17.2239 10.3346 17.5 10.3346V13.3346C18.8807 13.3346 20 12.2153 20 10.8346H17ZM17 7.5013V10.8346H20V7.5013H17ZM17 5.0013V7.5013H20V5.0013H17ZM15 3.0013C16.1046 3.0013 17 3.89673 17 5.0013H20C20 2.23988 17.7614 0.00130212 15 0.00130212V3.0013ZM14.3195 3.0013H15V0.00130212H14.3195V3.0013ZM13.3333 2.16797C13.0841 2.16797 12.88 1.9871 12.8402 1.74949L15.7988 1.25312C15.6003 0.0696003 14.5736 -0.832031 13.3333 -0.832031V2.16797ZM13.8265 1.74949C13.7866 1.9871 13.5826 2.16797 13.3333 2.16797V-0.832031C12.0931 -0.832031 11.0664 0.0695994 10.8678 1.25312L13.8265 1.74949ZM7.65284 3.0013H12.3472V0.00130212H7.65284V3.0013ZM6.66667 2.16797C6.41743 2.16797 6.21338 1.9871 6.17351 1.74949L9.13217 1.25312C8.93361 0.069599 7.9069 -0.832031 6.66667 -0.832031V2.16797ZM7.15982 1.74949C7.11995 1.9871 6.91591 2.16797 6.66667 2.16797V-0.832031C5.42643 -0.832031 4.39972 0.0695994 4.20117 1.25312L7.15982 1.74949ZM5 3.0013H5.68049V0.00130212H5V3.0013ZM3 5.0013C3 3.89673 3.89543 3.0013 5 3.0013V0.00130212C2.23858 0.00130212 0 2.23988 0 5.0013H3ZM3 7.5013V5.0013H0V7.5013H3ZM3 15.8346V7.5013H0V15.8346H3ZM5 17.8346C3.89543 17.8346 3 16.9392 3 15.8346H0C0 18.5961 2.23858 20.8346 5 20.8346V17.8346ZM10.4167 17.8346H5V20.8346H10.4167V17.8346ZM9.91667 18.3346C9.91667 18.0585 10.1405 17.8346 10.4167 17.8346V20.8346C11.7974 20.8346 12.9167 19.7153 12.9167 18.3346H9.91667ZM10.4167 18.8346C10.1405 18.8346 9.91667 18.6108 9.91667 18.3346H12.9167C12.9167 16.9539 11.7974 15.8346 10.4167 15.8346V18.8346ZM5 18.8346H10.4167V15.8346H5V18.8346ZM2 15.8346C2 17.4915 3.34315 18.8346 5 18.8346V15.8346H5H2ZM16.0943 13.2699C15.6887 14.2451 14.3073 14.2451 13.9017 13.2699L16.6716 12.1178C16.0525 10.6291 13.9436 10.6291 13.3244 12.1178L16.0943 13.2699ZM15.6007 14.4567L16.0943 13.2699L13.3244 12.1178L12.8308 13.3046L15.6007 14.4567ZM14.0841 15.5664C14.7569 15.5079 15.3414 15.0802 15.6007 14.4567L12.8308 13.3046C13.0007 12.8961 13.3835 12.616 13.8243 12.5776L14.0841 15.5664ZM12.9159 15.6679L14.0841 15.5664L13.8243 12.5776L12.6561 12.6792L12.9159 15.6679ZM13.6328 13.626C14.3721 14.3315 13.9341 15.5794 12.9159 15.6679L12.6561 12.6792C11.1018 12.8143 10.433 14.7194 11.5617 15.7964L13.6328 13.626ZM14.5201 14.4727L13.6328 13.626L11.5617 15.7964L12.4491 16.6432L14.5201 14.4727ZM15.0319 16.2047C15.1816 15.5774 14.9867 14.9179 14.5201 14.4727L12.4491 16.6431C12.1435 16.3515 12.0158 15.9195 12.1138 15.5086L15.0319 16.2047ZM14.7314 17.4645L15.0319 16.2047L12.1138 15.5086L11.8133 16.7685L14.7314 17.4645ZM12.9575 16.1757C13.8589 15.6252 14.9765 16.4372 14.7314 17.4645L11.8133 16.7685C11.4392 18.3368 13.1453 19.5764 14.5213 18.7359L12.9575 16.1757ZM14.0532 15.5065L12.9575 16.1757L14.5213 18.7359L15.6169 18.0667L14.0532 15.5065ZM15.9429 15.5065C15.3628 15.1522 14.6332 15.1522 14.0532 15.5065L15.6169 18.0667C15.237 18.2988 14.7591 18.2988 14.3791 18.0667L15.9429 15.5065ZM17.0385 16.1757L15.9428 15.5065L14.3791 18.0667L15.4747 18.7359L17.0385 16.1757ZM15.2646 17.4645C15.0195 16.4372 16.1371 15.6252 17.0385 16.1757L15.4747 18.7359C16.8507 19.5764 18.5568 18.3368 18.1827 16.7685L15.2646 17.4645ZM14.9642 16.2051L15.2646 17.4645L18.1827 16.7685L17.8823 15.509L14.9642 16.2051ZM15.4785 14.4707C15.0102 14.9158 14.8143 15.5766 14.9642 16.2051L17.8823 15.509C17.9805 15.9207 17.8521 16.3536 17.5454 16.6451L15.4785 14.4707ZM16.3689 13.6244L15.4785 14.4707L17.5454 16.6451L18.4357 15.7989L16.3689 13.6244ZM17.0844 15.668C16.065 15.5796 15.6273 14.3293 16.3689 13.6244L18.4357 15.7989C19.5679 14.7227 18.8997 12.8141 17.3435 12.6792L17.0844 15.668ZM15.9123 15.5664L17.0844 15.668L17.3435 12.6792L16.1714 12.5776L15.9123 15.5664ZM14.3953 14.4566C14.6547 15.0803 15.2394 15.508 15.9123 15.5664L16.1714 12.5776C16.6123 12.6158 16.9953 12.896 17.1652 13.3045L14.3953 14.4566ZM13.9017 13.2699L14.3953 14.4566L17.1652 13.3045L16.6716 12.1178L13.9017 13.2699Z" fill="#FFCA00" mask="url(#path-1-inside-1_7995_13757)"/>
</svg>
