<svg width="20" height="20" viewBox="0 0 20 20" fill="none" xmlns="http://www.w3.org/2000/svg">
  <circle cx="10" cy="10.834" r="2.5" stroke="#4B5565" stroke-width="1.5"/>
  <path d="M8.148 17.5h3.704c2.601 0 3.902 0 4.836-.613a3.7 3.7 0 0 0 1.021-1.003c.625-.917.625-2.194.625-4.748 0-2.553 0-3.83-.625-4.747a3.7 3.7 0 0 0-1.021-1.003c-.6-.394-1.352-.535-2.503-.585a1.17 1.17 0 0 1-1.13-.937A1.72 1.72 0 0 0 11.363 2.5H8.639a1.72 1.72 0 0 0-1.694 1.364c-.108.528-.58.937-1.13.937-1.15.05-1.902.19-2.502.585a3.7 3.7 0 0 0-1.022 1.003c-.624.917-.624 2.194-.624 4.747s0 3.83.624 4.748c.27.397.618.738 1.022 1.003.934.613 2.235.613 4.835.613Z" stroke="#4B5565" stroke-width="1.5"/>
  <path d="M15.833 8.334H15" stroke="#4B5565" stroke-width="1.5" stroke-linecap="round"/>
</svg>
