<svg width="40" height="40" viewBox="0 0 40 40" fill="none" xmlns="http://www.w3.org/2000/svg">
  <g clip-path="url(#clip0_4665_10595)">
    <rect width="40" height="40" rx="20" fill="#F0F4F8"/>
    <rect x="8" y="10" width="24" height="32" rx="2" fill="#CDD5DF"/>
    <circle cx="20" cy="21" r="8" fill="#F3F4F6"/>
    <rect x="12" y="31" width="16" height="3" rx=".5" fill="#EBECEF"/>
    <rect x="14" y="35" width="12" height="2" rx=".5" fill="#EBECEF"/>
    <path d="M16.166 21.23a1.06 1.06 0 0 1 1.052-1.063l6.293-.03a1.06 1.06 0 0 1 1.063 1.053l.008 1.88-8.408.04z" fill="#4B5565" stroke="#4B5565" stroke-width=".302"/>
    <path d="m17.122 20.015.737-1.484a.91.91 0 0 1 .807-.503l3.067-.015a.9.9 0 0 1 .784.445l.906 1.528" stroke="#4B5565" stroke-width=".906" stroke-linecap="round"/>
    <rect x="23.028" y="22.121" width=".995" height="2.218" rx=".498" transform="rotate(-.27 23.028 22.121)" fill="#4B5565" stroke="#4B5565" stroke-width=".302"/>
    <rect x="16.726" y="22.15" width=".995" height="2.218" rx=".498" transform="rotate(-.27 16.726 22.15)" fill="#4B5565" stroke="#4B5565" stroke-width=".302"/>
    <ellipse cx="22.873" cy="21.248" rx=".556" ry=".54" transform="rotate(-.27 22.873 21.248)" fill="#fff" fill-opacity=".7"/>
    <ellipse cx="17.869" cy="21.272" rx=".556" ry=".54" transform="rotate(-.27 17.87 21.272)" fill="#fff" fill-opacity=".7"/>
  </g>
  <defs>
    <clipPath id="clip0_4665_10595">
      <rect width="40" height="40" rx="20" fill="#fff"/>
    </clipPath>
  </defs>
</svg>
