<svg width="15" height="15" viewBox="0 0 15 15" fill="none" xmlns="http://www.w3.org/2000/svg">
  <path d="M13.642 3.698a1.39 1.39 0 0 0-1.08-.53H3.785l-.273-1.06a1.38 1.38 0 0 0-.49-.752 1.4 1.4 0 0 0-.85-.294H.702a.45.45 0 0 0-.447.445.443.443 0 0 0 .447.444h1.47a.48.48 0 0 1 .46.358l1.76 6.962a1.39 1.39 0 0 0 1.338 1.046h5.75c.309 0 .61-.102.853-.292s.414-.455.486-.754L13.9 4.859a1.3 1.3 0 0 0-.259-1.161Zm-.619.96-1.08 4.412a.47.47 0 0 1-.462.358H5.73a.48.48 0 0 1-.46-.358L4.018 4.071h8.544a.48.48 0 0 1 .467.377.45.45 0 0 1-.006.21Zm-6.99 6.231a1.5 1.5 0 0 0-1.384.92 1.48 1.48 0 0 0 .325 1.623 1.5 1.5 0 0 0 1.632.322 1.5 1.5 0 0 0 .925-1.376 1.5 1.5 0 0 0-.44-1.05 1.5 1.5 0 0 0-1.058-.44Zm0 2.076a.59.59 0 0 1-.546-.362.584.584 0 0 1 .43-.8.59.59 0 0 1 .607.25c.065.096.1.21.1.325a.6.6 0 0 1-.591.587Zm4.959-2.076a1.5 1.5 0 0 0-1.385.92 1.48 1.48 0 0 0 .325 1.623 1.5 1.5 0 0 0 1.633.322 1.5 1.5 0 0 0 .925-1.376 1.5 1.5 0 0 0-.441-1.05 1.5 1.5 0 0 0-1.057-.44Zm0 2.076a.59.59 0 0 1-.546-.362.584.584 0 0 1 .43-.8.59.59 0 0 1 .607.25c.064.096.099.21.099.325a.597.597 0 0 1-.59.587Z" fill="#081F70" stroke="#071E6F" stroke-width=".305"/>
</svg>
