<svg width="99" height="102" viewBox="0 0 99 102" fill="none" xmlns="http://www.w3.org/2000/svg">
  <g clip-path="url(#clip0_3091_9282)">
    <g mask="url(#mask0_3091_9282)">
      <circle cx="52.352" cy="59.825" r="41.176" fill="#11309A"/>
      <path opacity=".1" d="M59.118 116.438 35.414 48.783c11.616-4.031 25.012-1.916 35.022 6.726 14.965 12.92 16.692 35.539 3.859 50.519a35.4 35.4 0 0 1-15.177 10.41Z" fill="url(#paint0_linear_3091_9282)" stroke="url(#paint1_linear_3091_9282)" stroke-width=".588"/>
      <path opacity=".1" fill-rule="evenodd" clip-rule="evenodd" d="M68.173 143.171c-11.775 4.196-25.416 2.1-35.588-6.682-15.088-13.027-16.83-35.831-3.89-50.935a35.7 35.7 0 0 1 15.58-10.592z" fill="url(#paint2_linear_3091_9282)"/>
      <path d="M66.233 55.051s1.502-18.752-8.143-20.34-10.843 25.745-2.59 26.144 10.733-5.804 10.733-5.804" fill="#FCD4D0"/>
      <path opacity=".1" d="M55.5 60.855c8.262.424 10.724-5.804 10.724-5.804s1.503-18.752-8.143-20.34" fill="#111827"/>
      <path d="M53.385 12.766H28.786a4.706 4.706 0 0 0-4.706 4.705v51.032a4.706 4.706 0 0 0 4.706 4.706h24.599a4.706 4.706 0 0 0 4.706-4.706V17.472a4.706 4.706 0 0 0-4.706-4.706" fill="#BFDBFE"/>
      <path d="M55.33 19.352H26.849V62.06H55.33z" fill="#EFF6FF"/>
      <path d="M33.628 17.437a1.036 1.036 0 1 0 0-2.072 1.036 1.036 0 0 0 0 2.072" fill="#194BFB"/>
      <path opacity=".3" d="M47.196 16.045H37.13a.44.44 0 0 0-.442.441v.06c0 .244.198.441.442.441h10.066a.44.44 0 0 0 .442-.441v-.06a.44.44 0 0 0-.442-.441" fill="#194BFB"/>
      <path opacity=".1" d="M55.674 42.582s-4.322.985-2.87 5.213c1.452 4.229-.148 10.037-.92 11.272-3.435 5.46-1.873 14.142-1.873 14.142h8.066s2.187-27.642-2.403-30.627" fill="#111827"/>
      <path d="M41.17 48.961a9.315 9.315 0 1 0 0-18.629 9.315 9.315 0 0 0 0 18.63" fill="#3784FB"/>
      <path d="M40.28 71.142a3.307 3.307 0 1 0 0-6.615 3.307 3.307 0 0 0 0 6.615" fill="#E3EFFF"/>
      <path d="M64.037 50.887s-2.61-9.46-5.519-10.347c-2.386-.73-4.742 3.528-2.042 9.65a9.43 9.43 0 0 1-.05 7.842c-.965 2.055-1.614 4.776-.587 7.667 2.161 6.084 8.067 5.409 10.465.127 2.4-5.28 1.974-7.786-2.267-14.94" fill="#FCD4D0"/>
      <path d="m54.507 66.335 2.577 35.683 21.15-4.059L67.6 62.365z" fill="#5F9DFC"/>
      <path opacity=".1" d="m65.341 100.435-4.585-35.997-6.25 1.897 2.578 35.684z" fill="#111827"/>
    </g>
    <path d="M34.7 42v-4.9h.804V42zm.552 0v-.735h2.744V42zm0-2.149v-.707h2.506v.707zm0-2.016V37.1h2.71v.735zm5.693 4.235q-.505 0-.952-.196-.448-.195-.784-.539a2.7 2.7 0 0 1-.532-.805 2.6 2.6 0 0 1-.19-.987q0-.525.19-.98.195-.455.532-.798a2.4 2.4 0 0 1 .798-.539q.462-.196.994-.196.58 0 1.078.224.497.225.833.637l-.546.546a1.4 1.4 0 0 0-.581-.469A1.85 1.85 0 0 0 41 37.8q-.504 0-.89.224a1.5 1.5 0 0 0-.587.609q-.21.392-.21.91t.21.917q.217.392.58.616.365.224.827.224.489 0 .84-.175.357-.182.546-.532.189-.357.189-.875l.504.364h-2.093v-.735h2.422v.112q0 .875-.315 1.456a2.03 2.03 0 0 1-.847.868q-.54.287-1.232.287m3.748-1.918v-.7h1.225a.95.95 0 0 0 .44-.098.8.8 0 0 0 .309-.287.85.85 0 0 0 .112-.441.8.8 0 0 0-.112-.434.73.73 0 0 0-.308-.287.9.9 0 0 0-.441-.105h-1.225v-.7h1.267q.462 0 .826.189.37.189.58.532.219.343.218.805 0 .462-.217.805-.21.343-.581.532a1.8 1.8 0 0 1-.826.189zM44.14 42v-4.9h.805V42z" fill="#fff"/>
  </g>
  <defs>
    <linearGradient id="paint0_linear_3091_9282" x1="35.126" y1="48.615" x2="59.251" y2="116.652" gradientUnits="userSpaceOnUse">
      <stop stop-color="#fff" stop-opacity=".9"/>
      <stop offset="1" stop-color="#fff" stop-opacity=".1"/>
    </linearGradient>
    <linearGradient id="paint1_linear_3091_9282" x1="35.126" y1="48.615" x2="59.251" y2="116.652" gradientUnits="userSpaceOnUse">
      <stop stop-color="#fff" stop-opacity=".9"/>
      <stop offset="1" stop-color="#fff" stop-opacity=".5"/>
    </linearGradient>
    <linearGradient id="paint2_linear_3091_9282" x1="43.023" y1="75.269" x2="67.148" y2="143.306" gradientUnits="userSpaceOnUse">
      <stop stop-color="#fff" stop-opacity=".1"/>
      <stop offset="1" stop-color="#fff" stop-opacity=".9"/>
    </linearGradient>
    <clipPath id="clip0_3091_9282">
      <path fill="#fff" d="M0 0h99v102H0z"/>
    </clipPath>
  </defs>
</svg>
