<svg width="66" height="66" viewBox="0 0 66 66" fill="none" xmlns="http://www.w3.org/2000/svg">
  <g clip-path="url(#clip0_3647_10715)">
    <path d="M52.206 65.32H13.794c-7.3 0-13.22-5.92-13.22-13.226V13.906C.574 6.6 6.494.68 13.794.68h38.412c7.306 0 13.226 5.92 13.226 13.226v38.188C65.426 59.4 59.506 65.32 52.206 65.32" fill="#957BFF"/>
    <path d="M36.023 22.148a9 9 0 0 1 1.834-.495 9.44 9.44 0 0 1 4.62.41 8.6 8.6 0 0 1 2.627 1.451c.819.66 1.465 1.426 1.927 2.297.476.885.74 1.822.792 2.799.086 1.643-.396 3.161-1.419 4.554-.079.105-.06.184.02.277.25.29.495.594.746.89.033.04.092.08.06.126-.04.066-.113.027-.172.013-1.274-.184-2.548-.376-3.822-.56-.191-.027-.25-.1-.25-.258.006-1.34 0-2.686.006-4.026 0-.06-.033-.145.033-.172.1-.033.126.066.165.12.264.31.528.626.779.943.105.132.158.132.257-.013 1.314-1.914 1.09-4.422-.547-6.151q-1.803-1.911-4.654-2.277a8.7 8.7 0 0 0-2.771.092c-.053 0-.113.033-.231-.02m-14.89 31.345a9.4 9.4 0 0 1-6.336-1.201 8.6 8.6 0 0 1-2.29-1.947 7.5 7.5 0 0 1-1.432-2.633 6.56 6.56 0 0 1-.218-2.898c.244-1.623 1.016-3.016 2.297-4.184.099-.093.092-.165.033-.277-.192-.337-.37-.68-.555-1.017-.026-.046-.072-.092-.033-.138.053-.06.119 0 .172.02 1.214.435 2.422.877 3.636 1.313.179.066.225.145.192.303-.27 1.314-.535 2.634-.805 3.947-.014.06.006.152-.073.159-.099.013-.106-.093-.139-.152-.198-.357-.389-.72-.58-1.076-.08-.152-.132-.158-.258-.04-1.67 1.61-1.947 4.119-.686 6.138.924 1.485 2.297 2.541 4.105 3.155a8.6 8.6 0 0 0 2.739.462c.066.013.132-.013.231.066" fill="#fff"/>
    <path d="M6.608 10.184c1.2-.99 3.055-.72 4.144.607 1.09 1.327 1.004 3.201-.198 4.185-1.2.99-3.055.719-4.144-.608-1.09-1.326-1.004-3.194.198-4.184" fill="url(#paint0_linear_3647_10715)"/>
    <path d="M6.231 10.5c1.07-.885 2.825-.529 3.914.798s1.109 3.109.04 3.993c-1.07.884-2.825.528-3.914-.799-1.09-1.326-1.11-3.115-.04-3.993" fill="url(#paint1_linear_3647_10715)"/>
    <g opacity=".38">
      <path d="m5.696 13.541 4.547 1.696c.45-.402.694-.976.726-1.603l-5.438-2.027c-.165.594-.105 1.28.165 1.934" fill="url(#paint2_linear_3647_10715)"/>
      <path d="M6.277 10.453c-.02.013-.033.027-.053.04-.172.138-.31.303-.43.482l5.11 1.907a3.5 3.5 0 0 0-.265-.799z" fill="url(#paint3_linear_3647_10715)"/>
    </g>
    <path d="M6.271 14.493c1.09 1.326 2.845 1.682 3.914.798 1.07-.884 1.056-2.673-.04-3.993-1.089-1.327-2.844-1.683-3.913-.799-1.07.878-1.056 2.667.04 3.993m3.855-3.182c1.082 1.307 1.095 3.082.04 3.954-1.057.87-2.793.521-3.875-.792s-1.096-3.083-.04-3.954c1.056-.87 2.792-.514 3.875.792" fill="url(#paint4_linear_3647_10715)"/>
    <path d="M6.27 14.493c1.09 1.326 2.839 1.683 3.908.805s1.043-2.667-.046-3.987c-1.09-1.326-2.838-1.683-3.908-.805s-1.049 2.66.047 3.987m3.835-3.168c1.083 1.306 1.102 3.075.046 3.946-1.056.872-2.785.515-3.867-.798-1.083-1.307-1.102-3.076-.046-3.947s2.791-.508 3.867.799" fill="url(#paint5_linear_3647_10715)"/>
    <path d="M6.666 11.054c.825-.68 2.178-.402 3.023.614s.858 2.402.033 3.089-2.178.402-3.023-.614-.865-2.409-.033-3.089" fill="url(#paint6_linear_3647_10715)"/>
    <path d="M6.653 11.035c.832-.686 2.205-.41 3.056.62.852 1.03.865 2.43.033 3.116-.831.686-2.204.409-3.056-.62-.851-1.03-.87-2.43-.033-3.116" fill="url(#paint7_linear_3647_10715)"/>
    <path d="M9.735 14.75c.826-.682.812-2.065-.032-3.088s-2.199-1.3-3.025-.62c-.827.683-.813 2.065.031 3.089.844 1.023 2.199 1.3 3.026.619" fill="#975824"/>
    <path d="M6.97 10.924c.68-.561 1.888-.218 2.7.765.811.984.917 2.238.237 2.799s-1.887.218-2.7-.766c-.811-.983-.923-2.237-.237-2.798" fill="url(#paint8_linear_3647_10715)"/>
    <path d="M7.287 13.655c-.792-.963-.91-2.184-.277-2.758-.013.013-.027.02-.046.033-.68.56-.575 1.815.237 2.798s2.02 1.327 2.7.765a.2.2 0 0 1 .04-.033c-.687.502-1.862.152-2.654-.805" fill="url(#paint9_linear_3647_10715)"/>
    <path d="M49.897 55.87c1.2-.99 3.056-.72 4.145.607s1.003 3.2-.199 4.184c-1.2.99-3.055.72-4.144-.607-1.09-1.327-1.003-3.194.198-4.184" fill="url(#paint10_linear_3647_10715)"/>
    <path d="M49.52 56.18c1.07-.885 2.825-.529 3.914.798s1.109 3.108.04 3.993c-1.07.884-2.825.528-3.914-.799-1.096-1.32-1.116-3.108-.04-3.993" fill="url(#paint11_linear_3647_10715)"/>
    <g opacity=".38">
      <path d="m48.98 59.223 4.547 1.696c.448-.402.693-.977.726-1.604l-5.439-2.026c-.158.594-.105 1.28.165 1.934" fill="url(#paint12_linear_3647_10715)"/>
      <path d="M49.567 56.14c-.02.014-.033.027-.053.04a2.1 2.1 0 0 0-.429.482l5.108 1.907a3.5 3.5 0 0 0-.264-.798z" fill="url(#paint13_linear_3647_10715)"/>
    </g>
    <path d="M49.553 60.172c1.089 1.327 2.845 1.683 3.914.799 1.069-.885 1.056-2.673-.04-3.993-1.089-1.327-2.844-1.683-3.914-.799-1.069.885-1.05 2.673.04 3.993m3.86-3.181c1.083 1.307 1.097 3.082.04 3.953-1.056.872-2.791.522-3.874-.792-1.082-1.313-1.095-3.082-.04-3.953 1.057-.871 2.792-.515 3.875.792" fill="url(#paint14_linear_3647_10715)"/>
    <path d="M49.554 60.172c1.089 1.327 2.838 1.683 3.907.806 1.07-.878 1.043-2.667-.046-3.987-1.09-1.327-2.838-1.683-3.907-.805-1.063.878-1.043 2.666.046 3.986m3.841-3.168c1.082 1.307 1.102 3.076.046 3.947s-2.785.515-3.867-.798c-1.083-1.314-1.103-3.076-.047-3.947 1.056-.865 2.792-.509 3.868.798" fill="url(#paint15_linear_3647_10715)"/>
    <path d="M49.957 56.734c.825-.68 2.178-.403 3.022.614.845 1.023.858 2.402.033 3.089-.825.68-2.178.402-3.023-.614-.85-1.023-.864-2.403-.032-3.09" fill="url(#paint16_linear_3647_10715)"/>
    <path d="M49.936 56.72c.832-.686 2.204-.409 3.056.621s.864 2.429.033 3.115c-.832.687-2.205.41-3.056-.62-.851-1.036-.865-2.429-.033-3.115" fill="url(#paint17_linear_3647_10715)"/>
    <path d="M53.02 60.43c.827-.682.813-2.065-.03-3.088-.845-1.024-2.2-1.301-3.026-.62-.827.682-.813 2.065.031 3.088s2.199 1.301 3.026.62" fill="#975824"/>
    <path d="M50.253 56.61c.68-.562 1.887-.218 2.699.765s.917 2.237.238 2.798c-.68.561-1.888.218-2.7-.765-.812-.984-.917-2.238-.237-2.799" fill="url(#paint18_linear_3647_10715)"/>
    <path d="M50.576 59.335c-.792-.964-.91-2.185-.277-2.759-.013.013-.027.02-.046.033-.68.561-.575 1.815.237 2.799.812.983 2.02 1.326 2.7.765q.02-.021.04-.033c-.687.502-1.862.159-2.654-.805" fill="url(#paint19_linear_3647_10715)"/>
    <path d="M55.585 44.14c-.205 0-.502 1.288-.693 1.532-.139.171-1.135.765-1.135 1.01 0 .217.99.686 1.102.825s.634 1.346.825 1.346.574-1.214.7-1.373c.151-.191 1.141-.72 1.141-.924 0-.211-.99-.7-1.168-.924-.224-.284-.548-1.491-.772-1.491" fill="#F37721"/>
    <path d="M55.922 5.135c-.158 0-.383.983-.528 1.168-.106.132-.865.587-.865.772 0 .165.76.522.845.627.086.106.482 1.03.634 1.03.145 0 .442-.924.534-1.043.12-.145.871-.548.871-.706 0-.159-.752-.535-.89-.706-.179-.225-.43-1.142-.601-1.142M22.09 4.969c-.204 0-.494 1.274-.686 1.511-.138.172-1.122.76-1.122.997 0 .218.984.68 1.09.812.111.138.626 1.333.818 1.333s.567-1.195.693-1.353c.151-.185 1.128-.713 1.128-.918 0-.204-.977-.686-1.155-.91-.224-.284-.548-1.472-.765-1.472" fill="#FFC847"/>
    <path d="M40.333 14.553c-.093 0-.218.567-.304.666-.06.08-.495.337-.495.443 0 .098.436.303.482.362.046.06.277.588.363.588s.25-.528.31-.6c.066-.087.502-.318.502-.41s-.436-.303-.515-.402c-.106-.12-.244-.647-.343-.647" fill="#F37721"/>
    <path d="M12.039 58.31c-.093 0-.218.568-.304.667-.06.08-.495.337-.495.442 0 .1.436.304.482.363.046.06.277.588.363.588s.25-.528.31-.6c.066-.087.502-.318.502-.41 0-.093-.436-.304-.515-.403-.099-.125-.244-.647-.343-.647" fill="#FFC847"/>
    <path d="m47.329 37.389-1.571-1.578-2.06 4.963-1.98 3.327-1.616-1.888.627-6.343.567-1.069-1.577-1.57-3.095 2.488-1.571-1.578-2.766 3.59-1.57-1.57-2.165.838-1.663.673-1.169 2.422-1.306 2.35 1.577 1.57 2.422-1.986 3.736-.356.224 2.785-4.501 1.531-4.627.403.132-1.98 1.241-2.805-1.458-1.366-1.307 2.33-1.42 4.224-.349 1.24 1.815 1.888L33 46.952l3.597-1.73 1.485 1.525 2.58-.468.99 1.168-.514 1.201 1.57 1.577 2.542-2.461-1.789-1.835 3.432-5.247zM26.162 15.893l-1.822-1.848-2.323 2.726 1.57 1.57.337 1.354-1.729-1.928-2.323 2.72 1.498 1.59 2.878-2.086 1.254 1.274 2.66-2.343-1.69-1.65-1.327-.554z" fill="#692F0B"/>
    <path d="m35.561 17.294-1.57-1.571-3.162 6.844-1.65-2.132-3.03 2.594-1.57-1.578-2.858 2.614-1.571-1.57-1.577 6.309-2.192 4.25-1.617-.204.707-4.31-1.571-1.578-1.861 2.977-.78 3.808 1.974 2.277 4.89-.39 2.608-3.088 2.481-1.973 3.927-1.38 3.571-1.557 1.914 1.828 3.208-2.158-2.1-2.132.72-6.052zM24.69 18.605c.443-.086.819-.317 1.142-.7a1.95 1.95 0 0 0 .508-1.228q.022-.662-.422-1.056-.445-.374-1.109-.244c-.435.086-.812.31-1.135.687-.323.382-.488.791-.508 1.234q-.022.673.422 1.05c.297.257.66.342 1.102.257" fill="#692F0B"/>
    <path d="m21.688 32.365 5.67-1.11a3.9 3.9 0 0 0 1.563-.679q.695-.495 1.142-1.247.101-.17.211-.43c.053-.138.106-.296.152-.461q.051-.25.093-.548.028-.219.046-.687l.191-5.207-3.234.634-.138 3.69c-.02.606-.08 1.015-.165 1.22q-.15.495-1.03.693l-.231.046.191-5.26-3.207.627-.192 5.26-1.214.238.185-5.089-3.208.627-.303 8.356c-.251.35-.634.58-1.155.68-.542.105-.964.026-1.268-.245q-.476-.397-.448-1.2l.138-3.75-2.943.575-.146 3.993c-.026.712.06 1.333.264 1.874q.29.811.944 1.386c.423.37.918.62 1.479.74q.821.178 1.86-.027a5.8 5.8 0 0 0 2.436-1.083c.713-.54 1.307-1.273 1.802-2.184.198-.37.356-.772.469-1.214zm.858-10.05c.442-.085.818-.317 1.142-.693q.474-.562.495-1.234c.013-.442-.12-.792-.416-1.05-.304-.257-.674-.336-1.11-.25q-.66.129-1.134.693c-.324.376-.489.785-.508 1.228-.02.455.125.805.422 1.055.303.251.666.337 1.109.251m3.035-3.334q-.485.565-.515 1.228-.028.681.43 1.056c.29.257.66.343 1.101.257q.656-.128 1.142-.693.474-.562.502-1.234.02-.663-.416-1.05c-.304-.257-.673-.336-1.109-.25q-.661.121-1.135.686m31.469-.396q-.575-1.089-1.557-1.524c-.58-.258-1.247-.33-2-.225-.026 0-.125.02-.283.047l-3.446.673 2.238-3.333-3.61.706-2.277 3.34-.126 3.346 6.488-1.267.284-.04c.963-.086 1.419.693 1.36 2.323l-.007.139-9.458 1.854-1.26.245-2.014.396-1.419.277-2.013.396-1.26.244-.462.092q-.942.181-1.063-.284c-.072-.171-.099-.567-.072-1.174l.178-4.831.204-.04.1-2.647-3.44.674-.33 9.002q-.018.465 0 .673.021.296.06.522c.027.151.06.29.112.409q.09.22.179.35.398.593 1.062.811.675.24 1.538.073l1.366-.264 2.013-.396 1.413-.277 2.013-.396 1.419-.277 2.013-.397 12.23-2.395.197-5.452c-.066-.567-.191-1.03-.37-1.373M29.799 39.42q.623-.118.917.16l1.578-1.849a2.2 2.2 0 0 0-.78-.587q-.691-.309-1.623-.132a3.84 3.84 0 0 0-1.67.772c-.501.41-.904.93-1.214 1.55q-.216.427-.343 1.11-.088.437-.145 1.142l-.43.085-.085 2.343 5.643-1.102.086-2.343-3.228.634.007-.1c.013-.963.449-1.524 1.287-1.682" fill="#692F0B"/>
    <path d="M32.967 43.863c-.02.614-.08 1.017-.165 1.221q-.16.517-1.102.707l-5.967 1.168q-.942.18-1.062-.284c-.073-.172-.1-.568-.073-1.175l.139-3.69-3.24.634-.192 5.208q-.02.465 0 .673.018.297.066.515c.026.152.06.29.112.409q.09.22.178.35.397.594 1.063.812.675.238 1.538.072l8.685-1.703a3.9 3.9 0 0 0 1.564-.68 4.04 4.04 0 0 0 1.353-1.676c.053-.138.106-.297.152-.462.033-.165.066-.343.086-.548a5 5 0 0 0 .053-.686l.23-6.356.153-.026.099-2.647-3.386.66zm10.957 3.387q-.652.128-1.136.692c-.323.376-.488.785-.508 1.234q-.021.676.423 1.043.437.386 1.102.258c.442-.086.818-.317 1.142-.694s.488-.785.508-1.227c.02-.449-.126-.799-.423-1.056-.297-.25-.666-.337-1.108-.25m.032-5.538c-.02.614-.08 1.017-.165 1.221-.099.343-.468.581-1.095.706l-.278.053-.462.093c-.627.118-.983.026-1.062-.284-.073-.172-.1-.568-.073-1.175L41 37.495l.205-.04.099-2.646-3.439.673-.33 9.002q-.02.465 0 .673.02.297.06.515c.026.152.06.29.112.41q.09.218.178.35c.264.395.614.666 1.063.811.448.158.963.185 1.537.073l1.208-.238 2.25-.442a3.9 3.9 0 0 0 1.565-.68c.462-.33.845-.746 1.135-1.247a3 3 0 0 0 .211-.43 3 3 0 0 0 .152-.461 8 8 0 0 0 .093-.548q.028-.219.046-.687l.191-5.207-3.24.634zm8.038-27.482-1.57-1.578-6.02 7.399 1.578 1.57z" fill="#692F0B"/>
    <path d="M22.803 16.895a1 1 0 0 1-.674-.25c-.264-.219-.382-.522-.37-.918.014-.403.172-.786.47-1.135.296-.337.646-.548 1.036-.627q.15-.032.29-.033c.264 0 .482.079.68.237.257.225.376.528.363.924-.013.416-.165.786-.469 1.129-.303.356-.64.567-1.05.647q-.138.028-.276.026" fill="#F37721"/>
    <path d="M23.555 14.098a.85.85 0 0 1 .567.198c.218.191.324.455.31.792-.013.376-.151.712-.429 1.03-.277.323-.587.514-.95.587-.086.02-.172.026-.25.026a.8.8 0 0 1-.575-.218c-.218-.185-.317-.435-.304-.779.014-.37.152-.712.43-1.036.277-.317.587-.508.95-.574q.13-.028.25-.026m0-.33q-.157.001-.324.033c-.435.085-.812.31-1.135.686-.323.383-.488.792-.508 1.234q-.021.674.422 1.05.329.297.786.297c.099 0 .204-.014.316-.033.443-.086.819-.317 1.142-.7a1.95 1.95 0 0 0 .508-1.228q.022-.661-.422-1.056a1.15 1.15 0 0 0-.785-.283" fill="#E94F24"/>
    <path d="M14.314 35.45q-.417 0-.785-.08a3.1 3.1 0 0 1-1.4-.706 3 3 0 0 1-.897-1.314c-.198-.514-.284-1.122-.258-1.815l.139-3.86 2.614-.509-.132 3.538c-.02.587.151 1.036.508 1.333q.377.329.944.33.216.002.462-.046c.56-.112.983-.363 1.26-.746l.027-.04.303-8.27 2.871-.56-.185 5.082 1.545-.304.191-5.26 2.878-.561-.192 5.26.436-.086c.647-.145 1.036-.416 1.155-.805.092-.211.145-.627.172-1.267l.132-3.558 2.904-.567-.185 4.996a8 8 0 0 1-.046.666q-.042.298-.093.535c-.04.152-.092.304-.145.436a3 3 0 0 1-.198.402 3.8 3.8 0 0 1-1.096 1.195q-.674.485-1.498.653l-5.775 1.129-.079.337a5.4 5.4 0 0 1-.455 1.174c-.476.891-1.07 1.61-1.756 2.132a5.6 5.6 0 0 1-2.37 1.05 5 5 0 0 1-.996.105" fill="#F37721"/>
    <path d="m28.834 20.836-.178 4.792a7 7 0 0 1-.046.653 7 7 0 0 1-.086.508c-.04.152-.086.29-.139.423a3 3 0 0 1-.191.39c-.27.461-.627.844-1.05 1.148-.429.31-.91.521-1.432.62l-5.67 1.109-.21.04-.047.21-.052.218a5 5 0 0 1-.443 1.142c-.468.871-1.043 1.571-1.71 2.08a5.54 5.54 0 0 1-3.273 1.121q-.397 0-.745-.079a3 3 0 0 1-1.334-.667 2.9 2.9 0 0 1-.851-1.254c-.185-.495-.27-1.075-.244-1.742l.138-3.729 2.277-.449-.125 3.333c-.027.64.165 1.135.56 1.465.285.245.641.37 1.057.37.152 0 .323-.02.495-.053.6-.119 1.063-.39 1.36-.812l.059-.079.006-.099.297-8.091 2.541-.495-.171 4.666-.013.416.409-.08 1.214-.237.258-.053.006-.264.185-5.003 2.541-.495-.178 4.845-.013.415.409-.079.238-.046c.7-.152 1.128-.455 1.267-.904.099-.251.158-.673.184-1.32l.126-3.426zm.343-.402-3.234.633-.139 3.683c-.02.607-.079 1.016-.164 1.221q-.15.495-1.03.693l-.231.046.191-5.26-3.207.627-.192 5.26-1.214.238.185-5.089-3.208.627-.303 8.356c-.251.35-.634.58-1.155.68a2 2 0 0 1-.43.046c-.343 0-.62-.1-.838-.29q-.476-.398-.449-1.202l.14-3.749-2.944.575-.146 3.993c-.026.712.06 1.333.264 1.874q.289.811.944 1.386c.423.37.918.62 1.479.74.257.059.527.085.818.085.33 0 .673-.033 1.043-.106a5.8 5.8 0 0 0 2.435-1.082c.713-.541 1.307-1.274 1.802-2.185.198-.37.356-.772.468-1.214l.053-.231 5.67-1.109a3.9 3.9 0 0 0 1.564-.68q.695-.494 1.142-1.247.1-.17.21-.429c.054-.139.107-.297.153-.462q.051-.25.092-.548.028-.22.046-.686z" fill="#E94F24"/>
    <path d="M20.65 20.614a.98.98 0 0 1-.673-.244c-.264-.218-.383-.522-.37-.924.014-.41.165-.78.469-1.129.29-.343.64-.561 1.043-.64a1.4 1.4 0 0 1 .284-.027c.264 0 .488.08.686.251q.376.326.356.918c-.013.409-.171.792-.462 1.135-.297.35-.64.56-1.049.64-.092.007-.191.02-.284.02" fill="#F37721"/>
    <path d="M21.402 17.809a.84.84 0 0 1 .575.204c.217.191.316.449.303.785-.013.377-.152.713-.422 1.03-.277.323-.588.515-.957.588-.093.02-.178.026-.258.026a.82.82 0 0 1-.567-.211c-.218-.185-.317-.443-.304-.786.013-.37.152-.706.43-1.03.27-.316.573-.508.943-.58.092-.013.178-.027.257-.027m0-.33q-.148.002-.316.033c-.443.085-.819.316-1.136.692-.323.377-.488.786-.508 1.228-.02.456.126.805.423 1.056.217.192.481.29.778.29q.15-.002.317-.032c.442-.086.819-.317 1.142-.694q.476-.562.495-1.234c.013-.442-.119-.792-.416-1.05a1.13 1.13 0 0 0-.779-.29" fill="#E94F24"/>
    <path d="M24.709 19.813a.98.98 0 0 1-.674-.244c-.27-.218-.389-.522-.376-.924q.02-.604.475-1.129c.297-.35.634-.56 1.043-.64a1.4 1.4 0 0 1 .284-.026c.264 0 .488.079.686.244.251.224.37.521.357.917-.013.41-.172.792-.462 1.135-.297.344-.654.561-1.05.64a1.5 1.5 0 0 1-.283.027" fill="#F37721"/>
    <path d="M25.455 17.016a.84.84 0 0 1 .574.204c.218.192.317.449.304.786-.013.376-.152.712-.423 1.03-.277.322-.594.514-.957.586-.092.02-.171.027-.257.027a.85.85 0 0 1-.574-.211c-.218-.178-.324-.436-.31-.786.013-.37.158-.706.435-1.03.27-.316.58-.508.944-.58.106-.02.185-.027.264-.027m0-.33q-.15.002-.317.032-.661.129-1.135.694-.485.564-.515 1.227c-.02.456.125.805.43 1.056.217.192.48.29.778.29q.148-.002.317-.032.654-.129 1.141-.694.474-.562.502-1.234.02-.663-.416-1.05a1.13 1.13 0 0 0-.785-.29" fill="#E94F24"/>
    <path d="M32.49 28.141c-.283 0-.553-.046-.798-.132q-.615-.208-.983-.752a2 2 0 0 1-.165-.324 1.6 1.6 0 0 1-.099-.376 5 5 0 0 1-.06-.501c-.013-.139-.006-.357 0-.66l.324-8.87 3.109-.608-.086 2.31-.205.04-.185 4.963c-.033.851.033 1.122.086 1.247.046.185.218.436.753.436q.209-.002.488-.053l18.011-3.524.014-.27c.04-1.057-.126-1.756-.509-2.152-.224-.232-.521-.35-.878-.35q-.07-.002-.151.006l-.297.04-6.29 1.234.112-3.089L46.9 13.51l3.154-.62-2.237 3.333 3.835-.753c.145-.026.23-.046.257-.046a4 4 0 0 1 .634-.046c.468 0 .904.086 1.293.257.614.27 1.116.76 1.479 1.446q.257.496.356 1.32l-.198 5.293-22.348 4.376a2.6 2.6 0 0 1-.633.072" fill="#F37721"/>
    <path d="m49.704 13.134-1.795 2.673-.442.66.779-.152 3.445-.673q.186-.038.264-.046c.205-.027.41-.046.594-.046q.673-.002 1.227.244c.581.257 1.05.72 1.4 1.373.158.303.27.72.336 1.234l-.191 5.168-11.98 2.343-2.012.396-1.42.277-2.012.396-1.413.277-2.013.396-1.366.264c-.217.04-.422.066-.62.066q-.405.001-.752-.125a1.7 1.7 0 0 1-.898-.687 1.5 1.5 0 0 1-.145-.29 1.5 1.5 0 0 1-.093-.35 4 4 0 0 1-.06-.475 10 10 0 0 1 0-.64l.324-8.739 2.772-.54-.072 1.972-.205.04-.007.264-.178 4.831c-.033.838.033 1.136.093 1.294.066.218.264.56.917.56.152 0 .33-.019.522-.052l.461-.092 1.261-.244 2.013-.396 1.42-.278 2.012-.396 1.26-.244 9.459-1.854.257-.053.007-.264.006-.139c.04-1.102-.139-1.841-.554-2.27a1.34 1.34 0 0 0-.997-.403c-.053 0-.105 0-.185.007l-.303.046-6.079 1.188.106-2.832 2.151-3.154zm.72-.482-3.61.707-2.278 3.34-.125 3.345 6.488-1.267.284-.04q.069-.007.138-.006 1.309.002 1.221 2.33l-.006.138-9.458 1.855-1.26.244-2.014.396-1.419.277-2.013.396-1.26.244-.462.093a2.5 2.5 0 0 1-.462.046c-.344 0-.541-.112-.6-.337-.074-.171-.1-.567-.074-1.174l.179-4.832.204-.04.1-2.646-3.44.674-.33 9.002q-.018.466 0 .673.021.296.06.521c.027.152.06.29.112.41q.09.22.178.35.397.594 1.063.811.394.14.858.139.325-.001.68-.073l1.366-.264 2.013-.396 1.412-.277 2.014-.396 1.419-.277 2.012-.396 12.237-2.396.198-5.451c-.066-.568-.191-1.03-.37-1.373q-.576-1.089-1.557-1.525a3.4 3.4 0 0 0-1.36-.27 4 4 0 0 0-.64.046c-.026 0-.125.02-.284.046l-3.445.673z" fill="#E94F24"/>
    <path d="m24.663 40.234.416-.08.013-.125q.058-.705.146-1.122c.085-.436.191-.792.33-1.063a4.5 4.5 0 0 1 1.174-1.498 3.6 3.6 0 0 1 1.598-.739c.217-.04.422-.066.62-.066.33 0 .634.06.904.185q.359.166.627.442l-1.38 1.617a1 1 0 0 0-.547-.139q-.168 0-.376.04c-.918.178-1.4.799-1.439 1.835l-.013.303 3.227-.633-.072 2.006-5.3 1.043z" fill="#F37721"/>
    <path d="M28.96 35.707c.303 0 .587.06.831.165.172.08.33.185.476.304l-1.195 1.399a1.2 1.2 0 0 0-.508-.093q-.19-.001-.41.047c-.686.132-1.517.587-1.57 1.993l-.007.099-.013.416.41-.08 2.817-.554-.06 1.67-4.975.977.059-1.67.171-.033.245-.046.02-.251q.06-.693.138-1.109.12-.625.317-1.023c.29-.58.666-1.063 1.128-1.439.456-.363.97-.6 1.532-.706q.316-.067.594-.066m0-.33q-.307-.002-.654.066a3.84 3.84 0 0 0-1.67.772c-.501.41-.904.93-1.214 1.551q-.216.426-.343 1.109-.088.437-.145 1.142l-.43.086-.085 2.343 5.643-1.103.086-2.343-3.228.634.007-.099q.049-1.437 1.307-1.676.186-.04.343-.04.367 0 .567.198l1.578-1.848a2.2 2.2 0 0 0-.779-.587 2.3 2.3 0 0 0-.983-.205" fill="#E94F24"/>
    <path d="M22.003 48.828c-.284 0-.555-.047-.799-.132a1.85 1.85 0 0 1-.983-.753 1.6 1.6 0 0 1-.165-.323 1.6 1.6 0 0 1-.1-.376 5 5 0 0 1-.058-.502 11 11 0 0 1 0-.66l.184-5.075 2.904-.568-.125 3.478c-.033.858.033 1.122.086 1.248.046.184.218.435.752.435.139 0 .31-.02.488-.053l5.967-1.168c.693-.138 1.102-.416 1.227-.825.093-.211.146-.627.172-1.267l.27-7.352 3.057-.601-.086 2.31-.152.026-.238 6.482a6 6 0 0 1-.053.66 7 7 0 0 1-.085.54c-.04.153-.093.304-.145.443a4 4 0 0 1-.205.403 3.7 3.7 0 0 1-1.09 1.194 3.9 3.9 0 0 1-1.497.654l-8.686 1.702c-.218.06-.436.08-.64.08" fill="#F37721"/>
    <path d="m34.708 34.545-.073 1.974-.152.026-.006.264-.231 6.356a5 5 0 0 1-.053.66c-.02.191-.046.363-.08.495a8 8 0 0 1-.131.416q-.11.237-.198.396a3.5 3.5 0 0 1-1.043 1.141c-.43.31-.91.522-1.432.62l-8.686 1.704c-.218.04-.422.066-.614.066q-.405.002-.752-.126a1.7 1.7 0 0 1-.898-.686 1.2 1.2 0 0 1-.145-.29 1.5 1.5 0 0 1-.092-.35 4 4 0 0 1-.06-.476 10 10 0 0 1 0-.64l.178-4.943 2.575-.502-.12 3.274c-.032.838.034 1.135.093 1.293.066.218.264.561.91.561.153 0 .33-.02.522-.052l5.967-1.169c.752-.151 1.207-.468 1.34-.904.105-.25.165-.673.19-1.34l.265-7.22zm.343-.402-3.386.66-.277 7.484c-.02.614-.08 1.016-.165 1.221q-.16.516-1.102.706l-5.967 1.168q-.265.048-.462.047c-.343 0-.54-.113-.6-.337-.073-.172-.1-.568-.073-1.175l.139-3.69-3.24.634-.192 5.208q-.021.465 0 .673.018.297.066.515c.026.152.06.29.112.409q.09.22.178.35.397.593 1.063.812c.264.092.547.138.858.138q.325-.002.68-.072l8.685-1.703a3.9 3.9 0 0 0 1.564-.68 4.04 4.04 0 0 0 1.353-1.676c.053-.139.106-.297.152-.462a5 5 0 0 0 .086-.548 5 5 0 0 0 .053-.687l.23-6.355.153-.027z" fill="#E94F24"/>
    <path d="M41.916 48.772a.98.98 0 0 1-.673-.244c-.264-.218-.383-.515-.37-.918.013-.415.165-.785.469-1.135.297-.343.647-.56 1.043-.64.099-.02.198-.026.283-.026a1 1 0 0 1 .68.244c.258.224.376.521.363.924-.013.402-.172.785-.468 1.128-.297.35-.64.561-1.05.64a2 2 0 0 1-.277.027" fill="#F37721"/>
    <path d="M42.668 45.975c.224 0 .41.066.574.204q.325.277.304.792c-.013.37-.152.706-.43 1.023-.276.324-.587.515-.956.587q-.138.029-.257.027a.82.82 0 0 1-.568-.211c-.218-.185-.317-.436-.304-.78.014-.375.152-.712.43-1.035.276-.324.58-.515.943-.581.1-.02.185-.026.264-.026m0-.33q-.148.002-.317.032-.652.129-1.135.694c-.323.376-.488.785-.508 1.234q-.021.675.422 1.043c.218.19.482.29.78.29q.148-.002.316-.033c.442-.086.818-.317 1.142-.693s.488-.786.508-1.228c.02-.449-.125-.798-.422-1.056a1.15 1.15 0 0 0-.786-.283" fill="#E94F24"/>
    <path d="M38.227 45.653c-.284 0-.555-.046-.799-.132q-.617-.209-.983-.752a1.5 1.5 0 0 1-.165-.324 1.6 1.6 0 0 1-.1-.376 5 5 0 0 1-.059-.502 11 11 0 0 1 0-.66l.324-8.87 3.108-.607-.086 2.31-.204.04-.185 4.962c-.033.852.033 1.123.086 1.248.046.185.218.435.752.435q.21-.002.489-.052l.745-.145c.693-.14 1.103-.416 1.221-.825.093-.212.146-.627.172-1.261l.132-3.558 2.904-.567-.185 5.003a8 8 0 0 1-.046.666 8 8 0 0 1-.092.535q-.058.228-.146.436a2.5 2.5 0 0 1-.198.402 3.8 3.8 0 0 1-1.095 1.195 3.9 3.9 0 0 1-1.498.653l-3.452.673a3 3 0 0 1-.64.073" fill="#F37721"/>
    <path d="m39.375 33.633-.073 1.973-.204.04-.007.264-.178 4.831c-.033.832.033 1.136.092 1.294.066.218.264.56.911.56.152 0 .33-.019.521-.052l.462-.092.278-.053c.745-.152 1.194-.462 1.34-.918.098-.25.158-.673.184-1.32l.126-3.425 2.574-.502-.179 4.792a7 7 0 0 1-.046.647c-.026.191-.06.37-.086.515a3 3 0 0 1-.138.416 2.6 2.6 0 0 1-.192.382q-.405.693-1.049 1.149c-.429.31-.91.521-1.432.62l-2.25.442-1.209.238c-.217.04-.422.066-.613.066q-.407.002-.753-.126a1.69 1.69 0 0 1-1.043-.976 1.5 1.5 0 0 1-.092-.35 4 4 0 0 1-.06-.475 10 10 0 0 1 0-.64l.324-8.739zm.343-.403-3.439.674-.33 9.002q-.02.465 0 .673.02.297.06.515c.026.152.06.29.112.41q.09.218.178.35c.264.395.614.666 1.063.81q.395.14.858.14c.218 0 .442-.027.68-.073l1.207-.238 2.251-.442a3.9 3.9 0 0 0 1.564-.68c.462-.33.845-.745 1.135-1.247a3 3 0 0 0 .212-.43q.09-.215.151-.461c.033-.165.066-.343.093-.548q.028-.22.046-.686l.191-5.208-3.24.634-.139 3.69c-.02.613-.079 1.016-.165 1.22-.099.343-.468.581-1.095.706l-.278.053-.462.093a2.5 2.5 0 0 1-.462.046c-.343 0-.54-.112-.6-.337-.073-.171-.1-.567-.073-1.175l.178-4.83.205-.04z" fill="#E94F24"/>
  </g>
  <defs>
    <linearGradient id="paint0_linear_3647_10715" x1="10.389" y1="14.683" x2="6.688" y2="10.195" gradientUnits="userSpaceOnUse">
      <stop stop-color="#FFD56B"/>
      <stop offset=".144" stop-color="#FDE964"/>
      <stop offset=".221" stop-color="#D67F28"/>
      <stop offset=".354" stop-color="#D67F28"/>
      <stop offset=".467" stop-color="#6C461B"/>
      <stop offset=".6" stop-color="#6C461B"/>
      <stop offset=".641" stop-color="#FDE964"/>
      <stop offset=".728" stop-color="#FDE964"/>
      <stop offset=".805" stop-color="#D67F28"/>
      <stop offset=".918" stop-color="#FFD56B"/>
      <stop offset="1" stop-color="#D89428"/>
    </linearGradient>
    <linearGradient id="paint1_linear_3647_10715" x1="10.006" y1="11.365" x2="6.445" y2="14.301" gradientUnits="userSpaceOnUse">
      <stop stop-color="#FDE974"/>
      <stop offset="1" stop-color="#FFD76C"/>
    </linearGradient>
    <linearGradient id="paint2_linear_3647_10715" x1="9.189" y1="12.302" x2="7.101" y2="14.024" gradientUnits="userSpaceOnUse">
      <stop stop-color="#FDE974"/>
      <stop offset="1" stop-color="#FFD76C"/>
    </linearGradient>
    <linearGradient id="paint3_linear_3647_10715" x1="9.295" y1="11.05" x2="7.715" y2="12.353" gradientUnits="userSpaceOnUse">
      <stop stop-color="#FDE974"/>
      <stop offset="1" stop-color="#FFD76C"/>
    </linearGradient>
    <linearGradient id="paint4_linear_3647_10715" x1="8.207" y1="15.652" x2="8.207" y2="9.951" gradientUnits="userSpaceOnUse">
      <stop stop-color="#FDE974"/>
      <stop offset="1" stop-color="#FFD76C"/>
    </linearGradient>
    <linearGradient id="paint5_linear_3647_10715" x1="8.198" y1="15.655" x2="8.198" y2="9.961" gradientUnits="userSpaceOnUse">
      <stop stop-color="#FDE974"/>
      <stop offset="1" stop-color="#FFD76C"/>
    </linearGradient>
    <linearGradient id="paint6_linear_3647_10715" x1="9.74" y1="14.695" x2="6.686" y2="10.991" gradientUnits="userSpaceOnUse">
      <stop stop-color="#FDE974"/>
      <stop offset="1" stop-color="#FFD76B"/>
    </linearGradient>
    <linearGradient id="paint7_linear_3647_10715" x1="9.755" y1="14.713" x2="6.673" y2="10.975" gradientUnits="userSpaceOnUse">
      <stop stop-color="#FDE974"/>
      <stop offset="1" stop-color="#FFD76B"/>
    </linearGradient>
    <linearGradient id="paint8_linear_3647_10715" x1="9.333" y1="11.922" x2="7.668" y2="13.295" gradientUnits="userSpaceOnUse">
      <stop stop-color="#FFC64F"/>
      <stop offset="1" stop-color="#F69651"/>
    </linearGradient>
    <linearGradient id="paint9_linear_3647_10715" x1="8.314" y1="12.761" x2="7.453" y2="13.471" gradientUnits="userSpaceOnUse">
      <stop stop-color="#FDE974"/>
      <stop offset="1" stop-color="#FFD76B"/>
    </linearGradient>
    <linearGradient id="paint10_linear_3647_10715" x1="53.675" y1="60.364" x2="49.974" y2="55.876" gradientUnits="userSpaceOnUse">
      <stop stop-color="#FFD56B"/>
      <stop offset=".144" stop-color="#FDE964"/>
      <stop offset=".221" stop-color="#D67F28"/>
      <stop offset=".354" stop-color="#D67F28"/>
      <stop offset=".467" stop-color="#6C461B"/>
      <stop offset=".6" stop-color="#6C461B"/>
      <stop offset=".641" stop-color="#FDE964"/>
      <stop offset=".728" stop-color="#FDE964"/>
      <stop offset=".805" stop-color="#D67F28"/>
      <stop offset=".918" stop-color="#FFD56B"/>
      <stop offset="1" stop-color="#D89428"/>
    </linearGradient>
    <linearGradient id="paint11_linear_3647_10715" x1="53.292" y1="57.047" x2="49.731" y2="59.984" gradientUnits="userSpaceOnUse">
      <stop stop-color="#FDE974"/>
      <stop offset="1" stop-color="#FFD76C"/>
    </linearGradient>
    <linearGradient id="paint12_linear_3647_10715" x1="52.475" y1="57.986" x2="50.388" y2="59.708" gradientUnits="userSpaceOnUse">
      <stop stop-color="#FDE974"/>
      <stop offset="1" stop-color="#FFD76C"/>
    </linearGradient>
    <linearGradient id="paint13_linear_3647_10715" x1="52.582" y1="56.733" x2="51.002" y2="58.037" gradientUnits="userSpaceOnUse">
      <stop stop-color="#FDE974"/>
      <stop offset="1" stop-color="#FFD76C"/>
    </linearGradient>
    <linearGradient id="paint14_linear_3647_10715" x1="51.493" y1="61.334" x2="51.493" y2="55.634" gradientUnits="userSpaceOnUse">
      <stop stop-color="#FDE974"/>
      <stop offset="1" stop-color="#FFD76C"/>
    </linearGradient>
    <linearGradient id="paint15_linear_3647_10715" x1="51.486" y1="61.338" x2="51.486" y2="55.644" gradientUnits="userSpaceOnUse">
      <stop stop-color="#FDE974"/>
      <stop offset="1" stop-color="#FFD76C"/>
    </linearGradient>
    <linearGradient id="paint16_linear_3647_10715" x1="53.028" y1="60.377" x2="49.974" y2="56.673" gradientUnits="userSpaceOnUse">
      <stop stop-color="#FDE974"/>
      <stop offset="1" stop-color="#FFD76B"/>
    </linearGradient>
    <linearGradient id="paint17_linear_3647_10715" x1="53.041" y1="60.394" x2="49.959" y2="56.656" gradientUnits="userSpaceOnUse">
      <stop stop-color="#FDE974"/>
      <stop offset="1" stop-color="#FFD76B"/>
    </linearGradient>
    <linearGradient id="paint18_linear_3647_10715" x1="52.618" y1="57.603" x2="50.953" y2="58.977" gradientUnits="userSpaceOnUse">
      <stop stop-color="#FFC64F"/>
      <stop offset="1" stop-color="#F69651"/>
    </linearGradient>
    <linearGradient id="paint19_linear_3647_10715" x1="51.6" y1="58.443" x2="50.739" y2="59.153" gradientUnits="userSpaceOnUse">
      <stop stop-color="#FDE974"/>
      <stop offset="1" stop-color="#FFD76B"/>
    </linearGradient>
    <clipPath id="clip0_3647_10715">
      <path fill="#fff" d="M0 0h66v66H0z"/>
    </clipPath>
  </defs>
</svg>
