<svg width="53" height="33" viewBox="0 0 53 33" fill="none" xmlns="http://www.w3.org/2000/svg">
  <g clip-path="url(#clip0_19_140)">
    <path fill-rule="evenodd" clip-rule="evenodd" d="M4.64 0C2.09 0 0 2.09 0 4.64v23.2c0 2.55 2.09 4.639 4.64 4.639h42.919c2.55 0 4.64-2.09 4.64-4.64v-23.2c0-2.55-2.09-4.64-4.64-4.64H4.64zm0 2.32h42.919a2.29 2.29 0 0 1 2.32 2.32v23.199a2.29 2.29 0 0 1-2.32 2.32H4.64a2.29 2.29 0 0 1-2.32-2.32v-23.2a2.29 2.29 0 0 1 2.32-2.32zm9.86 5.22a4.08 4.08 0 0 0-4.06 4.059 4.08 4.08 0 0 0 4.06 4.06 4.08 4.08 0 0 0 4.06-4.06 4.08 4.08 0 0 0-4.06-4.06zm13.34 1.159a1.16 1.16 0 1 0 0 2.32h17.399a1.16 1.16 0 0 0 0-2.32zM14.5 9.859c.974 0 1.74.765 1.74 1.74 0 .974-.766 1.74-1.74 1.74-.975 0-1.74-.766-1.74-1.74 0-.975.765-1.74 1.74-1.74m13.34 5.22a1.16 1.16 0 1 0 0 2.32h17.399a1.16 1.16 0 0 0 0-2.32zm-13.34 1.74c-2.294 0-4.377.587-5.963 1.613C6.95 19.457 5.8 20.994 5.8 22.8v.978c0 .607.552 1.16 1.16 1.16h15.08c.607 0 1.16-.553 1.16-1.16V22.8c0-1.806-1.151-3.343-2.738-4.368s-3.67-1.613-5.963-1.613zm0 2.32c1.883 0-1.884 0 0 0m13.34 2.319a1.16 1.16 0 1 0 0 2.32h17.399a1.16 1.16 0 1 0 0-2.32z" fill="#071E6F"/>
  </g>
  <defs>
    <clipPath id="clip0_19_140">
      <path fill="#fff" d="M0 0h52.199v32.479H0z"/>
    </clipPath>
  </defs>
</svg>
