<svg xmlns="http://www.w3.org/2000/svg" width="1080" viewBox="0 0 810 810" height="1080" version="1.0">
  <path fill="#cc7571" d="M238.621 301.344a218 218 0 0 0-30.926 22.719 218 218 0 0 0-26.468 27.777l-23.829 36.027c-15.394 28.711-27.39 65.188-30.53 110.934-3.141 45.75 3.769 83.52 15.105 114.07l16.113 33.559c78.59-2.403 126.59-62.723 155.59-159.012-2.426-61.996-12.961-118.508-32.977-168.625a199 199 0 0 0-17.41-15.754 22 22 0 0 0-2.715-1.851 22 22 0 0 0-2.96-1.418 21.5 21.5 0 0 0-3.145-.957 21 21 0 0 0-3.25-.473 21 21 0 0 0-3.285.023 21 21 0 0 0-3.243.52q-1.605.38-3.129 1-1.53.622-2.94 1.46m0 0"/>
  <path fill="#a84e4e" d="M313.238 360.902a223.7 223.7 0 0 0-32.55-42.105c7.18 79.676 7.222 257.594-122.61 327.637l2.586 5.39a218.4 218.4 0 0 0 22.41 31.121 218 218 0 0 0 27.508 26.73 22 22 0 0 0 2.711 1.856 22 22 0 0 0 2.965 1.422q1.534.6 3.144.957a21.7 21.7 0 0 0 9.782-.07 21.8 21.8 0 0 0 6.07-2.469 218 218 0 0 0 30.902-22.719 218 218 0 0 0 26.453-27.765l23.84-36.028c15.406-28.714 27.414-65.191 30.555-110.933s-3.758-83.524-15.086-114.067Zm0 0"/>
  <path fill="#fff" d="m157.41 387.875 125.305 8.602a97.2 97.2 0 0 0 .265-37.649l-101.746-6.984a233 233 0 0 0-23.824 36.031m42.121 228.945-57.547-3.953a233.5 233.5 0 0 0 15.684 33.797c19.43-6.766 35.703-15.363 41.863-29.844m-1.933-178.02a6 6 0 0 0 2.347-.269 6 6 0 0 0 1.09-.469 6.1 6.1 0 0 0 1.805-1.527q.369-.467.644-1 .275-.527.438-1.101.166-.576.215-1.168a6.03 6.03 0 0 0-1.41-4.418 5.7 5.7 0 0 0-.852-.828 6 6 0 0 0-.996-.649 6.1 6.1 0 0 0-2.27-.652q-13.155-.885-26.18 1.136a6.15 6.15 0 0 0-3.242 1.52q-.45.41-.808.902a5.8 5.8 0 0 0-.613 1.043 6 6 0 0 0-.399 1.14 6 6 0 0 0-.16 1.2q-.018.61.082 1.207.099.603.32 1.168a6 6 0 0 0 1.293 2.031q.418.44.922.786.497.346 1.059.582c.37.16.758.28 1.152.363q.599.123 1.203.129.61 0 1.207-.117c.043 0 1.828-.297 4.633-.602a638 638 0 0 0-3.984 19.34c-4.781.047-8.059.23-8.317.246a6 6 0 0 0-1.172.184 6.3 6.3 0 0 0-1.117.41 6.2 6.2 0 0 0-1.886 1.425q-.4.452-.7.961a6.04 6.04 0 0 0-.824 3.422q.03.598.184 1.176.146.58.41 1.117.258.536.621 1.012.358.479.805.875a6.1 6.1 0 0 0 2.04 1.2q.562.193 1.155.277.59.081 1.187.046c.051 0 2.176-.12 5.458-.187-1.196 7.246-2.278 14.82-3.051 22.187l-5.88-.406a6 6 0 0 0-2.347.301 6 6 0 0 0-1.086.488 6.04 6.04 0 0 0-2.418 2.563 6 6 0 0 0-.617 2.285 6 6 0 0 0 .3 2.348q.19.564.49 1.082.298.52.69.968.394.453.864.817a6.1 6.1 0 0 0 2.12 1.05q.581.16 1.173.196l5.738.394c-.476 8.797-.492 18.172-.27 27.118-3.05-.582-5.007-1.04-5.054-1.055a6 6 0 0 0-1.176-.164 6.4 6.4 0 0 0-1.187.074 6 6 0 0 0-1.149.3 5.8 5.8 0 0 0-1.07.52q-.51.311-.946.715a6.1 6.1 0 0 0-1.78 3.04q-.136.58-.16 1.175a6 6 0 0 0 .37 2.34 6.1 6.1 0 0 0 2.125 2.805 6 6 0 0 0 1.028.597 6 6 0 0 0 1.125.39c.257.063 3.535.837 8.34 1.68a633 633 0 0 0 1.331 20.454c-2.695-.672-4.402-1.2-4.504-1.23a6 6 0 0 0-1.16-.243 5.8 5.8 0 0 0-1.187-.008 5.9 5.9 0 0 0-2.27.664 6 6 0 0 0-.996.649q-.462.375-.847.832a6 6 0 0 0-.668.98 6 6 0 0 0-.465 1.094 6.03 6.03 0 0 0-.04 3.516q.17.573.446 1.105.274.529.648.992c.25.313.528.594.832.852q.457.38.977.668.527.286 1.094.468a118.4 118.4 0 0 0 25.773 4.704h.332q.597.012 1.188-.086.586-.1 1.144-.317a6 6 0 0 0 1.063-.531 6.1 6.1 0 0 0 1.719-1.629q.345-.485.585-1.035.247-.545.375-1.125a6.06 6.06 0 0 0-2.414-6.293 6 6 0 0 0-1.03-.586 5.8 5.8 0 0 0-1.13-.375q-.583-.135-1.18-.148a79 79 0 0 1-5.917-.559 610 610 0 0 1-1.48-21.164c1.597.152 3.226.277 4.862.363h.332a6.2 6.2 0 0 0 2.281-.445 6.1 6.1 0 0 0 1.946-1.274q.42-.409.754-.894.335-.48.57-1.02.235-.534.363-1.109a6.1 6.1 0 0 0-.242-3.453 6.1 6.1 0 0 0-1.223-1.977 5.9 5.9 0 0 0-1.875-1.375 6.1 6.1 0 0 0-2.253-.57 111 111 0 0 1-6.024-.496c-.273-9.238-.297-19.02.188-28.129l6.914.473q.21.016.422.015.58.001 1.156-.109a6.09 6.09 0 0 0 4.383-3.492q.236-.534.367-1.102c.086-.383.137-.765.148-1.156a6 6 0 0 0-.07-1.16 6.3 6.3 0 0 0-.293-1.125 6 6 0 0 0-.504-1.047q-.299-.502-.691-.934a6.07 6.07 0 0 0-2.942-1.797 6.4 6.4 0 0 0-1.148-.187l-6.758-.465c.809-7.61 1.961-15.453 3.223-22.902 1.96.082 3.972.199 5.976.367a6 6 0 0 0 1.668-.094 6 6 0 0 0 2.13-.863c.323-.211.628-.45.906-.719a6.2 6.2 0 0 0 1.324-1.879 6.3 6.3 0 0 0 .37-1.093q.132-.563.157-1.145a6 6 0 0 0-.344-2.273 6 6 0 0 0-.488-1.047 6 6 0 0 0-.676-.934 6 6 0 0 0-.84-.789 6 6 0 0 0-.976-.617 6 6 0 0 0-1.078-.422 6 6 0 0 0-1.133-.207 137 137 0 0 0-4.805-.32 616 616 0 0 1 4.258-20.246c1.941.043 3.945.113 5.934.28m0 0"/>
  <path fill="#cccfe2" d="m282.707 396.477 49.2 3.378a232.4 232.4 0 0 0-18.677-38.949l-30.25-2.078a580 580 0 0 1-.273 37.649M157.672 646.656c.992 1.75 1.988 3.48 3 5.16l131.933 9.059a233 233 0 0 0 23.832-36.027l-116.906-8.028a200.5 200.5 0 0 1-41.86 29.836m0 0"/>
  <path fill="#f3f6ff" d="M331.758 488.559a175 175 0 0 1 5.422-15.68l75.625-87.758a179 179 0 0 1 10.34-5.578 181 181 0 0 1 10.687-4.883 180 180 0 0 1 10.98-4.168 179 179 0 0 1 22.672-6.12q5.766-1.156 11.59-1.93a177.5 177.5 0 0 1 23.434-1.547 178 178 0 0 1 23.43 1.546q5.823.775 11.59 1.93 5.76 1.153 11.437 2.688a179 179 0 0 1 11.234 3.433q5.56 1.906 10.98 4.168 5.426 2.268 10.688 4.883a179 179 0 0 1 10.34 5.578l51.863 60.18s41.903 126.203-119.297 163.027-193.015-119.77-193.015-119.77m0 0"/>
  <path fill="#adbfe0" d="m597.695 689.18 71.953-89.176a179 179 0 0 0 4.864-15.5 178 178 0 0 0 3.433-15.875 179 179 0 0 0 1.98-16.121q.622-8.106.505-16.235A178 178 0 0 0 677.02 504a178.5 178.5 0 0 0-9.191-31.121L644.07 445.3a179 179 0 0 1-4.48 11.238 177.7 177.7 0 0 1-17.855 31.543q-3.506 4.936-7.333 9.625a179 179 0 0 1-16.543 17.645q-4.435 4.124-9.132 7.937a179 179 0 0 1-19.773 13.93 179 179 0 0 1-21.481 11.117 178 178 0 0 1-22.793 8.102q-5.825 1.639-11.754 2.875a178 178 0 0 1-11.922 2.066q-6 .827-12.035 1.25-6.042.422-12.094.433a178.5 178.5 0 0 1-24.137-1.605q-6-.809-11.93-2.027a179 179 0 0 1-11.765-2.832 179 179 0 0 1-22.816-8.032 177 177 0 0 1-10.946-5.156 177 177 0 0 1-10.57-5.89 177 177 0 0 1-10.145-6.594 178 178 0 0 1-42.8-42.367 179 179 0 0 0-5.617 26.309 177.8 177.8 0 0 0 .895 53.645 178 178 0 0 0 6.487 26.108 178.4 178.4 0 0 0 10.352 24.832 177 177 0 0 0 6.555 11.762 178.2 178.2 0 0 0 34.46 41.121 178.5 178.5 0 0 0 21.48 16.203 178 178 0 0 0 11.595 6.836 177 177 0 0 0 12.078 5.945c4.101 1.828 8.27 3.5 12.496 5.012a176 176 0 0 0 12.836 4.055 177 177 0 0 0 26.41 5.144q6.691.787 13.418 1.063 6.732.28 13.465.047a177.9 177.9 0 0 0 65.258-14.84 177.4 177.4 0 0 0 23.761-12.621m0 0"/>
  <path fill="#f3f6ff" d="M412.012 584.691a78 78 0 0 1 1.867 3.149l4.558 9.355a84 84 0 0 1 2.575 7.117s2.941 65.38-67.098 79.383c-70.043 14.004-98.074-45.863-98.074-45.863a84.5 84.5 0 0 1 .941-23.469 85 85 0 0 1 2.903-11.41 83.5 83.5 0 0 1 4.453-10.898 85 85 0 0 1 9.398-14.93 85 85 0 0 1 12.29-12.656 85 85 0 0 1 9.538-6.899q.605-.38 1.215-.742l9.23-4.8a84 84 0 0 1 14.324-4.863 84 84 0 0 1 7.43-1.458c2.5-.375 5.008-.637 7.532-.785a84 84 0 0 1 7.57-.11 84.8 84.8 0 0 1 29.48 6.25 86 86 0 0 1 6.876 3.176 85 85 0 0 1 6.562 3.774 84.3 84.3 0 0 1 11.988 9.226 85 85 0 0 1 5.328 5.38 85 85 0 0 1 9.113 12.074m0 0"/>
  <path fill="#cccfe2" d="m373.016 707.488 9.433-4.699a84 84 0 0 0 8.156-5.355A85 85 0 0 0 401 688.309a85 85 0 0 0 4.602-5.168 84 84 0 0 0 7.867-11.371q1.734-3 3.21-6.13a84.4 84.4 0 0 0 6.5-19.667 85 85 0 0 0 1.586-13.738 85 85 0 0 0-.671-13.813q-.453-3.435-1.18-6.82a84 84 0 0 0-1.734-6.7c-11.325 38.82-47.961 67.266-91.442 67.266a95 95 0 0 1-10.5-.535 95.8 95.8 0 0 1-30.27-8.395 96 96 0 0 1-9.277-4.945q-4.5-2.73-8.68-5.934a96 96 0 0 1-7.976-6.851 95 95 0 0 1-7.176-7.68 83.5 83.5 0 0 0 7.391 27.156l5.043 9.309a84.7 84.7 0 0 0 8.988 11.91 85 85 0 0 0 5.246 5.317 85 85 0 0 0 11.793 9.144 84 84 0 0 0 6.453 3.758 83 83 0 0 0 6.758 3.176 84.6 84.6 0 0 0 36.485 6.441 85 85 0 0 0 14.79-1.992 84.6 84.6 0 0 0 14.21-4.559m0 0"/>
  <path fill="#585875" d="M502.504 470.492c-34.3 19.11-62.824 51.043-62.824 51.043a258 258 0 0 0 12.25 39.813s26.175 16.16 56.472 9.574c30.297-6.59 51.371-28.516 51.371-28.516q3.3-10.295 5.543-20.87s-28.511-31.934-62.812-51.044m0 0"/>
  <path fill="#3e3e59" d="M451.93 561.348c6.78 17.437 13.312 30.18 13.312 30.18h74.524a359.5 359.5 0 0 0 20.007-49.122 177 177 0 0 1-19.699 8.953 177 177 0 0 1-20.64 6.485 176 176 0 0 1-21.282 3.922 177 177 0 0 1-21.597 1.293 179 179 0 0 1-24.625-1.711m217.718 38.656a218.5 218.5 0 0 0-28.898-19.621c-34.3 19.113-62.824 51.047-62.824 51.047 4.504 21.672 13.719 44.277 19.765 57.742a179 179 0 0 0 11.985-8.3 178 178 0 0 0 11.261-9.255 178 178 0 0 0 20.083-21.097 178.5 178.5 0 0 0 23.046-37.051 179 179 0 0 0 5.582-13.465m0 0"/>
  <path fill="#585875" d="M592.2 385.133c-11.032 10.074-17.9 17.754-17.9 17.754 7.032 33.843 25.563 69.992 25.563 69.992h31.52c9.984-11.484 15.64-24.11 15.336-38.3a178.6 178.6 0 0 0-24.688-27.56 178.7 178.7 0 0 0-29.832-21.886m-255.015 87.746h67.96s18.536-36.152 25.56-69.996c0 0-6.864-7.68-17.895-17.758a178 178 0 0 0-12.41 7.965 177 177 0 0 0-11.708 8.957 178 178 0 0 0-10.933 9.89 180 180 0 0 0-10.074 10.762 180 180 0 0 0-9.157 11.555c-2.89 3.98-5.617 8.07-8.172 12.273a178.7 178.7 0 0 0-13.171 26.352m0 0"/>
  <path fill="#f5738d" d="m413.867 587.848-.363.164a82.3 82.3 0 0 0-24.223 14.82l-3.562-3.984a5.2 5.2 0 0 0-1.621-1.27 5.2 5.2 0 0 0-.965-.371 5.3 5.3 0 0 0-1.02-.172 5.25 5.25 0 0 0-2.977.703 5.15 5.15 0 0 0-1.534 1.375 5.2 5.2 0 0 0-.97 3.914c.052.34.141.676.259 1q.182.487.453.926.275.444.629.824l3.914 4.371a81.5 81.5 0 0 0-13.742 21.563l-4.852-1.441a5.15 5.15 0 0 0-3.016.015c-.328.102-.64.23-.941.395q-.45.24-.844.57t-.715.723q-.322.398-.562.851t-.387.942q-.146.491-.191 1a5.2 5.2 0 0 0 .207 2.02q.152.485.398.937.242.45.57.843a5 5 0 0 0 1.575 1.278q.45.24.941.386l4.235 1.258a89 89 0 0 0-.997 3.66 82.5 82.5 0 0 0-2.39 21.813 13.16 13.16 0 0 0 8.113-2.313 13 13 0 0 0 2.164-1.867 71.3 71.3 0 0 1 2.93-18.36l6.34 1.884c.324.097.656.156.996.187q.508.042 1.015-.012a5.1 5.1 0 0 0 1.926-.605 5.3 5.3 0 0 0 1.547-1.293q.323-.398.559-.848a5.1 5.1 0 0 0 .574-1.933 5.2 5.2 0 0 0-1.16-3.785 5 5 0 0 0-.715-.72 5.5 5.5 0 0 0-.844-.562 5.5 5.5 0 0 0-.937-.39l-5.63-1.676a71.5 71.5 0 0 1 10.798-16.727l1.953 2.168q.34.394.746.711a5.3 5.3 0 0 0 1.836.91q.502.134 1.015.168a5.3 5.3 0 0 0 2.032-.277q.492-.166.937-.43.445-.261.832-.605.383-.345.695-.762a5.16 5.16 0 0 0 1.028-2.867 5.2 5.2 0 0 0-.309-2.027 5 5 0 0 0-.445-.926 5 5 0 0 0-.621-.82l-2.344-2.618a74 74 0 0 1 9.45-6.992 82.4 82.4 0 0 1 12.765-6.37 84 84 0 0 0-4.555-9.356m-121.754 74.875a5.16 5.16 0 0 0 2.516 1.715 5.2 5.2 0 0 0 3.043.015 5.3 5.3 0 0 0 1.805-.965q.399-.326.722-.73.33-.399.57-.856a5.2 5.2 0 0 0 .579-1.96 5.4 5.4 0 0 0-.008-1.032q-.059-.511-.215-1.004a5 5 0 0 0-.406-.945q-.248-.45-.582-.844l-2.149-2.601q10.811-11.877 16.38-26.942l5.398 1.606a5.1 5.1 0 0 0 2.02.183q.509-.053.995-.207.491-.152.938-.398.45-.241.844-.57.392-.329.714-.727.323-.395.563-.848.235-.454.383-.945.145-.488.191-1a5 5 0 0 0-.004-1.016 5 5 0 0 0-.207-1 5 5 0 0 0-.394-.937 5.1 5.1 0 0 0-1.293-1.563 5.2 5.2 0 0 0-1.79-.945l-5.355-1.594c2.469-10.523 2.863-21.125 1.192-31.804l6.214-1.66q.497-.137.957-.36a5.3 5.3 0 0 0 1.61-1.234q.334-.386.594-.828a5.1 5.1 0 0 0 .652-1.922 5 5 0 0 0 .035-1.02 5.4 5.4 0 0 0-.164-1.004 5.2 5.2 0 0 0-.898-1.82 5.2 5.2 0 0 0-.696-.746 5.4 5.4 0 0 0-.828-.594 5.7 5.7 0 0 0-.93-.422 5 5 0 0 0-.992-.23 5.6 5.6 0 0 0-1.02-.035q-.51.034-1.003.168l-5.824 1.558a82 82 0 0 0-10.348-22.418l-.11-.195a84 84 0 0 0-9.226 4.8l.375.669q.088.157.187.308c.38.57.754 1.153 1.118 1.73a71.7 71.7 0 0 1 7.968 17.786l-4.359 1.168a5.1 5.1 0 0 0-1.687.789q-.774.55-1.301 1.34a5.2 5.2 0 0 0-.742 1.707 5.18 5.18 0 0 0 1.637 5.094 5.1 5.1 0 0 0 1.597.957q.887.332 1.832.332a5.2 5.2 0 0 0 1.348-.176l3.886-1.04a72.1 72.1 0 0 1-1.05 26.126l-3.801-1.13a5.15 5.15 0 0 0-3.016.016c-.328.102-.64.23-.941.395q-.451.241-.844.57-.393.33-.715.723-.322.4-.562.851a5.1 5.1 0 0 0-.578 1.941q-.049.51.003 1.02.055.509.207 1 .147.487.395.938.242.45.57.844a5 5 0 0 0 1.575 1.277q.45.24.94.387l3.767 1.12a71.6 71.6 0 0 1-13.082 21.802l-1.907-2.317a5.2 5.2 0 0 0-1.57-1.281q-.45-.24-.941-.39a5.2 5.2 0 0 0-2.02-.192 4.8 4.8 0 0 0-.996.2 5 5 0 0 0-.942.39q-.45.242-.847.566-.395.33-.719.723a5.3 5.3 0 0 0-.953 1.789q-.148.491-.195 1a5.2 5.2 0 0 0 0 1.02q.051.508.203 1a5.2 5.2 0 0 0 .957 1.785l2.512 3.05a71 71 0 0 1-5.825 4.563 16.5 16.5 0 0 0 4.485 3.625 16.6 16.6 0 0 0 5.449 1.879 84 84 0 0 0 2.5-2.047Zm0 0"/>
  <path fill="#c94168" d="M357.8 681.332q.534 0 1.055-.105l3.739-.774a81.9 81.9 0 0 0 9.84 26.188q.133.229.285.441l.293.398a85 85 0 0 0 9.426-4.714 69.5 69.5 0 0 1-9.715-24.407l5.586-1.156q.504-.1.972-.3a5.23 5.23 0 0 0 2.793-2.837 5.3 5.3 0 0 0 .38-1.992 5.2 5.2 0 0 0-.11-1.011 5.1 5.1 0 0 0-.79-1.868 5.2 5.2 0 0 0-5.35-2.168l-4.708.973a73 73 0 0 1-.031-5.219 96 96 0 0 1-10.29 4.18q.038 1.575.134 3.144l-4.555.942a5.24 5.24 0 0 0-3.14 2.015 5.2 5.2 0 0 0-.825 1.708 5.2 5.2 0 0 0 .375 3.71 5.23 5.23 0 0 0 2.766 2.504q.896.346 1.863.348Zm-79.737-24.042c-.961.66-1.938 1.3-2.961 1.886a79 79 0 0 1-11.852 5.808 86 86 0 0 0 4.988 9.22l.059.089q.147-.046.293-.106A83.6 83.6 0 0 0 280.598 668a83 83 0 0 0 7.37-5.242 96 96 0 0 1-9.906-5.469m0 0"/>
  <path fill="#3e3e59" d="M646.71 434.598a148.2 148.2 0 0 1-15.327 38.28h36.437a177 177 0 0 0-21.11-38.28m0 0"/>
</svg>
