<svg width="54" height="33" viewBox="0 0 54 33" fill="none" xmlns="http://www.w3.org/2000/svg">
  <path fill-rule="evenodd" clip-rule="evenodd" d="M4.151 32.097c-2.275 0-4.15-1.647-4.15-3.653V3.659c0-2.007 1.871-3.66 4.15-3.66h45.062c2.28 0 4.157 1.65 4.157 3.66v24.785c0 2.009-1.881 3.653-4.157 3.653zm0-2.14h45.062c.96 0 1.731-.677 1.731-1.514V3.658c0-.836-.773-1.52-1.73-1.52H4.151c-.957 0-1.725.68-1.725 1.52v24.785c0 .84.765 1.515 1.725 1.515z" fill="#071E6F"/>
  <path fill-rule="evenodd" clip-rule="evenodd" d="M6.36 22.871a1.213 1.213 0 1 1 0-2.425h15.584a1.213 1.213 0 1 1 0 2.425H6.359zm0-6.047a1.213 1.213 0 1 1 0-2.426h12.432a1.213 1.213 0 0 1 0 2.426zm0-6.048a1.213 1.213 0 1 1 0-2.425h15.565a1.213 1.213 0 1 1 0 2.425H6.359zm40.684 5.1q0-.259-.032-.516a1.7 1.7 0 0 0-.093-.372 1.51 1.51 0 0 0-1.504-1.363h-.028a.4.4 0 0 1-.076-.124 572 572 0 0 0-1.472-3.81c-.372-.929-1.016-1.395-2.006-1.397q-4.074-.014-8.15-.002c-.39-.007-.775.09-1.114.282a2.16 2.16 0 0 0-.91 1.161c-.46 1.194-.929 2.386-1.38 3.584a.9.9 0 0 1-.154.295h-.02a1.51 1.51 0 0 0-1.506 1.378q-.12.362-.12.743c-.005 1.614-.005 3.22-.005 4.83 0 .044 0 .09.011.15h1.486v.2c0 .558-.01 1.115.018 1.683a1.19 1.19 0 0 0 .754 1.087 1.3 1.3 0 0 0 1.328-.129 1.3 1.3 0 0 0 .557-1.114v-1.725h10.266v.34c0 .53-.012 1.06.031 1.586a1.31 1.31 0 0 0 2.6-.086c.02-.557.011-1.1.015-1.65v-.205h1.504zm-15.106-3.248c.304-.81.603-1.627.915-2.436a.875.875 0 0 1 .908-.613h8.005a.866.866 0 0 1 .905.615c.421 1.114.832 2.228 1.247 3.33a1 1 0 0 1 .019.088H31.571zm-.597 5.2a1.414 1.414 0 1 1 .02-2.83 1.415 1.415 0 0 1-.021 2.822zm12.845 0a1.416 1.416 0 1 1 1.372-1.432 1.387 1.387 0 0 1-1.372 1.426z" fill="#071E6F"/>
</svg>
