<svg width="661" height="342" viewBox="0 0 661 342" fill="#fff" xmlns="http://www.w3.org/2000/svg">
  <path d="m257.697 298.026 8.93 40.559H158.265c-30.2 0-43.612-15.457-39.553-45.365l6.235-45.365c2.793-22.211-8.735-36.695-29.907-36.695s-37.052 13.185-41.728 33.805L40.972 335.5c-.227 1.754-1.754 3.085-3.54 3.085H4.147a3.57 3.57 0 0 1-3.54-4.059L22.04 177.551c.227-1.754 1.754-3.085 3.54-3.085h33.285a3.57 3.57 0 0 1 3.54 4.059l-2.242 15.879c14.646-15.457 33.026-23.802 53.873-23.802 37.377 0 58.257 25.101 52.964 63.712l-6.527 49.879c-.942 8.702 3.117 13.833 11.528 13.833h85.729z" fill="#FB8028"/>
  <path d="M186.025 256.299c0-46.859 35.201-82.287 81.735-82.287s81.735 35.46 81.735 82.287c0 46.826-35.201 82.287-81.735 82.287s-81.735-35.429-81.735-82.287m121.742 0c0-23.608-16.853-41.631-40.007-41.631s-40.007 18.023-40.007 41.631 17.146 41.63 40.007 41.63 40.007-17.99 40.007-41.63" fill="#FB8028"/>
  <path d="M620.648 269.941s-1.428 72.058-84.072 72.058c-23.349 0-45.008-10.943-51.827-29.291-14.646 18.997-34.584 29.291-57.933 29.291-34.876 0-63.095-24.127-58.419-61.147l7.177-52.444c.942-8.703-3.118-13.833-11.82-13.833H274.16l-5.812-40.559H377.75c30.2 0 43.611 15.457 39.552 45.365l-6.852 48.904c-2.793 19.939 7.794 33.155 26.79 33.155 18.997 0 33.643-11.593 37.702-29.615l12.664-94.724c.227-1.786 1.754-3.085 3.54-3.085h33.285a3.57 3.57 0 0 1 3.539 4.059l-12.21 90.243c-2.792 19.938 7.794 33.155 26.466 33.155s34.259-12.535 37.993-31.207l12.665-93.133c.227-1.753 1.754-3.085 3.54-3.085h33.285a3.57 3.57 0 0 1 3.539 4.059l-12.535 91.867" fill="#FB8028"/>
  <path fill-rule="evenodd" clip-rule="evenodd" d="M167.125 30.23c-59.945.097-68.453 64.978-68.29 74.006.714 39.097 38.87 37.441 42.701 37.441 62.414-.032 66.278-70.694 66.278-72.772-.747-39.39-37.734-38.676-40.689-38.676Zm-22.406 85.858c-1.332.065-14.938-2.143-13.606-17.925.584-6.657 7.111-41.143 32.505-41.143 6.105 0 14.678 3.214 14.873 15.522.065 2.305-5.261 42.15-33.74 43.546"/>
  <path d="m453.604 89.91-5.131 21.271s-7.696 7.728-18.51 7.728c-2.987 0-12.177 0-12.307-8.638-.455-23.12 35.948-20.328 35.948-20.328m4.708-19.646s-25.556-2.11-46.598 6.787c-15.523 6.592-28.122 19.84-27.992 41.143.032 5.975 7.339 22.504 29.745 23.446.909.097 19.224 1.104 29.258-5.878l-1.461 5.91h31.531s11.431-41.338 20.296-83.618c.26-1.137 4.741-29.453-43.319-27.732-5.975.195-26.011-.195-36.013-.195l-6.624 26.79h32.733c25.816 0 20.555 13.314 18.477 13.314M112.249 30.29 119.75.09H88.835C80.198.09 5.64-6.663.054 96.375c-.325 6.299-.844 45.592 52.606 45.527 4.125 0 27.083-.227 32.636-.227l7.728-30.2s-8.02.422-26.27.227c-19.062-.227-35.104 4.059-32.636-23.64.552-6.365 8.28-57.77 49.846-57.77h28.285Zm88.877 111.413h32.635s17.698-73.065 18.12-74.98c.422-1.82 4.124-9.775 18.282-9.775 4.124 0 13.412 1.136 12.567 12.73-.227 3.929-17.178 72.057-17.178 72.057h31.759s17.99-70.434 18.867-75.11c.227-1.364 8.151-33.22-22.991-36.175-3.929-.357-13.249-2.078-33.902 5.65l1.136-5.813-31.531.065-27.829 111.416zM340.37 13.63h31.759l-3.67 16.692 30.59-.13-6.527 26.79h-31.044s-10.587 43.547-11.074 45.495c-.779 2.858-4.546 13.379 10.229 13.379 5.715 0 17.179-.195 17.179-.195l-6.138 26.076s-10.781 0-23.868.098c-3.929 0-34.648 1.396-32.635-23.121.454-4.904 25.296-105.018 25.296-105.018m261.639-.066h31.758l-3.669 16.691 11.625-.065 18.932-.097-1.948 7.988-4.579 18.77h-31.044s-10.587 43.546-11.106 45.462c-.779 2.858-4.546 13.379 10.229 13.379 5.715 0 17.178-.195 17.178-.195l-6.137 26.076s-10.749 0-23.868.098c-3.929 0-34.681 1.396-32.603-23.121.422-4.904 25.264-105.018 25.264-105.018m-23.251 43.385h-20.166c-32.863.033-35.753 35.623-35.623 41.533.325 18.185 14.385 17.308 20.685 17.308 20.523-.032 21.205 0 21.205 0l-6.267 26.076c-4.904 0-17.016.033-23.771.033-46.631.032-46.209-34.162-45.754-38.676 7.176-76.701 72.382-73.032 74.461-73.032 22.179 0 21.984-.065 21.984-.065l-6.754 26.79z"/>
</svg>
