<svg xmlns="http://www.w3.org/2000/svg" width="19.563" height="19.326" viewBox="0 0 19.563 19.326">
  <path id="Path_7062" data-name="Path 7062" d="m162.207 36.138 1.432-1.432v10.046a.872.872 0 0 0 1.743 0V34.705l1.432 1.432a.872.872 0 0 0 1.233-1.233l-2.919-2.92a1 1 0 0 0-.132-.109l-.035-.019a1 1 0 0 0-.115-.061l-.051-.016a1 1 0 0 0-.111-.034.8.8 0 0 0-.455.034l-.052.016a1 1 0 0 0-.115.061l-.034.019a1 1 0 0 0-.132.109l-2.921 2.92a.872.872 0 0 0 1.233 1.233Zm10.342 1.662h-2.715a.872.872 0 1 0 0 1.743h2.715v9.763h-16.076v-9.758h2.715a.872.872 0 0 0 0-1.743h-2.715a1.746 1.746 0 0 0-1.744 1.744v9.763a1.746 1.746 0 0 0 1.744 1.744h16.076a1.746 1.746 0 0 0 1.744-1.744v-9.764a1.746 1.746 0 0 0-1.744-1.744Z" transform="translate(-154.729 -31.729)" fill="#081f70"/>
</svg>
