<svg width="18" height="12" viewBox="0 0 18 12" fill="none" xmlns="http://www.w3.org/2000/svg">
  <path d="M16.307.42H1.654A1.654 1.654 0 0 0 0 2.074v8.27A1.654 1.654 0 0 0 1.654 12h14.652a1.654 1.654 0 0 0 1.654-1.654V2.074A1.654 1.654 0 0 0 16.306.42zm.827 9.926a.827.827 0 0 1-.827.827H1.654a.827.827 0 0 1-.827-.827V2.075a.827.827 0 0 1 .827-.827h14.652a.827.827 0 0 1 .827.827l.001 8.27Zm-1.654-5.79a1.654 1.654 0 0 1-1.654-1.654.827.827 0 0 0-.827-.827H4.964a.827.827 0 0 0-.827.827 1.654 1.654 0 0 1-1.654 1.654.827.827 0 0 0-.827.827v1.654a.827.827 0 0 0 .827.827 1.654 1.654 0 0 1 1.654 1.654.827.827 0 0 0 .827.827H13a.827.827 0 0 0 .827-.827 1.654 1.654 0 0 1 1.654-1.654.827.827 0 0 0 .827-.827V5.383a.827.827 0 0 0-.827-.827zm0 2.48A2.48 2.48 0 0 0 13 9.52H4.965a2.48 2.48 0 0 0-2.481-2.481V5.385a2.48 2.48 0 0 0 2.481-2.481H13a2.48 2.48 0 0 0 2.481 2.48l-.001 1.653Zm-6.5-2.9a2.068 2.068 0 1 0 1.462.607 2.07 2.07 0 0 0-1.462-.601zm0 3.31a1.241 1.241 0 1 1 .877-.363 1.24 1.24 0 0 1-.877.368z" fill="#081F70"/>
</svg>
