<svg xmlns="http://www.w3.org/2000/svg" width="19.383" height="19.361" viewBox="0 0 19.383 19.361">
  <path id="Path_6770" data-name="Path 6770" d="M97.382 17.991a9.581 9.581 0 1 0 6.851 16.44.5.5 0 0 0 .059-.071.5.5 0 0 0 .044-.081.5.5 0 0 0 .027-.088.5.5 0 0 0 .007-.136l-.007-.045-.012-.045c0-.015-.01-.029-.016-.043l-.02-.041-.024-.039-.028-.037-.031-.034-.014-.013-1.309-1.165a3.7 3.7 0 0 0 .843-1.635.46.46 0 0 0-.224-.5l-3.328-1.885a.46.46 0 0 0-.489.021l-.79.543-2.945-2.945.542-.791a.46.46 0 0 0 .022-.488l-1.876-3.328a.46.46 0 0 0-.5-.224 3.75 3.75 0 0 0-1.818 1.014 3.564 3.564 0 0 0-.033 4.954l5.471 5.471a3.574 3.574 0 0 0 4.426.4l.023.022.987.88a8.653 8.653 0 1 1 1.794-2.16.463.463 0 1 0 .8.467 9.58 9.58 0 0 0-8.432-14.419Zm-3.306 4.436 1.517 2.689-.6.87a.46.46 0 0 0 .054.589l3.488 3.489a.46.46 0 0 0 .589.054l.87-.6 2.691 1.518a2.7 2.7 0 0 1-.6 1.079 2.69 2.69 0 0 1-3.647.033l-5.474-5.474A2.686 2.686 0 0 1 93 23.03a2.7 2.7 0 0 1 1.079-.6Z" transform="translate(-87.859 -17.889)" fill="#081f70" stroke="#081f70" stroke-width=".2"/>
</svg>
