<svg width="18" height="16" viewBox="0 0 18 16" fill="none" xmlns="http://www.w3.org/2000/svg">
  <path fill-rule="evenodd" clip-rule="evenodd" d="M15.799 7.43h-2.052c-1.084 0-1.89.806-1.89 1.714s.806 1.714 1.89 1.714h2.071c.157-.01.224-.116.23-.18V7.61c-.006-.063-.073-.17-.23-.179zm-.056-1.143q.077 0 .144.002c.664.04 1.251.541 1.3 1.24q.005.072.003.142v2.946c0 .045 0 .095-.003.14-.049.7-.636 1.2-1.3 1.241a2 2 0 0 1-.144.003h-1.996c-1.634 0-3.033-1.24-3.033-2.857s1.399-2.857 3.033-2.857z" fill="#4B5565"/>
  <path d="M14.333 9.144a.762.762 0 1 1-1.523 0 .762.762 0 0 1 1.523 0" fill="#4B5565"/>
  <path fill-rule="evenodd" clip-rule="evenodd" d="M15.743 6.287q.077 0 .144.002.26.016.492.12c-.082-1.224-.306-2.168-1.01-2.872-.57-.57-1.294-.823-2.187-.943l-.032-.004-.025-.018L10.28.685a3.04 3.04 0 0 0-3.32 0L4.113 2.572l-.025.018-.032.004c-.893.12-1.616.373-2.186.943S1.046 4.83.926 5.724C.81 6.592.81 7.7.81 9.1v.086c0 1.4 0 2.509.116 3.377.12.893.373 1.616.944 2.187.57.57 1.293.823 2.186.943.868.116 1.977.116 3.377.116h2.372c1.4 0 2.51 0 3.377-.116.893-.12 1.616-.373 2.187-.944.704-.704.928-1.647 1.01-2.871a1.44 1.44 0 0 1-.636.122h-.52c-.087 1.022-.283 1.562-.663 1.941-.322.323-.764.516-1.53.62-.783.104-1.815.106-3.268.106H7.476c-1.453 0-2.485-.002-3.268-.107-.766-.103-1.208-.296-1.53-.619-.323-.322-.516-.764-.62-1.53-.104-.783-.106-1.815-.106-3.268s.002-2.485.107-3.268c.103-.767.296-1.208.619-1.53.322-.323.764-.516 1.53-.62.783-.105 1.815-.106 3.268-.106h2.286c1.453 0 2.485.001 3.268.106.766.104 1.208.297 1.53.62.38.38.576.919.663 1.94h.52m-8.31-3.81h2.372q.59 0 1.113.003l-1.27-.842a1.9 1.9 0 0 0-2.058 0l-1.27.842q.524-.004 1.113-.003" fill="#4B5565"/>
  <path d="M4.429 5.525a.571.571 0 0 0 0 1.143h3.047a.571.571 0 0 0 0-1.143z" fill="#4B5565"/>
  <path fill-rule="evenodd" clip-rule="evenodd" d="M14.333 9.144a.762.762 0 1 1-1.523 0 .762.762 0 0 1 1.523 0" fill="#4B5565"/>
</svg>
