<svg width="33" height="33" viewBox="0 0 33 33" fill="none" xmlns="http://www.w3.org/2000/svg">
  <g clip-path="url(#clip0_1491_36735)" stroke-width=".5" stroke="#081F70" fill="#081F70">
    <path d="M31.15 17.936h-2.475a1.18 1.18 0 0 0-1.173 1.084h-7.764a2.88 2.88 0 0 0-2.665 1.788H12c-1.29 0-2.361.958-2.537 2.2L4.788 20.76a2.4 2.4 0 0 0-1.036-.235c-.924 0-1.779.535-2.178 1.364a2.4 2.4 0 0 0-.102 1.854 2.38 2.38 0 0 0 1.23 1.368l6.713 3.234a13.7 13.7 0 0 0 5.907 1.35h.007l1.604-.002a10.18 10.18 0 0 0 7.863-3.76h2.697c.003.65.532 1.177 1.182 1.177h2.476c.652 0 1.183-.53 1.183-1.183V19.12c0-.653-.53-1.183-1.183-1.183Zm-6.597 6.998a.5.5 0 0 0-.397.195 9.17 9.17 0 0 1-7.223 3.564l-1.605.001h-.006c-1.884 0-3.776-.432-5.473-1.25L3.133 24.21a1.412 1.412 0 0 1 .618-2.684q.317 0 .607.138l5.207 2.505A2.57 2.57 0 0 0 12 25.934h3.52a.5.5 0 1 0 0-1H12a1.565 1.565 0 0 1-1.563-1.563c0-.862.701-1.563 1.563-1.563h5.432a.5.5 0 0 0 .484-.376 1.88 1.88 0 0 1 1.82-1.412h7.755v4.914h-2.94Zm6.78.993a.183.183 0 0 1-.182.183h-2.476a.183.183 0 0 1-.183-.183V19.12c0-.101.082-.183.183-.183h2.476c.1 0 .183.082.183.183v6.808Zm-19.435-7.212a5.4 5.4 0 0 0 .872 0c1.578-.128 2.964-.996 3.802-2.38a5.26 5.26 0 0 0 .348-4.766l-.776-1.83-.033-.062-2.115-4.537a1.82 1.82 0 0 0-1.662-1.059c-.72 0-1.358.406-1.662 1.06L8.559 9.67l-.035.069-.776 1.829a5.26 5.26 0 0 0 .348 4.766c.838 1.384 2.224 2.251 3.802 2.38Zm-3.23-6.755.756-1.781.02-.04 2.134-4.577a.82.82 0 0 1 .756-.482c.333 0 .615.18.756.482l2.133 4.578.02.036.756 1.784a4.26 4.26 0 0 1-.283 3.857c-.67 1.106-1.773 1.799-3.028 1.9-.234.02-.474.02-.709 0-1.254-.101-2.357-.794-3.027-1.9a4.26 4.26 0 0 1-.283-3.857Z"/>
    <path d="M13.742 16.082a.5.5 0 0 0 .322-.118c.943-.793 1.263-2.148.776-3.295l-.382-.9a.5.5 0 0 0-.106-.158l-.004-.004a.5.5 0 0 0-.804.567l.376.886c.316.746.11 1.626-.5 2.14a.5.5 0 0 0 .322.882Z"/>
  </g>
  <defs>
    <clipPath id="clip0_1491_36735">
      <path fill="#fff" d="M.833.887h32v32h-32z"/>
    </clipPath>
  </defs>
</svg>
