<svg xmlns="http://www.w3.org/2000/svg" fill="#071e6f" width="75.366" height="41.403" viewBox="0 0 75.366 41.403">
  <g id="Group_4946" data-name="Group 4946" transform="translate(-186.741 -195.996)">
    <path id="Path_7102" data-name="Path 7102" d="M304.092 319.1a1.29 1.29 0 0 1-1.293-1.008 16.907 16.907 0 0 0-33.012 0 1.293 1.293 0 1 1-2.521-.569 19.493 19.493 0 0 1 38.054 0 1.293 1.293 0 0 1-.893 1.577Z" transform="translate(-61.906 -81.739)"/>
    <path id="Path_7103" data-name="Path 7103" d="M316.748 215.953a9.978 9.978 0 1 1 7.056-2.923 9.98 9.98 0 0 1-7.056 2.923m0-17.373a7.407 7.407 0 1 0 5.224 2.169 7.4 7.4 0 0 0-5.224-2.169" transform="translate(-92.324)"/>
    <path id="Path_7104" data-name="Path 7104" d="M188.038 309.613h-.284a1.293 1.293 0 0 1-.983-1.538 14.37 14.37 0 0 1 13.948-11.275 14.1 14.1 0 0 1 5.92 1.292 1.293 1.293 0 1 1-1.073 2.34 11.6 11.6 0 0 0-4.847-1.047 11.79 11.79 0 0 0-11.426 9.178 1.29 1.29 0 0 1-1.254 1.047Z" transform="translate(0 -77.54)"/>
    <path id="Path_7105" data-name="Path 7105" d="M225.273 228.416a7.5 7.5 0 1 1 5.339-2.169 7.5 7.5 0 0 1-5.339 2.169m0-12.4a4.913 4.913 0 1 0 3.473 1.439 4.9 4.9 0 0 0-3.473-1.439" transform="translate(-23.921 -13.404)"/>
    <path id="Path_7106" data-name="Path 7106" d="M442.769 309.613a1.3 1.3 0 0 1-1.293-1.008 11.79 11.79 0 0 0-11.388-9.217 11.55 11.55 0 0 0-4.847 1.047 1.293 1.293 0 1 1-1.073-2.34 14.1 14.1 0 0 1 5.92-1.292 14.374 14.374 0 0 1 13.947 11.245 1.293 1.293 0 0 1-.983 1.538Z" transform="translate(-181.959 -77.54)"/>
    <path id="Path_7107" data-name="Path 7107" d="M424.935 228.416a7.5 7.5 0 1 1 5.288-2.2 7.5 7.5 0 0 1-5.288 2.2m0-12.4a4.912 4.912 0 1 0 3.465 1.444 4.9 4.9 0 0 0-3.465-1.444" transform="translate(-177.438 -13.405)"/>
  </g>
</svg>
