<svg xmlns="http://www.w3.org/2000/svg" width="1080" viewBox="0 0 810 810" height="1080" version="1.0">
  <defs>
    <clipPath id="ade944a752">
      <path d="M67.465 82h639.71v728H67.466Zm0 0"/>
    </clipPath>
  </defs>
  <path fill="#f2b7a1" d="m610.281 399.129 6.371 23.945s9.215-6.09 10.203-7.156c.989-1.055-1.355-19.566-1.355-19.566Zm9.32-103.25-.867 2.297s-11.445 25.047 2.07 25.36c0 0 9.126 1.741 10.915-5.852l1.789-7.598 4.984.223-.61-14.43Zm-40.913 417.973c3.41 2.265 8.714-1.137 8.714-6.438V675.98H572.25s3.031 35.594 6.438 37.872m-67.399-37.872.016 2.872s-2.297 20.035.898 25.644c7.68 13.442 28.113 13.852 28.113 13.852l-17.375-42.368ZM658.66 274.012s-13.387 15.715-11.703 21.867c1.672 6.14-3.441 29.64-3.441 29.64h2.793c27.93-4.222 12.351-51.507 12.351-51.507m-38.617-2.367c1.074.359 2.375-7.04 3.176-12.426.988-2.88 1.597-5.078 1.597-5.078s-8.332-16.317-14.496-17.266c-6.168-.945-14.43-2.5-15.597 1.52 0 0-.348 1.12-.852 2.914-.98.558-1.621 1.316-1.758 2.367 0 0-.61 4.066-1.05 9.164-1.036 5.312-1.645 10.648-.602 13.195.094.23.23.442.383.649.21 2.109.61 3.867 1.27 4.96 3.355 5.586 26.257-.554 27.929 0m32.242-114.532s8.293-3.347 7.77-18.949c0 0-3.66-6.851-7.07 2.055-3.403 8.906-6.82 1.02-5.97-3.586.852-4.602-1.132-10.13-1.132-10.13s-6.871 2.161-12.27 1.532c0 0-2.777 6.445-7.89 1.23-5.106-5.218-17.88 2.766-17.88 2.766s-7.35 28.828 5.177 33.274l-1.211 4.496s-14.16 19.726 1.73 20.754c14.59.945 22.07-4.625 22.07-4.625s10.098 1.87 12.086-.586c1.985-2.453 4.59-28.23 4.59-28.23M531.953 117.16s-24.14 2-25.062 27.844c-1.364 38.223 13.918 41.328 15.914 43.543 0 0-.375 42.816-4.348 49.574 0 0 18.266 5.945 21.45 5.547 3.179-.402 11.933-2.387 11.534-6.766-.394-4.375-10.34-7.554-9.937-12.73.394-5.168 19.504-39.14 20.707-44.324 1.187-5.176 2.328-29.895 2.328-29.895s-.758-37.172-32.586-32.793M495.56 260.297s-5.047-.418-7.993-1.68c-2.937-1.258 2.102-11.347 1.266-20.176-.84-8.828-14.71-6.726-16.394-6.308-1.684.426-38.676 47.086-48.344 75.254-9.672 28.156 57.172 62.625 57.172 62.625l-8.723 31.324 10.937 19.3c5.29 0 12.239-40.945 12.079-50.624-.16-9.938-44.934-63.153-46.66-65.153 18.492-10.093 46.66-44.562 46.66-44.562m-62.438-86.149-2.383-20.117c3.754-3.402 5.11-19.765 5.11-19.765 7.16 1.363 8.863-8.524 7.504-18.75-1.364-10.223-7.504-4.086-7.504-4.086s-1.356-5.793-2.727-14.653c-1.363-8.859-7.152-6.828-17.726-6.14-10.563.675-7.836-10.57-23.856-8.184-16.023 2.39-9.379 27.969-9.203 28.977.809 4.566-1.156 5.699-1.156 5.699-7.543-3.93-8.016 8.789-6.285 19.785 1.726 10.992 11.918 8.024 11.918 8.024 1.292 6.242 8.453 11.242 8.453 11.242s-.66 10.465-.66 20.015c0 9.543 12.273 12.266 12.273 12.266 27.613 1.363 26.242-14.313 26.242-14.313M262.355 714.254s7.73 2.473 7.73 0 11.86-62.774 11.86-66.899c0 0-18.047-1.277-27.316-5.02 0 0 6.7 63.052 7.726 71.919m-41.152 0h8.899l14.832-71.918s-24.079 2.957-27.047 5.918Zm-3.316-203.348c-4.551-1.574-7.215-9.422-11.895-10.363-4.074 7.89-7.176 24.898-8.5 33.684-2.062 13.652-2.324 27.406-4.074 41.05l-16.79 24.012s5.563 2.86 10.642.805c5.082-2.055 9.34-6.469 13.066-12.055l7.976-22.875 9.575-28.723zm98.601-87.832s-4.601 17.617-9.101 30.121c-2.254 6.25-1.125 11.75.562 15.696-7.883-9.172-20.804-12.383-20.804-12.383l.234 37.449s16.508 20.754 24.004 18.754c7.504-2 16.508-37.512 16.508-37.512l8-8.058-6.5-14.446 3.3-3 5.2 9.504h11.004l-13.004-40.015Zm-74.406 43.13-4.613-10.9 1.261-7.132c-7.667-.98-13.835-17.192-13.835-17.192-3.356-27.664 15.511-30.183 15.511-30.183 18.031-1.676 23.48 12.16 28.09 10.48 4.613-1.675 4.613 16.774 4.613 16.774s-7.968 6.285-7.968 12.582c0 6.285 3.773 11.734 3.773 11.734-11.316 20.13-26.832 13.836-26.832 13.836"/>
  <g clip-path="url(#ade944a752)">
    <path fill="#f60" d="M268.879 450.86s.082.023.234.062c-.082-.11-.234-.063-.234-.063m18.5 30.48s.8-23.137.8-24.43c0-1.203-16.89-5.45-19.066-5.988.215.273-.039 1.637-4.656 7.883-6.402 8.644-29.148 5.57-29.148 5.57-12.246-2.762-17.422 10.824-17.422 10.824v61.242s-2.825 35.184-2.825 45.618c0 10.425-8.113 24.918-13.902 45.777-5.8 20.851 10.426 22.016 10.426 22.016 31.285-8.688 46.934-1.743 70.36-2.497 23.417-.75 16.55-90.793 10.183-107.597-6.379-16.805-4.75-58.418-4.75-58.418M707.043 162.8a196 196 0 0 1-26.965-23.19c-1.219-1.262-6.547.785-5.273 2.1a195.5 195.5 0 0 0 26.96 23.188c1.02.723 2.637.344 3.7-.082.433-.175 2.558-1.316 1.578-2.015M196.746 605.583c-10.96 14.824-27.254 24.227-44.57 29.836-8.692 2.805-17.656 4.793-26.688 6.125-10.68 1.566-22.074 2.543-32.46-1.106-9.43-3.316-17.712-10.66-19.88-20.69-.578-2.712-6.234-1.243-5.64 1.507 2.027 9.406 9.02 16.668 17.383 20.973 10.222 5.253 22.214 5.601 33.425 4.453 20.008-2.07 40.606-7.16 58.102-17.352 9.703-5.648 18.387-12.906 25.082-21.973 2.148-2.898-3.148-3.94-4.754-1.773m-75.95 6.652a67.3 67.3 0 0 0 23.825-3.754c1.14-.394 2.656-1.367 2.266-2.812-.356-1.332-2.239-1.707-3.38-1.313a62.7 62.7 0 0 1-22.277 3.504c-1.27-.039-2.957 1.012-3.09 2.368-.128 1.52 1.47 1.976 2.657 2.007M670.853 98.687a9 9 0 0 0 2.199-.503c.535-.196 1.18-.41 1.594-.82 4.777-4.778 9.558-9.552 14.335-14.333.868-.86-.773-.883-1.3-.828a9 9 0 0 0-2.2.504c-.53.195-1.18.41-1.59.82-4.78 4.782-9.558 9.551-14.34 14.332-.866.868.778.883 1.302.829M171.57 647.786c-1.16-.777-2.953-.117-4.011.461a142.2 142.2 0 0 1-42.528 14.926c-1.058.191-3.031.707-3.176 2.047-.144 1.265 1.555 1.597 2.497 1.43a155.7 155.7 0 0 0 46.789-16.415c.976-.527 1.472-1.757.43-2.449M676.86 117.32c-.864.836-.626 1.88.577 2.16a65.3 65.3 0 0 0 22.961 1.157c1.086-.145 2.954-.723 3.18-2 .242-1.29-1.652-1.461-2.473-1.356a57.3 57.3 0 0 1-20.253-1.035c-1.325-.305-3.012.121-3.993 1.074M612.53 766.426c2.52-2.14 4.989-4.34 7.367-6.637 2.649-2.559 5.559-5.16 7.817-8.074 1.008-1.305-.016-2.582-1.02-3.73a10.2 10.2 0 0 0-2.816-2.278c-2.2-1.2-4.945-1.75-7.426-1.277-6.066 1.148-8.105 8.53-7.308 13.836.457 3.03 1.66 5.793 3.386 8.16m60.332-176.934c15.633 28.848 21.149 62.707 16.942 95.149-2.117 16.347-6.746 32.382-13.883 47.254a146 146 0 0 1-12.246 20.906c-5.067 7.183-10.938 13.922-18.5 18.547-9.934 6.082-25.246 8.097-34.516.777-12.648 9.766-26.637 17.777-41.394 23.883-30.645 12.68-64.774 17.176-97.559 11.789-1.195-.2-1.27-.914-.441-1.66.937-.852 2.754-1.27 3.988-1.067 3.7.61 7.414 1.106 11.14 1.461 29.782 2.871 60.192-2.691 87.301-15.25a170.7 170.7 0 0 0 34.606-21.37 19.7 19.7 0 0 1-3.621-5.845c-2.446-6.082-1.72-13.632 3.37-18.152 4.63-4.101 11.856-5.387 17.731-3.738 2.657.746 5.192 2.246 6.813 4.515.746 1.043 1.797 2.54 1.308 3.782-.547 1.386-2.777 3.066-3.797 4.14-4.832 5.082-10 9.848-15.418 14.301a18.5 18.5 0 0 0 6.958 4.2c16.535 5.472 29.894-9.954 38.128-22.055 16.825-24.72 25.457-54.758 25.739-84.57.289-29.887-7.703-59.97-24.02-85.114-1.074-1.66 4.414-3.41 5.274-2.086 2.16 3.324 4.21 6.719 6.097 10.203M490.301 399.13s2.73-12.793 5.258-29.117c2.52-16.317 17.214-44.492 17.214-44.492-10.488-19.899-12.753-61.243-12.753-61.243 12.007-4.847 19.421-32.664 19.421-32.664s8.887 7.785 14.72 9.774c12.527 4.285 17.28-4.485 17.28-4.485s-6.043 15.313 5.024 20c11.074 4.7 25.36-34.847 25.36-34.847s12.292-9.078 8.796 9.558c-3.492 18.649-11.43 47.985-11.43 47.985l11.43 4.074c-15.355 26.219-6.187 71.66-6.187 71.66l18.64 38.45c-60.59 26.804-112.773 5.347-112.773 5.347"/>
  </g>
  <path fill="#ffde22" d="m512.773 325.52-22.472-38.204s5.789 79.872 5.258 82.696c-.54 2.832-46.66-65.153-46.66-65.153l42.84-40.023 8.28-.559Zm-31.507 44.492-8.723 31.324c-83.7 31.965-118.121 9.531-118.121 9.531l-5.527-37.789-13.004 46.106-19.403 3.89s1.035-171.55 6.875-203.636a30 30 0 0 1 1.102-4.27c3.683-11.09 12.574-19.95 21.46-27.117 10.055-8.106 21.372-15.016 32.993-20.625a163 163 0 0 1 9.195-4.102c.34-.137 6.88-2.191 6.871-1.71a54 54 0 0 0-.03 1.14c-.052 3.586.007 7.176.335 10.746.168 1.879.387 3.79.906 5.617.66 2.344 2.29 3.82 4.352 5.047 4.652 2.754 10.176 3.711 15.52 3.3 5.128-.394 10.511-1.82 14.054-5.784 1.074-1.2 1.957-2.61 2.504-4.14.16-.454.648-1.575.398-2.075-.312-.633-1.734-16.77-1.734-16.77l18.3 4.211c18.29 4.117 45.97 29.766 45.97 29.766s-15.954 19.473-19.848 24.078c-3.899 4.605-1.766 14.863-1.766 14.863l-1.507.52s-56.122 69.969-46.813 91.144c9.309 21.172 55.64 46.735 55.64 46.735m141.953-110.793c-2.192 6.773-5.215 13.058-6.285 12.699-1.059-.348.308-.012-.73.152-2.614.43-5.224.89-7.849 1.25-4.277.578-12.687 2.36-15.96-1.43-.844-.968-1.23-2.238-1.512-3.488-1.61-7.09-.352-14.48.902-21.636.352-1.97.168-4.368 2.086-5.457.504-1.793.852-2.914.852-2.914 1.168-4.02 9.43-2.465 15.597-1.52 6.164.95 14.496 17.266 14.496 17.266s-.609 2.199-1.597 5.078m44.574-77.133c-4.285-12.004-16.34-17.512-16.34-17.512-.055 2.48-4.969 10.418-5.5 11.317-3.851 6.507-9.797 10.347-17.348 11.14-6.421.684-13.5-1.398-15.859-8.015-1.043-2.922-1.035-6.11-1.004-9.215-1.508.512-18.586 5.344-18.594 6.3l-.203 24.462c-.093 5.183-2.375 10.425-3.793 15.359a1433 1433 0 0 1-4.914 16.68c-3.875 12.863-11.996 24.378-9.156 38.382.57 2.801 1.469 7.086 3.434 9.278 1.734 1.941 4.945 2.215 7.351 2.23 6.27.035 29.156 1.324 29.156 1.324l-3.472 8.973s1.863 1.871 9.347 3.363c7.473 1.5 27.641-1.597 27.641-1.597l10.121-20.543c22.809-24.012 13.418-79.918 9.133-91.926"/>
  <path fill="#2c2928" d="M615.836 419.438s-25.106 27.585-11.918 22.214c13.18-5.375 24.91-16.218 24.91-16.218l-1.973-9.516ZM603.62 124.836s-.008.328 0 .855c.07 2.555.7 9.88 6.067 8.036 6.46-2.223 12.12-5.25 14.343-2.418 2.223 2.82 9.082 2.257 10.711.804 1.63-1.445 10.707-5.457 10.508.403-.203 5.863 2.078 15.07 2.504 14.972.426-.101 9.84-12.246 11.75-9.261 1.906 2.98.55.859.55.859l-.109 4.004s6.032-12.203 1.762-24.442c-4.277-12.226-24.25-10.933-40.945-9.183-16.692 1.742-17.149 15.7-17.149 15.7m-80.808 63.382c-12.711-12.43-13.274-19.652-14.903-36.29-1.62-16.636 20.368-43.898 41.266-31.695 25.32 14.77 10.473 62.32 8.852 63.708-2.102 1.78-32.028 28.773-19.575 47.343 3.25 4.84 9.239 12.18 8.242 23.938-.992 11.75 15.274 13.851 25.473 1.351 10.195-12.496 7.45-13.957 17.11-27.39 9.648-13.43 3.757-63.805-2.125-98.5-5.875-34.7-36.942-36.508-36.942-36.508-78.512-4.453-52.902 79.598-52.058 85.754.84 6.156-13.02 18.187-13.02 18.187-24.348 24.774-16.371 37.79-12.59 39.47 3.777 1.675 13.016 2.1 10.07 12.253-2.937 10.152 3.364 13.777 3.364 13.777 32.742 7.375 38.168-28.547 38.168-28.547 2.297-8.214-1.332-46.851-1.332-46.851m47.277 489.336s-1.121 44.445 2.168 48.86c3.297 4.413 18.73 4.589 19.59 0s-2.52-50.763-2.52-50.763l-2.699.395s3.02 35.582-5.207 35.605c0 0-4.363 1.856-5.914-9.003-1.55-10.864-3.082-25.133-3.082-25.133Zm-61-1.035-2.64 41h2.566l2.281-8.434s7.961 14.422 18.836 19.012c10.883 4.582 19.543 3.402 15.703-4.453-2.52-5.16-8.945-14.75-7.637-10.473 1.332 4.348-10.62 1.129-12.914-.281-2.687-1.66-5.097-3.805-7.007-6.356-3.497-4.664-5.48-10.37-6.387-16.133-.387-2.48-.578-5-.578-7.511l-.016-6.051Zm-127.7-570.48c-2.495-15.845 4.798-19.31 12.438-22.005 7.64-2.699 12.192 3.09 15.098 5.383 2.918 2.281 20.184.754 22.035 1.91 1.664 1.043 1.824 6.156 2.094 7.817.691 4.277 1.148 8.582 1.648 12.882.047.375.102.762.297 1.082.672 1.09 2.094 1.02 2.567.145.234-.434.207-1.285.28-1.773.829-5.434 1.485-10.907 1.856-16.403.375-5.441.953-11.71-.828-16.976-3.137-9.309-46.691-7.293-59.805 0-13.113 7.289-.023 39.629 1.02 40.047 6.875 2.77 1.3-12.11 1.3-12.11m85.34 595.679.024 9.215s43.942 28.093 45.457 24.515c1.524-3.586-30.594-35.457-30.594-35.457Zm-87.855.851s-37.027 30.137-36.055 33.907c.977 3.765 50.985-20.84 50.985-20.84l-1.66-12.281Zm-116.512 11.356v5.394s33.008 9.317 29.72 5.11c-3.282-4.219-21.99-10.504-21.99-10.504Zm-41.152 0s-18.012 6.285-21.3 10.504c-3.282 4.207 30.253-4.918 30.253-4.918l-.054-5.586Zm20.879-248.05s.129.335.316.937c2.79 8.718 3.762 17.523-2.199 25.082-3.004 3.804-6.672 7.308-8.203 11.902-1.5 4.492-.785 9.598-2.883 13.836-2.125 4.3-7.199 6.941-11.941 6.203-6.918-1.066-11.348-8.242-12.488-15.144-1.676-10.153 1.636-20.368 3.855-30.41 1-4.516 1.766-9.31.262-13.68-1.332-3.88-4.293-6.93-6.586-10.34-7.61-11.356-7.328-26.836-1.469-39.195 5.863-12.36 16.602-21.868 28.441-28.707 11.028-6.38 24.5-10.754 36.442-6.301 7.152 2.672 12.96 8.316 16.781 14.93 3.828 6.613 5.797 14.148 6.832 21.722a96.2 96.2 0 0 1-2.722 38.906q-7.066-1.282-14.133-2.558c-1.34-.235-2.742-.504-3.79-1.364-1.265-1.027-1.78-2.68-2.23-4.238-1.195-4.187-2.293-8.875-.254-12.726 1.524-2.875 4.598-4.817 5.688-7.883 1.222-3.477-.473-7.293-2.559-10.328a39.6 39.6 0 0 0-10.883-10.649c-4.328-2.828-9.527-4.84-14.636-3.98-6.961 1.18-12.063 7.383-14.762 13.906-2.133 5.129-3.191 10.836-2.133 16.285 1.067 5.45 4.453 10.594 9.469 12.977 1.164.55 2.48 1.02 3.137 2.125.441.746.492 1.644.539 2.496.297 5.515.168 11.308 2.238 16.531"/>
  <path fill="#0f0550" d="M643.516 325.52s5.867-19.125 5.023-30.965l-10.656 1.324.61 14.238-4.985-.031-1.79 7.598c-1.788 7.593-10.913 5.851-10.913 5.851-10.371-5.691-1.203-27.656-1.203-27.656l-8.051-3.09 3.472-8.973-29.156-1.324s-15.695 43.426-1.433 72.84c8.761 18.066 14.605 31.273 17.824 38.79-7.121 2.917-61.196 23.698-111.957 5.007 0 0-2.184 4.836-4.074 16.789 0 0-2.747 1.227-7.7-5.05l-5.984-9.532s-71.098 19.95-118.121 9.531c0 0 1.918 190.438 24.445 292.031l13.27.786 33.351-245.266 41.235 243.629 14.886-1.727 8.887-155.09a1082 1082 0 0 0 5.063 32.36l7.718 71.953s-3.761 23.09 2.594 26.437c6.356 3.34 25.45 0 25.45 0s2.593 2.133 0-24.363c-2.594-26.492 22.335-199.457 22.335-199.457l11 197.692s-4.765 24.886-2.172 27.613c2.598 2.722 29.09-1.485 29.09-1.485s39.961-232.136 38.547-241.34c-.512-3.34-3.02-20.074-3.02-20.074l-10.449 8.508-6.058-22.785 32.922-6.508s-13.555-21.476-11.973-30.293c1.578-8.82 11.973-37.968 11.973-37.968m-25.258-50.258c1.46.218 2.914-.52 3.676-1.735 10.203-16.355 13.726-36.336 9.87-55.207-.534-2.636-6.195-1.18-5.648 1.512 3.723 18.2.063 37.75-9.636 53.031-.766 1.219.687 2.239 1.738 2.399M259.44 513.379c.442-.129.25-.106 0 0m-.199 7.367c-.113-1.758-.488-3.91-1.324-5.508-.04.059-.074.106-.106.168-1.34 2.395-2.832 4.582-4.628 6.559 1.73-.524 3.906-.5 3.64.457-.238.875.098 1.758.742 2.375.16.16.329.273.504.379.328-.477.649-1.051.7-1.164.425-1.043.543-2.145.472-3.266m-1.605 4.992c-.145.047-.258.086-.219.125.035.035.121-.023.219-.125m-11.75-1.488a4.32 4.32 0 0 1-.657-3.668c-.5-.367-1.003-.727-1.5-1.082-.05 1.285-.105 2.578-.152 3.875-.035.934.047 1.625.367 2.395.215-.145.434-.282.649-.434.457-.336.86-.723 1.293-1.086m17.898-10.023c1.606 4.062 1.918 9.445-2.105 12.175-2.125 1.438-5.39 2.375-7.88 1.371-1.59-.632-2.784-2.062-2.695-3.738-.136.13-.257.266-.402.387-1.508 1.289-3.18 2.52-4.96 3.394-1.868.914-5.563 2.133-7.157.137-1.125-1.414-.629-3.703-.563-5.348.094-2.351.192-4.703.282-7.054.039-1 1.37-1.446 2.164-1.715.91-.305 2.426-.676 3.3-.059 1.547 1.078 3.09 2.16 4.637 3.235.145.097.29.203.434.304.45-.101.89-.175 1.316-.191.328-.016.98.07 1.371.305.371-.633.735-1.266 1.133-1.895 1.375-2.2 3.363-3.57 5.965-3.98 2.383-.368 4.262.386 5.16 2.672m97.59-118.512c-.594 1.02.512 1.14 1.379 1.101l81.539-3.734c1.035-.055 3.191-.406 3.77-1.402.593-1.012-.504-1.14-1.38-1.102-27.183 1.246-54.363 2.496-81.538 3.742-1.036.047-3.192.395-3.77 1.395m-.008-55.215c-.57 1.055.496 1.332 1.434 1.293a385 385 0 0 0 52.808-5.688c.762-.136 3.22-.66 3.258-1.726.047-1.11-1.582-1.012-2.344-.875a374 374 0 0 1-51.402 5.555c-1.066.039-3.172.382-3.754 1.441m2.781-21.621c15.243-1.492 30.48-2.977 45.715-4.469.836-.086 3.106-.672 3.266-1.715.183-1.132-1.719-.894-2.336-.836q-22.859 2.241-45.719 4.47c-.828.081-3.105.667-3.265 1.71-.172 1.14 1.73.899 2.34.84m56.461-55.742c.13-1.285-1.53-1.703-2.52-1.528-14.694 2.649-29.39 5.301-44.077 7.95-1.09.199-3.024.726-3.168 2.101-.13 1.285 1.539 1.707 2.527 1.531 14.695-2.656 29.383-5.304 44.082-7.953 1.086-.199 3.012-.722 3.156-2.101m-52.054-2.586c17.922-2.309 35.851-4.613 53.773-6.918 1.113-.137 3.016-.778 3.152-2.133.137-1.332-1.523-1.719-2.543-1.59l-53.773 6.918c-1.113.145-3.016.777-3.152 2.137-.137 1.332 1.523 1.723 2.543 1.586m-8.57 34.172c-2.352 24.71-5.442 49.3-9.255 73.722-.222 1.383-3.722 2.11-3.488.602 1.082-6.926 2.11-13.86 3.074-20.817a1240 1240 0 0 0 7.993-73.945c.105-1.36 3.617-2.207 3.488-.605q-.823 10.536-1.813 21.043"/>
</svg>
