<svg xmlns="http://www.w3.org/2000/svg" width="129" height="117" viewBox="0 0 129 117" fill="none">
  <path d="M103.913 66.35a3.485 3.485 0 0 1-3.217-2.15 3.5 3.5 0 0 1-.265-1.333 39.836 39.836 0 0 0-39.79-39.79 3.483 3.483 0 0 1 0-6.966 46.81 46.81 0 0 1 46.755 46.756 3.483 3.483 0 0 1-3.483 3.482" fill="#F5CF5D"/>
  <path d="M17.365 66.35a3.483 3.483 0 0 1-3.482-3.483A46.81 46.81 0 0 1 60.638 16.11a3.483 3.483 0 0 1 0 6.965 39.835 39.835 0 0 0-39.79 39.79 3.483 3.483 0 0 1-3.483 3.483" fill="#FF8300"/>
  <path d="M60.638 109.62a46.807 46.807 0 0 1-46.755-46.755 3.483 3.483 0 0 1 6.965 0 39.835 39.835 0 0 0 39.79 39.79 3.483 3.483 0 0 1 0 6.965" fill="#FDCB42"/>
  <path d="M60.639 109.62a3.483 3.483 0 0 1 0-6.965 39.835 39.835 0 0 0 39.79-39.79 3.483 3.483 0 1 1 6.965 0 46.81 46.81 0 0 1-46.755 46.755" fill="#FF8300"/>
  <path d="M60.64 23.084a3.491 3.491 0 1 0 0-6.983 3.491 3.491 0 0 0 0 6.983m0 86.461a3.491 3.491 0 1 0 0-6.982 3.491 3.491 0 0 0 0 6.982m43.271-43.188a3.491 3.491 0 1 0 0-6.982 3.491 3.491 0 0 0 0 6.982m-86.545 0a3.491 3.491 0 1 0 0-6.982 3.491 3.491 0 0 0 0 6.982" fill="#FB8028"/>
  <path d="m114.866.682 1.874 5.064 5.064 1.874-5.064 1.874-1.874 5.064-1.874-5.064-5.064-1.874 5.064-1.874z" fill="#F5CF5D"/>
  <path d="m10.536 102.443 1.874 5.065 5.064 1.874-5.064 1.874-1.874 5.064-1.874-5.064-5.064-1.874 5.064-1.874zM6.938 6.85l1.874 5.064 5.064 1.874-5.064 1.874-1.874 5.064-1.874-5.064L0 13.788l5.064-1.874zm115.123 75.548 1.874 5.065 5.064 1.874-5.064 1.874-1.874 5.064-1.874-5.064-5.064-1.874 5.064-1.874z" fill="#FB8028"/>
  <path d="m42 80.133 37.5-37.5m0 37.5L42 42.633" stroke="#FD8326" stroke-width="5.505" stroke-linecap="round"/>
</svg>
