<svg width="37" height="40" viewBox="0 0 37 40" fill="none" xmlns="http://www.w3.org/2000/svg">
  <path d="M1.647.266a.833.833 0 0 0-.838.827V38.33a.83.83 0 0 0 .838.827.84.84 0 0 0 .592-.241l3.6-3.553 3.6 3.553a.85.85 0 0 0 1.186 0l3.6-3.553 3.6 3.553a.847.847 0 0 0 1.184 0l3.6-3.553 3.6 3.553a.847.847 0 0 0 1.184 0l3.6-3.553 3.6 3.553a.847.847 0 0 0 1.367-.268.8.8 0 0 0 .064-.317V1.093a.833.833 0 0 0-.838-.827zm.838 1.654h31.84v34.413l-2.758-2.726a.847.847 0 0 0-1.184 0l-3.6 3.553-3.6-3.553a.847.847 0 0 0-1.184 0l-3.6 3.553-3.6-3.553a.847.847 0 0 0-1.184 0l-3.6 3.553-3.6-3.553a.847.847 0 0 0-1.184 0l-2.76 2.726z" fill="#081F70"/>
  <path d="M8.197 24.063a.878.878 0 0 0 0 1.752H28.61a.878.878 0 0 0 0-1.753H8.197Zm0-8.278a.878.878 0 0 0 0 1.752H28.61a.879.879 0 0 0 0-1.752zm0-8.275a.85.85 0 0 0-.816.876.85.85 0 0 0 .816.878H28.61a.85.85 0 0 0 .816-.878.85.85 0 0 0-.816-.876z" fill="#081F70"/>
</svg>
