<svg width="25" height="24" viewBox="0 0 25 24" fill="none" xmlns="http://www.w3.org/2000/svg">
  <path d="M17.505 2h-9.51c-1.159 0-1.738 0-2.206.163a3.05 3.05 0 0 0-1.881 1.936c-.158.482-.158 1.078-.158 2.271v14.004c0 .858.985 1.314 1.608.744a.946.946 0 0 1 1.284 0l.483.442a1.657 1.657 0 0 0 2.25 0 1.657 1.657 0 0 1 2.25 0 1.657 1.657 0 0 0 2.25 0 1.657 1.657 0 0 1 2.25 0 1.657 1.657 0 0 0 2.25 0l.483-.442a.946.946 0 0 1 1.284 0c.623.57 1.608.114 1.608-.744V6.37c0-1.193 0-1.79-.158-2.27a3.05 3.05 0 0 0-1.881-1.937C19.243 2 18.664 2 17.505 2Z" stroke="#4B5565" stroke-width="1.462"/>
  <path d="M11.25 11h6.5m-10 0h.5m-.5-3.5h.5m-.5 7h.5m3-7h6.5m-6.5 7h6.5" stroke="#4B5565" stroke-width="1.462" stroke-linecap="round"/>
</svg>
