<svg width="47" height="47" viewBox="0 0 47 47" fill="#FF8300" xmlns="http://www.w3.org/2000/svg">
  <g opacity=".7" filter="url(#filter0_f_2178_1084)">
    <path d="m37.42 19.997-1.15-2.588-2.53-5.692C33.065 10.222 32 9 29.557 9H17.195c-2.444 0-3.508 1.222-4.184 2.717l-2.53 5.692-1.15 2.588c-.66 1.51-.301 3.723.805 4.945l9.847 10.839c1.869 2.055 4.916 2.055 6.785 0l9.847-10.84c1.107-1.221 1.466-3.435.805-4.944"/>
  </g>
  <path d="m37.294 20.338-1.15-2.588-2.53-5.693c-.675-1.495-1.739-2.716-4.183-2.716H17.07c-2.444 0-3.508 1.222-4.183 2.717l-2.53 5.692-1.15 2.587c-.662 1.51-.302 3.724.805 4.945l9.847 10.84c1.868 2.055 4.916 2.055 6.784 0l9.847-10.84c1.107-1.221 1.467-3.435.805-4.945"/>
  <path fill-rule="evenodd" clip-rule="evenodd" d="m24.339 27.669.003-1.336a.668.668 0 0 1 1.337 0v1.318c0 .321 0 .482.103.58s.26.092.575.078c1.242-.052 2.005-.22 2.543-.757.54-.537.707-1.3.76-2.545.01-.247.015-.37-.03-.452-.047-.083-.23-.185-.599-.39a1.332 1.332 0 0 1 0-2.33c.368-.205.552-.307.598-.39.046-.082.041-.205.03-.452-.052-1.244-.22-2.008-.759-2.545-.585-.584-1.436-.731-2.881-.769a.33.33 0 0 0-.34.332v1.656a.668.668 0 0 1-1.337 0l-.004-1.668a.334.334 0 0 0-.335-.332h-2.34c-2.52 0-3.78 0-4.563.78-.54.538-.707 1.302-.76 2.546-.01.247-.015.37.03.452.047.083.23.185.599.39a1.332 1.332 0 0 1 0 2.33c-.368.205-.552.307-.598.39-.046.082-.041.205-.03.452.052 1.244.22 2.008.759 2.545.783.781 2.043.781 4.563.781h2.007c.314 0 .472 0 .57-.097s.098-.254.099-.567m1.34-4.002v-1.334a.668.668 0 0 0-1.337 0v1.334a.668.668 0 0 0 1.337 0" fill="#FAFAFA"/>
  <defs>
    <filter id="filter0_f_2178_1084" x=".2" y=".2" width="46.351" height="45.922" filterUnits="userSpaceOnUse" color-interpolation-filters="sRGB">
      <feFlood flood-opacity="0" result="BackgroundImageFix"/>
      <feBlend in="SourceGraphic" in2="BackgroundImageFix" result="shape"/>
      <feGaussianBlur stdDeviation="4.4" result="effect1_foregroundBlur_2178_1084"/>
    </filter>
  </defs>
</svg>
