<svg xmlns="http://www.w3.org/2000/svg" fill="#fff" width="17.871" height="18.776" viewBox="0 0 17.871 18.776">
  <g id="Group_4460" data-name="Group 4460">
    <path id="Path_3542" data-name="Path 3542" d="M12.814 13a.5.5 0 0 0-.508.432A51.4 51.4 0 0 1 11 20.869a.47.47 0 0 0 .348.564h.113a.48.48 0 0 0 .461-.357 54 54 0 0 0 1.307-7.587.48.48 0 0 0-.415-.489" transform="translate(-2.53 -2.658)"/>
    <path id="Path_3543" data-name="Path 3543" d="M9.639 18a.46.46 0 0 0-.551.348v.019c-.188.94-.385 1.768-.545 2.445a.47.47 0 0 0 .339.572h.093a.47.47 0 0 0 .461-.357c.169-.686.367-1.542.555-2.482A.48.48 0 0 0 9.639 18" transform="translate(-2.383 -2.956)"/>
    <path id="Path_3544" data-name="Path 3544" d="M11.614 9.55a1.646 1.646 0 0 0-1.645 1.65 29.5 29.5 0 0 1-.479 4.814.47.47 0 0 0 .382.544h.1a.46.46 0 0 0 .461-.395 31.4 31.4 0 0 0 .479-4.964.714.714 0 0 1 .705-.705.733.733 0 0 1 .707.759v.125a.44.44 0 0 0 .4.479.4.4 0 0 0 .069 0 .526.526 0 0 0 .489-.5V11.2a1.645 1.645 0 0 0-1.649-1.65Z" transform="translate(-2.44 -2.451)"/>
    <path id="Path_3545" data-name="Path 3545" d="M17.781 4.912a.46.46 0 0 0-.007.652l.007.007a7.73 7.73 0 0 1 2.078 5.293 38 38 0 0 1-.5 5.641.48.48 0 0 0 .395.536h.1a.47.47 0 0 0 .461-.395 39 39 0 0 0 .48-5.782 8.66 8.66 0 0 0-2.35-5.933.47.47 0 0 0-.665-.022Z" transform="translate(-2.928 -2.166)"/>
    <path id="Path_3546" data-name="Path 3546" d="M3.2 9a.46.46 0 0 0-.551.348v.019a8.3 8.3 0 0 0-.179 1.739 25 25 0 0 1-.47 4.07.47.47 0 0 0 .376.545h.084a.46.46 0 0 0 .479-.376 26 26 0 0 0 .47-4.231 8 8 0 0 1 .16-1.551A.48.48 0 0 0 3.2 9" transform="translate(-1.992 -2.418)"/>
    <path id="Path_3547" data-name="Path 3547" d="M4.242 7.369a7.81 7.81 0 0 1 7-4.428 7.7 7.7 0 0 1 4.306 1.307.471.471 0 1 0 .527-.78A8.687 8.687 0 0 0 3.4 6.974a.47.47 0 0 0 .174.642l.052.025a.5.5 0 0 0 .2 0 .46.46 0 0 0 .416-.272" transform="translate(-2.072 -2)"/>
    <path id="Path_3548" data-name="Path 3548" d="M7.59 15a.48.48 0 0 0-.536.385c-.263 1.7-.621 3.3-.865 4.334a.46.46 0 0 0 .332.56h.129a.47.47 0 0 0 .451-.367c.254-1.053.611-2.67.884-4.4A.46.46 0 0 0 7.59 15" transform="translate(-2.242 -2.777)"/>
    <path id="Path_3549" data-name="Path 3549" d="M13.6 8.176a.48.48 0 0 0-.179-.649A3.977 3.977 0 0 0 7.493 11a14 14 0 0 1-.113 2.068.47.47 0 0 0 .414.517.47.47 0 0 0 .47-.423A21 21 0 0 0 8.386 11a3.037 3.037 0 0 1 4.551-2.651.46.46 0 0 0 .64-.123c.009-.018.023-.034.023-.05" transform="translate(-2.314 -2.3)"/>
    <path id="Path_3550" data-name="Path 3550" d="M14.683 9a.46.46 0 0 0-.176.627l.007.012a3.1 3.1 0 0 1 .4 1.476 45.2 45.2 0 0 1-1.279 9.261.47.47 0 0 0 .354.563h.111a.48.48 0 0 0 .461-.367 46 46 0 0 0 1.3-9.458 4 4 0 0 0-.527-1.956.47.47 0 0 0-.645-.163Z" transform="translate(-2.688 -2.414)"/>
    <path id="Path_3551" data-name="Path 3551" d="M7.017 6.914a.47.47 0 0 0-.658.075 6.38 6.38 0 0 0-1.42 4 35 35 0 0 1-.94 6.7.47.47 0 0 0 .354.563h.1a.47.47 0 0 0 .489-.357 35.6 35.6 0 0 0 .94-6.91 5.35 5.35 0 0 1 1.213-3.4.48.48 0 0 0-.078-.671" transform="translate(-2.111 -2.288)"/>
    <path id="Path_3552" data-name="Path 3552" d="M11.518 4.5a6.34 6.34 0 0 0-3.4 1 .47.47 0 1 0 .508.79 5.4 5.4 0 0 1 8.3 4.56 18 18 0 0 1-.085 2.078.47.47 0 0 0 .43.508.47.47 0 0 0 .47-.432c.056-.762.085-1.486.085-2.153A6.355 6.355 0 0 0 11.518 4.5" transform="translate(-2.344 -2.149)"/>
    <path id="Path_3553" data-name="Path 3553" d="M17.681 15a.46.46 0 0 0-.515.4v.015a56 56 0 0 1-.715 4.268.47.47 0 0 0 .367.555h.094a.47.47 0 0 0 .461-.376c.31-1.514.555-2.98.724-4.344a.48.48 0 0 0-.416-.518" transform="translate(-2.856 -2.777)"/>
  </g>
</svg>
