<svg width="20" height="22" viewBox="0 0 20 22" fill="none" xmlns="http://www.w3.org/2000/svg">
  <path d="m.147 1.3.073-.084a.75.75 0 0 1 .976-.073l.084.073 18.5 18.509a.75.75 0 0 1-.976 1.133l-.084-.073-6.603-6.605-6.321 6.59c-.51.53-1.376.086-1.287-.606l.018-.096L6.294 13H3.75a.75.75 0 0 1-.742-.86l.02-.096 1.545-5.412L.22 2.276A.75.75 0 0 1 .147 1.3l.073-.084zm5.64 6.546L4.744 11.5h2.51c.456 0 .798.4.746.838l-.018.094-1.316 5.264 4.39-4.578zM6.75 1h7a.75.75 0 0 1 .737.89l-.026.097L12.791 7h4.459a.75.75 0 0 1 .61 1.187l-.069.082-3.596 3.746-1.06-1.061L15.49 8.5h-3.74a.75.75 0 0 1-.737-.89l.026-.097 1.67-5.013H7.316L6.73 4.547 5.518 3.333l.51-1.79a.75.75 0 0 1 .612-.535z" fill="#FC8326"/>
</svg>
