<svg width="56" height="56" viewBox="0 0 56 56" fill="none" xmlns="http://www.w3.org/2000/svg">
  <path d="M34.381 10.956c.362.49.339 1.178-.023 1.761a.56.56 0 0 1-.513.28c.011.047.023.082.023.129 0 .163 0 .326-.012.49.572.046 1.155.035 1.727.035.14-.222.292-.432.42-.654-.268-.011-.268-.093-.175-.478.385-1.668-.572-3.15-2.252-3.407-.886-.14-1.715.117-2.473.572a7.1 7.1 0 0 0-1.96 1.727c-.128.163-.257.186-.408.14 0 .081 0 .175-.012.268-.012.058-.012.105-.023.163a13 13 0 0 0-.094 1.634c.047-.047.105-.082.152-.14.257-.245.548-.42.887-.514.058-.011.128-.011.186-.023-.07-.07-.081-.175.024-.315.758-1.015 1.621-1.902 2.928-2.193.642-.164 1.19-.012 1.598.525m-14.723 2.03c.058.105.128.21.198.315.152.222.316.443.49.653.094.128.175.257.269.385h.245c.093-.105.175-.21.268-.315a.3.3 0 0 1 .047-.058c.035-.047.07-.093.105-.152.151-.222.291-.455.408-.712.024-.058.082-.093.129-.14a.6.6 0 0 1-.467-.35c-.28-.583-.35-1.155.058-1.691.397-.513.945-.642 1.563-.525 1.097.221 1.879.922 2.579 1.738.163.187.466.397.396.653.152 0 .304.024.444.07.233.082.455.176.677.28a13 13 0 0 1 .151-1.645c-.396.129-.63-.07-.852-.373-.046-.058-.081-.117-.128-.163-.863-.899-1.831-1.61-3.091-1.844-1.949-.361-3.64 1.296-3.244 3.185.082.537.094.654-.245.689" fill="#FF8300"/>
  <path d="M37.602 14.035c-.012-.548-.362-.945-.91-1.015-.035 0-.082 0-.117-.011h-6.347v-.012h-.151c-.432 0-.49-.525-.665-.828a1.5 1.5 0 0 0-.152-.222c-.7-.828-2.007-.735-2.753-.023a2 2 0 0 0-.339.431c-.093.164-.14.339-.233.502-.117.222-.373.175-.572.152h-6.125c-.676.046-1.073.396-1.085 1.038a80 80 0 0 0 0 3.337c.012.595.42.968 1.015.991.549.024.549.024.549.595v7.922c0 .968.525 1.493 1.493 1.493h13.3c1.015 0 1.517-.49 1.517-1.505 0-2.66.011-5.308-.012-7.956 0-.409.105-.56.537-.549.653.024 1.038-.373 1.05-1.026.011-1.12.011-2.217 0-3.314M19.938 17.08c-.35.012-.466-.116-.455-.466.012-.607.012-1.225 0-1.832-.011-.315.094-.455.432-.455 1.89.012 3.78.012 5.658 0 .315 0 .409.128.409.42a52 52 0 0 0 0 1.913c.011.315-.129.409-.42.409-.945-.012-1.89 0-2.835 0-.922.011-1.855 0-2.789.011m6.044 5.682v3.757c0 .56 0 .56-.537.56-1.307 0-2.613-.012-3.92.011-.362 0-.513-.081-.513-.49.011-2.59.011-5.168 0-7.758 0-.35.081-.49.466-.49 1.354.023 2.695.023 4.049 0 .373 0 .478.128.466.49-.023 1.307-.011 2.613-.011 3.92m2.333 4.293c-.327.047-.665.105-.98-.058-.105-.058-.07-.198-.07-.315V13.417c0-.478.222-.735.607-.747.373 0 .606.257.606.735v13.172c0 .187.082.443-.163.478m5.88.035a112 112 0 0 0-3.955 0c-.373 0-.478-.116-.467-.478.012-2.59.012-5.168 0-7.758 0-.397.14-.502.514-.49 1.33.011 2.671.023 4.001 0 .374 0 .467.128.467.49-.012 1.306-.012 2.613-.012 3.92 0 1.26-.011 2.531.012 3.791 0 .432-.152.537-.56.525m1.703-10.01c-.956-.011-1.913 0-2.87 0-.933 0-1.855-.011-2.788 0-.327 0-.478-.081-.467-.443.024-.618.012-1.248 0-1.878-.011-.292.082-.432.397-.432 1.913.012 3.827.012 5.752 0 .315 0 .408.128.396.42a53 53 0 0 0 0 1.913c.012.339-.128.42-.42.42" fill="#fff"/>
  <path d="M6.685 39.995V34.5c0-.887.385-1.26 1.272-1.26h3.722c.828 0 1.166.28 1.271 1.085.035.268.152.233.327.175.875-.269 1.75-.537 2.625-.794a14.5 14.5 0 0 1 3.08-.595c1.937-.151 3.71.327 5.332 1.389.455.303.921.583 1.376.886a19 19 0 0 0 2.964 1.575c1.726.712 3.336 1.634 4.783 2.812.607.49 1.167 1.05 1.587 1.715.303.467.501.98.478 1.54-.058 1.108-.863 1.89-1.983 1.913-1.225.035-2.345-.408-3.477-.77-2.077-.664-4.095-1.528-6.23-2.018a17.5 17.5 0 0 0-2.578-.408c-.059 0-.117-.012-.175-.012-.455-.058-.712-.326-.677-.723.035-.385.315-.618.782-.584 1.703.129 3.36.502 4.97 1.027 1.925.63 3.803 1.377 5.74 1.937.478.14.968.257 1.481.257.712 0 1.015-.467.735-1.132-.21-.49-.548-.875-.933-1.225a13.7 13.7 0 0 0-4.013-2.637 33 33 0 0 1-5.554-3.021c-1.96-1.342-4.106-1.459-6.323-.91-1.377.35-2.73.793-4.095 1.178-.292.081-.222.268-.222.443v6.568c0 .899 0 .875.887.98 2.065.234 4.06.689 5.903 1.727 1.715.957 3.489 1.797 5.402 2.31 2.24.595 4.387.315 6.51-.502 3.278-1.26 6.358-2.928 9.392-4.654 1.458-.829 2.905-1.669 4.305-2.602.583-.397 1.155-.805 1.68-1.284.268-.233.525-.478.723-.781.397-.583.187-1.05-.537-1.132-.595-.07-1.178.059-1.75.222-1.516.443-2.928 1.143-4.328 1.855-1.493.77-2.987 1.552-4.48 2.322-.187.093-.362.221-.583.175-.304-.059-.514-.222-.572-.537-.07-.362.117-.618.408-.758 2.474-1.19 4.807-2.626 7.35-3.664 1.202-.49 2.404-.968 3.734-.945.711.012 1.353.222 1.82.817.536.676.606 1.33.186 2.076-.548.969-1.411 1.622-2.286 2.252-2.205 1.575-4.562 2.859-6.919 4.177-2.205 1.225-4.456 2.391-6.801 3.336-2.135.864-4.294 1.54-6.662 1.19-1.738-.256-3.383-.804-4.958-1.551-.852-.408-1.704-.817-2.532-1.283-1.762-.992-3.698-1.284-5.647-1.517-.245-.035-.315.058-.291.291.011.117 0 .234 0 .35-.024.666-.432 1.085-1.085 1.085a232 232 0 0 1-4.037 0c-.747-.011-1.155-.42-1.155-1.166.047-1.925.058-3.815.058-5.705m1.295-.012v5.192c0 .268.059.361.339.35q1.504-.018 3.01 0c.291 0 .338-.093.338-.35q-.018-5.145 0-10.29c0-.257-.058-.362-.338-.35-.992.012-1.984.023-2.975 0-.327-.012-.385.093-.385.397.023 1.691.011 3.371.011 5.051" fill="#FF8300"/>
  <path d="M44.427 35.245c-.012.49-.549.829-.945.549-.724-.525-1.47-.42-2.24-.21-1.26.361-2.392 1.014-3.5 1.68-1.027.618-2.03 1.271-3.045 1.901-.455.292-.864.245-1.085-.105-.21-.35-.082-.7.373-.992 1.68-1.073 3.337-2.181 5.133-3.056.852-.42 1.727-.782 2.672-.887.758-.081 1.505-.023 2.182.408.256.164.478.362.455.712m-5.821-2.018c.128.011.361.023.571.07.409.07.63.385.572.758-.07.373-.373.595-.782.513-.746-.14-1.4.117-2.03.467-1.33.747-2.473 1.762-3.71 2.66-.163.117-.326.257-.502.362-.326.198-.641.14-.863-.164-.221-.303-.21-.653.094-.875 1.516-1.12 2.928-2.391 4.62-3.278a4.5 4.5 0 0 1 2.03-.513m-3.944 1.179c-.747-.128-1.33.164-1.855.654a88 88 0 0 1-1.879 1.691c-.42.362-.817.362-1.085.024-.256-.327-.163-.665.245-1.027.7-.618 1.377-1.248 2.077-1.855.758-.653 1.645-.91 2.625-.77.385.058.607.362.56.723-.023.339-.315.572-.689.56" fill="#FF8300"/>
</svg>
