<svg xmlns="http://www.w3.org/2000/svg" width="1080" viewBox="0 0 810 810" height="1080" version="1.0">
  <defs>
    <clipPath id="5d07d2d1ed">
      <path d="M151.93 520H377v220H151.93Zm0 0"/>
    </clipPath>
    <clipPath id="ed301090c7">
      <path d="M151.93 630H344v110H151.93Zm0 0"/>
    </clipPath>
    <clipPath id="69c6171e11">
      <path d="M382 281h276.18v217H382Zm0 0"/>
    </clipPath>
  </defs>
  <path fill="#ef2e32" d="M567.004 711.203c-32.992-1.664-57.652-25.117-90.379-26.371-20.504-.789-40.168 1.594-60.621 1.594h-.8c-8.942-2.957-26.333-1.535-34.9 2.398-11.14 5.117-14.949 15.094-2.64 20.918 11.777 5.57 14.344 9.946-.738 13.969-7.871 2.101-33.625 3.96-29.555 17.746 4.3 14.574 67.98 8.684 80.742 8.797 10.446.105 20.168-1.91 29.77-3.856.879-.48 1.863-.89 2.976-1.171 2.739-.7 5.54-1.524 8.375-2.348a8.7 8.7 0 0 1 2.118-.684c.191-.039.367-.054.55-.086 10.29-2.945 20.95-5.46 30.864-2.234 6.949.508 13.836 1.742 20.765 2.672 11.399-.094 22.633-.883 33.047-3.137 4.602-1 12.125-3.09 14.711-4.27 4.988-2.273 8.7-4.413 11.426-7.148 2.918-2.922 4.535-5.09 5.59-9.222a28.8 28.8 0 0 0 .863-7.29c-7.227-.94-15.078.082-22.164-.277"/>
  <path fill="#b92325" d="M460.39 745.227c8.419-1.707 15.84-4.774 23.813-5.645-2.672-.773-5.332-1.57-7.973-2.445-14.914-.227-28.484 5.843-44.195 5.699-9.824-.094-58.84 4.441-62.152-6.777-3.137-10.61 16.687-12.043 22.75-13.664 11.61-3.094 9.633-6.465.574-10.747-9.48-4.484-6.555-12.168 2.027-16.105 4.84-2.227 13.325-3.402 20.227-2.969a141 141 0 0 1-4.719-7.164c-9.433-1.457-23.133.059-30.437 3.414-11.14 5.117-14.95 15.094-2.64 20.918 11.776 5.57 14.343 9.946-.74 13.969-7.87 2.101-33.624 3.96-29.554 17.746 4.3 14.574 67.98 8.684 80.742 8.797 9.989.101 19.309-1.742 28.496-3.617 1.063-.63 2.32-1.114 3.782-1.41"/>
  <path fill="#d3d2d2" d="M402.898 443.676v263.582c0 12.664 52.88 22.933 118.114 22.933 65.226 0 118.105-10.27 118.105-22.933V443.676z"/>
  <path fill="#cccbcc" d="M606.348 592.594c-30.43-16.434-53.567-45.137-67.5-76.469-7.774-17.48-12.344-35.96-19.52-53.59-2.535-6.234-5.305-12.496-7.683-18.86H402.898v263.583c0 12.664 52.88 22.933 118.114 22.933 65.226 0 118.105-10.27 118.105-22.933V606.785c-11.297-3.832-22.277-8.531-32.77-14.191"/>
  <path fill="#bdbcbc" d="M529.016 637.254c-31.32-23.824-55.075-54.594-67.653-92.172-7.093-21.191-12.558-43.578-15.035-65.8-1.308-11.794-1.797-23.747-2.824-35.606h-40.606v263.582c0 12.664 52.88 22.933 118.114 22.933 65.226 0 118.105-10.27 118.105-22.933v-25.14c-39.738-6.766-78.113-20.52-110.101-44.864"/>
  <path fill="#a7a5a6" d="M522.34 715.156c-65.348 0-118.332-10.265-118.332-22.926v15.266c0 12.668 52.984 22.93 118.332 22.93 65.351 0 118.328-10.262 118.328-22.93V692.23c0 12.66-52.977 22.926-118.328 22.926"/>
  <path fill="#e9e9e9" d="M558.234 475.395s46.063-2.45 66.258-8.786v103.204s-66.258-37.497-66.258-94.418"/>
  <path fill="#af8857" d="M375.895 499.352c-32.415-11.61-40.497-28.743-40.497-28.743-12.628-47.699 39.497-125.796 39.497-125.796 49.293-66.458 4.277-79.868 4.277-79.868s-44.461-15.129-42.75 67.59c0 0-2.723 93.86-40.64 125.434 0 0-16.509 9.293-49.66-.016 0 0-23.27-4.89-30.997 12.266L394.07 527.3c3.633-18.469-18.175-27.95-18.175-27.95"/>
  <path fill="#d3a469" d="M336.684 371.785a81 81 0 0 1 3.52-7.601c3.151-11.442 9.538-21.414 16.347-31.344 6.879-10.047 15.832-21.899 14.89-34.79-.66-8.98-10.14-16.878-18.312-19.195a24.5 24.5 0 0 0-4.938-.84c-.609.247-1.203.512-1.789.786-6.152 10.074-10.539 26.664-9.98 53.734 0 0-2.723 93.86-40.64 125.434 0 0-16.509 9.293-49.66-.016 0 0-23.27-4.89-30.997 12.266l15.39 4.914c5.942-6.836 15.907-7.45 25.438-4.953 4.938 1.293 9.82 3.504 14.906 4.129a64.7 64.7 0 0 0 14.121.195c.81-.66 1.813-1.18 3.032-1.496 8.77-2.281 16.914-6.57 21.957-14.352 4.547-7.011 6.824-15.086 8.676-23.164 4.94-21.527 9.77-43.12 18.039-63.707"/>
  <path fill="#957349" d="M384.836 281.531c9.351 14.43 1.883 33.29-8.137 45.25-3.887 4.64-8.445 8.758-12.18 13.512a128 128 0 0 0-9.87 14.48c-6.31 10.82-11.387 22.258-15.88 33.942-9.374 24.398-19.89 50.496-20.015 76.984-.004.863 0 1.68.055 2.516l.023.223q.204 1.781.414 3.57c.356 3.02.711 6.047.988 9.074.7 7.578 1.356 15.273.653 22.875l73.183 23.344c3.633-18.469-18.175-27.95-18.175-27.95-32.415-11.609-40.497-28.742-40.497-28.742-12.628-47.699 39.497-125.796 39.497-125.796 49.293-66.458 4.277-79.868 4.277-79.868s-9.715-3.304-19.883 1.625c10.121.797 19.684 5.91 25.547 14.961"/>
  <path fill="#bdbcbc" d="m378.016 576.156-178.957-57.078 15.609-48.941 178.953 57.082z"/>
  <path fill="#9a9898" d="m382.137 564.727-178.953-57.082 2.859-8.957 178.95 57.082zm4.113-12.903-178.953-57.082 1.465-4.59 178.953 57.082z"/>
  <path fill="#393536" d="M375.719 297.328a7 7 0 1 1-13.336-4.258 7 7 0 0 1 13.336 4.258"/>
  <path fill="#231f20" d="M366.973 294.535a6.99 6.99 0 0 1 6.37-4.855 7.1 7.1 0 0 0-2.163-1.149 7 7 0 0 0-8.797 4.54 7 7 0 0 0 4.539 8.8 7.1 7.1 0 0 0 2.433.32 7.01 7.01 0 0 1-2.382-7.656"/>
  <g clip-path="url(#5d07d2d1ed)">
    <path fill="#393536" d="m204.113 520.684-52.129 163.441 2.649-1.055 1.64 2.106-.093.289.242-.094.18.23.109-.343 2.117-.848 1.969 2.531 2.644-1.062 1.641 2.11-.094.288.239-.097.183.23.102-.351 2.12-.84 1.97 2.531 2.648-1.055 1.64 2.102-.093.289.238-.098.184.23.11-.343 2.112-.848 1.97 2.532 2.644-1.063 1.644 2.11-.094.289.239-.098.176.23.109-.347 2.121-.844 1.969 2.531 2.648-1.062 1.64 2.11-.093.288.238-.098.184.235.11-.348 2.117-.847 1.96 2.535 2.653-1.059 1.64 2.11-.093.28.238-.09.184.227.109-.343 2.113-.852 1.965 2.535-.016.055 2.653-1.059 1.633 2.11-.094.285.242-.094.184.227.109-.344 2.121-.844 1.961 2.528 2.652-1.055 1.633 2.105-.086.29.238-.098.176.226.114-.343 2.117-.844 1.965 2.527.011-.027 2.645-1.055 1.64 2.106-.093.289.246-.098.176.23.109-.347 2.117-.84 1.969 2.523 2.644-1.054 1.641 2.105-.094.29.246-.098.176.23.11-.348 2.113-.84 1.972 2.524 2.645-1.055 1.64 2.106-.093.289.246-.098.176.23.11-.34 2.116-.847 1.965 2.524 2.649-1.055 1.64 2.105-.094.29.247-.098.175.234.11-.344 2.117-.847 1.969 2.523 2.644-1.054 1.64 2.105-.089.289.242-.094.176.23.11-.343 2.117-.848 1.968 2.524 2.645-1.055 1.64 2.11-.09.289.243-.098.176.23.113-.343 2.113-.844 1.969 2.527-.016.055 2.645-1.055 1.637 2.102-.09.289.238-.098.18.23.109-.343 2.117-.848 1.965 2.531 2.652-1.054 1.637 2.101-.09.29.239-.09.18.222.109-.344 2.117-.843 1.965 2.527 2.652-1.055 1.637 2.102-.086.289.234-.09.176.223.113-.344 2.121-.844 1.961 2.528 2.653-1.055 1.636 2.11-.09.288.239-.097.18.226.109-.343 2.12-.844 1.97 2.527 2.644-1.055 1.637 2.106-.094.289.242-.098.18.235.11-.352 2.12-.84 1.961 2.524 2.653-1.055 1.965 2.524 52.164-163.52z"/>
  </g>
  <path fill="#231f20" d="m154.605 683.063 2.06-6.985c.663-2.226 1.456-4.926 2.366-8.015l1.461-4.938c.547-1.715 1.125-3.535 1.727-5.426l17.699-55.496c6.437-20.172 12.871-40.36 17.7-55.488.616-1.89 1.163-3.715 1.741-5.426.582-1.715 1.149-3.34 1.664-4.867 1.051-3.05 1.965-5.719 2.711-7.902 1.504-4.391 2.364-6.891 2.364-6.891l-2.067 6.984-2.367 8.016-1.457 4.922c-.52 1.738-1.129 3.543-1.723 5.437-4.832 15.13-11.265 35.317-17.703 55.496s-12.87 40.36-17.699 55.496c-.602 1.883-1.18 3.7-1.734 5.418-.59 1.723-1.145 3.34-1.672 4.872-1.047 3.046-1.957 5.71-2.711 7.906-1.5 4.383-2.36 6.886-2.36 6.886m2.016.645s.75-2.535 2.063-6.984c.66-2.227 1.453-4.926 2.363-8.016.46-1.555.941-3.2 1.46-4.934.548-1.722 1.126-3.539 1.727-5.433 4.828-15.125 11.266-35.309 17.703-55.488 6.438-20.18 12.872-40.36 17.7-55.497.613-1.886 1.16-3.71 1.738-5.425.59-1.711 1.148-3.336 1.668-4.864 1.047-3.054 1.96-5.718 2.707-7.91 1.504-4.379 2.363-6.89 2.363-6.89s-.75 2.543-2.066 6.984l-2.367 8.023c-.453 1.54-.946 3.192-1.457 4.93-.52 1.73-1.125 3.535-1.723 5.43-4.828 15.129-11.266 35.316-17.7 55.496-6.44 20.172-12.87 40.355-17.702 55.488-.602 1.89-1.18 3.711-1.735 5.426q-.885 2.578-1.664 4.863c-1.05 3.055-1.96 5.719-2.71 7.91-1.509 4.387-2.368 6.891-2.368 6.891m2.301.734s.742-2.543 2.055-6.988c.66-2.223 1.46-4.918 2.37-8.015q.692-2.32 1.454-4.934c.554-1.723 1.129-3.535 1.734-5.426l17.7-55.496c6.437-20.18 12.87-40.36 17.702-55.492.606-1.895 1.16-3.715 1.739-5.43.586-1.71 1.14-3.34 1.668-4.863l2.703-7.906c1.508-4.383 2.367-6.891 2.367-6.891l-2.066 6.988c-.657 2.219-1.453 4.918-2.371 8.016-.454 1.543-.946 3.191-1.454 4.926-.52 1.734-1.132 3.539-1.726 5.433-4.828 15.137-11.262 35.313-17.7 55.492-6.437 20.184-12.874 40.364-17.706 55.497-.598 1.89-1.18 3.703-1.73 5.43-.59 1.71-1.141 3.335-1.669 4.859-1.047 3.054-1.96 5.714-2.707 7.91zm2.297.727s.746-2.535 2.058-6.98c.66-2.22 1.453-4.926 2.368-8.016l1.457-4.938 1.726-5.425c4.832-15.13 11.262-35.317 17.707-55.496 6.43-20.18 12.867-40.36 17.7-55.493.609-1.886 1.156-3.71 1.742-5.43.585-1.706 1.14-3.331 1.66-4.855 1.05-3.058 1.957-5.715 2.71-7.906 1.505-4.39 2.36-6.89 2.36-6.89s-.746 2.534-2.066 6.98c-.649 2.226-1.453 4.918-2.364 8.011-.46 1.555-.945 3.204-1.46 4.934-.52 1.734-1.126 3.535-1.72 5.434-4.827 15.136-11.269 35.316-17.699 55.496-6.437 20.172-12.875 40.36-17.707 55.488-.605 1.89-1.183 3.711-1.73 5.426-.59 1.722-1.149 3.34-1.668 4.87a5388 5388 0 0 0-2.711 7.907 4916 4916 0 0 0-2.363 6.883m2.301.734s.742-2.535 2.058-6.984c.656-2.223 1.45-4.918 2.367-8.016.457-1.547.938-3.191 1.453-4.933.551-1.715 1.125-3.535 1.73-5.426 4.825-15.137 11.263-35.316 17.7-55.492 6.438-20.18 12.875-40.364 17.7-55.496.613-1.89 1.163-3.715 1.742-5.426q.884-2.572 1.667-4.867c1.051-3.051 1.961-5.711 2.704-7.903 1.511-4.386 2.367-6.89 2.367-6.89s-.746 2.543-2.067 6.984c-.652 2.219-1.453 4.918-2.37 8.016-.454 1.547-.946 3.191-1.458 4.922-.515 1.738-1.12 3.547-1.722 5.437-4.828 15.133-11.266 35.313-17.703 55.496-6.434 20.18-12.872 40.36-17.7 55.492-.601 1.891-1.18 3.704-1.726 5.43-.598 1.711-1.149 3.34-1.672 4.863-1.043 3.051-1.957 5.711-2.711 7.907-1.508 4.382-2.36 6.886-2.36 6.886m2.294.738 2.062-6.984c.66-2.222 1.453-4.93 2.363-8.023.461-1.543.946-3.188 1.453-4.926.555-1.727 1.133-3.543 1.735-5.434 4.828-15.128 11.265-35.308 17.703-55.496 6.437-20.18 12.875-40.351 17.7-55.488.612-1.89 1.16-3.71 1.741-5.434.586-1.703 1.145-3.332 1.664-4.855 1.047-3.055 1.961-5.715 2.707-7.906l2.364-6.89-2.067 6.98c-.656 2.226-1.453 4.918-2.367 8.02-.457 1.542-.945 3.187-1.457 4.925-.52 1.738-1.125 3.543-1.726 5.433-4.829 15.137-11.262 35.317-17.7 55.489-6.437 20.187-12.875 40.367-17.699 55.496-.605 1.898-1.187 3.71-1.738 5.426l-1.66 4.87c-1.051 3.048-1.961 5.716-2.72 7.907zm2.297.727s.753-2.535 2.062-6.984c.656-2.223 1.457-4.918 2.367-8.012.453-1.55.941-3.195 1.453-4.933a674 674 0 0 0 1.727-5.43c4.832-15.137 11.27-35.317 17.707-55.492 6.437-20.18 12.87-40.36 17.699-55.496.617-1.891 1.164-3.711 1.742-5.426.582-1.715 1.149-3.332 1.664-4.864 1.051-3.054 1.957-5.714 2.711-7.906l2.363-6.89-2.066 6.984c-.656 2.219-1.453 4.922-2.371 8.016-.461 1.546-.941 3.195-1.453 4.93-.52 1.738-1.133 3.538-1.727 5.437-4.828 15.129-11.261 35.308-17.699 55.488-6.437 20.18-12.875 40.36-17.707 55.496l-1.73 5.426q-.878 2.566-1.668 4.863c-1.047 3.055-1.961 5.715-2.711 7.906-1.508 4.383-2.364 6.887-2.364 6.887m2.301.738s.746-2.543 2.059-6.984c.656-2.223 1.449-4.93 2.37-8.016.454-1.554.942-3.19 1.454-4.933.547-1.723 1.125-3.543 1.734-5.426 4.825-15.137 11.262-35.316 17.7-55.496 6.433-20.18 12.87-40.36 17.695-55.496.613-1.89 1.16-3.711 1.738-5.434.59-1.703 1.149-3.332 1.668-4.855 1.05-3.055 1.961-5.719 2.711-7.906l2.36-6.891s-.75 2.539-2.067 6.98c-.656 2.227-1.453 4.918-2.363 8.016q-.69 2.321-1.461 4.93c-.52 1.738-1.125 3.543-1.727 5.433-4.824 15.137-11.261 35.317-17.699 55.496l-17.7 55.489c-.605 1.894-1.183 3.71-1.73 5.433l-1.672 4.864c-1.042 3.05-1.957 5.714-2.71 7.91-1.504 4.383-2.36 6.886-2.36 6.886m2.293.731s.75-2.535 2.063-6.984c.66-2.223 1.457-4.922 2.37-8.016q.68-2.325 1.454-4.934c.55-1.722 1.125-3.535 1.73-5.43 4.832-15.132 11.262-35.312 17.703-55.492 6.434-20.18 12.872-40.359 17.7-55.496.609-1.882 1.156-3.71 1.746-5.425.578-1.711 1.136-3.332 1.66-4.864 1.047-3.054 1.957-5.715 2.71-7.902 1.5-4.387 2.36-6.89 2.36-6.89s-.754 2.534-2.066 6.98c-.656 2.222-1.457 4.922-2.363 8.02-.465 1.542-.946 3.19-1.461 4.925-.524 1.735-1.13 3.54-1.723 5.438-4.828 15.129-11.266 35.308-17.703 55.492-6.438 20.176-12.875 40.355-17.7 55.492-.605 1.89-1.183 3.703-1.738 5.426-.582 1.715-1.14 3.34-1.664 4.867a2474 2474 0 0 0-2.71 7.902c-1.508 4.383-2.368 6.89-2.368 6.89m2.297.735s.754-2.543 2.063-6.984c.656-2.227 1.457-4.926 2.367-8.016.46-1.547.941-3.199 1.46-4.937.548-1.719 1.126-3.54 1.731-5.426a329786 329786 0 0 1 17.7-55.492l17.699-55.492c.613-1.895 1.156-3.715 1.738-5.43.59-1.711 1.148-3.34 1.664-4.863 1.05-3.051 1.965-5.72 2.71-7.91 1.505-4.38 2.364-6.891 2.364-6.891l-2.062 6.984c-.66 2.227-1.454 4.926-2.371 8.024-.458 1.539-.946 3.191-1.458 4.922-.52 1.738-1.132 3.543-1.722 5.433-4.832 15.14-11.27 35.313-17.703 55.492l-17.7 55.496c-.601 1.891-1.18 3.707-1.734 5.434-.59 1.711-1.14 3.332-1.672 4.856a4609 4609 0 0 1-2.71 7.914c-1.5 4.382-2.364 6.886-2.364 6.886m2.3.73s.747-2.534 2.063-6.984c.657-2.222 1.45-4.921 2.367-8.015.454-1.547.946-3.196 1.461-4.93.543-1.719 1.125-3.539 1.727-5.43 4.828-15.132 11.262-35.312 17.703-55.496 6.43-20.18 12.875-40.36 17.7-55.492.605-1.89 1.156-3.715 1.738-5.43.582-1.71 1.14-3.332 1.664-4.859 1.047-3.059 1.964-5.715 2.71-7.91 1.497-4.383 2.364-6.887 2.364-6.887s-.758 2.535-2.067 6.985l-2.367 8.015c-.457 1.547-.949 3.192-1.457 4.93-.52 1.73-1.133 3.535-1.73 5.43-4.828 15.132-11.262 35.316-17.703 55.492-6.43 20.18-12.875 40.36-17.692 55.496-.61 1.89-1.187 3.703-1.738 5.426-.586 1.722-1.145 3.34-1.668 4.867-1.043 3.05-1.96 5.71-2.715 7.902-1.496 4.387-2.36 6.89-2.36 6.89m2.294.731s.754-2.535 2.066-6.98c.656-2.227 1.453-4.918 2.367-8.016.457-1.555.938-3.191 1.457-4.937l1.727-5.426c4.832-15.137 11.27-35.317 17.703-55.496l17.7-55.489c.613-1.89 1.16-3.714 1.745-5.425q.874-2.574 1.66-4.871c1.047-3.047 1.958-5.715 2.715-7.899 1.496-4.39 2.356-6.898 2.356-6.898s-.75 2.547-2.067 6.988c-.648 2.219-1.453 4.918-2.363 8.02-.46 1.539-.945 3.191-1.46 4.921-.52 1.739-1.126 3.54-1.723 5.438-4.825 15.129-11.266 35.316-17.7 55.496s-12.87 40.36-17.703 55.488l-1.73 5.434c-.586 1.71-1.149 3.332-1.668 4.855-1.055 3.063-1.961 5.72-2.715 7.914-1.504 4.383-2.367 6.883-2.367 6.883m2.301.739s.75-2.547 2.066-6.98c.656-2.231 1.453-4.93 2.367-8.024.457-1.547.938-3.192 1.457-4.93.547-1.727 1.125-3.54 1.727-5.43 4.824-15.133 11.261-35.312 17.699-55.496l17.703-55.492c.61-1.89 1.16-3.707 1.738-5.43.59-1.707 1.145-3.332 1.668-4.86 1.047-3.058 1.957-5.714 2.711-7.91 1.496-4.382 2.356-6.886 2.356-6.886s-.75 2.535-2.063 6.984c-.656 2.223-1.453 4.918-2.37 8.016-.454 1.547-.942 3.191-1.454 4.93-.52 1.738-1.133 3.539-1.727 5.43-4.832 15.136-11.261 35.316-17.703 55.492-6.433 20.18-12.87 40.363-17.699 55.496l-1.726 5.425-1.672 4.868c-1.051 3.05-1.965 5.715-2.711 7.906-1.504 4.383-2.367 6.89-2.367 6.89m2.3.727s.75-2.535 2.059-6.98c.656-2.227 1.453-4.918 2.367-8.012.461-1.55.945-3.195 1.461-4.942.543-1.718 1.125-3.535 1.727-5.425a323449 323449 0 0 1 17.703-55.489c6.437-20.18 12.875-40.359 17.699-55.496.613-1.89 1.156-3.715 1.742-5.425l1.66-4.864c1.051-3.054 1.965-5.715 2.711-7.906l2.36-6.89s-.746 2.535-2.063 6.98c-.656 2.219-1.453 4.926-2.367 8.02-.461 1.542-.945 3.195-1.461 4.925-.516 1.735-1.125 3.535-1.719 5.438a107571 107571 0 0 0-17.703 55.492c-6.437 20.18-12.875 40.36-17.7 55.496-.6 1.883-1.187 3.7-1.733 5.426a929 929 0 0 0-1.668 4.863c-1.047 3.055-1.961 5.707-2.715 7.906-1.5 4.383-2.36 6.883-2.36 6.883m2.293.738s.758-2.539 2.063-6.984c.66-2.223 1.457-4.922 2.37-8.016q.687-2.325 1.454-4.933a279281 279281 0 0 0 19.43-60.922c6.437-20.184 12.875-40.363 17.699-55.496.613-1.89 1.16-3.711 1.746-5.43.59-1.707 1.14-3.336 1.66-4.86a7062 7062 0 0 1 2.715-7.905c1.504-4.387 2.36-6.891 2.36-6.891s-.747 2.543-2.063 6.984c-.656 2.223-1.453 4.918-2.371 8.016-.461 1.547-.942 3.191-1.457 4.93-.524 1.738-1.13 3.539-1.727 5.43-4.824 15.136-11.262 35.316-17.699 55.495-6.434 20.18-12.871 40.368-17.695 55.493-.61 1.894-1.188 3.707-1.739 5.43-.586 1.714-1.144 3.34-1.668 4.862-1.05 3.051-1.96 5.711-2.71 7.915a4164 4164 0 0 1-2.368 6.882m2.302.735 2.062-6.985c.656-2.23 1.453-4.922 2.37-8.023q.68-2.322 1.454-4.926c.547-1.722 1.125-3.543 1.73-5.433 4.828-15.13 11.262-35.309 17.7-55.489s12.874-40.36 17.699-55.496c.613-1.887 1.16-3.71 1.746-5.426.582-1.71 1.14-3.336 1.66-4.863l2.71-7.91c1.5-4.379 2.364-6.887 2.364-6.887l-2.07 6.98a3430 3430 0 0 1-2.371 8.016c-.453 1.555-.942 3.2-1.453 4.93-.52 1.738-1.125 3.543-1.727 5.438-4.824 15.132-11.262 35.312-17.7 55.492l-17.702 55.492c-.602 1.887-1.184 3.707-1.727 5.43l-1.672 4.863c-1.047 3.05-1.957 5.715-2.71 7.906-1.505 4.383-2.364 6.89-2.364 6.89m2.301.732s.75-2.54 2.055-6.985c.664-2.223 1.453-4.922 2.37-8.016.458-1.55.942-3.191 1.462-4.933.539-1.723 1.12-3.54 1.726-5.426 4.824-15.137 11.262-35.317 17.7-55.496l17.699-55.489c.609-1.898 1.156-3.718 1.746-5.433.582-1.711 1.136-3.34 1.664-4.863 1.043-3.047 1.953-5.715 2.71-7.907 1.5-4.386 2.36-6.89 2.36-6.89s-.75 2.539-2.066 6.984l-2.368 8.02c-.464 1.543-.945 3.191-1.457 4.925-.52 1.735-1.132 3.54-1.726 5.43-4.832 15.137-11.27 35.317-17.7 55.496-6.437 20.18-12.874 40.363-17.699 55.496l-1.738 5.426-1.66 4.863a1619 1619 0 0 0-2.715 7.914c-1.504 4.375-2.363 6.883-2.363 6.883m2.297.735s.746-2.54 2.058-6.985c.657-2.226 1.453-4.926 2.371-8.015.454-1.555.942-3.2 1.454-4.938.546-1.719 1.128-3.535 1.734-5.43l17.7-55.488c6.437-20.183 12.874-40.363 17.698-55.496.61-1.887 1.157-3.71 1.743-5.426l1.66-4.86c1.05-3.058 1.96-5.722 2.71-7.913l2.36-6.883s-.746 2.535-2.062 6.984c-.657 2.22-1.45 4.918-2.375 8.008q-.68 2.333-1.454 4.934c-.52 1.734-1.125 3.539-1.718 5.433-4.832 15.13-11.27 35.317-17.707 55.489-6.434 20.18-12.871 40.359-17.7 55.496-.597 1.89-1.18 3.707-1.73 5.426-.59 1.718-1.14 3.34-1.668 4.863a7620 7620 0 0 1-2.715 7.91c-1.504 4.387-2.36 6.89-2.36 6.89m2.294.731s.754-2.535 2.066-6.984c.656-2.223 1.45-4.922 2.367-8.016.457-1.55.946-3.191 1.453-4.934.551-1.722 1.133-3.535 1.73-5.425 4.829-15.137 11.27-35.317 17.7-55.496 6.438-20.176 12.875-40.36 17.707-55.493.606-1.894 1.152-3.714 1.734-5.43l1.668-4.863c1.051-3.05 1.961-5.714 2.708-7.902 1.507-4.387 2.363-6.894 2.363-6.894s-.754 2.539-2.063 6.988c-.664 2.219-1.457 4.918-2.375 8.015-.453 1.543-.937 3.192-1.453 4.926-.52 1.735-1.125 3.54-1.719 5.434a194556 194556 0 0 0-17.707 55.496c-6.437 20.18-12.87 40.355-17.699 55.492-.605 1.89-1.183 3.703-1.734 5.43l-1.668 4.86c-1.043 3.058-1.957 5.714-2.711 7.91a5535 5535 0 0 1-2.367 6.886m2.3.731 2.063-6.977 2.363-8.02q.69-2.318 1.461-4.937c.547-1.719 1.125-3.535 1.73-5.426 4.829-15.129 11.262-35.308 17.7-55.496l17.7-55.488c.605-1.89 1.16-3.711 1.741-5.434.582-1.707 1.145-3.332 1.664-4.855 1.047-3.063 1.961-5.715 2.711-7.914 1.5-4.383 2.36-6.883 2.36-6.883s-.75 2.539-2.067 6.98c-.656 2.227-1.453 4.918-2.367 8.02l-1.457 4.926c-.52 1.738-1.125 3.543-1.723 5.433-4.828 15.137-11.261 35.317-17.699 55.489-6.437 20.18-12.87 40.367-17.703 55.496-.602 1.898-1.187 3.71-1.734 5.425-.59 1.723-1.141 3.344-1.664 4.871-1.051 3.047-1.961 5.715-2.715 7.907-1.504 4.383-2.364 6.883-2.364 6.883m2.297.734s.746-2.535 2.067-6.977c.652-2.23 1.445-4.925 2.37-8.02l1.446-4.937c.555-1.715 1.133-3.535 1.735-5.425a194535 194535 0 0 1 17.699-55.493c6.437-20.18 12.87-40.359 17.703-55.496.605-1.89 1.16-3.715 1.738-5.426.59-1.714 1.149-3.335 1.668-4.863 1.047-3.054 1.953-5.719 2.707-7.906l2.356-6.895s-.746 2.54-2.059 6.989c-.66 2.218-1.453 4.918-2.371 8.015-.453 1.547-.941 3.196-1.453 4.922-.52 1.738-1.133 3.543-1.727 5.438-4.824 15.136-11.261 35.316-17.699 55.496-6.437 20.18-12.875 40.36-17.7 55.496-.605 1.887-1.187 3.7-1.734 5.426-.59 1.71-1.144 3.332-1.671 4.863-1.047 3.055-1.954 5.715-2.707 7.906-1.512 4.383-2.368 6.887-2.368 6.887m2.301.738s.746-2.543 2.059-6.984c.656-2.223 1.453-4.922 2.367-8.024q.687-2.316 1.457-4.925a904 904 0 0 1 1.734-5.426c4.825-15.137 11.262-35.317 17.7-55.496 6.437-20.188 12.87-40.367 17.699-55.496.61-1.891 1.156-3.711 1.742-5.434.586-1.71 1.14-3.332 1.668-4.855a3789 3789 0 0 1 2.707-7.907c1.504-4.39 2.363-6.89 2.363-6.89s-.754 2.539-2.066 6.98c-.66 2.219-1.461 4.918-2.371 8.016q-.69 2.321-1.461 4.93c-.52 1.738-1.125 3.542-1.719 5.433-4.832 15.137-11.27 35.316-17.707 55.496-6.43 20.18-12.867 40.36-17.7 55.488q-.909 2.849-1.73 5.434l-1.672 4.863c-1.043 3.047-1.957 5.707-2.71 7.907-1.504 4.386-2.36 6.89-2.36 6.89m2.293.731s.75-2.54 2.066-6.985c.657-2.226 1.454-4.922 2.36-8.02.465-1.546.945-3.19 1.46-4.929q.829-2.586 1.731-5.43c4.825-15.132 11.262-35.316 17.7-55.496 6.437-20.176 12.875-40.355 17.699-55.492.613-1.883 1.164-3.71 1.742-5.426.586-1.71 1.144-3.34 1.668-4.863 1.043-3.055 1.957-5.715 2.71-7.906 1.505-4.383 2.36-6.89 2.36-6.89s-.746 2.534-2.066 6.984c-.653 2.222-1.453 4.921-2.363 8.015-.461 1.547-.946 3.195-1.465 4.93-.516 1.738-1.121 3.535-1.715 5.437-4.832 15.13-11.27 35.309-17.707 55.489s-12.871 40.359-17.7 55.496c-.601 1.886-1.183 3.703-1.738 5.426-.582 1.714-1.14 3.332-1.664 4.863-1.05 3.054-1.957 5.715-2.71 7.906zm2.301.734 2.062-6.984c.653-2.223 1.453-4.926 2.371-8.024a1876 1876 0 0 1 1.454-4.926c.546-1.722 1.129-3.543 1.726-5.43 4.828-15.132 11.262-35.312 17.703-55.491 6.434-20.18 12.867-40.368 17.7-55.497.613-1.89 1.16-3.71 1.742-5.425.586-1.711 1.144-3.34 1.664-4.864 1.047-3.054 1.953-5.718 2.707-7.91 1.504-4.386 2.363-6.886 2.363-6.886l-2.062 6.98-2.372 8.016q-.687 2.321-1.457 4.93c-.52 1.738-1.125 3.542-1.726 5.433-4.828 15.137-11.262 35.316-17.7 55.496a399663 399663 0 0 0-19.433 60.922c-.59 1.715-1.144 3.336-1.672 4.86a2657 2657 0 0 1-2.71 7.913zm2.301.731s.742-2.54 2.058-6.985c.656-2.223 1.457-4.922 2.364-8.02.457-1.542.945-3.19 1.457-4.93q.831-2.585 1.734-5.429c4.824-15.133 11.262-35.312 17.7-55.492s12.87-40.36 17.698-55.496c.61-1.883 1.164-3.711 1.743-5.426l1.664-4.86c1.047-3.058 1.957-5.718 2.71-7.91l2.364-6.886-2.067 6.984-2.37 8.012c-.454 1.55-.946 3.195-1.454 4.934-.52 1.73-1.133 3.535-1.722 5.43-4.832 15.136-11.266 35.316-17.704 55.491-6.437 20.18-12.87 40.36-17.699 55.497-.61 1.89-1.187 3.703-1.738 5.425-.586 1.715-1.149 3.34-1.668 4.868-1.047 3.05-1.961 5.71-2.711 7.902-1.508 4.387-2.36 6.89-2.36 6.89m2.298.735s.746-2.54 2.062-6.985c.652-2.226 1.45-4.917 2.363-8.015.457-1.555.946-3.192 1.457-4.938.551-1.718 1.125-3.535 1.727-5.425 4.824-15.133 11.262-35.313 17.7-55.496 6.437-20.18 12.874-40.36 17.706-55.489.61-1.89 1.156-3.715 1.742-5.43.582-1.71 1.141-3.34 1.66-4.863 1.051-3.05 1.961-5.718 2.711-7.902l2.36-6.899s-.746 2.543-2.059 6.985c-.656 2.222-1.453 4.926-2.37 8.023-.462 1.54-.946 3.192-1.462 4.922-.52 1.738-1.129 3.543-1.719 5.438a75413 75413 0 0 0-17.699 55.496 99973 99973 0 0 0-19.437 60.914l-1.668 4.863c-1.047 3.055-1.961 5.719-2.715 7.914-1.504 4.383-2.36 6.887-2.36 6.887m2.294.734s.753-2.543 2.066-6.988c.656-2.223 1.45-4.922 2.367-8.016.457-1.547.945-3.191 1.453-4.93q.828-2.59 1.73-5.429c4.825-15.133 11.262-35.316 17.7-55.496l17.703-55.496c.61-1.887 1.16-3.703 1.738-5.426q.884-2.567 1.668-4.86c1.043-3.058 1.961-5.714 2.703-7.91 1.508-4.382 2.368-6.886 2.368-6.886s-.754 2.535-2.067 6.984c-.656 2.219-1.453 4.918-2.37 8.012-.454 1.55-.946 3.195-1.454 4.933-.52 1.739-1.129 3.54-1.727 5.43a201280 201280 0 0 1-17.699 55.492c-6.437 20.18-12.875 40.364-17.699 55.496-.606 1.891-1.184 3.711-1.738 5.426-.59 1.715-1.14 3.34-1.664 4.867-1.043 3.051-1.961 5.711-2.711 7.903a6453 6453 0 0 1-2.368 6.894m2.301.727s.75-2.535 2.059-6.98c.664-2.227 1.46-4.919 2.367-8.016l1.461-4.938c.547-1.715 1.125-3.535 1.727-5.426 4.828-15.136 11.261-35.316 17.703-55.496 6.43-20.172 12.875-40.359 17.699-55.488.613-1.89 1.16-3.715 1.742-5.426.586-1.715 1.145-3.34 1.66-4.87 1.051-3.056 1.965-5.716 2.711-7.9 1.504-4.39 2.367-6.89 2.367-6.89s-.754 2.535-2.07 6.977l-2.367 8.023c-.453 1.543-.945 3.195-1.457 4.922-.52 1.738-1.13 3.54-1.723 5.438-4.824 15.128-11.265 35.316-17.699 55.496-6.441 20.18-12.875 40.359-17.703 55.496-.61 1.883-1.188 3.703-1.735 5.425-.582 1.711-1.14 3.332-1.664 4.864l-2.718 7.906c-1.5 4.383-2.36 6.883-2.36 6.883m2.297.738s.746-2.539 2.063-6.988c.656-2.219 1.449-4.918 2.367-8.016.46-1.547.941-3.191 1.453-4.93.55-1.726 1.133-3.539 1.734-5.43 4.825-15.136 11.262-35.312 17.7-55.491 6.433-20.184 12.87-40.364 17.695-55.496.621-1.891 1.164-3.707 1.746-5.43.582-1.711 1.144-3.332 1.664-4.86 1.05-3.054 1.965-5.714 2.711-7.91l2.363-6.89s-.758 2.547-2.066 6.988c-.664 2.219-1.453 4.918-2.371 8.016-.453 1.546-.942 3.191-1.453 4.93-.52 1.738-1.13 3.538-1.735 5.429-4.82 15.137-11.258 35.312-17.691 55.492a250636 250636 0 0 1-19.438 60.926c-.586 1.715-1.144 3.34-1.668 4.863-1.043 3.051-1.957 5.711-2.71 7.906-1.5 4.391-2.364 6.891-2.364 6.891m2.3.734s.747-2.543 2.06-6.988l2.37-8.02c.454-1.542.942-3.19 1.454-4.933.547-1.715 1.125-3.535 1.734-5.426 4.824-15.129 11.262-35.316 17.695-55.496 6.438-20.18 12.875-40.351 17.7-55.488.613-1.89 1.16-3.715 1.746-5.426.582-1.71 1.14-3.34 1.664-4.863 1.043-3.055 1.957-5.715 2.707-7.906 1.508-4.383 2.363-6.891 2.363-6.891s-.754 2.535-2.062 6.98c-.664 2.227-1.461 4.926-2.371 8.016-.461 1.547-.946 3.2-1.457 4.93-.524 1.734-1.13 3.535-1.727 5.433-4.828 15.13-11.266 35.317-17.703 55.496-6.438 20.18-12.875 40.36-17.7 55.497-.605 1.89-1.183 3.703-1.73 5.418-.59 1.722-1.148 3.34-1.668 4.87l-2.715 7.907c-1.504 4.383-2.36 6.89-2.36 6.89m2.294.73s.754-2.538 2.066-6.987l2.368-8.012c.457-1.55.937-3.195 1.457-4.934.546-1.722 1.12-3.539 1.726-5.425 4.824-15.137 11.262-35.32 17.7-55.497 6.437-20.18 12.874-40.363 17.699-55.496.613-1.89 1.156-3.71 1.742-5.425s1.144-3.34 1.668-4.864c1.047-3.054 1.957-5.715 2.71-7.906 1.5-4.387 2.36-6.89 2.36-6.89s-.754 2.542-2.066 6.984l-2.368 8.015-1.457 4.93c-.52 1.738-1.125 3.54-1.726 5.43-4.824 15.137-11.262 35.316-17.7 55.496s-12.874 40.367-17.699 55.496c-.605 1.89-1.183 3.703-1.738 5.426-.582 1.715-1.14 3.34-1.664 4.863-1.05 3.05-1.957 5.715-2.71 7.914a4609 4609 0 0 0-2.368 6.883m2.301.734s.75-2.543 2.066-6.984a2900 2900 0 0 1 2.36-8.024q.692-2.31 1.46-4.925c.551-1.723 1.125-3.54 1.73-5.43a329886 329886 0 0 1 17.7-55.492c6.438-20.18 12.875-40.36 17.7-55.496.605-1.887 1.156-3.711 1.738-5.426.59-1.711 1.144-3.336 1.671-4.86 1.043-3.058 1.957-5.722 2.704-7.913 1.503-4.38 2.359-6.891 2.359-6.891s-.746 2.539-2.059 6.992c-.66 2.219-1.453 4.91-2.37 8.008l-1.458 4.93c-.52 1.738-1.129 3.543-1.722 5.437a129321 129321 0 0 0-17.704 55.492c-6.437 20.18-12.875 40.36-17.699 55.489-.601 1.894-1.187 3.71-1.734 5.43-.59 1.718-1.14 3.34-1.672 4.863-1.04 3.054-1.957 5.718-2.71 7.91-1.5 4.383-2.36 6.89-2.36 6.89m2.3.731 2.06-6.985c.651-2.226 1.448-4.921 2.366-8.015.453-1.551.942-3.192 1.457-4.934.547-1.722 1.13-3.535 1.73-5.426 4.829-15.136 11.262-35.316 17.696-55.496 6.438-20.18 12.875-40.36 17.707-55.488.606-1.898 1.152-3.719 1.738-5.434.582-1.71 1.141-3.34 1.664-4.863 1.051-3.05 1.957-5.715 2.711-7.906 1.504-4.387 2.36-6.89 2.36-6.89s-.746 2.538-2.063 6.984c-.664 2.222-1.46 4.922-2.37 8.02-.462 1.542-.942 3.19-1.458 4.925-.515 1.734-1.129 3.539-1.726 5.434a412358 412358 0 0 1-17.7 55.492c-6.433 20.183-12.87 40.36-17.695 55.496-.61 1.89-1.187 3.703-1.738 5.426-.586 1.714-1.149 3.34-1.668 4.863-1.043 3.055-1.961 5.715-2.715 7.906-1.496 4.383-2.356 6.89-2.356 6.89m2.293.735s.75-2.543 2.063-6.984c.66-2.227 1.453-4.926 2.371-8.016.453-1.547.941-3.191 1.453-4.93.547-1.726 1.125-3.543 1.727-5.433 4.824-15.133 11.27-35.317 17.703-55.496 6.437-20.18 12.87-40.36 17.7-55.492.612-1.887 1.16-3.711 1.737-5.426.59-1.711 1.149-3.34 1.668-4.86 1.047-3.058 1.961-5.714 2.715-7.914l2.356-6.89s-.75 2.543-2.067 6.992c-.656 2.215-1.449 4.918-2.367 8.008q-.687 2.331-1.457 4.933c-.516 1.735-1.125 3.54-1.723 5.434-4.828 15.137-11.265 35.309-17.699 55.488a115303 115303 0 0 1-17.703 55.496c-.602 1.89-1.18 3.711-1.73 5.426-.586 1.719-1.145 3.34-1.668 4.871-1.051 3.047-1.961 5.711-2.715 7.906zm2.297.73 2.067-6.984c.656-2.222 1.453-4.918 2.363-8.015.46-1.551.945-3.192 1.46-4.934.548-1.715 1.126-3.535 1.727-5.426 4.833-15.133 11.266-35.316 17.704-55.496a194535 194535 0 0 0 17.699-55.492c.61-1.89 1.16-3.715 1.738-5.43.59-1.71 1.14-3.332 1.672-4.863 1.04-3.055 1.957-5.715 2.707-7.902 1.5-4.387 2.36-6.891 2.36-6.891s-.755 2.535-2.067 6.984c-.66 2.22-1.453 4.918-2.371 8.016-.453 1.543-.945 3.191-1.453 4.922-.524 1.738-1.125 3.543-1.723 5.437l-17.703 55.496a338645 338645 0 0 0-17.7 55.493c-.605 1.89-1.187 3.703-1.738 5.43q-.877 2.571-1.667 4.863c-1.043 3.054-1.961 5.71-2.708 7.906a4249 4249 0 0 1-2.367 6.887m2.301.738 2.059-6.988c.656-2.22 1.46-4.926 2.367-8.016l1.457-4.93c.547-1.726 1.129-3.543 1.726-5.433 4.833-15.137 11.27-35.309 17.708-55.496 6.43-20.18 12.875-40.36 17.699-55.489.61-1.89 1.156-3.71 1.742-5.433.586-1.707 1.137-3.332 1.668-4.856 1.043-3.054 1.953-5.715 2.703-7.914 1.504-4.383 2.367-6.883 2.367-6.883l-2.07 6.98c-.652 2.22-1.45 4.919-2.367 8.02-.461 1.543-.942 3.192-1.461 4.926-.516 1.738-1.125 3.543-1.719 5.434-4.824 15.136-11.262 35.308-17.7 55.488-6.437 20.188-12.874 40.367-17.698 55.496-.606 1.899-1.192 3.707-1.739 5.434q-.887 2.566-1.668 4.863l-2.715 7.906c-1.503 4.383-2.359 6.89-2.359 6.89m2.294.732s.753-2.54 2.065-6.981c.657-2.23 1.454-4.93 2.368-8.024.457-1.546.937-3.19 1.457-4.93.547-1.718 1.129-3.538 1.726-5.429 4.828-15.133 11.262-35.316 17.7-55.496s12.874-40.36 17.699-55.492c.613-1.89 1.164-3.715 1.746-5.426.59-1.71 1.14-3.336 1.664-4.863 1.05-3.055 1.957-5.719 2.71-7.907 1.505-4.386 2.36-6.89 2.36-6.89s-.746 2.535-2.062 6.984a6673 6673 0 0 1-2.375 8.016 835 835 0 0 1-1.457 4.93c-.516 1.73-1.121 3.535-1.723 5.43a276645 276645 0 0 1-17.7 55.495c-6.433 20.18-12.87 40.36-17.698 55.496-.606 1.887-1.184 3.7-1.73 5.422-.59 1.72-1.15 3.336-1.673 4.867-1.05 3.051-1.957 5.715-2.71 7.907-1.509 4.383-2.368 6.89-2.368 6.89m2.301.735 2.062-6.989c.657-2.218 1.453-4.918 2.371-8.011.454-1.551.938-3.2 1.454-4.934.546-1.726 1.125-3.543 1.73-5.426 4.828-15.136 11.262-35.324 17.7-55.496 6.437-20.18 12.874-40.367 17.698-55.496.614-1.89 1.16-3.71 1.743-5.426q.88-2.578 1.668-4.863c1.043-3.055 1.957-5.719 2.707-7.906 1.5-4.39 2.363-6.89 2.363-6.89s-.746 2.538-2.066 6.98c-.653 2.226-1.454 4.926-2.372 8.015-.457 1.547-.945 3.192-1.453 4.93-.523 1.738-1.129 3.543-1.726 5.434-4.828 15.136-11.262 35.316-17.7 55.496s-12.878 40.36-17.703 55.488c-.605 1.89-1.187 3.71-1.73 5.434-.594 1.707-1.149 3.336-1.676 4.863-1.043 3.055-1.953 5.707-2.707 7.906-1.5 4.383-2.363 6.89-2.363 6.89m2.297.731s.754-2.539 2.066-6.984c.652-2.223 1.453-4.922 2.363-8.02.461-1.547.942-3.191 1.461-4.93.547-1.722 1.121-3.535 1.727-5.43 4.824-15.132 11.262-35.312 17.7-55.495a211031 211031 0 0 0 17.698-55.492c.61-1.883 1.164-3.711 1.743-5.426.59-1.711 1.14-3.332 1.668-4.863 1.046-3.055 1.953-5.715 2.707-7.907l2.363-6.89s-.75 2.539-2.067 6.984l-2.367 8.016c-.465 1.547-.945 3.195-1.457 4.93-.52 1.738-1.125 3.538-1.722 5.437-4.829 15.129-11.266 35.308-17.704 55.488-6.437 20.18-12.875 40.363-17.699 55.492l-1.738 5.43c-.586 1.715-1.14 3.34-1.668 4.863-1.047 3.051-1.953 5.715-2.707 7.914-1.512 4.38-2.367 6.883-2.367 6.883m2.301.735s.746-2.543 2.058-6.985c.656-2.222 1.453-4.926 2.367-8.015.457-1.555.946-3.2 1.457-4.934.547-1.723 1.13-3.543 1.727-5.43a98110 98110 0 0 0 17.7-55.492c6.444-20.18 12.878-40.367 17.706-55.492.61-1.895 1.156-3.715 1.735-5.43.593-1.71 1.148-3.34 1.667-4.863 1.051-3.05 1.961-5.719 2.711-7.91 1.504-4.387 2.368-6.89 2.368-6.89l-2.07 6.984c-.657 2.226-1.458 4.925-2.368 8.015-.453 1.547-.945 3.2-1.46 4.93-.52 1.738-1.126 3.543-1.727 5.437l-17.7 55.493c-6.437 20.18-12.87 40.359-17.699 55.492-.605 1.89-1.18 3.707-1.73 5.426-.59 1.718-1.14 3.34-1.672 4.863a3600 3600 0 0 1-2.711 7.91c-1.504 4.383-2.36 6.89-2.36 6.89m2.301.732s.746-2.54 2.059-6.985l2.367-8.016c.453-1.547.945-3.195 1.453-4.934.547-1.722 1.13-3.539 1.73-5.43 4.829-15.132 11.262-35.312 17.7-55.491s12.875-40.36 17.707-55.496c.61-1.891 1.152-3.711 1.734-5.426a2905 2905 0 0 1 1.668-4.86c1.043-3.058 1.961-5.715 2.711-7.91 1.504-4.383 2.36-6.89 2.36-6.89s-.747 2.539-2.067 6.988c-.652 2.219-1.453 4.914-2.37 8.012q-.68 2.326-1.454 4.933c-.524 1.73-1.125 3.535-1.727 5.426-4.824 15.137-11.261 35.316-17.699 55.496-6.437 20.18-12.87 40.36-17.703 55.496-.602 1.89-1.18 3.703-1.734 5.426-.582 1.715-1.141 3.34-1.664 4.867a2847 2847 0 0 1-2.715 7.906zm2.293.73 2.063-6.98c.66-2.227 1.457-4.927 2.363-8.017.461-1.554.945-3.199 1.461-4.937l1.727-5.426c4.828-15.137 11.261-35.316 17.699-55.496 6.437-20.18 12.87-40.36 17.703-55.488.613-1.89 1.16-3.715 1.742-5.434.586-1.707 1.145-3.332 1.664-4.863 1.055-3.05 1.961-5.715 2.715-7.899 1.496-4.39 2.355-6.89 2.355-6.89l-2.066 6.976-2.367 8.024c-.457 1.539-.945 3.191-1.457 4.922-.516 1.738-1.125 3.543-1.723 5.437-4.828 15.13-11.265 35.317-17.703 55.496-6.437 20.172-12.875 40.352-17.7 55.489-.6 1.89-1.187 3.707-1.734 5.425-.59 1.72-1.14 3.34-1.664 4.864-1.043 3.054-1.96 5.718-2.714 7.91zm2.301.738s.742-2.547 2.063-6.988c.652-2.223 1.453-4.922 2.363-8.016.453-1.547.945-3.192 1.46-4.93l1.727-5.43 17.703-55.492c6.438-20.183 12.868-40.363 17.7-55.496.605-1.894 1.16-3.707 1.73-5.43.594-1.71 1.149-3.331 1.676-4.859 1.043-3.054 1.96-5.715 2.707-7.91l2.363-6.89-2.066 6.988-2.367 8.015c-.457 1.543-.946 3.192-1.457 4.922-.52 1.746-1.125 3.547-1.727 5.438-4.828 15.136-11.27 35.312-17.7 55.492a194566 194566 0 0 1-17.706 55.496c-.598 1.89-1.18 3.703-1.727 5.426-.59 1.715-1.144 3.343-1.672 4.863-1.043 3.059-1.96 5.715-2.71 7.906-1.5 4.387-2.36 6.895-2.36 6.895m2.297.726s.746-2.535 2.059-6.976c.656-2.23 1.46-4.93 2.367-8.02.457-1.554.945-3.191 1.457-4.937.547-1.715 1.125-3.535 1.734-5.426 4.824-15.137 11.262-35.316 17.7-55.496 6.433-20.18 12.87-40.352 17.699-55.488.609-1.891 1.156-3.715 1.742-5.434.582-1.707 1.14-3.332 1.664-4.855 1.047-3.055 1.957-5.715 2.71-7.907 1.505-4.39 2.356-6.89 2.356-6.89s-.746 2.535-2.058 6.98c-.657 2.227-1.461 4.926-2.372 8.02-.46 1.543-.945 3.195-1.46 4.925-.52 1.735-1.125 3.536-1.72 5.434-4.827 15.129-11.265 35.316-17.698 55.496l-17.7 55.488c-.609 1.891-1.187 3.711-1.738 5.426-.59 1.719-1.144 3.344-1.672 4.871-1.043 3.047-1.96 5.715-2.71 7.907-1.505 4.382-2.36 6.882-2.36 6.882m2.293.735 2.066-6.985 2.367-8.015c.457-1.547.946-3.192 1.454-4.934l1.73-5.426c4.824-15.132 11.27-35.316 17.7-55.492l17.702-55.496c.61-1.89 1.16-3.715 1.739-5.426.586-1.715 1.148-3.336 1.668-4.863 1.05-3.055 1.96-5.719 2.71-7.91 1.5-4.383 2.36-6.89 2.36-6.89s-.754 2.546-2.066 6.988c-.657 2.218-1.454 4.921-2.372 8.015a1509 1509 0 0 1-1.453 4.93c-.52 1.738-1.129 3.539-1.722 5.43l-17.703 55.496c-6.438 20.18-12.875 40.359-17.7 55.496l-1.73 5.426c-.59 1.71-1.149 3.34-1.672 4.863-1.043 3.054-1.957 5.71-2.71 7.906zm2.301.731s.75-2.536 2.058-6.977c.664-2.223 1.457-4.93 2.367-8.024.461-1.543.946-3.191 1.461-4.933l1.73-5.426c4.825-15.13 11.263-35.309 17.7-55.496a323449 323449 0 0 0 17.703-55.489c.61-1.89 1.156-3.71 1.738-5.433l1.668-4.856c1.043-3.054 1.957-5.718 2.704-7.906 1.503-4.39 2.363-6.89 2.363-6.89s-.75 2.535-2.063 6.988c-.656 2.219-1.457 4.91-2.37 8.008q-.689 2.321-1.458 4.93c-.52 1.738-1.129 3.534-1.726 5.433-4.828 15.137-11.262 35.316-17.7 55.496s-12.875 40.36-17.699 55.488c-.61 1.895-1.187 3.711-1.734 5.426-.582 1.723-1.145 3.344-1.664 4.871l-2.719 7.906c-1.5 4.387-2.36 6.883-2.36 6.883m2.301.739s.75-2.536 2.055-6.989c.66-2.219 1.457-4.918 2.371-8.011.461-1.551.942-3.196 1.461-4.934.543-1.723 1.117-3.54 1.727-5.43 4.828-15.133 11.261-35.316 17.699-55.492 6.434-20.18 12.871-40.363 17.703-55.496.613-1.89 1.156-3.711 1.738-5.426.59-1.71 1.141-3.34 1.664-4.863 1.047-3.055 1.957-5.715 2.711-7.906l2.364-6.891s-.75 2.54-2.067 6.984l-2.367 8.02-1.457 4.926c-.52 1.738-1.133 3.535-1.723 5.437-4.832 15.13-11.27 35.309-17.703 55.488-6.437 20.18-12.87 40.36-17.699 55.497-.61 1.886-1.187 3.703-1.734 5.425-.59 1.715-1.149 3.332-1.672 4.864-1.047 3.05-1.961 5.714-2.711 7.906-1.5 4.383-2.36 6.89-2.36 6.89m2.297.735s.746-2.543 2.063-6.985c.656-2.226 1.449-4.925 2.363-8.023.465-1.539.945-3.191 1.457-4.926.55-1.722 1.125-3.543 1.727-5.43 4.832-15.132 11.27-35.312 17.707-55.492 6.433-20.18 12.87-40.359 17.695-55.496.613-1.89 1.16-3.71 1.746-5.425.582-1.711 1.14-3.34 1.66-4.864 1.051-3.054 1.961-5.718 2.711-7.91 1.5-4.387 2.363-6.89 2.363-6.89s-.753 2.542-2.062 6.992l-2.371 8.007c-.457 1.555-.945 3.192-1.461 4.93-.52 1.738-1.125 3.543-1.723 5.434-4.824 15.133-11.265 35.312-17.695 55.492-6.437 20.184-12.875 40.367-17.707 55.496-.602 1.89-1.18 3.707-1.73 5.426-.59 1.719-1.149 3.34-1.668 4.87a8093 8093 0 0 0-2.711 7.903c-1.508 4.387-2.364 6.89-2.364 6.89m2.297.731 2.055-6.984c.664-2.223 1.46-4.922 2.375-8.016.457-1.55.945-3.195 1.453-4.933l1.73-5.434a119925 119925 0 0 0 17.704-55.488c6.433-20.18 12.87-40.36 17.699-55.488.613-1.895 1.16-3.72 1.738-5.434.586-1.71 1.145-3.332 1.668-4.863 1.043-3.055 1.957-5.715 2.711-7.907 1.5-4.382 2.36-6.886 2.36-6.886l-2.067 6.98c-.656 2.223-1.453 4.922-2.371 8.02-.453 1.543-.945 3.191-1.453 4.93-.524 1.73-1.125 3.535-1.727 5.43-4.824 15.132-11.262 35.316-17.699 55.491-6.438 20.18-12.875 40.36-17.7 55.496-.605 1.891-1.183 3.704-1.738 5.426-.582 1.715-1.14 3.34-1.664 4.863-1.05 3.055-1.957 5.715-2.71 7.907zm2.297.738 2.059-6.988c.664-2.226 1.46-4.918 2.367-8.015q.689-2.322 1.46-4.93c.552-1.727 1.126-3.543 1.727-5.434 4.828-15.136 11.262-35.316 17.703-55.496 6.43-20.18 12.875-40.359 17.7-55.488.613-1.89 1.164-3.71 1.738-5.434.59-1.707 1.144-3.335 1.664-4.863 1.05-3.047 1.965-5.715 2.711-7.906 1.504-4.387 2.367-6.89 2.367-6.89s-.754 2.542-2.07 6.991a6417 6417 0 0 1-2.367 8.016c-.457 1.54-.946 3.192-1.457 4.922-.52 1.738-1.13 3.54-1.723 5.438-4.824 15.136-11.262 35.308-17.7 55.488-6.437 20.187-12.874 40.367-17.702 55.496-.602 1.89-1.184 3.707-1.735 5.433-.59 1.711-1.14 3.332-1.664 4.856-1.05 3.055-1.965 5.719-2.71 7.914-1.509 4.383-2.368 6.89-2.368 6.89m2.301.727s.75-2.535 2.058-6.984c.657-2.219 1.45-4.922 2.368-8.016.46-1.547.941-3.195 1.453-4.933.55-1.723 1.133-3.536 1.734-5.426l17.703-55.496c6.438-20.18 12.867-40.356 17.7-55.496.605-1.887 1.156-3.711 1.742-5.426q.88-2.567 1.656-4.86c1.055-3.058 1.965-5.714 2.71-7.906 1.509-4.386 2.364-6.89 2.364-6.89s-.746 2.535-2.062 6.984c-.657 2.223-1.454 4.918-2.371 8.012-.457 1.55-.946 3.195-1.457 4.933-.516 1.73-1.125 3.535-1.727 5.43-4.824 15.137-11.262 35.316-17.7 55.496-6.433 20.176-12.87 40.356-17.702 55.492-.602 1.89-1.18 3.711-1.727 5.426l-1.672 4.867c-1.043 3.051-1.96 5.711-2.71 7.906-1.5 4.383-2.36 6.887-2.36 6.887m2.293.731s.75-2.535 2.062-6.98l2.368-8.02q.687-2.315 1.457-4.934l1.726-5.426c4.832-15.136 11.27-35.316 17.703-55.496 6.438-20.172 12.875-40.36 17.7-55.488.613-1.89 1.16-3.715 1.746-5.426.582-1.715 1.14-3.34 1.66-4.863 1.047-3.055 1.96-5.723 2.71-7.906 1.5-4.391 2.364-6.891 2.364-6.891l-2.07 6.98c-.649 2.22-1.454 4.918-2.368 8.02-.457 1.539-.945 3.187-1.453 4.926-.523 1.738-1.129 3.543-1.726 5.433-4.828 15.13-11.266 35.317-17.703 55.496-6.438 20.18-12.875 40.36-17.7 55.497l-1.73 5.425c-.586 1.707-1.149 3.332-1.668 4.864-1.05 3.046-1.961 5.707-2.715 7.906zm2.297.738s.754-2.54 2.066-6.984c.656-2.223 1.453-4.926 2.363-8.02l1.461-4.93c.547-1.726 1.125-3.539 1.727-5.43 4.832-15.132 11.262-35.312 17.703-55.495 6.434-20.18 12.871-40.356 17.7-55.493.613-1.882 1.16-3.71 1.738-5.43.585-1.706 1.148-3.331 1.667-4.859 1.047-3.054 1.961-5.715 2.711-7.91 1.5-4.383 2.36-6.887 2.36-6.887s-.754 2.536-2.067 6.985c-.656 2.222-1.453 4.918-2.37 8.015-.454 1.547-.942 3.192-1.454 4.93-.52 1.738-1.133 3.54-1.726 5.43-4.825 15.137-11.262 35.316-17.7 55.492-6.437 20.184-12.875 40.363-17.699 55.496-.605 1.895-1.187 3.707-1.73 5.426-.598 1.719-1.149 3.336-1.672 4.867-1.047 3.05-1.965 5.715-2.711 7.906-1.504 4.383-2.367 6.89-2.367 6.89m2.3.728 2.067-6.981a1685 1685 0 0 1 2.363-8.012c.453-1.55.945-3.199 1.453-4.933q.832-2.585 1.735-5.434c4.824-15.129 11.261-35.316 17.699-55.488 6.437-20.18 12.875-40.36 17.7-55.496.605-1.89 1.155-3.711 1.741-5.426q.877-2.579 1.668-4.863a2006 2006 0 0 1 2.711-7.907c1.496-4.39 2.36-6.89 2.36-6.89s-.754 2.535-2.067 6.98c-.66 2.219-1.457 4.926-2.37 8.016-.462 1.547-.946 3.2-1.454 4.93-.524 1.734-1.133 3.543-1.727 5.433-4.832 15.137-11.27 35.309-17.707 55.496-6.433 20.18-12.87 40.36-17.695 55.492-.602 1.887-1.187 3.707-1.734 5.43-.586 1.715-1.141 3.332-1.668 4.863-1.047 3.055-1.961 5.707-2.715 7.907-1.5 4.383-2.36 6.883-2.36 6.883m2.293.737s.754-2.538 2.067-6.984l2.367-8.02q.681-2.32 1.457-4.929c.547-1.722 1.129-3.539 1.727-5.426 4.832-15.136 11.265-35.316 17.707-55.496 6.43-20.18 12.87-40.36 17.699-55.496.605-1.89 1.156-3.71 1.742-5.426.578-1.71 1.137-3.34 1.66-4.863 1.051-3.055 1.957-5.715 2.711-7.906 1.504-4.387 2.36-6.89 2.36-6.89s-.754 2.538-2.063 6.984c-.656 2.222-1.46 4.918-2.367 8.015-.465 1.547-.945 3.192-1.461 4.93-.52 1.738-1.129 3.539-1.727 5.43-4.824 15.136-11.261 35.316-17.699 55.496-6.433 20.18-12.871 40.363-17.7 55.492-.597 1.894-1.183 3.707-1.733 5.43-.586 1.714-1.145 3.34-1.665 4.867-1.046 3.05-1.964 5.71-2.714 7.91zm2.297.735 2.07-6.984c.653-2.23 1.45-4.926 2.368-8.016.453-1.547.937-3.2 1.453-4.933.55-1.723 1.125-3.54 1.73-5.434 4.829-15.129 11.262-35.309 17.7-55.488s12.875-40.364 17.699-55.496c.613-1.887 1.16-3.711 1.738-5.426.598-1.711 1.149-3.336 1.672-4.863 1.05-3.055 1.957-5.72 2.71-7.91l2.356-6.891-2.062 6.984c-.66 2.227-1.453 4.926-2.371 8.016q-.687 2.332-1.457 4.93c-.516 1.738-1.125 3.535-1.723 5.437-4.828 15.129-11.262 35.309-17.703 55.488-6.434 20.18-12.875 40.364-17.7 55.496-.6 1.89-1.179 3.707-1.73 5.426-.593 1.719-1.144 3.34-1.675 4.871-1.043 3.047-1.954 5.711-2.707 7.903zm2.305.731s.746-2.54 2.063-6.985a8250 8250 0 0 0 2.363-8.015q.689-2.32 1.46-4.934a3045 3045 0 0 1 1.727-5.426c4.828-15.136 11.262-35.316 17.703-55.496 6.434-20.18 12.875-40.36 17.7-55.492.605-1.895 1.152-3.715 1.742-5.43a982 982 0 0 1 1.664-4.863c1.043-3.05 1.96-5.715 2.707-7.906l2.363-6.89-2.062 6.987c-.66 2.22-1.457 4.918-2.371 8.016-.457 1.543-.946 3.191-1.457 4.926-.52 1.734-1.133 3.539-1.723 5.433l-17.703 55.493c-6.438 20.183-12.875 40.363-17.7 55.496-.605 1.89-1.187 3.703-1.734 5.425-.59 1.715-1.144 3.34-1.672 4.864a4857 4857 0 0 1-2.707 7.91zm2.29.73s.753-2.535 2.065-6.98c.66-2.227 1.454-4.926 2.368-8.016l1.457-4.93c.554-1.722 1.129-3.543 1.734-5.433 4.824-15.137 11.262-35.317 17.7-55.496s12.87-40.36 17.699-55.493c.609-1.886 1.156-3.71 1.742-5.43.586-1.706 1.14-3.331 1.668-4.855 1.043-3.058 1.953-5.715 2.707-7.914l2.355-6.883s-.746 2.536-2.062 6.98c-.653 2.22-1.45 4.919-2.368 8.013-.46 1.554-.94 3.199-1.46 4.933-.52 1.735-1.125 3.535-1.72 5.434-4.827 15.136-11.26 35.316-17.698 55.496-6.438 20.172-12.875 40.36-17.7 55.488l-1.738 5.426c-.586 1.723-1.148 3.34-1.668 4.871-1.047 3.047-1.96 5.711-2.715 7.898-1.504 4.391-2.367 6.891-2.367 6.891m2.301.734s.75-2.543 2.066-6.984l2.367-8.016c.457-1.55.946-3.19 1.457-4.933.547-1.715 1.125-3.535 1.727-5.426 4.828-15.137 11.262-35.316 17.7-55.496 6.437-20.176 12.874-40.36 17.706-55.492.606-1.89 1.157-3.715 1.735-5.426.593-1.715 1.144-3.344 1.668-4.867 1.05-3.05 1.957-5.715 2.71-7.903 1.504-4.386 2.356-6.894 2.356-6.894l-2.062 6.984c-.653 2.223-1.454 4.922-2.372 8.02a1280 1280 0 0 1-1.453 4.922c-.52 1.738-1.129 3.543-1.726 5.437-4.828 15.133-11.262 35.313-17.7 55.496-6.437 20.18-12.87 40.36-17.703 55.493-.601 1.89-1.187 3.703-1.726 5.43q-.886 2.566-1.672 4.859c-1.05 3.058-1.957 5.714-2.711 7.91-1.504 4.383-2.367 6.886-2.367 6.886m2.3.739s.75-2.543 2.063-6.985c.652-2.23 1.453-4.93 2.371-8.023.453-1.543.938-3.188 1.453-4.926.547-1.726 1.125-3.543 1.727-5.433a274506 274506 0 0 0 17.703-55.497l17.7-55.488c.613-1.89 1.16-3.71 1.741-5.433.586-1.707 1.145-3.332 1.664-4.856 1.047-3.062 1.961-5.715 2.715-7.906 1.504-4.39 2.356-6.89 2.356-6.89l-2.067 6.98c-.656 2.226-1.453 4.918-2.359 8.02a819 819 0 0 0-1.465 4.925c-.52 1.738-1.125 3.543-1.722 5.434a163937 163937 0 0 1-17.7 55.488c-6.437 20.187-12.875 40.367-17.699 55.496-.605 1.89-1.183 3.71-1.738 5.426-.582 1.722-1.145 3.344-1.664 4.87-1.051 3.048-1.961 5.716-2.715 7.907zm2.298.726s.753-2.535 2.058-6.984c.66-2.223 1.461-4.918 2.371-8.012.461-1.55.945-3.195 1.461-4.937l1.727-5.426c4.824-15.133 11.261-35.316 17.699-55.492 6.437-20.18 12.871-40.36 17.7-55.496.616-1.891 1.163-3.715 1.741-5.426.59-1.715 1.14-3.34 1.668-4.867 1.047-3.051 1.953-5.715 2.707-7.903l2.364-6.89-2.067 6.984c-.656 2.219-1.453 4.922-2.37 8.016-.454 1.547-.942 3.195-1.454 4.93-.52 1.73-1.125 3.535-1.727 5.437-4.828 15.129-11.261 35.308-17.699 55.488-6.437 20.18-12.875 40.36-17.699 55.496-.602 1.887-1.188 3.7-1.738 5.426q-.88 2.566-1.66 4.863c-1.055 3.055-1.97 5.711-2.72 7.907-1.5 4.382-2.363 6.886-2.363 6.886m2.301.739s.746-2.543 2.059-6.985c.656-2.222 1.453-4.93 2.371-8.015.453-1.555.941-3.2 1.453-4.934.547-1.727 1.125-3.543 1.734-5.434l17.7-55.488c6.433-20.18 12.87-40.367 17.699-55.496.61-1.89 1.156-3.71 1.742-5.434.582-1.703 1.14-3.332 1.664-4.855 1.047-3.055 1.957-5.719 2.707-7.906 1.504-4.39 2.367-6.89 2.367-6.89s-.754 2.538-2.066 6.987c-.66 2.22-1.453 4.91-2.379 8.008q-.68 2.322-1.453 4.93c-.52 1.738-1.125 3.543-1.719 5.433-4.832 15.137-11.27 35.317-17.707 55.497-6.43 20.18-12.867 40.359-17.7 55.488-.605 1.894-1.183 3.71-1.73 5.433-.59 1.715-1.14 3.336-1.671 4.864-1.043 3.05-1.957 5.715-2.711 7.906-1.496 4.387-2.36 6.89-2.36 6.89m2.302.731s.745-2.539 2.058-6.984l2.367-8.016 1.457-4.934 1.726-5.43a319715 319715 0 0 1 17.7-55.495l17.703-55.492c.61-1.883 1.156-3.715 1.746-5.426.578-1.711 1.137-3.332 1.66-4.864 1.043-3.054 1.961-5.714 2.711-7.906 1.504-4.383 2.36-6.887 2.36-6.887l-2.067 6.98c-.656 2.224-1.453 4.923-2.363 8.017l-1.461 4.93c-.52 1.734-1.125 3.538-1.719 5.437-4.832 15.129-11.27 35.308-17.707 55.488s-12.875 40.36-17.7 55.496a1809 1809 0 0 0-1.73 5.426c-.59 1.715-1.148 3.332-1.668 4.867-1.047 3.05-1.96 5.711-2.715 7.902-1.503 4.383-2.359 6.891-2.359 6.891m2.293.734s.75-2.543 2.066-6.984c.657-2.226 1.45-4.926 2.368-8.016.457-1.554.937-3.191 1.453-4.937.547-1.719 1.129-3.54 1.73-5.426a329886 329886 0 0 1 17.7-55.492c6.437-20.18 12.874-40.363 17.703-55.492.609-1.895 1.156-3.715 1.738-5.43q.88-2.579 1.668-4.863c1.047-3.051 1.957-5.719 2.703-7.91l2.363-6.891-2.062 6.984c-.66 2.227-1.453 4.926-2.371 8.024-.457 1.539-.938 3.191-1.454 4.922-.523 1.738-1.128 3.543-1.726 5.433-4.832 15.133-11.266 35.313-17.703 55.492-6.438 20.18-12.871 40.368-17.7 55.497-.601 1.89-1.18 3.707-1.734 5.425-.59 1.72-1.14 3.34-1.664 4.864-1.05 3.054-1.957 5.718-2.719 7.914-1.5 4.383-2.359 6.886-2.359 6.886m2.301.731s.75-2.535 2.058-6.984c.657-2.223 1.45-4.922 2.368-8.016q.69-2.325 1.453-4.934a1694 1694 0 0 0 1.734-5.425c4.824-15.133 11.266-35.317 17.7-55.497 6.44-20.18 12.87-40.359 17.702-55.496.606-1.886 1.157-3.71 1.739-5.425.582-1.711 1.148-3.332 1.664-4.86 1.05-3.058 1.965-5.715 2.71-7.91a3812 3812 0 0 0 2.364-6.887s-.754 2.535-2.066 6.985c-.657 2.218-1.454 4.918-2.368 8.011l-1.457 4.934c-.52 1.73-1.129 3.535-1.722 5.43a151238 151238 0 0 0-17.703 55.492c-6.438 20.18-12.875 40.36-17.7 55.496a1315 1315 0 0 0-1.734 5.426l-1.672 4.863a3522 3522 0 0 1-2.71 7.906c-1.5 4.387-2.36 6.89-2.36 6.89m2.297.732s.746-2.536 2.062-6.981c.656-2.227 1.45-4.926 2.363-8.016.457-1.554.946-3.191 1.457-4.937.547-1.719 1.133-3.535 1.735-5.426 4.824-15.137 11.262-35.316 17.7-55.496l17.694-55.488c.614-1.895 1.16-3.715 1.747-5.426.582-1.715 1.14-3.34 1.664-4.871 1.046-3.047 1.957-5.715 2.707-7.899 1.5-4.39 2.367-6.898 2.367-6.898s-.758 2.543-2.074 6.984c-.649 2.223-1.454 4.922-2.364 8.024-.453 1.539-.945 3.191-1.46 4.922-.512 1.738-1.126 3.539-1.723 5.437-4.825 15.129-11.262 35.309-17.696 55.496-6.437 20.18-12.875 40.36-17.707 55.488l-1.73 5.434q-.884 2.568-1.668 4.856l-2.715 7.914c-1.504 4.375-2.36 6.882-2.36 6.882m2.294.735s.75-2.543 2.066-6.977c.656-2.23 1.453-4.93 2.371-8.023.453-1.547.942-3.192 1.453-4.934.547-1.722 1.125-3.535 1.727-5.426 4.832-15.132 11.262-35.316 17.7-55.496l17.702-55.492c.61-1.89 1.16-3.707 1.738-5.43a2030 2030 0 0 0 1.672-4.859 3839 3839 0 0 1 2.707-7.91c1.5-4.383 2.36-6.887 2.36-6.887s-.754 2.535-2.059 6.985c-.664 2.218-1.46 4.918-2.379 8.011q-.68 2.327-1.453 4.934c-.52 1.738-1.125 3.539-1.723 5.43l-17.703 55.492a239173 239173 0 0 0-19.43 60.922c-.59 1.718-1.148 3.336-1.671 4.867-1.047 3.05-1.957 5.715-2.711 7.906a6021 6021 0 0 1-2.367 6.887m2.3.73s.75-2.535 2.059-6.976c.656-2.23 1.461-4.922 2.367-8.024q.69-2.314 1.461-4.933c.543-1.715 1.13-3.536 1.73-5.426 4.825-15.137 11.262-35.317 17.7-55.496 6.437-20.172 12.875-40.352 17.7-55.489.612-1.89 1.155-3.714 1.741-5.425.586-1.72 1.145-3.34 1.668-4.864 1.043-3.054 1.957-5.722 2.711-7.906 1.5-4.39 2.36-6.89 2.36-6.89s-.754 2.535-2.067 6.98l-2.371 8.02c-.457 1.543-.941 3.195-1.457 4.925-.516 1.735-1.129 3.535-1.719 5.438L334.453 651.5c-6.437 20.18-12.875 40.36-17.7 55.496-.605 1.883-1.19 3.7-1.737 5.426a1559 1559 0 0 0-1.672 4.863 3521 3521 0 0 1-2.711 7.906c-1.5 4.383-2.36 6.883-2.36 6.883m2.297.739s.746-2.54 2.063-6.985l2.367-8.02q.689-2.32 1.46-4.93c.544-1.726 1.126-3.538 1.728-5.429 4.824-15.136 11.261-35.312 17.695-55.492 6.437-20.184 12.875-40.363 17.699-55.496.613-1.89 1.164-3.711 1.746-5.43.59-1.71 1.14-3.336 1.664-4.86 1.051-3.054 1.965-5.714 2.711-7.905 1.504-4.387 2.36-6.891 2.36-6.891s-.754 2.543-2.063 6.984l-2.367 8.016c-.461 1.547-.945 3.191-1.461 4.93s-1.125 3.539-1.719 5.43c-4.832 15.136-11.27 35.316-17.703 55.495-6.437 20.18-12.871 40.36-17.7 55.493-.6 1.894-1.183 3.707-1.734 5.43l-1.671 4.863c-1.047 3.05-1.957 5.714-2.711 7.906-1.508 4.383-2.364 6.89-2.364 6.89m2.297.735s.75-2.543 2.067-6.985c.652-2.23 1.449-4.921 2.367-8.023.453-1.547.941-3.191 1.453-4.926.547-1.722 1.133-3.535 1.73-5.433 4.829-15.13 11.266-35.317 17.7-55.489 6.437-20.18 12.875-40.359 17.707-55.496.605-1.89 1.156-3.71 1.738-5.425.582-1.711 1.14-3.34 1.664-4.864 1.043-3.054 1.957-5.718 2.707-7.91l2.36-6.887s-.75 2.536-2.06 6.989c-.663 2.218-1.452 4.918-2.37 8.007-.461 1.547-.946 3.2-1.461 4.93-.52 1.735-1.125 3.543-1.723 5.438-4.824 15.132-11.262 35.312-17.7 55.492-6.433 20.18-12.87 40.36-17.694 55.492-.61 1.887-1.188 3.707-1.739 5.43a1559 1559 0 0 0-1.672 4.863c-1.046 3.05-1.957 5.715-2.71 7.906-1.504 4.387-2.364 6.89-2.364 6.89m2.301.731 2.062-6.988c.657-2.219 1.454-4.918 2.364-8.016q.689-2.32 1.46-4.93c.548-1.726 1.126-3.538 1.727-5.425 4.824-15.137 11.262-35.316 17.7-55.496s12.874-40.363 17.703-55.496c.609-1.89 1.16-3.711 1.738-5.426.586-1.715 1.14-3.34 1.668-4.863 1.047-3.055 1.957-5.715 2.71-7.907 1.5-4.386 2.36-6.89 2.36-6.89s-.75 2.539-2.066 6.984c-.656 2.223-1.453 4.918-2.367 8.02-.457 1.543-.946 3.187-1.457 4.926-.52 1.734-1.133 3.539-1.723 5.43-4.828 15.136-11.266 35.316-17.7 55.495-6.44 20.18-12.878 40.364-17.702 55.496l-1.739 5.426c-.582 1.715-1.14 3.34-1.664 4.863-1.05 3.051-1.965 5.715-2.71 7.915-1.505 4.378-2.364 6.882-2.364 6.882m2.297.735s.75-2.54 2.066-6.985c.656-2.226 1.446-4.925 2.364-8.023.46-1.54.94-3.192 1.453-4.93.554-1.719 1.129-3.535 1.73-5.43a140823 140823 0 0 0 17.695-55.496c6.438-20.175 12.875-40.355 17.707-55.488.61-1.887 1.165-3.71 1.743-5.426.586-1.71 1.14-3.336 1.668-4.859 1.043-3.059 1.953-5.723 2.703-7.914 1.504-4.383 2.367-6.89 2.367-6.89s-.754 2.542-2.066 6.991c-.657 2.22-1.454 4.918-2.372 8.008-.453 1.555-.945 3.2-1.46 4.934-.516 1.734-1.125 3.539-1.72 5.433-4.823 15.13-11.269 35.317-17.698 55.489-6.442 20.18-12.875 40.36-17.704 55.496a2728 2728 0 0 1-1.734 5.426q-.877 2.576-1.668 4.87c-1.047 3.048-1.96 5.712-2.707 7.903zm2.301.73 2.058-6.984 2.367-8.016c.457-1.55.946-3.191 1.457-4.933.547-1.723 1.13-3.536 1.727-5.426 4.832-15.137 11.266-35.317 17.707-55.496 6.43-20.18 12.875-40.36 17.7-55.492.609-1.895 1.156-3.715 1.738-5.43.59-1.711 1.14-3.34 1.664-4.863 1.05-3.051 1.96-5.715 2.71-7.907 1.504-4.386 2.36-6.89 2.36-6.89s-.746 2.539-2.063 6.984c-.656 2.223-1.449 4.922-2.367 8.02-.46 1.543-.953 3.191-1.46 4.925-.52 1.735-1.13 3.54-1.727 5.434a329886 329886 0 0 1-17.7 55.492c-6.433 20.184-12.87 40.36-17.699 55.496l-1.734 5.426c-.586 1.715-1.145 3.34-1.668 4.863-1.043 3.055-1.961 5.715-2.711 7.91-1.504 4.383-2.36 6.887-2.36 6.887m2.294.738s.75-2.546 2.066-6.988c.656-2.226 1.453-4.918 2.367-8.015q.68-2.322 1.453-4.93c.547-1.727 1.125-3.543 1.727-5.434 4.832-15.136 11.265-35.316 17.703-55.496 6.434-20.18 12.875-40.36 17.7-55.492.613-1.887 1.16-3.71 1.741-5.43l1.668-4.855c1.043-3.063 1.957-5.715 2.711-7.914 1.496-4.383 2.36-6.883 2.36-6.883s-.754 2.535-2.07 6.98a2191 2191 0 0 1-2.368 8.012c-.453 1.55-.945 3.2-1.453 4.934-.52 1.738-1.129 3.543-1.726 5.433-4.825 15.137-11.266 35.317-17.7 55.489-6.437 20.18-12.87 40.367-17.703 55.496-.605 1.89-1.187 3.707-1.73 5.426-.586 1.722-1.149 3.34-1.668 4.87-1.051 3.047-1.961 5.715-2.715 7.899z"/>
  <g clip-path="url(#ed301090c7)">
    <path fill="#ef2e32" d="M340.71 677.914c-15.17-3.848-29.147-9.496-40.12-20.96-9.172-9.59-16.098-20.071-29.266-24.669-11.832-4.125-24.203-.824-35.89 2.29-15.184 4.062-30.43 7.421-46.278 5.968-7.195-.66-14.699-2.043-21.902-4.3l-15.27 47.882 2.649-1.055 1.64 2.106-.093.289.242-.094.18.23.109-.343 2.117-.848 1.969 2.531 2.644-1.062 1.641 2.11-.094.288.239-.097.183.23.102-.351 2.12-.84 1.97 2.531 2.648-1.055 1.64 2.102-.093.289.238-.098.184.23.11-.343 2.112-.848 1.97 2.532 2.644-1.063 1.644 2.11-.094.289.239-.098.176.23.109-.347 2.121-.844 1.969 2.531 2.648-1.062 1.64 2.11-.093.288.238-.098.184.235.11-.348 2.117-.847 1.96 2.535 2.653-1.059 1.64 2.11-.093.28.238-.09.184.227.109-.343 2.113-.852 1.965 2.535-.016.055 2.653-1.059 1.633 2.11-.094.285.242-.094.184.227.109-.344 2.121-.844 1.961 2.528 2.652-1.055 1.633 2.105-.086.29.238-.098.176.226.114-.343 2.117-.844 1.965 2.527.011-.027 2.645-1.055 1.64 2.106-.093.289.246-.098.176.23.109-.347 2.117-.84 1.969 2.523 2.644-1.054 1.641 2.105-.094.29.246-.098.176.23.11-.348 2.113-.84 1.972 2.524 2.645-1.055 1.64 2.106-.093.289.246-.098.176.23.11-.34 2.116-.847 1.965 2.524 2.649-1.055 1.64 2.105-.094.29.247-.098.175.234.11-.344 2.117-.847 1.969 2.523 2.644-1.054 1.64 2.105-.089.289.242-.094.176.23.11-.343 2.117-.848 1.968 2.524 2.645-1.055 1.64 2.11-.09.289.243-.098.176.23.113-.343 2.113-.844 1.969 2.527-.016.055 2.645-1.055 1.637 2.102-.09.289.238-.098.18.23.109-.343 2.117-.848 1.965 2.531 2.652-1.054 1.637 2.101-.09.29.239-.09.18.222.109-.344 2.117-.843 1.965 2.527 2.652-1.055 1.637 2.102-.086.289.234-.09.176.223.113-.344 2.121-.844 1.961 2.528 2.653-1.055 1.636 2.11-.09.288.239-.097.18.226.109-.343 2.12-.844 1.97 2.527 2.644-1.055 1.637 2.106-.094.289.242-.098.18.235.11-.352 2.12-.84 1.961 2.524 2.653-1.055 1.965 2.524 19.324-60.56c-.856-.198-1.707-.378-2.547-.589"/>
  </g>
  <path fill="#fff" d="m161.441 654.473 1.032-3.235z"/>
  <path fill="#9d9b9b" d="m161.441 654.473 1.032-3.235 1.27-3.972z"/>
  <path fill="#f78f7c" d="M309.16 667.645c-8.582-3.426-17.027-7.457-25.77-11.098-8.816-3.664-17.816-5.387-27.206-5.387-1.184 0-2.368.028-3.563.082-11.738.531-23.062 6.32-34.328 9.23-5.574 1.434-10.93 1.962-16.34 1.962-4.293 0-8.617-.329-13.11-.797-8.898-.93-19.468-1.801-27.085-6.973l-.317-.191 2.301-7.207a15.3 15.3 0 0 0 2.738.8c8.81 1.7 17.348 4.536 26.282 5.543 1.726.192 3.449.278 5.164.278 8.191 0 16.316-1.946 24.34-3.399 10.23-1.863 20.09-3.453 29.925-3.453 8.274 0 16.532 1.125 24.957 4.168 11.317 4.082 21.547 10.469 32.012 16.442"/>
  <path fill="#b72225" d="M305.398 699.48c-13.39-5.316-27.89-12.84-42.773-11.109-15.426 1.797-27.168 13.223-42.621 15.195a59 59 0 0 1-2.89.301l.796 1.035-.086.29.238-.098.176.226.114-.343 2.117-.844 1.965 2.527.011-.027 2.645-1.055 1.64 2.106-.093.289.246-.098.176.23.109-.347 2.117-.84 1.969 2.523 2.644-1.054 1.641 2.105-.094.29.246-.098.176.23.11-.348 2.113-.84 1.972 2.524 2.645-1.055 1.64 2.106-.093.289.246-.098.176.23.11-.34 2.116-.847 1.965 2.524 2.653-1.055 1.636 2.105-.094.29.247-.098.175.234.11-.344 2.117-.847 1.969 2.523 2.644-1.054 1.64 2.105-.089.289.242-.094.176.23.11-.343 2.117-.848 1.968 2.524 2.645-1.055 1.64 2.11-.09.289.243-.098.18.23.109-.343 2.113-.844 1.969 2.527-.016.055 2.645-1.055 1.637 2.102-.09.289.238-.098.18.23.109-.343 2.121-.848 1.961 2.531 2.652-1.054 1.637 2.101-.09.29.239-.09.18.222.109-.344 2.117-.843 1.965 2.527 2.652-1.055 1.637 2.102-.086.289.234-.09.18.223.11-.344 2.12-.844 1.961 2.528 2.653-1.055 1.636 2.11-.09.288.239-.097.18.226.109-.343 2.12-.844 1.97 2.527 2.644-1.055 1.637 2.106-.094.289.242-.098.18.235.11-.352 2.12-.84 1.961 2.524 2.653-1.055 1.965 2.524 10-31.348c-9.73-1.785-19.309-4.567-28.536-8.235"/>
  <path fill="#a7a5a6" d="M639.117 443.676c0 12.66-52.879 22.933-118.105 22.933-65.235 0-118.114-10.273-118.114-22.933 0-12.664 52.88-22.93 118.114-22.93 65.226 0 118.105 10.266 118.105 22.93"/>
  <path fill="#ef2e32" d="M520.45 427.93c-57.47 0-104.048 6.882-104.048 15.37 0 2.563 4.262 4.981 11.797 7.11 17.375 4.902 52.164 8.254 92.25 8.254s74.871-3.351 92.246-8.254c7.532-2.129 11.797-4.547 11.797-7.11 0-8.488-46.582-15.37-104.043-15.37"/>
  <path fill="#b92325" d="M612.695 450.41c-17.375-4.906-52.16-8.254-92.246-8.254s-74.875 3.348-92.25 8.254c17.375 4.902 52.164 8.254 92.25 8.254s74.871-3.351 92.246-8.254"/>
  <g clip-path="url(#69c6171e11)">
    <path fill="#a7a5a6" d="M393.797 497.207v-73.406c0-71.703 56.703-129.832 126.652-129.832 69.942 0 126.653 58.129 126.653 129.832v73.406h11.171v-77.543c0-76.117-61.707-137.828-137.824-137.828-76.125 0-137.828 61.71-137.828 137.828v77.543z"/>
  </g>
  <path fill="#7d7b7b" d="M402.898 501.465h-15.945v-15.957h15.945zm252.165 3.723h-15.946V489.23h15.946z"/>
  <path fill="#ef2e32" d="m553.445 463.695-49.996 1.067c-85.11-2.66-100.55-21.086-100.55-21.086v132.258c0 5.656 4.273 28.625 13.835 27.14 5.707-.89 8.29-14.078 10.383-18.125 2.602-5.043 9.785-17.492 16.649-12.629 5.007 3.547 5.437 18.809 6.37 24.285 1.298 7.57 2.079 15.352 2.778 22.961.984 10.637 11.902 52.243 24.356 27.243 3.343-6.72 4.015-14.036 7.046-20.746 2.59-5.739 10.508-16.86 15.172-7.711 2.2 4.324 3.32 23.414 7.688 24.648 6.793 1.93 11.781-19.824 12.687-24.234 2.645-12.856 2.875-26.344 5.942-39.141 1.734-7.262 2.562-14.8 3.187-22.152 0 0-1.207-9.73 6.375-13.457 0 0 3.188.265 4.387 15.824 0 0 9.176 14.758 11.168-11.235z"/>
  <path fill="#ce272a" d="M550.922 533.797c-1.992 25.992-11.168 11.234-11.168 11.234-1.2-15.554-4.387-15.824-4.387-15.824-7.582 3.727-6.375 13.457-6.375 13.457-.625 7.352-1.453 14.89-3.187 22.152-3.067 12.793-3.297 26.286-5.942 39.145-.906 4.406-5.894 26.16-12.687 24.23-4.367-1.234-5.488-20.324-7.688-24.648-4.664-9.148-12.582 1.973-15.172 7.71-3.03 6.704-3.703 14.032-7.046 20.747-12.454 25-23.372-16.605-24.356-27.242-.7-7.606-1.48-15.387-2.777-22.961-.934-5.477-1.364-20.738-6.371-24.285-6.864-4.864-14.047 7.586-16.649 12.629-2.094 4.047-4.676 17.234-10.383 18.125-9.562 1.484-13.836-21.485-13.836-27.141v15.441c0 5.657 4.274 28.63 13.836 27.141 5.707-.894 8.29-14.074 10.383-18.125 2.602-5.043 9.785-17.492 16.649-12.629 5.007 3.547 5.437 18.817 6.37 24.285 1.298 7.574 2.079 15.356 2.778 22.961.984 10.64 11.902 52.246 24.356 27.246 3.343-6.722 4.015-14.043 7.046-20.75 2.59-5.738 10.508-16.855 15.172-7.71 2.2 4.324 3.32 23.417 7.688 24.652 6.793 1.926 11.781-19.824 12.687-24.235 2.645-12.859 2.875-26.351 5.942-39.14 1.734-7.258 2.562-14.805 3.187-22.153 0 0-1.207-9.738 6.375-13.46 0 0 3.188.261 4.387 15.824 0 0 9.176 14.761 11.168-11.235l2.523-84.91-.457.012z"/>
  <path fill="#c01328" d="M553.137 463.61c-1.078-1.766-2.207-3.7-3.38-5.563-9.292.402-19.136.617-29.308.617-40.086 0-74.875-3.351-92.25-8.254-7.535-2.129-11.797-4.547-11.797-7.11 0-4.296 11.95-8.183 31.2-10.964-1.32-1.961-2.399-4.004-3.18-6.11-25.399 4.208-41.524 10.458-41.524 17.45 0 12.66 52.88 22.933 118.114 22.933a586 586 0 0 0 33.363-.941c-.41-.688-.82-1.379-1.238-2.059"/>
  <path fill="#f78f7c" d="M415.238 580.36h-.179c-.72 0-1.368-.27-1.914-.57-.547-.321-.973-.716-1.348-1.114a10 10 0 0 1-.938-1.25c-1.027-1.719-1.691-3.453-2.207-5.239a42 42 0 0 1-1.183-5.343 44 44 0 0 1-.563-5.407c1.114 3.434 2.254 6.84 3.649 10.063.722 1.59 1.476 3.176 2.453 4.45.246.304.496.59.75.84.258.241.512.433.754.554.191.074.355.14.508.14.03 0 .066 0 .097-.004h.012c.168 0 .36-.101.578-.203l.93-.148-.27-.027-.152.023-.055-.008-.015-.015.203-.184c.18-.254.382-.465.574-.723.348-.629.758-1.164 1.055-1.875.304-.695.675-1.328.933-2.066.266-.719.547-1.43.848-2.145.3-.707.512-1.464.773-2.199l.754-2.21.375-1.15c.14-.394.277-.788.442-1.167.3-.778.636-1.531 1-2.281q.539-1.121 1.18-2.196c.44-.71.913-1.406 1.421-2.066.52-.668 1.035-1.32 1.649-1.914.57-.625 1.285-1.117 1.941-1.649.336-.257.73-.449 1.094-.672.363-.218.726-.437 1.144-.558l1.207-.43c.41-.105.836-.144 1.254-.219.29-.07.578-.093.875-.093.54 0 1.086.082 1.61.097.816.106 1.586.434 2.343.63-.605-.005-1.199-.055-1.78-.055a6 6 0 0 0-.583.023c-.766.14-1.531.145-2.23.465-.356.129-.711.222-1.051.375l-.961.558c-.645.356-1.192.875-1.754 1.329-.508.55-1.047 1.039-1.477 1.66-.48.562-.882 1.195-1.289 1.824a27 27 0 0 0-1.074 1.984 28 28 0 0 0-.945 2.067c-.29.699-.559 1.41-.79 2.129-.124.355-.23.722-.331 1.082l-.149.52-.094.316-.085.289-.739 2.312c-.261.766-.453 1.543-.765 2.3-.29.767-.59 1.524-.903 2.286-.28.758-.715 1.504-1.07 2.25-.332.754-.879 1.496-1.332 2.234-.29.38-.621.754-.95 1.11-.218.191-.484.379-.726.555-.09.074-.308.183-.531.265l-.34.11a1 1 0 0 1-.125.027c-.465.18-.969.312-1.508.312m54.528 56.375c-.442 0-.922-.12-1.426-.46-.54-.317-1.078-.66-1.606-.993-.57-.383-1.023-.886-1.53-1.324-.524-.43-.888-.984-1.306-1.484l-.613-.766-.512-.812c-.328-.547-.707-1.082-.953-1.665l-.808-1.714-.668-1.754c-.235-.574-.387-1.176-.57-1.766a19 19 0 0 1-.477-1.793c-.137-.594-.297-1.191-.406-1.793a45 45 0 0 1-.579-3.62 46 46 0 0 1-.343-7.274c.43 2.382.996 4.722 1.601 7.027.305 1.16.66 2.289 1.016 3.426.168.57.387 1.117.578 1.68.188.554.41 1.097.645 1.636.23.543.41 1.106.68 1.613l.745 1.575.86 1.492c.261.512.64.933.941 1.41l.48.688.548.617c.375.394.699.863 1.136 1.164.418.32.793.722 1.246.976s.907.5 1.344.766l.012.012a2.5 2.5 0 0 0 .543-.52c.465-.523.89-1.273 1.293-2.023.375-.782.758-1.563 1.082-2.403.336-.82.676-1.656.965-2.511.304-.856.601-1.711.863-2.594.273-.871.558-1.735.805-2.621a130 130 0 0 0 1.5-5.313l.355-1.332.203-.71.219-.684a70 70 0 0 1 .945-2.684 42 42 0 0 1 2.356-5.183c.902-1.68 1.976-3.29 3.34-4.684.687-.684 1.48-1.293 2.386-1.684a4.05 4.05 0 0 1 1.598-.328c.426 0 .844.07 1.234.215a3.4 3.4 0 0 0-.48-.035c-.762 0-1.485.258-2.09.656-.738.477-1.332 1.145-1.856 1.863-1.062 1.434-1.816 3.094-2.503 4.762-.684 1.684-1.23 3.418-1.75 5.164-.25.871-.485 1.758-.692 2.637l-.574 2.672a125 125 0 0 1-1.27 5.48c-.21.918-.507 1.817-.77 2.727a46 46 0 0 1-.858 2.707c-.282.902-.63 1.797-.989 2.7-.332.89-.793 1.769-1.234 2.655-.488.88-.985 1.754-1.758 2.621-.379.426-.82.872-1.539 1.23-.336.169-.812.356-1.36.356m.153-3.054.309.218c-.23-.218-.211-.164-.301-.218zm39.098-8.121a3.3 3.3 0 0 1-1.473-.332c-1.027-.543-1.57-1.18-2.047-2.055l-.137-.258-.027-.355-.18-2.211-.34-2.274c-.074-.765-.242-1.531-.363-2.3l-.406-2.305-.824-4.645c-.29-1.554-.531-3.129-.766-4.703 1.422 2.86 2.598 5.809 3.617 8.82.274.75.489 1.52.715 2.286.219.77.477 1.523.656 2.312l.532 2.371.3 2c.188.23.454.496.579.52.054.015.078.027.105.027.043 0 .094-.027.273-.137.122-.043.282-.258.438-.363l.469-.582c.297-.473.62-.918.89-1.46.551-1.02 1.051-2.208 1.54-3.4l1.492-3.538c.453-1.204 1.007-2.372 1.453-3.57.46-1.204.965-2.387 1.394-3.595l.684-1.804.597-1.832c.2-.61.442-1.215.551-1.844l.469-1.91.11 1.973c.042.68-.024 1.335-.087 1.984l-.203 1.984c-.097.649-.242 1.29-.359 1.942a41 41 0 0 1-.883 3.843c-.316 1.282-.703 2.54-1.101 3.782-.418 1.246-.817 2.488-1.282 3.726-.238.625-.457 1.215-.726 1.836-.274.63-.512 1.258-.864 1.887-.292.629-.68 1.262-1.109 1.875l-.773.914c-.356.289-.614.59-1.082.84-.41.265-.953.457-1.547.539a4 4 0 0 1-.285.012m35.109-82.938q-.21 0-.434-.039c-.648-.07-1.183-.398-1.59-.719-.769-.683-1.128-1.394-1.445-2.078-.574-1.367-.82-2.687-1.027-4.012-.16-1.32-.262-2.632-.254-3.945a27 27 0 0 1 .246-3.918c.7 2.52 1.313 5.02 2.106 7.383.37 1.184.812 2.344 1.367 3.289.254.465.582.871.808 1.012a.4.4 0 0 0 .137.043c.027 0-.02-.043.129-.082l.723-.137c-.352 0-.301.02-.317.02h-.011l.039-.036c.058-.074.152-.125.246-.273.183-.227.39-.578.566-.945q.27-.556.48-1.2c.165-.41.278-.87.407-1.308.238-.895.453-1.828.629-2.774.195-.941.375-1.89.5-2.863.312-1.93.562-3.898.832-5.871l.422-2.965c.144-.996.308-1.996.511-2.992.414 1.984.727 3.992.864 6.012.093 1.007.164 2.023.16 3.035.008 1.015.047 2.035-.035 3.058a46 46 0 0 1-.25 3.07c-.043.516-.153 1.028-.243 1.548-.09.515-.18 1.03-.332 1.546-.27 1.04-.566 2.075-1.109 3.122-.273.523-.566 1.054-1.031 1.578-.203.25-.516.52-.836.758-.203.117-.344.23-.613.335-.215.063-.325.141-.633.18a3.4 3.4 0 0 1-1.012.168"/>
</svg>
