<svg width="30" height="31" viewBox="0 0 30 31" xmlns="http://www.w3.org/2000/svg">
  <path d="M6.25 17.956c0-1.009 0-1.513.222-1.944.221-.43.632-.724 1.453-1.31l5.913-4.224c.56-.4.842-.601 1.162-.601s.601.2 1.163.601l5.912 4.223c.821.587 1.232.88 1.453 1.311s.222.935.222 1.944v7.192c0 .943 0 1.414-.293 1.707s-.764.293-1.707.293H8.25c-.943 0-1.414 0-1.707-.293s-.293-.764-.293-1.707z" fill="#E2E5FF"/>
  <path d="M3.75 16.535c0 .266 0 .4.084.441s.19-.04.4-.205l9.538-7.418c.59-.459.885-.688 1.228-.688s.638.23 1.228.688l9.538 7.418c.21.164.316.246.4.205s.084-.175.084-.441v-.909c0-.48 0-.72-.102-.928s-.291-.356-.67-.65l-9.25-7.195c-.59-.459-.885-.688-1.228-.688s-.638.23-1.228.688l-9.25 7.194c-.38.295-.569.443-.67.65-.102.209-.102.449-.102.93zm12.375 3.113h-2.25a2 2 0 0 0-2 2v5.35c0 .083.067.15.15.15h5.95a.15.15 0 0 0 .15-.15v-5.35a2 2 0 0 0-2-2" fill="#E2E5FF"/>
  <rect x="20" y="7.148" width="2.5" height="5" rx=".5" fill="#E2E5FF"/>
</svg>
