<svg width="32" height="40" viewBox="0 0 32 40" fill="none" xmlns="http://www.w3.org/2000/svg">
  <g clip-path="url(#clip0_382_17952)" fill="#294BA0">
    <path d="M29.058 39.648H2.971A2.97 2.97 0 0 1 0 36.68V2.971A2.97 2.97 0 0 1 2.971 0h12.866a1.307 1.307 0 0 1 1.307 1.307v11.32a.564.564 0 0 0 .565.564h13A1.307 1.307 0 0 1 32 14.48v22.242a2.97 2.97 0 0 1-2.942 2.926M2.971 2.273a.7.7 0 0 0-.7.7v33.749a.7.7 0 0 0 .7.7h26.087a.7.7 0 0 0 .7-.7V15.449H17.694a2.794 2.794 0 0 1-2.778-2.793V2.258z"/>
    <path d="M25.449 23.743H6.552a.83.83 0 1 0 0 1.637h18.9a.828.828 0 0 0 .669-1.45.83.83 0 0 0-.67-.187zm0 3.893H6.552a.83.83 0 0 0-.884 1.166.83.83 0 0 0 .884.47h18.9a.83.83 0 0 0 .884-1.165.83.83 0 0 0-.884-.471z"/>
  </g>
  <defs>
    <clipPath id="clip0_382_17952">
      <path fill="#fff" d="M0 0h32v39.648H0z"/>
    </clipPath>
  </defs>
</svg>
