<svg width="65" height="76" viewBox="0 0 65 76" fill="none" xmlns="http://www.w3.org/2000/svg">
  <g clip-path="url(#clip0_4665_10641)">
    <path d="M20.99.045h25.626A2.14 2.14 0 0 1 48.328.9l16.095 17.412c.363.394.565.91.565 1.447L65 57.036c0 2.614-1.076 5-2.805 6.731l-.01.01a9.52 9.52 0 0 1-6.727 2.8H52.48a9.52 9.52 0 0 1-2.802 6.574 9.52 9.52 0 0 1-6.74 2.804H9.542a9.5 9.5 0 0 1-6.739-2.804A9.5 9.5 0 0 1 0 66.413V20.208a9.5 9.5 0 0 1 2.802-6.74 9.5 9.5 0 0 1 6.74-2.802h1.906V9.587a9.52 9.52 0 0 1 2.801-6.74A9.5 9.5 0 0 1 20.99.045m4.53 37.243a2.143 2.143 0 0 1 0-4.284h25.407a2.143 2.143 0 0 1 0 4.284zm0 11.406a2.141 2.141 0 1 1 0-4.283h20.246a2.142 2.142 0 0 1 0 4.283zM47.832 6.64v7.276c.143 1.825.774 3.25 1.878 4.194 1.157.988 2.905 1.545 5.228 1.586l4.955-.006zm12.886 17.33-5.813-.009c-3.382-.052-6.05-.964-7.972-2.607-2-1.713-3.131-4.134-3.363-7.128l-.02-.297V4.328H20.99a5.26 5.26 0 0 0-3.714 1.545 5.26 5.26 0 0 0-1.545 3.714v47.449a5.25 5.25 0 0 0 1.546 3.713 5.25 5.25 0 0 0 3.713 1.546h34.468c1.447 0 2.763-.59 3.711-1.54a5.24 5.24 0 0 0 1.548-3.72zM48.195 66.578H20.99a9.52 9.52 0 0 1-6.739-2.802 9.52 9.52 0 0 1-2.803-6.74V14.949H9.542a5.25 5.25 0 0 0-3.714 1.545 5.25 5.25 0 0 0-1.545 3.714v46.205a5.25 5.25 0 0 0 1.546 3.712 5.25 5.25 0 0 0 3.713 1.547H42.94a5.25 5.25 0 0 0 3.713-1.547 5.24 5.24 0 0 0 1.543-3.547" fill="#FD8326"/>
  </g>
  <defs>
    <clipPath id="clip0_4665_10641">
      <path fill="#fff" d="M0 .045h65v75.91H0z"/>
    </clipPath>
  </defs>
</svg>
