<svg width="53" height="33" viewBox="0 0 53 33" fill="none" xmlns="http://www.w3.org/2000/svg">
  <g clip-path="url(#clip0_19_136)" fill-rule="evenodd" clip-rule="evenodd" fill="#071E6F">
    <path d="M37 9.24a.81.81 0 0 0-.808.807v5.385h-5.385a.808.808 0 1 0 0 1.615h5.385v5.385a.808.808 0 0 0 1.615 0v-5.385h5.385a.808.808 0 0 0 0-1.615h-5.385v-5.385A.81.81 0 0 0 37 9.24"/>
    <path d="M4.64 0C2.09 0 0 2.09 0 4.64v23.199c0 2.55 2.09 4.64 4.64 4.64h42.919c2.55 0 4.64-2.09 4.64-4.64v-23.2c0-2.55-2.09-4.64-4.64-4.64H4.64zm0 2.32h42.919a2.29 2.29 0 0 1 2.32 2.319v23.2a2.29 2.29 0 0 1-2.32 2.32H4.64a2.29 2.29 0 0 1-2.32-2.32v-23.2a2.29 2.29 0 0 1 2.32-2.32zm9.86 5.219a4.08 4.08 0 0 0-4.06 4.06 4.08 4.08 0 0 0 4.06 4.06 4.08 4.08 0 0 0 4.06-4.06 4.08 4.08 0 0 0-4.06-4.06m0 2.32c.974 0 1.74.765 1.74 1.74 0 .974-.766 1.74-1.74 1.74-.975 0-1.74-.766-1.74-1.74 0-.975.765-1.74 1.74-1.74m0 6.96c-2.294 0-4.377.587-5.963 1.612S5.8 20.994 5.8 22.799v.98c0 .606.552 1.159 1.16 1.159h15.08c.607 0 1.16-.553 1.16-1.16v-.979c0-1.805-1.151-3.342-2.738-4.368-1.586-1.025-3.67-1.613-5.963-1.613zm0 2.32c1.883 0-1.884 0 0 0"/>
  </g>
  <defs>
    <clipPath id="clip0_19_136">
      <path fill="#fff" d="M0 0h52.199v32.479H0z"/>
    </clipPath>
  </defs>
</svg>
