<svg width="16" height="16" viewBox="0 0 16 16" fill="none" xmlns="http://www.w3.org/2000/svg">
  <path fill-rule="evenodd" clip-rule="evenodd" d="M7.296.834h1.408c1.225 0 2.196 0 2.955.102.782.105 1.415.327 1.913.825a.5.5 0 1 1-.707.708c-.282-.283-.668-.452-1.339-.542-.685-.092-1.588-.093-2.86-.093H7.334c-1.27 0-2.174.001-2.86.093-.67.09-1.056.26-1.338.542s-.452.668-.542 1.339c-.092.685-.093 1.588-.093 2.86v2.666c0 1.271.001 2.174.093 2.86.09.67.26 1.057.542 1.339s.668.451 1.339.541c.685.092 1.588.093 2.86.093h1.333c1.27 0 2.174 0 2.86-.093.67-.09 1.056-.26 1.338-.541.464-.464.605-1.185.63-2.873a.5.5 0 1 1 1 .015c-.024 1.618-.129 2.771-.922 3.565-.5.499-1.132.72-1.914.825-.76.102-1.73.102-2.955.102H7.296c-1.225 0-2.196 0-2.955-.102-.782-.105-1.415-.326-1.913-.825-.5-.5-.72-1.132-.826-1.913-.102-.76-.102-1.73-.102-2.955V6.63c0-1.225 0-2.196.102-2.955.105-.782.327-1.415.826-1.914s1.131-.72 1.913-.825C5.1.834 6.07.834 7.296.834m4.78 3.864a1.81 1.81 0 0 1 2.56 2.56l-3.17 3.17c-.172.173-.29.29-.42.392a2.7 2.7 0 0 1-.496.307 5 5 0 0 1-.538.2l-1.389.463a.854.854 0 0 1-1.08-1.08l.455-1.36.009-.028a5 5 0 0 1 .2-.538q.126-.265.307-.496a5 5 0 0 1 .412-.44zm1.853.707a.81.81 0 0 0-1.146 0l-.122.121a1.7 1.7 0 0 0 .43.716 1.7 1.7 0 0 0 .717.43l.121-.12a.81.81 0 0 0 0-1.147m-.885 2.031a2.7 2.7 0 0 1-1.146-1.146L9.633 8.554c-.2.2-.271.273-.33.349q-.114.144-.193.311a4 4 0 0 0-.164.452l-.267.8.189.189.8-.267c.27-.09.365-.123.452-.164q.166-.08.311-.193c.077-.059.148-.13.349-.33zm-8.21-1.435a.5.5 0 0 1 .5-.5h4.333a.5.5 0 1 1 0 1H5.333a.5.5 0 0 1-.5-.5m0 2.666a.5.5 0 0 1 .5-.5H7a.5.5 0 0 1 0 1H5.333a.5.5 0 0 1-.5-.5m0 2.667a.5.5 0 0 1 .5-.5h1a.5.5 0 1 1 0 1h-1a.5.5 0 0 1-.5-.5" fill="#FD8326"/>
</svg>
