<svg width="21" height="22" viewBox="0 0 21 22" fill="none" xmlns="http://www.w3.org/2000/svg">
  <path d="m10.144 7.525-.905 1.573c-.202.346-.033.634.364.634h1.074c.405 0 .566.287.363.634l-.896 1.572" stroke="#D09216" stroke-width="1.268" stroke-linecap="round" stroke-linejoin="round"/>
  <path d="M7.016 16.106v-.981c-1.945-1.175-3.542-3.466-3.542-5.9 0-4.185 3.846-7.465 8.19-6.518 1.911.423 3.585 1.69 4.456 3.44 1.767 3.55-.093 7.321-2.824 8.97v.98c0 .245.093.812-.811.812H7.827c-.93.008-.811-.355-.811-.803m.17 3.347c1.935-.55 3.981-.55 5.917 0" stroke="#D09216" stroke-width="1.268" stroke-linecap="round" stroke-linejoin="round"/>
</svg>
