<svg width="21" height="21" viewBox="0 0 21 21" fill="none" xmlns="http://www.w3.org/2000/svg">
<path d="M10.144 6.66797L9.23949 8.24029C9.03661 8.58688 9.20568 8.87429 9.60298 8.87429H10.6766C11.0823 8.87429 11.2429 9.1617 11.0401 9.50829L10.144 11.0806" stroke="#F79009" stroke-width="1.268" stroke-linecap="round" stroke-linejoin="round"/>
<path d="M7.01558 15.2501V14.2695C5.07131 13.0945 3.47363 10.8036 3.47363 8.36908C3.47363 4.18468 7.3199 0.90479 11.6649 1.85156C13.5754 2.27423 15.2491 3.54223 16.1198 5.29207C17.8866 8.84247 16.0268 12.6127 13.2964 14.2611V15.2416C13.2964 15.4868 13.3894 16.0532 12.4849 16.0532H7.8271C6.89723 16.0616 7.01558 15.6981 7.01558 15.2501Z" stroke="#F79009" stroke-width="1.268" stroke-linecap="round" stroke-linejoin="round"/>
<path d="M7.18555 18.5957C9.12136 18.0462 11.1671 18.0462 13.1029 18.5957" stroke="#F79009" stroke-width="1.268" stroke-linecap="round" stroke-linejoin="round"/>
</svg>
