<svg xmlns="http://www.w3.org/2000/svg" width="17" height="17" viewBox="0 0 17 17">
  <path id="Path_7139" data-name="Path 7139" d="M224.971 160.764a8.5 8.5 0 1 0 8.5 8.5 8.51 8.51 0 0 0-8.5-8.5m-3.972 8.5a12.7 12.7 0 0 1 .353-2.987h3.105v5.974h-3.105a12.7 12.7 0 0 1-.353-2.987m4.486-7.341c1.158.294 2.175 1.556 2.8 3.326h-2.8Zm-1.028 0v3.326h-2.8c.626-1.769 1.643-3.032 2.8-3.326m0 11.355v3.322c-1.158-.294-2.175-1.556-2.8-3.326Zm1.028 3.326v-3.326h2.8c-.625 1.77-1.642 3.032-2.8 3.322Zm0-4.354v-5.974h3.105a12.8 12.8 0 0 1 0 5.974Zm4.169-5.974h2.163a7.43 7.43 0 0 1 0 5.974h-2.163a14.2 14.2 0 0 0 0-5.974m1.61-1.028h-1.876a8.4 8.4 0 0 0-1.486-2.858 7.5 7.5 0 0 1 3.362 2.858m-9.222-2.858a8.4 8.4 0 0 0-1.486 2.858h-1.876a7.5 7.5 0 0 1 3.362-2.858m-3.915 3.886h2.163a14.2 14.2 0 0 0 0 5.974h-2.163a7.43 7.43 0 0 1 0-5.974m.553 7h1.876a8.4 8.4 0 0 0 1.486 2.858 7.5 7.5 0 0 1-3.362-2.858m9.222 2.858a8.4 8.4 0 0 0 1.486-2.858h1.876a7.5 7.5 0 0 1-3.362 2.858" transform="translate(-216.471 -160.764)" fill="#081f70"/>
</svg>
