<svg width="299" height="98" viewBox="0 0 299 98" fill="none" xmlns="http://www.w3.org/2000/svg">
  <path d="M17.28 183.869a52 52 0 0 1 12.221-8.865C104.865 135.571 174.75 82.199 237.22 16.367c4.884-5.165 10.685-9.249 17.073-12.017A49.7 49.7 0 0 1 274.447.236c6.917.051 13.768 1.552 20.159 4.415s12.198 7.033 17.089 12.271 8.767 11.442 11.41 18.256a59.2 59.2 0 0 1 3.992 21.453 58.7 58.7 0 0 1-4.037 21.378c-2.658 6.764-6.548 12.894-11.449 18.04-70.476 74.27-149.554 134.605-235.04 179.333-11.33 5.926-24.324 7.293-36.595 3.85s-22.995-11.463-30.204-22.589c-7.21-11.127-10.419-24.612-9.04-37.98s7.256-25.721 16.55-34.792z" fill="#B39FE0"/>
</svg>
