<svg xmlns="http://www.w3.org/2000/svg" width="1080" viewBox="0 0 810 810" height="1080" version="1.0">
  <defs>
    <clipPath id="ddcc6ac5a0">
      <path d="M104.078 312.254H302V510H104.078Zm0 0"/>
    </clipPath>
  </defs>
  <path fill="#3d96d9" d="m311.594 518.41 117.015-67.558 49.704-28.696c1.433-24.61 14.82-48.043 37.761-61.289 23.504-13.566 51.254-13.11 73.567-1.23l-12.461 7.195-43.035 24.844v46.25l20.027 11.562 20.023 11.563 43.035-24.848 12.461-7.191c-.867 25.261-14.343 49.523-37.847 63.09-22.942 13.246-49.93 13.125-71.957 2.062l-49.703 28.695-117.016 67.559-49.703 28.695c-1.43 24.61-14.82 48.043-37.762 61.285-23.504 13.57-51.254 13.114-73.566 1.23l12.46-7.19 43.036-24.848v-46.246l-20.024-11.563-20.027-11.562-43.035 24.847-12.461 7.192c.867-25.262 14.344-49.524 37.848-63.094 22.945-13.246 49.933-13.125 71.957-2.059Zm0 0" fill-rule="evenodd"/>
  <path fill="#f60" d="M431.043 347.203c1.637 2.438 3.012 5 4.125 7.64l10.758-2.558a3.073 3.073 0 0 1 3.683 2.274l2.067 8.699a3.065 3.065 0 0 1-2.27 3.683l-10.765 2.559a46 46 0 0 1-.243 8.672l10.598 3.168a3.063 3.063 0 0 1 2.055 3.805l-2.559 8.574a3.066 3.066 0 0 1-3.808 2.05l-10.586-3.16a45.3 45.3 0 0 1-4.559 7.391l7.594 8.035a3.07 3.07 0 0 1-.125 4.324l-6.504 6.145a3.064 3.064 0 0 1-4.324-.125l-7.594-8.04a45 45 0 0 1-7.637 4.13l2.555 10.754a3.066 3.066 0 0 1-2.27 3.683l-8.699 2.07a3.07 3.07 0 0 1-3.683-2.269l-2.559-10.766c-2.895.196-5.797.11-8.676-.246l-3.168 10.602a3.07 3.07 0 0 1-3.804 2.055l-8.57-2.559a3.065 3.065 0 0 1-2.055-3.809l3.164-10.59a45.3 45.3 0 0 1-7.395-4.554l-8.035 7.59a3.067 3.067 0 0 1-4.324-.121l-6.14-6.504a3.067 3.067 0 0 1 .12-4.325l8.04-7.593a45 45 0 0 1-4.126-7.637l-10.758 2.555a3.07 3.07 0 0 1-3.683-2.27l-2.067-8.7a3.066 3.066 0 0 1 2.27-3.683l10.762-2.558a45.6 45.6 0 0 1 .25-8.676l-10.602-3.168a3.067 3.067 0 0 1-2.058-3.805l2.562-8.57a3.07 3.07 0 0 1 3.809-2.059l10.586 3.168a45 45 0 0 1 4.558-7.394l-7.59-8.035a3.07 3.07 0 0 1 .125-4.328l6.5-6.141a3.07 3.07 0 0 1 4.325.125l7.59 8.039a45 45 0 0 1 7.64-4.129l-2.555-10.754a3.063 3.063 0 0 1 2.27-3.683l8.699-2.07a3.07 3.07 0 0 1 3.684 2.273l2.558 10.761a46 46 0 0 1 8.672.247l3.168-10.598a3.07 3.07 0 0 1 3.809-2.059l8.57 2.563a3.07 3.07 0 0 1 2.055 3.804l-3.164 10.594a45 45 0 0 1 7.39 4.555l8.04-7.594a3.067 3.067 0 0 1 4.324.125l6.14 6.5a3.07 3.07 0 0 1-.121 4.328Zm-15.727 4.496c11.512 12.188 10.965 31.403-1.222 42.914-12.192 11.516-31.403 10.969-42.918-1.218-11.516-12.192-10.969-31.407 1.222-42.918 12.192-11.516 31.407-10.97 42.918 1.222m0 0" fill-rule="evenodd"/>
  <g clip-path="url(#ddcc6ac5a0)">
    <path fill="#ffc738" d="M266.965 368.672a76 76 0 0 1 6.957 12.875l18.125-4.309c2.762-.656 5.555 1.067 6.207 3.825l3.488 14.664c.656 2.757-1.066 5.55-3.824 6.207l-18.14 4.308a77 77 0 0 1-.419 14.625l17.868 5.336c2.714.809 4.277 3.7 3.46 6.414l-4.312 14.442a5.17 5.17 0 0 1-6.418 3.464l-17.844-5.332a76 76 0 0 1-7.68 12.457l12.794 13.547c1.949 2.059 1.855 5.34-.207 7.285l-10.957 10.352c-2.063 1.95-5.344 1.852-7.29-.207l-12.796-13.55a76 76 0 0 1-12.872 6.956l4.305 18.125c.66 2.762-1.062 5.555-3.824 6.211l-14.664 3.485c-2.758.656-5.55-1.067-6.207-3.825l-4.309-18.14a77.5 77.5 0 0 1-14.62-.414l-5.337 17.863c-.812 2.715-3.699 4.277-6.418 3.465l-14.441-4.317c-2.715-.812-4.274-3.699-3.465-6.414l5.332-17.847a76 76 0 0 1-12.457-7.68l-13.543 12.793c-2.062 1.95-5.344 1.855-7.289-.207l-10.352-10.957c-1.945-2.063-1.851-5.34.207-7.29l13.551-12.796a76 76 0 0 1-6.957-12.871l-18.125 4.308c-2.758.657-5.555-1.066-6.207-3.824l-3.488-14.664c-.656-2.758 1.066-5.555 3.824-6.21l18.14-4.31a77 77 0 0 1 .419-14.62l-17.864-5.336c-2.718-.813-4.277-3.7-3.468-6.414l4.316-14.442c.813-2.719 3.7-4.277 6.418-3.469l17.844 5.332a76 76 0 0 1 7.68-12.453l-12.793-13.547c-1.946-2.062-1.856-5.34.207-7.289l10.957-10.351c2.062-1.946 5.343-1.852 7.289.21l12.797 13.548a75.5 75.5 0 0 1 12.87-6.957l-4.304-18.125a5.17 5.17 0 0 1 3.824-6.207l14.66-3.485c2.762-.656 5.555 1.067 6.211 3.824l4.309 18.137a77 77 0 0 1 14.62.422l5.337-17.867a5.17 5.17 0 0 1 6.418-3.465l14.441 4.312c2.715.813 4.274 3.7 3.465 6.418l-5.332 17.848a76 76 0 0 1 12.453 7.68l13.547-12.797c2.063-1.945 5.34-1.856 7.29.21l10.35 10.954c1.946 2.062 1.852 5.344-.206 7.293Zm-26.5 7.574c19.402 20.543 18.48 52.926-2.063 72.328-20.539 19.403-52.922 18.48-72.328-2.058-19.402-20.543-18.48-52.926 2.063-72.329 20.543-19.406 52.922-18.484 72.328 2.06m0 0" fill-rule="evenodd"/>
  </g>
  <path fill="#ffc738" d="M635.285 580.18a76.7 76.7 0 0 1 7.016 12.984l18.277-4.344a5.21 5.21 0 0 1 6.262 3.856l3.52 14.789c.66 2.781-1.079 5.597-3.86 6.262l-18.293 4.347a78 78 0 0 1-.422 14.742l18.016 5.383c2.742.82 4.312 3.73 3.496 6.473l-4.352 14.562c-.82 2.743-3.73 4.313-6.472 3.496l-17.996-5.378a77 77 0 0 1-7.747 12.562l12.903 13.66c1.965 2.082 1.87 5.39-.211 7.352l-11.047 10.437a5.213 5.213 0 0 1-7.352-.207l-12.906-13.664a77 77 0 0 1-12.98 7.016l4.343 18.281c.66 2.781-1.078 5.602-3.859 6.262l-14.789 3.515c-2.785.66-5.602-1.074-6.262-3.859l-4.347-18.293a77.5 77.5 0 0 1-14.743-.422l-5.382 18.02c-.82 2.738-3.73 4.312-6.473 3.492l-14.566-4.348c-2.739-.82-4.313-3.734-3.493-6.472l5.375-17.996a77 77 0 0 1-12.562-7.75l-13.66 12.902c-2.078 1.965-5.383 1.87-7.352-.207l-10.437-11.051c-1.961-2.082-1.871-5.387.21-7.352l13.665-12.906a77 77 0 0 1-7.016-12.98l-18.281 4.343c-2.785.66-5.598-1.074-6.262-3.859l-3.516-14.789c-.66-2.781 1.075-5.601 3.86-6.262l18.293-4.343a78 78 0 0 1 .418-14.746l-18.016-5.383c-2.738-.817-4.312-3.73-3.492-6.473l4.352-14.562c.816-2.743 3.73-4.313 6.468-3.493l18 5.375a76.7 76.7 0 0 1 7.742-12.566l-12.902-13.66c-1.965-2.074-1.867-5.387.211-7.348l11.05-10.441c2.079-1.961 5.388-1.867 7.352.21l12.907 13.665a76.5 76.5 0 0 1 12.98-7.016l-4.344-18.281c-.66-2.781 1.075-5.602 3.86-6.262l14.785-3.512c2.785-.664 5.601 1.075 6.266 3.856l4.343 18.293a78 78 0 0 1 14.746.426l5.383-18.024c.817-2.738 3.73-4.312 6.469-3.492l14.566 4.352c2.743.816 4.313 3.73 3.496 6.468l-5.378 18.004a76.3 76.3 0 0 1 12.558 7.746l13.664-12.906c2.082-1.965 5.387-1.871 7.352.207l10.437 11.05c1.965 2.079 1.871 5.388-.207 7.352Zm-26.726 7.64c19.566 20.715 18.636 53.375-2.082 72.946-20.715 19.566-53.375 18.636-72.946-2.082-19.57-20.715-18.636-53.375 2.078-72.946 20.72-19.566 53.38-18.636 72.95 2.082m0 0" fill-rule="evenodd"/>
  <path fill="#f60" d="M413.879 646.637a44.4 44.4 0 0 1 4.039 7.472l10.523-2.5a3.01 3.01 0 0 1 3.61 2.223l2.02 8.516a2.996 2.996 0 0 1-2.22 3.601l-10.535 2.504c.192 2.832.11 5.676-.238 8.492l10.371 3.098a3.003 3.003 0 0 1 2.012 3.727l-2.504 8.382a3.003 3.003 0 0 1-3.727 2.012l-10.363-3.094a44.3 44.3 0 0 1-4.457 7.235l7.426 7.863a3 3 0 0 1-.117 4.23l-6.364 6.012a3 3 0 0 1-4.234-.12l-7.43-7.864a44.6 44.6 0 0 1-7.476 4.039l2.504 10.523a3.01 3.01 0 0 1-2.223 3.606l-8.516 2.023a3 3 0 0 1-3.601-2.222l-2.504-10.532a45 45 0 0 1-8.492-.242l-3.098 10.375a3.004 3.004 0 0 1-3.726 2.008l-8.383-2.504a3.003 3.003 0 0 1-2.012-3.727l3.094-10.359a44.6 44.6 0 0 1-7.235-4.46l-7.863 7.429a3.004 3.004 0 0 1-4.23-.121l-6.012-6.364a3 3 0 0 1 .121-4.23l7.867-7.434a44 44 0 0 1-4.039-7.472l-10.527 2.5a3 3 0 0 1-3.606-2.223l-2.02-8.512a2.997 2.997 0 0 1 2.22-3.605l10.53-2.504a45 45 0 0 1 .243-8.488l-10.375-3.102a3 3 0 0 1-2.012-3.723l2.508-8.386a3.003 3.003 0 0 1 3.727-2.012l10.36 3.094a44.7 44.7 0 0 1 4.46-7.23l-7.43-7.864a3.01 3.01 0 0 1 .121-4.234l6.364-6.012a3.004 3.004 0 0 1 4.23.121l7.434 7.867a44 44 0 0 1 7.472-4.039l-2.5-10.523a3.007 3.007 0 0 1 2.223-3.61l8.512-2.023a3.006 3.006 0 0 1 3.605 2.223l2.504 10.535a44.7 44.7 0 0 1 8.488.242l3.098-10.375a3.003 3.003 0 0 1 3.727-2.012l8.386 2.504a3.003 3.003 0 0 1 2.012 3.727l-3.098 10.363a44 44 0 0 1 7.235 4.46l7.863-7.429a3 3 0 0 1 4.234.121l6.012 6.364a3.004 3.004 0 0 1-.12 4.23Zm-15.39 4.398c11.269 11.926 10.734 30.73-1.196 42-11.93 11.266-30.73 10.73-42-1.2-11.266-11.925-10.73-30.73 1.2-41.995 11.925-11.27 30.73-10.735 41.995 1.195m0 0" fill-rule="evenodd"/>
</svg>
