<svg width="32" height="47" viewBox="0 0 32 47" fill="none" xmlns="http://www.w3.org/2000/svg">
  <path stroke-width="3" d="M31.5 16.008c0 1.591-.616 3.763-1.646 6.26-1.025 2.482-2.438 5.233-3.982 7.965-3.088 5.462-6.682 10.811-8.699 13.72a1.415 1.415 0 0 1-2.346 0c-2.017-2.909-5.611-8.258-8.699-13.72-1.544-2.732-2.957-5.483-3.982-7.965C1.116 19.77.5 17.599.5 16.008.5 7.891 7.416 1.27 16 1.27s15.5 6.621 15.5 14.738Z" stroke="#0F206C" stroke-linejoin="round"/>
  <circle stroke-width="3" cx="16" cy="16.77" r="6.357" stroke="#0F206C"/>
</svg>
