<svg width="29" height="41" viewBox="0 0 29 41" fill="none" xmlns="http://www.w3.org/2000/svg">
  <path d="M14.023.5C7.447.5 2.082 5.59 2.082 11.887a11 11 0 0 0 1.326 5.22c3.191 5.39 6.818 10.848 10.229 16.2a.507.507 0 0 0 .869-.019c3.165-5.475 7.067-10.592 10.142-16.227a10.96 10.96 0 0 0 1.307-5.177C25.955 5.62 20.642.558 14.112.506a.5.5 0 0 0-.1-.01zm-.011 1.017h.007A10.65 10.65 0 0 1 24.944 11.89a9.94 9.94 0 0 1-1.186 4.7c-2.9 5.308-6.568 10.235-9.692 15.513-3.295-5.157-6.746-10.377-9.789-15.517a9.95 9.95 0 0 1-1.183-4.693A10.65 10.65 0 0 1 14.012 1.517Zm.007 3.547a6.539 6.539 0 1 0-.008 13.08 6.539 6.539 0 0 0 .012-13.08zm0 1.017a5.522 5.522 0 1 1-5.522 5.522 5.514 5.514 0 0 1 5.526-5.523zm-12.3 18.524a1.27 1.27 0 0 0-1.227 1.3v12.942a1.27 1.27 0 0 0 1.227 1.3h24.593a1.27 1.27 0 0 0 1.227-1.3V25.903a1.27 1.27 0 0 0-1.227-1.3h-6.775a.509.509 0 0 0 0 1.017h6.775c.1 0 .21.093.21.283v12.944c0 .19-.112.283-.21.283H1.727c-.1 0-.21-.093-.21-.283V25.903c0-.19.112-.283.21-.283h6.775a.509.509 0 0 0 0-1.017H1.727z" fill="#294BA0" stroke="#294BA0"/>
</svg>
