<svg width="47" height="61" viewBox="0 0 47 61" fill="none" xmlns="http://www.w3.org/2000/svg">
  <path d="M23.5 0C10.957 0 .753 10.208.753 22.756c0 18.696 20.483 36.95 21.355 37.719a2.1 2.1 0 0 0 2.784 0c.872-.768 21.355-19.023 21.355-37.719C46.247 10.208 36.043 0 23.5 0m0 56.007C18.971 51.618 4.965 36.9 4.965 22.757 4.965 12.53 13.28 4.211 23.5 4.211s18.535 8.32 18.535 18.544c0 14.144-14.006 28.862-18.535 33.25Z" fill="#081F70"/>
  <path d="M23.5 12.155c-5.807 0-10.531 4.756-10.531 10.601S17.693 33.357 23.5 33.357s10.531-4.755 10.531-10.6c0-5.846-4.724-10.602-10.531-10.602m0 16.99c-3.484 0-6.319-2.866-6.319-6.389 0-3.522 2.835-6.388 6.319-6.388s6.319 2.866 6.319 6.388c0 3.523-2.835 6.389-6.319 6.389" fill="#081F70"/>
</svg>
