<svg width="66" height="74" viewBox="0 0 66 74" fill="none" xmlns="http://www.w3.org/2000/svg">
  <g clip-path="url(#clip0_107_2)">
    <path opacity=".3" d="M6.47 73.641c2.166-.076 3.885-1.19 3.84-2.49-.046-1.298-1.839-2.29-4.004-2.214-2.166.076-3.884 1.19-3.839 2.49.046 1.299 1.838 2.29 4.004 2.214Z" fill="#1B1D1A"/>
    <path d="M38.196 54.559c15.066 0 27.28-12.214 27.28-27.28S53.261 0 38.195 0s-27.28 12.213-27.28 27.28c0 15.065 12.214 27.279 27.28 27.279Zm-31.819 0A6.175 6.175 0 0 0 .21 60.724v.014c-.003.061-.235 5.827 5.153 10.428q.478.41 1.014.804.539-.394 1.017-.803c5.14-4.377 5.165-9.738 5.148-10.374v-.066a6.175 6.175 0 0 0-6.165-6.166l-.001-.002Z" fill="#FD8326"/>
  </g>
  <defs>
    <clipPath id="clip0_107_2">
      <path fill="#fff" d="M0 0h66v74H0z"/>
    </clipPath>
  </defs>
</svg>
