<svg xmlns="http://www.w3.org/2000/svg" width="21.463" height="15.998" viewBox="0 0 21.463 15.998">
  <path id="Path_3560" data-name="Path 3560" d="M28.128 20.45H11.715a2.5 2.5 0 0 0-2.425 2.56v10.678a2.5 2.5 0 0 0 2.425 2.56h16.413a2.5 2.5 0 0 0 2.425-2.56V23.01a2.5 2.5 0 0 0-2.425-2.56Zm1.277 13.238a1.317 1.317 0 0 1-1.277 1.348H11.715a1.317 1.317 0 0 1-1.277-1.348v-7.95h18.967Zm0-9.162H10.438V23.01a1.317 1.317 0 0 1 1.277-1.348h16.413a1.317 1.317 0 0 1 1.277 1.348ZM12.84 29.612a.59.59 0 0 1 .574-.606h5.294a.607.607 0 0 1 0 1.212h-5.294a.59.59 0 0 1-.574-.606Z" transform="translate(-9.19 -20.35)" fill="#081f70" stroke="#081f70" stroke-width=".2"/>
</svg>
