<svg xmlns="http://www.w3.org/2000/svg" width="13.091" height="13.094" viewBox="0 0 13.091 13.094">
  <g id="Group_4965" data-name="Group 4965" transform="translate(-116.468 -45.446)" fill="#081f70" stroke="#fff" stroke-width=".4">
    <path id="Path_7136" data-name="Path 7136" d="M128.7 59.332h-11.4a.633.633 0 0 1-.633-.633V47.3a.633.633 0 0 1 .633-.633h7.6a.633.633 0 1 1 0 1.267h-6.967v10.132h10.133V51.1a.633.633 0 1 1 1.267 0v7.6a.633.633 0 0 1-.633.633Z" transform="translate(0 -.992)"/>
    <path id="Path_7137" data-name="Path 7137" d="M327.357 53.274a.633.633 0 0 1-.469-1.058l5.7-6.333a.633.633 0 1 1 .937.849l-5.7 6.333a.63.63 0 0 1-.469.209Z" transform="translate(-204.355)"/>
    <path id="Path_7138" data-name="Path 7138" d="M216.964 374.6h-6.334a.633.633 0 0 1 0-1.267h6.333a.633.633 0 0 1 0 1.267Z" transform="translate(-90.796 -318.792)"/>
  </g>
</svg>
