<svg width="80" height="55" viewBox="0 0 80 55" fill="none" xmlns="http://www.w3.org/2000/svg">
  <g clip-path="url(#clip0_16_11)" fill-rule="evenodd" clip-rule="evenodd" fill="#FC8326">
    <path d="M14.867 12.408h14.546a2 2 0 0 1 2 2v11.013a2 2 0 0 1-2 2H14.867a2 2 0 0 1-2-2V14.408a2 2 0 0 1 2-2m.415 22.992h50a2 2 0 0 1 2 2v5a2 2 0 0 1-2 2h-50a2 2 0 0 1-2-2v-5a2 2 0 0 1 2-2m50.804-15.927h-12.79a1.84 1.84 0 0 0 0 3.68h12.79a1.84 1.84 0 0 0 0-3.68m-.001-7.137h-21.13a1.84 1.84 0 1 0 0 3.678h21.13a1.839 1.839 0 0 0 0-3.678"/>
    <path d="M72.55 0H7.357C3.3 0 0 3.3 0 7.357v40.128c0 4.057 3.3 7.357 7.357 7.357H72.55c4.056 0 7.357-3.3 7.357-7.357V7.357c0-4.056-3.3-7.357-7.357-7.357m2.758 47.485a2.76 2.76 0 0 1-2.758 2.759H7.357a2.76 2.76 0 0 1-2.759-2.759V7.357a2.76 2.76 0 0 1 2.759-2.759H72.55a2.76 2.76 0 0 1 2.758 2.76z"/>
  </g>
  <defs>
    <clipPath id="clip0_16_11">
      <path fill="#fff" d="M0 0h79.907v54.842H0z"/>
    </clipPath>
  </defs>
</svg>
