<svg xmlns="http://www.w3.org/2000/svg" width="79.906" height="54.842" viewBox="0 0 79.906 54.842">
  <g id="Group_4943" data-name="Group 4943" transform="translate(-332.269 -352.275)" fill="#fc8326">
    <path id="Path_7088" data-name="Path 7088" d="M404.818 352.275h-65.192a7.366 7.366 0 0 0-7.357 7.357v40.128a7.365 7.365 0 0 0 7.357 7.357h65.192a7.365 7.365 0 0 0 7.357-7.357v-40.128a7.366 7.366 0 0 0-7.357-7.357m2.759 47.485a2.76 2.76 0 0 1-2.759 2.759h-65.192a2.76 2.76 0 0 1-2.759-2.759v-40.128a2.76 2.76 0 0 1 2.759-2.759h65.192a2.76 2.76 0 0 1 2.759 2.759Zm0 0"/>
    <path id="Path_7089" data-name="Path 7089" d="M660.282 440.15h-21.13a1.839 1.839 0 1 0 0 3.678h21.13a1.839 1.839 0 1 0 0-3.678m0 0" transform="translate(-261.928 -75.455)"/>
    <path id="Path_7090" data-name="Path 7090" d="M710.959 525.425h-12.788a1.84 1.84 0 1 0 0 3.679h12.789a1.84 1.84 0 1 0 0-3.679Zm0 0" transform="translate(-312.605 -148.677)"/>
    <path id="Path_7091" data-name="Path 7091" d="M710.959 574.91h-12.788a1.839 1.839 0 1 0 0 3.678h12.789a1.839 1.839 0 1 0 0-3.678Zm0 0" transform="translate(-312.605 -191.167)"/>
    <path id="Path_7092" data-name="Path 7092" d="M710.959 625.979h-12.788a1.839 1.839 0 1 0 0 3.678h12.789a1.839 1.839 0 1 0 0-3.678Zm0 0" transform="translate(-312.605 -235.019)"/>
    <path id="Path_7093" data-name="Path 7093" d="M459.529 437.463a9.457 9.457 0 1 0-9.455-9.457 9.466 9.466 0 0 0 9.455 9.457" transform="translate(-101.154 -56.908)"/>
    <path id="Path_7095" data-name="Path 7095" d="M442.718 564.386h-7.26a9.233 9.233 0 0 0-9.223 9.224v3.972a2.3 2.3 0 0 0 2.3 2.3h21.11a2.3 2.3 0 0 0 2.3-2.3v-3.972a9.235 9.235 0 0 0-9.225-9.224Zm0 0" transform="translate(-80.685 -182.131)"/>
  </g>
</svg>
