<svg width="118" height="70" viewBox="0 0 118 70" fill="none" xmlns="http://www.w3.org/2000/svg">
  <rect x=".5" y=".5" width="117" height="69" rx="8.5" fill="url(#paint0_linear_188_706)" stroke="#294BA0"/>
  <g filter="url(#filter0_b_188_706)">
    <rect x="7" y="8" width="36" height="50" rx="9" fill="#fff" fill-opacity=".7"/>
    <rect x="7.5" y="8.5" width="35" height="49" rx="8.5" stroke="#294BA0"/>
  </g>
  <rect x="60" y="26" width="50" height="7" rx="3.5" fill="#294BA0"/>
  <rect x="82" y="36" width="28" height="7" rx="3.5" fill="#294BA0"/>
  <rect x="51" y="51" width="59" height="7" rx="3.5" fill="#294BA0"/>
  <path d="M13 49v-8a2 2 0 0 1 2-2h20a2 2 0 0 1 2 2v8a2 2 0 0 1-2 2H15a2 2 0 0 1-2-2Z" stroke="#294BA0"/>
  <circle cx="25" cy="27" r="7.5" stroke="#294BA0"/>
  <defs>
    <linearGradient id="paint0_linear_188_706" x1="59" y1="0" x2="59" y2="70" gradientUnits="userSpaceOnUse">
      <stop stop-color="#BBE4ED"/>
      <stop offset="1" stop-color="#D7D0C3"/>
    </linearGradient>
    <filter id="filter0_b_188_706" x="3" y="4" width="44" height="58" filterUnits="userSpaceOnUse" color-interpolation-filters="sRGB">
      <feFlood flood-opacity="0" result="BackgroundImageFix"/>
      <feGaussianBlur in="BackgroundImage" stdDeviation="2"/>
      <feComposite in2="SourceAlpha" operator="in" result="effect1_backgroundBlur_188_706"/>
      <feBlend in="SourceGraphic" in2="effect1_backgroundBlur_188_706" result="shape"/>
    </filter>
  </defs>
</svg>
