<svg width="245" height="245" viewBox="0 0 245 245" fill="none" xmlns="http://www.w3.org/2000/svg">
  <g clip-path="url(#clip0_2330_38046)">
    <path d="M207.499 245H8.172a8.174 8.174 0 0 0 8.173-8.173v-8.173h182.982v8.173c0 4.505 3.652 8.173 8.172 8.173M33.72 33.352v16.33l-17.375.064v-8.14c0-4.505-3.652-8.174-8.173-8.174l25.532-.096z" fill="#F1CB5D"/>
    <path d="M16.345 228.652v8.173c0 4.505-3.652 8.174-8.172 8.174A8.165 8.165 0 0 1 0 236.825a8.174 8.174 0 0 1 8.173-8.173zm0-187.047v8.14l-8.172.033a8.174 8.174 0 0 1 0-16.346 8.174 8.174 0 0 1 8.172 8.173" fill="#F78028"/>
    <path d="M16.345 49.73v178.924H8.173c-4.505 0-8.173 3.668-8.173 8.173V41.606c0 4.504 3.668 8.173 8.173 8.173l8.172-.033z" fill="#FFA776"/>
    <path d="M215.672 203.138v8.157h-16.345v-8.157a8.174 8.174 0 0 1 8.173-8.173 8.164 8.164 0 0 1 8.172 8.173m0 33.689c0 4.505-3.652 8.173-8.172 8.173a8.164 8.164 0 0 1-8.173-8.173v-8.173h8.173c4.504 0 8.172 3.669 8.172 8.173" fill="#F78028"/>
    <path d="M215.672 211.295v25.533c0-4.505-3.652-8.173-8.172-8.173h-8.173v-17.36z" fill="#FFA776"/>
    <path d="m150.549 105.333-5.776 5.776-5.775 5.776-11.551-11.552 5.486-5.47c.096-.097.193-.21.289-.306.097-.096.193-.193.306-.29l5.47-5.486 5.775 5.776c.097.097.193.21.29.306z" fill="#F78028"/>
    <path d="m207.934 47.96-57.369 57.373-5.486-5.47c-.097-.097-.193-.21-.29-.306l-5.775-5.776 57.369-57.372c3.201-3.186 8.365-3.186 11.551 0 3.185 3.201 3.185 8.366 0 11.552Zm-68.92 68.926-57.369 57.372a8.1 8.1 0 0 1-5.775 2.398 8.15 8.15 0 0 1-5.776-2.398 8.147 8.147 0 0 1 0-11.551l57.369-57.373z" fill="#F1CB5D"/>
    <path d="M207.934 174.258a8.08 8.08 0 0 1-5.775 2.398 8.15 8.15 0 0 1-5.776-2.398l-57.369-57.372 5.776-5.776 5.775-5.776 57.369 57.373c3.185 3.185 3.185 8.366 0 11.551m-68.92-80.477-5.47 5.487c-.096.096-.209.193-.305.29-.097.096-.193.208-.29.305l-5.486 5.47-57.368-57.372a8.15 8.15 0 0 1 0-11.552c3.185-3.186 8.365-3.186 11.55 0z" fill="#FFA776"/>
    <path d="M236.827.016c-4.504 0-8.173 3.652-8.173 8.173v8.173H50.048V8.189c0-4.505-3.651-8.173-8.172-8.173zm-21.155 211.277v-8.157c0-4.504-3.652-8.173-8.173-8.173a8.164 8.164 0 0 0-8.172 8.173v8.157H41.892a8.174 8.174 0 0 0 8.173-8.173v-8.173H228.67v8.173c0 4.505 3.652 8.173 8.172 8.173h-21.171Z" fill="#F1CB5D"/>
    <path d="M50.049 8.173v8.173h-8.173a8.174 8.174 0 0 1 0-16.346 8.174 8.174 0 0 1 8.173 8.173m0 186.792v8.173a8.174 8.174 0 0 1-8.173 8.173 8.164 8.164 0 0 1-8.172-8.173 8.174 8.174 0 0 1 8.172-8.173zm0-153.488a8.174 8.174 0 0 1-8.173 8.173l-8.172.033v-16.33l8.172-.033a8.174 8.174 0 0 1 8.173 8.173z" fill="#F78028"/>
    <path d="M50.049 16.347v25.13a8.174 8.174 0 0 0-8.173-8.172l-8.172.032V8.174c0 4.505 3.668 8.173 8.172 8.173z" fill="#FFA776"/>
    <path d="M50.049 41.477v153.487h-8.173a8.174 8.174 0 0 0-8.172 8.173V49.682l8.172-.032a8.174 8.174 0 0 0 8.173-8.173" fill="#FFA776"/>
    <path d="M245 8.173a8.174 8.174 0 0 1-8.173 8.173h-8.172V8.173c0-4.505 3.652-8.173 8.172-8.173A8.164 8.164 0 0 1 245 8.173m0 194.947a8.174 8.174 0 0 1-8.173 8.173 8.164 8.164 0 0 1-8.172-8.173v-8.173h8.172A8.174 8.174 0 0 1 245 203.12" fill="#F78028"/>
    <path d="M245 8.174v194.948a8.174 8.174 0 0 0-8.173-8.173h-8.172V16.347h8.172A8.174 8.174 0 0 0 245 8.174" fill="#FFA776"/>
  </g>
  <defs>
    <clipPath id="clip0_2330_38046">
      <path fill="#fff" d="M0 0h245v245H0z"/>
    </clipPath>
  </defs>
</svg>
