<svg width="54" height="42" viewBox="0 0 54 42" fill="#071e6f" xmlns="http://www.w3.org/2000/svg">
  <path fill-rule="evenodd" clip-rule="evenodd" d="M49.77 0h-9.351a4.176 4.176 0 0 0-4.175 4.175v16.697a4.176 4.176 0 0 0 4.175 4.175h9.35a4.176 4.176 0 0 0 4.175-4.175V4.175A4.176 4.176 0 0 0 49.769 0zm3.172 20.873a3.193 3.193 0 0 1-3.172 3.173h-9.35a3.193 3.193 0 0 1-3.173-3.173V4.176a3.193 3.193 0 0 1 3.172-3.173h9.35a3.193 3.193 0 0 1 3.173 3.173z"/>
  <path d="M49.77 0h-9.351a4.176 4.176 0 0 0-4.175 4.175v16.697a4.176 4.176 0 0 0 4.175 4.175h9.35a4.176 4.176 0 0 0 4.175-4.175V4.175A4.176 4.176 0 0 0 49.769 0zm3.172 20.873a3.193 3.193 0 0 1-3.172 3.173h-9.35a3.193 3.193 0 0 1-3.173-3.173V4.176a3.193 3.193 0 0 1 3.172-3.173h9.35a3.193 3.193 0 0 1 3.173 3.173z" stroke="#fff" stroke-width=".7" stroke-linecap="round" stroke-linejoin="round"/>
  <path fill-rule="evenodd" clip-rule="evenodd" d="M49.102 15.028h-8.015a.514.514 0 0 0-.501.5c0 .268.234.502.5.502h8.016c.267 0 .5-.234.5-.501a.513.513 0 0 0-.5-.501"/>
  <path d="M49.102 15.028h-8.015a.514.514 0 0 0-.501.5c0 .268.234.502.5.502h8.016c.267 0 .5-.234.5-.501a.513.513 0 0 0-.5-.501" stroke="#fff" stroke-width=".7" stroke-linecap="round" stroke-linejoin="round"/>
  <path fill-rule="evenodd" clip-rule="evenodd" d="M49.102 19.035h-8.015a.514.514 0 0 0-.501.501c0 .267.234.501.5.501h8.016c.267 0 .5-.234.5-.5a.513.513 0 0 0-.5-.502"/>
  <path d="M49.102 19.035h-8.015a.514.514 0 0 0-.501.501c0 .267.234.501.5.501h8.016c.267 0 .5-.234.5-.5a.513.513 0 0 0-.5-.502" stroke="#fff" stroke-width=".7" stroke-linecap="round" stroke-linejoin="round"/>
  <path fill-rule="evenodd" clip-rule="evenodd" d="M45.094 11.689a3.506 3.506 0 1 0 0-7.012 3.506 3.506 0 0 0 .001 7.012zm0-6.012a2.523 2.523 0 0 1 2.505 2.505 2.523 2.523 0 0 1-2.505 2.505 2.523 2.523 0 0 1-2.504-2.505 2.523 2.523 0 0 1 2.504-2.505"/>
  <path d="M45.094 11.689a3.506 3.506 0 1 0 0-7.012 3.506 3.506 0 0 0 .001 7.012zm0-6.012a2.523 2.523 0 0 1 2.505 2.505 2.523 2.523 0 0 1-2.505 2.505 2.523 2.523 0 0 1-2.504-2.505 2.523 2.523 0 0 1 2.504-2.505" stroke="#fff" stroke-width=".7" stroke-linecap="round" stroke-linejoin="round"/>
  <path fill-rule="evenodd" clip-rule="evenodd" d="M36.867 41.363a1.29 1.29 0 0 1-1.293-1.007A16.905 16.905 0 0 0 5.806 33.53a16.9 16.9 0 0 0-3.245 6.827 1.292 1.292 0 1 1-2.52-.57 19.49 19.49 0 0 1 34.31-7.863 19.5 19.5 0 0 1 3.744 7.864 1.293 1.293 0 0 1-.893 1.577h-.335ZM19.106 19.957a9.978 9.978 0 1 1-.2-19.956 9.978 9.978 0 0 1 .2 19.956m0-17.372a7.39 7.39 0 0 0-7.394 7.393 7.395 7.395 0 1 0 14.787 0 7.41 7.41 0 0 0-7.394-7.394z"/>
</svg>
