<svg width="25" height="24" viewBox="0 0 25 24" fill="none" xmlns="http://www.w3.org/2000/svg">
  <path d="M16.78 10.45c0-.19.07-.38.22-.53l3.19-3.19L17 3.54a.754.754 0 0 1 0-1.06c.29-.29.77-.29 1.06 0l3.72 3.72a.75.75 0 0 1 0 1.06l-3.72 3.72c-.29.29-.77.29-1.06 0a.74.74 0 0 1-.22-.53" fill="#4B5565"/>
  <path d="M2.5 6.73c0-.41.34-.75.75-.75h18c.41 0 .75.34.75.75s-.34.75-.75.75h-18c-.41 0-.75-.34-.75-.75m0 10.55c0-.2.08-.39.22-.53l3.72-3.72c.29-.29.77-.29 1.06 0s.29.77 0 1.06l-3.19 3.19 3.19 3.19c.29.29.29.77 0 1.06s-.77.29-1.06 0l-3.72-3.72a.77.77 0 0 1-.22-.53" fill="#4B5565"/>
  <path d="M2.5 17.27c0-.41.34-.75.75-.75h18c.41 0 .75.34.75.75s-.34.75-.75.75h-18c-.41 0-.75-.33-.75-.75" fill="#4B5565"/>
</svg>
