<svg xmlns="http://www.w3.org/2000/svg" width="15.593" height="17.704" viewBox="0 0 15.593 17.704">
  <path id="Path_6989" data-name="Path 6989" d="M176.527 89.944a13.4 13.4 0 0 0 5.531 3.485 3.92 3.92 0 0 0 3.777-.877 1.268 1.268 0 0 0 .292-1.911l-2.09-2.541a1.134 1.134 0 0 0-1.461-.247l-1.529 1.214s-3.575-2.383-4.722-5.959l1.169-.944a1.336 1.336 0 0 0 .247-2l-2.047-2.541a1.35 1.35 0 0 0-1.664-.045 4.7 4.7 0 0 0-1.844 4.34s-.27 2.991 4.34 8.027Z" transform="translate(-171.491 -76.604)" fill="none" stroke="#081f70" stroke-width="1.3"/>
</svg>
