<svg xmlns="http://www.w3.org/2000/svg" width="11.291" height="19.258" viewBox="0 0 11.291 19.258">
  <g id="Group_4749" data-name="Group 4749" transform="translate(-208.994 -23.069)" fill="#d9d9d9">
    <path id="Path_6901" data-name="Path 6901" d="M220.3 24.557v-.422a2.4 2.4 0 0 0-2.124-2.6h-7.046a2.4 2.4 0 0 0-2.124 2.6v.422Z" transform="translate(-.012 1.53)"/>
    <path id="Path_6902" data-name="Path 6902" d="M209 118.46h11.291v9.34H209Z" transform="translate(-.006 -91.51)"/>
    <path id="Path_6903" data-name="Path 6903" d="M208.994 409.23v2.578a2.4 2.4 0 0 0 2.124 2.6h7.043a2.4 2.4 0 0 0 2.124-2.6v-2.578Zm5.646 3.449a1.294 1.294 0 1 1 1.294-1.294 1.295 1.295 0 0 1-1.294 1.294" transform="translate(0 -372.078)"/>
  </g>
</svg>
