<svg xmlns="http://www.w3.org/2000/svg" width="15.757" height="15.757" viewBox="0 0 15.757 15.757">
  <path id="Path_7140" data-name="Path 7140" d="M122.057 52.022a7.873 7.873 0 0 0-11.134-11.134c-.006.006-.014.007-.02.014s-.008.014-.014.02a7.873 7.873 0 0 0 11.134 11.134c.006-.006.014-.008.02-.014s.008-.014.014-.02m1.033-5.55a6.6 6.6 0 0 1-1.516 4.21l-9.311-9.311a6.614 6.614 0 0 1 10.827 5.1Zm-13.234 0a6.6 6.6 0 0 1 1.516-4.21l9.311 9.311a6.614 6.614 0 0 1-10.827-5.1Z" transform="translate(-108.595 -38.594)" fill="#081f70"/>
</svg>
