<svg width="14" height="14" viewBox="0 0 14 14" fill="none" xmlns="http://www.w3.org/2000/svg">
  <path d="M2.042 6.417v1.75c0 2.2 0 3.3.683 3.983.684.683 1.784.683 3.983.683h.584c2.2 0 3.3 0 3.983-.683.683-.684.683-1.784.683-3.984v-1.75" stroke="#4B5565" stroke-width=".875"/>
  <path d="M5.542 1.167h2.916l.38 3.801a1.848 1.848 0 1 1-3.677 0z" stroke="#4B5565" stroke-width=".875"/>
  <path d="M1.942 3.121c.104-.519.156-.779.262-.99a1.75 1.75 0 0 1 1.101-.902c.228-.062.492-.062 1.022-.062h1.215l-.423 4.226a1.785 1.785 0 1 1-3.525-.528zm10.116 0c-.104-.519-.156-.779-.262-.99a1.75 1.75 0 0 0-1.101-.902c-.228-.062-.492-.062-1.022-.062H8.458l.423 4.226a1.784 1.784 0 1 0 3.525-.528z" stroke="#4B5565" stroke-width=".875"/>
  <path d="M5.542 12.542v-1.75c0-.545 0-.818.117-1.021a.9.9 0 0 1 .32-.32c.203-.117.476-.117 1.021-.117s.818 0 1.02.117a.9.9 0 0 1 .321.32c.117.203.117.476.117 1.02v1.75" stroke="#4B5565" stroke-width=".875" stroke-linecap="round"/>
</svg>
