<svg width="25" height="24" viewBox="0 0 25 24" fill="none" xmlns="http://www.w3.org/2000/svg">
  <path d="M12.75 22.75C6.82 22.75 2 17.93 2 12S6.82 1.25 12.75 1.25 23.5 6.07 23.5 12s-4.82 10.75-10.75 10.75m0-20C7.65 2.75 3.5 6.9 3.5 12s4.15 9.25 9.25 9.25S22 17.1 22 12s-4.15-9.25-9.25-9.25" fill="#4B5565"/>
  <path d="M16.46 15.93a.67.67 0 0 1-.38-.11l-3.1-1.85c-.77-.46-1.34-1.47-1.34-2.36v-4.1c0-.41.34-.75.75-.75s.75.34.75.75v4.1c0 .36.3.89.61 1.07l3.1 1.85c.36.21.47.67.26 1.03a.77.77 0 0 1-.65.37" fill="#4B5565"/>
</svg>
