<svg width="66" height="64" viewBox="0 0 66 64" fill="none" xmlns="http://www.w3.org/2000/svg">
  <mask id="mask0_33513_264" style="mask-type:alpha" maskUnits="userSpaceOnUse" x="0" y="38">
    <path fill-rule="evenodd" clip-rule="evenodd" d="M1.333 39.843h48.082v22.483H1.333z" fill="#fff" stroke="#fff" stroke-width="2"/>
  </mask>
  <g mask="url(#mask0_33513_264)">
    <path fill-rule="evenodd" clip-rule="evenodd" d="M25.374 44.593c-8.8 0-19.291 1.131-19.291 6.53 0 4.282 6.491 6.454 19.291 6.454s19.291-2.195 19.291-6.517c0-4.291-6.491-6.467-19.291-6.467m0 17.734c-6.574 0-24.041 0-24.041-11.204 0-11.28 18.094-11.28 24.041-11.28 10.32 0 24.041 1.163 24.041 11.217 0 11.267-18.094 11.267-24.041 11.267" fill="#294BA0"/>
    <path d="M25.374 43.593c-4.421 0-9.346.282-13.195 1.272-1.92.494-3.655 1.184-4.93 2.168-1.305 1.007-2.166 2.36-2.166 4.09h2c0-.97.45-1.783 1.387-2.506.967-.746 2.404-1.351 4.207-1.815 3.598-.925 8.318-1.209 12.697-1.209zm-20.291 7.53c0 2.808 2.18 4.66 5.528 5.78 3.38 1.131 8.332 1.674 14.763 1.674v-2c-6.37 0-11.061-.544-14.128-1.57-3.097-1.036-4.163-2.41-4.163-3.884zm20.291 7.454c6.431 0 11.386-.548 14.766-1.69 3.354-1.134 5.525-3.005 5.525-5.827h-2c0 1.5-1.074 2.887-4.166 3.932-3.065 1.036-7.756 1.585-14.125 1.585zm20.291-7.517c0-2.811-2.178-4.668-5.528-5.79-3.379-1.133-8.332-1.677-14.763-1.677v2c6.37 0 11.061.545 14.128 1.573 3.095 1.037 4.163 2.414 4.163 3.894zM25.374 61.327c-3.305 0-9.184-.005-14.225-1.366-2.518-.68-4.737-1.675-6.313-3.102-1.544-1.397-2.503-3.234-2.503-5.736h-2c0 3.1 1.223 5.465 3.16 7.219 1.905 1.724 4.464 2.829 7.134 3.55 5.337 1.44 11.478 1.435 14.747 1.435zM2.333 51.123c0-2.51.99-4.36 2.583-5.773 1.626-1.44 3.906-2.445 6.466-3.13 5.121-1.372 11.004-1.377 13.992-1.377v-2c-2.96 0-9.097-.004-14.51 1.444-2.707.725-5.322 1.836-7.275 3.567-1.985 1.76-3.256 4.14-3.256 7.27zm23.041-10.28c5.153 0 11.023.295 15.58 1.789 2.27.744 4.139 1.763 5.431 3.123 1.27 1.335 2.03 3.046 2.03 5.305h2c0-2.768-.954-4.973-2.58-6.683-1.603-1.686-3.81-2.843-6.259-3.646-4.884-1.601-11.035-1.888-16.202-1.888zM48.415 51.06c0 2.507-.99 4.354-2.583 5.765-1.626 1.44-3.906 2.443-6.465 3.127-5.122 1.37-11.005 1.375-13.993 1.375v2c2.96 0 9.097.005 14.51-1.442 2.707-.724 5.322-1.834 7.274-3.563 1.986-1.758 3.257-4.136 3.257-7.262z" fill="#fff"/>
  </g>
  <path fill-rule="evenodd" clip-rule="evenodd" d="M25.374 6.73c-6.35 0-11.514 5.165-11.514 11.51 0 6.347 5.165 11.511 11.514 11.511h.098a11.38 11.38 0 0 0 8.085-3.388 11.36 11.36 0 0 0 3.328-8.113c0-6.355-5.165-11.52-11.511-11.52m0 27.771c-8.968 0-16.264-7.296-16.264-16.26S16.406 1.98 25.374 1.98c8.965 0 16.26 7.296 16.26 16.26a16.08 16.08 0 0 1-4.708 11.47 16.1 16.1 0 0 1-11.444 4.791z" fill="#294BA0"/>
  <path d="M25.472 29.751v1h.004zm8.085-3.388-.709-.706-.002.002.71.704Zm3.328-8.113h-1v.004zm4.75-.01h-1v.005zm-4.709 11.47-.71-.705v.001zm-11.444 4.791v1h.003zM25.374 5.73c-6.901 0-12.514 5.612-12.514 12.51h2c0-5.793 4.717-10.51 10.514-10.51zM12.86 18.24c0 6.899 5.613 12.511 12.514 12.511v-2c-5.797 0-10.514-4.717-10.514-10.51h-2Zm12.514 12.511h.098v-2h-.098zm.102 0a12.38 12.38 0 0 0 8.79-3.684l-1.42-1.408a10.38 10.38 0 0 1-7.378 3.092zm8.79-3.682a12.36 12.36 0 0 0 3.619-8.823l-2 .008a10.36 10.36 0 0 1-3.037 7.403zm3.619-8.819c0-6.907-5.612-12.52-12.511-12.52v2c5.793 0 10.51 4.716 10.51 10.52zM25.374 33.501c-8.416 0-15.264-6.848-15.264-15.26h-2c0 9.517 7.744 17.26 17.264 17.26zM10.11 18.241c0-8.413 6.848-15.261 15.264-15.261v-2C15.854.98 8.11 8.723 8.11 18.24h2ZM25.374 2.98c8.412 0 15.26 6.848 15.26 15.26h2c0-9.517-7.743-17.26-17.26-17.26zm15.26 15.265a15.08 15.08 0 0 1-4.417 10.76l1.418 1.41a17.08 17.08 0 0 0 5-12.179zm-4.418 10.761a15.1 15.1 0 0 1-10.738 4.495l.007 2a17.1 17.1 0 0 0 12.151-5.087zm-10.734 4.495h-.108v2h.108z" fill="#fff"/>
  <path fill-rule="evenodd" clip-rule="evenodd" d="M47.194 30.897a2.375 2.375 0 0 1-.33-4.728c3.953-.554 6.936-3.983 6.942-7.98a8.036 8.036 0 0 0-6.754-7.96 2.38 2.38 0 0 1-1.96-2.73 2.38 2.38 0 0 1 2.726-1.96 12.77 12.77 0 0 1 10.738 12.653c-.012 6.35-4.753 11.803-11.03 12.683a2.4 2.4 0 0 1-.332.022" fill="#294BA0"/>
  <path d="M47.194 30.897a2.375 2.375 0 0 1-.33-4.728c3.953-.554 6.936-3.983 6.942-7.98a8.036 8.036 0 0 0-6.754-7.96 2.38 2.38 0 0 1-1.96-2.73 2.38 2.38 0 0 1 2.726-1.96 12.77 12.77 0 0 1 10.738 12.653c-.012 6.35-4.753 11.803-11.03 12.683a2.4 2.4 0 0 1-.332.022" stroke="#fff" stroke-width="2"/>
  <mask id="mask1_33513_264" style="mask-type:alpha" maskUnits="userSpaceOnUse" x="50" y="37">
    <path fill-rule="evenodd" clip-rule="evenodd" d="M51.51 38.344H64.6v15.762H51.51z" fill="#fff" stroke="#fff" stroke-width="2"/>
  </mask>
  <g mask="url(#mask1_33513_264)">
    <path fill-rule="evenodd" clip-rule="evenodd" d="M58.002 54.106a2.374 2.374 0 0 1-.842-4.595c2.692-1.02 2.692-2.264 2.692-2.796 0-1.796-2.125-3.024-6.315-3.648a2.38 2.38 0 0 1-2-2.701c.195-1.299 1.427-2.17 2.7-2.002 8.57 1.283 10.365 5.25 10.365 8.35 0 2.31-.998 5.435-5.757 7.237-.276.104-.56.155-.843.155" fill="#294BA0"/>
    <path d="M58.002 54.106a2.374 2.374 0 0 1-.842-4.595c2.692-1.02 2.692-2.264 2.692-2.796 0-1.796-2.125-3.024-6.315-3.648a2.38 2.38 0 0 1-2-2.701c.195-1.299 1.427-2.17 2.7-2.002 8.57 1.283 10.365 5.25 10.365 8.35 0 2.31-.998 5.435-5.757 7.237-.276.104-.56.155-.843.155" stroke="#fff" stroke-width="2"/>
  </g>
</svg>
