<svg xmlns="http://www.w3.org/2000/svg" width="49.823" height="49.726" viewBox="30.271 385.688 49.823 49.726">
  <g data-name="CompositeLayer">
    <g data-name="Group 4947">
      <g data-name="Path 7111">
        <path d="M67.774 415.564v-9.93a3.08 3.08 0 0 0-3.082-3.082H45.447a3.08 3.08 0 0 0-3.082 3.082v9.93a3.08 3.08 0 0 0 3.082 3.082h19.245a3.08 3.08 0 0 0 3.082-3.082m-24.724 0v-9.93a2.397 2.397 0 0 1 2.397-2.397h19.245a2.397 2.397 0 0 1 2.397 2.397v9.93a2.397 2.397 0 0 1-2.397 2.397H45.447a2.397 2.397 0 0 1-2.397-2.397" fill="#071e6f" fill-rule="evenodd"/>
        <path d="M67.774 415.564v-9.93a3.08 3.08 0 0 0-3.082-3.082H45.447a3.08 3.08 0 0 0-3.082 3.082v9.93a3.08 3.08 0 0 0 3.082 3.082h19.245a3.08 3.08 0 0 0 3.082-3.082m-24.724 0v-9.93a2.397 2.397 0 0 1 2.397-2.397h19.245a2.397 2.397 0 0 1 2.397 2.397v9.93a2.397 2.397 0 0 1-2.397 2.397H45.447a2.397 2.397 0 0 1-2.397-2.397" stroke-linejoin="round" stroke-linecap="round" stroke="#071e6f" fill="transparent"/>
      </g>
      <g data-name="Path 7112">
        <path d="M55.07 406.346a4.252 4.252 0 1 0-.007 8.505 4.252 4.252 0 0 0 .007-8.505m0 7.818a3.568 3.568 0 1 1 2.52-1.044 3.57 3.57 0 0 1-2.52 1.048z" fill="#071e6f" fill-rule="evenodd"/>
        <path d="M55.07 406.346a4.252 4.252 0 1 0-.007 8.505 4.252 4.252 0 0 0 .007-8.505m0 7.818a3.568 3.568 0 1 1 2.52-1.044 3.57 3.57 0 0 1-2.52 1.048z" stroke-linejoin="round" stroke-linecap="round" stroke="#071e6f" fill="transparent"/>
      </g>
    </g>
    <path d="M79.043 409.449a1.08 1.08 0 0 0-1.053 1.053c0 13.124-11.159 23.65-24.423 22.738-11.229-.772-20.351-9.896-21.124-21.124-.912-13.264 9.614-24.423 22.738-24.423 5.194 0 10.177 1.755 14.176 4.983.14.14.07.421-.14.421H66.2a1.08 1.08 0 0 0-1.052 1.053 1.08 1.08 0 0 0 1.052 1.053h6.317a1.08 1.08 0 0 0 1.052-1.053v-6.316a1.08 1.08 0 0 0-1.052-1.053 1.08 1.08 0 0 0-1.053 1.053v3.438c0 .21-.21.281-.422.21a24.9 24.9 0 0 0-18.316-5.684c-11.58.983-21.054 10.316-22.317 22.036-1.544 14.948 10.176 27.58 24.773 27.58 13.755 0 24.913-11.159 24.913-24.913a1.08 1.08 0 0 0-1.052-1.053Z" fill="#071e6f" fill-rule="evenodd" data-name="Path 7110"/>
  </g>
</svg>
