<svg xmlns="http://www.w3.org/2000/svg" width="17.592" height="17.592" viewBox="0 0 17.592 17.592">
  <path id="Path_6747" data-name="Path 6747" d="M157.19 74.061v9.074a4.064 4.064 0 0 1-4.059 4.059h-9.074A4.064 4.064 0 0 1 140 83.135v-9.074A4.064 4.064 0 0 1 144.057 70h.716a.478.478 0 0 1 0 .955h-.716a3.11 3.11 0 0 0-3.1 3.1v9.074a3.11 3.11 0 0 0 3.1 3.1h9.074a3.11 3.11 0 0 0 3.1-3.1v-9.068a3.11 3.11 0 0 0-3.1-3.1h-2.149a1.91 1.91 0 0 0-1.91 1.91v6.49l3-3.009a.479.479 0 0 1 .678.678l-3.82 3.82a.5.5 0 0 1-.158.1.45.45 0 0 1-.363 0 .5.5 0 0 1-.158-.1l-3.82-3.82a.48.48 0 0 1 .678-.678l3 3.009v-6.49A2.866 2.866 0 0 1 150.982 70h2.149a4.064 4.064 0 0 1 4.059 4.059Z" transform="translate(-139.798 -69.802)" fill="#081f70" stroke="#081f70" stroke-width=".4"/>
</svg>
