<svg xmlns="http://www.w3.org/2000/svg" width="15.379" height="14.085" viewBox="0 0 15.379 14.085">
  <g id="Group_4963" data-name="Group 4963" transform="translate(-181.722 -126.45)" fill="#081f70">
    <path id="Path_7131" data-name="Path 7131" d="M196.216 131.048a.384.384 0 0 1-.384-.384v-2.174a2.04 2.04 0 0 1 2.04-2.04h2.174a.384.384 0 0 1 0 .769h-2.174a1.27 1.27 0 0 0-1.271 1.271v2.174a.384.384 0 0 1-.384.384Z" transform="translate(-13.464)"/>
    <path id="Path_7132" data-name="Path 7132" d="M200.042 338.308h-2.174a2.04 2.04 0 0 1-2.04-2.04v-2.174a.384.384 0 0 1 .769 0v2.174a1.27 1.27 0 0 0 1.271 1.271h2.174a.384.384 0 0 1 0 .769" transform="translate(-13.46 -197.774)"/>
    <path id="Path_7133" data-name="Path 7133" d="M407.3 131.048a.384.384 0 0 1-.384-.384v-2.174a1.27 1.27 0 0 0-1.271-1.271h-2.174a.384.384 0 1 1 0-.769h2.174a2.04 2.04 0 0 1 2.04 2.04v2.174a.384.384 0 0 1-.384.384Z" transform="translate(-211.234)"/>
    <path id="Path_7134" data-name="Path 7134" d="M405.652 338.308h-2.174a.384.384 0 0 1 0-.769h2.174a1.27 1.27 0 0 0 1.271-1.271v-2.174a.384.384 0 0 1 .769 0v2.174a2.04 2.04 0 0 1-2.04 2.04" transform="translate(-211.24 -197.774)"/>
    <path id="Path_7135" data-name="Path 7135" d="M196.716 272.7h-14.61a.384.384 0 0 1 0-.769h14.61a.384.384 0 0 1 0 .769" transform="translate(0 -138.824)"/>
  </g>
</svg>
