<svg width="84" height="36" viewBox="0 0 84 36" fill="none" xmlns="http://www.w3.org/2000/svg">
  <mask id="path-1-inside-1_33446_3515" fill="#fff">
    <path fill-rule="evenodd" clip-rule="evenodd" d="M58.82 21.516H25.216v8.895h.068c.772 2.771 7.97 4.942 16.734 4.942s15.962-2.171 16.734-4.942h.068z"/>
  </mask>
  <path fill-rule="evenodd" clip-rule="evenodd" d="M58.82 21.516H25.216v8.895h.068c.772 2.771 7.97 4.942 16.734 4.942s15.962-2.171 16.734-4.942h.068z" fill="#fff"/>
  <path d="M25.216 21.516v-1h-1v1zm33.604 0h1v-1h-1zm-33.604 8.895h-1v1h1zm.068 0 .964-.268-.204-.732h-.76zm33.468 0v-1h-.76l-.204.732zm.068 0v1h1v-1zm0-.476-1-.01v.01zm0-.036h-1v.01zm-33.604-7.383H58.82v-2H25.216zm1 7.895v-8.895h-2v8.895zm-.932-1h-.068v2h.068zm16.734 4.942c-4.31 0-8.2-.535-11.08-1.39-1.441-.429-2.59-.927-3.404-1.451-.836-.539-1.19-1.022-1.286-1.369l-1.927.537c.29 1.038 1.124 1.865 2.13 2.513 1.026.662 2.369 1.226 3.918 1.687 3.104.922 7.194 1.473 11.65 1.473v-2Zm15.77-4.21c-.096.347-.45.83-1.286 1.369-.813.524-1.963 1.022-3.405 1.45-2.878.856-6.77 1.391-11.079 1.391v2c4.455 0 8.545-.55 11.65-1.473 1.548-.46 2.89-1.025 3.918-1.687 1.005-.648 1.84-1.475 2.129-2.513zm1.032-.732h-.068v2h.068zm-1 .524v.476h2v-.476zm0-.018v.008l2 .02v-.028zm0-.008v.008h2v-.028zm0-8.393V29.9h2v-8.383h-2Z" fill="#294BA0" mask="url(#path-1-inside-1_33446_3515)"/>
  <path d="M58.32 22.01c0 .525-.329 1.11-1.124 1.719-.788.602-1.959 1.167-3.451 1.65-2.979.963-7.125 1.567-11.727 1.567s-8.748-.604-11.727-1.568c-1.492-.482-2.663-1.047-3.451-1.649-.795-.608-1.124-1.194-1.124-1.719s.329-1.11 1.124-1.719c.788-.602 1.959-1.166 3.451-1.649 2.979-.964 7.125-1.568 11.727-1.568s8.748.604 11.727 1.568c1.492.483 2.663 1.047 3.45 1.65.796.608 1.125 1.193 1.125 1.718Z" fill="#fff" stroke="#294BA0"/>
  <mask id="path-4-inside-2_33446_3515" fill="#fff">
    <path fill-rule="evenodd" clip-rule="evenodd" d="M83.22 25.078H61.404v5.774h.044c.501 1.8 5.173 3.208 10.863 3.208s10.362-1.409 10.863-3.208h.044v-5.774Z"/>
  </mask>
  <path fill-rule="evenodd" clip-rule="evenodd" d="M83.22 25.078H61.404v5.774h.044c.501 1.8 5.173 3.208 10.863 3.208s10.362-1.409 10.863-3.208h.044v-5.774Z" fill="#fff"/>
  <path d="M61.405 25.078v-1h-1v1zm21.814 0h1v-1h-1zm-21.814 5.774h-1v1h1zm.044 0 .964-.268-.204-.732h-.76zm21.726 0v-1h-.76l-.204.732zm.044 0v1h1v-1zm-21.814-4.774h21.814v-2H61.405zm1 4.454v-5.454h-2v5.454zm0 .32v-.32h-2v.32zm-.956-1h-.044v2h.044zm10.863 3.208c-2.772 0-5.263-.344-7.092-.888-.918-.272-1.63-.584-2.12-.9-.513-.33-.658-.583-.687-.688l-1.927.537c.221.795.848 1.393 1.53 1.832.704.454 1.61.832 2.634 1.137 2.054.61 4.744.97 7.662.97zm9.9-2.476c-.03.105-.175.358-.688.688-.49.316-1.202.628-2.12.9-1.829.544-4.32.889-7.092.889v2c2.918 0 5.608-.36 7.662-.971 1.025-.305 1.93-.683 2.634-1.137.682-.44 1.309-1.037 1.53-1.832l-1.927-.537Zm1.007-.732h-.044v2h.044zm-1 .68v.32h2v-.32zm0-5.454v5.454h2v-5.454z" fill="#294BA0" mask="url(#path-4-inside-2_33446_3515)"/>
  <path d="M82.72 25.399c0 .262-.165.596-.662.976-.49.375-1.229.733-2.187 1.043-1.912.619-4.585 1.01-7.559 1.01s-5.647-.391-7.559-1.01c-.958-.31-1.698-.668-2.187-1.043-.497-.38-.661-.714-.661-.976s.164-.597.66-.977c.49-.374 1.23-.732 2.188-1.043 1.912-.618 4.585-1.009 7.559-1.009s5.647.39 7.559 1.01c.958.31 1.698.668 2.187 1.043.497.38.661.714.661.976Z" fill="#fff" stroke="#294BA0"/>
  <mask id="path-7-inside-3_33446_3515" fill="#fff">
    <path fill-rule="evenodd" clip-rule="evenodd" d="M22.473 25.078H.66v5.775h.044c.501 1.798 5.173 3.207 10.863 3.207s10.362-1.409 10.863-3.208h.044v-5.774Z"/>
  </mask>
  <path fill-rule="evenodd" clip-rule="evenodd" d="M22.473 25.078H.66v5.775h.044c.501 1.798 5.173 3.207 10.863 3.207s10.362-1.409 10.863-3.208h.044v-5.774Z" fill="#fff"/>
  <path d="M.659 25.078v-1h-1v1zm21.814 0h1v-1h-1zM.66 30.527l1 .004v-.004zm0 .01h1v-.005zm0 .316h-1v1h1zm.044 0 .963-.269-.203-.732h-.76zm21.726 0v-1h-.76l-.204.731zm.044 0v1h1v-1zM.66 26.078h21.814v-2H.66zm1 4.449v-5.449h-2v5.449zm0 .005v-.001l-2-.008v.009zm0 0h-2v.009zm0 .32v-.316h-2v.316zm-.956-1H.66v2h.044zm10.863 3.208c-2.772 0-5.263-.344-7.092-.888-.918-.272-1.63-.584-2.12-.9-.513-.33-.658-.583-.688-.688l-1.926.537c.221.795.848 1.393 1.53 1.832.704.454 1.61.832 2.634 1.137 2.054.61 4.744.97 7.662.97zm9.9-2.476c-.03.105-.175.358-.688.688-.49.316-1.202.628-2.12.9-1.83.544-4.32.889-7.092.889v2c2.918 0 5.607-.36 7.662-.971 1.024-.305 1.93-.683 2.634-1.137.682-.44 1.309-1.037 1.53-1.832zm1.007-.732h-.044v2h.044zm-1-4.774v5.774h2v-5.774z" fill="#294BA0" mask="url(#path-7-inside-3_33446_3515)"/>
  <path d="M21.973 25.399c0 .262-.164.596-.66.976-.49.375-1.23.733-2.188 1.043-1.912.619-4.585 1.01-7.56 1.01-2.973 0-5.646-.391-7.558-1.01-.958-.31-1.698-.668-2.187-1.043-.497-.38-.661-.714-.661-.976s.164-.597.66-.977c.49-.374 1.23-.732 2.188-1.043 1.912-.618 4.585-1.009 7.559-1.009s5.647.39 7.559 1.01c.958.31 1.698.668 2.187 1.043.497.38.661.714.661.976Z" fill="#fff" stroke="#294BA0"/>
  <mask id="path-10-inside-4_33446_3515" fill="#fff">
    <path fill-rule="evenodd" clip-rule="evenodd" d="M58.82 13.229H25.216v8.895h.068c.772 2.77 7.97 4.942 16.734 4.942s15.962-2.171 16.734-4.942h.068V13.23Z"/>
  </mask>
  <path fill-rule="evenodd" clip-rule="evenodd" d="M58.82 13.229H25.216v8.895h.068c.772 2.77 7.97 4.942 16.734 4.942s15.962-2.171 16.734-4.942h.068V13.23Z" fill="#fff"/>
  <path d="M25.216 13.229v-1h-1v1zm33.604 0h1v-1h-1zm-33.604 8.895h-1v1h1zm.068 0 .964-.268-.204-.732h-.76zm33.468 0v-1h-.76l-.204.732zm.068 0v1h1v-1zm0-.476-1-.01v.01zm0-.036h-1v.01zm-33.604-7.383H58.82v-2H25.216zm1 7.895V13.23h-2v8.895h2Zm-.932-1h-.068v2h.068zm16.734 4.942c-4.31 0-8.2-.535-11.08-1.39-1.441-.43-2.59-.927-3.404-1.451-.836-.539-1.19-1.022-1.286-1.37l-1.927.538c.29 1.038 1.124 1.865 2.13 2.513 1.026.662 2.369 1.226 3.918 1.687 3.104.922 7.194 1.473 11.65 1.473v-2Zm15.77-4.21c-.096.347-.45.83-1.286 1.369-.813.524-1.963 1.022-3.405 1.45-2.878.856-6.77 1.391-11.079 1.391v2c4.455 0 8.545-.55 11.65-1.473 1.548-.46 2.89-1.025 3.918-1.687 1.005-.648 1.84-1.475 2.129-2.513zm1.032-.732h-.068v2h.068zm-1 .524v.476h2v-.476zm0-.018v.008l2 .02v-.028zm0-.008v.008h2v-.028zm0-8.393v8.383h2v-8.383z" fill="#294BA0" mask="url(#path-10-inside-4_33446_3515)"/>
  <path d="M58.32 13.723c0 .525-.329 1.11-1.124 1.719-.788.602-1.959 1.166-3.451 1.65-2.979.963-7.125 1.567-11.727 1.567s-8.748-.604-11.727-1.568c-1.492-.483-2.663-1.047-3.451-1.65-.795-.607-1.124-1.193-1.124-1.718s.329-1.11 1.124-1.719c.788-.602 1.959-1.166 3.451-1.649 2.979-.964 7.125-1.568 11.727-1.568s8.748.604 11.727 1.568c1.492.483 2.663 1.047 3.45 1.65.796.607 1.125 1.193 1.125 1.718Z" fill="#fff" stroke="#294BA0"/>
  <mask id="path-13-inside-5_33446_3515" fill="#fff">
    <path fill-rule="evenodd" clip-rule="evenodd" d="M83.22 20.605H61.404v5.774h.044c.501 1.8 5.173 3.209 10.863 3.209s10.362-1.41 10.863-3.208h.044v-5.774Z"/>
  </mask>
  <path fill-rule="evenodd" clip-rule="evenodd" d="M83.22 20.605H61.404v5.774h.044c.501 1.8 5.173 3.209 10.863 3.209s10.362-1.41 10.863-3.208h.044v-5.774Z" fill="#fff"/>
  <path d="M61.405 20.605v-1h-1v1zm21.814 0h1v-1h-1zM61.405 26.38h-1v1h1zm.044 0 .964-.268-.204-.732h-.76zm21.726 0v-1h-.76l-.204.732zm.044 0v1h1v-1zm-21.814-4.774h21.814v-2H61.405zm1 4.453v-5.454h-2v5.454zm0 .32v-.32h-2v.32zm-.956-1h-.044v2h.044zm10.863 3.209c-2.772 0-5.263-.345-7.092-.888-.918-.273-1.63-.584-2.12-.9-.513-.331-.658-.584-.687-.688l-1.927.536c.221.795.848 1.393 1.53 1.832.704.454 1.61.832 2.634 1.137 2.054.61 4.744.97 7.662.97v-2Zm9.9-2.476c-.03.104-.175.357-.688.687-.49.317-1.202.628-2.12.9-1.829.544-4.32.889-7.092.889v2c2.918 0 5.608-.36 7.662-.971 1.025-.305 1.93-.683 2.634-1.137.682-.44 1.309-1.037 1.53-1.832l-1.927-.536Zm1.007-.732h-.044v2h.044zm-1 .68v.32h2v-.32zm0-5.454v5.453h2v-5.454h-2Z" fill="#294BA0" mask="url(#path-13-inside-5_33446_3515)"/>
  <path d="M82.72 20.926c0 .262-.165.597-.662.977-.49.374-1.229.733-2.187 1.043-1.912.618-4.585 1.01-7.559 1.01s-5.647-.392-7.559-1.01c-.958-.31-1.698-.669-2.187-1.043-.497-.38-.661-.715-.661-.977s.164-.596.66-.976c.49-.374 1.23-.733 2.188-1.043 1.912-.619 4.585-1.01 7.559-1.01s5.647.391 7.559 1.01c.958.31 1.698.669 2.187 1.043.497.38.661.714.661.976Z" fill="#fff" stroke="#294BA0"/>
  <mask id="path-16-inside-6_33446_3515" fill="#fff">
    <path fill-rule="evenodd" clip-rule="evenodd" d="M22.473 20.605H.66v5.775h.044c.501 1.798 5.173 3.208 10.863 3.208s10.362-1.41 10.863-3.208h.044v-5.774Z"/>
  </mask>
  <path fill-rule="evenodd" clip-rule="evenodd" d="M22.473 20.605H.66v5.775h.044c.501 1.798 5.173 3.208 10.863 3.208s10.362-1.41 10.863-3.208h.044v-5.774Z" fill="#fff"/>
  <path d="M.659 20.605v-1h-1v1zm21.814 0h1v-1h-1zM.66 26.055l1 .003v-.004h-1Zm0 .009h1v-.004zm0 .316h-1v1h1zm.044 0 .963-.268-.203-.732h-.76zm21.726 0v-1h-.76l-.204.732zm.044 0v1h1v-1zM.66 21.606h21.814v-2H.66zm1 4.448v-5.448h-2v5.448zm0 .005-2-.009v.01h2Zm0 0h-2v.009l2-.008Zm0 .32v-.315h-2v.316zm-.956-1H.66v2h.044zm10.863 3.209c-2.772 0-5.263-.345-7.092-.888-.918-.273-1.63-.584-2.12-.9-.513-.331-.658-.584-.688-.688l-1.926.536c.221.795.848 1.393 1.53 1.832.704.454 1.61.832 2.634 1.137 2.054.61 4.744.97 7.662.97zm9.9-2.476c-.03.104-.175.357-.688.687-.49.317-1.202.628-2.12.9-1.83.544-4.32.889-7.092.889v2c2.918 0 5.607-.36 7.662-.971 1.024-.305 1.93-.683 2.634-1.137.682-.44 1.309-1.037 1.53-1.832zm1.007-.732h-.044v2h.044zm-1-4.774v5.774h2v-5.774z" fill="#294BA0" mask="url(#path-16-inside-6_33446_3515)"/>
  <path d="M21.973 20.926c0 .262-.164.597-.66.977-.49.374-1.23.733-2.188 1.043-1.912.618-4.585 1.01-7.56 1.01-2.973 0-5.646-.392-7.558-1.01-.958-.31-1.698-.669-2.187-1.043-.497-.38-.661-.715-.661-.977s.164-.596.66-.976c.49-.374 1.23-.733 2.188-1.043 1.912-.619 4.585-1.01 7.559-1.01s5.647.391 7.559 1.01c.958.31 1.698.669 2.187 1.043.497.38.661.714.661.976Z" fill="#fff" stroke="#294BA0"/>
  <mask id="path-19-inside-7_33446_3515" fill="#fff">
    <path fill-rule="evenodd" clip-rule="evenodd" d="M58.82 4.942H25.216v8.895h.068c.772 2.77 7.97 4.942 16.734 4.942s15.962-2.171 16.734-4.942h.068z"/>
  </mask>
  <path fill-rule="evenodd" clip-rule="evenodd" d="M58.82 4.942H25.216v8.895h.068c.772 2.77 7.97 4.942 16.734 4.942s15.962-2.171 16.734-4.942h.068z" fill="#fff"/>
  <path d="M25.216 4.942v-1h-1v1zm33.604 0h1v-1h-1zm-33.604 8.895h-1v1h1zm.068 0 .964-.268-.204-.732h-.76zm33.468 0v-1h-.76l-.204.732zm.068 0v1h1v-1zm0-.476-1-.01v.01zm0-.036h-1v.01zM25.216 5.942H58.82v-2H25.216zm1 7.895V4.942h-2v8.895zm-.932-1h-.068v2h.068zm16.734 4.942c-4.31 0-8.2-.535-11.08-1.39-1.441-.43-2.59-.927-3.404-1.451-.836-.539-1.19-1.022-1.286-1.37l-1.927.537c.29 1.038 1.124 1.866 2.13 2.514 1.026.662 2.369 1.226 3.918 1.687 3.104.922 7.194 1.473 11.65 1.473zm15.77-4.21c-.096.347-.45.83-1.286 1.369-.813.524-1.963 1.022-3.405 1.45-2.878.856-6.77 1.391-11.079 1.391v2c4.455 0 8.545-.55 11.65-1.473 1.548-.46 2.89-1.025 3.918-1.687 1.005-.648 1.84-1.476 2.129-2.514zm1.032-.732h-.068v2h.068zm-1 .524v.476h2v-.476zm0-.018v.008l2 .02v-.028zm0-.008v.008h2v-.028zm0-8.393v8.383h2V4.942z" fill="#294BA0" mask="url(#path-19-inside-7_33446_3515)"/>
  <path d="M58.32 5.436c0 .525-.329 1.11-1.124 1.719-.788.602-1.959 1.166-3.451 1.65-2.979.963-7.125 1.567-11.727 1.567s-8.748-.604-11.727-1.568c-1.492-.483-2.663-1.047-3.451-1.65-.795-.607-1.124-1.193-1.124-1.718s.329-1.11 1.124-1.719c.788-.602 1.959-1.166 3.451-1.65C33.27 1.105 37.416.5 42.018.5s8.748.604 11.727 1.568c1.492.483 2.663 1.047 3.45 1.65.796.607 1.125 1.193 1.125 1.718Z" fill="#fff" stroke="#294BA0"/>
  <mask id="path-22-inside-8_33446_3515" fill="#fff">
    <path fill-rule="evenodd" clip-rule="evenodd" d="M83.22 16.133H61.404v5.774h.044c.501 1.799 5.173 3.208 10.863 3.208s10.362-1.41 10.863-3.208h.044v-5.774Z"/>
  </mask>
  <path fill-rule="evenodd" clip-rule="evenodd" d="M83.22 16.133H61.404v5.774h.044c.501 1.799 5.173 3.208 10.863 3.208s10.362-1.41 10.863-3.208h.044v-5.774Z" fill="#fff"/>
  <path d="M61.405 16.133v-1h-1v1zm21.814 0h1v-1h-1zm-21.814 5.774h-1v1h1zm.044 0 .964-.268-.204-.732h-.76zm21.726 0v-1h-.76l-.204.732zm.044 0v1h1v-1zm-21.814-4.774h21.814v-2H61.405zm1 4.453v-5.453h-2v5.453zm0 .321v-.32h-2v.32zm-.956-1h-.044v2h.044zm10.863 3.208c-2.772 0-5.263-.344-7.092-.888-.918-.273-1.63-.584-2.12-.9-.513-.33-.658-.584-.687-.688l-1.927.537c.221.795.848 1.392 1.53 1.832.704.454 1.61.832 2.634 1.136 2.054.61 4.744.971 7.662.971zm9.9-2.476c-.03.104-.175.357-.688.688-.49.316-1.202.627-2.12.9-1.829.544-4.32.888-7.092.888v2c2.918 0 5.608-.36 7.662-.97 1.025-.305 1.93-.683 2.634-1.137.682-.44 1.309-1.037 1.53-1.832l-1.927-.537Zm1.007-.732h-.044v2h.044zm-1 .68v.32h2v-.32zm0-5.454v5.453h2v-5.453z" fill="#294BA0" mask="url(#path-22-inside-8_33446_3515)"/>
  <path d="M82.72 16.454c0 .261-.165.596-.662.976-.49.374-1.229.733-2.187 1.043-1.912.619-4.585 1.01-7.559 1.01s-5.647-.391-7.559-1.01c-.958-.31-1.698-.669-2.187-1.043-.497-.38-.661-.715-.661-.976 0-.262.164-.597.66-.977.49-.374 1.23-.733 2.188-1.043 1.912-.618 4.585-1.01 7.559-1.01s5.647.392 7.559 1.01c.958.31 1.698.669 2.187 1.043.497.38.661.715.661.977Z" fill="#fff" stroke="#294BA0"/>
</svg>
