<svg width="39" height="52" viewBox="0 0 39 52" fill="none" xmlns="http://www.w3.org/2000/svg">
  <path d="M.75 48.56V33.81a2 2 0 0 1 2-2h33.5a2 2 0 0 1 2 2v14.75a2 2 0 0 1-2 2H2.75a2 2 0 0 1-2-2Z" stroke="#294BA0"/>
  <circle cx="19.5" cy="13.061" r="12" stroke="#294BA0"/>
  <path d="M21.995 33.578a2.494 2.494 0 1 1-4.99 0c0-.346.07-.565.16-.71a.87.87 0 0 1 .417-.335c.43-.187 1.072-.223 1.918-.223s1.488.036 1.919.223a.87.87 0 0 1 .416.336c.09.144.16.363.16.71Zm-5.581 9.962 3.086-6.59 3.086 6.59-3.086 3.087-3.086-3.086Z" stroke="#294BA0"/>
</svg>
