<svg xmlns="http://www.w3.org/2000/svg" width="19.461" height="19.461" viewBox="0 0 19.461 19.461">
  <path id="Path_6765" data-name="Path 6765" d="m30.148 17.768-1.537-.341a7 7 0 0 0-.457-1.1l.832-1.384a1.376 1.376 0 0 0 0-1.694l-.848-.847a1.17 1.17 0 0 0-.845-.326 1.6 1.6 0 0 0-.887.273l-1.349.859a7 7 0 0 0-1.095-.46l-.345-1.555A1.405 1.405 0 0 0 22.354 10h-1.2c-.662 0-1.067.627-1.2 1.2l-.385 1.536a7 7 0 0 0-1.166.49l-1.382-.879a1.6 1.6 0 0 0-.889-.273 1.17 1.17 0 0 0-.845.326l-.846.847a1.375 1.375 0 0 0 0 1.694l.874 1.458a7 7 0 0 0-.422 1.029l-1.536.341a1.405 1.405 0 0 0-1.188 1.263v1.2c0 .661.627 1.066 1.2 1.2l1.556.389a7 7 0 0 0 .394.954l-.876 1.459a1.374 1.374 0 0 0 0 1.693l.848.847a1.17 1.17 0 0 0 .845.326 1.6 1.6 0 0 0 .888-.273l1.385-.883a7 7 0 0 0 1.173.494l.384 1.533c.131.571.536 1.2 1.2 1.2h1.2a1.406 1.406 0 0 0 1.263-1.188l.345-1.559a7 7 0 0 0 1.083-.454l1.351.861a1.6 1.6 0 0 0 .887.273 1.17 1.17 0 0 0 .845-.326l.848-.847a1.375 1.375 0 0 0 0-1.693l-.833-1.387a7 7 0 0 0 .429-1.027l1.556-.389c.571-.131 1.2-.536 1.2-1.2v-1.2a1.406 1.406 0 0 0-1.192-1.267Zm.23 2.461c0 .048-.177.2-.472.269l-1.556.388-.513.128-.165.5a6.4 6.4 0 0 1-.372.889l-.241.473.273.454.842 1.4a.68.68 0 0 1 .135.508l-.849.848a.3.3 0 0 1-.166.045.65.65 0 0 1-.342-.1l-.015-.01-.016-.011-1.351-.861-.466-.3-.49.255a6 6 0 0 1-.937.393l-.522.17-.118.535-.346 1.559-.007.037c-.035.2-.217.4-.32.4h-1.2c-.048 0-.2-.177-.269-.472l-.38-1.526-.13-.52-.511-.162a6 6 0 0 1-1.015-.428l-.492-.259-.47.3-1.385.882-.016.011-.015.01a.65.65 0 0 1-.342.1.27.27 0 0 1-.167-.047l-.847-.846a.7.7 0 0 1 .143-.524l.876-1.459.27-.449-.234-.47a6 6 0 0 1-.34-.825l-.165-.5-.514-.128-1.574-.393a.67.67 0 0 1-.453-.263v-1.2c0-.1.2-.285.4-.321h.039l1.536-.34.541-.12.165-.528a6 6 0 0 1 .366-.891l.234-.47-.271-.45-.884-1.474a.67.67 0 0 1-.135-.508l.846-.847a.27.27 0 0 1 .168-.045.65.65 0 0 1 .342.1l.015.011.017.01 1.382.88.469.3.492-.259a6 6 0 0 1 1.011-.425l.508-.163.13-.518.389-1.554a.67.67 0 0 1 .264-.454h1.2c.1 0 .285.2.32.4v.038l.345 1.555.119.535.522.169a6.3 6.3 0 0 1 .949.4l.49.254.466-.3 1.347-.859.016-.01.015-.011a.65.65 0 0 1 .342-.1.3.3 0 0 1 .168.045l.846.846a.7.7 0 0 1-.143.524l-.832 1.385-.273.457.241.473a6 6 0 0 1 .4.952l.166.529.541.12 1.537.34.019.006h.019c.2.037.4.217.4.321v1.2Zm-8.615-4.485a3.835 3.835 0 1 0 3.842 3.836 3.843 3.843 0 0 0-3.842-3.837Zm.01 6.735a2.888 2.888 0 1 1 2.9-2.889 2.9 2.9 0 0 1-2.901 2.888Z" transform="translate(-12.025 -9.852)" fill="#081f70" stroke="#081f70" stroke-width=".3"/>
</svg>
