<svg width="14" height="14" viewBox="0 0 14 14" fill="none" xmlns="http://www.w3.org/2000/svg">
  <path d="M2.042 6.417v1.75c0 2.2 0 3.3.683 3.983.684.684 1.784.684 3.984.684h.583c2.2 0 3.3 0 3.983-.684.684-.683.684-1.783.684-3.983v-1.75" stroke="#4B5565" stroke-width=".875"/>
  <path d="M5.542 1.167h2.917l.38 3.802a1.848 1.848 0 1 1-3.677 0z" stroke="#4B5565" stroke-width=".875"/>
  <path d="M1.942 3.122c.104-.52.155-.78.261-.99a1.75 1.75 0 0 1 1.102-.903c.227-.062.492-.062 1.021-.062h1.215l-.423 4.226a1.785 1.785 0 1 1-3.525-.527zm10.115 0c-.104-.52-.155-.78-.261-.99a1.75 1.75 0 0 0-1.102-.903c-.227-.062-.492-.062-1.021-.062H8.458l.423 4.226a1.784 1.784 0 1 0 3.525-.527z" stroke="#4B5565" stroke-width=".875"/>
  <path d="M5.542 12.541v-1.75c0-.545 0-.817.117-1.02a.9.9 0 0 1 .32-.32c.204-.118.476-.118 1.021-.118.546 0 .818 0 1.021.117a.9.9 0 0 1 .32.32c.118.204.118.476.118 1.021v1.75" stroke="#4B5565" stroke-width=".875" stroke-linecap="round"/>
</svg>
