<svg xmlns="http://www.w3.org/2000/svg" width="16.559" height="18.595" viewBox="0 0 16.559 18.595">
  <g id="Group_2364" data-name="Group 2364" transform="translate(-14.993 -6)" fill="#081f70">
    <path id="Path_1557" data-name="Path 1557" d="M30.894 42.563H15.651a.656.656 0 0 1-.658-.655v-.047l.875-12.251a.656.656 0 0 1 .656-.61h13.495a.656.656 0 0 1 .656.61l.875 12.251a.656.656 0 0 1-.609.7Zm-14.539-1.312H30.19l-.781-10.938H17.136Z" transform="translate(0 -17.968)"/>
    <path id="Path_1558" data-name="Path 1558" d="M39.782 10.375a.656.656 0 0 1-.656-.656 2.406 2.406 0 1 0-4.813 0 .656.656 0 1 1-1.313 0 3.719 3.719 0 1 1 7.438 0 .656.656 0 0 1-.656.656" transform="translate(-13.446)"/>
    <path id="Path_1559" data-name="Path 1559" d="M33.656 26.563a.656.656 0 0 1-.656-.656v-5.25a.656.656 0 1 1 1.313 0v5.25a.656.656 0 0 1-.657.656" transform="translate(-13.446 -10.937)"/>
    <path id="Path_1560" data-name="Path 1560" d="M61.656 26.563a.656.656 0 0 1-.656-.656v-5.25a.656.656 0 0 1 1.313 0v5.25a.656.656 0 0 1-.657.656" transform="translate(-35.321 -10.937)"/>
  </g>
</svg>
