<svg width="16" height="15" viewBox="0 0 16 15" fill="none" xmlns="http://www.w3.org/2000/svg">
  <path d="M3.3 14.342a.366.366 0 0 1-.366-.394l.356-4.532L.338 5.958a.366.366 0 0 1 .193-.593l4.421-1.062L7.328.427a.366.366 0 0 1 .624 0l2.376 3.876 4.421 1.062a.367.367 0 0 1 .193.593L11.99 9.416l.356 4.532a.366.366 0 0 1-.5.366l-4.2-1.74-4.2 1.74a.4.4 0 0 1-.14.028z" fill="#fff"/>
  <path d="M3.3 14.59a.616.616 0 0 1-.615-.664l.348-4.43L.148 6.119a.616.616 0 0 1 .325-1l4.32-1.038L7.115.292a.616.616 0 0 1 1.05 0l2.322 3.787 4.32 1.038a.616.616 0 0 1 .325 1l-2.885 3.379.348 4.429a.62.62 0 0 1-.852.617L7.64 12.84l-4.1 1.7-.07.024-.01.023-.16.002Zm-.007-.5H3.3a.1.1 0 0 0 .045-.01l4.3-1.778 4.3 1.778a.12.12 0 0 0 .113-.014.12.12 0 0 0 .047-.102l-.364-4.636 3.02-3.536a.116.116 0 0 0-.062-.188l-4.532-1.085L7.736.555a.116.116 0 0 0-.2 0l-2.43 3.964-4.52 1.086a.115.115 0 0 0-.087.135q.006.03.025.053l3.02 3.537-.365 4.636a.12.12 0 0 0 .048.1.1.1 0 0 0 .066.024" fill="#fff"/>
</svg>
