<svg xmlns="http://www.w3.org/2000/svg" width="34" height="29.143" viewBox="0 0 34 29.143">
  <g id="Group_4942" data-name="Group 4942" transform="translate(-105.003 -69.999)" fill="#081f70">
    <path id="Path_7086" data-name="Path 7086" d="M135.36 74.856H132a1.21 1.21 0 0 1-1.086-.671l-1.087-2.172A3.63 3.63 0 0 0 126.574 70h-9.141a3.63 3.63 0 0 0-3.258 2.013l-1.093 2.172a1.2 1.2 0 0 1-1.079.671h-3.356A3.64 3.64 0 0 0 105 78.5v17a3.64 3.64 0 0 0 3.643 3.643h26.717A3.64 3.64 0 0 0 139 95.5v-17a3.64 3.64 0 0 0-3.643-3.643Zm1.214 20.644a1.214 1.214 0 0 1-1.214 1.214h-26.714a1.214 1.214 0 0 1-1.214-1.214v-17a1.214 1.214 0 0 1 1.214-1.214H112a3.63 3.63 0 0 0 3.258-2.013l1.093-2.172a1.21 1.21 0 0 1 1.079-.671h9.141a1.21 1.21 0 0 1 1.086.671l1.087 2.172A3.63 3.63 0 0 0 132 77.285h3.356a1.214 1.214 0 0 1 1.214 1.214Z"/>
    <path id="Path_7087" data-name="Path 7087" d="M252.286 192.5a7.293 7.293 0 1 0 5.15 2.136 7.3 7.3 0 0 0-5.15-2.136m0 12.143a4.857 4.857 0 1 1 3.434-1.423 4.86 4.86 0 0 1-3.434 1.423" transform="translate(-130.283 -114.001)"/>
  </g>
</svg>
