<svg width="307" height="90" viewBox="0 0 307 90" fill="none" xmlns="http://www.w3.org/2000/svg">
  <path d="M286.462-70.994a51.1 51.1 0 0 1-13.034 7.756C194.23-30.863 119.487 16.208 51.27 76.67c-5.335 4.746-11.513 8.301-18.18 10.463a49.7 49.7 0 0 1-20.682 2.134c-6.984-.753-13.79-2.968-20.025-6.52s-11.78-8.37-16.314-14.179-7.972-12.494-10.114-19.674a61.1 61.1 0 0 1-2.37-22.168c.577-7.455 2.526-14.686 5.735-21.279 3.21-6.592 7.615-12.418 12.965-17.142 76.96-68.21 161.53-121.415 251.365-158.137 11.907-4.865 25.141-4.936 37.272-.202s22.344 13.957 28.766 25.974 8.618 26.022 6.189 39.444-9.324 25.36-19.416 33.62z" fill="#FDAA75"/>
</svg>
