<svg width="33" height="33" viewBox="0 0 33 33" fill="none" xmlns="http://www.w3.org/2000/svg">
  <path d="M9.708 24.637h-.25v4.5h13.834v-4.5zm-.25-2.416v.25h13.834V8.637H9.458zm0-16v.25h13.834V4.637H9.458zm9.334 20.25v.833h-4.834v-.833zm-9.084 4.833c-.666 0-1.23-.234-1.706-.71a2.32 2.32 0 0 1-.71-1.707v-24c0-.666.234-1.23.71-1.707a2.32 2.32 0 0 1 1.706-.71h13.334c.666 0 1.23.235 1.707.71.475.476.71 1.04.71 1.707v24c0 .667-.235 1.232-.71 1.708a2.32 2.32 0 0 1-1.707.709z" fill="#081F70" stroke="#fff" stroke-width=".5"/>
</svg>
