<svg width="40" height="40" viewBox="0 0 40 40" fill="none" xmlns="http://www.w3.org/2000/svg">
  <g clip-path="url(#clip0_4665_10623)">
    <rect width="40" height="40" rx="20" fill="#F0F4F8"/>
    <rect x="8" y="10" width="24" height="32" rx="2" fill="#CDD5DF"/>
    <circle cx="20" cy="21" r="8" fill="#F3F4F6"/>
    <rect x="12" y="31" width="16" height="3" rx=".5" fill="#EBECEF"/>
    <rect x="14" y="35" width="12" height="2" rx=".5" fill="#EBECEF"/>
    <circle cx="20" cy="18" r="2" fill="#4B5565"/>
    <path fill-rule="evenodd" clip-rule="evenodd" d="M22.25 26c-.825 0-1.237 0-1.494-.256-.256-.257-.256-.669-.256-1.494s0-1.237.256-1.494c.257-.256.669-.256 1.494-.256s1.237 0 1.494.256c.256.257.256.669.256 1.494s0 1.237-.256 1.494c-.257.256-.669.256-1.494.256m.292-2.528a.292.292 0 0 0-.584 0v.486h-.486a.292.292 0 0 0 0 .584h.486v.486a.292.292 0 0 0 .584 0v-.486h.486a.292.292 0 0 0 0-.584h-.486z" fill="#4B5565"/>
    <path d="M21.707 21.754A5.6 5.6 0 0 0 20 21.5c-1.933 0-3.5.895-3.5 2 0 1.07 1.471 1.944 3.321 1.997a2 2 0 0 1-.032-.187c-.04-.289-.04-.642-.039-1.017v-.086c0-.375 0-.728.039-1.017.043-.322.146-.673.437-.964.29-.29.643-.394.964-.437q.235-.03.517-.035" fill="#4B5565"/>
  </g>
  <defs>
    <clipPath id="clip0_4665_10623">
      <rect width="40" height="40" rx="20" fill="#fff"/>
    </clipPath>
  </defs>
</svg>
