<svg width="19" height="15" viewBox="0 0 19 15" fill="none" xmlns="http://www.w3.org/2000/svg">
  <path fill-rule="evenodd" clip-rule="evenodd" d="M6.121.542h4.258c1.14 0 2.058 0 2.78.097.751.1 1.382.316 1.884.818.462.462.682 1.034.792 1.708.674.11 1.246.33 1.708.792.502.501.718 1.133.819 1.883.097.723.097 1.641.097 2.78v.092c0 1.14 0 2.059-.098 2.781-.1.75-.316 1.382-.818 1.883-.501.502-1.133.718-1.883.818-.722.098-1.641.098-2.78.097H8.62c-1.14 0-2.058 0-2.78-.097-.75-.1-1.382-.316-1.884-.818-.462-.462-.681-1.034-.792-1.708-.674-.11-1.246-.33-1.708-.792C.955 10.375.74 9.743.639 8.993.542 8.27.542 7.352.542 6.213V6.12c0-1.14 0-2.058.097-2.781.1-.75.316-1.382.818-1.883S2.59.739 3.34.639C4.063.54 4.981.54 6.121.542M4.463 11.776c.088.336.212.55.378.716.23.231.555.381 1.166.464.63.084 1.464.085 2.66.085h4.167c1.196 0 2.03 0 2.66-.085.611-.083.935-.233 1.166-.464.23-.23.38-.554.463-1.166.084-.629.086-1.463.086-2.66 0-1.196-.002-2.03-.086-2.66-.082-.61-.233-.935-.463-1.165-.167-.166-.381-.29-.717-.378a57 57 0 0 1 .015 1.658v.091c0 1.14 0 2.058-.097 2.781-.1.75-.316 1.382-.818 1.883s-1.133.718-1.883.818c-.723.097-1.641.097-2.78.097H6.12c-.616 0-1.167 0-1.658-.015m-.956-9.899c-.612.083-.935.233-1.166.464-.23.23-.381.554-.463 1.166-.085.63-.086 1.463-.086 2.66 0 1.196.001 2.03.086 2.66.082.61.232.935.463 1.165.23.231.554.381 1.166.463.63.085 1.464.086 2.66.086h4.166c1.197 0 2.03 0 2.66-.085.612-.083.936-.233 1.166-.464.23-.23.381-.554.463-1.166.085-.63.086-1.463.086-2.66 0-1.196 0-2.03-.085-2.66-.083-.61-.233-.935-.464-1.165-.23-.231-.554-.381-1.166-.464-.63-.084-1.463-.085-2.66-.085H6.167c-1.196 0-2.03 0-2.66.085M8.25 4.708a1.458 1.458 0 1 0 0 2.917 1.458 1.458 0 0 0 0-2.917M5.542 6.167a2.708 2.708 0 1 1 5.416 0 2.708 2.708 0 0 1-5.416 0M3.667 3.875c.345 0 .625.28.625.625v3.333a.625.625 0 1 1-1.25 0V4.5c0-.345.28-.625.625-.625m9.166 0c.346 0 .625.28.625.625v3.333a.625.625 0 1 1-1.25 0V4.5c0-.345.28-.625.625-.625" fill="#4B5565"/>
</svg>
