<svg width="20" height="20" viewBox="0 0 20 20" fill="none" xmlns="http://www.w3.org/2000/svg">
  <path d="M7.5 18.333h5c4.167 0 5.834-1.667 5.834-5.834v-5c0-4.166-1.667-5.833-5.834-5.833h-5c-4.166 0-5.833 1.667-5.833 5.833v5c0 4.167 1.667 5.834 5.833 5.834" stroke="#4B5565" stroke-width="1.25" stroke-linecap="round" stroke-linejoin="round"/>
  <path d="M7.5 8.333A1.667 1.667 0 1 0 7.5 5a1.667 1.667 0 0 0 0 3.333M2.225 15.79l4.108-2.758c.658-.442 1.608-.392 2.2.116l.275.242c.65.558 1.7.558 2.35 0l3.467-2.975c.65-.558 1.7-.558 2.35 0l1.358 1.167" stroke="#4B5565" stroke-width="1.25" stroke-linecap="round" stroke-linejoin="round"/>
</svg>
