<svg xmlns="http://www.w3.org/2000/svg" width="18.386" height="18.386" viewBox="0 0 18.386 18.386">
  <g id="Group_2492" data-name="Group 2492" transform="translate(-12.987 -12.987)" fill="#081f70" stroke="#081f70" stroke-width=".2">
    <path id="Path_1634" data-name="Path 1634" d="M22.18 31.273a9.093 9.093 0 1 1 9.093-9.093 9.1 9.1 0 0 1-9.093 9.093Zm0-17.191a8.1 8.1 0 1 0 8.1 8.1 8.107 8.107 0 0 0-8.1-8.1Z"/>
    <path id="Path_1635" data-name="Path 1635" d="M40.647 42.211a3.057 3.057 0 1 1 3.053-3.057 3.06 3.06 0 0 1-3.053 3.057Zm0-5.119a2.062 2.062 0 1 0 2.063 2.062 2.064 2.064 0 0 0-2.063-2.062Z" transform="translate(-18.467 -17.342)"/>
    <path id="Path_1636" data-name="Path 1636" d="M33.243 65.245A9.03 9.03 0 0 1 28 63.579l-.235-.166.027-.286a5.474 5.474 0 0 1 10.9 0l.027.286-.235.166a9.03 9.03 0 0 1-5.241 1.666Zm-4.424-2.312a8.09 8.09 0 0 0 8.848 0 4.48 4.48 0 0 0-8.848 0Z" transform="translate(-11.063 -33.972)"/>
  </g>
</svg>
