<svg width="161" height="160" viewBox="0 0 161 160" fill="none" xmlns="http://www.w3.org/2000/svg">
  <g clip-path="url(#clip0_2178_565)">
    <circle cx="81" cy="80" r="65" fill="#9B7BF8"/>
    <path d="M147.318 35.54c.178-.51.9-.51 1.078 0l.951 2.714a.57.57 0 0 0 .526.382l2.874.065a.571.571 0 0 1 .334 1.026l-2.287 1.742a.57.57 0 0 0-.201.619l.826 2.754a.572.572 0 0 1-.873.634l-2.364-1.637a.57.57 0 0 0-.65 0l-2.364 1.637a.571.571 0 0 1-.872-.634l.826-2.754a.57.57 0 0 0-.201-.619l-2.287-1.742a.571.571 0 0 1 .333-1.026l2.874-.065a.57.57 0 0 0 .527-.382z" fill="#9B7BF8"/>
    <path d="M16.318 29.54c.178-.51.9-.51 1.078 0l.95 2.714a.57.57 0 0 0 .527.382l2.874.065c.54.012.764.699.334 1.026l-2.287 1.742a.57.57 0 0 0-.201.619l.826 2.754a.571.571 0 0 1-.873.634l-2.363-1.637a.57.57 0 0 0-.651 0l-2.364 1.637a.571.571 0 0 1-.872-.634l.826-2.754a.57.57 0 0 0-.201-.619l-2.287-1.742a.571.571 0 0 1 .333-1.026l2.874-.065a.57.57 0 0 0 .527-.382z" fill="#FE8253"/>
    <circle cx="13.571" cy="130.571" r="4.571" fill="#9B7BF8"/>
    <circle cx="146.571" cy="132.571" r="4.571" fill="#FE8253"/>
    <circle cx="72.857" cy="6.857" r="2.857" fill="#FE8253"/>
    <circle cx="80.5" cy="152.5" r="77.5" fill="#fff" fill-opacity=".1"/>
    <g filter="url(#filter0_d_2178_565)">
      <path fill-rule="evenodd" clip-rule="evenodd" d="m89.032 108.012.023-8.012c0-2.21 1.795-4 4.01-4s4.01 1.79 4.01 4v7.906c0 1.926 0 2.889.617 3.48.618.59 1.563.55 3.453.47 7.452-.315 12.03-1.323 15.257-4.542 3.234-3.227 4.242-7.808 4.556-15.272.062-1.48.093-2.22-.183-2.714-.277-.494-1.38-1.11-3.587-2.343A8 8 0 0 1 113.08 80a8 8 0 0 1 4.108-6.985c2.207-1.233 3.31-1.85 3.587-2.343.276-.494.245-1.234.183-2.714-.314-7.464-1.322-12.045-4.556-15.272-3.511-3.502-8.621-4.387-17.29-4.61a1.99 1.99 0 0 0-2.037 1.989V60c0 2.21-1.796 4-4.01 4a4.005 4.005 0 0 1-4.01-4l-.03-10.006A2.003 2.003 0 0 0 87.022 48H72.98c-15.123 0-22.685 0-27.383 4.686-3.234 3.227-4.242 7.808-4.556 15.272-.062 1.48-.093 2.22.183 2.714.277.494 1.38 1.11 3.587 2.343A8 8 0 0 1 48.92 80a8 8 0 0 1-4.108 6.985c-2.207 1.233-3.31 1.85-3.587 2.343-.276.494-.245 1.234-.183 2.714.314 7.464 1.322 12.045 4.556 15.272C50.296 112 57.858 112 72.98 112h12.042c1.885 0 2.828 0 3.414-.584.587-.583.59-1.524.595-3.404M97.075 84v-8c0-2.21-1.796-4-4.01-4a4.005 4.005 0 0 0-4.01 4v8c0 2.21 1.795 4 4.01 4s4.01-1.79 4.01-4" fill="url(#paint0_linear_2178_565)"/>
    </g>
  </g>
  <defs>
    <linearGradient id="paint0_linear_2178_565" x1="81" y1="48" x2="81" y2="112" gradientUnits="userSpaceOnUse">
      <stop stop-color="#6F04FB"/>
      <stop offset="1" stop-color="#D0B3F5"/>
    </linearGradient>
    <clipPath id="clip0_2178_565">
      <path fill="#fff" d="M.5 0h160v160H.5z"/>
    </clipPath>
    <filter id="filter0_d_2178_565" x="37" y="48" width="88" height="72" filterUnits="userSpaceOnUse" color-interpolation-filters="sRGB">
      <feFlood flood-opacity="0" result="BackgroundImageFix"/>
      <feColorMatrix in="SourceAlpha" values="0 0 0 0 0 0 0 0 0 0 0 0 0 0 0 0 0 0 127 0" result="hardAlpha"/>
      <feOffset dy="4"/>
      <feGaussianBlur stdDeviation="2"/>
      <feComposite in2="hardAlpha" operator="out"/>
      <feColorMatrix values="0 0 0 0 0 0 0 0 0 0 0 0 0 0 0 0 0 0 0.25 0"/>
      <feBlend in2="BackgroundImageFix" result="effect1_dropShadow_2178_565"/>
      <feBlend in="SourceGraphic" in2="effect1_dropShadow_2178_565" result="shape"/>
    </filter>
  </defs>
</svg>
