<svg xmlns="http://www.w3.org/2000/svg" width="1080" viewBox="0 0 810 810" height="1080" version="1.0">
  <defs>
    <clipPath id="c715228068">
      <path d="M184.09 122H614v607H184.09Zm0 0"/>
    </clipPath>
    <clipPath id="42d9b074d3">
      <path d="M184.09 265H610v383H184.09Zm0 0"/>
    </clipPath>
  </defs>
  <g clip-path="url(#c715228068)">
    <path fill="#f4eadc" d="m567.93 372.277 43.523-25.812.75.351c.164.079.34.118.512.118a1.21 1.21 0 0 0 1.097-.7 1.21 1.21 0 0 0-.582-1.613l-1.09-.512L599.25 308l.457-.32a1.211 1.211 0 1 0-1.39-1.985l-.57.399-28.099-13.176-.058-.691a1.19 1.19 0 0 0-.84-1.055 1.205 1.205 0 0 0-1.34.031l-.57.399-28.098-13.172-.058-.696a1.206 1.206 0 0 0-1.309-1.109c-.664.055-1.16.64-1.105 1.309l.027.332-36.262 13.285-1.086-.512a1.21 1.21 0 0 0-1.613.586 1.21 1.21 0 0 0 .582 1.61l.746.35 8.008 49.97c-3.938 8.406-4.117 17.605-1.23 25.71a140.6 140.6 0 0 0-44.684-4.859c-17.98-57.531-71.676-99.281-135.121-99.281-78.172 0-141.547 63.383-141.547 141.566 0 78.184 63.375 141.567 141.547 141.567q3.668-.001 7.289-.184c11.453 36.54 37.597 68.344 74.996 85.88 70.781 33.183 155.062 2.694 188.242-68.095 29.703-63.37 8.363-137.53-47.207-176.191 8.074-2.965 15.031-8.988 18.973-17.39M327.32 521.515c-.562.007-1.12.023-1.683.023-63.317 0-114.828-51.52-114.828-114.848s51.511-114.847 114.828-114.847c49.902 0 92.46 32.004 108.261 76.562-39.937 9.926-75.23 37.098-94.062 77.278-11.508 24.55-15.352 50.73-12.516 75.832m36.707-64.493c15.168-32.359 43.598-54.347 75.793-62.535.426 4.012.649 8.082.649 12.203 0 53.594-36.895 98.723-86.617 111.336-2.204-20.222.925-41.273 10.175-61.004m207.95 97.493c-26.875 57.34-95.383 82.12-152.72 55.242-28.91-13.555-49.538-37.703-59.445-65.664 61.66-15.293 107.372-71.004 107.372-137.403 0-5.32-.305-10.57-.875-15.742 16.902-.273 34.12 3.184 50.43 10.832 57.331 26.88 82.113 95.399 55.238 152.735M461.539 242.832l29.324 5.484-29.324 5.489-5.484 29.324-5.485-29.324-29.324-5.489 29.324-5.484 5.485-29.328Zm46.98-57.402-45.824-8.575 45.825-8.574 8.574-45.836 8.574 45.832 45.824 8.575-45.824 8.574-8.574 45.832ZM253.708 612.559l-29.32 5.484-5.489 29.328-5.484-29.328-29.324-5.484 29.324-5.489 5.484-29.324 5.485 29.324Zm45.219 52.472 45.828 8.574-45.828 8.575-8.57 45.832-8.575-45.832-45.824-8.575 45.824-8.574 8.574-45.836Zm0 0"/>
  </g>
  <g clip-path="url(#42d9b074d3)">
    <path fill="#d59f35" d="M548.957 389.668c8.074-2.969 15.031-8.988 18.973-17.39l-19.125-8.97-.086.137a1.22 1.22 0 0 1-1.676.364 1.2 1.2 0 0 1-.426-1.524l-18.629-8.734a1.2 1.2 0 0 1-1.449.648 1.214 1.214 0 0 1-.789-1.523l.047-.153-4.719-2.214-14.406-6.754c-3.938 8.406-4.117 17.605-1.23 25.71a140.6 140.6 0 0 0-44.684-4.859c-17.98-57.531-71.676-99.281-135.121-99.281-78.172 0-141.547 63.383-141.547 141.566 0 78.184 63.375 141.567 141.547 141.567q3.668-.001 7.289-.184c11.453 36.54 37.597 68.344 74.996 85.88 70.781 33.183 155.062 2.694 188.242-68.095 29.703-63.37 8.363-137.53-47.207-176.191M327.32 521.516c-.562.007-1.12.023-1.683.023-63.317 0-114.828-51.52-114.828-114.848s51.511-114.847 114.828-114.847c49.902 0 92.46 32.004 108.261 76.562-39.937 9.926-75.23 37.098-94.062 77.278-11.508 24.55-15.352 50.73-12.516 75.832m36.707-64.493c15.168-32.359 43.598-54.347 75.793-62.535.426 4.012.649 8.082.649 12.203 0 53.594-36.895 98.723-86.617 111.336-2.204-20.222.925-41.273 10.175-61.004m207.95 97.493c-26.875 57.34-95.383 82.12-152.72 55.242-28.91-13.555-49.538-37.703-59.445-65.664 61.66-15.293 107.372-71.004 107.372-137.403 0-5.32-.305-10.57-.875-15.742 16.902-.273 34.12 3.184 50.43 10.832 57.331 26.88 82.113 95.399 55.238 152.735m0 0"/>
  </g>
  <path fill="#dd855f" d="m613.23 344.621-1.09-.512-38.566-18.078L599.25 308l.457-.32c.547-.387.68-1.14.297-1.692a1.217 1.217 0 0 0-1.692-.293l-.566.399L572.2 324.03l-2.55-31.113-.06-.691a1.19 1.19 0 0 0-.839-1.055 1.205 1.205 0 0 0-1.34.031l-.57.399-25.543 17.937-2.555-31.11-.058-.695a1.205 1.205 0 0 0-1.305-1.109 1.213 1.213 0 0 0-1.11 1.309l.028.332 2.586 31.496-38.848-18.211-1.086-.512a1.21 1.21 0 0 0-1.613.586 1.21 1.21 0 0 0 .582 1.61l.746.35 39.844 18.68L525.8 352.52l-.051.156c-.2.637.152 1.32.793 1.52q.182.057.363.058a1.21 1.21 0 0 0 1.086-.703c.02-.051.055-.09.07-.145l12.66-40.101 28.676 13.441-22.722 35.387c-.031.047-.035.101-.059.148-.25.543-.09 1.196.426 1.524.203.132.43.195.652.195.399 0 .79-.195 1.024-.559l.086-.132 22.808-35.524 39.84 18.68.75.351a1.21 1.21 0 0 0 1.61-.582 1.21 1.21 0 0 0-.583-1.613m-70.562-33.082 24.656-17.312 2.465 30.027Zm0 0"/>
</svg>
