<svg width="24" height="24" viewBox="0 0 24 24" fill="none" xmlns="http://www.w3.org/2000/svg">
  <g clip-path="url(#clip0_830_27019)">
    <path fill-rule="evenodd" clip-rule="evenodd" d="M19.959 4.008a11.08 11.08 0 0 0-7.887-3.27C5.927.738.925 5.74.922 11.887c0 1.965.513 3.883 1.489 5.574L.829 23.238l5.91-1.55a11.14 11.14 0 0 0 5.329 1.357h.004c6.145 0 11.147-5.002 11.15-11.15a11.08 11.08 0 0 0-3.263-7.887m-7.887 17.154h-.004a9.26 9.26 0 0 1-4.716-1.292l-.339-.2-3.507.92.936-3.42-.22-.35a9.24 9.24 0 0 1-1.417-4.933c.002-5.109 4.16-9.266 9.27-9.266a9.2 9.2 0 0 1 6.552 2.718 9.2 9.2 0 0 1 2.712 6.556c-.002 5.11-4.16 9.267-9.267 9.267m5.083-6.94c-.278-.14-1.648-.814-1.904-.907-.255-.093-.44-.14-.626.14-.186.278-.72.906-.882 1.092s-.325.21-.604.07-1.176-.434-2.24-1.383c-.828-.739-1.387-1.651-1.55-1.93-.162-.279-.001-.415.122-.568.302-.375.604-.768.697-.953.093-.186.046-.349-.024-.488-.07-.14-.626-1.511-.858-2.069-.227-.543-.456-.47-.627-.478a11 11 0 0 0-.534-.01c-.186 0-.488.07-.743.349-.256.279-.975.953-.975 2.324s.998 2.696 1.137 2.882c.14.186 1.965 3 4.76 4.206.664.287 1.183.459 1.588.587.667.212 1.274.182 1.754.11.535-.08 1.648-.674 1.88-1.324.233-.651.233-1.209.163-1.325s-.255-.186-.534-.325" fill="#081F70"/>
  </g>
  <defs>
    <clipPath id="clip0_830_27019">
      <path fill="#fff" d="M0 0h24v24H0z"/>
    </clipPath>
  </defs>
</svg>
