<svg width="30" height="30" viewBox="0 0 30 30" fill="none" xmlns="http://www.w3.org/2000/svg">
  <g clip-path="url(#clip0_329_1517)">
    <path d="M.697 30a.638.638 0 0 1-.616-.807l1.95-7.122a14.9 14.9 0 0 1-1.853-7.2C.182 6.67 6.854 0 15.053 0a14.8 14.8 0 0 1 10.523 4.361 14.78 14.78 0 0 1 4.352 10.521c-.003 8.2-6.676 14.871-14.875 14.871h-.006c-2.395 0-4.77-.584-6.883-1.69L.859 29.98a.7.7 0 0 1-.162.02" fill="#E5E5E5"/>
    <path d="m.697 29.361 2.02-7.375a14.2 14.2 0 0 1-1.9-7.116C.82 7.023 7.205.639 15.052.639a14.15 14.15 0 0 1 10.07 4.174 14.15 14.15 0 0 1 4.167 10.07c-.003 7.847-6.39 14.233-14.237 14.233h-.006a14.2 14.2 0 0 1-6.803-1.733l-7.547 1.98Zm7.897-4.555.432.256a11.8 11.8 0 0 0 6.023 1.65h.004c6.522 0 11.83-5.308 11.833-11.831a11.76 11.76 0 0 0-3.462-8.37 11.76 11.76 0 0 0-8.366-3.469C8.53 3.042 3.223 8.35 3.22 14.872c0 2.235.625 4.411 1.81 6.295l.28.448-1.195 4.365z" fill="#fff"/>
    <path d="m1.192 28.865 1.95-7.12a13.7 13.7 0 0 1-1.835-6.87C1.31 7.3 7.475 1.135 15.051 1.135a13.66 13.66 0 0 1 9.722 4.03 13.66 13.66 0 0 1 4.022 9.721c-.004 7.576-6.17 13.74-13.744 13.74h-.006c-2.3 0-4.56-.578-6.567-1.672l-7.286 1.91Z" fill="#64B161"/>
    <path d="m.697 29.361 2.02-7.375a14.2 14.2 0 0 1-1.9-7.116C.82 7.023 7.205.639 15.052.639a14.15 14.15 0 0 1 10.07 4.174 14.15 14.15 0 0 1 4.167 10.07c-.003 7.847-6.39 14.233-14.237 14.233h-.006a14.2 14.2 0 0 1-6.803-1.733l-7.547 1.98Zm7.897-4.555.432.256a11.8 11.8 0 0 0 6.023 1.65h.004c6.522 0 11.83-5.308 11.833-11.831a11.76 11.76 0 0 0-3.462-8.37 11.76 11.76 0 0 0-8.366-3.469C8.53 3.042 3.223 8.35 3.22 14.872c0 2.235.625 4.411 1.81 6.295l.28.448-1.195 4.365z" fill="#fff"/>
    <path fill-rule="evenodd" clip-rule="evenodd" d="M11.495 8.92c-.266-.592-.547-.604-.8-.614-.208-.01-.445-.009-.682-.009s-.623.09-.949.446c-.326.355-1.245 1.216-1.245 2.966s1.275 3.442 1.453 3.68c.178.237 2.46 3.944 6.076 5.37 3.005 1.185 3.617.949 4.269.89.652-.06 2.104-.861 2.4-1.692.297-.83.297-1.542.209-1.691-.09-.148-.327-.237-.682-.415s-2.105-1.039-2.431-1.157c-.326-.12-.563-.178-.8.178s-.919 1.157-1.127 1.394c-.207.238-.415.268-.77.09s-1.502-.554-2.861-1.766c-1.057-.943-1.771-2.107-1.98-2.464-.207-.355-.002-.531.157-.726.288-.35.77-.979.89-1.216.118-.237.059-.445-.03-.623-.09-.178-.78-1.937-1.097-2.64Z" fill="#fff"/>
  </g>
  <defs>
    <clipPath id="clip0_329_1517">
      <path fill="#fff" d="M0 0h30v30H0z"/>
    </clipPath>
  </defs>
</svg>
