<svg width="16" height="16" viewBox="0 0 16 16" fill="none" xmlns="http://www.w3.org/2000/svg">
  <path d="M8 1.333C4.327 1.333 1.333 4.327 1.333 8S4.327 14.667 8 14.667 14.667 11.673 14.667 8 11.673 1.333 8 1.333m2.24 8.2a.503.503 0 0 1 0 .707.495.495 0 0 1-.707 0L8 8.707 6.467 10.24c-.1.1-.227.147-.354.147a.5.5 0 0 1-.353-.147.503.503 0 0 1 0-.707L7.293 8 5.76 6.467a.503.503 0 0 1 0-.707.503.503 0 0 1 .707 0L8 7.293 9.533 5.76a.503.503 0 0 1 .707 0 .503.503 0 0 1 0 .707L8.707 8z" fill="#fff"/>
</svg>
