<svg width="322" height="138" viewBox="0 0 322 138" fill="none" xmlns="http://www.w3.org/2000/svg">
  <path d="M75 273.259c78.083-40.858 152.418-96.3 221.45-169.056z" fill="#F7F7F8"/>
  <path d="M40.28 223.869a52 52 0 0 1 12.221-8.865c75.364-39.433 145.249-92.805 207.719-158.637 4.884-5.165 10.685-9.249 17.073-12.017a49.7 49.7 0 0 1 20.154-4.114c6.917.051 13.768 1.552 20.159 4.415s12.198 7.033 17.089 12.271 8.767 11.442 11.41 18.256a59.2 59.2 0 0 1 3.992 21.453 58.7 58.7 0 0 1-4.037 21.378c-2.658 6.764-6.548 12.894-11.449 18.041-70.476 74.269-149.554 134.604-235.04 179.332-11.33 5.926-24.324 7.293-36.595 3.85s-22.995-11.463-30.204-22.589c-7.21-11.127-10.419-24.612-9.04-37.98s7.256-25.721 16.55-34.792l-.001-.002Z" fill="#F6D05D"/>
</svg>
