<svg xmlns="http://www.w3.org/2000/svg" width="800" viewBox="0 0 600 600" height="800" version="1.0">
  <path fill="#fff" d="M-60-60h720v720H-60z"/>
  <path fill="#fff" d="M-60-60h720v720H-60z"/>
  <path fill="#0f0550" d="M238.594 476.066c-2.34 1.012-4.922 1.88-7.399 1.274-2.836-.695-5.683-6.281-5.922-9.047a618 618 0 0 1-2.066-65.328c.063-2.934.172-5.969 1.445-8.613 2.614-5.426 9.457-7.586 15.446-6.957 5.988.625 11.507 3.378 17.203 5.328 8.957 3.066 18.46 4.172 27.543 6.836 6.793 1.992 13.672 5.12 17.722 10.925 2.997 4.29 4.133 9.621 4.442 14.848.613 10.356-2.278 21.594-10.367 28.094-3.079 2.476-6.727 4.125-10.36 5.68-15.558 6.652-32.246 10.292-47.687 16.96m.219.508c7.753-3.351 15.98-5.984 23.94-8.531 7.868-2.52 16.005-5.121 23.743-8.434 3.746-1.601 7.367-3.246 10.492-5.757 7.328-5.887 11.282-16.567 10.57-28.555-.374-6.344-1.859-11.293-4.538-15.129-3.461-4.957-9.356-8.602-18.02-11.137-4.035-1.183-8.21-2.074-12.25-2.933-5.066-1.078-10.305-2.196-15.27-3.895-1.55-.531-3.117-1.133-4.636-1.719-4.063-1.562-8.27-3.18-12.688-3.64-5.922-.617-13.164 1.386-15.996 7.265-1.37 2.844-1.441 6.168-1.5 8.844a620 620 0 0 0 2.067 65.383c.238 2.793 3.078 8.738 6.335 9.535a7.6 7.6 0 0 0 1.84.215c2.063.004 4.11-.734 5.91-1.512m1.23-88.637c4.273.45 8.41 2.04 12.41 3.575 1.524.586 3.102 1.195 4.672 1.73 5.027 1.723 10.297 2.844 15.395 3.93 4.02.855 8.175 1.742 12.171 2.91 8.414 2.469 14.114 5.973 17.426 10.711 2.559 3.668 3.98 8.434 4.344 14.566.687 11.637-3.11 21.965-10.16 27.633-3.016 2.422-6.563 4.035-10.238 5.606-7.692 3.289-15.801 5.886-23.649 8.394-7.98 2.555-16.234 5.195-24.039 8.57-2.172.938-4.703 1.817-7.05 1.243-2.466-.602-5.27-5.856-5.5-8.559a618 618 0 0 1-2.067-65.27c.058-2.566.125-5.757 1.39-8.386 2.297-4.77 7.836-6.754 12.915-6.754q1.007.001 1.98.101m46.238 71.168h.012ZM69.703 401.687c5.672-2.28 11.602-4.75 15.43-9.515 4.64-5.777 5.265-13.813 4.535-21.184-.402-4.05-1.191-8.172-3.328-11.636-3.363-5.438-9.738-8.52-16.102-9.098-6.367-.578-12.742 1.062-18.703 3.367-4.265 1.649-8.77 4.02-10.43 8.285-1.02 2.617-.78 5.535-.53 8.336q.748 8.28 1.491 16.559c.266 2.953.543 5.965 1.696 8.703 1.504 3.574 2.476 11.95 6.941 13.195 4.402 1.23 14.82-5.328 19-7.012m-4.148 2.614c1.757-.895 3.27-1.668 4.355-2.102 5.184-2.086 11.633-4.68 15.653-9.683 4.011-4.993 5.574-12.254 4.652-21.582-.352-3.524-1.055-8.059-3.41-11.872-3.223-5.21-9.399-8.71-16.52-9.355-5.605-.504-11.625.574-18.95 3.402-4.054 1.567-8.937 3.957-10.741 8.598-1.09 2.793-.813 5.871-.567 8.586l1.489 16.559c.265 2.96.543 6.023 1.738 8.867.371.883.723 2.113 1.094 3.418 1.152 4.047 2.59 9.086 6.207 10.093.422.118.886.172 1.39.172 3.606 0 9.094-2.797 13.61-5.101m4.632-53.5c6.778.617 12.641 3.922 15.684 8.84 2.238 3.62 2.91 7.996 3.25 11.402.895 9.031-.59 16.023-4.418 20.785-3.836 4.777-9.875 7.207-15.203 9.348-1.129.457-2.664 1.238-4.445 2.144-4.715 2.407-11.168 5.7-14.203 4.852-3.028-.848-4.368-5.555-5.446-9.336-.383-1.336-.742-2.602-1.14-3.547-1.125-2.684-1.395-5.66-1.653-8.539l-1.492-16.559c-.23-2.593-.496-5.535.496-8.086 1.649-4.242 6.274-6.488 10.117-7.972 6.032-2.332 11.141-3.45 15.848-3.45q1.323 0 2.606.118m0 0"/>
  <path fill="#f2aca1" d="M529.063 494.879c-1.743 7.754-6.29 13.734-13.516 17.77-6.875 3.84-15.297 5.374-23.461 5.374-7.379 0-14.547-1.253-20.168-3.187-1.145-.39-3.188-1.27-5.508-2.559-3.52-1.953-9.473-5.855-9.777-10.02-.125-1.69.687-3.214 2.414-4.534 2.3-1.762 6.226-1.664 9.687-1.586 1.457.035 2.836.066 3.934-.043 4.602-.473 9.262-1.168 13.766-1.844l3.105-.465c11.852-1.777 24.102-3.61 36.293-2.707 1.156.086 2.559.336 3.148 1.512.364.726.254 1.531.082 2.289m-220.82-61.942c-2.622-5.519-5.333-11.234-9.595-15.39-5.804-5.664-16.097-4.434-24.367-3.442-1.226.149-2.406.29-3.511.403-4.172.418-9.012 1.14-13.27 3.336-3.055 1.578-5.953 3.969-8.852 7.312-10.226 11.79-15.343 29.145-15.207 51.578.125 20.504 4.305 36.2 12.778 47.98 8.222 11.43 20.754 13.684 32.886 15.016q2.428.265 4.762.266c12.473 0 22.895-5.633 29.051-15.871 8.098-13.473 8.352-25.945 8.644-40.387.329-16.242-3.203-31.648-10.214-44.547-1.078-1.976-2.063-4.054-3.106-6.253m-197 .891c-.571-1.644-1.161-3.344-1.618-5.262-1.879-7.84-4.437-15.605-6.914-23.12q-.811-2.45-1.61-4.903a88 88 0 0 1-1.058-3.621c-1.285-4.629-2.746-9.875-6.145-13.012-5.675-5.238-17.125-3.652-20.5-3.043-6.546 1.188-12.484 5.727-17.644 13.496-11.137 16.758-7.008 44.969.57 65.774 1.438 3.953 2.957 7.75 5.672 10.785 4.875 5.441 11.02 6.504 17.356 6.504 2.039 0 4.101-.11 6.144-.219 1.883-.102 3.832-.207 5.746-.219 1.285-.011 2.613-.023 3.867-.488.977-.36 1.825-.973 2.543-1.52 11.04-8.378 15.282-16.75 15.649-30.886.094-3.7-.781-6.563-1.848-9.656Zm0 0"/>
  <path fill="#5f95d7" d="M567.758 447.21c-.535 2.817-.696 6.802-.867 11.017-.442 11.066-.996 24.84-8.614 29.734-3.355 2.148-7.242 2.992-11.261 3.734-12.72 2.356-25.762 3.317-38.38 4.246-7.956.586-16.187 1.196-24.25 2.145-20.706 2.441-42.925 4.734-65.1 4.973l-82.126.875q-.739.006-1.473.007c-5.714 0-11.117-.457-15.203-3.726-2.398-1.922-4.03-4.633-5.5-7.246-8.234-14.676-13.074-30.992-17.75-46.774-.66-2.226-1.32-4.449-1.988-6.668a385 385 0 0 1-1.328-4.539c-3.91-13.535-7.95-27.531-23.266-32.133-10.71-3.218-18.812-4.988-27.957-6.109-1.273-.156-2.715-.332-3.918.184-1.453.625-2.359 2.195-2.988 3.492-3.14 6.484-3.875 13.976-4.207 21.105-.36 7.828.008 15.707.367 23.328.121 2.594.242 5.192.336 7.797 0 1.309.02 2.621.04 3.95.093 6.777.195 13.78-2.005 19.996-.156.441-.484.777-.945.972-2.383 1.008-8.687-1.761-15.492-4.937-1.86-.867-3.465-1.613-4.09-1.79-9.586-2.683-19.719-5.374-31.895-8.468-7.64-1.941-15.289-4.062-22.687-6.11-13.211-3.656-26.867-7.44-40.688-10.265-4.765-.977-8.945-2.035-11.851-5.152-2.223-2.383-3.234-5.59-4.129-8.426-2.668-8.453-5.7-16.121-8.914-24.238-2.016-5.098-4.102-10.368-6.063-15.805-.918-2.535-1.625-5.246-2.308-7.867-2.153-8.274-4.188-16.09-12.356-19.95-3.707-1.746-9.953-2.773-14.238-1.23-2.016.727-3.434 1.945-4.223 3.621-6.125 13.078-4.41 29-1.894 40.05l.316 1.38-1.164-.805c-3.937-2.723-8.402-5.812-11.023-10.312-2.79-4.79-3.149-10.633-3.266-15.735a212.4 212.4 0 0 1 4.89-50.449c.99-4.512 2.2-9.234 5.079-13.062 1.226-1.625 2.719-3.032 4.164-4.391a97 97 0 0 0 1.453-1.383c6.926-6.777 11.816-15.43 16.54-23.8 3.374-5.97 6.862-12.145 11.085-17.66 4.473-5.837 9.832-11.013 15.012-16.02 2.996-2.899 6.394-6.18 10.543-7.97 3.699-1.597 7.715-1.94 11.601-2.273 2.282-.195 4.586-.418 6.903-.64 6.047-.586 12.304-1.192 18.34-1.305 57.183-1.09 115.066.98 172.027 6.149 22.219 2.015 40.492 6.726 59.258 15.277 18.382 8.375 35.129 24.71 47.355 36.64a447 447 0 0 0 10.04 9.45c3.167-1.883 9.5-.504 12.335.258 4.43 1.191 7.875 3.996 9.215 7.503 1.215 3.168.434 7.442-2.387 9.66 3.063 2.743 6.211 5.262 9.492 6.942 4.883 2.5 11.149 3.813 17.204 5.078 3.82.8 7.43 1.555 10.73 2.59a403 403 0 0 1 53.613 21.113c6.63 3.176 13.98 7.145 17.305 14.059 1.57 3.262 1.57 6.39 1.574 9.418 0 1.86.004 3.785.371 5.734.395 2.11 1.676 3.64 3.028 5.266.78.933 1.586 1.902 2.23 3 2.41 4.11 3.535 9.234 4.055 12.805.305 2.082.45 4.187.59 6.222.199 2.848.402 5.785 1.039 8.582 1.496 6.559 1.039 11.7-.336 18.887m0 0"/>
  <path fill="#f9b054" d="M407.648 413.46c1.914 3.974 1.743 7.153-.46 8.5-.704.43-1.493.575-2.274.575-.914 0-1.816-.195-2.566-.355-9.508-2.055-19.356-2.95-28.88-3.817-3.687-.336-7.495-.683-11.238-1.093a201 201 0 0 0-4.46-.422c-10.094-.895-22.66-2-28.739-9.782-1.21-1.546-2.058-3.308-2.656-4.668l-.004-.003c-.289-.66-.566-1.332-.844-1.997-.199-.484-.601-1.285-1.062-2.207-2.047-4.082-5.477-10.918-3.602-13.75.621-.933 1.711-1.351 3.242-1.261l63.348 3.996c2.098.133 4.477.281 6.48 1.476 2.493 1.489 3.829 4.262 4.903 6.493Zm150.856-30.487c-.52-2.504-1.363-5.192-3.703-6.164-1.946-.809-4.031-.059-5.996.78-.703.298-1.688.622-2.828.997-3.317 1.09-7.442 2.445-8.68 4.55-2.422 4.153.078 13.805 1.906 20.856.563 2.168 1.047 4.043 1.274 5.324.07.426.183 1.067.652 1.504.426.403.984.5 1.504.5.16 0 .316-.011.465-.023 7.656-.649 14.449-6.559 16.152-14.047 1.063-4.684.215-9.621-.746-14.277M42.543 316.977c-4.066.53-9.348 14.605-9.39 14.746-2.231 7.129-2.778 14.71-1.583 21.925.383 2.32 1.637 3.004 2.352 3.207q.389.105.8.106c1.262 0 2.676-.734 3.786-2.02 1.613-1.867 2.793-4.625 3.61-8.433.652-3.043.812-6.188.964-9.227.043-.824.086-1.644.137-2.469.078-1.304.504-3.078.953-4.96 1.008-4.204 2.148-8.97.39-11.762-.66-1.05-1.457-1.184-2.019-1.113m0 0"/>
  <path fill="#f2aca1" d="M534.125 435.527c-4.082 2.328-10.676 2.426-16.496 2.516-2.406.035-4.68.07-6.547.262-7.71.785-15.684 1.597-23.719 1.965-15.097.695-30.394 1.02-45.187 1.332a57 57 0 0 0-2.274.125c-1.382.093-2.914.195-4.363.195-1.84 0-3.555-.164-4.676-.723a2.6 2.6 0 0 1-1.343-1.722c-.133-.586-.016-1.149.324-1.582.328-.415.793-.633 1.203-.81 4.812-2.054 10.762-2.241 16.515-2.42 2.278-.075 4.426-.142 6.442-.325 9.266-.836 18.71-.88 27.848-.922 11.511-.055 23.418-.11 35.02-1.762a239 239 0 0 0 4.026-.617c3.32-.527 6.75-1.078 10.176-1.258 2.528-.136 4.2.602 4.711 2.067.516 1.48-.472 3-1.66 3.68m-74.473-56.777a29 29 0 0 0 12.023-.035c.743-.164 2.997-.652 3.009-2.125.011-1.547-2.594-2.73-4.239-3.113-4.03-.946-8.75.566-10.59 1.257-.73.274-1.69.899-1.996 1.766-.156.445-.113.89.125 1.29.41.69 1.262.87 1.668.96m0 0"/>
  <path fill="#f4e6d5" d="M440.898 328.2c-1.132 2.398-9.128 3.23-25.93 2.706-.886-.027-1.495-.047-1.816-.047-6.195.016-12.492.18-18.582.34q-3.11.084-6.215.16c-16.062.375-33.515 1.036-53.343 2.008-7.192.356-14.5.903-21.57 1.434-4.325.324-8.649.648-12.973.933-1.239.082-3.446.352-6.239.7-8.785 1.082-17.918 2.086-25.097 2.086-7.028 0-12.192-.961-13.336-3.739a381 381 0 0 0-16.02-34.02q-1.64-3.076-3.27-6.163c-2.175-4.106-4.35-8.215-6.566-12.297-1.945-3.586-3.738-7.621-2.27-10.332.923-1.707 2.934-2.664 6.15-2.926 13.765-1.125 28.706-1.852 45.679-2.227 14.664-.324 30.344-.546 45.668 0 8.61.309 16.437.817 23.934 1.559 1.105.105 2.566.215 4.25.34 8.293.617 22.171 1.644 26.73 5.281a603 603 0 0 1 33.848 29.121c1.297 1.203 2.574 2.445 3.86 3.692 3.48 3.382 7.081 6.878 11.081 9.586l.992.668c4.453 3.003 6.489 4.375 10.508 8.957.836.957.746 1.714.527 2.18m-164.46 117.284c-5.372-6.539-12.293-10.007-18.504-9.27-5.055.602-9.172 3.891-11.903 9.524-6.91 14.242-7.824 32.516-2.582 51.457 3.758 13.57 8.672 21.297 15.024 23.625q1.94.71 4.039.711c3.242 0 6.75-1.277 10.472-3.82 10.836-7.395 11.848-20.703 12.743-32.445l.125-1.66c.52-6.653.27-12.86-.75-18.446-1.418-7.785-4.336-14.406-8.664-19.676M67.883 398.086c-5.5-.98-7.324 2.875-9.086 6.598-.223.472-.45.949-.684 1.421-6.25 12.575-4.68 25.278-2.32 36.043l.11.497c1.378 6.308 3.94 18.046 10.304 20.976a7.2 7.2 0 0 0 3.035.668c1.496 0 3.078-.441 4.735-1.332 1.515-.809 2.554-2.203 3.453-3.586 1.761-2.71 3.254-5.726 4.437-8.969 4.848-13.285 4.11-28.699-1.933-40.23-3.813-7.277-7.868-11.344-12.051-12.086m0 0"/>
  <path fill="#5f95d7" d="m281.93 482.766-.106 1.37c-.734 9.688-1.57 20.673-10.531 26.786-3.082 2.101-5.988 3.16-8.68 3.16q-1.74-.001-3.36-.594c-5.257-1.926-9.32-8.308-12.425-19.511-4.324-15.618-3.566-30.688 2.133-42.438 2.262-4.664 5.676-7.394 9.871-7.89 5.148-.618 10.879 2.253 15.324 7.663 3.574 4.352 5.98 9.82 7.153 16.247.84 4.609 1.05 9.726.62 15.207M68.133 403.238c-4.695-.84-6.242 2.438-7.738 5.602-.188.394-.375.797-.575 1.195-5.27 10.606-3.945 21.309-1.957 30.383l.09.418c1.164 5.32 3.324 15.223 8.719 17.71q1.236.57 2.59.571c1.273 0 2.617-.379 4.023-1.133 1.293-.687 2.176-1.87 2.938-3.046 1.484-2.286 2.742-4.829 3.742-7.563 4.09-11.2 3.465-24.195-1.63-33.918-3.222-6.152-6.655-9.59-10.202-10.219m0 0"/>
  <path fill="#f4e6d5" d="m283.402 480.559-.062.289-.274.105c-1.457.578-2.98.012-4.324-.484a20 20 0 0 0-.625-.227c-1.379-.484-3.035-.512-3.629.512-.265.457-.273 1.078-.246 1.68.168 3.554 1.317 7.02 2.426 10.37.36 1.083.812 2.169 1.297 3.317 1.492 3.563 3.035 7.25 1.558 10.793-1.496 3.586-5.753 6.473-9.175 8.79q-.68.46-1.29.882l-.757.527-2.055-18.758c-.207-1.91-.605-3.949-1.91-4.925a158.5 158.5 0 0 0-9.34 19.937l-.23.602-.559-.324c-3.723-2.16-6.277-6.31-6.832-11.102s.977-9.418 4.102-12.375c.777-.734 1.632-1.383 2.46-2.008.985-.746 1.91-1.445 2.731-2.289 1.336-1.371 2.539-3.555 1.91-5.562-.648-2.075-2.973-3.235-5.101-4.164l-8.442-3.68c-.906-.395-2.273-.988-2.86-2.227-.46-.968-.323-2.043-.144-3.062a89 89 0 0 1 2.551-10.61c.2-.644.566-1.84 1.598-2.3 1.808-.817 3.375 1.222 4.043 2.093a17.15 17.15 0 0 0 10.43 6.375c-.204-1.148-.633-2.855-1.118-4.777-2.02-8.016-3.515-14.82-1.387-16.883 1.27-1.226 2.817-1.527 4.47-.875 4.066 1.606 7.85 8.617 7.987 11.383.102 2.063-.117 4.145-.332 6.156-.3 2.844-.586 5.532-.046 8.2.125.636.308 1.078.558 1.34l9.352-8.872.758.797a.34.34 0 0 0 .09-.133c-.176.692 1.07 4.93 1.542 6.524.2.68.348 1.187.391 1.383 1.14 5.086 1.55 8.761.484 13.582M83.461 429.957c.219 1.145.379 2.344-.285 3.332-.52.774-1.375 1.133-2.13 1.45l-.366.156c-1.926.84-3.7 2.789-3.192 4.742.192.746.688 1.39 1.211 2.074.29.375.578.754.824 1.152 1.442 2.34 1.457 5.668.043 8.692-1.254 2.675-3.3 4.8-5.28 6.851l-.712.739-3.152-14.29a80 80 0 0 0-6.027 13.29l-.325.93-.62-.762c-3.282-4.02-5.372-9.083-5.884-14.247-.054-.55-.09-1.136.121-1.71.313-.836 1.067-1.368 1.618-1.75l5.843-4.094c1.313-.922 2.532-1.95 2.563-3.242.023-1.016-.703-2.043-2.219-3.145a27.9 27.9 0 0 0-7.46-3.86c-.747-.25-1.669-.562-2.141-1.374-.344-.59-.344-1.254-.317-1.883.172-3.797.828-7.57 1.957-11.203l.23-.743 8.989 6.715c-1.637-4.242-2.836-12.308-1.703-14.164 1.973-3.226 3.91-3.476 5.187-3.113 2.825.793 4.72 5.246 4.72 8.91 0 1.41.19 7.54.507 8.75.328 1.258 1.957 1.074 2.45.988 1.003-.175 2.093-.683 2.28-.976.313-.477.852-.817 1.375-.863.395-.036.746.097 1 .37.278.294.352.676.399.93.387 2.008.32 3.934.258 5.793-.063 1.887-.121 3.664.238 5.555m131.746-127.703c-4.035-8.996-9.324-19.328-17.973-27.754-6.214-6.055-15.035-7.934-23.535-9.34-6.734-1.117-13.644-1.062-20.332-1.012-5.547.043-11.285-.058-16.836-.156-15.207-.27-30.93-.547-45.789 1.996-7.84 1.344-7.683 14.594-7.61 20.961l.016 1.219c.004.902-.011 1.902-.027 2.969-.121 8.68-.305 21.797 8.711 24.883 2.36.808 5.113 1.136 7.777 1.453 2.059.246 4.188.5 6.067.972 12.613 3.172 25.656 5.38 38.27 7.512 11.8 1.996 24.003 4.059 35.8 6.906 13.527 3.262 26.79 6.223 40.344 6.547q.205.007.41.008c.941 0 1.95-.106 2.719-.742.992-.82 1.191-2.13 1.254-3.422.566-11.18-4.008-21.332-8.434-31.152Zm0 0"/>
  <path fill="#5f95d7" d="M269.953 477.45c-.332 2.308-1.8 4.886-4.238 5.085q-.124.007-.242.008c-1.774 0-3.215-1.563-3.618-3.16-.574-2.297-.253-5.567 1.48-7.102.731-.644 2.032-1.25 4.075-.465 1.93.743 2.93 2.954 2.543 5.633M73.27 423.792l-.395.129c-1.387.453-2.36 1.57-2.668 3.062-.394 1.903.324 4.047 1.79 5.34.16.14.593.528 1.148.528q.123-.001.257-.032c.52-.113.817-.535 1-.843 1.504-2.57.52-5.735-.898-7.84Zm0 0"/>
  <path fill="#0f0550" d="M557.434 477.68c-.032 3.902-2.13 4.453-4.778 5.156q-.674.174-1.43.394c-15.195 4.52-31.425 5.31-47.124 6.07-2.133.106-4.266.208-6.391.321-13.848.734-27.938 1.2-41.566 1.649-4.586.152-9.176.304-13.762.464-.602.024-2.235.051-4.578.086-32.551.535-49.73 1.453-51.063 2.73a.3.3 0 0 0 .067-.171l-1.098-.086c.367-5.031 3.75-8.434 7.023-11.719q.67-.673 1.332-1.351c1.075-1.11 2.266-2.262 3.672-3.184 3.38-2.223 7.172-2.7 10.766-2.883.898-.043 1.8-.07 2.703-.097 1.715-.055 3.492-.11 5.172-.297 7.027-.797 14.586-1.575 22.27-1.86l102.613-3.8c3.605-.133 8.097-.301 11.734 1.77 2.168 1.237 4.465 4.042 4.438 6.808M221.559 314.477c-.696-.028-1.235.433-1.496.66-2.586 2.234-4.473 5.058-6.297 7.793-2.34 3.5-4.547 6.804-8.11 9.03-2.746 1.716-4.988 4.704-3.804 7.513.636 1.523 2.097 2.433 3.445 3.125a32.9 32.9 0 0 0 14.98 3.613q.316.001.637-.004c.922-.02 1.871-.121 2.578-.738.528-.465.793-1.121.985-1.602 2.226-5.57 3.285-10.18 3.324-14.504.054-5.527-1.653-10.508-4.805-14.031-.363-.406-.816-.824-1.437-.855m0 0"/>
  <path fill="#5f95d7" d="M214.473 337.79c-1.09.526-2.301.651-3.446.651-.586 0-1.156-.03-1.68-.062-4.702-.277-9.413-.828-13.972-1.363-2.531-.293-5.066-.59-7.613-.844a41 41 0 0 0-2.215-.133c-3.215-.14-6.863-.297-8.953-3.062-2.168-2.88-2.172-12.016-.871-15.16 2.382-5.755 9.765-7.133 15.113-7.672.762-.079 1.668-.188 2.672-.305 4.984-.598 11.816-1.41 15.18-.23 7.113 2.503 8.824 12.144 9.175 15.038.223 1.817 1.098 10.985-3.39 13.141m0 0"/>
  <path fill="#0f0550" d="M438.25 388.453c10.082.277 20.512.567 30.742-.125l6.38-.422c19.226-1.261 37.39-2.457 56.315-6.11a.555.555 0 0 1 .645.438.544.544 0 0 1-.437.641c-18.993 3.668-37.188 4.863-56.454 6.129l-6.375.422c-4.734.32-9.503.43-14.257.43-5.579 0-11.133-.153-16.59-.301l-2.106-.059c-4.242-.117-8.62-.039-12.851.035-6.688.114-13.602.235-20.254-.39a.55.55 0 0 1-.496-.598.57.57 0 0 1 .601-.496c6.586.617 13.473.5 20.13.383 4.245-.075 8.632-.149 12.902-.035Zm127.781 73.79-.316-.442c-1.09-1.516-2.414-3.367-3.887-5.094a.53.53 0 0 0 .176-.285c1.34-6.145-3.934-11.754-9.586-13.422-5.461-1.613-11.211-.59-16.777.398l-.63.114c-20.257 3.593-42.363 5.508-69.566 6.023-12.539.238-24.757.156-35.058.043-1.528-.015-3.067-.05-4.614-.086-8.695-.191-17.695-.39-26.058 2.438-5.66 1.918-10.25 5.914-14.692 9.777-3.894 3.395-7.925 6.902-12.636 8.953-5.45 2.367-11.492 2.711-17.332 3.047l-44.637 2.555a.55.55 0 0 0-.516.578c.016.297.258.52.547.52h.031l44.633-2.555c5.664-.325 12.082-.692 17.711-3.137 4.867-2.117 8.961-5.684 12.922-9.133 4.36-3.793 8.863-7.719 14.32-9.562 8.18-2.77 17.079-2.57 25.684-2.38 1.55.032 3.094.067 4.625.087 10.309.113 22.54.195 35.09-.043 27.262-.52 49.422-2.438 69.738-6.043l.633-.114c5.437-.964 11.062-1.968 16.273-.425 5.063 1.496 9.715 6.504 8.883 11.707-1.719-1.887-3.594-3.508-5.496-4.203-3.094-1.133-7.91-.598-12.164-.122-1.781.2-3.465.387-4.82.422-17.7.496-35.66 1.52-53.028 2.508-14.867.848-30.238 1.719-45.382 2.262-13.676.488-33.747 2.297-50.09 12.348-1.399.859-2.778 1.785-4.117 2.683-2.73 1.832-5.555 3.73-8.586 5.082-6.61 2.953-14.297 3.336-21.082 3.676l-40.258 2.016a.55.55 0 0 0-.52.578.547.547 0 0 0 .547.523c.008 0 .02 0 .027-.004l40.258-2.015c6.88-.344 14.68-.735 21.477-3.77 3.113-1.39 5.98-3.312 8.75-5.172 1.328-.894 2.699-1.812 4.078-2.66 16.125-9.914 36.004-11.703 49.555-12.187 15.152-.54 30.53-1.414 45.402-2.262 17.36-.988 35.312-2.008 52.996-2.504 1.402-.04 3.106-.23 4.914-.43 4.129-.46 8.813-.984 11.66.063 3.582 1.308 7.414 6.656 9.703 9.851l.317.438a.552.552 0 0 0 .898-.64m-238.82-85.227a.55.55 0 0 0 .281-1.023c-24.238-14.52-52.222-20.06-79.289-25.411a.553.553 0 0 0-.648.434.553.553 0 0 0 .433.644c26.973 5.336 54.867 10.856 78.942 25.277a.55.55 0 0 0 .28.079m-179.168-59.621a.55.55 0 0 0 .648-.43 523 523 0 0 1 10.829-43.63.551.551 0 0 0-1.055-.312 521 521 0 0 0-10.852 43.723.55.55 0 0 0 .43.649m-50.297-9.317q.051.012.11.012c.253 0 .484-.18.539-.442a123.7 123.7 0 0 1 14.093-37.406.55.55 0 0 0-.953-.547 125 125 0 0 0-14.222 37.739.55.55 0 0 0 .433.644m114.512-41.844c6.074 6.582 10.55 14.707 14.27 21.805a461 461 0 0 1 22.148 49.07c.308.809.664 1.73 1.394 2.399a3.06 3.06 0 0 0 2.094.82 3.7 3.7 0 0 0 1.172-.2c1.898-.64 3.621-2.698 4.004-4.788.746-4.059-.895-8.027-2.785-12.074a925 925 0 0 0-21.508-43.004c-4.356-8.168-8.754-16.055-14.652-22.797-4.383-5.016-8.696-8.106-13.176-9.45-3.422-1.027-9.746-1.683-13.153.715-1.418 1-2.187 2.418-2.28 4.211l-.024.496.492.075c9.89 1.523 17.426 7.758 22.004 12.722m126.715-11.476c11.738 3.398 22.832 6.601 32.011 14.12l64.477 60.204.035.031c.582.457 1.277.528 1.895.594.273.027.546.055.804.121 1.254.309 2.297.438 3.23.438 1.067 0 1.993-.168 2.93-.418a3.006 3.006 0 0 0 1.618-4.743 38 38 0 0 0-3.7-4.078l-13.511-12.547c-18.598-17.265-31.157-28.082-49.778-42.851-7.535-5.98-17.859-14.172-29.117-15.992-3.523-.57-7.137-.766-10.633-.953-2.164-.118-4.402-.239-6.59-.45-2.226-.21-5.59-.53-7.503 1.59l-.579.645 8.618 2.594c1.93.582 3.863 1.14 5.793 1.695M228.035 456.074c-.32-1.867-.426-2.12-2.144-2.527-.598-.14-1.41-.332-2.594-.727-3.606-1.21-7.246-2.527-10.766-3.797-7.414-2.683-15.078-5.453-22.89-7.382-5.758-1.426-11.594-2.934-17.243-4.391-8.32-2.152-16.925-4.379-25.43-6.371-15.683-3.672-28.577-5.953-40.573-7.172-1.07-.113-2.07-.262-3.036-.402-2.968-.446-5.77-.86-9.164.152l-.507.152.132.512c1.25 4.906 4.649 14.422 9.43 18.942 5.191 4.902 12.906 5.519 19.715 6.07l1.41.113c3.316.277 6.598 1.16 9.773 2.012 4.672 1.25 9.387 2.648 13.95 4 9.851 2.914 20.039 5.93 30.34 7.676 8.742 1.476 16.828 4.164 25.386 7.007l.344.114c3.031 1.007 5.457 2.062 7.805 3.082 3.855 1.675 7.496 3.258 12.918 4.16.203.035.504.082.836.082.457 0 .972-.094 1.382-.453.563-.488.664-1.238.73-1.735.856-6.207 1.516-12.582.56-17.144a48 48 0 0 1-.364-1.973m-38.613-118.68c5.527.922 11.297 1.391 17.723 1.868h.042a.549.549 0 0 0 .04-1.098c-6.399-.477-12.141-.941-17.625-1.855-6.555-1.094-11.297-2.649-12.688-4.157a.55.55 0 1 0-.812.743c2.156 2.343 9.27 3.824 13.32 4.5m0 0"/>
  <path fill="#f4e6d5" d="M511.215 498.281c.246.176.3.52.12.766-5.007 6.918-12.21 12.262-20.28 15.055a.6.6 0 0 1-.18.027.55.55 0 0 1-.52-.371.554.554 0 0 1 .34-.7c7.86-2.714 14.871-7.921 19.75-14.656a.554.554 0 0 1 .77-.12m-40.45-149.441c2.907 1.351 5.915 2.75 8.708 4.375 6.824 3.984 12.675 9.508 18.336 14.848a.55.55 0 0 0 .777-.02.554.554 0 0 0-.024-.781c-5.703-5.383-11.605-10.953-18.535-14.996-2.836-1.657-5.867-3.063-8.797-4.426-4.668-2.168-9.492-4.41-13.523-7.664a.547.547 0 0 0-.773.082.55.55 0 0 0 .082.773c4.136 3.34 9.023 5.61 13.75 7.809m-80.16 24.703a315 315 0 0 1-52.203-23.672.547.547 0 0 0-.75.207.55.55 0 0 0 .207.75 316 316 0 0 0 52.387 23.758.553.553 0 0 0 .36-1.043m-7.246 72.348c1.18 3.59-2.222 8.27-4.96 12.03a92 92 0 0 0-1.364 1.907c-.945 1.379-1.984 2.817-3.324 3.957-2.7 2.297-6.113 3.063-9.793 3.063-2.637 0-5.406-.391-8.152-.895-1.707-.312-4.043-.738-5.579-2.305-.906-.925-1.421-2.128-1.875-3.191l-4.707-10.992c-.59-1.383-1.261-2.945-1.378-4.598-.133-1.906.574-3.676 1.847-4.62 1.04-.77 2.34-.97 3.578-1.106 10.414-1.149 21.203-.094 31.2 3.058 2.437.77 3.953 2.012 4.507 3.692m-1.046.343c-.442-1.343-1.684-2.32-3.793-2.988-7.262-2.289-14.954-3.457-22.61-3.457-2.723 0-5.445.149-8.137.445-1.136.125-2.222.29-3.043.895-1.168.863-1.492 2.457-1.406 3.66.102 1.465.707 2.875 1.293 4.242l4.707 10.992c.434 1.02.887 2.079 1.649 2.852 1.195 1.219 2.964 1.625 4.988 1.996 6.32 1.156 12.754 1.719 17.035-1.922 1.238-1.054 2.227-2.43 3.133-3.746.41-.598.883-1.242 1.379-1.93 2.453-3.367 5.812-7.984 4.805-11.039m182.976 2.293c-.437 1.29-1.047 1.938-1.816 1.938q-.128 0-.262-.024l-.3-.054-.114-.285c-1.7-4.286-3.531-10.762-2.633-17.293.281-2.028.93-3.965 1.926-5.766.25-.445.656-.703 1.117-.703h.004c.555 0 1.101.37 1.426.96 2.351 4.31 2.687 15.22.652 21.227m-1.613-20.695c-.14-.254-.344-.39-.465-.39h-.004c-.02 0-.078 0-.156.136a15.4 15.4 0 0 0-1.797 5.379c-.84 6.086.8 12.16 2.398 16.316.2-.16.407-.539.594-1.097 1.922-5.676 1.621-16.324-.57-20.344m-136.153-.687c-2.5-.204-4.984-1.707-6.812-4.125-1.598-2.114-2.535-4.563-3.426-7.098a57 57 0 0 0-.75-1.918c-1.918-4.777-5.91-14.719-3.484-18.871.629-1.082 1.629-1.719 2.976-1.899 4.094-.543 8.243-.668 10.786 2.121 1.777 1.95 2.082 4.684 2.359 7.098a259 259 0 0 0 2.933 19.379c.168.887.36 1.895.028 2.871-.59 1.727-2.48 2.461-4.156 2.461q-.23.002-.454-.02m.09-1.094c1.395.113 3.047-.434 3.477-1.703.238-.703.082-1.52-.067-2.309a263 263 0 0 1-2.949-19.465c-.254-2.246-.539-4.793-2.078-6.48-1.445-1.59-3.601-2.07-5.988-2.07-1.238 0-2.54.128-3.836.3-1.008.133-1.719.578-2.176 1.36-2.152 3.691 1.852 13.652 3.559 17.906.336.844.605 1.515.765 1.965.864 2.449 1.762 4.812 3.266 6.8 1.64 2.168 3.84 3.516 6.027 3.696m8.98-16.86c-.847-3.117-3.097-11.394-.187-15.007 1.02-1.266 2.547-1.856 4.547-1.758l3.129.16c.527.027 1.125.055 1.688.312.863.391 1.382 1.188 1.8 1.829 3.09 4.726 3.942 9.683 4.84 14.93.387 2.261.785 4.593 1.38 6.921 1.218 4.774.6 8.11-1.79 9.649-.965.625-2.078.832-2.941.941-.528.066-1.024.102-1.497.102-7.3 0-8.812-7.641-10.039-13.856-.3-1.516-.582-2.95-.93-4.223m1.06-.289c.359 1.313.644 2.766.949 4.301 1.347 6.805 2.746 13.836 10.316 12.875 1.113-.14 1.879-.379 2.488-.773 2.469-1.594 2.078-5.477 1.32-8.453-.605-2.372-1.011-4.727-1.402-7.008-.879-5.133-1.707-9.98-4.672-14.516-.433-.664-.808-1.187-1.336-1.43-.375-.168-.84-.191-1.293-.214l-3.125-.16a7 7 0 0 0-.386-.012c-1.45 0-2.516.449-3.25 1.36-2.559 3.179-.414 11.062.39 14.03m31.062 16.461-4.926-.011c-.594 0-1.406 0-2.059-.465-.695-.492-.953-1.293-1.16-2.07-2.27-8.567-3.148-15.665-3.765-23.692-.309-3.977 2.406-5.816 4.828-6.187 3.18-.485 7.086 1.304 8.058 5.566 1.887 8.242 2.622 16.246 2.18 23.793-.039.64-.11 1.832-.953 2.52-.64.515-1.484.542-2.086.542-.043.004-.078.004-.117.004m-4.922-1.11 4.926.009c.62-.008 1.16-.02 1.508-.301.433-.348.511-1.074.546-1.727.434-7.441-.293-15.343-2.152-23.48-.738-3.238-3.46-4.793-5.953-4.793-.293 0-.586.023-.867.066-2.047.313-4.149 1.793-3.903 5.016.618 7.965 1.489 15.008 3.735 23.496.16.606.34 1.172.73 1.45.344.241.852.261 1.43.265m26.617-13.073c.024 2.449.05 4.761.285 6.937.082.742.172 1.586.012 2.418-.227 1.172-.906 2.164-1.973 2.863a5.9 5.9 0 0 1-4.43.809c-3.35-.738-3.788-2.84-4.292-5.27-.078-.37-.157-.757-.254-1.16a158 158 0 0 1-1.293-6.14c-.914-4.75-1.625-9.453-2.258-13.824-.23-1.57.297-3.016 1.484-4.067 1.563-1.394 4.149-1.965 6.278-1.394 2.976.793 4.332 3.996 5.265 7.023 1.09 3.535 1.133 7.742 1.176 11.805m-.808 7.054c-.243-2.226-.266-4.671-.293-7.039-.043-3.988-.086-8.11-1.125-11.492-.848-2.742-2.043-5.629-4.5-6.289a5.6 5.6 0 0 0-1.43-.18c-1.414 0-2.883.485-3.836 1.336-.633.567-1.348 1.559-1.125 3.086.633 4.364 1.344 9.047 2.25 13.778.406 2.113.84 4.164 1.289 6.097.094.41.176.805.254 1.184.5 2.39.797 3.832 3.457 4.422a4.85 4.85 0 0 0 3.59-.657c.562-.37 1.281-1.046 1.496-2.152.129-.672.05-1.394-.027-2.094m6.777-25.37c1.75-.52 4.148-1.235 6.305-.462 6.082 2.168 6.164 13.582 5.699 21.977-.086 1.539-.348 6.219-3.684 7.289a4 4 0 0 1-1.187.184c-1.79 0-3.485-1.196-4.403-2.625-1.136-1.774-1.425-3.91-1.68-5.793v-.004c-.175-1.305-.488-2.88-.816-4.543-1.031-5.211-2.312-11.696-.582-15.715l.102-.238Zm.566.98c-1.445 3.734-.23 9.875.746 14.832.332 1.68.649 3.27.829 4.61.238 1.769.511 3.78 1.515 5.347.875 1.355 2.684 2.523 4.332 1.988 1.758-.566 2.715-2.625 2.918-6.3.258-4.637 1.043-18.739-4.969-20.887-1.613-.57-3.39-.168-5.37.41m14.809 11.035c-.649-2.973-1.317-6.047-.774-8.922.43-2.277 2.262-4.215 4.563-4.828 2.164-.574 4.3.144 5.867 1.976.758.895.988 2.032 1.176 3.211a116.3 116.3 0 0 1 1.394 20.204c-.015.949-.074 1.859-.597 2.636-.414.61-1.113 1.078-1.969 1.313q-.657.18-1.309.18c-2.343 0-4.53-1.653-5.66-3.57-1.37-2.337-1.633-5.114-1.867-7.567-.137-1.477-.473-3.008-.824-4.633m1.07-.234c.348 1.582.703 3.222.852 4.765.219 2.336.469 4.985 1.719 7.11 1.125 1.914 3.453 3.52 5.722 2.89.606-.168 1.086-.476 1.352-.87.355-.528.398-1.235.41-2.04a115 115 0 0 0-1.383-20.012c-.16-1.02-.351-1.992-.926-2.668-1.21-1.418-2.53-1.785-3.566-1.785-.461 0-.867.074-1.18.156-1.87.497-3.418 2.13-3.765 3.97-.5 2.655.144 5.62.765 8.484m24.145 5.94c.133.731.281 1.56.156 2.395-.297 2.02-1.426 3.504-3.012 3.973a3.7 3.7 0 0 1-1.047.152c-1.086 0-2.144-.484-2.921-1.367-.23-.261-.434-.597-.625-1.02-.692-1.519-1.04-3.866-1.317-5.753-.113-.742-.207-1.406-.312-1.895l-.215-.996c-1.04-4.742-2.977-13.578 2.008-16.054 1.136-.56 2.757-.446 3.507.718.29.45.383.953.461 1.395Zm-1.082.196-3.32-18.453c-.063-.355-.133-.726-.301-.996-.243-.371-.7-.535-1.176-.535-.317 0-.64.074-.918.21-4.215 2.095-2.328 10.7-1.422 14.833l.215 1.004c.105.508.207 1.191.324 1.96.266 1.817.602 4.083 1.227 5.458v.004c.144.316.297.57.453.746.738.843 1.824 1.183 2.832.886 1.18-.347 1.996-1.472 2.234-3.078.098-.656-.027-1.36-.148-2.039m-213.364-6.273-16.808-1.758c-1.707-.18-3.477-.363-5.235-.297a18.66 18.66 0 0 0-8.992 2.727.547.547 0 0 0-.18.754.54.54 0 0 0 .755.183 17.6 17.6 0 0 1 8.46-2.562c1.68-.063 3.407.113 5.086.289l16.801 1.758a.55.55 0 0 0 .113-1.094m137.586 68.078a.554.554 0 0 0-.445.637c.414 2.312.598 4.675.555 7.03-.043 2.388-1.793 4.45-4.153 4.911-2.609.508-5.136.527-7.812.55l-14.2.122c-1.757.02-3.75.035-5.374-.809-3.243-1.691-3.97-6.054-4.25-10.101a.55.55 0 1 0-1.098.074c.305 4.352 1.113 9.063 4.84 11 1.621.848 3.52.941 5.164.941l.726-.003 14.2-.125c2.726-.02 5.304-.043 8.011-.57 2.868-.56 4.989-3.071 5.043-5.973a37 37 0 0 0-.57-7.239.545.545 0 0 0-.637-.445m36.965 11.09c.508-.758.067-9.961-.77-12a.55.55 0 0 0-.718-.297.547.547 0 0 0-.297.719c.852 2.074.992 10.062.828 11.023-.187.258-.433.434-.672.484-7.203 1.477-12.168 1.575-17.843 1.25a63 63 0 0 0-1.594-.062c-1.617-.05-4.063-.129-4.485-.691-1.77-2.344-1.96-5.77-2.132-8.79a55 55 0 0 0-.168-2.347.55.55 0 0 0-.602-.492c-.3.03-.523.3-.488.601.07.719.113 1.496.16 2.301.18 3.176.383 6.777 2.352 9.39.742.985 2.972 1.051 5.332 1.126.535.02 1.07.035 1.566.062 1.664.098 3.27.156 4.89.156 3.977 0 8.032-.359 13.231-1.425.54-.114 1.055-.48 1.41-1.008m31.426-13.45a.55.55 0 0 0-.215.75 13.47 13.47 0 0 1 1.63 7.723c-.102 1.094-.392 1.781-.895 2.106-.286.187-.676.27-1.051.347-2.824.59-5.364.922-8.305 1.309l-1.008.129c-2.965.394-10.988.32-11.644-.57-1.375-2.758-1.637-8.668-1.684-10.41a.55.55 0 0 0-.55-.536h-.016a.547.547 0 0 0-.535.563c.062 2.312.363 7.996 1.804 10.875.563 1.125 4.043 1.394 7.23 1.394 2.864 0 5.485-.219 5.54-.222l1.008-.133c2.96-.387 5.52-.719 8.382-1.32.454-.098.97-.208 1.426-.504.805-.52 1.258-1.477 1.395-2.926.265-2.871-.36-5.84-1.766-8.36a.55.55 0 0 0-.746-.214m-263.465-46.68a.55.55 0 0 0-.273 1.066c5.472 1.404 18.945 7.13 25.789 29.943 7.222 24.066 3.418 51.05-10.18 72.18a.553.553 0 0 0 .164.761.555.555 0 0 0 .762-.164c13.77-21.398 17.621-48.723 10.308-73.094-7.007-23.347-20.918-29.242-26.57-30.691M61.004 338.32c-.125 5.063-3.332 8.364-6.258 9.285a6.1 6.1 0 0 1-1.836.293c-1.14 0-2.203-.355-3.055-1.046-1.238-1.004-2.613-3.157-2.16-7.704.25-2.55.84-5.726 3.145-7.66 1.7-1.422 3.695-1.695 5.625-.765 2.617 1.257 4.61 4.593 4.539 7.597m-1.102-.027c.063-2.602-1.656-5.496-3.918-6.582a4.1 4.1 0 0 0-1.785-.43c-.808 0-1.719.266-2.652 1.051-2 1.676-2.527 4.582-2.758 6.922-.316 3.172.309 5.566 1.758 6.742 1.02.828 2.394 1.027 3.867.559 2.566-.809 5.379-3.739 5.488-8.262m172.078 4.062a.55.55 0 0 0-.687.372 32.44 32.44 0 0 1-7.934 13.37q-.393.4-.8.794c-1.063 1.043-2.16 2.12-2.95 3.445-1.05 1.766-1.445 3.75-1.816 5.969-2.875 17.054-3.375 34.254-3.496 47.328-.086 9.515.594 15.156 1.621 23.695.223 1.871.465 3.883.719 6.102a.55.55 0 0 0 .547.484h.062c.3-.035.52-.309.484-.61a920 920 0 0 0-.722-6.109c-1.02-8.496-1.696-14.105-1.61-23.55.118-13.04.618-30.18 3.477-47.157.355-2.11.73-3.988 1.68-5.593.715-1.2 1.718-2.18 2.777-3.22.27-.269.543-.534.809-.804a33.55 33.55 0 0 0 8.207-13.832.554.554 0 0 0-.368-.684m-31.363 90.086a.55.55 0 0 0 .25-1.07c-18.441-4.312-37.05-9.203-55.05-13.937-15.493-4.07-31.512-8.282-47.344-12.102-.97-.234-2.063-.496-2.887-1.105-1.152-.852-1.73-2.297-2.188-3.73-1.128-3.556-1.722-7.329-2.296-10.977-.465-2.942-.942-5.985-1.7-8.922-1.215-4.707-4.37-13.067-11.886-16.215a18 18 0 0 0-.696-.278c-1.058-.418-2.058-.812-2.68-1.601-.628-.809-.773-1.965-.859-2.984-1.203-14.465 4.996-29.204 16.18-38.457a.55.55 0 0 0 .07-.774.544.544 0 0 0-.773-.074c-11.453 9.48-17.805 24.578-16.57 39.398.097 1.176.269 2.524 1.085 3.57.805 1.028 1.993 1.493 3.145 1.946q.34.135.672.27c7.078 2.964 10.082 10.968 11.246 15.476.742 2.887 1.219 5.902 1.68 8.82.578 3.688 1.18 7.5 2.332 11.137.488 1.531 1.175 3.238 2.582 4.281 1.004.742 2.215 1.032 3.285 1.293 15.82 3.817 31.832 8.024 47.32 12.094 18.008 4.734 36.625 9.629 55.082 13.941m-57.957-98.976a.546.546 0 0 0-.71.308c-9.419 23.657-7.302 50.559-4.575 73.914.031.282.27.485.543.485h.066a.547.547 0 0 0 .48-.613c-2.706-23.223-4.816-49.961 4.505-73.383a.55.55 0 0 0-.309-.711m10.488 39.64a.557.557 0 0 0 .504.594 214 214 0 0 1 43.657 8.164.55.55 0 0 0 .316-1.055 215.5 215.5 0 0 0-43.883-8.206.56.56 0 0 0-.594.503m-70.285-16.957a.55.55 0 0 0 .43.649 552 552 0 0 1 31.129 7.351q.07.019.144.02a.546.546 0 0 0 .528-.41.55.55 0 0 0-.387-.672 554 554 0 0 0-31.195-7.363.55.55 0 0 0-.649.425m-9.656 31.668a.55.55 0 0 0-.105.77c16.105 21.266 19.187 51.715 7.664 75.773a.554.554 0 0 0 .257.735q.12.051.239.05a.54.54 0 0 0 .496-.312c11.695-24.418 8.566-55.328-7.781-76.91a.55.55 0 0 0-.77-.106m139.215 73.086a1606 1606 0 0 1-104.043-24.53.55.55 0 0 0-.285 1.062 1602 1602 0 0 0 104.113 24.543.554.554 0 0 0 .648-.43.553.553 0 0 0-.433-.645m4.832-190.28c-2.91-4.782-7.125-8.95-12.2-12.048-3.472-2.12-6.894-3.574-10.163-4.32-16.703-3.8-33.282-5.828-47.934-5.863-2.426-.004-4.809-.043-7.164-.078-12.39-.188-24.094-.364-36.438 4.03a.547.547 0 0 0-.332.7.55.55 0 0 0 .704.336c12.156-4.328 23.761-4.152 36.05-3.965 2.356.035 4.746.07 7.176.074 14.574.035 31.067 2.055 47.692 5.84 3.156.719 6.464 2.125 9.84 4.188 4.921 3.004 9.011 7.043 11.827 11.675 13.696 22.524 23.766 42.887 32.649 66.028a.56.56 0 0 0 .516.355.5.5 0 0 0 .195-.039.547.547 0 0 0 .316-.71c-8.906-23.208-19.004-43.626-32.734-66.204m0 0"/>
  <path fill="#0f0550" d="M96.082 339.066c-.027 1.024-.41 1.797-1.144 2.301-.66.453-1.551.633-2.555.633-2.578 0-5.89-1.184-7.938-1.914-.336-.121-.617-.223-.836-.293-1.183-.395-2.757-1.297-3.293-2.55a2.15 2.15 0 0 1 .028-1.817c.394-.84 1.441-1.758 4.172-1.356.386.059.902.11 1.507.172 3.797.383 10.157 1.024 10.059 4.824m61.637 8.68c-2.422-1.762-5.985-2.187-8.848-2.527l-.914-.114c-1.156-.144-2.371-.21-3.457.293-1.148.532-2.11 1.934-1.648 3.274.386 1.129 1.593 1.687 2.242 1.988a79 79 0 0 0 9.168 3.567c.976.312 1.894.464 2.71.464 1.555 0 2.747-.55 3.278-1.593.625-1.243.293-3.297-2.531-5.352m0 0"/>
</svg>
