<svg width="76" height="65" viewBox="0 0 76 65" fill="none" xmlns="http://www.w3.org/2000/svg">
  <path d="M26.496 0a6.226 6.226 0 0 0-6.252 6.252V57.26a6.226 6.226 0 0 0 6.252 6.252h17.565V.099H26.496V0Zm35.229 0H44.16v63.412h17.565a6.226 6.226 0 0 0 6.252-6.252V6.153C67.977 2.779 65.198 0 61.725 0Z" fill="#fff"/>
  <path d="M20.343 57.954c.398 3.076 2.978 5.458 6.153 5.458h35.23c3.175 0 5.755-2.382 6.152-5.458H20.343Z" fill="#fff"/>
  <path d="M48.725 0h-29.87c-3.176 0-5.756 2.382-6.153 5.458h42.771C55.87 2.382 58.45 0 61.626 0h-12.9Zm-9.526 63.412h29.87c3.175 0 5.755-2.382 6.152-5.458H32.45c-.397 3.076-2.977 5.458-6.152 5.458h12.9Z" fill="#E0E0E0"/>
  <path d="M63.71 16.275H24.214v5.16H63.71v-5.16Zm0 8.931H24.214v5.16H63.71v-5.16Zm0 9.031H24.214v5.16H63.71v-5.16Z" fill="#2D4375"/>
  <path d="M56.565 44.458a4.122 4.122 0 0 0-3.771 4.465 4.122 4.122 0 0 0 4.466 3.771 4.122 4.122 0 0 0 3.77-4.465c-.099-2.283-2.183-3.97-4.465-3.771Z" fill="#3A9E32"/>
  <path d="M63.114 48.626c0 3.175-2.381 5.854-5.557 6.152-1.786.199-3.572-.496-4.763-1.687L52 53.39c1.39 1.488 3.473 2.282 5.557 2.084 3.672-.298 6.45-3.573 6.252-7.245l-.694.398Zm-12.206.099c0-3.175 2.382-5.855 5.558-6.153 1.786-.198 3.572.497 4.763 1.687l.794-.297c-1.39-1.489-3.473-2.283-5.557-2.084-3.672.297-6.45 3.572-6.252 7.244l.694-.397Zm13.302-5.078-15.844 6.864 1.34 3.096 15.845-6.864-1.341-3.096Z" fill="#3A9E32"/>
  <path d="m50.412 50.313.496-.199 1.489 1.687-.496.199-.298-.298-.595.298v.496l-.497.198-.099-2.381Zm.993.992-.497-.595.1.694.397-.099Zm.297-1.587.894-.397c.297-.1.595-.199.893.397.297.595-.1.793-.298.893-.1 0-.397.099-.496.099l.297.794-.496.198-.794-1.984Zm1.191.595c.1 0 .1-.1.1-.298-.1-.198-.199-.198-.298-.198l-.397.198.198.496.397-.198Zm.497-1.29.893-.397c.297-.099.595-.198.893.397.297.596-.1.794-.298.893-.1 0-.397.1-.496.1l.297.794-.496.198-.794-1.985Zm1.19.496c.1 0 .1-.099.1-.297-.1-.199-.199-.199-.298-.199l-.397.199.198.496.397-.199Zm.496-1.191.893-.397c.298-.099.596-.099.894.397.198.496.099.596-.1.695l.695.595-.496.199-.596-.596-.297.1.297.794-.496.198-.794-1.985Zm1.191.496c.1-.099.199-.099.1-.297-.1-.199-.199-.199-.298-.199l-.397.199.198.496.397-.199Zm1.191-1.588c.496-.198.893-.297 1.29.695.397.893.1 1.092-.397 1.39-.496.198-.893.297-1.29-.695-.397-.993-.1-1.191.397-1.39Zm.695 1.588c.297-.1.297-.297.099-.794-.199-.595-.397-.595-.595-.496-.298.1-.298.199-.1.794.199.595.298.695.596.496Zm.694-2.184.993 1.29-.199-1.587.497-.199.198 2.283-.496.198-1.489-1.786.496-.198Zm1.588-.197c-.198-.397.1-.596.298-.596 0 0 .695-.297.893-.297l.199.397-.794.297c-.1.1-.1.1-.1.199l.1.198.794-.297.198.397-.794.397.1.198c.099.1.198.1.198.1l.694-.298.199.397-.794.397c-.198.099-.496.198-.695-.199l-.496-1.29Zm1.29-1.092.893-.397c.596-.198.893.199 1.092.695.298.595.198 1.091-.298 1.29l-.893.397-.794-1.985Zm1.588 1.29c.198-.1.198-.298 0-.695-.198-.496-.397-.595-.595-.496l-.397.199.496 1.19.496-.198Z" fill="#fff"/>
  <path d="M10.817 55.077v7.046A2.774 2.774 0 0 1 8.038 64.9H5.657a2.88 2.88 0 0 1-2.878-2.878v-7.046A2.88 2.88 0 0 1 5.657 52.1h2.282c1.588.198 2.878 1.488 2.878 2.977Z" fill="#393C41"/>
  <path d="M7.542 59.145h-.397V65h.397v-5.855Zm-1.191 0h-.397V65h.397v-5.855Z" fill="#2A2D30"/>
  <path d="M10.817 59.642v.595L7.64 63.413l-.198.198v-.695l.198-.099 3.176-3.175Zm0 1.885v.596L7.939 65h-.496v-.1l.198-.198 3.176-3.176Zm0-3.87v.695L7.64 61.527l-.198.1v-.596l.198-.198 3.176-3.176Zm-8.038 1.985v.595l3.175 3.176.199.198v-.695l-.199-.099-3.175-3.175Zm0 1.885v.596L5.557 65h.596v-.1l-.199-.198-3.175-3.176Zm0-3.87v.695l3.175 3.175.199.1v-.596l-.199-.198-3.175-3.176Z" fill="#2A2D30"/>
  <path d="M45.053 55.077v7.046a2.774 2.774 0 0 1-2.778 2.778h-2.382a2.88 2.88 0 0 1-2.878-2.878v-7.046a2.88 2.88 0 0 1 2.878-2.877h2.283c1.587.198 2.877 1.488 2.877 2.977Z" fill="#393C41"/>
  <path d="M41.878 59.145h-.397V65h.397v-5.855Zm-1.191 0h-.397V65h.397v-5.855Z" fill="#2A2D30"/>
  <path d="M45.053 59.642v.595l-3.175 3.176-.1.198v-.695l.1-.099 3.175-3.175Zm0 1.885v.596L42.275 65h-.496v-.1l.099-.198 3.175-3.176Zm0-3.87v.695l-3.175 3.175-.1.1v-.596l.1-.198 3.175-3.176Zm-7.939 1.985v.595l3.176 3.176.1.198v-.695l-.1-.099-3.175-3.175Zm0 1.885v.596L39.895 65h.495v-.1l-.099-.198-3.175-3.176Zm0-3.87v.695l3.176 3.175.1.1v-.596l-.1-.198-3.175-3.176Zm8.039-20.244h-2.977c-.894 0-1.588.694-1.588 1.587v.1l-2.183 1.687.396.496 1.985-1.489c.298.497.794.893 1.39.893h2.977c.893 0 1.587-.694 1.587-1.587 0-.993-.694-1.687-1.587-1.687Zm-42.573 0h2.977c.893 0 1.588.694 1.588 1.587v.1l2.183 1.687-.397.496-1.984-1.489c-.298.497-.794.893-1.39.893H2.58A1.567 1.567 0 0 1 .992 39.1c0-.993.794-1.687 1.588-1.687Z" fill="#2A2D30"/>
  <path d="M47.634 48.825c0-.595-.397-1.389-.794-1.885-1.29-1.489-2.58-3.076-3.97-4.565-.397-.397-1.19-.794-1.786-.794H6.648c-.595 0-1.388.397-1.785.794-1.29 1.489-2.68 2.977-3.97 4.565-.397.496-.695 1.29-.794 1.786 0 .596 0 .893-.099 1.489 0 2.877.198 5.755.496 8.633.199 1.39 1.786 2.481 3.374 2.481h39.794c1.588 0 3.176-1.092 3.374-2.48.1-.398.1-.596.1-.993.595-2.878.694-5.954.496-9.03Z" fill="#EE8F21"/>
  <path d="M38.405 30.367c0-1.092-6.55-1.886-14.588-1.886h-.1v13.794h18.856l-4.168-11.908Zm-29.176 0L5.16 42.275h18.458V28.481c-7.939 0-14.389.794-14.389 1.886Z" fill="#EE8F21"/>
  <path d="M37.511 30.764c-1.091-.596-6.152-1.29-13.595-1.29h-.198c-7.344 0-12.306.694-13.397 1.29l-3.176 9.923h33.642l-3.276-9.923Z" fill="#1E2D4F"/>
  <path d="M32.351 55.077a.89.89 0 0 1-.893.893H16.473a.89.89 0 0 1-.893-.893V50.91a.89.89 0 0 1 .893-.893h14.985a.89.89 0 0 1 .893.893v4.168Z" fill="#2A2D30"/>
  <path d="M7.244 44.756v5.26h-.496v2.282h5.557v-2.282c0-2.878-2.282-5.26-5.06-5.26Z" fill="#F4B938"/>
  <path d="M5.16 54.78c-1.786 0-3.175-1.39-3.175-3.176v-.1c0-1.786 1.39-3.175 3.175-3.175 1.787.496 7.74 2.382 7.344 3.97-.397 1.587-1.191 2.381-2.68 2.381H5.16v.1Z" fill="#F4B938"/>
  <path d="M12.305 52.298c-.297 1.39-.992 2.183-2.381 2.183H5.16a2.88 2.88 0 0 1-2.878-2.877v-.1a2.88 2.88 0 0 1 2.878-2.877c0 .099 7.443 2.282 7.145 3.671Z" fill="#FFFBFF"/>
  <path d="M40.687 44.756v5.26h.496v2.282h-5.557v-2.282c-.1-2.878 2.183-5.26 5.061-5.26Z" fill="#F4B938"/>
  <path d="M42.771 54.78c1.786 0 3.175-1.39 3.175-3.176v-.1c0-1.786-1.389-3.175-3.175-3.175-1.786.496-7.74 2.382-7.344 3.97.397 1.587 1.191 2.381 2.68 2.381h4.664v.1Z" fill="#F4B938"/>
  <path d="M35.527 52.298c.297 1.39.992 2.183 2.381 2.183h4.764a2.88 2.88 0 0 0 2.878-2.877v-.1a2.88 2.88 0 0 0-2.878-2.877c.099.099-7.443 2.282-7.145 3.671Z" fill="#FFFBFF"/>
  <path d="m7.939 37.909-.893 2.68h33.641l-2.48-7.543L7.938 37.91Z" fill="#1E2D4F"/>
  <path d="M37.511 30.764c-1.091-.596-6.152-1.29-13.595-1.29h-.198c-7.344 0-12.306.694-13.397 1.29l-2.283 7.145 30.267-4.863-.794-2.282Z" fill="#2D4375"/>
  <path d="m39.595 56.565-.793 1.092H9.13l-.794-1.092H.397c.1.794.1 1.588.198 2.481.199 1.39 1.787 2.481 3.375 2.481h39.793c1.588 0 3.176-1.091 3.374-2.48.1-.398.1-.596.1-.993.099-.496.099-.992.198-1.489h-7.84Z" fill="#2A2D30"/>
  <path d="M31.458 60.138a.783.783 0 0 1-.794.794H17.168a.783.783 0 0 1-.794-.794v-1.19c0-.398.298-.795.794-.795h13.496c.397 0 .794.298.794.794v1.191Z" fill="#FFFBFF"/>
  <path d="M27.687 8.236c1.19 0 1.39.1 2.084.298v1.19s-.794-.098-1.588-.098c-.694 0-.992 0-.992 1.587 0 1.29.198 1.588.992 1.588s1.588-.099 1.588-.099v1.19c-.496.2-.893.299-2.084.299-1.489 0-1.985-.993-1.985-2.978 0-1.885.397-2.977 1.985-2.977Zm4.267 0h1.786l1.787 5.855h-1.588l-.298-.992h-1.587l-.298.992h-1.588l1.786-5.855Zm1.39 3.573-.397-1.588-.497 1.588h.894Zm2.679-3.573h2.58c.992 0 1.786.397 1.786 1.886 0 1.39-.496 1.588-.893 1.786l.993 2.183h-1.787l-.794-2.084-.496-.099v2.183h-1.587V8.236h.198Zm2.382 2.481c.397 0 .397-.198.397-.595 0-.397-.1-.596-.397-.596h-.894v1.191h.894Zm4.465-2.481h1.588v4.069c0 .397.298.397.496.397h1.687v1.39H44.26c-.695 0-1.29-.298-1.29-1.29V8.235h-.1Zm6.351 0c1.39 0 2.382.298 2.382 2.977 0 2.58-.992 2.878-2.382 2.878-1.389 0-2.381-.297-2.381-2.878 0-2.679.992-2.977 2.381-2.977Zm0 4.466c.695 0 .894-.298.894-1.489 0-1.389-.1-1.587-.894-1.587-.694 0-.893.198-.893 1.587 0 1.191.1 1.489.893 1.489Zm4.268-4.466h1.786l1.786 5.855h-1.588l-.297-.992h-1.588l-.298.992h-1.588l1.787-5.855Zm1.389 3.573-.397-1.588-.496 1.588h.893Zm2.58-3.573h1.588l1.687 2.977V8.236h1.588v5.855h-1.588l-1.687-2.878v2.878h-1.588V8.236Z" fill="#EE8F21"/>
</svg>
