<svg width="32" height="32" viewBox="0 0 32 32" fill="none" xmlns="http://www.w3.org/2000/svg">
  <path d="M10.4 2.667h11.2a7.739 7.739 0 0 1 7.733 7.733v11.2a7.733 7.733 0 0 1-7.733 7.734H10.4A7.739 7.739 0 0 1 2.667 21.6V10.4A7.733 7.733 0 0 1 10.4 2.667Zm-.267 2.667a4.8 4.8 0 0 0-4.8 4.8v11.733c0 2.653 2.147 4.8 4.8 4.8h11.734a4.8 4.8 0 0 0 4.8-4.8V10.134c0-2.654-2.147-4.8-4.8-4.8H10.133Zm12.867 2a1.667 1.667 0 1 1 0 3.333 1.667 1.667 0 0 1 0-3.333Zm-7 2a6.667 6.667 0 1 1 0 13.333 6.667 6.667 0 0 1 0-13.333ZM16 12a4 4 0 1 0 0 8 4 4 0 0 0 0-8Z" fill="#0F206C"/>
</svg>
