<svg width="32" height="32" viewBox="0 0 32 32" fill="none" xmlns="http://www.w3.org/2000/svg">
  <path d="M29.947 8a11.424 11.424 0 0 1-3.28.92 5.731 5.731 0 0 0 2.506-3.174 11.52 11.52 0 0 1-3.626 1.4C24.493 6 23.013 5.333 21.333 5.333c-3.133 0-5.693 2.56-5.693 5.72 0 .453.053.893.147 1.307A16.259 16.259 0 0 1 4 6.386a5.659 5.659 0 0 0-.773 2.867c0 1.987 1 3.747 2.546 4.747-.946 0-1.826-.267-2.6-.667v.04a5.724 5.724 0 0 0 4.587 5.613c-.839.23-1.72.262-2.573.094a5.707 5.707 0 0 0 5.333 3.973 11.36 11.36 0 0 1-7.107 2.453 11.5 11.5 0 0 1-1.36-.08A16.192 16.192 0 0 0 10.827 28c10.506 0 16.28-8.72 16.28-16.28 0-.254 0-.494-.014-.747A11.43 11.43 0 0 0 29.947 8Z" fill="#0F206C"/>
</svg>
