<svg width="32" height="32" viewBox="0 0 32 32" fill="none" xmlns="http://www.w3.org/2000/svg">
  <path d="m13.333 20 6.92-4-6.92-4v8ZM28.747 9.56c.173.627.293 1.467.373 2.534.093 1.066.133 1.986.133 2.786l.08 1.12c0 2.92-.213 5.067-.586 6.44-.334 1.2-1.107 1.974-2.307 2.307-.627.173-1.773.293-3.533.373a88.8 88.8 0 0 1-4.787.134l-2.12.08c-5.587 0-9.067-.214-10.44-.587-1.2-.333-1.973-1.107-2.307-2.307-.173-.626-.293-1.466-.373-2.533a32.083 32.083 0 0 1-.133-2.787L2.667 16c0-2.92.213-5.066.586-6.44.334-1.2 1.107-1.973 2.307-2.306.627-.174 1.773-.294 3.533-.374a88.861 88.861 0 0 1 4.787-.133l2.12-.08c5.587 0 9.067.213 10.44.587 1.2.333 1.973 1.106 2.307 2.306Z" fill="#0F206C"/>
</svg>
