<svg width="85" height="82" viewBox="0 0 85 82" fill="none" xmlns="http://www.w3.org/2000/svg">
  <path d="M73.214 4.393a4.393 4.393 0 1 0-8.785 0v1.464h8.785V4.393ZM31.43 14.029a1.465 1.465 0 0 1 .915 2.21.872.872 0 0 0 1.202 1.202 1.465 1.465 0 0 1 2.21.915.872.872 0 0 0 1.7 0 1.465 1.465 0 0 1 2.21-.915.87.87 0 0 0 1.202-1.202 1.464 1.464 0 0 1 .916-2.21.872.872 0 0 0 0-1.7 1.465 1.465 0 0 1-.916-2.21.872.872 0 0 0-1.202-1.203 1.464 1.464 0 0 1-2.21-.915.872.872 0 0 0-1.7 0 1.464 1.464 0 0 1-2.21.915.871.871 0 0 0-1.202 1.202 1.464 1.464 0 0 1-.916 2.21.872.872 0 0 0 0 1.7Z" fill="#0F206C"/>
  <path d="M11.714 4.393v68.821H51.25a1.464 1.464 0 0 1 1.464 1.465v2.928a4.393 4.393 0 0 0 8.786 0V4.393A7.283 7.283 0 0 1 62.967 0h-46.86a4.398 4.398 0 0 0-4.393 4.393Zm7.321 60.036h-2.928V61.5h2.928v2.929Zm0-11.715h-2.928v-2.928h2.928v2.928ZM57.107 64.43H48.32V61.5h8.786v2.929Zm0-5.858H33.678v-2.928h23.429v2.928Zm0-11.714H48.32V43.93h8.786v2.928ZM33.678 27.821v-2.928h14.643v2.928H33.678Zm10.25 2.929v2.929H29.285V30.75h14.643ZM29.3 10.152a3.837 3.837 0 0 1 4.28-4.28 3.838 3.838 0 0 1 6.053 0 3.837 3.837 0 0 1 4.28 4.28 3.837 3.837 0 0 1 0 6.053 3.837 3.837 0 0 1-4.28 4.28 3.836 3.836 0 0 1-6.053 0 3.838 3.838 0 0 1-4.28-4.28 3.837 3.837 0 0 1 0-6.053Zm-4.408 14.74h5.858v2.93h-5.858v-2.93Zm-2.928 13.18h35.143V41H21.964v-2.929Zm0 5.857h23.428v2.928H21.964V43.93Zm0 5.857h35.143v2.928H21.964v-2.928Zm0 5.857h8.786v2.928h-8.786v-2.928Zm0 5.857h23.428v2.929H21.964V61.5Zm0 5.857h35.143v2.929H21.964v-2.929ZM19.035 41h-2.928v-2.929h2.928V41Z" fill="#0F206C"/>
  <path d="M49.786 76.143H0v1.464A4.398 4.398 0 0 0 4.393 82h46.86a7.284 7.284 0 0 1-1.467-4.393v-1.464Zm23.429-58.572a2.932 2.932 0 0 0-2.929 2.929h5.857a2.932 2.932 0 0 0-2.928-2.929Zm2.928 5.858h-5.857v11.714h5.857V23.429Zm-2.928 49.439 2.023-4.047h-4.047l2.024 4.047Zm2.928-34.797h-5.857V41h5.857v-2.93Zm0 5.858h-5.857v21.964h5.857V43.929ZM80.536 20.5H79.07v2.929h1.465A1.466 1.466 0 0 1 82 24.893V41h2.928V24.893a4.398 4.398 0 0 0-4.392-4.393Z" fill="#0F206C"/>
</svg>
