<svg width="59" height="59" viewBox="0 0 59 59" fill="#0F206C" xmlns="http://www.w3.org/2000/svg">
  <g filter="url(#filter0_d)">
    <rect x="8" y="5" width="43" height="43" rx="8"/>
  </g>
  <path d="M40.052 25.824h-7.407a2.954 2.954 0 0 0-2.885-2.313 2.954 2.954 0 0 0-2.885 2.313H19.65a.643.643 0 0 0-.65.65c0 .363.286.65.65.65h7.225a2.954 2.954 0 0 0 2.885 2.313 2.954 2.954 0 0 0 2.885-2.314h7.407c.364 0 .65-.286.65-.65a.679.679 0 0 0-.65-.65ZM29.76 28.137c-.91 0-1.664-.754-1.664-1.663 0-.91.754-1.664 1.664-1.664.91 0 1.663.754 1.663 1.664 0 .91-.753 1.663-1.663 1.663Zm-7.771-6.211a2.954 2.954 0 0 0 2.885-2.313h15.152c.364 0 .65-.286.65-.65a.643.643 0 0 0-.65-.65H24.874A2.954 2.954 0 0 0 21.989 16a2.978 2.978 0 0 0-2.963 2.963 2.978 2.978 0 0 0 2.963 2.963Zm0-4.627c.91 0 1.663.754 1.663 1.664 0 .91-.754 1.663-1.663 1.663-.91 0-1.663-.754-1.663-1.663 0-.91.753-1.664 1.663-1.664Zm15.724 13.775c-1.404 0-2.573.988-2.885 2.287H19.65a.643.643 0 0 0-.65.65c0 .364.286.65.65.65h15.178C35.114 35.986 36.309 37 37.713 37a2.962 2.962 0 0 0 2.963-2.963 2.978 2.978 0 0 0-2.963-2.963Zm0 4.6c-.91 0-1.663-.753-1.663-1.663s.753-1.663 1.663-1.663 1.663.753 1.663 1.663-.753 1.663-1.663 1.663Z" fill="#fff"/>
  <defs>
    <filter id="filter0_d" x="0" y="0" width="59" height="59" filterUnits="userSpaceOnUse" color-interpolation-filters="sRGB">
      <feFlood flood-opacity="0" result="BackgroundImageFix"/>
      <feColorMatrix in="SourceAlpha" values="0 0 0 0 0 0 0 0 0 0 0 0 0 0 0 0 0 0 127 0"/>
      <feOffset dy="3"/>
      <feGaussianBlur stdDeviation="4"/>
      <feColorMatrix values="0 0 0 0 0 0 0 0 0 0 0 0 0 0 0 0 0 0 0.1 0"/>
      <feBlend in2="BackgroundImageFix" result="effect1_dropShadow"/>
      <feBlend in="SourceGraphic" in2="effect1_dropShadow" result="shape"/>
    </filter>
  </defs>
</svg>
