<svg width="81" height="65" viewBox="0 0 81 65" fill="none" xmlns="http://www.w3.org/2000/svg">
  <path d="M71.87 65H8.54c-.548 0-.992-.408-.992-.912v-33.55h1.984v32.639h61.345V30.539h1.984v33.55c0 .503-.444.91-.992.91Z" fill="#0F206C"/>
  <path d="M22.288 31.897h-3.222a5.947 5.947 0 0 1-5.94-5.939V23.45c0-.544.442-.985.985-.985h13.131c.544 0 .985.44.985.985v2.524a5.947 5.947 0 0 1-5.94 5.923Zm-7.192-7.483v1.54a3.978 3.978 0 0 0 3.97 3.97h3.222a3.978 3.978 0 0 0 3.97-3.97v-1.54H15.096Z" fill="#0F206C"/>
  <path d="M27.242 24.418h-13.13a.985.985 0 0 1-.958-1.209L18.404.76a.989.989 0 0 1 .961-.76h10.5a.989.989 0 0 1 .98 1.099L28.22 23.548a.989.989 0 0 1-.977.87ZM15.356 22.45h11.028l2.394-20.48h-8.633l-4.79 20.48Z" fill="#0F206C"/>
  <path d="M9.157 31.897H5.939A5.947 5.947 0 0 1 0 25.958V23.45c0-.544.44-.985.985-.985H14.11c.544 0 .985.44.985.985v2.524a5.947 5.947 0 0 1-5.94 5.923Zm-7.188-7.483v1.54a3.978 3.978 0 0 0 3.97 3.97h3.218a3.978 3.978 0 0 0 3.97-3.97v-1.54H1.969Z" fill="#0F206C"/>
  <path d="M14.111 24.419H.985a.989.989 0 0 1-.93-1.312L7.932.658a.985.985 0 0 1 .93-.642h10.503a.985.985 0 0 1 .957 1.21l-5.25 22.448a.988.988 0 0 1-.96.745Zm-11.736-1.97h10.957L18.12 1.97H9.559L2.375 22.45Zm33.039 9.448h-3.217a5.947 5.947 0 0 1-5.94-5.939V23.45c0-.544.441-.985.985-.985H40.37c.544 0 .985.44.985.985v2.524a5.947 5.947 0 0 1-5.94 5.923Zm-7.187-7.483v1.54a3.978 3.978 0 0 0 3.97 3.97h3.217a3.978 3.978 0 0 0 3.97-3.97v-1.54H28.227Z" fill="#0F206C"/>
  <path d="M40.369 24.418H27.242a.988.988 0 0 1-.98-1.098L28.889.87a.989.989 0 0 1 .976-.87H40.37c.544 0 .985.44.985.985v22.449a.985.985 0 0 1-.985.984Zm-12.02-1.969h11.027V1.97h-8.632l-2.395 20.48Z" fill="#0F206C"/>
  <path d="M48.541 31.897h-3.217a5.947 5.947 0 0 1-5.94-5.939V23.45c0-.544.441-.985.985-.985h13.127c.544 0 .984.44.984.985v2.524a5.947 5.947 0 0 1-5.939 5.923Zm-7.187-7.483v1.54a3.978 3.978 0 0 0 3.97 3.97h3.217a3.978 3.978 0 0 0 3.97-3.97v-1.54H41.354Z" fill="#0F206C"/>
  <path d="M53.496 24.418H40.369a.985.985 0 0 1-.985-.984V1c0-.544.441-.984.985-.984h10.504a.989.989 0 0 1 .977.87l2.627 22.45a.988.988 0 0 1-.981 1.098v-.016ZM41.354 22.45H52.38L49.986 1.97h-8.633v20.48Z" fill="#0F206C"/>
  <path d="M61.672 31.897H58.45a5.947 5.947 0 0 1-5.939-5.939V23.45c0-.544.441-.985.985-.985h13.13c.544 0 .985.44.985.985v2.524a5.947 5.947 0 0 1-5.939 5.923Zm-7.191-7.483v1.54a3.978 3.978 0 0 0 3.97 3.97h3.221a3.978 3.978 0 0 0 3.97-3.97v-1.54H54.481Z" fill="#0F206C"/>
  <path d="M66.627 24.418H53.496a.989.989 0 0 1-.977-.87l-2.627-22.45A.988.988 0 0 1 50.872 0h10.5a.99.99 0 0 1 .962.76l5.25 22.45a.985.985 0 0 1-.957 1.208ZM54.374 22.45h11.008l-4.79-20.48H51.98l2.394 20.48Z" fill="#0F206C"/>
  <path d="M74.799 31.897h-3.218a5.947 5.947 0 0 1-5.939-5.939V23.45c0-.544.44-.985.985-.985h13.127c.543 0 .984.44.984.985v2.524a5.947 5.947 0 0 1-5.939 5.923Zm-7.188-7.483v1.54a3.978 3.978 0 0 0 3.97 3.97H74.8a3.978 3.978 0 0 0 3.97-3.97v-1.54H67.61Z" fill="#0F206C"/>
  <path d="M79.754 24.418H66.627a.988.988 0 0 1-.961-.76L60.416 1.21A.985.985 0 0 1 61.373 0h10.504c.418 0 .79.263.929.658l7.877 22.449a.989.989 0 0 1-.93 1.311ZM67.406 22.45h10.957L71.18 1.97h-8.563l4.79 20.48ZM36.037 65H25.198a.981.981 0 0 1-.977-.984V37.825a.98.98 0 0 1 .985-.985h10.83c.544 0 .985.441.985.985v26.19a.985.985 0 0 1-.984.985Zm-9.846-1.969h8.861V38.81h-8.861v24.22Z" fill="#0F206C"/>
  <path d="M25.198 65H14.375a.985.985 0 0 1-.984-.984V37.825c0-.544.44-.985.984-.985h10.823c.544 0 .985.441.985.985v26.19a.985.985 0 0 1-.985.985Zm-9.846-1.969h8.87V38.81H15.34l.012 24.221Z" fill="#0F206C"/>
  <path d="M67.355 54.894H40.452a.985.985 0 0 1-.985-.984V37.825c0-.544.441-.985.985-.985h26.903c.544 0 .985.441.985.985v16.084a.985.985 0 0 1-.985.985Zm-25.919-1.97h24.927V38.81H41.436v14.115Z" fill="#EE8F21"/>
  <path d="M67.355 58.699H40.452a.985.985 0 0 1-.985-.985v-3.805c0-.543.441-.984.985-.984h26.903c.544 0 .985.44.985.984v3.805a.985.985 0 0 1-.985.985Zm-25.919-1.97h24.927v-1.835H41.436v1.835Z" fill="#EE8F21"/>
  <path d="M78.178 63.03H2.56V65h75.618v-1.97Z" fill="#0F206C"/>
</svg>
