<svg width="25" height="24" viewBox="0 0 25 24" fill="none" xmlns="http://www.w3.org/2000/svg">
  <path fill-rule="evenodd" clip-rule="evenodd" d="M22.275 11.36a.756.756 0 0 1-.54.218v-.018a.765.765 0 0 1-.765-.765V8.253c0-3.052-1.671-4.723-4.714-4.723H8.753C5.71 3.53 4.03 5.21 4.03 8.253v7.502c0 3.035 1.68 4.715 4.723 4.715h7.503c3.043 0 4.714-1.68 4.714-4.714a.765.765 0 1 1 1.53 0c0 3.852-2.392 6.244-6.244 6.244H8.753C4.893 22 2.5 19.608 2.5 15.755V8.253C2.5 4.393 4.892 2 8.753 2h7.503C20.09 2 22.5 4.392 22.5 8.253v2.569a.75.75 0 0 1-.225.537Zm-9.74-3.511a.75.75 0 0 1 .24.039.766.766 0 0 1 .552.735v2.392h2.603a.755.755 0 0 1 .262.044.756.756 0 0 1 .53.73.765.765 0 0 1-.748.765H9.158a.778.778 0 0 1-.188-.027.774.774 0 0 1-.604-.747.756.756 0 0 1 .757-.765h2.638V8.614a.783.783 0 0 1 .774-.765Zm-.756 7.502v-.968a.766.766 0 0 1 .791-.738.757.757 0 0 1 .74.791v.968a.765.765 0 1 1-1.531-.053Z" fill="#2850E7"/>
</svg>
