<svg width="64" height="64" viewBox="0 0 64 64" fill="none" xmlns="http://www.w3.org/2000/svg">
  <g clip-path="url(#clip0)" fill="#fff">
    <path d="M53.303 13.785C48.686 9.009 42.71 5.973 36.227 5.049l1.848-1.848A1.875 1.875 0 1 0 35.423.549l-4.748 4.748a1.875 1.875 0 0 0 0 2.652l4.748 4.748c.366.366.846.55 1.326.55a1.875 1.875 0 0 0 1.326-3.2l-1.062-1.063a25.737 25.737 0 0 1 13.593 7.407 25.746 25.746 0 0 1 7.27 17.983c0 14.268-11.607 25.876-25.875 25.876S6.125 48.642 6.125 34.374c0-5.444 1.67-10.652 4.832-15.06a25.803 25.803 0 0 1 12.341-9.316 1.875 1.875 0 0 0-1.26-3.532 29.537 29.537 0 0 0-14.13 10.662 29.427 29.427 0 0 0-5.534 17.246c0 7.914 3.081 15.353 8.677 20.949C16.648 60.918 24.087 64 32.001 64c7.913 0 15.353-3.082 20.948-8.677 5.596-5.596 8.678-13.035 8.678-20.949a29.477 29.477 0 0 0-8.324-20.59Z"/>
    <path d="M12.736 34.374c0 10.622 8.642 19.264 19.265 19.264 10.622 0 19.264-8.642 19.264-19.264s-8.642-19.265-19.264-19.265c-10.623 0-19.264 8.643-19.264 19.265Zm20.416 1.669c-2.699-.954-4.263-1.706-5.397-2.596-1.396-1.095-2.036-2.987-1.668-4.936.398-2.115 1.873-3.798 3.849-4.393.027-.009.054-.015.081-.023v-.755a1.875 1.875 0 0 1 3.75 0v.635a7.16 7.16 0 0 1 2.592 1.181 1.875 1.875 0 0 1-2.245 3.004c-.397-.297-1.493-.935-3.097-.452-.947.286-1.193 1.218-1.245 1.497-.104.552.015 1.07.297 1.291.98.77 2.74 1.449 4.333 2.011 2.912 1.03 4.532 3.728 4.03 6.714a6.744 6.744 0 0 1-2.077 3.83 6.444 6.444 0 0 1-2.588 1.46v.897a1.875 1.875 0 0 1-3.75 0v-.713c-1.247-.147-2.288-.531-3.688-1.447a1.875 1.875 0 0 1 2.053-3.138c1.298.849 1.788.927 3.497.915 1.683-.011 2.66-1.265 2.854-2.426.096-.566.133-1.95-1.581-2.556Z"/>
  </g>
  <defs>
    <clipPath id="clip0">
      <path fill="#fff" d="M0 0h64v64H0z"/>
    </clipPath>
  </defs>
</svg>
