<svg width="64" height="64" viewBox="0 0 64 64" fill="none" xmlns="http://www.w3.org/2000/svg">
  <path d="M9.71 46.247v4.298c0 1.041.843 1.885 1.884 1.885h40.813a1.885 1.885 0 0 0 1.885-1.885v-4.298H9.71ZM64 22.29a6.097 6.097 0 0 0-6.09-6.09 6.096 6.096 0 0 0-6.09 6.09c0 1.614.633 3.082 1.662 4.173a9.963 9.963 0 0 1-7.444 3.34c-4.786 0-8.793-3.382-9.763-7.881a6.07 6.07 0 0 0 1.815-4.332A6.097 6.097 0 0 0 32 11.5a6.097 6.097 0 0 0-6.09 6.09c0 1.693.696 3.227 1.815 4.332-.97 4.499-4.977 7.881-9.763 7.881a9.963 9.963 0 0 1-7.444-3.34 6.065 6.065 0 0 0 1.662-4.174 6.097 6.097 0 0 0-6.09-6.09A6.097 6.097 0 0 0 0 22.29a6.098 6.098 0 0 0 4.785 5.947c.54 4.461 1.585 9.896 3.602 14.241h47.226c2.017-4.344 3.061-9.78 3.602-14.24C61.948 27.638 64 25.2 64 22.29Z" fill="#fff"/>
</svg>
