<svg width="64" height="64" viewBox="0 0 64 64" fill="none" xmlns="http://www.w3.org/2000/svg">
  <path d="M31.998 58.662a8.012 8.012 0 0 1-5.664-2.334l-1.947-1.946a4.012 4.012 0 0 0-2.837-1.171h-2.74c-4.426 0-8.03-3.603-8.03-8.03v-2.74A4.023 4.023 0 0 0 9.61 39.6l-1.915-1.913c-3.136-3.117-3.15-8.213-.03-11.352l1.947-1.95a4.012 4.012 0 0 0 1.17-2.836v-2.736c0-4.43 3.604-8.032 8.03-8.032h2.742a3.986 3.986 0 0 0 2.837-1.176l1.917-1.912c3.118-3.136 8.21-3.152 11.352-.03l1.947 1.947a3.992 3.992 0 0 0 2.835 1.17h2.74c4.428 0 8.03 3.603 8.03 8.033v2.738a4.023 4.023 0 0 0 1.174 2.84l1.914 1.915a7.978 7.978 0 0 1 2.366 5.667 7.98 7.98 0 0 1-2.312 5.658c-.027.027-.051.056-.078.08l-1.893 1.894a4.012 4.012 0 0 0-1.17 2.837v2.739c0 4.426-3.603 8.029-8.03 8.029H42.44a4.013 4.013 0 0 0-2.838 1.173L37.686 56.3a7.997 7.997 0 0 1-5.688 2.363" fill="#fff"/>
  <path fill-rule="evenodd" clip-rule="evenodd" d="M26.782 26.802a2.28 2.28 0 0 1-1.642.677c-.592 0-1.174-.242-1.64-.68a2.348 2.348 0 0 1-.694-1.653c0-.581.246-1.179.678-1.64.237-.24.52-.421.802-.517.806-.368 1.875-.152 2.51.514.226.227.4.475.514.734.126.277.19.592.19.91a2.24 2.24 0 0 1-.718 1.655Zm13.727-3.31a2.34 2.34 0 0 0-3.298 0L23.504 37.2c-.91.91-.91 2.39 0 3.302.443.44 1.027.682 1.65.682.625 0 1.209-.242 1.649-.682l13.706-13.707c.91-.912.91-2.39 0-3.302Zm-.758 13.211a2.36 2.36 0 0 0-2.57.518 3.134 3.134 0 0 0-.478.722c-.144.326-.163.675-.163.91 0 .234.019.581.163.906.133.299.293.542.504.752.483.448 1.043.675 1.667.675.592 0 1.173-.24 1.65-.685.424-.424.656-1.011.656-1.648 0-.64-.232-1.224-.658-1.651a2.127 2.127 0 0 0-.771-.499Z" fill="#2850E7"/>
</svg>
