<svg width="64" height="64" viewBox="0 0 64 64" fill="none" xmlns="http://www.w3.org/2000/svg">
  <path d="M57.23 3.076H6.77A6.777 6.777 0 0 0 0 9.846v31.998a6.777 6.777 0 0 0 6.77 6.77h16.344l-1.97 9.846H14.77a1.23 1.23 0 1 0 0 2.461h34.462a1.23 1.23 0 0 0 0-2.461h-6.376l-1.97-9.846h16.346A6.777 6.777 0 0 0 64 41.844v-32a6.777 6.777 0 0 0-6.77-6.769ZM23.656 58.461l1.97-9.846h12.75l1.97 9.846h-16.69Zm37.883-16.616a4.313 4.313 0 0 1-4.307 4.308H6.769a4.313 4.313 0 0 1-4.308-4.308v-3.077h59.077v3.077Zm0-5.538H2.462v-2.462h7.384a1.23 1.23 0 1 0 0-2.461H2.461V9.845A4.313 4.313 0 0 1 6.77 5.538h50.462a4.313 4.313 0 0 1 4.307 4.307v26.462Z" fill="#fff"/>
  <path d="M32 40a2.464 2.464 0 0 0-2.462 2.46A2.464 2.464 0 0 0 32 44.923a2.464 2.464 0 0 0 2.461-2.461A2.464 2.464 0 0 0 32 39.999Zm10.075-13.352-2.61-2.611 2.175-2.176a1.23 1.23 0 0 0-.594-2.07l-11.313-2.61a1.232 1.232 0 0 0-1.477 1.476l2.612 11.314a1.231 1.231 0 0 0 2.07.593l2.175-2.176L37.723 31a1.227 1.227 0 0 0 1.741 0l2.611-2.61c.48-.481.48-1.26 0-1.741Zm-3.481 1.74-2.61-2.61a1.227 1.227 0 0 0-1.741 0l-1.476 1.475-1.669-7.23 7.231 1.668-1.476 1.476a1.23 1.23 0 0 0 0 1.74l2.611 2.611-.87.87Zm-11.66-14.272-1.231-1.23a1.23 1.23 0 1 0-1.74 1.74l1.23 1.23a1.227 1.227 0 0 0 1.74 0 1.23 1.23 0 0 0 0-1.74Zm-2.4 3.332h-1.74a1.23 1.23 0 1 0 0 2.461h1.74a1.23 1.23 0 1 0 0-2.461Zm2.401 4.052a1.23 1.23 0 0 0-1.74 0l-1.232 1.231a1.23 1.23 0 1 0 1.74 1.74l1.232-1.23c.48-.48.48-1.26 0-1.74Zm8.613-8.615a1.23 1.23 0 0 0-1.741 0l-1.23 1.23a1.23 1.23 0 0 0 1.74 1.741l1.23-1.23a1.23 1.23 0 0 0 0-1.74Zm-5.792-2.399c-.68 0-1.23.55-1.23 1.23v1.74a1.23 1.23 0 1 0 2.46 0v-1.74c0-.68-.55-1.23-1.23-1.23ZM14.745 32.375a1.185 1.185 0 0 0-.183-.443 1.173 1.173 0 0 0-.34-.34 1.221 1.221 0 0 0-.443-.184 1.212 1.212 0 0 0-.71.07 1.2 1.2 0 0 0-.552.454 1.251 1.251 0 0 0-.208.683 1.213 1.213 0 0 0 .094.47 1.208 1.208 0 0 0 .453.552 1.222 1.222 0 0 0 .443.185 1.211 1.211 0 0 0 .71-.071 1.204 1.204 0 0 0 .553-.453 1.221 1.221 0 0 0 .184-.443 1.213 1.213 0 0 0 0-.48Z" fill="#fff"/>
</svg>
