<svg width="21" height="20" viewBox="0 0 21 20" fill="none" xmlns="http://www.w3.org/2000/svg">
  <path fill-rule="evenodd" clip-rule="evenodd" d="M20.275 9.36a.756.756 0 0 1-.54.218V9.56a.765.765 0 0 1-.765-.765V6.253c0-3.052-1.671-4.723-4.714-4.723H6.752C3.71 1.53 2.03 3.21 2.03 6.253v7.502c0 3.035 1.68 4.715 4.723 4.715h7.502c3.044 0 4.715-1.68 4.715-4.714a.765.765 0 1 1 1.53 0c0 3.852-2.392 6.244-6.245 6.244H6.753C2.893 20 .5 17.608.5 13.755V6.253C.5 2.393 2.892 0 6.753 0h7.502C18.09 0 20.5 2.392 20.5 6.253v2.568a.75.75 0 0 1-.225.538Zm-9.74-3.511a.75.75 0 0 1 .24.039.766.766 0 0 1 .552.735v2.392h2.603a.756.756 0 0 1 .263.044.756.756 0 0 1 .529.73.765.765 0 0 1-.748.765H7.158a.778.778 0 0 1-.188-.027.774.774 0 0 1-.604-.747.756.756 0 0 1 .757-.765H9.76V6.614a.783.783 0 0 1 .774-.765ZM9.78 13.35v-.968a.765.765 0 0 1 .791-.738.757.757 0 0 1 .74.791v.968a.765.765 0 1 1-1.531-.053Z" fill="#2850E7"/>
</svg>
