<svg width="21" height="20" viewBox="0 0 21 20" fill="none" xmlns="http://www.w3.org/2000/svg">
  <path fill-rule="evenodd" clip-rule="evenodd" d="M18.004.077a1.944 1.944 0 0 1 1.93.506c.503.51.689 1.257.484 1.947l-1.249 4.202a.75.75 0 1 1-1.437-.432l1.249-4.203a.446.446 0 0 0-.112-.452.444.444 0 0 0-.448-.117L2.329 6.207a.443.443 0 0 0-.324.377.446.446 0 0 0 .213.45l3.386 2.084a.758.758 0 0 1 .248 1.039.749.749 0 0 1-1.03.25L1.436 8.321a1.945 1.945 0 0 1-.918-1.94 1.939 1.939 0 0 1 1.395-1.627L18.003.077ZM16.528 10.35c.12-.4.537-.628.934-.507.397.12.623.54.504.94l-2.322 7.814a1.934 1.934 0 0 1-1.624 1.387 1.924 1.924 0 0 1-1.918-.929l-4.1-6.79a.759.759 0 0 1 .11-.925l5.822-5.859a.746.746 0 0 1 1.06 0 .758.758 0 0 1 0 1.068l-5.404 5.44 3.794 6.282a.44.44 0 0 0 .445.216.443.443 0 0 0 .377-.322l2.322-7.815Z" fill="#2850E7"/>
</svg>
