<svg width="64" height="64" viewBox="0 0 64 64" fill="none" xmlns="http://www.w3.org/2000/svg">
  <g clip-path="url(#clip0)" fill="#fff">
    <path d="M45.47 34.49h-8.696a4.32 4.32 0 0 0-4.316 4.316v6.67a4.32 4.32 0 0 0 4.316 4.315h8.696a4.32 4.32 0 0 0 4.316-4.316v-6.669a4.32 4.32 0 0 0-4.316-4.315Zm1.177 10.985a1.18 1.18 0 0 1-1.177 1.177h-8.696a1.18 1.18 0 0 1-1.177-1.177v-6.669a1.18 1.18 0 0 1 1.177-1.177h8.696a1.18 1.18 0 0 1 1.177 1.177v6.67Z"/>
    <path d="M64 22.368c0-.274-.065-.536-.21-.771l-9.52-16.74a1.578 1.578 0 0 0-1.36-.797H11.076c-.562 0-1.085.3-1.36.798L.21 21.597a1.59 1.59 0 0 0-.209.771c0 3.753 2.262 6.97 5.492 8.396V58.37c0 .863.707 1.569 1.57 1.569h49.863c.863 0 1.57-.706 1.57-1.57V30.96c0-.064 0-.117-.014-.17C61.725 29.365 64 26.135 64 22.37ZM11.992 7.212h40.003l7.441 13.09H4.564l7.428-13.09Zm33.556 16.215a6.028 6.028 0 0 1-5.937 4.97 6.028 6.028 0 0 1-5.937-4.97h11.874Zm-15.209 0a6.028 6.028 0 0 1-5.937 4.97 6.052 6.052 0 0 1-5.95-4.97h11.887Zm-27.096 0H15.13c-.497 2.825-2.981 4.97-5.95 4.97-2.968.013-5.44-2.145-5.937-4.97ZM26.363 56.8H17.34V39.867c0-1.23.994-2.237 2.237-2.237h4.564c1.229 0 2.236.994 2.236 2.236V56.8h-.013Zm28.993 0H29.502V39.867a5.383 5.383 0 0 0-5.374-5.375h-4.564a5.383 5.383 0 0 0-5.375 5.374v16.949H8.63v-25.28c.183.013.366.013.55.013a9.168 9.168 0 0 0 7.61-4.054 9.168 9.168 0 0 0 7.611 4.054c3.165 0 5.95-1.608 7.611-4.054a9.145 9.145 0 0 0 15.196 0 9.168 9.168 0 0 0 7.61 4.054c.184 0 .354-.013.537-.013V56.8Zm-.536-28.39a6.028 6.028 0 0 1-5.937-4.97H60.77c-.51 2.812-2.982 4.97-5.95 4.97Z"/>
  </g>
  <defs>
    <clipPath id="clip0">
      <path fill="#fff" d="M0 0h64v64H0z"/>
    </clipPath>
  </defs>
</svg>
