<svg width="64" height="64" viewBox="0 0 64 64" fill="none" xmlns="http://www.w3.org/2000/svg">
  <path d="M8 32h24v4H8v-4ZM4 22h20v4H4v-4Z" fill="#fff"/>
  <path d="m59.837 33.211-6-14A1.997 1.997 0 0 0 52 18h-6v-4a2 2 0 0 0-2-2H12v4h30v25.112A7.983 7.983 0 0 0 38.283 46H25.715a8 8 0 1 0 0 4h12.568a7.96 7.96 0 0 0 15.432 0H58a2 2 0 0 0 2-2V34c0-.27-.055-.539-.162-.788ZM18 52a4 4 0 1 1 0-8 4 4 0 0 1 0 8Zm28-30h4.68l4.288 10H46V22Zm0 30a4 4 0 1 1 0-8 4 4 0 0 1 0 8Zm10-6h-2.284A7.99 7.99 0 0 0 46 40v-4h10v10Z" fill="#fff"/>
</svg>
