<svg xmlns="http://www.w3.org/2000/svg" width="24" height="24" viewBox="0 0 24 24"><defs><style>.a{fill:none;}.b{fill:#2192b6;}</style></defs><rect class="a" width="24" height="24"/><g transform="translate(1.607 9)"><path class="b" d="M33.7,71.319l.147-.1a.628.628,0,0,0-.718-1.031c-9.816,6.863-16.962.338-17.262.057a.628.628,0,0,0-.863.913c.014.013.237.217.645.52l-1.257,2.074a.629.629,0,0,0,.211.863.639.639,0,0,0,.327.092.631.631,0,0,0,.537-.3l1.23-2.026a15.075,15.075,0,0,0,2.627,1.265l-.606,2.026a.624.624,0,0,0,.419.781l.181.027a.629.629,0,0,0,.6-.448l.6-2a14.24,14.24,0,0,0,3.233.488V76.53a.628.628,0,1,0,1.255,0V74.512a14.768,14.768,0,0,0,3.243-.556l.772,2.037a.629.629,0,0,0,.587.4l.222-.04a.628.628,0,0,0,.365-.809l-.752-1.985a18.628,18.628,0,0,0,3.2-1.557l1.017,1.357a.631.631,0,0,0,.5.252.614.614,0,0,0,.376-.126.628.628,0,0,0,.127-.879Z" transform="translate(-14.296 -70.079)"/></g></svg>