<svg width="109" height="654" viewBox="0 0 109 654" fill="none" xmlns="http://www.w3.org/2000/svg">
  <path d="M10.166 975.249V622.485H57.62c1.047 0 2.093-1.047 2.093-2.094v-44.662c0-1.047-1.047-2.094-2.093-2.094H10.166v-11.166H24.82c1.046 0 2.093-1.047 2.093-2.093v-21.634H44.36c1.046 0 2.093-1.046 2.093-2.093v-57.922c0-1.047-1.047-2.094-2.093-2.094H28.31v-28.612c0-1.046-1.047-2.093-2.094-2.093h-16.4v-15.004H57.62c1.047 0 2.093-1.047 2.093-2.093V393.24h47.105c1.047 0 2.094-1.047 2.094-2.094v-55.828c0-1.047-1.047-2.093-2.094-2.093H10.515v-10.119h5.931c1.047 0 2.094-1.047 2.094-2.094v-3.14h5.932c1.046 0 2.093-1.047 2.093-2.094v-12.561c0-1.047-1.047-2.094-2.093-2.094H18.54v-5.233c0-1.047-1.047-2.094-2.094-2.094h-5.931v-3.489h86.184c1.047 0 2.094-1.047 2.094-2.094V243.9c.349-1.396-.698-2.443-2.094-2.443H10.166v-5.583h33.148c1.047 0 2.093-1.047 2.093-2.093v-8.375h19.191c1.047 0 2.094-1.046 2.094-2.093v-50.594c0-1.047-1.047-2.094-2.094-2.094H46.454v-7.676c0-1.047-1.047-2.094-2.093-2.094H10.515v-12.212H60.76c1.047 0 2.094-1.047 2.094-2.094v-35.59c0-1.047-1.047-2.094-2.094-2.094H10.166V2.094C10.166 1.047 9.119 0 8.072 0S5.98 1.047 5.98 2.094v108.865c0 1.046 1.046 2.093 2.093 2.093h50.246v31.055H7.723c-1.047 0-2.093 1.046-2.093 2.093v16.4c0 1.046 1.046 2.093 2.093 2.093H41.57v7.677c0 .697.35 1.046.698 1.395H18.191c-1.047 0-2.093 1.047-2.093 2.094v43.616c0 1.046 1.046 2.093 2.093 2.093h23.03c-.35.349-.35.698-.35 1.047v8.374H7.723c-1.047 0-2.093 1.047-2.093 2.094v9.77c0 1.047 1.046 2.093 2.093 2.093h55.828v39.08H8.072c-1.047 0-2.093 1.047-2.093 2.094v47.454c0 1.046 1.046 2.093 2.093 2.093h96.304v51.292H59.364v-12.212c0-1.047-1.046-2.094-2.093-2.094H10.166v-9.421c0-1.046-1.047-2.093-2.094-2.093s-2.093 1.047-2.093 2.093v11.864c0 1.047 1.046 2.093 2.093 2.093h47.105v12.213c0 .349 0 .349.35.349v34.892H8.071c-1.047 0-2.093 1.047-2.093 2.094v19.191c0 1.047 1.046 2.093 2.093 2.093h16.4v28.612c0 1.047 1.046 2.094 2.093 2.094h15.702v53.386H24.821c-1.047 0-2.094 1.046-2.094 2.093v21.634H8.072c-1.047 0-2.093 1.046-2.093 2.093v15.353c0 1.047 1.046 2.094 2.093 2.094h35.242v42.918H7.724c-1.048 0-2.094 1.046-2.094 2.093v354.858c0 1.047 1.046 2.094 2.093 2.094 1.396 0 2.443-1.047 2.443-2.094Zm52.339-754.03H46.803c.349-.349.349-.698.349-1.046 0-1.047-1.047-2.094-2.094-2.094H31.8v-39.778h12.213c1.046 0 2.093-1.046 2.093-2.093 0-.698-.349-1.047-.698-1.396h17.098v46.407Zm-41.872-42.918h6.63v39.429h-6.63v-39.429Zm47.455 67.692h26.518v39.08H68.088v-39.08Zm-57.922 72.228v-8.025h3.838v8.025h-3.838Zm12.212-13.608v8.025H18.54v-8.025h3.838Zm-8.374-6.979v8.026h-3.838v-8.026h3.838ZM47.85 577.822h7.327v40.476H47.85v-40.476Z" fill="#fff" fill-opacity=".2" style="mix-blend-mode:soft-light"/>
  <path d="M84.487 275.303c0-1.047-1.047-2.094-2.093-2.094H70.879c-1.047 0-2.094 1.047-2.094 2.094s1.047 2.093 2.094 2.093h11.514c1.047 0 2.094-1.046 2.094-2.093Zm-25.123 0c0-1.047-1.046-2.094-2.093-2.094H43.663c-1.047 0-2.094 1.047-2.094 2.094s1.047 2.093 2.094 2.093H57.27c1.395 0 2.093-1.046 2.093-2.093ZM17.842 530.368c0-4.536-3.14-8.374-7.676-9.072v-25.123c4.187-1.047 7.676-4.536 7.676-9.072a9.382 9.382 0 0 0-9.42-9.421A9.382 9.382 0 0 0-1 487.101c0 4.536 3.14 8.025 6.979 9.072v25.472C1.79 522.692-1 526.181-1 530.717a9.382 9.382 0 0 0 9.421 9.421c5.234 0 9.421-4.536 9.421-9.77ZM3.187 486.752c0-2.791 2.443-5.234 5.234-5.234 2.792 0 5.234 2.443 5.234 5.234 0 2.792-2.442 5.234-5.234 5.234-2.791 0-5.234-2.442-5.234-5.234Zm0 43.616c0-2.791 2.443-5.234 5.234-5.234 2.792 0 5.234 2.443 5.234 5.234s-2.442 5.234-5.234 5.234c-2.791 0-5.234-2.443-5.234-5.234Zm35.591 68.739c0-6.281-5.234-11.515-11.515-11.515-6.28 0-11.514 5.234-11.514 11.515 0 6.28 5.234 11.514 11.514 11.514 6.28-.349 11.515-5.234 11.515-11.514Zm-18.493 0c0-3.839 3.14-6.979 6.978-6.979 3.838 0 6.979 3.14 6.979 6.979 0 3.838-3.14 6.978-6.979 6.978-3.838 0-6.978-3.14-6.978-6.978Zm-2.792-471.051c0-2.443-1.744-4.187-4.187-4.187-2.442 0-4.187 1.744-4.187 4.187 0 2.442 1.745 4.187 4.187 4.187 2.443 0 4.187-2.094 4.187-4.187Zm38.382 8.374v-14.655c0-1.047-1.047-2.093-2.094-2.093H23.076c-1.047 0-2.094 1.046-2.094 2.093v14.655c0 1.047 1.047 2.094 2.094 2.094H53.78c1.047 0 2.094-.698 2.094-2.094Zm-31.054-2.093v-10.468h26.518v10.468H24.821Zm72.925 246.342v-6.281h-4.885v6.281h4.885Zm0-14.655v-6.281h-4.885v6.281h4.885Zm0-15.353v-6.281h-4.885v6.281h4.885Zm-12.91 30.008v-6.281h-4.885v6.281h4.885Zm0-14.655v-6.281h-4.885v6.281h4.885Zm0-15.353v-6.281h-4.885v6.281h4.885Zm-13.957 15.353v-6.281h-4.885v6.281h4.885Zm0 14.655v-6.281h-4.885v6.281h4.885Zm0-30.008v-6.281h-4.885v6.281h4.885Zm-12.91 15.353v-6.281h-4.885v6.281h4.885Zm0-15.353v-6.281h-4.885v6.281h4.885ZM44.36 366.024v-6.281h-4.885v6.281h4.886Zm0-15.353v-6.281h-4.885v6.281h4.886Zm-13.259 15.353v-6.281h-4.885v6.281h4.885Zm0-15.353v-6.281h-4.885v6.281h4.885Zm4.885 41.871v-8.374H28.66v8.374h7.327Zm13.259 0v-8.374h-7.327v8.374h7.328Zm-13.259 13.957v-8.374H28.66v8.374h7.327Zm13.259 0v-8.374h-7.327v8.374h7.328Zm-13.259 15.004v-8.374H28.66v8.374h7.327Zm13.259 0v-8.374h-7.327v8.374h7.328Z" fill="#fff" fill-opacity=".2" style="mix-blend-mode:soft-light"/>
</svg>
