<svg width="65" height="65" viewBox="0 0 65 65" fill="none" xmlns="http://www.w3.org/2000/svg">
  <path fill-rule="evenodd" clip-rule="evenodd" d="M29.858 0a.874.874 0 0 0-.874.874v29.192l-4.532 8.052a.874.874 0 0 0 1.05 1.254l9.615-3.366h29a.874.874 0 0 0 .873-.874V.874A.875.875 0 0 0 64.117 0H29.86Zm.875 1.748h32.509v32.51H34.968a.875.875 0 0 0-.289.049l-7.566 2.648 3.507-6.23a.873.873 0 0 0 .112-.43V1.748ZM46.836 6.94c-3.027 0-5.645 2.108-5.94 5.234a22.29 22.29 0 0 0-.06 1.461c0 1.327.39 2.566 1.06 3.588.308.469.684.97 1.115 1.45-.007.042-.005.062-.023.135-.065.266-.237.687-.783 1.214-.312.301-1.875.915-3.454 1.396-1.578.48-3.163.85-4.188 1.725-.8.683-1.24 1.382-1.47 1.93a3.24 3.24 0 0 0-.218.762.875.875 0 0 0 .026.633.874.874 0 0 0 1.053.522H59.91a.883.883 0 0 0 .123-.008h.007a.873.873 0 0 0 .71-1.147 3.276 3.276 0 0 0-.218-.762c-.23-.548-.671-1.247-1.471-1.93-1.025-.876-2.61-1.245-4.188-1.725-1.578-.481-3.142-1.095-3.454-1.396-.546-.527-.718-.948-.783-1.214-.017-.072-.016-.09-.023-.132.408-.451.766-.921 1.063-1.363.653-.974 1.012-2.172 1.06-3.428a.871.871 0 0 0 .036-.25l.01-.681c.004-.304.022-.495-.005-.78-.295-3.126-2.914-5.234-5.94-5.234Zm0 1.748c2.257 0 3.984 1.382 4.198 3.65-.01-.11.002.298-.001.594-.004.27-.008.501-.008.642l-.002.061a4.913 4.913 0 0 1-.8 2.703c-.29.431-.645.887-1.032 1.298a.876.876 0 0 0-.154.165c-.14.14-.282.274-.427.396-.613.512-1.237.807-1.806.807-.573 0-1.206-.304-1.825-.832a6.465 6.465 0 0 1-.394-.374.874.874 0 0 0-.162-.17c-.4-.43-.769-.912-1.065-1.364a4.776 4.776 0 0 1-.773-2.629c0-.052.054-1.306.053-1.296.214-2.27 1.94-3.651 4.198-3.651ZM9.649 14.853a.872.872 0 0 0-.63.306l-2.846 2.397a.878.878 0 0 0-.116.099l-2.816 2.37C.872 22.02-.166 25.088.02 28.33c.189 3.241 1.575 6.698 4.086 9.68l17.68 20.996c2.511 2.982 5.68 4.935 8.843 5.672 3.162.737 6.362.237 8.73-1.758l5.758-4.848a.875.875 0 0 0 .249-1.325l-7.72-9.636a.922.922 0 0 0-.03-.035l-.01-.01a.873.873 0 0 0-1.313.014l-4.364 3.675c-2.89 2.433-7.026 2.147-9.329-.587L12.954 38.71c-2.302-2.733-1.88-6.859 1.01-9.291l4.298-3.621a.874.874 0 0 0 .452-1.091.875.875 0 0 0-.285-.414l-7.988-9.028a.875.875 0 0 0-.792-.412Zm-.046 2.101 7.022 7.938-1.976 1.664L7.9 18.39l1.704-1.436Zm-3.042 2.56 6.75 8.169-.474.399c-3.579 3.013-4.15 8.274-1.22 11.756l9.647 11.455c2.931 3.48 8.213 3.813 11.791.799l.607-.51 6.811 8.116-2.239 1.885c-1.888 1.59-4.462 2.033-7.207 1.393-2.745-.64-5.618-2.384-7.903-5.097L5.444 36.882c-2.285-2.713-3.514-5.84-3.677-8.654-.164-2.814.711-5.274 2.6-6.865l2.194-1.848Zm42.647.415c.207.426.516.888.995 1.35.994.96 2.573 1.328 4.16 1.812 1.585.483 3.187 1.06 3.561 1.38.327.28.549.54.71.77H34.988c.16-.23.382-.49.709-.77.374-.32 1.977-.897 3.563-1.38 1.586-.484 3.164-.852 4.158-1.811a4.78 4.78 0 0 0 .993-1.347c.692.476 1.491.82 2.391.82.906 0 1.709-.348 2.404-.824ZM36.842 48.902l6.627 8.272-1.659 1.397-6.811-8.115 1.843-1.553Z" fill="#0F206C"/>
  <path fill-rule="evenodd" clip-rule="evenodd" d="M29.858 0a.874.874 0 0 0-.874.874v29.192l-4.532 8.052a.874.874 0 0 0 1.05 1.254l9.615-3.366h29a.874.874 0 0 0 .873-.874V.874A.874.874 0 0 0 64.117 0H29.858Zm.875 1.748h32.509v32.51H34.968a.875.875 0 0 0-.289.049l-7.566 2.648 3.507-6.23a.873.873 0 0 0 .112-.43V1.748ZM46.836 6.94c-3.027 0-5.645 2.108-5.94 5.234a22.89 22.89 0 0 0-.06 1.461c0 1.327.39 2.566 1.06 3.588.308.469.684.97 1.115 1.45-.007.042-.005.062-.023.135-.065.266-.237.687-.783 1.214-.312.301-1.875.915-3.454 1.396-1.578.48-3.163.85-4.188 1.725-.8.683-1.24 1.382-1.47 1.93a3.24 3.24 0 0 0-.218.762.875.875 0 0 0 .026.633.874.874 0 0 0 1.053.522H59.91a.883.883 0 0 0 .123-.008h.007a.873.873 0 0 0 .71-1.147 3.276 3.276 0 0 0-.218-.762c-.23-.548-.671-1.247-1.471-1.93-1.025-.876-2.61-1.245-4.188-1.725-1.578-.481-3.142-1.095-3.454-1.396-.546-.527-.718-.948-.783-1.214-.017-.072-.016-.09-.023-.132.408-.451.767-.921 1.063-1.363.653-.974 1.012-2.172 1.06-3.428a.875.875 0 0 0 .036-.25l.01-.681c.004-.304.022-.495-.005-.78-.295-3.126-2.914-5.234-5.94-5.234Zm0 1.748c2.257 0 3.984 1.382 4.198 3.65-.01-.11.002.298-.001.594-.004.27-.008.501-.008.642l-.002.061a4.914 4.914 0 0 1-.8 2.703c-.29.431-.645.887-1.031 1.298a.873.873 0 0 0-.155.165c-.14.14-.282.274-.427.396-.613.512-1.237.807-1.806.807-.572 0-1.206-.304-1.825-.832a6.465 6.465 0 0 1-.394-.374.877.877 0 0 0-.162-.17c-.4-.43-.769-.912-1.065-1.364a4.776 4.776 0 0 1-.773-2.629c0-.052.054-1.306.053-1.296.214-2.27 1.94-3.651 4.198-3.651Zm2.372 11.24c.207.427.516.889.995 1.352.994.96 2.573 1.327 4.16 1.81 1.585.484 3.187 1.062 3.561 1.381.327.28.549.54.71.77H34.988c.16-.23.382-.49.709-.77.374-.32 1.977-.897 3.563-1.38 1.586-.484 3.164-.852 4.158-1.811a4.78 4.78 0 0 0 .993-1.347c.692.476 1.491.82 2.391.82.906 0 1.709-.348 2.405-.824Z" fill="#EE8F21"/>
</svg>
