<svg xmlns="http://www.w3.org/2000/svg" viewBox="0 0 564 165" width="564" height="165">
  <style>
    .shp0{fill:#ee8f21}.shp1{fill:#f3f3f3}
  </style>
  <path id="Layer" fill-rule="evenodd" class="shp0" d="M352.95 157.69h-3.73l-1.74 6.42h-6.84l6.53-24.18h11.06c.46-.02.93-.01 1.39.03.46.04.92.1 1.38.19.45.09.9.21 1.34.35.45.15.88.32 1.3.51.33.16.64.34.93.56.29.21.56.46.81.72a5.881 5.881 0 0 1 1.15 1.83c.13.38.22.78.28 1.18.07.39.1.8.1 1.2 0 .4-.03.81-.1 1.2-.06.4-.15.8-.28 1.18-.11.42-.25.84-.41 1.24-.16.41-.34.81-.55 1.19-.2.39-.43.76-.68 1.12-.26.35-.53.7-.82 1.02-.3.33-.62.64-.95.94-.34.29-.69.57-1.05.83-.37.25-.75.49-1.14.71-.39.21-.79.41-1.2.58l3.17 7.6h-7.33l-2.62-6.42Zm6.34-11.44c-.2-.18-.41-.33-.64-.46-.23-.13-.47-.24-.73-.32-.25-.08-.51-.13-.77-.16-.26-.02-.53-.02-.79.01h-3.8l-1.91 7.08h3.8c.3.01.6 0 .9-.03.29-.03.59-.09.88-.16a5.977 5.977 0 0 0 1.64-.72c.22-.16.43-.33.61-.52.19-.19.36-.4.52-.62.15-.23.28-.46.39-.71.11-.24.2-.5.26-.76.08-.22.14-.44.16-.67.03-.23.03-.46-.01-.69a2.73 2.73 0 0 0-.52-1.27h.01Z"/>
  <path id="Layer" class="shp0" d="m387.05 158.83-1.43 5.28H366.2l6.53-24.18h19l-1.42 5.28h-12.2l-1.1 4.08h10.74l-1.38 5.11H375.6l-1.2 4.43h12.65Zm46.5-18.9-14.38 24.18h-7.32l-.66-14.72-8.81 14.72h-7.33l-1.31-24.18h7l.7 15.44 9.29-15.44h6.28l.67 15.58 9.29-15.58h6.58Z"/>
  <path id="Layer" fill-rule="evenodd" class="shp0" d="M446.11 159.42h-10.22l-3.17 4.69h-7l17.23-24.18h6.74l4.18 24.18h-7.12l-.64-4.69Zm-.64-5-1-7.74-5.2 7.74h6.2Zm22.64 3.27h-3.73l-1.74 6.42h-6.84l6.53-24.18h11.06c.46-.02.93-.01 1.39.03.46.04.92.1 1.37.19.46.09.91.21 1.35.35.44.15.87.32 1.29.51.33.16.64.34.93.56.3.21.57.45.81.72.25.27.47.55.67.86.19.31.36.63.49.97.13.38.22.78.28 1.18.07.39.1.8.1 1.2 0 .4-.03.81-.1 1.2-.06.4-.15.8-.28 1.18-.11.42-.25.84-.41 1.24-.16.41-.35.81-.55 1.19-.21.39-.44.76-.69 1.12-.26.35-.53.69-.82 1.02-.3.33-.62.64-.95.94a12.361 12.361 0 0 1-2.18 1.54c-.39.21-.79.41-1.2.58l3.17 7.6h-7.33l-2.62-6.42Zm5.69-11.9c-.23-.13-.47-.24-.72-.32-.25-.08-.51-.13-.77-.16-.26-.02-.53-.02-.79.01h-3.8l-1.92 7.08h3.8c.3.01.6 0 .9-.03.3-.03.59-.09.88-.17.29-.07.58-.17.85-.29.28-.12.55-.26.8-.42.22-.16.42-.33.61-.52.19-.2.36-.4.51-.63.15-.22.29-.45.4-.7.11-.24.19-.5.26-.76.08-.22.14-.44.17-.67.02-.23.02-.46-.01-.69-.03-.23-.1-.46-.18-.67a2.77 2.77 0 0 0-.35-.6c-.2-.18-.41-.33-.64-.46Zm14.15-5.86h11.44c.57-.02 1.15 0 1.72.05.57.05 1.14.14 1.69.26.56.13 1.12.29 1.65.48.54.2 1.07.43 1.58.69.42.22.82.48 1.19.78.38.29.72.62 1.03.98.31.36.58.75.82 1.16.24.42.44.85.59 1.3.16.52.28 1.04.37 1.58a10.84 10.84 0 0 1 0 3.23c-.09.54-.21 1.06-.37 1.58-.15.59-.34 1.17-.57 1.74-.22.56-.48 1.12-.76 1.66a16.598 16.598 0 0 1-2.09 2.99c-.41.46-.84.89-1.29 1.29-.45.41-.93.79-1.43 1.15-.49.35-1.01.68-1.54.98-.53.3-1.08.56-1.64.8-.59.25-1.19.47-1.8.65-.61.19-1.22.35-1.85.47-.62.12-1.26.22-1.89.28-.64.06-1.27.08-1.91.08h-11.52l6.58-24.18Zm6.1 18.72c.49.01.98-.02 1.46-.09a8.917 8.917 0 0 0 2.77-.89c.43-.23.85-.49 1.24-.78a8.631 8.631 0 0 0 2.02-2.16c.27-.41.51-.85.71-1.3.19-.46.35-.93.47-1.41.56-2.07.37-3.7-.57-4.87-.28-.31-.6-.59-.94-.83-.35-.23-.72-.43-1.11-.58-.39-.15-.79-.26-1.21-.32-.41-.06-.83-.07-1.25-.03h-4.32l-3.59 13.26h4.32Z"/>
  <path id="Layer" class="shp0" d="M512.77 163.87c-.36-.09-.72-.19-1.07-.32-.35-.12-.7-.27-1.03-.43-.34-.16-.67-.34-.98-.54-.32-.2-.63-.41-.92-.64l3.61-5.05c.25.19.5.37.76.54.27.17.54.33.81.47.28.15.56.28.85.4.29.12.58.23.88.32.32.11.65.2.98.29.33.08.66.15.99.2.34.06.68.1 1.01.13.34.02.68.04 1.02.04 2.63 0 4.12-.67 4.47-2a1.24 1.24 0 0 0-.04-.92c-.07-.14-.16-.27-.27-.37-.12-.11-.25-.19-.4-.25-.27-.12-.54-.23-.81-.33s-.55-.2-.82-.28c-.28-.09-.56-.17-.84-.25-.28-.07-.57-.14-.85-.2-.36-.08-.72-.16-1.07-.25-.36-.09-.71-.19-1.07-.29a31.643 31.643 0 0 1-2.08-.72c-.26-.1-.52-.23-.76-.37-.25-.15-.48-.32-.7-.5-.22-.18-.42-.38-.6-.6-.19-.22-.35-.45-.5-.69a4.88 4.88 0 0 1-.37-.96 4.96 4.96 0 0 1-.17-1.01c-.02-.35 0-.69.05-1.03.05-.34.13-.68.25-1 .1-.37.23-.74.38-1.1.15-.36.32-.71.51-1.04.19-.34.41-.67.64-.98.24-.31.49-.6.76-.88.31-.31.63-.6.97-.88.34-.28.69-.53 1.06-.77.37-.23.75-.45 1.14-.64.39-.2.79-.37 1.2-.52.49-.18.99-.33 1.5-.46s1.02-.24 1.54-.32c.52-.09 1.04-.15 1.56-.18.52-.04 1.05-.05 1.57-.04.38 0 .77.01 1.15.03.38.02.77.06 1.15.1.38.05.76.1 1.13.17.38.07.76.15 1.13.24.32.07.65.16.96.27.32.1.63.22.94.35.3.13.6.28.89.43.3.16.58.34.86.52l-3.48 5.08c-.46-.3-.94-.57-1.43-.8-.5-.23-1.01-.42-1.54-.58-.52-.16-1.05-.28-1.6-.36-.54-.08-1.08-.13-1.63-.13-.27-.02-.54-.01-.8 0a6.999 6.999 0 0 0-1.58.31c-.26.09-.51.19-.75.3-.16.08-.31.17-.46.28a2.686 2.686 0 0 0-.69.8c-.09.16-.16.32-.21.49a1.093 1.093 0 0 0 .06.87c.06.13.15.26.27.35.11.1.24.18.38.23.26.11.53.22.8.32.27.09.54.19.82.27.27.08.55.16.83.23.28.07.56.13.84.18.36.08.72.16 1.08.25.35.1.71.19 1.06.3.36.1.71.22 1.06.33.35.12.7.25 1.04.38.26.11.52.23.76.38a5.41 5.41 0 0 1 1.3 1.09c.18.21.35.44.5.68.16.3.29.63.38.96.1.33.16.67.18 1.01.02.35.01.69-.04 1.03-.05.34-.14.68-.26 1-.1.37-.23.73-.38 1.09-.14.35-.31.69-.51 1.03-.19.33-.4.65-.64.95-.23.31-.48.6-.75.87-.31.31-.63.6-.97.88-.34.27-.7.53-1.07.77-.36.23-.74.45-1.14.64-.39.2-.79.37-1.2.52-.49.18-.99.34-1.5.48-.5.14-1.01.25-1.53.34-.52.09-1.04.15-1.56.19-.52.04-1.05.06-1.57.05-.46 0-.92-.01-1.38-.05-.45-.03-.91-.07-1.37-.14-.45-.06-.9-.14-1.35-.23-.45-.1-.9-.21-1.34-.33Z"/>
  <path id="Layer" class="shp1" d="m29.62 78.89 3.33-19.07c1.21-4.84 3.21-9.44 5.93-13.63 2.71-4.18 6.11-7.88 10.04-10.95 3.93-3.07 8.35-5.46 13.06-7.09 4.72-1.62 9.67-2.44 14.66-2.44h20.31l3.43-13.77 3-11.94H70.15C63.1 0 56.09 1.17 49.42 3.47A63.6 63.6 0 0 0 30.95 13.5a63.643 63.643 0 0 0-14.2 15.49 63.927 63.927 0 0 0-8.38 19.28l-7.3 29.28a35.26 35.26 0 0 0-.28 15.83 35.27 35.27 0 0 0 6.69 14.36c3.29 4.21 7.5 7.62 12.31 9.96a35.256 35.256 0 0 0 15.43 3.56h37.91l7.61-24.93H43.25c-2.14.01-4.25-.47-6.17-1.4-1.92-.94-3.6-2.3-4.92-3.98a13.903 13.903 0 0 1-2.67-5.73c-.44-2.1-.39-4.26.13-6.33Z"/>
  <path id="Layer" fill-rule="evenodd" class="shp1" d="M174.06 80.26a53.935 53.935 0 0 1-7.13 16.37 54.023 54.023 0 0 1-12.07 13.16 54.023 54.023 0 0 1-15.7 8.52 54.105 54.105 0 0 1-17.61 2.95h-4.06c-4.88 0-9.69-1.11-14.07-3.25a32.015 32.015 0 0 1-11.22-9.08 32.01 32.01 0 0 1-6.11-13.09c-1.01-4.77-.93-9.71.25-14.44L90 66.71a53.935 53.935 0 0 1 7.13-16.37c3.27-5.03 7.35-9.48 12.07-13.16a54.023 54.023 0 0 1 15.7-8.52 54.105 54.105 0 0 1 17.61-2.95h4.06c4.88 0 9.69 1.11 14.07 3.25 4.38 2.14 8.22 5.25 11.22 9.09s5.09 8.31 6.1 13.08c1.01 4.77.93 9.71-.25 14.44l-3.65 14.69Zm-23.28-16.97c.43-1.72.46-3.51.1-5.25-.37-1.73-1.13-3.36-2.22-4.76-1.09-1.4-2.48-2.53-4.08-3.3-1.59-.78-3.34-1.19-5.11-1.19a22.308 22.308 0 0 0-13.79 4.76A22.274 22.274 0 0 0 120.7 59a22.534 22.534 0 0 0-2.94 6.79l-4.47 17.93c-.43 1.72-.46 3.52-.09 5.25.36 1.74 1.12 3.36 2.21 4.76 1.09 1.4 2.49 2.53 4.08 3.31 1.6.78 3.35 1.18 5.12 1.18 2.48 0 4.94-.41 7.29-1.22 2.34-.81 4.54-2.01 6.49-3.54a22.347 22.347 0 0 0 7.92-12.24l4.47-17.93Z"/>
  <path id="Layer" class="shp1" d="M248.69 25.71h-1.18c-13.09 0-25.32 6-25.32 6l1.5-6h-27.5L193.86 35l-3.43 13.77-12.31 49.39-5.76 23.08h27.5l5.76-23.08 9.74-39.06c.36-1.46.97-2.86 1.79-4.13.82-1.26 1.85-2.38 3.04-3.31 1.19-.93 2.53-1.66 3.95-2.15 1.43-.49 2.93-.74 4.44-.74h3.61c1.53 0 3.04.35 4.42 1.03 1.37.67 2.57 1.65 3.51 2.86a9.82 9.82 0 0 1 1.91 4.11c.32 1.49.29 3.05-.08 4.53l-9.19 36.88-5.76 23.08h27.5l5.76-23.08 10.89-43.7c.85-3.41.92-6.98.19-10.42-.73-3.44-2.24-6.67-4.4-9.44a23.232 23.232 0 0 0-8.1-6.56 23.036 23.036 0 0 0-10.15-2.35Zm197.05 56.12 3-12c.75-2.98 1.98-5.81 3.65-8.39 1.68-2.57 3.77-4.85 6.19-6.74 2.42-1.89 5.13-3.36 8.04-4.36 2.9-1 5.95-1.51 9.02-1.51h18.62L497.69 35l2.32-9.31h-21.76a58.76 58.76 0 0 0-19.18 3.21 58.682 58.682 0 0 0-17.08 9.28 58.975 58.975 0 0 0-13.14 14.33 59.016 59.016 0 0 0-7.75 17.83l-2.64 10.58a32.33 32.33 0 0 0-.26 14.61 32.4 32.4 0 0 0 6.17 13.24 32.41 32.41 0 0 0 11.35 9.2c4.43 2.16 9.3 3.29 14.23 3.29h26.23l5.77-23.08h-23.44c-2 0-3.97-.46-5.77-1.33a13.12 13.12 0 0 1-4.6-3.73 13.258 13.258 0 0 1-2.51-5.37c-.41-1.95-.37-3.98.11-5.92Zm91.52-56.12 3.43-13.77h-27.5l-3.43 13.77-2.32 9.29-3.43 13.77-12 48.18c-.72 2.88-.77 5.9-.16 8.8.62 2.91 1.9 5.64 3.73 7.99 1.83 2.34 4.17 4.23 6.85 5.53 2.67 1.3 5.61 1.98 8.58 1.97h28.34l5.75-23.08h-18.82a5.58 5.58 0 0 1-2.41-.57c-.75-.37-1.4-.9-1.91-1.56a5.54 5.54 0 0 1-1.05-2.25c-.17-.81-.16-1.66.04-2.47l10.6-42.52h25.91L560.85 35l2.32-9.31-25.91.02Zm-238.89 65.8L308.95 49h25.91l3.43-13.77 2.32-9.31h-25.88l3.43-13.76h-27.5l-3.43 13.76-2.28 9.3L281.48 49l-12 48.18c-.72 2.88-.77 5.9-.15 8.8a19.57 19.57 0 0 0 3.72 7.98c1.83 2.34 4.18 4.24 6.85 5.54 2.67 1.3 5.61 1.97 8.58 1.97h28.38l5.75-23.07h-18.86a5.547 5.547 0 0 1-4.37-2.13 5.49 5.49 0 0 1-1.05-2.27c-.18-.82-.16-1.67.04-2.49Z"/>
  <path id="Layer" fill-rule="evenodd" class="shp1" d="M398.16 25.71c3.41.01 6.78.79 9.85 2.29 3.06 1.5 5.75 3.67 7.84 6.36 2.1 2.69 3.56 5.83 4.27 9.16.71 3.34.65 6.8-.17 10.11l-11.12 44.55-5.76 23.08h-27.5l1-3.91c-5.69 1.91-13.13 3.91-17.23 3.91-6.58 0-42.72-4.86-29.25-34.21 12.15-26.47 40.74-26.69 60.63-26.47l.23-.91c.32-1.29.34-2.63.07-3.93-.28-1.3-.85-2.52-1.66-3.57a8.836 8.836 0 0 0-3.05-2.48 8.76 8.76 0 0 0-3.83-.9h-34.53L351.36 35l2.33-9.29h44.47Zm-11.49 51.2c-7.85-.13-18.63-.25-26.2 6.51-8.6 7.68-3.74 18.41 3.75 18 5.88-.31 9.88.61 17.64-5.23l4.81-19.28Z"/>
  <path id="Layer" class="shp0" d="M0 149.88h329.55l1.75-6.37H1.75L0 149.88Z"/>
  <path id="Layer" class="shp0" d="M30.3 149.88h71.32l1.75-6.37H32.06l-1.76 6.37Z"/>
  <path id="Layer" class="shp0" d="M0 149.88h32.86l1.75-6.37H1.75L0 149.88Z"/>
</svg>
