<svg width="177" height="233" viewBox="0 0 177 233" fill="none" xmlns="http://www.w3.org/2000/svg">
  <path d="M166.724 39.067 176.327.12h-40.014C125.109.12 28.809-8.683 21.607 124.697c-.534 8.269-1.068 58.953 68.023 58.953 5.335 0 34.946-.266 42.148-.266l10.137-38.947s-10.404.533-33.878.267c-24.542-.267-45.35 5.335-42.148-30.678.8-8.269 10.67-74.693 64.555-74.693h36.28v-.266Z" fill="#0F206C"/>
  <path d="m86.967 205.525-5.602 27.476h44.381l7.737-27.476H86.967Z" fill="#EE8F21"/>
  <path d="m89.351 205.525-5.602 27.476H41.615l5.068-27.476h42.668Z" fill="#F4B938"/>
  <path d="m46.683 205.525-5.069 27.476H0l6.135-27.476h40.548Z" fill="#EEE433"/>
</svg>
