<svg width="20" height="20" viewBox="0 0 20 20" fill="none" xmlns="http://www.w3.org/2000/svg">
<path d="M15 3.78291L14.9999 2.66697C14.9999 2.11469 14.5522 1.66699 13.9999 1.66699H12.5463C9.78486 1.66699 7.54629 3.90557 7.54629 6.66699V7.55223C7.54629 7.69031 7.43436 7.80223 7.29629 7.80223H6C5.44772 7.80223 5 8.24995 5 8.80223V10.0873C5 10.6396 5.44772 11.0873 6 11.0873H7.29636C7.43443 11.0873 7.54636 11.1992 7.54636 11.3373V17.3337C7.54636 17.8859 7.99407 18.3337 8.54636 18.3337H10.6203C11.1726 18.3337 11.6203 17.8859 11.6203 17.3337V11.3373C11.6203 11.1992 11.7323 11.0873 11.8703 11.0873H13.4907C14.043 11.0873 14.4907 10.6396 14.4907 10.0873V8.80223C14.4907 8.24995 14.043 7.80223 13.4907 7.80223H11.9506C11.6745 7.80223 11.4506 7.57838 11.4506 7.30223V6.78293C11.4506 5.67837 12.346 4.78293 13.4506 4.78293H14C14.5523 4.78293 15 4.33521 15 3.78291Z" stroke="black" stroke-linecap="round" stroke-linejoin="round"/>
</svg>
