<svg width="20" height="20" viewBox="0 0 20 20" fill="none" xmlns="http://www.w3.org/2000/svg">
<path d="M1.5 2.26951L1.5 17.7305M1.5 2.26951C1.5 1.30225 2.57703 0.691334 3.45236 1.16211M1.5 2.26951C1.5 1.80775 1.74546 1.42718 2.09726 1.20676M3.45236 1.16211L17.8259 8.89259M3.45236 1.16211L14.0323 6.85225M3.45236 1.16211C2.99492 0.916082 2.48237 0.965471 2.09726 1.20676M3.45236 18.8379L17.8259 11.1074M3.45236 18.8379C2.57703 19.3087 1.5 18.6978 1.5 17.7305M3.45236 18.8379C2.93353 19.1169 2.34387 19.016 1.9496 18.686M3.45236 18.8379L14.1998 13.0576M1.5 17.7305C1.5 18.1244 1.67866 18.4593 1.9496 18.686M17.8259 11.1074C18.7247 10.624 18.7247 9.37597 17.8259 8.89259M17.8259 11.1074L14.1998 13.0576M17.8259 8.89259L14.0323 6.85225M1.9496 18.686L10.9154 9.87381M10.9154 9.87381L2.09726 1.20676M10.9154 9.87381L14.1998 13.0576M10.9154 9.87381L14.0323 6.85225" stroke="black"/>
</svg>
