<svg width="20" height="20" viewBox="0 0 20 20" fill="none" xmlns="http://www.w3.org/2000/svg">
<path fill-rule="evenodd" clip-rule="evenodd" d="M6.5 2C4.01472 2 2 4.01472 2 6.5V13.5C2 15.9853 4.01472 18 6.5 18H13.5C15.9853 18 18 15.9853 18 13.5V6.5C18 4.01472 15.9853 2 13.5 2H6.5ZM3 6.5C3 4.567 4.567 3 6.5 3H13.5C15.433 3 17 4.567 17 6.5V13.5C17 15.433 15.433 17 13.5 17H6.5C4.567 17 3 15.433 3 13.5V6.5ZM7.16667 10C7.16667 8.43519 8.43519 7.16667 10 7.16667C11.5648 7.16667 12.8333 8.43519 12.8333 10C12.8333 11.5648 11.5648 12.8333 10 12.8333C8.43519 12.8333 7.16667 11.5648 7.16667 10ZM10 6.16667C7.88291 6.16667 6.16667 7.88291 6.16667 10C6.16667 12.1171 7.88291 13.8333 10 13.8333C12.1171 13.8333 13.8333 12.1171 13.8333 10C13.8333 7.88291 12.1171 6.16667 10 6.16667ZM14.375 6.66667C14.9503 6.66667 15.4167 6.2003 15.4167 5.625C15.4167 5.0497 14.9503 4.58333 14.375 4.58333C13.7997 4.58333 13.3333 5.0497 13.3333 5.625C13.3333 6.2003 13.7997 6.66667 14.375 6.66667Z" fill="black"/>
</svg>
