<svg width="60" height="60" viewBox="0 0 60 60" fill="none" xmlns="http://www.w3.org/2000/svg">
  <path d="M59 52H1a1 1 0 0 0-1 1v4a1 1 0 0 0 1 1h58a1 1 0 0 0 1-1v-4a1 1 0 0 0-1-1Zm-1 4H2v-2h56v2Zm.97-37.243-3-12A1.001 1.001 0 0 0 55 6H5a1 1 0 0 0-.97.757l-3 12A1.001 1.001 0 0 0 2 20h56a1 1 0 0 0 .97-1.243ZM3.281 18l2.5-10h48.438l2.5 10H3.281Z" fill="#0F206C"/>
  <path d="M33 19v2c0 1.654-1.346 3-3 3s-3-1.346-3-3v-2h-2v2c0 2.757 2.243 5 5 5s5-2.243 5-5v-2h-2Z" fill="#0F206C"/>
  <path d="M25 19v2c0 1.654-1.346 3-3 3s-3-1.346-3-3v-2h-2v2c0 2.757 2.243 5 5 5s5-2.243 5-5v-2h-2Z" fill="#0F206C"/>
  <path d="M17 19v2c0 1.654-1.346 3-3 3s-3-1.346-3-3v-2H9v2c0 2.757 2.243 5 5 5s5-2.243 5-5v-2h-2Z" fill="#0F206C"/>
  <path d="M9 19v2c0 1.654-1.346 3-3 3s-3-1.346-3-3v-2H1v2c0 2.757 2.243 5 5 5s5-2.243 5-5v-2H9Zm48 0v2c0 1.654-1.346 3-3 3s-3-1.346-3-3v-2h-2v2c0 2.757 2.243 5 5 5s5-2.243 5-5v-2h-2Z" fill="#0F206C"/>
  <path d="M49 19v2c0 1.654-1.346 3-3 3s-3-1.346-3-3v-2h-2v2c0 2.757 2.243 5 5 5s5-2.243 5-5v-2h-2Z" fill="#0F206C"/>
  <path d="M41 19v2c0 1.654-1.346 3-3 3s-3-1.346-3-3v-2h-2v2c0 2.757 2.243 5 5 5s5-2.243 5-5v-2h-2ZM27 7h-2v12h2V7Zm8 0h-2v12h2V7Zm-16.998-.078-.999 11.997 1.993.166 1-11.997-1.994-.166Zm-6.986-.087-2.002 12 1.972.33 2.003-12-1.973-.33Z" fill="#0F206C"/>
  <path d="M41.991 6.918 40 7.084l1 11.997 1.992-.166-1-11.997Zm6.997-.083-1.973.33 2 12 1.973-.33-2-12Z" fill="#0F206C"/>
  <path d="M55 2H5a1 1 0 0 0-1 1v4h2V4h48v3h2V3a1 1 0 0 0-1-1ZM6 25H4v27h2V25Zm50 0h-2v28h2V25Z" fill="#0F206C"/>
  <path d="M37 30H9a1 1 0 0 0-1 1v16a1 1 0 0 0 1 1h28a1 1 0 0 0 1-1V31a1 1 0 0 0-1-1Zm-1 16H10V32h26v14Z" fill="#EE8F21"/>
  <path d="M51 30H41a1 1 0 0 0-1 1v22a1 1 0 0 0 1 1h10a1 1 0 0 0 1-1V31a1 1 0 0 0-1-1Zm-1 22h-8V32h8v20Z" fill="#0F206C"/>
  <path d="m18.296 34.292-4 4 1.415 1.414 4-4-1.415-1.414Zm6.999-1.002-9 9 1.415 1.414 9-9-1.415-1.414Zm1.996 5.003-4 4 1.414 1.414 4-4-1.414-1.414Z" fill="#EE8F21"/>
</svg>
