<svg width="20" height="20" viewBox="0 0 20 20" fill="none" xmlns="http://www.w3.org/2000/svg">
<path d="M10.953 3.09556C10.953 2.69658 10.953 2.49709 11.0091 2.33671C11.1097 2.04947 11.3355 1.82362 11.6228 1.72311C11.7831 1.66699 11.9826 1.66699 12.3816 1.66699H12.8842C13.3956 1.66699 13.8102 2.08154 13.8102 2.59292V2.59292C13.8102 3.5878 14.3481 4.46052 15.1567 4.95112C15.9294 5.41999 16.3158 5.65443 16.4163 5.76805C16.5607 5.93133 16.5577 5.92588 16.6223 6.13408C16.6673 6.27895 16.6673 6.5053 16.6673 6.958V6.958C16.6673 7.35403 16.6673 7.55205 16.568 7.72532C16.4867 7.86717 16.3076 8.01331 16.1523 8.06455C15.9627 8.12713 15.8034 8.09455 15.4848 8.02937C15.1744 7.96587 14.8732 7.87786 14.5836 7.76753C14.2122 7.62605 14.0264 7.55531 13.9183 7.62984C13.8102 7.70436 13.8102 7.8896 13.8102 8.26009V13.2411C13.8102 16.0536 11.465 18.3337 8.57208 18.3337C5.67916 18.3337 3.33398 16.0536 3.33398 13.2411C3.33398 10.8908 4.97164 8.91231 7.19808 8.32548C7.39332 8.27401 7.49094 8.24828 7.66975 8.26583C7.99446 8.2977 8.39596 8.60709 8.50954 8.91295C8.57208 9.08138 8.57208 9.23338 8.57208 9.53736V9.53736C8.57208 9.85578 8.57208 10.015 8.55332 10.1105C8.49042 10.4306 8.50099 10.4112 8.26609 10.6376C8.19603 10.7052 7.88307 10.9071 7.25715 11.311C6.61468 11.7255 6.19113 12.4352 6.19113 13.2411C6.19113 14.5195 7.25712 15.5559 8.57208 15.5559C9.88704 15.5559 10.953 14.5195 10.953 13.2411V3.09556Z" stroke="black"/>
</svg>
