<svg width="49" height="65" viewBox="0 0 49 65" fill="none" xmlns="http://www.w3.org/2000/svg">
  <path d="M47.189 63.914a1.317 1.317 0 0 0 .852-1.394V5.5A5.269 5.269 0 0 0 42.928 0H5.122A5.268 5.268 0 0 0 .008 5.5v57.02a1.55 1.55 0 0 0 .853 1.55 1.704 1.704 0 0 0 1.704-.31l5.655-5.27h.078l6.818 6.043a1.394 1.394 0 0 0 1.007.465 1.55 1.55 0 0 0 1.162-.465l6.662-6.043h.155l6.663 6.043a1.782 1.782 0 0 0 2.246 0l6.74-6.043c.078 0 .078-.155.156-.077l5.655 5.113h-.078a1.161 1.161 0 0 0 1.705.387Zm-6.275-6.585a1.627 1.627 0 0 0-2.17 0l-6.817 6.043c0 .078-.078.078-.078 0l-6.74-6.043a1.627 1.627 0 0 0-2.169 0l-6.74 6.043c0 .078-.077.078-.077 0L9.305 57.33a1.472 1.472 0 0 0-1.085-.387 1.86 1.86 0 0 0-1.084.387l-5.733 5.268h.155V5.501a3.719 3.719 0 0 1 3.564-3.952h37.806a3.719 3.719 0 0 1 3.564 3.952V62.52c0 .077.155.077.077.077l-5.655-5.268Z" fill="#0F206C"/>
  <path d="M10.002 37.187h14.333a.775.775 0 1 0 0-1.55H10.002a.775.775 0 1 0 0 1.55Zm28.045 5.423H10.002a.775.775 0 1 0 0 1.549h28.045a.774.774 0 1 0 0-1.55Zm0 6.198H10.002a.775.775 0 1 0 0 1.55h28.045a.775.775 0 0 0 0-1.55Z" fill="#0F206C"/>
  <path d="M18.215 17.276a4.415 4.415 0 1 0-4.416-4.416 4.493 4.493 0 0 0 4.416 4.416Zm0-7.282a2.866 2.866 0 1 1-2.867 2.866 2.944 2.944 0 0 1 2.867-2.866Zm11.62 10.071a4.415 4.415 0 1 0 4.416 4.416 4.493 4.493 0 0 0-4.416-4.416Zm0 7.282a2.866 2.866 0 1 1 2.867-2.866 2.944 2.944 0 0 1-2.867 2.866Zm-14.41-.077c.148.14.34.222.543.233a.696.696 0 0 0 .542-.233l16.579-16.579a.774.774 0 0 0-1.085-1.084L15.425 26.186a.775.775 0 0 0 0 1.084Z" fill="#EE8F21"/>
</svg>
