<svg width="137" height="100" viewBox="0 0 137 100" fill="none" xmlns="http://www.w3.org/2000/svg">
  <path d="M126.78 0H9.584C4.3 0 0 4.3 0 9.584v80.832C0 95.7 4.3 100 9.584 100H126.78c5.284 0 9.584-4.3 9.584-9.584V9.584c0-5.284-4.3-9.584-9.584-9.584Zm5.038 90.416a5.043 5.043 0 0 1-5.038 5.038H9.584a5.043 5.043 0 0 1-5.039-5.038V9.584c0-2.78 2.26-5.039 5.04-5.039H126.78a5.043 5.043 0 0 1 5.038 5.04v80.83Z" fill="#736F6F"/>
  <path d="m51.45 64.195-8.268-4.223v-.88c3.7-2.02 6.302-5.347 7.754-9.917a6.764 6.764 0 0 0 3.61-5.994V40.91c0-2.105-.98-4.057-2.616-5.339-1.419-8.59-7.414-12.945-17.84-12.945-.492 0-.974.018-1.445.054-1.963.162-4.838-.009-7.327-1.682-.93-.627-1.632-1.236-2.08-1.802a2.71 2.71 0 0 0-3.186-.848 2.698 2.698 0 0 0-1.668 2.834c.096.85.239 1.839.455 2.923.438 2.216.438 2.216-.178 3.541-.231.502-.518 1.114-.854 1.939-.752 1.843-1.287 3.861-1.593 6.016a6.784 6.784 0 0 0-2.578 5.309v2.272a6.763 6.763 0 0 0 3.61 5.994c1.452 4.572 4.054 7.9 7.754 9.918v.854l-8.566 4.223a9.721 9.721 0 0 0-5.07 8.54v3.012c0 1.825 0 6.096 22.727 6.096s22.727-4.27 22.727-6.096v-2.83a9.677 9.677 0 0 0-5.368-8.697Zm.823 11.014c-1.418.863-7.187 2.063-18.182 2.063-10.995 0-16.764-1.2-18.182-2.063V72.71c0-1.898 1.034-3.643 2.618-4.505l8.766-4.32a4.038 4.038 0 0 0 2.25-3.61V56.18l-1.372-.59c-3.448-1.487-5.69-4.321-6.853-8.669l-.325-1.211-1.195-.373c-.95-.298-1.616-1.182-1.616-2.155V40.91c0-.823.47-1.587 1.23-1.991l1.065-.568.125-1.203c.225-2.131.7-4.097 1.414-5.84.302-.74.559-1.291.768-1.744.77-1.654 1.05-2.509.857-4.261 2.673 1.527 5.884 2.177 9.368 1.911.352-.03.714-.043 1.084-.043 8.51 0 12.664 3.082 13.475 9.995l.141 1.187 1.057.559c.759.404 1.234 1.17 1.234 1.998v2.272c0 .973-.666 1.857-1.618 2.153l-1.196.372-.325 1.212c-1.163 4.348-3.404 7.182-6.852 8.668l-1.373.593v4.116a4 4 0 0 0 2.191 3.58l8.58 4.384a5.15 5.15 0 0 1 2.866 4.634v2.316Zm15.909-41.118h22.727a2.27 2.27 0 0 0 2.273-2.272 2.27 2.27 0 0 0-2.273-2.273H68.182a2.27 2.27 0 0 0-2.273 2.273 2.27 2.27 0 0 0 2.273 2.272Zm31.818 0h2.273a2.27 2.27 0 0 0 2.272-2.272 2.27 2.27 0 0 0-2.272-2.273H100a2.27 2.27 0 0 0-2.273 2.273A2.27 2.27 0 0 0 100 34.09ZM70.454 68.182h-2.272a2.27 2.27 0 0 0-2.273 2.272 2.27 2.27 0 0 0 2.273 2.273h2.272a2.27 2.27 0 0 0 2.273-2.273 2.27 2.27 0 0 0-2.273-2.272Zm13.636 0h-4.545a2.27 2.27 0 0 0-2.272 2.272 2.27 2.27 0 0 0 2.272 2.273h4.546a2.27 2.27 0 0 0 2.273-2.273 2.27 2.27 0 0 0-2.273-2.272Zm11.364 0h-2.272a2.27 2.27 0 0 0-2.273 2.272 2.27 2.27 0 0 0 2.273 2.273h2.272a2.27 2.27 0 0 0 2.273-2.273 2.27 2.27 0 0 0-2.273-2.272Zm13.637 0h-4.546a2.27 2.27 0 0 0-2.272 2.272 2.27 2.27 0 0 0 2.272 2.273h4.546a2.27 2.27 0 0 0 2.273-2.273 2.27 2.27 0 0 0-2.273-2.272Zm7.477.66a2.377 2.377 0 0 0-.659 1.613c0 .591.248 1.182.659 1.614.43.409 1.023.659 1.614.659.591 0 1.182-.25 1.613-.66.41-.43.66-1.022.66-1.613 0-.59-.25-1.184-.66-1.613-.863-.841-2.386-.841-3.227 0Zm1.614-25.66h-50a2.27 2.27 0 0 0-2.273 2.272 2.27 2.27 0 0 0 2.273 2.273h50a2.27 2.27 0 0 0 2.273-2.273 2.27 2.27 0 0 0-2.273-2.272Zm0 13.636h-50a2.27 2.27 0 0 0-2.273 2.273 2.27 2.27 0 0 0 2.273 2.273h50a2.27 2.27 0 0 0 2.273-2.273 2.27 2.27 0 0 0-2.273-2.273Z" fill="#EE8F21"/>
</svg>
