<svg width="70" height="65" viewBox="0 0 70 65" fill="none" xmlns="http://www.w3.org/2000/svg">
  <path d="M20.199 54.898c-5.535 0-9.126 2.313-9.854 6.345-.111.62-.138 2.3-.138 2.516a1.24 1.24 0 1 0 2.48 0c0-.558.05-1.796.1-2.077.642-3.556 4.385-4.303 7.412-4.303 2.092 0 7.01.461 7.476 4.731.018.166.032.953.032 1.38a1.24 1.24 0 1 0 2.481 0c0-.013-.002-1.249-.046-1.648-.474-4.347-4.193-6.944-9.943-6.944Zm5.794-8.248c0-3.615-2.383-6.141-5.794-6.141-3.408 0-5.79 2.526-5.79 6.141 0 3.773 2.598 6.842 5.79 6.842 3.196 0 5.794-3.069 5.794-6.842Zm-9.102 0c0-2.223 1.298-3.66 3.308-3.66 2.013 0 3.313 1.436 3.313 3.66 0 2.405-1.486 4.36-3.313 4.36-1.825.001-3.308-1.955-3.308-4.36Zm49.79-22.958h-2.585v-9.429a6.21 6.21 0 0 0-6.203-6.203H5.27a2.792 2.792 0 0 1-2.79-2.79 2.792 2.792 0 0 1 2.79-2.788h51.384a1.24 1.24 0 1 0 0-2.481H5.27A5.276 5.276 0 0 0 0 5.27v45.528a6.21 6.21 0 0 0 6.203 6.203h1.81a1.24 1.24 0 1 0 0-2.481h-1.81a3.726 3.726 0 0 1-3.722-3.722V9.734c.81.508 1.764.807 2.789.807h52.623a3.726 3.726 0 0 1 3.722 3.722v9.429H50.76a2.898 2.898 0 0 0-2.895 2.894v11.889a2.898 2.898 0 0 0 2.895 2.895h10.855v9.428a3.726 3.726 0 0 1-3.722 3.722h-25.07a1.24 1.24 0 1 0 0 2.48h25.07a6.21 6.21 0 0 0 6.203-6.202V41.37h2.585a2.898 2.898 0 0 0 2.894-2.895V26.586c0-1.596-1.3-2.894-2.894-2.894Zm.413 14.783a.414.414 0 0 1-.413.413H50.76a.414.414 0 0 1-.414-.413V26.586c0-.228.187-.413.414-.413h15.92c.228 0 .414.185.414.413v11.889ZM54.43 28.369a1.24 1.24 0 0 0-1.241 1.24v5.842a1.24 1.24 0 1 0 2.481 0V29.61a1.24 1.24 0 0 0-1.24-1.24ZM56.653 4.03H6.203a1.24 1.24 0 1 0 0 2.481h50.451a1.24 1.24 0 1 0 0-2.48Z" fill="#0F206C"/>
  <path d="M20.199 54.898c-5.535 0-9.126 2.313-9.854 6.345-.111.62-.138 2.3-.138 2.516a1.24 1.24 0 1 0 2.48 0c0-.558.05-1.796.1-2.077.642-3.556 4.385-4.303 7.412-4.303 2.092 0 7.01.461 7.476 4.731.018.166.032.953.032 1.38a1.24 1.24 0 1 0 2.481 0c0-.013-.002-1.249-.046-1.648-.474-4.347-4.193-6.944-9.943-6.944Zm5.794-8.248c0-3.615-2.383-6.141-5.794-6.141-3.408 0-5.79 2.526-5.79 6.141 0 3.773 2.598 6.842 5.79 6.842 3.196 0 5.794-3.069 5.794-6.842Zm-9.102 0c0-2.223 1.298-3.66 3.308-3.66 2.013 0 3.313 1.436 3.313 3.66 0 2.405-1.486 4.36-3.313 4.36-1.825.001-3.308-1.955-3.308-4.36ZM56.654 4.03H6.203a1.24 1.24 0 1 0 0 2.481h50.451a1.24 1.24 0 1 0 0-2.48Z" fill="#EE8F21"/>
</svg>
