<svg width="44" height="51" viewBox="0 0 44 51" fill="none" xmlns="http://www.w3.org/2000/svg">
  <path d="M22.882 28.38v11.147l1.175-1.175H16.88c-1.516 0-1.516 2.35 0 2.35h7.177c.634 0 1.175-.54 1.175-1.175V28.38c0-1.516-2.35-1.516-2.35 0ZM2.35 39.516V1.375L1.174 2.55H24.22l-1.174-1.175v11.147c0 1.516 2.349 1.516 2.349 0V1.375A1.192 1.192 0 0 0 24.22.2H1.175C.54.2 0 .74 0 1.375v38.141c0 1.515 2.35 1.515 2.35 0Z" fill="#0F206C"/>
  <path d="m.623 2.408 13.743 6.837c.634.317 1.28.634 1.915.951-.2-.34-.388-.681-.588-1.01v39.832c.588-.34 1.175-.681 1.762-1.01a8569.963 8569.963 0 0 0-13.743-8.305c-.658-.399-1.316-.798-1.962-1.186C.458 37.73-.728 39.762.564 40.549a8604.55 8604.55 0 0 0 13.743 8.305c.658.4 1.316.799 1.962 1.186.763.458 1.762-.129 1.762-1.01V9.198c0-.388-.223-.834-.587-1.01L3.7 1.35C3.066 1.034 2.42.717 1.785.4.458-.294-.728 1.727.623 2.408Z" fill="#0F206C"/>
  <path d="m32.785 16.213 7.999 5.004c.376.235.763.481 1.14.716.199-.728.399-1.456.587-2.185H24.233c-1.515 0-1.515 2.35 0 2.35h18.278c1.186 0 1.562-1.574.587-2.185l-8-5.004c-.375-.235-.763-.482-1.139-.717-1.269-.822-2.455 1.21-1.175 2.02Z" fill="#EE8F21"/>
  <path d="M41.923 19.91c-2.666 1.88-5.333 3.748-8.01 5.627-.377.27-.753.529-1.14.799-.517.364-.764 1.022-.423 1.61.305.516 1.08.786 1.61.422 2.666-1.88 5.332-3.747 8.01-5.627.376-.27.752-.528 1.14-.798.517-.364.763-1.022.422-1.61-.293-.516-1.08-.787-1.609-.422Z" fill="#EE8F21"/>
</svg>
