<svg xmlns="http://www.w3.org/2000/svg" width="66.566" height="17.86" viewBox="0 0 66.566 17.86">
  <defs>
    <clipPath id="a">
      <path fill="#fff" d="M9 31h66.566v17.86H9z"/>
    </clipPath>
  </defs>
  <g clip-path="url(#a)" transform="translate(-9 -31)">
    <path d="M44.738 31.074h-7.21l-.828 3.237h7.21Zm-22.053 0h-6.9l-.828 3.237h6.9Z" fill="#061f70"/>
    <path d="M57.669 46.285H9.313L9 48.731h48.08Z" fill="#e68721"/>
    <path d="m62.69 46.285-.625 2.446h6.787l.515-2.446Z" fill="#ecb138"/>
    <path d="m68.834 46.285-.607 2.446h3.7l.515-2.446Z" fill="#e6db30"/>
    <path d="M53.99 31.074h-3.807l-.828 3.237h3.807Zm-1.048 4.708h-3.09l-.952 3.753c-.258.993-.5 2.226-3.384 2.226-1.416 0-2.244-.349-2.593-1.03a2.235 2.235 0 0 1 .055-1.582l.846-3.348h-3.537l-.846 3.348c-.018.092-.055.2-.074.294l-.018.11c-.276 1.067-.147 2.134-2.17 2.134h-4.01c-.221-2.1-2.17-4.065-3.292-5.316a22.362 22.362 0 0 1-.9-1.067c3.219-1.692 5.058-.938 5.113-.957L34.935 31a18.612 18.612 0 0 0-7.56 1.858 3.681 3.681 0 0 0-1.858 2.023c-.5 1.527.5 2.649 1.655 3.918A9.844 9.844 0 0 1 29.2 41.65h-6.75a7.27 7.27 0 0 0 .92-2.281l.92-3.587H21.2l-.92 3.587c-.258.993-.589 2.226-3.476 2.226-1.416 0-2.336-.35-2.685-1.03a2.355 2.355 0 0 1-.055-1.582l.809-3.2H11.63l-.809 3.2c-.662 2.612.166 5.647 4.69 5.831h19.608A7.835 7.835 0 0 0 40.2 43.4c.809.938 2.207 1.582 4.414 1.582a7.483 7.483 0 0 0 5.786-2.265 6.8 6.8 0 0 0 1.6-3.2Zm15.064-2.924a3.681 3.681 0 0 0-1.858 2.023c-.5 1.527.5 2.649 1.655 3.918a10.209 10.209 0 0 1 2.023 2.851h-6.915l.368-1.619a9.293 9.293 0 0 0 .294-1.269l.018-.074a5.329 5.329 0 0 0 .092-.846A3.742 3.742 0 0 0 59.692 34h-.037a5.931 5.931 0 0 0-4.414 1.766 8.91 8.91 0 0 0-2.226 5.408c.055 3.366 2.869 3.715 4.065 3.715h.147a8.566 8.566 0 0 0 1.214-.092v.018c.074-.018.129-.037.184-.055.129-.018.239-.055.349-.074l-1.067 4.194h3.219l1.012-3.973h10.485l.423-1.674c.791-3.072-1.159-5.279-2.612-6.879-.294-.331-.607-.736-.864-1.067 3.237-1.692 5.058-.938 5.113-.957l.883-3.33a18.961 18.961 0 0 0-7.56 1.858Zm-11.238 8.847a1.377 1.377 0 0 1-.313-1.085c0-.037.423-3.715 2.869-3.715a1.165 1.165 0 0 1 1.214 1.287c0 .386-.589 3.789-3 3.918a1.3 1.3 0 0 1-.77-.405Z" fill="#061f70"/>
  </g>
</svg>
