<svg width="162" height="43" viewBox="0 0 162 43" fill="none" xmlns="http://www.w3.org/2000/svg">
  <path fill-rule="evenodd" clip-rule="evenodd" d="M43.864 7.21c-14.326 0-16.344 15.508-16.295 17.674.147 9.353 9.304 8.96 10.19 8.96 14.917-.05 15.803-16.886 15.803-17.379-.147-9.403-9.009-9.255-9.698-9.255Zm-5.366 20.48c-.296 0-3.545-.492-3.25-4.283.148-1.576 1.724-9.846 7.779-9.846 1.477 0 3.495.787 3.545 3.692 0 .59-1.231 10.142-8.074 10.437Z" fill="#0F206C"/>
  <path d="m112.245 21.437-1.231 5.07s-1.821 1.822-4.431 1.822c-.689 0-2.904 0-2.953-2.067-.05-5.465 8.615-4.825 8.615-4.825Zm1.132-4.677s-6.104-.492-11.126 1.625c-3.692 1.575-6.695 4.726-6.695 9.797 0 1.427 1.772 5.366 7.089 5.612.197 0 4.578.246 6.991-1.379l-.345 1.428h7.532s2.708-9.846 4.825-19.938c.049-.295 1.132-7.04-10.339-6.597-1.427.05-6.203-.05-8.615-.05l-1.575 6.4h7.827c6.203-.048 4.923 3.102 4.431 3.102ZM30.769 7.21 32.54.022h-7.385c-2.067 0-19.84-1.625-21.169 22.99-.098 1.527-.196 10.88 12.554 10.88.985 0 6.45-.049 7.779-.049l1.87-7.187s-1.92.098-6.252.049c-4.53-.05-8.37.984-7.778-5.662.147-1.526 1.969-13.784 11.913-13.784h6.696v-.05Zm21.218 26.633h7.779s4.233-17.427 4.332-17.87c.098-.444.984-2.314 4.381-2.314.985 0 3.2.295 3.003 3.052-.049.935-4.086 17.181-4.086 17.181h7.582s4.283-16.787 4.48-17.92c.049-.344 1.969-7.926-5.465-8.615-.935-.098-3.15-.492-8.074 1.33l.296-1.379h-7.533l-6.695 26.535Zm33.23-30.621H92.8l-.887 3.987L99.2 7.16l-1.576 6.4H90.19s-2.51 10.388-2.658 10.83c-.197.69-1.083 3.2 2.462 3.2 1.378 0 4.086-.049 4.086-.049l-1.477 6.203H86.89c-.935 0-8.27.345-7.778-5.513.197-1.084 6.104-25.01 6.104-25.01Zm62.473 0h7.582l-.886 3.987h7.286l-.443 1.92-1.083 4.48h-7.385s-2.511 10.388-2.658 10.83c-.197.69-1.083 3.2 2.461 3.2 1.379 0 4.086-.048 4.086-.048l-1.477 6.203h-5.71c-.936 0-8.271.344-7.779-5.514.099-1.133 6.006-25.058 6.006-25.058Zm-5.513 10.388h-4.825c-7.827 0-8.517 8.516-8.517 9.895.099 4.332 3.446 4.135 4.923 4.135h5.071l-1.477 6.252h-5.661c-11.126 0-11.028-8.172-10.929-9.206C122.485 6.373 138.041 7.26 138.534 7.26h5.267l-1.624 6.35Z" fill="#0F206C"/>
  <path d="M21.267 37.93 20.233 43H152.86l1.428-5.07H21.267Z" fill="#EE8F21"/>
  <path d="M21.267 37.93 20.233 43H7.68l.935-5.07h12.652Z" fill="#F4B938"/>
  <path d="M8.615 37.93 7.68 43H0l1.132-5.07h7.483Z" fill="#EEE433"/>
</svg>
