<svg width="48" height="48" viewBox="0 0 48 48" fill="none" xmlns="http://www.w3.org/2000/svg">
  <path d="M37.602 8.419c-3.194-2.186-7.243-3.303-11.748-3.303-1.483 0-2.852.14-3.993.28C20.95 4.511 19.637 4 18.211 4c-1.653 0-3.193.698-4.049 1.86l-6.444 8.466c-.628.837-.742 1.86-.228 2.744.228.465.627.883 1.14 1.21-.97.93-2.167 2.371-3.137 4.139C3.554 25.907 2.13 34 10.398 39.58c3.194 2.186 7.243 3.303 11.748 3.303 1.483 0 2.852-.14 3.993-.28.912.884 2.224 1.396 3.65 1.396 1.653 0 3.193-.698 4.049-1.86l6.444-8.466c.628-.837.742-1.86.229-2.744-.229-.465-.628-.883-1.141-1.21.97-.93 2.167-2.371 3.137-4.139C44.446 22.047 45.87 14 37.602 8.42Z" fill="#0F206C"/>
  <path d="M12.736 37.257c6.673 4.512 15.399 1.814 15.399 1.814l.627 1.302c.342.698 1.483.79 1.996.14l6.445-8.465-11.92-2c-.627-.093-1.14.372-.97.837l.571 1.674c-2.794 1.303-6.673.512-6.673.512 0-3.535 2.11-6.186 3.48-7.535.57-.558.399-1.349-.343-1.767l-.456-.28-7.015-3.814c-.684-.372-1.597-.279-2.167.233-.799.79-1.996 2.047-2.909 3.721-1.368 2.558-2.794 9.116 3.935 13.628Z" fill="url(#paint0_linear)"/>
  <path d="m21.348 23.815-7.471-4.14c-.684-.372-1.597-.279-2.167.233-.799.79-1.996 2.047-2.909 3.721-.114.233-.228.465-.342.744 1.711 5.582 6.673 7.907 9.695 8.79 0-3.534 2.11-6.185 3.48-7.534.57-.605.398-1.395-.286-1.814Z" fill="url(#paint1_linear)"/>
  <path d="M35.264 10.697C28.59 6.185 19.865 8.883 19.865 8.883l-.627-1.303c-.342-.697-1.483-.79-1.996-.14l-6.445 8.466 11.92 2c.627.093 1.14-.372.97-.837l-.57-1.675c2.794-1.302 6.672-.511 6.672-.511 0 3.535-2.11 6.186-3.48 7.535-.57.558-.398 1.348.343 1.767l.456.279 7.015 3.907c.684.372 1.597.28 2.167-.233.799-.79 1.996-2.046 2.909-3.72 1.369-2.652 2.794-9.21-3.935-13.721Z" fill="url(#paint2_linear)"/>
  <path d="m35.663 16.42-1.597-6.466c-3.023-1.628-6.33-1.953-9.011-1.86 0 0 3.422 2.744 2.795 6.511 1.14.047 1.939.233 1.939.233a8.49 8.49 0 0 1-.514 2.976c2.453.047 6.388-1.395 6.388-1.395Z" fill="#CA7600"/>
  <path d="M35.264 10.698c-3.365-2.279-7.186-2.697-10.209-2.604 0 0 4.391 1.535 4.79 6.697 0 3.535-2.11 6.187-3.478 7.535-.57.559-.4 1.35.342 1.768l.456.279 7.015 3.907c.684.372 1.597.279 2.167-.233.799-.79 1.996-2.046 2.909-3.72 1.312-2.559 2.737-9.117-3.992-13.629Z" fill="url(#paint3_linear)"/>
  <path d="M39.313 15.113c.285 4.79-1.54 8.233-2.966 10.14-.97-.372-2.167-.186-2.851.418l-3.137-1.86c.228-.326.342-.651.342-1.023 0-.605-.285-1.163-.855-1.535 1.026-1.535 2.167-3.907 1.996-6.791-.171-2.884-1.996-4.93-3.536-6.233-.513-.046-.97-.093-1.483-.14 1.597 1.07 3.992 3.21 4.163 6.373.171 2.884-1.026 5.21-2.053 6.698l-.228.279.342.186c.456.279.742.697.742 1.163 0 .325-.114.65-.4.883l-.285.28 4.563 2.697.228-.326c.513-.604 1.597-.79 2.281-.325l.4.232.227-.325c1.255-1.582 2.91-4.372 3.308-8.326-.114-.79-.399-1.628-.798-2.465Z" fill="#FFE79B"/>
  <path d="M35.264 10.698c-.628-.419-1.255-.744-1.882-1.07-.799.884-1.141 2.605-.685 4.418.57 2.559 2.395 4.466 3.992 4.187 1.426-.233 2.225-2 1.996-4.187-.741-1.116-1.882-2.278-3.421-3.348Z" fill="#FFE79B"/>
  <path d="M10.854 27.21c-.97-1.72-1.482-3.116-1.71-4.093-.115.186-.229.326-.286.512-.114.232-.228.465-.342.744 1.711 5.581 6.673 7.907 9.695 8.79-.057-.046-5.303-2.371-7.357-5.953Z" fill="#007963"/>
  <path d="m18.725 26.978.228-.279-.342-.186c-.4-.232-.628-.558-.628-.93 0-.326.171-.605.4-.79l.342-.28-4.62-2.698-.228.326c-.4.512-1.312.698-1.939.326l-.342-.186-.228.279c-.799.93-1.654 2.186-2.168 3.581.172.372.4.744.57 1.07.286-1.535 1.199-2.93 2.054-4 .855.279 1.882.14 2.51-.419l3.136 1.814a1.59 1.59 0 0 0-.342.977c0 .512.228.977.684 1.349-.912 1.256-1.939 3.209-1.882 5.442.285.14.57.232.856.372-.172-2.419 1.026-4.559 1.939-5.768Z" fill="#FFE79B"/>
  <path d="M13.25 26.696c-1.027-.093-2.053.651-2.567 1.768a14.12 14.12 0 0 0 3.935 3.21c.286-.42.457-.931.57-1.49.286-1.813-.57-3.348-1.938-3.488Z" fill="#FFE79B"/>
  <path d="M15.93 32.325c.285.14.57.233.856.372v-.232a8.295 8.295 0 0 1-.856-.512v.372Zm-5.76-6.463c-.171-.372-.342-.698-.456-1.023-.228.419-.4.79-.57 1.256.17.372.399.744.57 1.07.114-.466.285-.884.456-1.303Zm.97 1.858c-.172.233-.343.466-.457.745a14.12 14.12 0 0 0 3.935 3.21c.057-.14.171-.28.229-.42-1.312-.93-2.738-2.139-3.707-3.534Z" fill="#C1A64C"/>
  <defs>
    <linearGradient id="paint0_linear" x1="45.783" y1="23.397" x2="17.802" y2="35.109" gradientUnits="userSpaceOnUse">
      <stop stop-color="#FF9C00"/>
      <stop offset="1" stop-color="#FFC400"/>
    </linearGradient>
    <linearGradient id="paint1_linear" x1="13.308" y1="30.277" x2="15.198" y2="21.968" gradientUnits="userSpaceOnUse">
      <stop stop-color="#00A084"/>
      <stop offset="1" stop-color="#00CC6B"/>
    </linearGradient>
    <linearGradient id="paint2_linear" x1="32.714" y1="16.876" x2="17.61" y2="20.136" gradientUnits="userSpaceOnUse">
      <stop stop-color="#FF9C00"/>
      <stop offset="1" stop-color="#FFC400"/>
    </linearGradient>
    <linearGradient id="paint3_linear" x1="29.413" y1="28.833" x2="32.085" y2="11.145" gradientUnits="userSpaceOnUse">
      <stop stop-color="#00A084"/>
      <stop offset="1" stop-color="#00CC6B"/>
    </linearGradient>
  </defs>
</svg>
