<svg width="328" height="133" viewBox="0 0 328 133" fill="none" xmlns="http://www.w3.org/2000/svg">
  <g clip-path="url(#clip0)">
    <g filter="url(#filter0_d)">
      <rect width="328" height="133" rx="16" fill="#0F206C"/>
    </g>
    <path d="M314.366 60.483s-3.207-2.029-3.558-4.483c0 0-3.132.175-3.808 1.177 0 0 1.428 4.057 3.132 4.834 0 0 3.808.25 4.234-1.528ZM48.513 97.48s3.491-2.026 3.87-4.48c0 0 3.403.16 4.13 1.174 0 0-1.57 4.054-3.403 4.8 0 .027-4.131.267-4.597-1.493Z" fill="#F1A34F"/>
    <path d="M258.346 40.17s3.332-5.535 9.22-2.154l3.232-3.506s-3.357-2.229-10.498 2.63c-4.66 3.18-1.954 3.03-1.954 3.03Z" fill="#F99746"/>
    <path d="M255.039 45.605s-1.128-6.036 8.819-10.494c0 0-3.558 2.029-4.31 8.165l-4.509 2.329Z" fill="#F99746"/>
    <path d="M66.295 38.732s-6.335-2.498-3.836-9.207l-4.214-2.73s-1.714 3.892 4.563 10.427c4.097 4.299 3.487 1.51 3.487 1.51Z" fill="#5685D8"/>
    <path d="M72.513 41.2s-6.073 2.208-12.437-7.319c0 0 2.732 3.34 9.24 3.05l3.197 4.27Z" fill="#739AF0"/>
    <path d="M307.532 94.017s-3.257 2.23-6.915 1.854c-2.706-.276-5.362-2.78-5.462-2.93L293 96.671s4.911 2.98 9.145 2.154c1.303-.25 3.383-1.528 4.335-2.505 1.052-1.026 1.052-2.304 1.052-2.304Z" fill="#6BB7BF"/>
    <path d="M307.457 86.229 312.869 84s-.752 11.22-10.022 14.65c-.025 0 5.838-7.688 4.61-12.421ZM44.513 22.448S39.274 19.08 38.718 15c0 0-5.122.268-6.205 1.966 0 0 2.342 6.733 5.122 8.014 0 0 6.205.417 6.878-2.532Z" fill="#86D1CD"/>
    <path d="M14.42 83.59s-3.11-2.353-3.923-5.868c-.581-2.614.9-5.867 1.017-6.012l-4.156-.843s-1.22 5.519.843 9.208c.64 1.132 2.5 2.672 3.69 3.253 1.337.668 2.529.261 2.529.261Z" fill="#6BB7BF"/>
    <path d="m21.656 81.062 3.777 4.328S14.71 88.237 8.58 80.656c.029 0 9.037 3.05 13.077.406Z" fill="#86D1CD"/>
    <path d="M306.397 25.97s-2.68-2.03-3.382-5.06c-.501-2.254.777-5.059.877-5.184L300.309 15s-1.052 4.758.727 7.939c.551.977 2.154 2.304 3.182 2.805 1.152.576 2.179.225 2.179.225Z" fill="#6BB7BF"/>
    <path d="m312.636 23.79 3.257 3.732s-9.245 2.454-14.532-4.082c.025 0 7.793 2.63 11.275.35Z" fill="#86D1CD"/>
  </g>
  <defs>
    <clipPath id="clip0">
      <path fill="#fff" d="M0 0h328v133H0z"/>
    </clipPath>
    <filter id="filter0_d" x="-20" y="-16" width="368" height="173" filterUnits="userSpaceOnUse" color-interpolation-filters="sRGB">
      <feFlood flood-opacity="0" result="BackgroundImageFix"/>
      <feColorMatrix in="SourceAlpha" values="0 0 0 0 0 0 0 0 0 0 0 0 0 0 0 0 0 0 127 0"/>
      <feOffset dy="4"/>
      <feGaussianBlur stdDeviation="10"/>
      <feColorMatrix values="0 0 0 0 0 0 0 0 0 0 0 0 0 0 0 0 0 0 0.15 0"/>
      <feBlend in2="BackgroundImageFix" result="effect1_dropShadow"/>
      <feBlend in="SourceGraphic" in2="effect1_dropShadow" result="shape"/>
    </filter>
  </defs>
</svg>
