<svg width="328" height="133" viewBox="0 0 328 133" fill="none" xmlns="http://www.w3.org/2000/svg">
  <rect width="328" height="133" rx="16" fill="#0F206C"/>
  <g clip-path="url(#clip0)">
    <path opacity=".5" fill-rule="evenodd" clip-rule="evenodd" d="M229.742 96.586h24.533l38.255 7.667-32.166 29.378-45.305-29.865 14.683-7.18Z" fill="url(#paint0_linear)"/>
    <path fill-rule="evenodd" clip-rule="evenodd" d="m220.132 68.628 24.115-3.697c4.061-.147 6.777 2.983 6.777 7.31v20.474c0 4.327-2.806 7.713-6.268 7.563l-24.064-1.048c-3.462-.15-6.268-3.462-6.268-7.398V75.904c0-3.935 1.933-6.548 5.708-7.276Z" fill="url(#paint1_linear)"/>
    <path style="mix-blend-mode:multiply" opacity=".269" fill-rule="evenodd" clip-rule="evenodd" d="m221.056 70.626 22.284-3.324c3.652-.133 5.494 1.787 5.494 5.678v18.41c0 3.89-2.523 6.935-5.636 6.8l-21.638-.047c-3.113-.136-5.637-3.114-5.637-6.652V77.168c0-3.538 1.738-5.887 5.133-6.542Z" fill="url(#paint2_linear)"/>
    <path fill-rule="evenodd" clip-rule="evenodd" d="m250.922 74.932 10.395 6.888a4.76 4.76 0 0 1 2.136 3.969v4.308l-12.048-7.98-.483-7.185Z" fill="#7D3535"/>
    <path fill-rule="evenodd" clip-rule="evenodd" d="M218.445 69.122c-1.843 1.02-2.39 2.057-1.641 3.111 1.259 1.772 5.996 1.74 9.937 1.662l25.3-.876c4.352-.15 7.879 3.236 7.879 7.563l-.3 19.463c0 4.327-4.127 7.415-8.479 7.264l-29.346-.749c-4.352-.15-7.88-3.463-7.88-7.398V81.465c0-.226.012-.45.035-.67-.293-6.782 1.206-10.673 4.495-11.673Z" fill="url(#paint3_linear)"/>
    <path fill-rule="evenodd" clip-rule="evenodd" d="M253.08 86.767c2.394-.759 4.114-1.586 5.162-2.482 1.047-.896 1.602-2.015 1.663-3.356v5.838h-6.825Z" fill="#565656" style="mix-blend-mode:multiply" opacity=".2"/>
    <path fill-rule="evenodd" clip-rule="evenodd" d="M261.787 82.204c1.009.64 1.663 2.165 1.663 3.007v.006h.003a79.95 79.95 0 0 1 .145 4.957c-.002 2.935-2.259 5.382-5.199 5.638l-3.733.324c-2.499.217-4.702-1.621-4.921-4.106a4.696 4.696 0 0 1-.017-.393c0-2.764 2.127-5.069 4.896-5.306a140.89 140.89 0 0 0 5.289-.538l-.016-.011c3.553-.853 2.464-3.121 1.89-3.578Z" fill="url(#paint4_linear)"/>
    <path d="M254.939 93.992a2.66 2.66 0 0 0 2.668-2.654 2.66 2.66 0 0 0-2.668-2.654 2.662 2.662 0 0 0-2.669 2.654 2.662 2.662 0 0 0 2.669 2.654Z" fill="url(#paint5_linear)"/>
    <path d="M214.736 76.032c.991 2.79 5.893 2.973 7.718 3.12 1.825.147 33.676.911 36.836-1.653M214.435 98.46c.941 2.806 5.84 3.075 7.662 3.254 1.822.178 33.654 1.495 36.859-1.014" stroke="#DA6A6A" stroke-width="2.75" stroke-linecap="round" stroke-dasharray="11.25 11.25"/>
    <g filter="url(#filter0_d)">
      <path fill-rule="evenodd" clip-rule="evenodd" d="M222.871 61.882c5.121-2.234 9.679-4.599 13.672-7.095-.006-6.118-2.985-12.105-8.95-17.745-4.088-3.865-5.725-8.68-4.854-14.466l-14.226 6.793c.173 6.129 2.769 11.892 7.724 17.311 4.948 5.412 7.079 10.492 6.634 15.202Z" fill="#A3E54E" stroke="#81C12F" stroke-width="2"/>
      <path d="M216.689 33.9c.765 0 1.385-.753 1.385-1.682 0-.93-.62-1.682-1.385-1.682-.764 0-1.384.753-1.384 1.682 0 .929.62 1.682 1.384 1.682Zm12.378 19.531c.744-.17 1.178-1.043.968-1.948-.211-.905-.985-1.5-1.73-1.33-.745.171-1.178 1.044-.968 1.949.21.905.985 1.5 1.73 1.33Zm-3.378-6.435c1.92-1.337 1.913-4.642-.016-7.382-1.93-2.74-5.05-3.877-6.971-2.54-1.92 1.338-1.913 4.643.016 7.382 1.93 2.74 5.051 3.877 6.971 2.54Z" fill="#81C12F"/>
      <path d="M223.768 43.403c.326-.25.472-.534.439-.852a.992.992 0 0 0-.187-.479c-.173-.245-.394-.367-.665-.369-.157-.001-.382.05-.675.155l1.088 1.545Zm-2.997-2.137c.136.194.307.3.512.321.208.02.436-.026.685-.135l-.973-1.38c-.251.19-.38.396-.387.62a.935.935 0 0 0 .163.574Zm-.507.405a1.412 1.412 0 0 1-.239-1.033c.052-.392.275-.728.668-1.008l-.275-.39.281-.196.271.385c.411-.246.792-.34 1.145-.281.352.055.651.245.895.571l-.517.36a1.065 1.065 0 0 0-.392-.3c-.263-.111-.534-.077-.813.102l1.005 1.428c.547-.191.941-.288 1.183-.29.396 0 .72.179.974.54.367.52.457 1.009.271 1.465-.104.253-.32.523-.649.81l.402.57-.281.196-.401-.57c-.6.362-1.131.431-1.593.208-.252-.12-.496-.348-.733-.685l.522-.364c.205.257.385.423.541.499.278.136.592.103.942-.1l-1.127-1.601c-.482.216-.891.3-1.226.254-.335-.047-.62-.237-.854-.57Z" fill="#fff"/>
    </g>
    <g filter="url(#filter1_d)">
      <path fill-rule="evenodd" clip-rule="evenodd" d="M250.362 30.03c-5.93-1.663-11.267-3.553-16.009-5.673-.94-6.687 1.383-13.684 7.019-20.753 2.242-2.812 3.518-5.851 3.849-9.107.241-2.36-.016-4.842-.788-7.443l16.568 5.26c.76 6.724-1.18 13.417-5.747 20.092-4.562 6.667-6.102 12.543-4.892 17.624Z" fill="#A3E54E" stroke="#81C12F" stroke-width="2"/>
      <path d="M242.286 21.743c-.841-.074-1.451-.961-1.362-1.982.089-1.021.844-1.789 1.685-1.715.841.073 1.451.96 1.362 1.982-.089 1.02-.844 1.789-1.685 1.715Zm2.701-7.553c-2.308-1.171-2.816-4.785-1.134-8.071 1.683-3.287 4.918-5.002 7.227-3.831 2.309 1.17 2.817 4.784 1.134 8.07-1.682 3.287-4.918 5.002-7.227 3.832Z" fill="#81C12F"/>
      <path d="M247.07 10.048c.375.169.697.164.964-.014a.99.99 0 0 0 .336-.389c.137-.266.141-.518.015-.757-.072-.138-.224-.312-.455-.52l-.86 1.68Zm.486-3.635c-.108.21-.122.411-.044.601.081.191.228.37.442.538l.768-1.5c-.286-.133-.53-.15-.732-.05-.2.1-.344.237-.434.411Zm-.599-.255c.166-.324.434-.555.805-.694.374-.138.777-.1 1.21.115l.218-.425.306.155-.215.419c.412.246.675.537.789.874.117.336.089.687-.086 1.055l-.563-.286c.068-.17.095-.331.082-.485-.025-.284-.183-.506-.473-.667l-.795 1.552c.427.39.699.692.815.904.187.347.18.716-.02 1.108-.29.566-.682.874-1.175.924-.273.028-.615-.036-1.025-.19l-.317.62-.306-.156.317-.62c-.604-.356-.915-.79-.935-1.302-.012-.277.076-.598.263-.964l.57.289c-.132.3-.195.536-.189.708.01.308.188.569.533.781l.891-1.74c-.419-.322-.687-.641-.803-.958-.116-.316-.082-.655.103-1.017Z" fill="#fff"/>
    </g>
    <g filter="url(#filter2_d)">
      <path fill-rule="evenodd" clip-rule="evenodd" d="M260.229 59.231c.501-.3 1.96-.762 2.299-1.22 1.431-1.939.364-5.037-1.308-7.802-1.516-2.51-3.267-4.755-5.495-4.749-.81.002-2.284.968-2.981 1.384-2.615 1.562-3.058 5.601-.991 9.022 2.067 3.42 5.862 4.927 8.476 3.365Z" fill="#FFAC55"/>
      <path d="M261.562 57.682c2.236-1.336 2.557-4.887.717-7.931-1.839-3.044-5.143-4.43-7.379-3.093-2.236 1.336-2.558 4.887-.718 7.931 1.84 3.044 5.144 4.43 7.38 3.093Z" fill="#FFCE51" stroke="url(#paint6_linear)" stroke-width="6"/>
      <path d="M258.135 53.872c.231.332.527.49.889.472a1.37 1.37 0 0 0 .569-.167c.37-.196.581-.458.634-.787a1.432 1.432 0 0 0-.15-.92c-.185-.346-.434-.556-.747-.632a1.246 1.246 0 0 0-.911.118 1.313 1.313 0 0 0-.489.418 1.342 1.342 0 0 0-.207.552l-.558.255-1.044-2.86 2.581-1.364.321.6-2.113 1.117.523 1.485c.068-.148.143-.272.224-.37.144-.174.338-.325.581-.454a1.87 1.87 0 0 1 1.393-.174c.473.124.829.41 1.069.86.25.466.324.955.223 1.465-.098.51-.465.932-1.101 1.269-.405.214-.824.29-1.257.23-.431-.064-.791-.32-1.079-.77l.649-.343Z" fill="#FCA72C"/>
    </g>
  </g>
  <g opacity=".25">
    <path d="M314.366 60.483s-3.207-2.029-3.558-4.483c0 0-3.132.175-3.808 1.177 0 0 1.428 4.057 3.132 4.834 0 0 3.808.25 4.234-1.528ZM48.513 97.48s3.491-2.026 3.87-4.48c0 0 3.403.16 4.13 1.174 0 0-1.57 4.054-3.403 4.8 0 .027-4.131.267-4.597-1.493Z" fill="#F1A34F"/>
    <path d="M258.346 40.17s3.332-5.535 9.22-2.154l3.232-3.506s-3.357-2.229-10.498 2.63c-4.66 3.18-1.954 3.03-1.954 3.03Z" fill="#F99746"/>
    <path d="M255.039 45.605s-1.128-6.036 8.819-10.494c0 0-3.558 2.029-4.31 8.165l-4.509 2.329Z" fill="#F99746"/>
    <path d="M66.295 38.732s-6.335-2.498-3.836-9.207l-4.214-2.73s-1.714 3.892 4.563 10.427c4.097 4.299 3.487 1.51 3.487 1.51Z" fill="#5685D8"/>
    <path d="M72.513 41.2s-6.073 2.208-12.437-7.319c0 0 2.732 3.34 9.24 3.05l3.197 4.27Z" fill="#739AF0"/>
    <path d="M307.532 94.017s-3.257 2.23-6.915 1.854c-2.706-.276-5.362-2.78-5.462-2.93L293 96.671s4.911 2.98 9.145 2.154c1.303-.25 3.383-1.528 4.335-2.505 1.052-1.026 1.052-2.304 1.052-2.304Z" fill="#6BB7BF"/>
    <path d="M307.457 86.229 312.869 84s-.752 11.22-10.022 14.65c-.025 0 5.838-7.688 4.61-12.421ZM44.513 22.448S39.274 19.08 38.718 15c0 0-5.122.268-6.205 1.966 0 0 2.342 6.733 5.122 8.014 0 0 6.205.417 6.878-2.532Z" fill="#86D1CD"/>
    <path d="M14.42 83.59s-3.11-2.353-3.923-5.868c-.581-2.614.9-5.867 1.017-6.012l-4.156-.843s-1.22 5.519.843 9.208c.64 1.132 2.5 2.672 3.69 3.253 1.337.668 2.529.261 2.529.261Z" fill="#6BB7BF"/>
    <path d="m21.655 81.062 3.778 4.328S14.71 88.237 8.58 80.656c.029 0 9.037 3.05 13.076.406Z" fill="#86D1CD"/>
    <path d="M306.397 25.97s-2.68-2.03-3.382-5.06c-.501-2.254.777-5.059.877-5.184L300.309 15s-1.052 4.758.727 7.939c.551.977 2.154 2.304 3.182 2.805 1.152.576 2.179.225 2.179.225Z" fill="#6BB7BF"/>
    <path d="m312.636 23.79 3.257 3.732s-9.245 2.454-14.532-4.082c.025 0 7.793 2.63 11.275.35Z" fill="#86D1CD"/>
  </g>
  <defs>
    <linearGradient id="paint0_linear" x1="267.079" y1="117.557" x2="252.533" y2="101.55" gradientUnits="userSpaceOnUse">
      <stop stop-color="#7794B1" stop-opacity="0"/>
      <stop offset="1" stop-color="#5B748D"/>
    </linearGradient>
    <linearGradient id="paint1_linear" x1="241.507" y1="64.165" x2="233.166" y2="78.722" gradientUnits="userSpaceOnUse">
      <stop stop-color="#B03838"/>
      <stop offset="1" stop-color="#7D3535"/>
    </linearGradient>
    <linearGradient id="paint2_linear" x1="240.277" y1="67.523" x2="233.073" y2="79.741" gradientUnits="userSpaceOnUse">
      <stop stop-color="#B03838"/>
      <stop offset="1" stop-color="#7D3535"/>
    </linearGradient>
    <linearGradient id="paint3_linear" x1="210.499" y1="95.457" x2="223.663" y2="95.457" gradientUnits="userSpaceOnUse">
      <stop stop-color="#F8966F"/>
      <stop offset="1" stop-color="#D05950"/>
    </linearGradient>
    <linearGradient id="paint4_linear" x1="263.598" y1="90.506" x2="259.627" y2="90.506" gradientUnits="userSpaceOnUse">
      <stop stop-color="#FEA684"/>
      <stop offset="1" stop-color="#E0756D"/>
    </linearGradient>
    <linearGradient id="paint5_linear" x1="260.305" y1="87.149" x2="254.961" y2="91.367" gradientUnits="userSpaceOnUse">
      <stop stop-color="#fff"/>
      <stop offset="1" stop-color="#FFAF54"/>
    </linearGradient>
    <linearGradient id="paint6_linear" x1="252.016" y1="48.381" x2="263.636" y2="50.993" gradientUnits="userSpaceOnUse">
      <stop stop-color="#FFE4A0"/>
      <stop offset="1" stop-color="#FFD855"/>
    </linearGradient>
    <filter id="filter0_d" x="207.495" y="20.861" width="52.049" height="56.615" filterUnits="userSpaceOnUse" color-interpolation-filters="sRGB">
      <feFlood flood-opacity="0" result="BackgroundImageFix"/>
      <feColorMatrix in="SourceAlpha" values="0 0 0 0 0 0 0 0 0 0 0 0 0 0 0 0 0 0 127 0"/>
      <feOffset dx="18" dy="10"/>
      <feGaussianBlur stdDeviation="2"/>
      <feColorMatrix values="0 0 0 0 0 0 0 0 0 0 0 0 0 0 0 0 0 0 0.0447237 0"/>
      <feBlend in2="BackgroundImageFix" result="effect1_dropShadow"/>
      <feBlend in="SourceGraphic" in2="effect1_dropShadow" result="shape"/>
    </filter>
    <filter id="filter1_d" x="233.149" y="-14.468" width="47.013" height="71.919" filterUnits="userSpaceOnUse" color-interpolation-filters="sRGB">
      <feFlood flood-opacity="0" result="BackgroundImageFix"/>
      <feColorMatrix in="SourceAlpha" values="0 0 0 0 0 0 0 0 0 0 0 0 0 0 0 0 0 0 127 0"/>
      <feOffset dx="14" dy="22"/>
      <feGaussianBlur stdDeviation="2"/>
      <feColorMatrix values="0 0 0 0 0 0 0 0 0 0 0 0 0 0 0 0 0 0 0.0447237 0"/>
      <feBlend in2="BackgroundImageFix" result="effect1_dropShadow"/>
      <feBlend in="SourceGraphic" in2="effect1_dropShadow" result="shape"/>
    </filter>
    <filter id="filter2_d" x="249.981" y="43.156" width="24.499" height="33.029" filterUnits="userSpaceOnUse" color-interpolation-filters="sRGB">
      <feFlood flood-opacity="0" result="BackgroundImageFix"/>
      <feColorMatrix in="SourceAlpha" values="0 0 0 0 0 0 0 0 0 0 0 0 0 0 0 0 0 0 127 0"/>
      <feOffset dx="4" dy="11"/>
      <feGaussianBlur stdDeviation="2"/>
      <feColorMatrix values="0 0 0 0 0 0 0 0 0 0 0 0 0 0 0 0 0 0 0.0447237 0"/>
      <feBlend in2="BackgroundImageFix" result="effect1_dropShadow"/>
      <feBlend in="SourceGraphic" in2="effect1_dropShadow" result="shape"/>
    </filter>
    <clipPath id="clip0">
      <path fill="#fff" d="M207 0h81v133h-81z"/>
    </clipPath>
  </defs>
</svg>
