<svg width="48" height="48" viewBox="0 0 48 48" fill="none" xmlns="http://www.w3.org/2000/svg">
  <path d="M44 14.807c0-.461-.052-.871-.156-1.28 0-.103-.052-.206-.052-.308-.052-.256-.156-.512-.26-.768l-2.128-4.507A6.917 6.917 0 0 0 35.172 4H13.36c-2.648 0-5.089 1.536-6.18 3.892l-2.129 4.559c-.104.256-.207.46-.26.717-.051.205-.103.46-.155.666a7.522 7.522 0 0 0-.104 1.075v3.432c0 1.024.208 1.997.52 2.919v1.588c-.156.41-.312.87-.416 1.331a9.81 9.81 0 0 0-.104 1.23c-.675 1.74-.727 3.687-.052 5.428 0 .82.156 1.537.26 1.947.052.102.052.307.104.46a5.285 5.285 0 0 0-.727 3.637l.467 2.817C5 42.156 7.181 44 9.726 44h28.562c2.856 0 5.193-2.305 5.193-5.122V21.26c.311-.922.519-1.895.519-2.92v-3.533Z" fill="#0F206C"/>
  <path d="M10.245 14.756v24.072h28.043V14.755H10.246Z" fill="#F0785A"/>
  <path d="M25.825 23.975h-14.54v11.78h14.54v-11.78Z" fill="#B35A5B"/>
  <path d="M24.786 25H12.323v9.731h12.463V25Z" fill="#B0D3F0"/>
  <path d="M16.996 14.756H9.934c-.104 0-.156-.103-.156-.205l2.13-4.507a1.6 1.6 0 0 1 1.453-.922h4.674l-1.039 5.634Zm14.541 0h-7.27V9.122h6.231l1.039 5.634Z" fill="#ED7161"/>
  <path d="M20.632 21.926c-2.026 0-3.636-1.588-3.636-3.585v-3.585h7.27v3.585c0 1.997-1.61 3.585-3.634 3.585Zm14.54 0c-2.025 0-3.635-1.588-3.635-3.585v-3.585h7.218c.052 0 .052 0 .052.051v3.534c0 1.997-1.61 3.585-3.635 3.585Z" fill="#F0C419"/>
  <path d="M24.267 14.756h-7.27l1.038-5.634h6.232v5.634Zm14.333 0h-7.063l-1.039-5.634h4.674a1.6 1.6 0 0 1 1.454.922l2.13 4.507c.051.102-.053.205-.157.205Z" fill="#F4B938"/>
  <path d="M13.361 21.926c-2.025 0-3.635-1.588-3.635-3.585v-3.432c0-.102.052-.153.156-.153h7.114v3.585c0 1.997-1.61 3.585-3.635 3.585Zm14.541 0c-2.026 0-3.635-1.588-3.635-3.585v-3.585h7.27v3.585c0 1.997-1.61 3.585-3.635 3.585Z" fill="#D36259"/>
  <path d="M36.21 23.975h-8.308v14.852h8.309V23.975Z" fill="#B35A5B"/>
  <path d="M35.172 25H28.94v12.804h6.232V25Z" fill="#B0D3F0"/>
  <path d="M34.133 33.194c-.311 0-.519-.205-.519-.513v-1.536c0-.307.208-.512.52-.512.311 0 .519.205.519.512v1.537c0 .307-.208.512-.52.512Zm-16.098-4.609c.156 0 .26-.052.363-.154l2.078-2.049a.49.49 0 0 0 0-.717.507.507 0 0 0-.727 0l-2.077 2.049a.49.49 0 0 0 0 .717.475.475 0 0 0 .363.154Zm0 2.559a.47.47 0 0 0 .363-.153l1.04-1.025a.49.49 0 0 0 0-.717.507.507 0 0 0-.728 0l-1.038 1.025a.49.49 0 0 0 0 .717.475.475 0 0 0 .363.153Zm1.714-2.918a.462.462 0 0 0-.156.358c0 .154.052.256.156.359a.474.474 0 0 0 .363.154c.156 0 .26-.052.364-.154a.549.549 0 0 0 .155-.359.55.55 0 0 0-.155-.358.507.507 0 0 0-.727 0Zm1.038-.308c.104.102.26.154.364.154.104 0 .26-.052.363-.154l1.558-1.537a.49.49 0 0 0 0-.717.507.507 0 0 0-.727 0l-1.558 1.537a.49.49 0 0 0 0 .717Zm1.558.308-4.673 4.61a.49.49 0 0 0 0 .716c.103.103.26.154.363.154a.56.56 0 0 0 .363-.154l4.674-4.61a.49.49 0 0 0 0-.716.507.507 0 0 0-.727 0Zm1.765-1.025a.507.507 0 0 0-.726 0 .462.462 0 0 0-.156.359c0 .154.052.256.156.359.104.102.26.153.363.153.156 0 .26-.051.364-.153a.55.55 0 0 0 .156-.359.55.55 0 0 0-.156-.358Z" fill="#fff"/>
  <path d="M12.842 38.827H9.726L9.26 36.01c0-.154.104-.256.208-.256h3.894l-.519 3.073Z" fill="#CB8252"/>
  <path d="M11.803 30.121h-1.038v5.634h1.038V30.12Z" fill="#7F6E5D"/>
  <path d="M13.465 27.919c.156-.41.26-.82.208-1.23-.052-.204-.104-.358-.26-.512-.208-.256-.26-.563-.208-.87.052-.308 0-.615-.103-.871a1.62 1.62 0 0 0-1.247-.82c-.363-.05-.779 0-1.038.257l-.312.256c-.363.153-.623.563-.727.973-.052.256-.052.46.052.717.104.358 0 .717-.156.973-.415.614-.571 1.536-.208 2.253.052.103.104.205.156.256.208.257.312.666.208.974 0 .102-.052.153-.052.256-.052.358.052.768.104 1.127.104.358.156.768.467 1.024.364.307.935.205 1.35 0 .624-.308 1.195-.82 1.403-1.537a2.16 2.16 0 0 0-.052-1.28c-.156-.41-.156-.87.052-1.178.103-.256.26-.512.363-.768Z" fill="#24AE5F"/>
</svg>
