<svg width="266" height="123" viewBox="0 0 266 123" fill="none" xmlns="http://www.w3.org/2000/svg">
  <g filter="url(#filter0_d)">
    <path d="M40.372 27.974h115.18c3.995 0 7.038 3.614 6.373 7.609l-1.807 10.462h79.418c3.995 0 7.038 3.614 6.372 7.609l-5.326 30.436c-.571 3.043-3.234 5.326-6.372 5.326H29.53l10.842-61.442Z" fill="#0F206C"/>
    <path d="M76.039 25.786c-5.327-4.47-12.08-6.753-19.593-6.753-2.473 0-4.756.285-6.658.57-1.522-1.806-3.71-2.853-6.087-2.853a7.86 7.86 0 0 0-6.753 3.805L26.2 37.865c-1.046 1.712-1.236 3.805-.38 5.612.38.951 1.046 1.807 1.902 2.473-1.617 1.902-3.614 4.85-5.231 8.465-3.234 7.133-5.612 23.683 8.18 35.096 5.326 4.47 12.078 6.753 19.592 6.753 2.473 0 4.756-.285 6.658-.57 1.522 1.806 3.71 2.853 6.087 2.853a7.859 7.859 0 0 0 6.753-3.805l10.748-17.31c1.046-1.712 1.236-3.805.38-5.612-.38-.95-1.046-1.807-1.902-2.473 1.617-1.902 3.614-4.85 5.231-8.465 3.234-7.228 5.612-23.682-8.18-35.096Z" fill="#0F206C"/>
    <path d="M34.57 84.866c11.128 9.226 25.68 3.71 25.68 3.71l1.046 2.662c.57 1.427 2.473 1.617 3.33.286l10.747-17.31-19.879-4.09c-1.046-.19-1.902.76-1.617 1.711l.952 3.425c-4.66 2.663-11.128 1.046-11.128 1.046 0-7.229 3.519-12.65 5.801-15.408.951-1.142.666-2.759-.57-3.615l-.761-.57-11.699-7.8c-1.141-.76-2.663-.57-3.614.476-1.332 1.617-3.33 4.185-4.85 7.609-2.284 5.231-4.661 18.642 6.562 27.868Z" fill="url(#paint0_linear)"/>
    <path d="m48.932 57.378-12.46-8.465c-1.141-.76-2.663-.57-3.614.476-1.332 1.617-3.329 4.185-4.85 7.609a26.33 26.33 0 0 0-.572 1.522c2.854 11.413 11.129 16.169 16.17 17.976 0-7.229 3.519-12.65 5.801-15.408.952-1.237.666-2.854-.475-3.71Z" fill="url(#paint1_linear)"/>
    <path d="M72.14 30.557c-11.129-9.226-25.681-3.71-25.681-3.71l-1.046-2.662c-.57-1.427-2.473-1.617-3.33-.286L31.337 41.21l19.879 4.09c1.046.19 1.902-.76 1.616-1.712l-.95-3.424c4.66-2.663 11.127-1.046 11.127-1.046 0 7.229-3.519 12.65-5.801 15.408-.952 1.142-.666 2.759.57 3.615l.761.57 11.699 7.99c1.141.76 2.663.57 3.614-.476 1.332-1.617 3.33-4.185 4.85-7.609 2.284-5.421 4.661-18.832-6.562-28.058Z" fill="url(#paint2_linear)"/>
    <path d="m72.805 42.256-2.663-13.22c-5.041-3.33-10.558-3.995-15.028-3.805 0 0 5.707 5.611 4.66 13.315 1.903.096 3.234.476 3.234.476 0 2.188-.285 4.185-.856 6.087 4.09.095 10.653-2.853 10.653-2.853Z" fill="#CA7600"/>
    <path d="M72.139 30.557c-5.612-4.66-11.984-5.516-17.025-5.326 0 0 7.324 3.138 7.99 13.696 0 7.228-3.52 12.65-5.802 15.408-.952 1.141-.666 2.758.57 3.614l.761.57 11.699 7.99c1.141.761 2.663.57 3.614-.475 1.332-1.617 3.33-4.185 4.85-7.61 2.188-5.23 4.566-18.641-6.657-27.867Z" fill="url(#paint3_linear)"/>
    <path d="M78.892 39.593c.476 9.796-2.568 16.835-4.946 20.734-1.617-.76-3.614-.38-4.755.856l-5.232-3.804c.38-.666.571-1.332.571-2.093 0-1.236-.475-2.378-1.427-3.138 1.712-3.14 3.615-7.99 3.33-13.887-.286-5.897-3.33-10.082-5.898-12.745-.856-.095-1.616-.19-2.472-.285 2.663 2.188 6.657 6.563 6.943 13.03.285 5.897-1.712 10.653-3.424 13.696l-.38.571.57.38c.76.571 1.236 1.427 1.236 2.378 0 .666-.19 1.332-.666 1.807l-.475.571 7.609 5.517.38-.666c.856-1.237 2.663-1.617 3.805-.666l.666.476.38-.666c2.093-3.234 4.85-8.94 5.517-17.025-.19-1.617-.666-3.33-1.332-5.041Z" fill="#FFE79B"/>
    <path d="M72.139 30.557c-1.046-.856-2.093-1.522-3.139-2.187-1.331 1.807-1.902 5.326-1.141 9.035.951 5.231 3.995 9.131 6.658 8.56 2.377-.475 3.71-4.09 3.329-8.56-1.237-2.282-3.14-4.66-5.707-6.848Z" fill="#FFE79B"/>
    <path d="M31.431 64.322c-1.617-3.52-2.473-6.373-2.853-8.37-.19.38-.38.666-.476 1.046-.19.476-.38.952-.57 1.522C30.385 69.934 38.66 74.69 43.7 76.496c-.095-.095-8.846-4.85-12.27-12.174Z" fill="#007963"/>
    <path d="m44.556 63.846.381-.57-.57-.381c-.666-.476-1.047-1.142-1.047-1.902 0-.666.285-1.237.666-1.617l.57-.57-7.703-5.517-.381.665c-.666 1.047-2.188 1.427-3.234.666l-.57-.38-.38.57c-1.332 1.903-2.76 4.47-3.615 7.324.285.76.666 1.522.951 2.188.476-3.14 1.997-5.992 3.424-8.18 1.427.57 3.139.285 4.185-.856l5.231 3.71c-.38.57-.57 1.33-.57 1.997a3.81 3.81 0 0 0 1.14 2.758c-1.521 2.568-3.233 6.563-3.138 11.128.476.285.951.475 1.427.76-.286-4.945 1.712-9.32 3.233-11.793Z" fill="#FFE79B"/>
    <path d="M35.426 63.276c-1.712-.19-3.424 1.331-4.28 3.614 1.997 2.853 4.28 5.041 6.563 6.563.475-.856.76-1.903.95-3.044.476-3.71-.95-6.848-3.233-7.133Z" fill="#FFE79B"/>
    <path d="M39.896 74.784c.476.286.951.476 1.427.761v-.475c-.476-.286-.951-.666-1.427-1.047v.761Zm-9.606-13.22c-.285-.761-.57-1.427-.761-2.093-.38.856-.666 1.617-.951 2.568.285.761.666 1.522.951 2.188.19-.951.476-1.807.76-2.663Zm1.617 3.804c-.285.476-.57.951-.761 1.522 1.997 2.853 4.28 5.04 6.563 6.563.095-.286.285-.571.38-.856-2.187-1.903-4.565-4.375-6.182-7.229Z" fill="#C1A64C"/>
    <path d="M92.588 67.974c-7.228 0-9.32-4.661-8.465-9.892C84.98 53.136 89.07 48 96.107 48c2.568 0 4.851.951 6.468 2.949l-3.139 2.663c-.951-1.142-2.568-1.617-4.09-1.617-4.375 0-6.563 3.329-7.038 6.087-.476 2.758.475 5.897 4.946 5.897 1.522 0 3.614-.666 5.04-1.807l2.093 2.948c-2.282 1.998-4.946 2.853-7.799 2.853Zm14.172-3.71-1.998 3.234h-4.565l11.889-19.022h4.66l5.137 19.022h-4.566l-.856-3.234h-9.701Zm2.282-3.71h6.563l-1.902-7.703-4.661 7.704Zm24.349-8.94c-1.807 0-3.519.761-3.709 2.093-.286 1.712 1.331 2.092 3.709 2.282 3.709.38 7.038 1.713 6.277 6.088-.761 4.185-4.946 5.992-9.035 5.992-3.234.095-6.468-1.237-7.609-3.805l2.948-2.568c1.046 1.807 3.519 2.663 5.326 2.663 2.283 0 3.995-.856 4.185-2.282.286-1.617-.856-2.283-3.424-2.473-3.899-.38-7.323-1.427-6.467-5.802.665-3.805 4.66-5.707 8.465-5.707 2.948 0 5.041.57 6.562 2.854l-3.043 2.282c-1.046-1.141-2.663-1.617-4.185-1.617Zm22.161 8.37h-8.465l-1.332 7.514h-4.28l3.329-19.022h4.28l-1.331 7.608h8.465l1.331-7.608h4.185l-3.329 19.022h-4.185l1.332-7.514Zm25.585-6.277c-.285 1.617-1.236 3.044-3.234 3.9 1.902.76 2.663 2.663 2.283 4.565-.095.285-.19.666-.285.95-1.142 3.044-3.9 4.471-7.705 4.471h-9.511l3.329-19.022h9.416c3.615-.095 6.278 1.522 5.707 5.136Zm-8.37 10.082c1.902 0 2.949-.856 3.139-2.188.19-1.331-.571-2.187-2.473-2.187h-5.136l-.761 4.375h5.231Zm1.332-7.895c1.617 0 2.568-.665 2.758-1.807.19-1.141-.476-1.902-2.093-1.902h-5.231l-.665 3.71h5.231Zm12.269 8.37-1.997 3.234h-4.566l11.889-19.022h4.661l5.136 19.022h-4.565l-.856-3.234h-9.702Zm2.283-3.71h6.563l-1.903-7.703-4.66 7.704Zm23.207 7.42c-7.228 0-9.321-4.661-8.465-9.892.856-4.946 4.946-10.082 11.984-10.082 2.568 0 4.851.951 6.468 2.949l-3.139 2.663c-.951-1.142-2.568-1.617-4.09-1.617-4.375 0-6.562 3.329-7.038 6.087-.476 2.758.476 5.897 4.946 5.897 1.522 0 3.614-.666 5.041-1.807l2.092 2.948c-2.282 1.998-4.946 2.853-7.799 2.853Zm19.688-10.273 6.753 9.512v.285h-5.136l-5.611-8.085-1.427 8.085h-4.28l3.329-19.022h4.28l-1.427 7.894 7.704-7.894h5.136v.095l-9.321 9.13Z" fill="#fff"/>
  </g>
  <defs>
    <linearGradient id="paint0_linear" x1="89.682" y1="56.524" x2="40.566" y2="73.29" gradientUnits="userSpaceOnUse">
      <stop stop-color="#FF9C00"/>
      <stop offset="1" stop-color="#FFC400"/>
    </linearGradient>
    <linearGradient id="paint1_linear" x1="35.523" y1="70.592" x2="40.147" y2="54.011" gradientUnits="userSpaceOnUse">
      <stop stop-color="#00A084"/>
      <stop offset="1" stop-color="#00CC6B"/>
    </linearGradient>
    <linearGradient id="paint2_linear" x1="67.887" y1="43.194" x2="42.318" y2="47.694" gradientUnits="userSpaceOnUse">
      <stop stop-color="#FF9C00"/>
      <stop offset="1" stop-color="#FFC400"/>
    </linearGradient>
    <linearGradient id="paint3_linear" x1="62.382" y1="67.639" x2="69.006" y2="31.871" gradientUnits="userSpaceOnUse">
      <stop stop-color="#00A084"/>
      <stop offset="1" stop-color="#00CC6B"/>
    </linearGradient>
    <filter id="filter0_d" x="0" y=".75" width="266" height="121.796" filterUnits="userSpaceOnUse" color-interpolation-filters="sRGB">
      <feFlood flood-opacity="0" result="BackgroundImageFix"/>
      <feColorMatrix in="SourceAlpha" values="0 0 0 0 0 0 0 0 0 0 0 0 0 0 0 0 0 0 127 0"/>
      <feOffset dy="4"/>
      <feGaussianBlur stdDeviation="10"/>
      <feColorMatrix values="0 0 0 0 0 0 0 0 0 0 0 0 0 0 0 0 0 0 0.15 0"/>
      <feBlend in2="BackgroundImageFix" result="effect1_dropShadow"/>
      <feBlend in="SourceGraphic" in2="effect1_dropShadow" result="shape"/>
    </filter>
  </defs>
</svg>
