<svg width="32" height="32" viewBox="0 0 32 32" fill="none" xmlns="http://www.w3.org/2000/svg">
<path d="M18.667 14.6673C18.667 13.9309 19.2639 13.334 20.0003 13.334C20.7367 13.334 21.3337 13.9309 21.3337 14.6673V17.334C21.3337 18.0704 20.7367 18.6673 20.0003 18.6673C19.2639 18.6673 18.667 18.0704 18.667 17.334V14.6673Z" stroke="#081F70" stroke-width="1.5"/>
<path d="M18.6765 25.3359L17.9265 25.3337L17.9265 25.3337L18.6765 25.3359ZM18.6843 22.6654L19.4343 22.6675V22.6654H18.6843ZM4.19879 25.1033L3.66912 25.6343L3.66912 25.6343L4.19879 25.1033ZM4.19879 6.89413L3.66912 6.36314L3.66912 6.36314L4.19879 6.89413ZM3.93679 13.6702L3.57112 14.3251L3.57112 14.3251L3.93679 13.6702ZM2.68012 11.9847L1.93078 11.9532L1.93078 11.9532L2.68012 11.9847ZM3.93679 18.3272L3.57112 17.6723L3.57112 17.6723L3.93679 18.3272ZM2.68012 20.0127L3.42946 19.9812L3.42946 19.9812L2.68012 20.0127ZM28.0619 13.6702L28.4276 14.3251L28.4276 14.3251L28.0619 13.6702ZM29.3186 11.9847L30.0679 11.9532L30.0679 11.9532L29.3186 11.9847ZM27.7999 6.89413L28.3296 6.36314L28.3296 6.36314L27.7999 6.89413ZM28.0619 18.3272L27.6962 18.982L27.6962 18.982L28.0619 18.3272ZM29.3186 20.0127L30.0679 20.0442L30.0679 20.0442L29.3186 20.0127ZM27.7999 25.1033L28.3296 25.6343L28.3296 25.6343L27.7999 25.1033ZM29.2576 19.108L29.912 18.7417L29.912 18.7417L29.2576 19.108ZM29.2576 12.8894L29.912 13.2557L29.912 13.2557L29.2576 12.8894ZM2.74114 19.108L2.0867 18.7417L2.0867 18.7417L2.74114 19.108ZM2.74114 12.8894L3.39558 12.5231L3.39558 12.5231L2.74114 12.8894ZM18.6843 9.33203L19.4343 9.33203L19.4343 9.32985L18.6843 9.33203ZM18.6746 5.99677L17.9246 5.99894L17.9246 5.99894L18.6746 5.99677ZM22.0364 5.35723L22.0557 4.60748L22.0557 4.60748L22.0364 5.35723ZM22.7109 26.6176L22.7425 27.3669L22.7425 27.3669L22.7109 26.6176ZM18.4786 26.4708L17.9491 25.9397L17.9491 25.9397L18.4786 26.4708ZM19.4265 25.3381L19.4343 22.6675L17.9343 22.6632L17.9265 25.3337L19.4265 25.3381ZM20.0209 22.082C20.3467 22.082 20.6076 22.345 20.6076 22.6654H22.1076C22.1076 21.513 21.1716 20.582 20.0209 20.582V22.082ZM20.0209 20.582C18.8703 20.582 17.9343 21.513 17.9343 22.6654H19.4343C19.4343 22.345 19.6952 22.082 20.0209 22.082V20.582ZM13.326 6.08203H18.0063V4.58203H13.326V6.08203ZM17.3432 25.9154H13.326V27.4154H17.3432V25.9154ZM13.326 25.9154C10.7845 25.9154 8.95355 25.9138 7.55903 25.7268C6.1859 25.5426 5.3488 25.1911 4.72846 24.5723L3.66912 25.6343C4.61476 26.5776 5.82086 27.0071 7.35965 27.2134C8.87705 27.417 10.8268 27.4154 13.326 27.4154V25.9154ZM13.326 4.58203C10.8268 4.58203 8.87705 4.58045 7.35965 4.78395C5.82086 4.99032 4.61476 5.41985 3.66912 6.36314L4.72846 7.42512C5.3488 6.80631 6.1859 6.45479 7.55903 6.27064C8.95355 6.08362 10.7845 6.08203 13.326 6.08203V4.58203ZM3.57112 14.3251C4.16108 14.6545 4.55611 15.2816 4.55611 15.9987H6.05611C6.05611 14.715 5.34657 13.5985 4.30247 13.0154L3.57112 14.3251ZM3.42946 12.0162C3.53364 9.5381 3.87112 8.28033 4.72846 7.42512L3.66912 6.36314C2.37001 7.65902 2.03581 9.45501 1.93078 11.9532L3.42946 12.0162ZM4.55611 15.9987C4.55611 16.7158 4.16108 17.3429 3.57112 17.6723L4.30247 18.982C5.34657 18.3989 6.05611 17.2824 6.05611 15.9987H4.55611ZM1.93078 20.0442C2.03581 22.5424 2.37001 24.3384 3.66912 25.6343L4.72846 24.5723C3.87112 23.7171 3.53364 22.4593 3.42946 19.9812L1.93078 20.0442ZM27.4426 15.9987C27.4426 15.2816 27.8376 14.6545 28.4276 14.3251L27.6962 13.0154C26.6521 13.5985 25.9426 14.715 25.9426 15.9987H27.4426ZM30.0679 11.9532C29.9629 9.45501 29.6287 7.65902 28.3296 6.36314L27.2702 7.42512C28.1276 8.28033 28.4651 9.5381 28.5692 12.0162L30.0679 11.9532ZM28.4276 17.6723C27.8376 17.3429 27.4426 16.7158 27.4426 15.9987H25.9426C25.9426 17.2824 26.6521 18.3989 27.6962 18.982L28.4276 17.6723ZM28.5692 19.9812C28.4651 22.4593 28.1276 23.7171 27.2702 24.5723L28.3296 25.6343C29.6287 24.3384 29.9629 22.5424 30.0679 20.0442L28.5692 19.9812ZM27.6962 18.982C28.0721 19.1919 28.3266 19.3343 28.5009 19.4443C28.5871 19.4986 28.6339 19.5328 28.6569 19.5519C28.6861 19.5761 28.6456 19.5503 28.6031 19.4743L29.912 18.7417C29.8234 18.5834 29.7024 18.4702 29.6138 18.3968C29.5189 18.3182 29.4105 18.2445 29.3012 18.1756C29.0846 18.039 28.7874 17.8733 28.4276 17.6723L27.6962 18.982ZM30.0679 20.0442C30.0777 19.8111 30.0878 19.5879 30.0797 19.4041C30.0715 19.2182 30.0432 18.9761 29.912 18.7417L28.6031 19.4743C28.564 19.4045 28.5766 19.368 28.5811 19.47C28.5857 19.5741 28.5802 19.721 28.5692 19.9812L30.0679 20.0442ZM28.4276 14.3251C28.7874 14.1241 29.0846 13.9584 29.3012 13.8218C29.4105 13.7529 29.5189 13.6792 29.6138 13.6006C29.7024 13.5272 29.8234 13.414 29.912 13.2557L28.6031 12.5231C28.6456 12.4471 28.6861 12.4213 28.6569 12.4455C28.6339 12.4646 28.5871 12.4988 28.5009 12.5531C28.3266 12.6631 28.0721 12.8055 27.6962 13.0154L28.4276 14.3251ZM28.5692 12.0162C28.5802 12.2764 28.5857 12.4233 28.5811 12.5274C28.5766 12.6294 28.564 12.5929 28.6031 12.5231L29.912 13.2557C30.0432 13.0213 30.0715 12.7792 30.0797 12.5933C30.0878 12.4095 30.0777 12.1863 30.0679 11.9532L28.5692 12.0162ZM3.57112 17.6723C3.21134 17.8733 2.91409 18.039 2.6975 18.1756C2.58821 18.2445 2.4798 18.3182 2.38492 18.3968C2.29628 18.4702 2.17529 18.5834 2.0867 18.7417L3.39558 19.4743C3.35306 19.5503 3.3126 19.5761 3.34184 19.5519C3.36483 19.5328 3.41164 19.4986 3.49779 19.4443C3.67208 19.3343 3.92657 19.1919 4.30247 18.982L3.57112 17.6723ZM3.42946 19.9812C3.41851 19.721 3.413 19.5741 3.41757 19.47C3.42206 19.368 3.43465 19.4045 3.39558 19.4743L2.0867 18.7417C1.95549 18.9761 1.9272 19.2182 1.91902 19.4041C1.91094 19.5879 1.92098 19.8111 1.93078 20.0442L3.42946 19.9812ZM4.30247 13.0154C3.92657 12.8055 3.67207 12.6631 3.49779 12.5531C3.41164 12.4988 3.36483 12.4646 3.34184 12.4455C3.31261 12.4213 3.35306 12.4471 3.39558 12.5231L2.0867 13.2557C2.17529 13.414 2.29628 13.5272 2.38492 13.6006C2.4798 13.6792 2.58821 13.7529 2.6975 13.8218C2.91408 13.9584 3.21134 14.1241 3.57112 14.3251L4.30247 13.0154ZM1.93078 11.9532C1.92098 12.1863 1.91094 12.4095 1.91902 12.5933C1.9272 12.7792 1.95549 13.0213 2.0867 13.2557L3.39558 12.5231C3.43465 12.5929 3.42206 12.6294 3.41757 12.5274C3.413 12.4233 3.41851 12.2764 3.42946 12.0162L1.93078 11.9532ZM19.4343 9.32985L19.4246 5.99459L17.9246 5.99894L17.9343 9.33421L19.4343 9.32985ZM20.0209 9.91537C19.6952 9.91537 19.4343 9.65244 19.4343 9.33203H17.9343C17.9343 10.4844 18.8703 11.4154 20.0209 11.4154V9.91537ZM20.6076 9.33203C20.6076 9.65244 20.3467 9.91537 20.0209 9.91537V11.4154C21.1716 11.4154 22.1076 10.4844 22.1076 9.33203H20.6076ZM20.6076 6.02027V9.33203H22.1076V6.02027H20.6076ZM22.017 6.10698C24.9276 6.18206 26.3347 6.49195 27.2702 7.42512L28.3296 6.36314C26.9245 4.96155 24.925 4.68149 22.0557 4.60748L22.017 6.10698ZM22.1076 6.02027C22.1076 6.0671 22.0688 6.10832 22.017 6.10698L22.0557 4.60748C21.2583 4.58692 20.6076 5.22945 20.6076 6.02027H22.1076ZM18.0063 6.08203C17.963 6.08203 17.9247 6.04662 17.9246 5.99894L19.4246 5.99459C19.4223 5.21204 18.7862 4.58203 18.0063 4.58203V6.08203ZM22.7425 27.3669C25.2386 27.2614 27.0334 26.9272 28.3296 25.6343L27.2702 24.5723C26.414 25.4263 25.155 25.7636 22.6792 25.8682L22.7425 27.3669ZM20.6076 22.6654V25.3007H22.1076V22.6654H20.6076ZM17.9265 25.3337C17.9255 25.6683 17.9235 25.8439 17.907 25.9635C17.8936 26.0615 17.8842 26.0044 17.9491 25.9397L19.0082 27.0019C19.2682 26.7426 19.3569 26.4315 19.3931 26.1674C19.4264 25.9249 19.4257 25.6303 19.4265 25.3381L17.9265 25.3337ZM17.3432 27.4154C17.6355 27.4154 17.93 27.417 18.1726 27.3844C18.4368 27.3489 18.7482 27.2611 19.0082 27.0019L17.9491 25.9397C18.0139 25.875 18.071 25.8846 17.973 25.8977C17.8534 25.9138 17.6778 25.9154 17.3432 25.9154V27.4154ZM22.6792 25.8682C22.3428 25.8824 22.1695 25.888 22.0516 25.8764C21.9595 25.8674 22.0174 25.8573 22.0819 25.9192L21.0439 27.002C21.3137 27.2607 21.6313 27.3423 21.9048 27.3692C22.1525 27.3936 22.4505 27.3792 22.7425 27.3669L22.6792 25.8682ZM20.6076 25.3007C20.6076 25.5998 20.6059 25.902 20.6404 26.1506C20.6781 26.4226 20.7716 26.7409 21.0439 27.002L22.0819 25.9192C22.1489 25.9834 22.1397 26.0427 22.1261 25.9446C22.1093 25.8229 22.1076 25.6436 22.1076 25.3007H20.6076Z" fill="#081F70"/>
</svg>
