<svg width="215" height="63" viewBox="0 0 215 63" fill="none" xmlns="http://www.w3.org/2000/svg">
  <path d="M2.034 11.838V62.42h57.819V11.838H2.034Z" fill="#F0785A"/>
  <path d="M34.156 31.21H4.176v24.753h29.98V31.21Z" fill="#B35A5B"/>
  <path d="M32.014 33.362H6.317V53.81h25.697V33.362Z" fill="#B0D3F0"/>
  <path d="M15.954 11.838H1.392c-.214 0-.321-.215-.321-.43l4.39-9.47A3.294 3.294 0 0 1 8.459 0h9.636l-2.141 11.838Zm29.98 0h-14.99V0h12.848l2.142 11.838Z" fill="#ED7161"/>
  <path d="M23.449 26.905c-4.176 0-7.495-3.337-7.495-7.534v-7.533h14.99v7.533c0 4.198-3.32 7.534-7.495 7.534Zm29.98 0c-4.176 0-7.495-3.337-7.495-7.534v-7.533h14.883c.107 0 .107 0 .107.107v7.426c0 4.198-3.32 7.534-7.495 7.534Z" fill="#F0C419"/>
  <path d="M30.944 11.838h-14.99L18.095 0h12.849v11.838Zm29.552 0H45.934L43.792 0h9.637c1.285 0 2.463.753 2.998 1.937l4.39 9.47c.107.216-.107.431-.321.431Z" fill="#F4B938"/>
  <path d="M8.458 26.905c-4.175 0-7.495-3.337-7.495-7.534v-7.21c0-.216.107-.323.322-.323h14.668v7.533c0 4.198-3.319 7.534-7.495 7.534Zm29.981 0c-4.176 0-7.495-3.337-7.495-7.534v-7.533h14.99v7.533c0 4.198-3.32 7.534-7.495 7.534Z" fill="#D36259"/>
  <path d="M55.57 31.21H38.438v31.21H55.57V31.21Z" fill="#B35A5B"/>
  <path d="M53.43 33.362H40.58v26.905h12.85V33.362Z" fill="#B0D3F0"/>
  <path d="M51.287 50.581c-.642 0-1.07-.43-1.07-1.076v-3.229c0-.645.428-1.076 1.07-1.076.642 0 1.07.43 1.07 1.076v3.229c0 .646-.428 1.076-1.07 1.076Zm-33.192-9.685c.321 0 .536-.108.75-.323l4.283-4.305a1.044 1.044 0 0 0 0-1.507 1.032 1.032 0 0 0-1.5 0l-4.282 4.305a1.044 1.044 0 0 0 0 1.507c.214.215.428.323.75.323Zm0 5.382c.321 0 .536-.108.75-.323l2.141-2.153a1.044 1.044 0 0 0 0-1.507 1.031 1.031 0 0 0-1.499 0l-2.141 2.153a1.044 1.044 0 0 0 0 1.507c.214.215.428.323.75.323Zm3.534-6.136c-.214.215-.321.43-.321.753s.107.539.32.754c.215.215.43.323.75.323.322 0 .536-.108.75-.323.214-.215.321-.538.321-.754 0-.215-.107-.538-.321-.753a1.031 1.031 0 0 0-1.5 0Zm2.141-.645c.214.215.535.322.75.322.214 0 .535-.107.749-.322l3.212-3.229a1.044 1.044 0 0 0 0-1.507 1.032 1.032 0 0 0-1.499 0L23.77 37.99a1.044 1.044 0 0 0 0 1.507Zm3.212.645-9.636 9.686a1.044 1.044 0 0 0 0 1.507c.214.215.535.323.75.323.213 0 .535-.108.749-.323l9.636-9.686a1.044 1.044 0 0 0 0-1.507 1.031 1.031 0 0 0-1.499 0Zm3.641-2.152a1.031 1.031 0 0 0-1.5 0c-.213.216-.32.431-.32.754s.107.538.32.754c.215.215.536.322.75.322.322 0 .536-.107.75-.322a1.17 1.17 0 0 0 .321-.754c0-.215-.107-.538-.321-.753Z" fill="#fff"/>
  <path d="M7.388 62.42H.964L0 56.501c0-.323.214-.538.428-.538h8.03l-1.07 6.457Z" fill="#CB8252"/>
  <path d="M5.246 44.124H3.105v11.838h2.141V44.124Z" fill="#7F6E5D"/>
  <path d="M8.673 39.497c.321-.861.535-1.722.428-2.583-.107-.43-.214-.754-.535-1.077-.428-.538-.536-1.183-.428-1.83a3.47 3.47 0 0 0-.215-1.829 3.338 3.338 0 0 0-2.57-1.722c-.749-.107-1.605 0-2.14.539l-.643.538c-.75.322-1.285 1.184-1.5 2.044-.106.538-.106.969.108 1.507.214.753 0 1.507-.321 2.045C0 38.42-.321 40.358.428 41.864c.107.216.215.43.322.538.428.538.642 1.4.428 2.045 0 .215-.107.323-.107.538-.107.754.107 1.614.214 2.368.214.753.321 1.614.964 2.152.75.646 1.927.43 2.783 0 1.285-.645 2.463-1.722 2.891-3.228.215-.861.215-1.83-.107-2.69-.32-.862-.32-1.83.107-2.476.215-.538.536-1.076.75-1.614Z" fill="#24AE5F"/>
  <path d="M87.838 29.275c0 5.37-3.17 11.18-11.18 11.18H69l3.257-18.75h7.658c5.634 0 7.923 3.433 7.923 7.57Zm-10.475 7.306c5.017 0 6.337-4.137 6.337-6.778 0-2.2-1.144-4.313-4.4-4.313h-3.522l-2.025 11.091h3.61Zm15.228-14.876h4.137l-3.345 18.75h-4.137l3.345-18.75Zm14.348 2.905c-2.024 0-3.785.88-3.785 2.376 0 1.408 1.497 1.672 3.697 1.936 3.257.264 6.25 1.673 6.25 5.194 0 5.017-4.313 6.954-9.066 6.954-2.993 0-5.81-1.056-7.219-3.257l2.641-3.169c1.145 1.76 3.345 2.553 5.194 2.553 2.464 0 4.137-.968 4.137-2.64 0-1.321-1.144-1.762-3.345-2.026-3.433-.44-6.514-1.496-6.514-4.929 0-.352 0-.704.088-1.056.616-3.697 4.577-5.546 8.451-5.546 2.728 0 4.577.616 6.161 2.64l-2.816 2.554c-.705-1.057-2.377-1.585-3.874-1.585Zm16.901 16.284c-5.897 0-8.538-3.698-8.538-7.923 0-5.545 4.049-11.707 11.971-11.707 2.553 0 4.754.968 6.338 2.905l-3.081 2.552c-.968-1.056-2.552-1.496-4.049-1.496-4.225 0-6.514 3.345-6.954 6.074-.088.352-.088.704-.088 1.056 0 2.377 1.32 4.753 4.929 4.753 1.497 0 3.61-.616 4.93-1.76l2.113 2.905c-2.113 1.848-4.754 2.64-7.571 2.64Zm18.398.001c-5.282 0-8.627-3.081-8.627-8.099 0-7.042 5.194-11.62 12.06-11.62 5.282 0 8.627 3.082 8.627 8.1 0 7.041-5.282 11.619-12.06 11.619Zm7.834-11.092c0-2.817-1.936-4.841-5.105-4.841-3.961 0-7.218 3.257-7.218 7.042 0 2.905 1.936 5.105 5.105 5.105 3.697 0 6.426-2.552 7.13-6.073 0-.352.088-.793.088-1.233Zm23.767 2.377c-.968 5.634-4.489 8.715-9.771 8.715-4.401 0-7.57-2.025-7.57-6.602 0-.616.088-1.32.176-2.113l1.849-10.475h4.137l-1.849 10.475c-.088.528-.176 1.056-.176 1.497 0 2.288 1.145 3.52 3.521 3.52 3.169 0 4.842-2.024 5.37-5.017l1.848-10.475h4.138l-1.673 10.475Zm17.518-4.226 1.056-6.338h4.225l-3.257 18.838h-3.609l-7.218-11.972-.968 6.162-1.057 5.81h-4.225l3.257-18.75h3.609l7.306 12.236.881-5.986Zm7.218-2.552.704-3.697h15.581l-.705 3.697h-5.721l-2.641 15.053h-4.137l2.64-15.053h-5.721Z" fill="#fff"/>
</svg>
