<svg width="157" height="50" viewBox="0 0 157 50" fill="none" xmlns="http://www.w3.org/2000/svg">
  <g clip-path="url(#clip0)">
    <path d="M153.81 49.842c-.51.064-1.018.158-1.533.158H4.179c-.132 0-.265-.02-.392-.057a1.829 1.829 0 0 0-.253-.054C1.891 49.657.62 48.533.19 46.899c-.125-.374-.158-.768-.158-1.162V3.907c0-.198.032-.396.094-.584C.506 1.613 1.548.538 3.222.126 3.72.002 4.24-.032 4.754-.032h148.099c.132 0 .265.021.392.058.083.024.167.041.252.054 1.643.231 2.914 1.355 3.345 2.99.124.373.158.767.158 1.16v41.83c0 .2-.032.397-.095.585-.379 1.71-1.421 2.785-3.095 3.197ZM95.304 25.924c-.01.034-.03.057-.066.057-.038 0-.083-.027-.093-.065-.033-.13-.084-.242-.111-.378a657.473 657.473 0 0 0-2.211-7.405c-.284-.886-.916-1.424-1.863-1.456-1.011-.032-1.99 0-3 0-.443 0-.632.222-.664.665 0 .221.031.443.095.664.126.443.252.855.41 1.298 1.358 4.209 2.685 8.386 4.043 12.595.316.949 1.01 1.455 1.99 1.455h1.863c1.105 0 1.769-.474 2.116-1.519.885-2.753 1.737-5.538 2.622-8.29.045-.182.321-.178.365.004l.014.059c.852 2.753 1.737 5.506 2.589 8.259.316 1.013 1.011 1.519 2.085 1.519h1.8c1.074 0 1.737-.475 2.085-1.519 1.263-3.86 2.495-7.753 3.726-11.614.285-.854.569-1.677.758-2.532.158-.664-.126-.98-.821-.98h-2.432c-1.295 0-1.926.474-2.305 1.74-.632 2.152-1.264 4.335-1.927 6.487a7.272 7.272 0 0 1-.106.378c-.094.306-.469.34-.557.034-.695-2.405-1.421-4.842-2.116-7.247-.284-.95-.853-1.36-1.832-1.36h-2.274c-1.074 0-1.61.41-1.926 1.455-.443 1.455-.853 2.943-1.295 4.43-.28.996-.62 2.144-.962 3.266Zm-14.42 6.197c.11-.066.253-.003.253.126.063.822.316 1.107 1.137 1.107h2.432c.758 0 1.042-.316 1.042-1.044v-9.525c0-1.045-.19-2.057-.663-2.975-.884-1.74-2.369-2.658-4.2-3.101-1.674-.412-3.38-.38-5.085-.253-1.232.095-2.432.316-3.57.822-1.389.602-2.21 1.646-2.336 3.197-.064.79.315 1.202 1.073 1.202h1.99c.695 0 1.264-.253 1.737-.791a2.17 2.17 0 0 1 .727-.57c.694-.38 1.453-.506 2.242-.474 1.958 0 2.748.76 2.969 2.69.031.41-.063.506-.474.506-1.547-.032-3.127 0-4.674 0-1.2 0-2.369.19-3.474.633-2.053.823-3.222 2.31-3.317 4.588-.063 2.026 1.043 3.735 3.032 4.652 1.106.507 2.243.697 3.443.76 1.832.095 3.569-.253 5.18-1.234.204-.114.36-.211.536-.316Zm56.471-.19c.774.048 1.31.838.969 1.534a4.276 4.276 0 0 1-.59.902c-.631.696-1.389.95-2.305.791-.632-.095-1.295-.19-1.927-.19-.6-.031-.947.348-.947.95v1.487c0 .664.284 1.044.947 1.108 1.327.126 2.653.284 3.98.316 2.179.032 3.853-.981 4.863-2.911a15.699 15.699 0 0 0 1.359-3.291c1.389-4.937 2.716-9.874 4.074-14.842.189-.697-.095-1.045-.821-1.045h-2.843c-.695 0-1.168.349-1.358 1.013-.095.317-.189.665-.284.981l-2.558 9.304c-.095.348-.253.411-.569.348-.537-.127-.947-.411-1.295-.823-.632-.79-.979-1.709-1.295-2.658-.726-2.342-1.421-4.684-2.147-7.025-.222-.728-.727-1.108-1.485-1.14h-2.874c-.663 0-.947.38-.758 1.013l2.369 7.88c.474 1.487 1.074 2.943 2.053 4.177.884 1.14 1.989 1.899 3.442 2.12ZM56.06 24.953c0 .008-.004.014-.012.014-.007 0 .012.007.012.014-.031 2.4-.031 4.801-.031 7.202 0 .854.284 1.139 1.137 1.139h2.779c.884 0 1.169-.285 1.169-1.171v-8.766c0-.38.126-.506.505-.506 1.579.031 3.19 0 4.769 0 .663 0 1.01-.348 1.042-1.013v-1.519c0-.823-.284-1.108-1.137-1.108H61.62c-.41 0-.537-.126-.505-.506.031-.411.031-.854.094-1.266.19-1.392.727-2.152 1.927-2.405 1.232-.285 2.495-.38 3.758-.158.474.095.948.127 1.421.127.664 0 1.011-.348 1.043-1.013v-1.393c0-.664-.285-1.012-.948-1.139a27.08 27.08 0 0 0-1.579-.221c-2.084-.159-4.169-.19-6.222.284-1.863.444-3.348 1.425-3.98 3.323a9.866 9.866 0 0 0-.536 2.848c-.095 2.432-.032 4.833-.032 7.233Zm65.888-6.94a.471.471 0 0 1-.732-.387c-.031-.633-.347-.95-.979-.982h-3.127c-.663 0-1.01.349-1.01 1.013v14.62c0 .665.347 1.013 1.01 1.013h2.906c.916 0 1.2-.285 1.2-1.17 0-2.786.032-5.57-.031-8.387-.032-.886.252-1.487.884-2.057 1.042-.918 2.179-1.424 3.569-1.297.695.063 1.39.095 2.116.063.6 0 .916-.317.947-.918.032-.76.032-1.55 0-2.31 0-.57-.347-.918-.915-.918-1.927-.031-3.759.317-5.401 1.393a6.49 6.49 0 0 1-.437.323Z" fill="#FFD328"/>
    <path d="M95.192 25.855c.025.1.115.059.145-.04.328-1.084.63-2.17.96-3.283.442-1.488.853-2.943 1.295-4.43.316-1.045.853-1.456 1.927-1.456h2.274c.979 0 1.547.411 1.831 1.36.727 2.405 1.422 4.842 2.116 7.247.088.307.451.268.545-.037.037-.123.076-.247.119-.374.631-2.152 1.263-4.336 1.926-6.487.379-1.266 1.011-1.741 2.306-1.741h2.432c.695 0 .979.316.821.981-.221.854-.505 1.709-.758 2.532-1.232 3.86-2.495 7.753-3.727 11.614-.347 1.044-1.011 1.487-2.084 1.519h-1.801c-1.073 0-1.768-.507-2.084-1.52-.853-2.753-1.737-5.506-2.59-8.259a.85.85 0 0 0-.017-.072c-.046-.17-.28-.159-.357-.001l-.009.023c-.883 2.749-1.734 5.53-2.617 8.278-.316 1.044-1.011 1.519-2.116 1.519h-1.864c-1.01 0-1.674-.506-1.99-1.456-1.358-4.209-2.684-8.386-4.042-12.595-.126-.443-.284-.854-.41-1.297a2.412 2.412 0 0 1-.096-.665c0-.443.222-.664.664-.664 1.01 0 1.99-.032 3 0 .916.031 1.58.57 1.864 1.455a643.184 643.184 0 0 0 2.21 7.405c.032.159.095.285.127.444Zm-14.032 6.33c-.059-.06-.147-.134-.218-.09-.187.113-.36.211-.531.31-1.58.98-3.348 1.297-5.18 1.234-1.2-.063-2.337-.253-3.442-.76-1.99-.917-3.096-2.626-3.032-4.651.063-2.279 1.231-3.766 3.316-4.589 1.105-.443 2.274-.633 3.474-.633h4.674c.41 0 .506-.127.474-.506-.221-1.93-1.01-2.69-2.969-2.69-.79 0-1.547.095-2.242.475a4.111 4.111 0 0 0-.727.57c-.473.537-1.042.79-1.737.79h-1.99c-.79 0-1.136-.411-1.073-1.202.126-1.55.947-2.564 2.337-3.196 1.137-.507 2.337-.697 3.569-.823 1.705-.127 3.41-.19 5.085.253 1.832.443 3.316 1.36 4.2 3.101.474.95.663 1.93.663 2.975v9.525c0 .76-.315 1.044-1.042 1.044h-2.432c-.8 0-1.09-.24-1.134-1.044a.135.135 0 0 0-.044-.093Zm-3.086-5.73c-.758.032-1.548 0-2.306.032s-1.39.38-1.737 1.108c-.505 1.076.126 2.247 1.358 2.5 1.863.38 3.537-.222 5.117-1.171.094-.064.157-.253.157-.412.032-.538 0-1.107 0-1.645 0-.317-.126-.412-.41-.412h-2.18Zm60.299 6.934c.293-.666-.214-1.326-.923-1.49-1.421-.253-2.558-.981-3.442-2.12-.98-1.266-1.58-2.69-2.053-4.178a368.224 368.224 0 0 1-2.369-7.88c-.19-.632.095-1.012.758-1.012h2.874c.758 0 1.263.38 1.484 1.14.727 2.341 1.422 4.683 2.148 7.024.284.95.663 1.868 1.295 2.659.347.411.758.728 1.295.823.316.063.474 0 .568-.349l2.559-9.303c.094-.317.189-.665.284-.981.189-.665.663-1.013 1.358-1.013h2.842c.727 0 1.011.38.822 1.044-1.359 4.937-2.685 9.905-4.075 14.842-.316 1.14-.821 2.247-1.358 3.291-1.01 1.93-2.684 2.943-4.864 2.912-1.326 0-2.653-.159-3.979-.317-.663-.063-.948-.443-.948-1.108v-1.487c0-.601.348-.95.948-.95.632.032 1.295.096 1.927.19.915.159 1.705-.094 2.305-.79.217-.29.395-.607.544-.947ZM56.06 24.968c0-2.405-.063-4.778.032-7.183.031-.95.252-1.93.537-2.848.631-1.899 2.116-2.88 3.98-3.323 2.052-.506 4.137-.475 6.221-.285.537.032 1.074.127 1.58.222.663.126.947.474.947 1.139v1.392c-.032.665-.348 1.013-1.043 1.013-.473 0-.947-.032-1.42-.127-1.264-.253-2.527-.158-3.76.159-1.2.284-1.768 1.012-1.926 2.405-.063.411-.063.854-.094 1.266-.032.38.094.506.505.506 1.547-.032 3.127 0 4.674 0 .821 0 1.106.285 1.137 1.108v1.518c0 .665-.347 1.013-1.042 1.013h-4.77c-.378 0-.505.127-.505.506v8.766c0 .886-.284 1.171-1.168 1.171h-2.78c-.852 0-1.136-.285-1.136-1.139 0-2.468 0-4.873.031-7.279-.031 0 0 0 0 0Zm65.156-7.31a.45.45 0 0 0 .706.372c.161-.11.312-.213.463-.309 1.642-1.076 3.474-1.392 5.401-1.392.536 0 .884.348.915.917.032.76.032 1.551 0 2.31-.031.602-.347.918-.947.918-.695 0-1.421 0-2.116-.063-1.39-.127-2.527.38-3.569 1.297-.632.57-.916 1.171-.884 2.057.063 2.785.031 5.57.031 8.386 0 .886-.284 1.171-1.2 1.171h-2.906c-.663 0-1.01-.348-1.01-1.012V17.69c0-.665.347-1.013 1.01-1.013h3.127c.632 0 .948.348.979.98Z" fill="#006E96"/>
    <path d="M78.074 26.456h2.179c.316 0 .442.095.41.411-.031.538 0 1.108 0 1.646 0 .126-.063.348-.157.411-1.58.95-3.254 1.55-5.117 1.17-1.232-.252-1.863-1.423-1.358-2.5.347-.727.98-1.043 1.737-1.107.758-.063 1.548-.031 2.306-.031Z" fill="#FFD328"/>
    <path d="M48.101 24.842c0 10.917-8.812 19.746-19.708 19.746-2.084 0-4.074-.316-5.937-.917a19.47 19.47 0 0 1-7.486-4.4c-3.853-3.607-6.285-8.733-6.285-14.43.032-10.917 8.844-19.746 19.74-19.746a19.566 19.566 0 0 1 13.865 5.728 19.694 19.694 0 0 1 5.81 14.019Z" fill="#fff"/>
    <path d="M37.552 33.227c-1.48-.741-3.3-.187-4.27 1.155-1.808 2.503-5.09 6.326-9.609 8.7a3.015 3.015 0 0 1-2.5.133c-2.784-1.1-1.902-5.188.364-7.143.304-.263.61-.546.919-.85 2.292-2.238 3.75-4.005 4.65-5.247.854-1.178.444-2.711-.766-3.52-.726-.474-.568-1.55.221-1.835l9.096-3.165a1.013 1.013 0 0 1 1.359.855l1.358 10.316c.094.475-.411.791-.822.602ZM40.3 21.804c-.221.57-1.042.474-1.137-.127a3.1 3.1 0 0 0-3.973-2.433l-1.112.345a.597.597 0 0 1-.726-.823c.6-1.266 1.453-3.386 2.148-6.108.607-2.496 3.256-4.817 5.258-3.207.221.177.438.36.65.546.608.534.964 1.3.967 2.109.012 3.73-1.223 7.507-2.075 9.698Z" fill="#006E96"/>
  </g>
  <defs>
    <clipPath id="clip0">
      <rect width="157" height="50" rx="25" fill="#fff"/>
    </clipPath>
  </defs>
</svg>
