<svg width="65" height="65" viewBox="0 0 65 65" fill="none" xmlns="http://www.w3.org/2000/svg">
  <path d="M34.741 0H3.362A3.362 3.362 0 0 0 0 3.362v58.276A3.362 3.362 0 0 0 3.362 65h31.38a3.362 3.362 0 0 0 3.361-3.362V3.362A3.362 3.362 0 0 0 34.741 0Z" fill="#B0D3F0"/>
  <path d="M38.103 3.362v58.276A3.362 3.362 0 0 1 34.741 65H3.362A3.362 3.362 0 0 1 0 61.638v-.146C29.138 53.793 30.259 12.328 15.32 0h19.42a3.362 3.362 0 0 1 3.362 3.362Z" fill="#90BAE1"/>
  <path d="m30.259 0-3.207 3.42A3.362 3.362 0 0 1 24.6 4.483H13.504c-.93 0-1.817-.385-2.453-1.063L7.845 0h22.414ZM17.931 23.534h-4.483a1.12 1.12 0 1 1 0-2.241h4.483a1.12 1.12 0 1 1 0 2.241Zm-8.965 0H7.845a1.12 1.12 0 0 1 0-2.241h1.12a1.12 1.12 0 1 1 0 2.241Zm8.965 15.69h-4.483a1.12 1.12 0 1 1 0-2.242h4.483a1.12 1.12 0 1 1 0 2.242Zm-8.965 0H7.845a1.12 1.12 0 0 1 0-2.242h1.12a1.12 1.12 0 0 1 0 2.242Zm8.965-7.844h-6.724a1.12 1.12 0 0 1 0-2.242h6.724a1.12 1.12 0 1 1 0 2.242Zm-11.207 0H4.483a1.12 1.12 0 0 1 0-2.242h2.241a1.12 1.12 0 1 1 0 2.242Zm31.379 24.654v5.604A3.362 3.362 0 0 1 34.741 65H3.362A3.362 3.362 0 0 1 0 61.638v-5.604a3.362 3.362 0 0 0 3.362 3.362h31.38a3.362 3.362 0 0 0 3.361-3.362Z" fill="#0F206C"/>
  <path d="M60.517 14.569H22.414a4.483 4.483 0 0 0-4.483 4.483v22.413a4.483 4.483 0 0 0 4.483 4.483h38.103A4.483 4.483 0 0 0 65 41.465V19.052a4.483 4.483 0 0 0-4.483-4.483Z" fill="#EE8F21"/>
  <path d="M32.5 33.62H65v6.725H17.931V33.62H32.5Z" fill="#0F206C"/>
  <path d="M53.793 23.535a2.241 2.241 0 1 0 0-4.483 2.241 2.241 0 0 0 0 4.483Z" fill="#fff"/>
  <path d="M58.276 23.535a2.241 2.241 0 1 0 0-4.483 2.241 2.241 0 0 0 0 4.483Z" fill="#E64C3C"/>
  <path d="M24.655 24.655h-1.12a1.12 1.12 0 0 1 0-2.241h1.12a1.12 1.12 0 1 1 0 2.241Zm7.845 0h-3.362a1.12 1.12 0 0 1 0-2.241H32.5a1.12 1.12 0 1 1 0 2.241Zm3.362 4.483H23.534a1.12 1.12 0 0 1 0-2.242h12.328a1.12 1.12 0 1 1 0 2.242Z" fill="#3F5C6C"/>
</svg>
