<svg width="105" height="93" viewBox="0 0 105 93" fill="none" xmlns="http://www.w3.org/2000/svg">
  <path d="M104.219 88V4a4 4 0 0 0-4-4H85.532c-1.736 0-3.205 1.143-3.806 2.771A7.998 7.998 0 0 1 74.219 8a7.998 7.998 0 0 1-7.507-5.229C66.11 1.143 64.642 0 62.906 0H48.219a4 4 0 0 0-4 4v84a4 4 0 0 0 4 4h52a4 4 0 0 0 4-4Zm-56 0V30h4a2 2 0 0 0 0-4h-4V4h14.646a.444.444 0 0 1 .094.156C64.689 8.848 69.215 12 74.219 12s9.529-3.152 11.26-7.844A.43.43 0 0 1 85.573 4h14.646v22h-4a2 2 0 0 0 0 4h4v58h-52Z" fill="#736F6F"/>
  <path d="M66.219 28a2 2 0 0 0-2-2h-4a2 2 0 0 0 0 4h4a2 2 0 0 0 2-2Zm12 0a2 2 0 0 0-2-2h-4a2 2 0 0 0 0 4h4a2 2 0 0 0 2-2Zm12 0a2 2 0 0 0-2-2h-4a2 2 0 0 0 0 4h4a2 2 0 0 0 2-2Z" fill="#736F6F"/>
  <path d="M77.219 53c0 3.859 3.14 7 7 7 3.859 0 7-3.141 7-7s-3.141-7-7-7c-3.86 0-7 3.141-7 7Zm10 0c0 1.654-1.346 3-3 3s-3-1.346-3-3 1.346-3 3-3 3 1.346 3 3Zm-16 15c0-3.859-3.141-7-7-7-3.86 0-7 3.141-7 7s3.14 7 7 7c3.859 0 7-3.141 7-7Zm-10 0c0-1.654 1.346-3 3-3s3 1.346 3 3-1.346 3-3 3-3-1.346-3-3Zm-3.536-21.28a1.988 1.988 0 0 0-.464 1.28c0 .572.245 1.141.72 1.536l30 25a1.999 1.999 0 1 0 2.56-3.072l-30-25a1.998 1.998 0 0 0-2.816.256Z" fill="#EE8F21"/>
  <path d="M28.125 35.969C12.617 35.969 0 48.586 0 64.094s12.617 28.125 28.125 28.125S56.25 79.602 56.25 64.094 43.633 35.969 28.125 35.969Zm23.938 28.125c0 5.847-2.112 11.21-5.607 15.371L12.755 45.762a23.827 23.827 0 0 1 15.371-5.606c13.2 0 23.938 10.739 23.938 23.938Zm-47.876 0c0-5.847 2.112-11.21 5.606-15.37l33.703 33.702a23.825 23.825 0 0 1-15.371 5.605c-13.2 0-23.938-10.738-23.938-23.937Z" fill="#736F6F"/>
</svg>
