<svg width="338" height="313" viewBox="0 0 338 313" fill="none" xmlns="http://www.w3.org/2000/svg">
  <path opacity=".7" d="M34.465 55.202C55.15 8.04 104.797-9.718 143.97 21.948c15.296 12.354 24.84 32.015 43.57 39.905 17.575 7.399 39.838 5.22 58.843 9.228 40.469 8.48 94.956 40.652 90.799 90.225-1.821 21.715-16.469 45.832-23.71 66.15-8.313 23.377-13.301 52.624-35.307 66.599-37.726 23.992-83.234 4.381-117.219-14.964-18.29-10.4-28.357-16.793-48.052-13.227-18.231 3.326-34.65 14.964-52.466 1.156-13.376-10.367-14.482-31.375-25.713-43.712-12.653-13.9-25.48-14.906-32.057-35.798-7.972-25.347 3.775-41.185 11.714-63.83 7.94-22.646 10.35-46.29 20.093-68.478Z" fill="#F28221"/>
  <path d="M181.808 312.435c-70.974 0-128.51-3.584-128.51-8.005 0-4.422 57.536-8.006 128.51-8.006 70.973 0 128.508 3.584 128.508 8.006 0 4.421-57.535 8.005-128.508 8.005Z" fill="#2D317F"/>
  <path opacity=".8" d="M181.808 312.435c-70.974 0-128.51-3.584-128.51-8.005 0-4.422 57.536-8.006 128.51-8.006 70.973 0 128.508 3.584 128.508 8.006 0 4.421-57.535 8.005-128.508 8.005Z" fill="#fff"/>
  <path d="M85.24 0h129.216c8.921 0 16.153 7.232 16.153 16.153V288.95c0 8.921-7.232 16.153-16.153 16.153H85.241c-8.921 0-16.153-7.232-16.153-16.153V16.153C69.088 7.232 76.32 0 85.24 0Z" fill="#263238"/>
  <path d="M76.27 33.503h147.164v238.096H76.269V33.503Z" fill="#fff" stroke="#263238" stroke-width="1.337" stroke-miterlimit="10"/>
  <path d="M127.294 129.915c-12.457-12.457-12.457-32.654 0-45.111 12.457-12.457 32.654-12.457 45.111 0 12.457 12.457 12.457 32.654 0 45.111-12.457 12.457-32.654 12.457-45.111 0Zm-19.325 126.712h83.749a1.425 1.425 0 0 0 1.016-.416 1.437 1.437 0 0 0 .422-1.014 1.432 1.432 0 0 0-.886-1.331 1.432 1.432 0 0 0-.552-.107h-83.749a1.424 1.424 0 0 0-1.014.422 1.434 1.434 0 0 0 1.014 2.446Zm-2.725-99.437h89.211a3.334 3.334 0 0 1 3.334 3.334v10.517a3.333 3.333 0 0 1-3.334 3.333h-89.211a3.334 3.334 0 0 1-3.334-3.333v-10.517a3.334 3.334 0 0 1 3.334-3.334Zm0 32.14h89.211a3.334 3.334 0 0 1 3.334 3.334v10.516a3.334 3.334 0 0 1-3.334 3.334h-89.211a3.334 3.334 0 0 1-3.334-3.334v-10.516a3.334 3.334 0 0 1 3.334-3.334Z" fill="#2D317F"/>
  <path d="m133.966 123.271 9.386-5.403v-4.465a14.693 14.693 0 0 1-2.885-5.628 3.025 3.025 0 0 1-1.006.175c-1.163 0-1.903-3.608-2.028-6.186-1.355-2.868.49-4.547.49-4.547s-.764-.765-1.272-3.832c-.507-3.068 1.788-1.788 3.575-4.598 1.788-2.81 3.068-5.87 8.937-5.87a8.064 8.064 0 0 1 7.665 4.856c1.461.005 2.917.175 4.34.507 1.795.507 2.303 6.385.773 8.688a8.751 8.751 0 0 0-1.064 4.098c.407-.499.831-.632 1.064.499.507 2.552-1.538 6.127-1.538 6.127l-1.056-.299a14.963 14.963 0 0 1-3.001 6.01v4.465l9.386 5.403a7.224 7.224 0 0 1 3.608 6.244v3.092a31.878 31.878 0 0 1-38.982 0v-3.092a7.21 7.21 0 0 1 3.608-6.244Zm51.675 78.97a.83.83 0 0 0 .573-.241.77.77 0 0 0 .258-.582.816.816 0 0 0-.125-.424l-1.496-2.395 2.918.092a.789.789 0 0 0 .599-.225.833.833 0 0 0 0-1.105.746.746 0 0 0-.274-.183.735.735 0 0 0-.325-.05l-2.876.108 1.479-2.386a.826.826 0 0 0 .125-.432.776.776 0 0 0-.258-.582.827.827 0 0 0-.573-.241.756.756 0 0 0-.4.118.757.757 0 0 0-.274.314l-1.421 2.569-1.405-2.552a.833.833 0 0 0-.723-.466.764.764 0 0 0-.557.25.826.826 0 0 0-.233.59c0 .143.037.283.108.407l1.505 2.411-2.918-.108a.751.751 0 0 0-.599.233.772.772 0 0 0-.216.548c0 .206.077.405.216.557a.778.778 0 0 0 .599.225l2.934-.092-1.463 2.37a.835.835 0 0 0 .707 1.272.738.738 0 0 0 .665-.449l1.388-2.494 1.38 2.494c.061.13.157.241.278.32.12.08.26.124.404.129Zm-13.485 0a.835.835 0 0 0 .574-.241.781.781 0 0 0 .133-1.006l-1.497-2.395 2.91.092a.823.823 0 0 0 .607-.225.787.787 0 0 0-.156-1.224.796.796 0 0 0-.451-.114l-2.868.108 1.48-2.386a.834.834 0 0 0 .124-.432.776.776 0 0 0-.257-.582.83.83 0 0 0-.574-.241.75.75 0 0 0-.673.432l-1.422 2.569-1.405-2.552a.833.833 0 0 0-.723-.466.747.747 0 0 0-.557.25.829.829 0 0 0-.241.59.834.834 0 0 0 .116.407l1.505 2.411-2.927-.091a.734.734 0 0 0-.59.232.776.776 0 0 0-.216.549.836.836 0 0 0 .216.557.774.774 0 0 0 .59.225l2.943-.092-1.463 2.369a.838.838 0 0 0 .119 1.029.83.83 0 0 0 .588.243.73.73 0 0 0 .665-.449l1.388-2.494 1.38 2.494a.78.78 0 0 0 .682.433Zm-13.492 0a.835.835 0 0 0 .582-.241.768.768 0 0 0 .257-.582.825.825 0 0 0-.124-.424l-1.497-2.395 2.91.092a.788.788 0 0 0 .607-1.33.783.783 0 0 0-.607-.233l-2.868.108 1.48-2.386a.834.834 0 0 0 .124-.432.82.82 0 0 0-.257-.582.83.83 0 0 0-.582-.241.747.747 0 0 0-.665.432l-1.422 2.569-1.405-2.552a.833.833 0 0 0-.723-.466.75.75 0 0 0-.557.25.829.829 0 0 0-.241.59.834.834 0 0 0 .116.407l1.505 2.411-2.926-.108a.765.765 0 0 0-.594.201.766.766 0 0 0-.238.58.827.827 0 0 0 .208.557.778.778 0 0 0 .599.225l2.934-.092-1.455 2.37a.805.805 0 0 0-.053.757c.044.1.107.19.186.265a.79.79 0 0 0 .566.25.718.718 0 0 0 .656-.449l1.397-2.494 1.38 2.494a.767.767 0 0 0 .707.449Zm-13.485 0a.831.831 0 0 0 .582-.241.831.831 0 0 0 .25-.582.782.782 0 0 0-.117-.424l-1.496-2.395 2.91.092a.823.823 0 0 0 .607-.225.833.833 0 0 0 0-1.105.835.835 0 0 0-.607-.233l-2.877.108 1.472-2.386a.834.834 0 0 0 .124-.432.82.82 0 0 0-.257-.582.83.83 0 0 0-.582-.241.756.756 0 0 0-.4.118.757.757 0 0 0-.274.314l-1.413 2.569-1.405-2.552a.833.833 0 0 0-.723-.466.75.75 0 0 0-.557.25.829.829 0 0 0-.241.59.834.834 0 0 0 .116.407l1.505 2.411-2.926-.108a.765.765 0 0 0-.594.201.766.766 0 0 0-.238.58.827.827 0 0 0 .208.557.778.778 0 0 0 .599.225l2.934-.092-1.455 2.37a.825.825 0 0 0-.058.759c.044.1.11.19.191.263a.79.79 0 0 0 .566.25.718.718 0 0 0 .656-.449l1.397-2.494 1.38 2.494a.774.774 0 0 0 .723.449Zm-13.484 0a.835.835 0 0 0 .582-.241.828.828 0 0 0 .125-1.006l-1.488-2.395 2.909.092a.823.823 0 0 0 .607-.225.829.829 0 0 0 0-1.105.828.828 0 0 0-.607-.233l-2.876.108 1.48-2.386a.834.834 0 0 0 .124-.432.829.829 0 0 0-.249-.582.83.83 0 0 0-.582-.241.75.75 0 0 0-.673.432l-1.414 2.569-1.405-2.552a.83.83 0 0 0-.723-.466.765.765 0 0 0-.565.25.83.83 0 0 0-.117.997l1.505 2.411-2.926-.108a.754.754 0 0 0-.776.466.755.755 0 0 0-.056.315.837.837 0 0 0 .208.557.782.782 0 0 0 .599.225l2.934-.092-1.454 2.37a.826.826 0 0 0-.059.759c.045.1.11.19.192.263a.78.78 0 0 0 .565.25.737.737 0 0 0 .396-.126.731.731 0 0 0 .261-.323l1.396-2.494 1.38 2.494a.77.77 0 0 0 .707.449Zm-13.483 0a.835.835 0 0 0 .574-.241.776.776 0 0 0 .133-1.006l-1.488-2.395 2.909.092a.771.771 0 0 0 .832-.782.773.773 0 0 0-.225-.548.743.743 0 0 0-.273-.183.735.735 0 0 0-.325-.05l-2.877.108 1.48-2.386a.826.826 0 0 0 .125-.432.83.83 0 0 0-.25-.582.827.827 0 0 0-.582-.241.753.753 0 0 0-.673.432l-1.413 2.569-1.413-2.552a.834.834 0 0 0-.715-.466.77.77 0 0 0-.566.25.835.835 0 0 0-.233.59.83.83 0 0 0 .109.407l1.504 2.411-2.918-.108a.74.74 0 0 0-.325.05.767.767 0 0 0-.489.731c0 .206.077.405.216.557a.778.778 0 0 0 .598.225l2.935-.092-1.455 2.37a.835.835 0 0 0-.125.44c.003.22.093.429.25.582a.832.832 0 0 0 .573.25.718.718 0 0 0 .657-.449l1.397-2.494 1.38 2.494a.768.768 0 0 0 .673.449Z" fill="#fff"/>
  <path d="M76.27 33.819h147.164v9.22H76.269v-9.22Z" fill="#F28221" style="mix-blend-mode:multiply"/>
  <path d="M133.85 16.835h32.007a2.176 2.176 0 0 0 2.178-2.178 2.176 2.176 0 0 0-2.178-2.178H133.85a2.18 2.18 0 0 0-1.54 3.718 2.18 2.18 0 0 0 1.54.638Z" fill="#2D317F" stroke="#263238" stroke-width="1.337" stroke-linecap="round" stroke-linejoin="round"/>
  <path d="M141.124 285.05a8.719 8.719 0 0 1 1.468-4.852 8.724 8.724 0 0 1 8.962-3.718 8.726 8.726 0 0 1 4.471 2.39 8.726 8.726 0 0 1-1.328 13.434 8.726 8.726 0 0 1-11.016-1.09 8.725 8.725 0 0 1-2.557-6.164Z" fill="#fff"/>
  <path d="M145.42 280.628h8.846v8.845h-8.846v-8.845Z" fill="#fff" stroke="#263238" stroke-width="1.337" stroke-linecap="round" stroke-linejoin="round"/>
  <path d="m262.557 126.34 27.376-8.937 2.436-6.435 5.562-.175 10.092-1.912-1.213 2.087-12.703 9.22-3.134 1.563-28.632 14.955.216-10.366Z" fill="#fff" stroke="#263238" stroke-width="1.004" stroke-miterlimit="10"/>
  <path d="m292.368 110.968 2.611-1.563 5.212 1.912-.864 1.04-6.959-1.389Z" fill="#fff" stroke="#263238" stroke-width="1.004" stroke-linejoin="round"/>
  <path d="m262.557 126.34 27.376-8.937 2.436-6.435 5.562-.175 10.092-1.912-1.213 2.087-12.703 9.22-3.134 1.563-28.632 14.955.216-10.366Z" fill="#fff"/>
  <path opacity=".5" d="m262.557 126.34 27.376-8.937 2.436-6.435 5.562-.174 10.092-1.912-1.213 2.086-12.703 9.22-3.134 1.563-28.632 14.956.216-10.367Z" fill="#2D317F" stroke="#263238" stroke-width="1.004" stroke-miterlimit="10"/>
  <path d="m262.557 126.34 27.376-8.937 2.436-6.435 5.562-.175 10.092-1.912-1.213 2.087-12.703 9.22-3.134 1.563-28.632 14.955.216-10.366Z" stroke="#263238" stroke-width="1.004" stroke-miterlimit="10"/>
  <path d="m292.368 110.968 2.611-1.563 5.212 1.912-.864 1.04-6.959-1.389Z" fill="#fff"/>
  <path opacity=".5" d="m292.368 110.968 2.611-1.563 5.212 1.912-.864 1.039-6.959-1.388Z" fill="#2D317F" stroke="#263238" stroke-width="1.004" stroke-linejoin="round"/>
  <path d="m292.368 110.968 2.611-1.563 5.212 1.912-.864 1.04-6.959-1.389Z" stroke="#263238" stroke-width="1.004" stroke-linejoin="round"/>
  <path d="M256.745 68.337s.424 3.741-.632 6.144c-1.056 2.402-6.917 10.541-6.917 10.541l10.941 8.77s4.539-9.144 5.404-10.624c.864-1.48 1.903-7.848-.915-12.412-2.818-4.564-6.875-5.794-7.881-2.419Z" fill="#fff"/>
  <path d="m262.366 80.357-4.747 9.844 2.527 3.6 4.772-8.522-2.552-4.922Z" fill="#2D317F" style="mix-blend-mode:multiply" opacity=".5"/>
  <path d="M256.745 68.337s.424 3.741-.632 6.144c-1.056 2.402-6.917 10.541-6.917 10.541l10.941 8.77s4.539-9.144 5.404-10.624c.864-1.48 1.903-7.848-.915-12.412-2.818-4.564-6.875-5.794-7.881-2.419Z" stroke="#263238" stroke-width="1.004" stroke-miterlimit="10"/>
  <path d="M253.352 61.487c.674-4.157 5.437-12.612 12.994-12.288 4.905.217 7.199 1.206 9.328 2.411a27.458 27.458 0 0 1 4.821 3.608c3.692 4.431 4.989 5.645 4.274 9.037a10.191 10.191 0 0 1-.624 3.974c-1.131 3.018-1.904 4.988-2.885 6.426.3 1.405 1.081 5.113 1.123 5.96.041.849-2.494.259-3.775-.066-2.377 5.321-6.734 9.012-8.089 9.436-2.361.74-6.093-3.142-8.072-6.152-1.979-3.01-.482-6.393-.49-7.74-.009-1.346-4.448-4.306-6.094-5.245-1.646-.94-3.176-5.213-2.511-9.361Z" fill="#fff"/>
  <path d="M284.736 64.255a10.191 10.191 0 0 1-.624 3.974c-1.13 3.018-1.904 4.988-2.885 6.426.3 1.405 1.081 5.113 1.123 5.961.041.848-2.494.258-3.775-.067-2.377 5.321-6.733 9.012-8.089 9.436-2.361.74-6.093-3.142-8.072-6.152a6.06 6.06 0 0 1-.939-2.494c.108-.39.183-.632.183-.632s1.114 4.282 3.325 3.725c2.211-.557 5.595-4.988 7.482-6.518 1.887-1.53 1.114-3.541 1.488-5.82.374-2.277 5.961-4.28 6.335-5.586.374-1.305-.931-6.709-.931-6.709s-2.12-2.826-1.663-1.663a7.912 7.912 0 0 1-.557 6.144 4.235 4.235 0 0 1-3.915 2.42l-2.029-10.052 4.282-3.541 4.988 2.078c3.724 4.465 4.996 5.678 4.273 9.07Z" fill="#2D317F" style="mix-blend-mode:multiply" opacity=".5"/>
  <path d="M253.352 61.487c.674-4.157 5.437-12.612 12.994-12.288 4.905.217 7.199 1.206 9.328 2.411a27.458 27.458 0 0 1 4.821 3.608c3.692 4.431 4.989 5.645 4.274 9.037a10.191 10.191 0 0 1-.624 3.974c-1.131 3.018-1.904 4.988-2.885 6.426.3 1.405 1.081 5.113 1.123 5.96.041.849-2.494.259-3.775-.066-2.377 5.321-6.734 9.012-8.089 9.436-2.361.74-6.093-3.142-8.072-6.152-1.979-3.01-.482-6.393-.49-7.74-.009-1.346-4.448-4.306-6.094-5.245-1.646-.94-3.176-5.213-2.511-9.361Z" stroke="#263238" stroke-miterlimit="10"/>
  <path d="m280.23 72.144-.831 2.378s-1.787.59-3.965-1.787m-1.348 10.516s-1.979-.2-2.777-2.976m10.312-10.118s-.59-1.787-4.157-1.787" stroke="#263238" stroke-miterlimit="10" stroke-linecap="round"/>
  <path d="M263.339 45.89a59.07 59.07 0 0 1 7.823-.598s7.831-4.514 15.354.3c7.524 4.813 3.908 13.243 3.908 15.346 0 2.103 2.411 2.111.906 4.822-1.505 2.71-6.593 1.213-6.593 1.213a7.235 7.235 0 0 0-2.718-5.279c-2.71-2.103-4.872-2.56-5.77-1.953 0 0 .599 4.514-.299 6.318 0 0-3.009 1.505-3.916 1.505-.906 0 .591 1.272-2.41 2.402a3.76 3.76 0 0 1-3.326-.39c-.44-1.83-1.405-4.581-3.2-3.941-2.636.94-5.038 7.424-1.472 9.635-4.29.782-9.486-6.808-9.793-13.725-.308-6.917 7.05-14.873 11.506-15.654Z" fill="#263238"/>
  <path d="M276.117 56.773s-2.211-1.19-4.921 1.355c-2.711 2.544-7.981 5.944-14.965 4.073m20.191-7.465s-1.521-2.378-4.065-2.378c-2.544 0-8.488 3.567-13.235 3.567m19.029 3.392s2.884-3.558 5.595-.673c2.71 2.885.989 5.611.989 5.611m4.949-2.56a8.81 8.81 0 0 1-2.877-5.77c-.341-3.733-5.437-6.958-8.654-3.899m6.277-3.907s-5.096-4.922-9.336 1.355" stroke="#fff" stroke-width=".5" stroke-linecap="round" stroke-linejoin="round"/>
  <path d="M242.952 290.098s-3.135 4.871-2.785 8.005l.34 3.135s11.498 3.15 13.934 3.15 15.33-1.222 15.33-1.222l.557-2.211a.734.734 0 0 0-.399-.831l-11.498-5.363-3.624-3.965-11.855-.698Z" fill="#fff" stroke="#263238" stroke-width="1.004" stroke-miterlimit="10"/>
  <path d="M252.697 301.936c-3.117.241-9.037-1.663-12.47-2.876l.241 2.178s11.539 3.15 13.975 3.15 15.33-1.222 15.33-1.222l.399-1.579c-2.062.008-13.351.033-17.475.349Z" fill="#2D317F" stroke="#263238" stroke-width="1.004" stroke-miterlimit="10"/>
  <path d="m258.415 294.761 16.735 7.282s1.43 3.583 0 4.298c-1.43.715-32.606 0-32.606 0s-2.153-5.661 1.247-9.46c3.401-3.799 14.624-2.12 14.624-2.12Z" fill="#fff" stroke="#263238" stroke-width="1.004" stroke-miterlimit="10"/>
  <path d="M242.547 306.342s31.175.715 32.605 0c.69-.349.715-1.355.557-2.311h-33.711c.11.786.294 1.559.549 2.311Zm23.784-138.12s4.373 19.379 6.027 31.5c1.655 12.121 2.627 36.404 2.278 39.189-.349 2.785-17.757 49.449-17.757 49.449l-1.738 4.156-12.187-2.436s5.57-17.757 7.657-27.509c2.086-9.751 6.65-25.771 6.65-28.556s-10.807-55.975-11.58-59.466c-.773-3.492-4.282-8.854-4.282-8.854l23.336-.474 1.596 3.001Z" fill="#2D317F" stroke="#263238" stroke-width="1.004" stroke-miterlimit="10"/>
  <path d="M266.33 168.223s2.56 17.699 1.505 30.003c-1.056 12.304-3.326 38.499-3.326 42.398 0 3.899-6.293 27.185-6.651 34.501-.557 10.566.225 15.796.225 15.796l.374 3.832s-7.341 1.048-8.945 1.505a19.901 19.901 0 0 1-5.678.615s-2.669-11.747-2.669-21.756c0-10.01 2.22-30.61 3.325-38.957 1.106-8.347-2.377-40.544-4.356-46.555-1.978-6.011-6.301-18.738-3.392-25.24 2.91-6.501 29.588 3.858 29.588 3.858Z" fill="#2D317F" stroke="#263238" stroke-width="1.004" stroke-miterlimit="10"/>
  <path d="m233.509 161.106.266 7.915s4.738.939 11.123 2.045c5.271.914 18.506-.241 22.962-.673a1.547 1.547 0 0 0 1.405-1.663l-.433-7.15-35.323-.474Z" fill="#263238"/>
  <path d="M252.033 82.212s7.482 8.089 10.301 13.118c2.818 5.03 3.932 12.737 4.988 18.805 1.056 6.069-1.804 20.318-.998 26.861l2.552 20.609s.549 1.397-1.288 2.926c-1.837 1.53-10.808 2.087-18.913 2.494-2.96.15-11.797-1.754-13.243-1.845-1.746-.108-1.805-2.328-1.879-4.074-.349-8.205-1.829-30.078-2.802-39.605-2.003-19.428 8.962-38.183 21.282-39.29Z" fill="#fff" stroke="#263238" stroke-width="1.004" stroke-miterlimit="10"/>
  <path d="M231.666 132.55c-.333-4.315-.665-8.231-.956-11.049a50.864 50.864 0 0 1-.175-2.494l19.878 3.326 17.075-5.82a94.601 94.601 0 0 1-.598 10.575l-16.752 4.689-18.472.773Zm21.107-49.524a137.776 137.776 0 0 1 5.512 6.518l-12.62 12.828-4.156-1.663 11.264-17.683Z" fill="#FCB62E" style="mix-blend-mode:multiply"/>
  <path d="M252.031 82.212s7.482 8.089 10.3 13.118a25.516 25.516 0 0 1 2.021 4.806l-15.048-17.384c.889-.269 1.803-.45 2.727-.54Z" fill="#263238"/>
  <path d="m266.738 110.86-16.327 5.371-19.828-2.278a46.484 46.484 0 0 1 3.251-14.39l15.986 6.409 14.291-6.476a75.146 75.146 0 0 1 2.627 11.364Zm-28.109 42.041a50.55 50.55 0 0 0 24.724-2.02l3.983-1.363 1.238 9.976-4.539 1.272a68.464 68.464 0 0 1-26.545 2.045l-3.666-.441a3.327 3.327 0 0 1-.316-1.288c-.1-2.22-.274-5.446-.499-9.145l5.62.964Zm-2.218-13.584a50.362 50.362 0 0 0 24.724-2.029l5.071-1.737a32.688 32.688 0 0 0 .075 5.437l.59 4.797-5.054 1.413a68.405 68.405 0 0 1-26.537 2.053l-2.494-.299a947.562 947.562 0 0 0-.707-10.367l4.332.732Z" fill="#FCB62E" style="mix-blend-mode:multiply"/>
  <path d="m314.406 104.161-16.074 12.924-.693-.862 16.075-12.924.692.862Z" fill="#263238"/>
  <path d="M244.293 91.182s-5.894 4.016-6.027 13.501c-.058 4.157.374 8.039 1.33 14.848.956 6.809 6.892 28.98 11.514 31.674 4.623 2.694 11.797-2.394 11.797-2.394l34.7-23.037 8.389-6.775 4.156-7.848-1.305-2.494-10.234 7.848 5.512-5.096-1.081-1.372-1.995 1.388-5.819 2.178-1.272 8.314-1.796 1.23-33.195 12.13s.415-17.866.108-21.283c-.308-3.417-.732-12.004-4.39-18.231" fill="#fff"/>
  <path d="M259.199 121.775c0 6.169-.207 13.501-.207 13.501l33.162-12.079 1.796-1.23 1.272-8.314 5.819-2.178 1.987-1.413 1.081 1.371-5.496 5.072 10.234-7.848 1.239 2.452-4.157 7.848-8.388 6.817-2.112 1.405-45.848 14.773 9.618-20.177Z" fill="#2D317F" style="mix-blend-mode:multiply" opacity=".5"/>
  <path d="M244.293 91.182s-5.894 4.016-6.027 13.501c-.058 4.157.374 8.039 1.33 14.848.956 6.809 6.892 28.98 11.514 31.674 4.623 2.694 11.797-2.394 11.797-2.394l34.7-23.037 8.389-6.775 4.156-7.848-1.305-2.494-10.234 7.848 5.512-5.096-1.081-1.372-1.995 1.388-5.819 2.178-1.272 8.314-1.796 1.23-33.195 12.13s.415-17.866.108-21.283c-.308-3.417-.732-12.004-4.39-18.231" stroke="#263238" stroke-width="1.004" stroke-miterlimit="10"/>
  <path d="m258.965 135.276-12.67 9.145-3.284-5.819s-2.269-1.788-2.602-3.134c-.332-1.347.092-3.534-.249-4.88-.341-1.347-2.037-2.611-2.195-5.87-.158-3.258 0-5.977 0-5.977s-2.743-11.281-2.444-16.186c.299-4.905 5.029-13.576 8.82-13.767 3.791-.191 8.721.382 12.545 6.168 3.825 5.787 3.043 22.679 3.642 23.735.598 1.056-.233 6.268-.233 6.268a2.92 2.92 0 0 1 1.164 2.104c.066 1.355-1.397 4.689-1.397 4.689l-1.097 3.524Z" fill="#fff" stroke="#263238" stroke-width="1.004" stroke-miterlimit="10"/>
  <path d="M260.195 114.352a23.527 23.527 0 0 0 .324 4.331c.533.948-.074 5.229-.207 6.102a49.342 49.342 0 0 1-22.039 1.663 8.167 8.167 0 0 1-.283-1.771c-.166-3.25 0-5.977 0-5.977s-.241-1.006-.574-2.536a80.216 80.216 0 0 0 22.779-1.812ZM257.4 95.88c1.189 2.385 1.854 5.968 2.237 9.601a49.513 49.513 0 0 1-23.702 2.885 31.68 31.68 0 0 1-.424-5.819 16.186 16.186 0 0 1 1.081-4.49A82.183 82.183 0 0 0 257.4 95.88Z" fill="#FCB62E" style="mix-blend-mode:multiply"/>
  <path d="m260.062 131.843-1.072 3.434-12.67 9.144-3.283-5.819s-2.27-1.787-2.602-3.134a3.678 3.678 0 0 1-.109-.715 77.425 77.425 0 0 0 19.736-2.91Z" fill="#263238"/>
  <path d="M250.893 296.149s-.283-7.199-1.663-17.724c-1.38-10.525 1.937-25.472 2.494-27.966.557-2.494-.283-8.031.274-9.976.557-1.946 3.251-10.242 1.663-19.869-1.588-9.627-2.876-35.075-2.876-35.075s3.998-3.25 5.171-7.482c1.172-4.231.274-5.561.274-5.561m-7.19.391 1.538 8.513" stroke="#263238" stroke-width="1.004" stroke-miterlimit="10"/>
</svg>
