<svg width="389" height="250" viewBox="0 0 389 250" fill="none" xmlns="http://www.w3.org/2000/svg">
  <rect x="1" y="1" width="386.88" height="248" rx="24" fill="url(#paint0_linear_350_5851)" stroke="#B5BBC9" stroke-width="2"/>
  <path d="M36.502 35.72h83.985a3.268 3.268 0 0 1 3.267 3.269v109.919h-90.52V39.018a3.268 3.268 0 0 1 3.268-3.297Z" fill="#fff" stroke="#263238" stroke-linecap="round" stroke-linejoin="round"/>
  <path d="M44.676 97.217c.364-3.662 15.596-8.504 33.822-8.697 16.978-.178 33.295 5.503 35.501 9.246 2.206 3.743-4.456 51.246-4.456 51.246H48.85s-5.28-40.655-4.174-51.795Z" fill="#263238"/>
  <path d="M89.408 90.101a11.885 11.885 0 0 1-10.569 6.053c-6.23 0-10.769-5.4-10.769-5.4 2.191-1.967 2.325-5.607 1.998-8.466a25.364 25.364 0 0 0-.817-4.16h18.627c-1.136 3.714-1.092 6.403-.654 8.26.654 2.733 2.184 3.713 2.184 3.713Z" fill="#BFBFBF" stroke="#263238" stroke-miterlimit="10"/>
  <path d="M115.959 123.975s-4.567 19.563-7.895 25.007l-69.197-.09s3.714-5.198 6.506-7.018c2.793-1.82 12.3.921 14.17.921 1.873 0 34.692-5.258 35.932-5.674 1.24-.416 5.244-15.716 5.244-15.716s11.638.49 15.24 2.57Z" fill="#BFBFBF"/>
  <path opacity=".15" d="M115.959 123.975s-1.953 8.378-4.248 15.701c-1.864-1.307-4.835-2.436-9.366-1.916-9.402 1.084-15.722 2.406-15.722 2.406s-9.418 4.211-12.314 8.771l-35.442-.044s3.714-5.199 6.506-7.019c2.793-1.819 12.3.921 14.17.921 1.873 0 34.692-5.258 35.932-5.674 1.24-.416 4.91-14.445 5.199-15.597 4.064.192 8.111.654 12.114 1.382 1.101.211 2.167.571 3.171 1.069Z" fill="#000"/>
  <path d="M115.959 123.975s-4.567 19.563-7.895 25.007l-69.197-.09s3.714-5.198 6.506-7.018c2.793-1.82 12.3.921 14.17.921 1.873 0 34.692-5.258 35.932-5.674 1.24-.416 5.244-15.716 5.244-15.716s11.638.49 15.24 2.57Z" stroke="#263238" stroke-linecap="round" stroke-linejoin="round"/>
  <path d="M104.742 103.21c-2.689 2.08-5.259 10.606-5.259 10.606l-.92 10.227s12.729 1.663 16.792 7.427c0 0 .364-1.805 0-2.629a65.187 65.187 0 0 0 4.753-14.75c1.656-8.489-3.713-16.704-7.761-17.951" fill="#263238"/>
  <path d="M104.742 103.21c-2.689 2.08-5.259 10.606-5.259 10.606l-.92 10.227" fill="#263238"/>
  <path d="M104.742 103.21c-2.689 2.08-5.259 10.606-5.259 10.606l-.92 10.227" stroke="#fff" stroke-linecap="round" stroke-linejoin="round"/>
  <path d="M109.49 121.948c1.411-.119 5.354 1.262 6.053 2.302.698 1.04 1.381 2.414.416 3.283.251.72.41 1.468.475 2.228 0 .906-1.374 1.314-1.374 1.314a1.982 1.982 0 0 1-1.062 2.563s.401 1.73-1.04 2.421l-.743-.55s-4.701.691-6.988 0" fill="#BFBFBF"/>
  <path d="M109.49 121.948c1.411-.119 5.354 1.262 6.053 2.302.698 1.04 1.381 2.414.416 3.283.251.72.41 1.468.475 2.228 0 .906-1.374 1.314-1.374 1.314a1.982 1.982 0 0 1-1.062 2.563s.401 1.73-1.04 2.421l-.743-.55s-4.701.691-6.988 0" stroke="#263238" stroke-linecap="round" stroke-linejoin="round"/>
  <path d="M110.051 127.978c.246-.486.54-.946.876-1.374.491-.788-1.114-1.486-.631-2.08 1.278-1.522-.082-2.228-.082-2.228-.549-1.381-9.476 1.382-10.033-.275-.802-2.413 4.04-7.003 1.084-9.402-.431-.357-.943 2.881-4.679 6.112-1.909 1.649-1.968 6.291-5.585 8.363-3.617 2.072-11.074 4.709-18.917 5.54-4.36.461-11.764 2.667-11.764 2.667s-.082-5.942-1.612-9.314-12.313-5.273-12.313-5.273l-3.989 8.17s4.382 15.693 6.447 20.127l16.458-.238a96.361 96.361 0 0 0 12.173-5.199 80.682 80.682 0 0 1 17.995-6.402c2.228-.416 11.252-1.106 12.5-1.797a1.827 1.827 0 0 0 .899-2.473c-.349-.929.616-1.753.616-1.753" fill="#BFBFBF"/>
  <path d="M110.051 127.978c.246-.486.54-.946.876-1.374.491-.788-1.114-1.486-.631-2.08 1.278-1.522-.082-2.228-.082-2.228-.549-1.381-9.476 1.382-10.033-.275-.802-2.413 4.04-7.003 1.084-9.402-.431-.357-.943 2.881-4.679 6.112-1.909 1.649-1.968 6.291-5.585 8.363-3.617 2.072-11.074 4.709-18.917 5.54-4.36.461-11.764 2.667-11.764 2.667s-.082-5.942-1.612-9.314-12.313-5.273-12.313-5.273l-3.989 8.17s4.382 15.693 6.447 20.127l16.458-.238a96.361 96.361 0 0 0 12.173-5.199 80.682 80.682 0 0 1 17.995-6.402c2.228-.416 11.252-1.106 12.5-1.797a1.827 1.827 0 0 0 .899-2.473c-.349-.929.616-1.753.616-1.753m6.467-3.615s-1.389-1.345-1.709-1.53c-.319-.186-2.814-.832-2.814-.832m3.618 5.94s-.624-1.292-1.575-1.582a22.483 22.483 0 0 0-2.465-.505m2.982 4.635s-1.411-.876-2.013-1.195a6.344 6.344 0 0 0-1.938-.416" stroke="#263238" stroke-linecap="round" stroke-linejoin="round"/>
  <path d="M46.908 94.84s-6.684.067-8.496 13.264c-1.025 7.286 2.347 19.236 2.763 21.591a6.043 6.043 0 0 0 2.465 3.669s8.021-5.043 15.909-4.717c0 0 1.389-4.188 0-4.604-1.389-.416 1.389-8.467-1.768-14.112" fill="#263238"/>
  <path d="M60.252 127.243s1.381-4.182 0-4.598c-1.381-.415 1.381-8.466-1.768-14.111" fill="#263238"/>
  <path d="M60.252 127.243s1.381-4.182 0-4.598c-1.381-.415 1.381-8.466-1.768-14.111" stroke="#fff" stroke-linecap="round" stroke-linejoin="round"/>
  <path d="M87.223 86.388c-13.457 3.527-16.131-4.16-16.131-4.16l-1.025.06a25.364 25.364 0 0 0-.817-4.16h18.627c-1.107 3.73-1.107 6.403-.654 8.26Z" fill="#263238"/>
  <path d="M91.971 65.057s1.485-1.634 2.228-1.099a3.505 3.505 0 0 1 1.21 3.439c-.408 1.389-2.146 3.795-2.28 5.199-.133 1.403-1.04 2.97-2.027 2.072-.988-.899.869-9.61.869-9.61Zm-26.738 0s-1.485-1.634-2.228-1.099a3.505 3.505 0 0 0-1.21 3.439c.4 1.389 2.146 3.795 2.28 5.199.133 1.403 1.04 2.97 2.027 2.072.988-.899-.869-9.61-.869-9.61Z" fill="#BFBFBF" stroke="#263238" stroke-miterlimit="10"/>
  <path d="M78.244 46.215c18.872 0 14.386 25.125 10.91 33.191-1.218 2.837-7.538 6.55-10.59 6.55-2.845 0-9.343-4.456-10.495-7.1-3.513-8.11-7.805-32.641 10.175-32.641Z" fill="#BFBFBF" stroke="#263238" stroke-miterlimit="10"/>
  <path d="M81.445 61.731s4.91-1.523 6.432 1.485" stroke="#263238" stroke-linecap="round" stroke-linejoin="round"/>
  <path d="M85.08 65.86c0 .579-.297 1.046-.66 1.046-.365 0-.654-.467-.654-1.047 0-.579.29-1.054.653-1.054.364 0 .661.475.661 1.054Z" fill="#263238"/>
  <path d="M75.682 61.731s-4.91-1.523-6.432 1.485" stroke="#263238" stroke-linecap="round" stroke-linejoin="round"/>
  <path d="M72.047 65.86c0 .579.297 1.046.66 1.046.365 0 .654-.467.654-1.047 0-.579-.29-1.054-.653-1.054-.364 0-.661.475-.661 1.054Z" fill="#263238"/>
  <path d="M86.025 52.64a23.944 23.944 0 0 1-14.542 0s-2.547-.148-3.55 1.13c-1.002 1.277 0 5.198.268 6.84.267 1.64-2.228 2.725-1.872 6.788l-.958 1.403s-2.666-6.535-1.998-12.165c.669-5.63 4.226-7.82 4.226-7.82s1.62-4.858 11.14-4.82c10.235.036 11.267 5.577 11.267 5.577s6.937 4.627 1.805 19.704l-1.114-1.88a8.436 8.436 0 0 0-1.292-5.718c-.892-1.3.534-5.199.2-7.234s-3.58-1.805-3.58-1.805Z" fill="#263238"/>
  <path d="M79.69 64.805s.282 5.808 1.114 7.427c.832 1.619-2.072 1.908-3.32.943" stroke="#263238" stroke-linecap="round" stroke-linejoin="round"/>
  <path d="M74.438 76.278a3.713 3.713 0 0 0 1.752 2.228c1.293.557 5.2.327 5.942-.14.742-.469 1.106-1.969 1.106-1.969" fill="#fff"/>
  <path d="M74.438 76.278a3.713 3.713 0 0 0 1.752 2.228c1.293.557 5.2.327 5.942-.14.742-.469 1.106-1.969 1.106-1.969" stroke="#263238" stroke-linecap="round" stroke-linejoin="round"/>
  <path d="M74.016 76.152s3.906 1.107 9.751 0" stroke="#263238" stroke-linecap="round" stroke-linejoin="round"/>
  <path d="M82.796 53.434s-2.124.045-2.228.966c-.103.92-.089 2.31-2.072 1.753 0 0-.698 1.693-2.354.482-1.656-1.21-2.124.438-2.124.438s-.743 0-.661-.92c0 0-1.827-.194-1.827.92s-2.867 1.946-2.867.832c0 0-.483 2.585-2.317 2.035-1.835-.55-2.719 2.355-2.719 2.355s-1.173-1.894-.326-3.461c0 0-1.649-1.664-1.189-3.417a12.323 12.323 0 0 1 1.189-2.97s-1.664-2.674.698-3.967c2.362-1.292 1.901-1.983 1.901-2.28 0-.297 1.01-2.332 2.86-1.686 1.849.646 2.443-1.663 3.943-2.124 1.5-.46 4.27-.364 4.776 0a2.615 2.615 0 0 0 2.228.372c.698-.275 2.748-.832 3.104-.09a2.762 2.762 0 0 0 1.872 1.308c.705.163 1.448-.906 2.183 0 .736.906-4.07 9.454-4.07 9.454Z" fill="#263238"/>
  <path d="M82.79 53.433c1.997-.416 2.576.965 2.762 1.983.185 1.018 1.842 1.218 1.842 1.218s.928.624.928.906c0 .282.46-.186.46-1.292 0 0 .416 1.842.624 2.86a1.99 1.99 0 0 0 2.852 1.292c1.441-.647 1.3 1.388 1.3 1.388a2.095 2.095 0 0 0 .669-2.495s1.292-1.939.742-3.602c-.55-1.664.921-3.23-.46-4.338-1.382-1.106-1.27-.92-1.374-1.656-.104-.735.126-1.85-.87-2.124-.994-.275-2.28-.787-2.28-1.359s-1.566-1.96-4.24-.95c-2.674 1.01-2.956 8.169-2.956 8.169Z" fill="#263238"/>
  <path opacity=".9" fill="#B5BBC9" d="M194.438 35.72h170.227v11.16H194.438zM33 212h332v11H33zM194.438 59.28h170.227v11.16H194.438zm0 23.56h170.227V94H194.438zm0 23.56h170.227v11.16H194.438zm0 23.56h170.227v11.16H194.438z"/>
  <defs>
    <linearGradient id="paint0_linear_350_5851" x1="1" y1="248.614" x2="386.675" y2="248.614" gradientUnits="userSpaceOnUse">
      <stop offset=".004" stop-color="#fff"/>
      <stop offset=".686" stop-color="#EDF1F9"/>
    </linearGradient>
  </defs>
</svg>
