<svg width="294" height="287" viewBox="0 0 294 287" fill="none" xmlns="http://www.w3.org/2000/svg">
  <path d="m267.212 43.433-1.6-2.632c-13.503-22.25-37.91-35.66-63.647-34.035a67.26 67.26 0 0 0-9.87 1.356c-23.381 4.994-43.735 22.696-52.177 45.36-4.962 13.325-6.351 28.67-15.794 39.246-12.259 13.766-33.067 14.2-51.367 13.628-18.3-.573-39.115-.079-51.329 13.74-7.64 8.66-10.068 20.966-9.45 32.561 1.626 30.691 23.033 58.132 50.217 71.773 27.184 13.642 59.225 14.866 88.988 8.864 41.701-8.403 81.356-31.487 105.197-67.121 23.841-35.634 29.908-84.257 10.832-122.74Z" fill="#F28221"/>
  <path d="m178.287 241.96-82.21-.053a17.907 17.907 0 0 1-12.656-5.247 17.9 17.9 0 0 1-5.237-12.659l.04-206.095A17.91 17.91 0 0 1 96.141 0l82.204.053a17.912 17.912 0 0 1 17.899 17.905l-.046 206.096a17.894 17.894 0 0 1-5.247 12.664 17.91 17.91 0 0 1-12.665 5.242Z" fill="#263238"/>
  <path d="M178.077 7.403h-15.938a3.944 3.944 0 0 0-2.776 1.219 3.962 3.962 0 0 0-1.093 2.828v2.889a3.942 3.942 0 0 1-1.098 2.826 3.944 3.944 0 0 1-2.778 1.214h-31.067a3.943 3.943 0 0 1-2.776-1.219 3.961 3.961 0 0 1-1.093-2.828v-2.895a3.938 3.938 0 0 0-1.077-2.839 3.949 3.949 0 0 0-2.773-1.235h-19.55a12.543 12.543 0 0 0-12.57 12.53L83.45 221.06a12.507 12.507 0 0 0 7.71 11.587c1.519.631 3.148.955 4.793.955l82.046.046a12.53 12.53 0 0 0 8.871-3.669 12.53 12.53 0 0 0 3.679-8.867l.078-201.167a12.537 12.537 0 0 0-7.747-11.59 12.54 12.54 0 0 0-4.802-.952Z" fill="#fff"/>
  <path d="M191.528 39.366c0 .092-24.223.171-54.092.171-29.87 0-54.073-.099-54.073-.171 0-.072 24.217-.171 54.105-.171 29.889 0 54.06.072 54.06.17ZM94.647 31.91a.329.329 0 0 1-.218-.079l-3.125-2.744a.304.304 0 0 1-.112-.25.313.313 0 0 1 .118-.25l3.126-2.632a.329.329 0 0 1 .497.408.324.324 0 0 1-.082.098l-2.823 2.356 2.83 2.488a.323.323 0 0 1 .032.46.315.315 0 0 1-.243.145Zm68.209-3.252c0 .099-10.18.171-22.743.171-12.562 0-22.742-.072-22.742-.171 0-.099 10.18-.171 22.742-.171 12.563 0 22.743.079 22.743.17Zm13.173-.019a1.185 1.185 0 1 1-2.37.001 1.185 1.185 0 0 1 2.37-.001Zm3.41 0a1.18 1.18 0 0 1-.732 1.095 1.187 1.187 0 0 1-1.615-.868 1.19 1.19 0 0 1 .51-1.215 1.182 1.182 0 0 1 1.112-.107 1.188 1.188 0 0 1 .638.642c.058.143.088.297.087.453Zm3.414 0a1.185 1.185 0 1 1-2.37.001 1.185 1.185 0 0 1 2.37-.001ZM127.168 83.56c0 .764-.316 1.224-.843 1.224a.527.527 0 0 1-.559-.388.905.905 0 0 1-.796.388 1.126 1.126 0 0 1 0-2.244.906.906 0 0 1 .737.316v-.29h.487v1.501c0 .224.105.303.23.303.237 0 .369-.283.369-.803a1.557 1.557 0 0 0-1.692-1.573 1.647 1.647 0 0 0-1.658.98 1.644 1.644 0 0 0 0 1.331 1.645 1.645 0 0 0 1.658.98c.297 0 .59-.067.856-.198l.118.355a2.24 2.24 0 0 1-.974.204 2.014 2.014 0 1 1 0-4.02 1.919 1.919 0 0 1 1.912 1.16c.105.244.157.508.155.774Zm-1.455.099a.65.65 0 0 0-.432-.58.66.66 0 0 0-.829.88.66.66 0 0 0 .865.344.654.654 0 0 0 .396-.644Zm26.322 1.098c0 .092-4.764.171-10.634.171s-10.628-.079-10.628-.17c0-.093 4.758-.178 10.628-.178s10.634.079 10.634.177Zm-42.04 30.074a6.438 6.438 0 0 1-2.948 0 6.438 6.438 0 0 1 2.948 0Zm6.927 7.133c0 .092-3.554.171-7.943.171-4.389 0-7.936-.079-7.936-.171 0-.093 3.553-.172 7.936-.172s7.943.079 7.943.172Zm25.009-7.133a29.34 29.34 0 0 1-4.514.171 29.353 29.353 0 0 1-4.515-.171 30.133 30.133 0 0 1 4.515-.171 30.12 30.12 0 0 1 4.514.171Zm2.669 6.751c0 .092-3.639.171-8.127.171-4.488 0-8.133-.079-8.133-.171 0-.092 3.639-.171 8.133-.171 4.495 0 8.127.079 8.127.171Zm26.812-6.653c-2.024.17-4.056.227-6.087.171a54.721 54.721 0 0 1-6.087-.171 53.303 53.303 0 0 1 6.087-.171 53.296 53.296 0 0 1 6.087.171Zm2.273 6.936c0 .099-3.507.172-7.837.172s-7.844-.073-7.844-.172c0-.098 3.507-.171 7.844-.171 4.336 0 7.837.079 7.837.171Z" fill="#263238"/>
  <path d="M150.953 128.616H106.35c-.927 0-1.678.751-1.678 1.678v10.43c0 .927.751 1.678 1.678 1.678h44.603c.927 0 1.678-.751 1.678-1.678v-10.43c0-.927-.751-1.678-1.678-1.678Z" fill="#2D317F"/>
  <path d="M143.562 135.743c0 .092-6.172.171-13.786.171s-13.819-.079-13.819-.171c0-.092 6.173-.171 13.819-.171 7.647 0 13.786.073 13.786.171Z" fill="#fff"/>
  <path d="M168.739 128.36h-10.582c-.861 0-1.559.698-1.559 1.559v11.01c0 .861.698 1.559 1.559 1.559h10.582c.861 0 1.559-.698 1.559-1.559v-11.01c0-.861-.698-1.559-1.559-1.559Z" fill="#EBEBEB"/>
  <path d="M161.965 134.704h2.954l-1.349 2.072-1.605-2.072Z" fill="#263238"/>
  <path d="M152.631 152.656c0 .099-7.627.171-17.03.171-9.404 0-17.031-.072-17.031-.171 0-.099 7.627-.171 17.031-.171 9.403 0 17.03.079 17.03.171Zm9.908 6.415c0 .093-11.186.172-25.006.172-13.819 0-25.006-.079-25.006-.172 0-.092 11.187-.171 25.006-.171 13.82 0 25.006.079 25.006.171Z" fill="#E0E0E0"/>
  <path d="M191.282 170.193c0 .098-23.986.177-53.578.177-29.593 0-53.579-.079-53.579-.177 0-.099 23.986-.172 53.579-.172 29.592 0 53.578.079 53.578.172Zm-52.512 12.484a54.356 54.356 0 0 1-.171-6.067 54.242 54.242 0 0 1 .171-6.061c.173 2.015.23 4.039.171 6.061a52.954 52.954 0 0 1-.171 6.067Z" fill="#263238"/>
  <path d="m132.119 93.74-3.08 7.068h-1.316l-3.086-7.068h1.421l2.349 5.449 2.376-5.449h1.336Zm5.27 4.776h-4.232a1.64 1.64 0 0 0 1.751 1.316 1.923 1.923 0 0 0 1.461-.585l.658.776a2.745 2.745 0 0 1-2.172.876c-1.803 0-2.974-1.159-2.974-2.764a2.661 2.661 0 0 1 .796-2 2.667 2.667 0 0 1 2.014-.764 2.633 2.633 0 0 1 2.724 2.783c-.007.086-.02.237-.026.362Zm-4.238-.842h3.053a1.462 1.462 0 0 0-1.52-1.316 1.488 1.488 0 0 0-1.533 1.316Zm8.589-2.304v1.198a1.623 1.623 0 0 0-.289-.032 1.467 1.467 0 0 0-1.567 1.665v2.632h-1.243v-5.39h1.204v.783a2.124 2.124 0 0 1 1.895-.855Zm.901-1.598a.75.75 0 0 1 .504-.713.767.767 0 0 1 .305-.044.742.742 0 0 1 .803.724.809.809 0 0 1-1.612 0v.033Zm.171 1.645h1.263v5.389h-1.263v-5.389Zm5.04-2.172a2.02 2.02 0 0 1 1.145.296l-.355.948a1.238 1.238 0 0 0-.698-.224c-.526 0-.796.29-.796.869v.323h1.487v1.006h-1.441v4.343h-1.316v-4.343h-.882v-1.006h.882v-.343a1.736 1.736 0 0 1 .539-1.407 1.75 1.75 0 0 1 1.435-.462Zm2.264.527a.75.75 0 0 1 .504-.713.767.767 0 0 1 .305-.044.742.742 0 0 1 .803.724.809.809 0 0 1-1.612 0v.033Zm.171 1.645h1.263v5.389h-1.263v-5.389Zm7.934 3.1h-4.225a1.635 1.635 0 0 0 1.744 1.316 1.974 1.974 0 0 0 1.468-.586l.658.777c-.275.297-.612.53-.987.682a2.744 2.744 0 0 1-1.185.193c-1.803 0-2.974-1.158-2.974-2.764a2.677 2.677 0 0 1 2.783-2.75 2.635 2.635 0 0 1 2.725 2.783 1.61 1.61 0 0 1-.007.349Zm-4.238-.843h3.08a1.466 1.466 0 0 0-1.527-1.316 1.493 1.493 0 0 0-1.553 1.316Zm10.753-4.356v7.489h-1.211v-.698a2.23 2.23 0 0 1-1.783.764 2.757 2.757 0 0 1 0-5.515 2.196 2.196 0 0 1 1.73.724v-2.764h1.264Zm-1.244 4.791a1.606 1.606 0 1 0-1.606 1.685 1.579 1.579 0 0 0 1.606-1.685Zm-48.802 4.467a5.534 5.534 0 1 0 .002-11.068 5.534 5.534 0 0 0-.002 11.068Z" fill="#F28221"/>
  <path d="m112.191 97.148.711-.71 1.375 1.217 2.692-2.593.658.71-3.455 3.251-1.981-1.875Z" fill="#fff"/>
  <path d="M138.482 233.621H95.05a11.725 11.725 0 0 1-11.687-11.746v-39.2h55.152l-.033 50.946Z" fill="#EBEBEB"/>
  <path d="m178.536 233.727-40.556-.106v-50.946h52.763v38.871a12.445 12.445 0 0 1-12.207 12.181Z" fill="#455A64"/>
  <path d="M191.284 182.675c0 .092-23.986.171-53.572.171-29.587 0-53.58-.079-53.58-.171 0-.092 23.98-.171 53.58-.171 29.599 0 53.572.079 53.572.171Zm-54.374 29.829s-.059 0-.151-.092l-.415-.303-1.566-1.171-5.725-4.37c-1.204-.914-2.534-1.974-3.948-3.007a2.328 2.328 0 0 0-2.468.086c-.365.302-.708.63-1.027.98l-1.046 1.06-9.213 9.304-.566.573-.105.105-.118-.085-5.317-3.949-2.527-1.888a2.394 2.394 0 0 0-2.633-.441 4.66 4.66 0 0 0-1.092.875l-1.04.967-1.974 1.843-3.553 3.29-5.153 4.751-1.415 1.277-.368.329c-.084.075-.13.107-.138.099a.618.618 0 0 1 .111-.125l.35-.349 1.368-1.316 5.08-4.83 3.527-3.33 1.975-1.849 1.033-.974.526-.494c.197-.178.418-.326.658-.441.48-.232 1.02-.31 1.547-.223.266.041.524.125.763.25.233.124.454.272.658.441l2.533 1.875 5.324 3.948h-.224l.566-.579 9.213-9.285 1.053-1.053c.332-.364.69-.702 1.073-1.013a2.632 2.632 0 0 1 2.783-.079c1.461 1.086 2.738 2.125 3.948 3.06l5.66 4.455 1.533 1.224.388.329c.043.037.08.079.112.125Zm-21.526-17.109c-.039 0 0-.421-.217-1.151a4.764 4.764 0 0 0-1.75-2.553 4.602 4.602 0 0 0-1.974-.849 4.703 4.703 0 0 0-2.429.21 4.608 4.608 0 0 0-2.145 1.619 4.606 4.606 0 0 0 0 5.455 4.68 4.68 0 0 0 4.574 1.83 4.562 4.562 0 0 0 1.974-.856 4.768 4.768 0 0 0 1.75-2.553c.198-.724.178-1.152.217-1.152.01.103.01.207 0 .31.001.294-.032.588-.098.875a4.76 4.76 0 0 1-1.731 2.711 4.832 4.832 0 0 1-2.06.941 4.92 4.92 0 0 1-4.896-1.908 4.914 4.914 0 0 1 0-5.85 4.91 4.91 0 0 1 2.304-1.718 4.98 4.98 0 0 1 2.592-.197 4.909 4.909 0 0 1 2.06.941 4.773 4.773 0 0 1 1.731 2.711c.066.289.099.585.098.882.01.1.01.202 0 .302Zm73.726 15.479s-.052 0-.144-.092l-.395-.296-1.514-1.178-5.521-4.376c-1.158-.915-2.435-1.974-3.797-3.007a2.132 2.132 0 0 0-2.382.125c-.346.307-.674.634-.98.98l-1.001 1.06-8.811 9.272-.553.572-.105.112-.125-.092-5.126-3.948-2.435-1.889a2.198 2.198 0 0 0-2.553-.408 5.23 5.23 0 0 0-1.047.882l-.993.967-1.902 1.836-3.415 3.291-4.942 4.737-1.356 1.277-.362.323c-.079.072-.125.111-.131.105a.659.659 0 0 1 .111-.125c.086-.099.198-.211.329-.349l1.317-1.316 4.869-4.817 3.383-3.323c.612-.592 1.237-1.211 1.888-1.849l.987-.968.507-.493a2.453 2.453 0 0 1 2.869-.461c.233.126.453.274.658.441l2.435 1.882 5.133 3.948h-.231l.553-.579 8.831-9.252 1.007-1.053c.321-.359.664-.697 1.027-1.013a2.435 2.435 0 0 1 2.711-.125c1.415 1.086 2.632 2.125 3.803 3.06l5.449 4.461 1.467 1.231.376.322.111.125Zm-22.372-16.946c-.033 0 0-.421-.211-1.145a4.721 4.721 0 0 0-1.75-2.553 4.642 4.642 0 0 0-3.47-.874 4.643 4.643 0 0 0-3.064 1.848 4.607 4.607 0 0 0 0 5.455 4.558 4.558 0 0 0 2.145 1.612 4.606 4.606 0 0 0 4.389-.658 4.735 4.735 0 0 0 1.75-2.553c.091-.38.161-.764.211-1.151a.942.942 0 0 1 0 .309c.001.294-.032.588-.099.875a4.772 4.772 0 0 1-1.678 2.738 4.91 4.91 0 0 1-2.059.934 4.85 4.85 0 0 1-2.593-.197 4.896 4.896 0 0 1-2.303-1.711 4.908 4.908 0 0 1 0-5.85 4.914 4.914 0 0 1 6.955-.974 4.764 4.764 0 0 1 1.731 2.717c.066.287.099.581.099.876a.89.89 0 0 1-.053.302Z" fill="#263238"/>
  <path d="M138.791 79.242c8.417 0 15.241-6.824 15.241-15.24 0-8.418-6.824-15.241-15.241-15.241s-15.24 6.823-15.24 15.24 6.823 15.24 15.24 15.24Z" fill="#F5F5F5"/>
  <path d="M148.64 75.564a9.69 9.69 0 0 0-9.871-8.653c-5.409 0-9.114 4.093-9.871 8.686 0 0 3.343 3.698 9.871 3.646 6.528-.053 9.871-3.68 9.871-3.68Z" fill="#E0E0E0"/>
  <path d="M144.994 62.513a5.993 5.993 0 1 0-11.832-1.91 5.993 5.993 0 0 0 11.832 1.91Z" fill="#E0E0E0"/>
  <path d="M148.571 75.043a11.548 11.548 0 0 0-.928-2.816 9.445 9.445 0 0 0-2.159-2.632 11.842 11.842 0 0 0-3.889-2.185l-.316-.099.29-.15a5.922 5.922 0 0 0 2.376-2.377 5.816 5.816 0 0 0-.134-5.73 5.803 5.803 0 0 0-4.986-2.828 5.808 5.808 0 0 0-5.809 5.675 5.805 5.805 0 0 0 .689 2.883 5.98 5.98 0 0 0 1.04 1.396c.4.385.841.725 1.316 1.013l.263.165-.302.085a9.092 9.092 0 0 0-3.896 2.152 9.862 9.862 0 0 0-2.04 2.75c-.332.66-.601 1.35-.803 2.06-.072.244-.118.435-.151.56a.743.743 0 0 1-.053.19.546.546 0 0 1 0-.197c0-.132.053-.329.112-.573.172-.726.422-1.432.744-2.105a9.785 9.785 0 0 1 2.026-2.85 9.28 9.28 0 0 1 3.949-2.257l-.04.25a7.948 7.948 0 0 1-1.382-1.033 6.27 6.27 0 0 1-1.105-1.46 6.15 6.15 0 0 1-.637-3.97 6.15 6.15 0 0 1 1.953-3.513 6.119 6.119 0 0 1 8.193 0 6.117 6.117 0 0 1 1.982 5.31 6.115 6.115 0 0 1-3.226 4.66v-.257a11.783 11.783 0 0 1 3.948 2.284 9.303 9.303 0 0 1 2.152 2.744c.188.385.344.786.467 1.197.103.298.18.604.231.915.033.23.059.421.079.579.019.158.059.164.046.164Z" fill="#263238"/>
  <path d="M154.032 64.002a1.17 1.17 0 0 1-.033-.25c0-.177 0-.414-.052-.717l-.033-.533c0-.198-.066-.408-.105-.658a10.944 10.944 0 0 0-.323-1.573 14.493 14.493 0 0 0-1.691-4.027 15.137 15.137 0 0 0-18.162-6.443c-.678.244-1.337.535-1.975.87-.643.352-1.261.75-1.849 1.19-.602.447-1.173.933-1.711 1.455a17.356 17.356 0 0 0-1.48 1.75 14.642 14.642 0 0 0-2.152 4.152 14.989 14.989 0 0 0 0 9.522 14.683 14.683 0 0 0 2.152 4.16c.456.613.95 1.198 1.48 1.75a16.988 16.988 0 0 0 1.711 1.454c.589.438 1.207.836 1.849 1.191a15.366 15.366 0 0 0 9.871 1.533 15.227 15.227 0 0 0 10.272-7.087 14.496 14.496 0 0 0 1.692-4.034c.146-.513.254-1.037.322-1.566.04-.23.079-.44.105-.658l.033-.533c0-.303.04-.54.053-.724a.995.995 0 0 1 .033-.243 1.16 1.16 0 0 1 0 .25v1.257c0 .19-.059.414-.086.657a10.678 10.678 0 0 1-.296 1.587 14.611 14.611 0 0 1-1.658 4.1 15.395 15.395 0 0 1-10.338 7.284c-2.709.507-5.503.28-8.094-.658a16.415 16.415 0 0 1-2.014-.882 16.825 16.825 0 0 1-3.645-2.698 17.062 17.062 0 0 1-1.514-1.783 14.923 14.923 0 0 1-2.211-4.251 16.665 16.665 0 0 1-.796-4.863c.021-1.655.292-3.296.803-4.87a14.778 14.778 0 0 1 2.204-4.245 17.22 17.22 0 0 1 1.514-1.79 18.35 18.35 0 0 1 1.75-1.48 16.18 16.18 0 0 1 1.895-1.21 16.415 16.415 0 0 1 2.014-.883 15.417 15.417 0 0 1 8.087-.658 15.384 15.384 0 0 1 10.345 7.285 14.598 14.598 0 0 1 1.658 4.093c.139.523.238 1.055.296 1.593 0 .23.066.447.086.658.02.21 0 .375 0 .54v.723a1.22 1.22 0 0 1-.007.263Zm131.402 222.732c0 .092-62.779.171-140.205.171-77.427 0-140.225-.079-140.225-.171 0-.092 62.772-.171 140.225-.171 77.452 0 140.205.072 140.205.171Z" fill="#263238"/>
</svg>
