<svg width="389" height="250" viewBox="0 0 389 250" fill="none" xmlns="http://www.w3.org/2000/svg">
  <rect x="1" y="1" width="386.88" height="248" rx="24" fill="url(#paint0_linear_350_5850)" stroke="#B5BBC9" stroke-width="2"/>
  <path d="M300.337 36h60.046a2.337 2.337 0 0 1 2.336 2.336v78.589H298V38.358A2.337 2.337 0 0 1 300.337 36Z" fill="#fff" stroke="#263238" stroke-linecap="round" stroke-linejoin="round"/>
  <path d="M306.172 79.967c.26-2.618 11.151-6.08 24.182-6.218 12.138-.127 23.805 3.935 25.382 6.611 1.577 2.676-3.186 36.64-3.186 36.64h-43.394s-3.776-29.067-2.984-37.032Z" fill="#263238"/>
  <path d="M338.162 74.88a8.497 8.497 0 0 1-7.556 4.328c-4.455 0-7.7-3.86-7.7-3.86 1.567-1.408 1.662-4.01 1.429-6.054a18.25 18.25 0 0 0-.584-2.974h13.317c-.812 2.655-.78 4.578-.467 5.905.467 1.954 1.561 2.655 1.561 2.655Z" fill="#BFBFBF" stroke="#263238" stroke-miterlimit="10"/>
  <path d="M357.15 99.099s-3.266 13.987-5.645 17.879l-49.474-.064s2.655-3.717 4.652-5.018c1.996-1.301 8.793.659 10.131.659 1.339 0 24.804-3.76 25.691-4.057.886-.298 3.748-11.236 3.748-11.236s8.321.35 10.897 1.837Z" fill="#BFBFBF"/>
  <path opacity=".15" d="M357.134 99.1s-1.397 5.99-3.037 11.225c-1.333-.934-3.457-1.741-6.696-1.37-6.723.776-11.242 1.721-11.242 1.721s-6.733 3.011-8.804 6.271l-25.339-.032s2.655-3.717 4.651-5.018c1.997-1.301 8.794.659 10.132.659 1.338 0 24.803-3.76 25.69-4.057.887-.298 3.51-10.328 3.717-11.151 2.906.137 5.799.467 8.661.987a8.862 8.862 0 0 1 2.267.765Z" fill="#000"/>
  <path d="M357.15 99.099s-3.266 13.987-5.645 17.879l-49.474-.064s2.655-3.717 4.652-5.018c1.996-1.301 8.793.659 10.131.659 1.339 0 24.804-3.76 25.691-4.057.886-.298 3.748-11.236 3.748-11.236s8.321.35 10.897 1.837Z" stroke="#263238" stroke-linecap="round" stroke-linejoin="round"/>
  <path d="M349.121 84.253c-1.922 1.487-3.759 7.583-3.759 7.583l-.659 7.312s9.102 1.19 12.006 5.31c0 0 .26-1.29 0-1.88a46.628 46.628 0 0 0 3.399-10.545c1.184-6.07-2.655-11.943-5.549-12.835" fill="#263238"/>
  <path d="M349.121 84.253c-1.922 1.487-3.759 7.583-3.759 7.583l-.659 7.312" fill="#263238"/>
  <path d="M349.121 84.253c-1.922 1.487-3.759 7.583-3.759 7.583l-.659 7.312" stroke="#fff" stroke-linecap="round" stroke-linejoin="round"/>
  <path d="M352.517 97.65c1.009-.085 3.828.902 4.327 1.646.5.743.988 1.726.298 2.347a6.58 6.58 0 0 1 .34 1.593c0 .648-.983.94-.983.94a1.418 1.418 0 0 1-.759 1.832s.287 1.237-.743 1.731l-.531-.393s-3.362.494-4.997 0" fill="#BFBFBF"/>
  <path d="M352.517 97.65c1.009-.085 3.828.902 4.327 1.646.5.743.988 1.726.298 2.347a6.58 6.58 0 0 1 .34 1.593c0 .648-.983.94-.983.94a1.418 1.418 0 0 1-.759 1.832s.287 1.237-.743 1.731l-.531-.393s-3.362.494-4.997 0" stroke="#263238" stroke-linecap="round" stroke-linejoin="round"/>
  <path d="M352.919 101.961c.176-.347.386-.676.626-.982.351-.563-.796-1.062-.451-1.487.913-1.088-.058-1.593-.058-1.593-.393-.987-6.776.988-7.174-.196-.574-1.726 2.888-5.008.775-6.723-.308-.255-.674 2.06-3.345 4.37-1.365 1.18-1.408 4.498-3.994 5.98-2.586 1.481-7.917 3.366-13.524 3.961-3.117.329-8.411 1.906-8.411 1.906s-.059-4.248-1.153-6.659c-1.094-2.41-8.804-3.77-8.804-3.77l-2.851 5.841s3.133 11.22 4.609 14.391l11.767-.17a68.85 68.85 0 0 0 8.703-3.717 57.67 57.67 0 0 1 12.866-4.578c1.593-.297 8.045-.791 8.937-1.285a1.292 1.292 0 0 0 .697-.747 1.314 1.314 0 0 0-.054-1.021c-.25-.664.44-1.253.44-1.253" fill="#BFBFBF"/>
  <path d="M352.919 101.961c.176-.347.386-.676.626-.982.351-.563-.796-1.062-.451-1.487.913-1.088-.058-1.593-.058-1.593-.393-.987-6.776.988-7.174-.196-.574-1.726 2.888-5.008.775-6.723-.308-.255-.674 2.06-3.345 4.37-1.365 1.18-1.408 4.498-3.994 5.98-2.586 1.481-7.917 3.366-13.524 3.961-3.117.329-8.411 1.906-8.411 1.906s-.059-4.248-1.153-6.659c-1.094-2.41-8.804-3.77-8.804-3.77l-2.851 5.841s3.133 11.22 4.609 14.391l11.767-.17a68.85 68.85 0 0 0 8.703-3.717 57.67 57.67 0 0 1 12.866-4.578c1.593-.297 8.045-.791 8.937-1.285a1.292 1.292 0 0 0 .697-.747 1.314 1.314 0 0 0-.054-1.021c-.25-.664.44-1.253.44-1.253m4.62-2.586s-.993-.961-1.221-1.094c-.229-.133-2.013-.595-2.013-.595m2.592 4.249s-.446-.924-1.126-1.131a15.784 15.784 0 0 0-1.763-.361m2.138 3.313s-1.009-.626-1.439-.855a4.545 4.545 0 0 0-1.386-.297" stroke="#263238" stroke-linecap="round" stroke-linejoin="round"/>
  <path d="M307.775 78.269s-4.779.047-6.075 9.483c-.732 5.21 1.678 13.753 1.976 15.437a4.32 4.32 0 0 0 1.763 2.623s5.735-3.606 11.374-3.372c0 0 .993-2.995 0-3.292-.993-.298.993-6.054-1.264-10.09" fill="#263238"/>
  <path d="M317.311 101.436s.987-2.99 0-3.287c-.988-.298.987-6.054-1.264-10.09" fill="#263238"/>
  <path d="M317.311 101.436s.987-2.99 0-3.287c-.988-.298.987-6.054-1.264-10.09" stroke="#fff" stroke-linecap="round" stroke-linejoin="round"/>
  <path d="M336.6 72.225c-9.621 2.522-11.533-2.974-11.533-2.974l-.733.043c-.111-1.006-.307-2-.584-2.974h13.318c-.792 2.666-.792 4.578-.468 5.905Z" fill="#263238"/>
  <path d="M339.992 56.975s1.062-1.168 1.593-.786a2.51 2.51 0 0 1 .866 2.459c-.292.993-1.535 2.713-1.63 3.717-.096 1.003-.744 2.124-1.45 1.481-.706-.642.621-6.87.621-6.87Zm-19.12 0s-1.062-1.168-1.593-.786a2.499 2.499 0 0 0-.865 2.459c.286.993 1.534 2.713 1.63 3.717.095 1.003.743 2.124 1.449 1.481.707-.642-.621-6.87-.621-6.87Z" fill="#BFBFBF" stroke="#263238" stroke-miterlimit="10"/>
  <path d="M330.178 43.503c13.493 0 10.286 17.964 7.801 23.73-.871 2.029-5.39 4.684-7.573 4.684-2.033 0-6.68-3.186-7.503-5.076-2.511-5.799-5.581-23.338 7.275-23.338Z" fill="#BFBFBF" stroke="#263238" stroke-miterlimit="10"/>
  <path d="M332.469 54.596s3.51-1.089 4.598 1.062" stroke="#263238" stroke-linecap="round" stroke-linejoin="round"/>
  <path d="M335.065 57.548c0 .414-.213.749-.473.749s-.467-.335-.467-.749.207-.754.467-.754.473.34.473.754Z" fill="#263238"/>
  <path d="M328.349 54.596s-3.51-1.089-4.599 1.062" stroke="#263238" stroke-linecap="round" stroke-linejoin="round"/>
  <path d="M325.75 57.548c0 .414.212.749.473.749.26 0 .467-.335.467-.749s-.207-.754-.467-.754c-.261 0-.473.34-.473.754Z" fill="#263238"/>
  <path d="M335.741 48.097a17.12 17.12 0 0 1-10.397 0s-1.821-.106-2.538.807c-.717.913 0 3.717.191 4.89.191 1.174-1.593 1.95-1.338 4.854l-.685 1.004s-1.906-4.673-1.428-8.698 3.021-5.592 3.021-5.592 1.158-3.472 7.965-3.446c7.317.027 8.056 3.988 8.056 3.988s4.959 3.308 1.29 14.088l-.797-1.344a6.03 6.03 0 0 0-.924-4.089c-.637-.929.383-3.717.144-5.172-.239-1.455-2.56-1.29-2.56-1.29Z" fill="#263238"/>
  <path d="M331.202 56.794s.202 4.152.797 5.31c.594 1.158-1.482 1.365-2.374.674" stroke="#263238" stroke-linecap="round" stroke-linejoin="round"/>
  <path d="M327.453 64.998a2.656 2.656 0 0 0 1.253 1.593c.924.398 3.717.234 4.248-.1.531-.335.792-1.408.792-1.408" fill="#fff"/>
  <path d="M327.453 64.998a2.656 2.656 0 0 0 1.253 1.593c.924.398 3.717.234 4.248-.1.531-.335.792-1.408.792-1.408" stroke="#263238" stroke-linecap="round" stroke-linejoin="round"/>
  <path d="M327.156 64.907s2.793.791 6.972 0" stroke="#263238" stroke-linecap="round" stroke-linejoin="round"/>
  <path d="M333.425 48.665s-1.519.032-1.593.69c-.075.659-.064 1.652-1.482 1.253 0 0-.499 1.21-1.683.345-1.184-.865-1.519.314-1.519.314s-.531 0-.472-.659c0 0-1.307-.138-1.307.659 0 .796-2.049 1.39-2.049.594 0 0-.346 1.848-1.657 1.455-1.312-.393-1.944 1.684-1.944 1.684s-.839-1.354-.233-2.475c0 0-1.179-1.19-.85-2.442.19-.742.475-1.456.85-2.124 0 0-1.19-1.912.499-2.836 1.689-.924 1.359-1.418 1.359-1.63 0-.213.722-1.668 2.045-1.206 1.322.462 1.747-1.19 2.819-1.518 1.073-.33 3.054-.26 3.415 0a1.861 1.861 0 0 0 1.593.265c.499-.196 1.964-.595 2.219-.064a1.98 1.98 0 0 0 1.338.935c.505.117 1.036-.648 1.562 0 .525.648-2.91 6.76-2.91 6.76Z" fill="#263238"/>
  <path d="M333.43 48.664c1.428-.297 1.842.69 1.975 1.418s1.317.871 1.317.871.664.446.664.648.329-.133.329-.924c0 0 .297 1.317.446 2.044a1.415 1.415 0 0 0 .795.958 1.42 1.42 0 0 0 1.244-.034c1.03-.462.929.993.929.993a1.498 1.498 0 0 0 .478-1.784s.924-1.386.531-2.575c-.393-1.19.659-2.31-.329-3.101-.988-.792-.908-.659-.982-1.184-.075-.526.09-1.323-.622-1.52-.711-.196-1.63-.562-1.63-.97 0-.41-1.12-1.403-3.032-.68-1.912.722-2.113 5.84-2.113 5.84Z" fill="#263238"/>
  <path opacity=".9" fill="#B5BBC9" d="M46 36h233v11H46zm0 176h296v11H46zm0-153h233v11H46zm0 24h233v11H46zm0 23h233v12H46z"/>
  <defs>
    <linearGradient id="paint0_linear_350_5850" x1="1" y1="248.614" x2="386.675" y2="248.614" gradientUnits="userSpaceOnUse">
      <stop offset=".004" stop-color="#fff"/>
      <stop offset=".686" stop-color="#EDF1F9"/>
    </linearGradient>
  </defs>
</svg>
