<svg version="1.0" xmlns="http://www.w3.org/2000/svg" width="682.667" height="682.667" viewBox="0 0 512 512">
  <path d="M78 65.3c-7.6 2.4-14 12-14 20.8.1 8.3.7 9 82.8 91.1l78.7 78.8-78.7 78.7c-82.1 82.2-82.7 82.9-82.8 91.2-.1 12.1 10 22.2 22.1 22.1 8.3-.1 9-.7 91.1-82.8l78.8-78.7 78.8 78.7c82.1 82.1 82.8 82.7 91.1 82.8 12.1.1 22.2-10 22.1-22.1-.1-8.3-.7-9-82.8-91.2L286.5 256l78.7-78.8c82.1-82.1 82.7-82.8 82.8-91.1.1-12.1-10-22.2-22.1-22.1-8.3.1-9 .7-91.1 82.8L256 225.5l-78.8-78.7C116.4 86 97.5 67.6 94 66.1c-4.9-2.2-10.6-2.5-16-.8z"/>
</svg>
