<svg width="47" height="60" viewBox="0 0 47 60" fill="none" xmlns="http://www.w3.org/2000/svg">
  <path d="M23.269 23.394h-.03a1.372 1.372 0 0 1-1.357-1.37.776.776 0 1 0-1.551 0 2.928 2.928 0 0 0 2.147 2.817v.607a.776.776 0 1 0 1.551 0v-.607a2.922 2.922 0 0 0-.775-5.74 1.371 1.371 0 1 1 1.37-1.371.776.776 0 1 0 1.552 0 2.928 2.928 0 0 0-2.146-2.818v-.51a.776.776 0 1 0-1.552 0v.51a2.923 2.923 0 0 0 .776 5.74 1.37 1.37 0 0 1 .015 2.742Z" fill="#0F206C"/>
  <path d="M2.962 40.833a2.442 2.442 0 0 0 2.439 2.44h14.674a2.442 2.442 0 0 0 2.439-2.44V39.66c0-.623-.24-1.222-.67-1.674.43-.451.67-1.05.67-1.673v-1.174c0-.56-.194-1.104-.548-1.538a2.43 2.43 0 0 0 .786-1.788v-1.174a2.43 2.43 0 0 0-.835-1.834c.161-.17.302-.357.42-.56l.012.002c.08.008.16.014.24.02.068.006.135.012.204.016a8.418 8.418 0 0 0 1.377-.039c.11.19.242.368.392.53a2.43 2.43 0 0 0-.807 1.808v1.174c0 .618.236 1.213.66 1.663a2.427 2.427 0 0 0-.66 1.663v1.174c0 .636.25 1.247.695 1.702a2.43 2.43 0 0 0-.695 1.702v1.174a2.442 2.442 0 0 0 2.44 2.439h14.673a2.442 2.442 0 0 0 2.439-2.44V39.66a2.43 2.43 0 0 0-.696-1.702 2.43 2.43 0 0 0 .696-1.702v-1.174a2.43 2.43 0 0 0-.66-1.663 2.43 2.43 0 0 0 .66-1.663v-1.174a2.431 2.431 0 0 0-.81-1.81 3.019 3.019 0 0 0-.202-4.313 3.024 3.024 0 0 0-2.014-5.281h-8.693a8.364 8.364 0 0 0-14.84-4.51H6.226a3.025 3.025 0 0 0-2.014 5.28 3.02 3.02 0 0 0 0 4.511 3.019 3.019 0 0 0-.173 4.343 2.432 2.432 0 0 0-.838 1.836v1.174c0 .56.193 1.104.547 1.537a2.43 2.43 0 0 0-.786 1.79v1.173c0 .623.24 1.223.67 1.674-.43.451-.67 1.05-.67 1.674v1.173Zm38.793 0a.888.888 0 0 1-.887.888H26.194a.888.888 0 0 1-.888-.888V39.66a.889.889 0 0 1 .888-.887h14.674a.888.888 0 0 1 .887.887v1.173Zm0-4.578a.888.888 0 0 1-.887.888H26.194a.888.888 0 0 1-.888-.888v-1.173a.888.888 0 0 1 .888-.887h14.674a.888.888 0 0 1 .887.887v1.173Zm0-4.5a.888.888 0 0 1-.887.888H26.194a.889.889 0 0 1-.888-.887v-1.174a.888.888 0 0 1 .888-.887h.063c.173.03.348.046.523.046h13.5c.176 0 .35-.016.523-.046h.064a.889.889 0 0 1 .888.887v1.174Zm-1.116-3.612H26.414a1.464 1.464 0 0 1-.544-.268 8.396 8.396 0 0 0 3.845-2.635H40.28a1.474 1.474 0 0 1 .358 2.903Zm-9.055-7.413h8.697a1.474 1.474 0 1 1 0 2.948h-9.55a8.3 8.3 0 0 0 .853-2.948Zm-8.33-7.623a6.819 6.819 0 0 1 0 13.637 7.06 7.06 0 0 1-.375-.011c-.056-.003-.11-.008-.165-.013a6.979 6.979 0 0 1-.421-.046 6.66 6.66 0 0 1-.394-.067l-.035-.006a6.834 6.834 0 0 1-5.415-6.27l-.005-.082a6.827 6.827 0 0 1 6.81-7.141ZM6.226 16.22h9.526a8.302 8.302 0 0 0-.832 2.949H6.226a1.474 1.474 0 1 1 0-2.949Zm0 4.51h8.697v.005l.008.085c.104.996.388 1.965.839 2.86H6.226a1.474 1.474 0 1 1 0-2.949Zm0 4.511H16.79a8.294 8.294 0 0 0 3.844 2.638 1.47 1.47 0 0 1-.907.31h-13.5a1.474 1.474 0 1 1 0-2.948ZM4.752 30.64a.888.888 0 0 1 .888-.888h14.674a.889.889 0 0 1 .887.887v1.174a.888.888 0 0 1-.887.887H5.64a.888.888 0 0 1-.888-.887v-1.174Zm-.239 4.5a.888.888 0 0 1 .888-.888h14.674a.888.888 0 0 1 .887.888v1.173a.889.889 0 0 1-.887.888H5.4a.888.888 0 0 1-.888-.888V35.14Zm0 4.52a.888.888 0 0 1 .888-.887h14.674a.888.888 0 0 1 .887.888v1.174a.889.889 0 0 1-.888.887H5.401a.888.888 0 0 1-.888-.888V39.66Z" fill="#0F206C"/>
  <path d="M45.492 50.765H7.7V46.93a.776.776 0 0 0-1.324-.548L.227 52.529a.776.776 0 0 0 0 1.097l6.148 6.147a.775.775 0 0 0 1.324-.548V55.39h37.793a.776.776 0 0 0 .776-.776v-3.073a.776.776 0 0 0-.776-.776Zm-.776 3.073H6.923a.776.776 0 0 0-.776.776v2.738l-4.274-4.275 4.274-4.274v2.738a.776.776 0 0 0 .776.776h37.793v1.521ZM39.894.227a.776.776 0 0 0-1.325.549V4.61H.776A.776.776 0 0 0 0 5.386V8.46a.776.776 0 0 0 .776.776H38.57v3.834a.776.776 0 0 0 1.325.549l6.147-6.147a.776.776 0 0 0 0-1.098L39.894.227Zm.227 10.97V8.46a.776.776 0 0 0-.776-.776H1.552V6.162h37.793a.776.776 0 0 0 .776-.776V2.65l4.274 4.274-4.274 4.274Z" fill="#EE8F21"/>
</svg>
