<svg width="243" height="234" viewBox="0 0 243 234" fill="none" xmlns="http://www.w3.org/2000/svg">
  <path d="m217.796 135.259 7.989-.167 3.937-.066c1.31-.03 2.609 0 3.919-.036l-.269.269-.03-6.695.299.299-7.922-.042c-2.645 0-5.284-.066-7.923-.096l.162-.161c0 1.095-.054 2.196-.078 3.309l-.084 3.386Zm0 0-.089-3.314c0-1.119-.066-2.244-.078-3.381v-.186h.167c2.639 0 5.278-.089 7.923-.095l7.922-.036h.299v.299l-.036 6.696v.317h-.263c-1.34 0-2.675 0-4.009-.03l-3.985-.066-7.851-.204Zm8.84 8.443 7.988-.167 3.938-.066c1.31-.03 2.614 0 3.919-.036l-.269.269v-6.695l.299.299-7.922-.042c-2.645 0-5.284-.066-7.923-.096l.162-.161c0 1.095-.054 2.196-.078 3.309l-.114 3.386Zm0 0-.083-3.315c-.03-1.119-.072-2.244-.084-3.38v-.162h.167c2.639-.03 5.278-.09 7.923-.096l7.922-.036h.299v.3l-.036 6.695v.269h-.263c-1.334 0-2.675 0-4.009-.029l-3.985-.066-7.851-.18Zm-17.711-.006h15.845v-6.695h-15.845v6.695ZM.552 189.919l7.994-.167 3.938-.066c1.304 0 2.608 0 3.913-.036l-.263.269-.036-6.695.299.299-7.923-.042c-2.638 0-5.277-.066-7.922-.096l.162-.161c0 1.095-.048 2.196-.078 3.309l-.084 3.386Zm0 0-.084-3.315c-.03-1.118-.065-2.243-.077-3.38v-.162h.161c2.645-.03 5.284-.09 7.922-.096l7.923-.035h.299v7.264h-.27c-1.334 0-2.674 0-4.002-.03l-3.997-.078-7.875-.168ZM41.603 64.868l7.994-.167 3.937-.066c1.305-.03 2.61 0 3.913-.03l-.263.263-.036-6.695.3.299-7.923-.036c-2.639 0-5.283-.066-7.922-.102l.161-.162c0 1.096-.047 2.202-.077 3.315l-.084 3.381Zm0 0-.084-3.309c0-1.119-.066-2.25-.078-3.386v-.162h.162c2.639-.03 5.283-.096 7.922-.096l7.922-.042h.3v.3l-.03 6.695v.27h-.264c-1.334 0-2.674 0-4.003-.037l-3.985-.065-7.862-.168ZM.48 15.438l7.988-.15 3.937-.066h3.92l-.27.264V8.79l.3.3-7.929-.085c-2.644 0-5.283-.065-7.922-.101l.162-.162c0 1.095-.054 2.196-.078 3.315l-.108 3.38Zm0 0-.09-3.31c0-1.118-.066-2.25-.078-3.386V8.58H.48c2.639 0 5.278-.095 7.922-.101l7.923-.036h.299v.3l-.036 6.695v.269h-.263c-1.34 0-2.675 0-4.01-.036l-3.984-.066-7.851-.167Zm217.316-8.443 7.989-.168 3.937-.066h3.919l-.269.264-.03-6.696.299.3-7.922-.037c-2.645 0-5.284-.065-7.923-.101l.162-.162c0 1.095-.054 2.196-.078 3.315l-.084 3.35Zm0 0-.089-3.31c0-1.118-.066-2.249-.078-3.386V.138h.167c2.639 0 5.278-.096 7.923-.102L233.641 0h.299v.33l-.036 6.695v.269h-.263c-1.34 0-2.675 0-4.009-.036l-4.003-.096-7.833-.167Zm-25.047 83.728h15.845v-6.695h-15.845v6.695Zm38.866 32.593a1.314 1.314 0 0 1 1.226-.646h.82a1.307 1.307 0 0 1 1.197.64l.849 1.478 4.787-2.777-.849-1.472a1.311 1.311 0 0 1 .047-1.382c.152-.235.29-.475.413-.718a1.322 1.322 0 0 1 1.197-.73h1.699v-5.553h-1.699a1.32 1.32 0 0 1-1.197-.724 6.912 6.912 0 0 0-.413-.718 1.316 1.316 0 0 1-.047-1.382l.849-1.478-4.787-2.77-.855 1.478a1.314 1.314 0 0 1-1.197.646h-.82a1.336 1.336 0 0 1-1.226-.646l-.85-1.478-4.787 2.77.85 1.472a1.316 1.316 0 0 1-.048 1.382c-.148.236-.285.475-.413.718a1.319 1.319 0 0 1-1.197.73h-1.699v5.553h1.699a1.322 1.322 0 0 1 1.197.73c.123.247.261.487.413.718a1.316 1.316 0 0 1 .048 1.382l-.85 1.472 4.787 2.777.856-1.472Zm-2.915-8.377a4.547 4.547 0 0 1 7.761-3.224 4.547 4.547 0 0 1-3.213 7.765 4.553 4.553 0 0 1-4.542-4.541h-.006ZM1.472 52.787a1.31 1.31 0 0 1 .646 1.227v.82a1.31 1.31 0 0 1-.64 1.197L0 56.88l2.776 4.786 1.46-.808a1.323 1.323 0 0 1 1.383.048c.233.15.472.293.718.419a1.31 1.31 0 0 1 .73 1.167v1.7h5.546v-1.7a1.305 1.305 0 0 1 .724-1.167c.248-.125.488-.265.719-.419a1.323 1.323 0 0 1 1.382-.048l1.478.85 2.77-4.787-1.478-.856a1.33 1.33 0 0 1-.646-1.196v-.814a1.328 1.328 0 0 1 .646-1.227l1.478-.85-2.77-4.786-1.472.85a1.31 1.31 0 0 1-1.383-.048 9.071 9.071 0 0 0-.718-.413 1.316 1.316 0 0 1-.73-1.197v-1.7H7.08v1.7a1.322 1.322 0 0 1-.73 1.197 6.991 6.991 0 0 0-.718.413 1.323 1.323 0 0 1-1.389.047l-1.466-.85L0 51.98l1.472.807Zm8.377-2.914a4.548 4.548 0 1 1-4.542 4.548 4.554 4.554 0 0 1 4.542-4.548Z" fill="#EBEBEB"/>
  <path d="m.309 233.343 30.3-.144 30.301-.054 60.602-.102 60.602.096 30.301.054 30.301.15-30.301.143-30.301.054-60.602.102-60.602-.102-30.3-.054-30.301-.143Z" fill="#263238"/>
  <path d="M172.084 4.26H70.962A10.328 10.328 0 0 0 60.7 14.69v208.229a10.331 10.331 0 0 0 10.238 10.424H172.06a10.358 10.358 0 0 0 7.296-3.083 10.355 10.355 0 0 0 2.977-7.341V14.689a10.343 10.343 0 0 0-10.25-10.43Zm3.848 212.221c0 5.481-4.105 9.915-9.167 9.915h-90.49c-5.074 0-9.179-4.434-9.179-9.915V22.576c0-11.165 4.105-11.71 9.179-11.71h18.124c1.053 0 1.915 1.197 1.915 2.68v.641c0 3.495 1.903 3.495 4.26 3.495h41.886c2.351 0 4.242 0 4.242-3.489v-.646c0-1.484.844-2.68 1.915-2.68h18.13c5.062 0 9.167 1.483 9.167 11.71l.018 193.904Z" fill="#263238"/>
  <path d="M127.231 13.332h-11.435a.701.701 0 0 1-.652-.436.704.704 0 0 1 .652-.976h11.435a.707.707 0 0 1 0 1.412Z" fill="#fff"/>
  <path d="M175.969 22.576v193.905c0 5.481-4.104 9.915-9.167 9.915H76.277c-5.075 0-9.18-4.434-9.18-9.915V22.576c0-11.165 4.105-11.71 9.18-11.71H94.4c1.053 0 1.915 1.197 1.915 2.681v.64c0 3.495 1.902 3.495 4.26 3.495h41.885c2.358 0 4.242 0 4.242-3.489v-.646c0-1.484.85-2.68 1.921-2.68h18.131c5.08 0 9.214 1.483 9.214 11.71Z" fill="#fff"/>
  <path d="m78.11 29.978-3.22-3.01 3.22-3.015.496.532-2.644 2.483 2.644 2.483-.496.527Zm89.397-4.888a.632.632 0 0 1-.758.621.636.636 0 0 1-.229-1.149.634.634 0 0 1 .596-.06.62.62 0 0 1 .344.344c.032.077.048.16.047.243Zm0 2.25a.632.632 0 0 1-.758.621.637.637 0 0 1-.499-.498.639.639 0 0 1 .866-.712.622.622 0 0 1 .344.345c.032.077.048.16.047.243Zm0 2.249a.632.632 0 0 1-.758.622.637.637 0 0 1-.499-.498.638.638 0 0 1 .866-.712.623.623 0 0 1 .391.588ZM91.27 15.222l-.173.174-.101.096a2.394 2.394 0 0 0-3.375 0l-.096-.102-.173-.174.221-.197a3.05 3.05 0 0 1 .515-.323 2.49 2.49 0 0 1 .682-.228c.11-.022.222-.038.335-.047h.526a2.72 2.72 0 0 1 1.448.627l.186.168.006.006Z" fill="#C7C7C7"/>
  <path d="m88.176 16.042-.282-.275a2.005 2.005 0 0 1 2.825 0l-.281.275a1.604 1.604 0 0 0-2.262 0Z" fill="#C7C7C7"/>
  <path d="m90.165 16.323-.275.27a.835.835 0 0 0-.598-.24.815.815 0 0 0-.599.246c-.09-.096-.185-.186-.275-.276a1.194 1.194 0 0 1 1.747 0Zm-.605.521a.251.251 0 0 1-.347.232.245.245 0 0 1-.15-.232.245.245 0 0 1 .245-.245.246.246 0 0 1 .251.245Zm-15.365-1.095a.724.724 0 1 1 1.449 0 .724.724 0 0 1-1.449 0Zm2.262 0a.725.725 0 1 1 1.45.024.725.725 0 0 1-1.45-.024Zm2.277 0a.723.723 0 1 1 1.447.023.723.723 0 0 1-1.447-.023Zm2.274 0a.724.724 0 1 1 .44.68.72.72 0 0 1-.44-.68Zm2.273 0a.724.724 0 1 1 .44.68.72.72 0 0 1-.44-.68Zm84.495 1.58h-5.881V14.6h5.881v2.729Zm-5.57-.306h5.265v-2.118h-5.265v2.118Z" fill="#C7C7C7"/>
  <path d="M166.174 15.067h-3.787v1.795h3.787v-1.795Zm2.12.167h-.521v1.454h.521v-1.454Z" fill="#C7C7C7"/>
  <path d="M83.638 214.542h-.832v3.8h-1.544v-1.939h-2.74v1.939h-1.544v-3.8h-.826l3.74-3.871 3.746 3.871Zm83.252-3.871h-9.023v1.286h9.023v-1.286Zm0 3.189h-9.023v1.286h9.023v-1.286Zm0 3.189h-9.023v1.287h9.023v-1.287Zm-42.807-3.058-2.567 2.741-2.567-2.741.455-.418 2.112 2.249 2.112-2.249.455.418Z" fill="#EBEBEB"/>
  <path d="M121.517 219.562a4.664 4.664 0 0 1-4.307-2.877 4.658 4.658 0 0 1 1.011-5.08 4.661 4.661 0 0 1 7.957 3.296 4.673 4.673 0 0 1-4.661 4.661Zm0-8.706a4.045 4.045 0 1 0 0 8.09 4.045 4.045 0 0 0 0-8.09Z" fill="#EBEBEB"/>
  <path d="M114.557 198.153a1.551 1.551 0 0 1-.961 1.437 1.552 1.552 0 0 1-1.695-.337 1.552 1.552 0 0 1-.337-1.695 1.548 1.548 0 0 1 1.437-.961 1.56 1.56 0 0 1 1.102.454 1.552 1.552 0 0 1 .454 1.102Z" fill="#DBDBDB"/>
  <path d="M124.039 198.153a2.36 2.36 0 0 1-1.455 2.178 2.353 2.353 0 0 1-2.569-.511 2.353 2.353 0 0 1 .357-3.627 2.357 2.357 0 0 1 3.667 1.96Z" fill="#F9C23A"/>
  <path d="M131.924 198.153a1.551 1.551 0 0 1-.96 1.437 1.555 1.555 0 1 1-.596-2.993 1.564 1.564 0 0 1 1.439.96c.078.189.118.391.117.596Z" fill="#DBDBDB"/>
  <path d="M142.18 154.808h-41.992v13.355h41.992v-13.355Z" fill="#F9C23A"/>
  <path d="M157.875 112.576H85.168v12.446h72.707v-12.446Z" fill="#fff"/>
  <path d="M158.166 125.321H84.867v-13.045h73.299v13.045Zm-72.7-.599h72.102v-11.847H85.465v11.847Z" fill="#EBEBEB"/>
  <path d="M92.712 116.01h-.599v5.32h.599v-5.32Z" fill="#37474F"/>
  <path d="M95.077 118.368h-5.32v.598h5.32v-.598Z" fill="#37474F"/>
  <path d="m94.087 116.572-3.763 3.76.423.423 3.763-3.76-.423-.423Z" fill="#37474F"/>
  <path d="m90.74 116.575-.424.423 3.762 3.761.423-.423-3.761-3.761Zm10.995-.565h-.598v5.32h.598v-5.32Z" fill="#37474F"/>
  <path d="M104.101 118.368h-5.32v.598h5.32v-.598Z" fill="#37474F"/>
  <path d="m103.106 116.578-3.762 3.76.423.423 3.762-3.76-.423-.423Z" fill="#37474F"/>
  <path d="m99.767 116.573-.423.423 3.761 3.762.423-.423-3.761-3.762Zm10.992-.563h-.599v5.32h.599v-5.32Z" fill="#37474F"/>
  <path d="M113.12 118.368h-5.319v.598h5.319v-.598Z" fill="#37474F"/>
  <path d="m112.126 116.578-3.763 3.76.423.424 3.763-3.761-.423-.423Z" fill="#37474F"/>
  <path d="m108.79 116.571-.423.423 3.762 3.762.423-.424-3.762-3.761Zm10.996-.561h-.598v5.32h.598v-5.32Z" fill="#37474F"/>
  <path d="M122.144 118.368h-5.32v.598h5.32v-.598Z" fill="#37474F"/>
  <path d="m121.153 116.579-3.762 3.76.423.423 3.762-3.76-.423-.423Z" fill="#37474F"/>
  <path d="m117.822 116.577-.424.423 3.762 3.761.423-.423-3.761-3.761Zm10.987-.567h-.598v5.32h.598v-5.32Z" fill="#37474F"/>
  <path d="M131.167 118.368h-5.319v.598h5.319v-.598Z" fill="#37474F"/>
  <path d="m130.177 116.579-3.763 3.76.423.423 3.763-3.76-.423-.423Z" fill="#37474F"/>
  <path d="m126.837 116.569-.423.423 3.761 3.761.424-.423-3.762-3.761Zm10.996-.559h-.599v5.32h.599v-5.32Zm9.832 0h-.599v5.32h.599v-5.32Z" fill="#37474F"/>
  <path d="M140.198 118.368h-5.319v.598h5.319v-.598Zm9.828 0h-5.319v.598h5.319v-.598Z" fill="#37474F"/>
  <path d="m139.204 116.575-3.763 3.76.423.423 3.763-3.76-.423-.423Zm9.828 0-3.762 3.76.422.423 3.763-3.76-.423-.423Z" fill="#37474F"/>
  <path d="m135.865 116.567-.424.423 3.762 3.762.423-.423-3.761-3.762Zm9.828 0-.423.423 3.761 3.762.423-.423-3.761-3.762Zm85.954-86.152s-4.565 36.536-12.068 44.757c-8.976 9.861-15.558 8.419-19.148 13.505-3.638-5.092-10.172-3.644-19.147-13.511-7.504-8.221-12.057-44.757-12.057-44.757 19.745-9.574 31.234-20.344 31.234-20.344.299.34 11.728 10.908 31.186 20.35Z" fill="#37474F"/>
  <path d="M200.408 10.076v78.601c-3.638-5.092-10.173-3.644-19.148-13.511-7.503-8.221-12.057-44.757-12.057-44.757 19.746-9.574 31.235-20.344 31.235-20.344l-.03.011Z" fill="#455A64"/>
  <path d="M226.826 33.358s-3.854 30.864-10.172 37.81c-7.617 8.342-13.164 7.115-16.21 11.412-3.069-4.297-8.592-3.07-16.209-11.411-6.331-6.947-10.173-37.81-10.173-37.81 16.695-8.108 26.388-17.191 26.388-17.191s9.652 9.083 26.376 17.19Z" fill="#455A64"/>
  <path d="M174.023 33.358s3.854 30.858 10.173 37.81c7.605 8.336 13.122 7.121 16.197 11.406V16.156c-.275.329-9.933 9.22-26.37 17.203Z" fill="#37474F"/>
  <path d="M209.067 58.028c4.778-4.779 4.778-12.526 0-17.305-4.779-4.779-12.526-4.779-17.305 0s-4.779 12.526 0 17.305c4.778 4.779 12.526 4.779 17.305 0Z" fill="#F9C23A"/>
  <path d="m199.014 57.323-5.452-5.667 2.023-1.944 3.004 3.123 6.474-9.933 2.352 1.532-8.401 12.889Z" fill="#fff"/>
  <path d="M89.333 103.509v-6.147h4.086v1.035h-2.844v1.494h2.304v1.017h-2.304v1.566h2.844v1.035h-4.086Zm4.885 0v-4.518h1.197v.288a2.13 2.13 0 0 1 .35-.171 3.41 3.41 0 0 1 .433-.153 1.73 1.73 0 0 1 .45-.063c.42 0 .744.075.972.225.234.144.399.384.495.72.096.33.144.774.144 1.332v2.34h-1.206v-2.277c0-.312-.018-.561-.054-.747-.036-.192-.105-.33-.207-.414-.102-.084-.252-.126-.45-.126-.108 0-.222.012-.342.036a2.075 2.075 0 0 0-.333.081 1.755 1.755 0 0 0-.252.108v3.339h-1.197Zm6.541.108c-.33 0-.597-.048-.801-.144a.86.86 0 0 1-.441-.495c-.084-.24-.126-.573-.126-.999v-1.99h-.531v-.998h.53v-1.197h1.198v1.197h1.152v.999h-1.152v1.674c0 .234.009.417.027.549.024.132.072.225.144.279.072.054.183.081.333.081.042 0 .105-.003.189-.009l.252-.018c.084-.006.153-.012.207-.018l.036.963c-.144.024-.318.051-.522.081-.198.03-.363.045-.495.045Zm3.477-.009c-.498 0-.894-.084-1.188-.252a1.418 1.418 0 0 1-.621-.765c-.126-.342-.189-.771-.189-1.287 0-.558.078-1.014.234-1.368.162-.354.396-.615.702-.783.306-.174.684-.261 1.134-.261.666 0 1.167.168 1.503.504.342.336.513.867.513 1.593l-.054.666h-2.826c.006.336.075.588.207.756.132.168.36.252.684.252.186 0 .39-.003.612-.009l.657-.036c.222-.012.411-.024.567-.036l.027.837c-.15.024-.339.051-.567.081-.228.03-.465.054-.711.072-.24.024-.468.036-.684.036Zm-.792-2.718h1.683c0-.408-.066-.693-.198-.855-.126-.162-.333-.243-.621-.243-.282 0-.498.084-.648.252-.144.168-.216.45-.216.846Zm3.676 2.619v-4.518h1.197v.53c.102-.077.228-.158.378-.242.15-.09.312-.171.486-.243.18-.078.351-.13.513-.153v1.161a2.858 2.858 0 0 0-.495.126 5.307 5.307 0 0 0-.882.36v2.979h-1.197Zm5.231 0v-6.147h1.62l1.971 4.32h.162v-4.32h1.242v6.147h-1.602l-1.989-4.392h-.162v4.392h-1.242Zm7.233.099c-.468 0-.822-.117-1.062-.351-.234-.24-.351-.6-.351-1.08 0-.336.06-.597.18-.783.12-.192.297-.33.531-.414.24-.09.531-.144.873-.162l1.098-.099v-.27c0-.216-.054-.366-.162-.45-.108-.09-.267-.135-.477-.135-.168 0-.363.006-.585.018a23.498 23.498 0 0 0-1.197.099l-.036-.846a9.39 9.39 0 0 1 .558-.108 8.023 8.023 0 0 1 1.359-.135c.384 0 .705.048.963.144.258.096.453.255.585.477.132.216.198.51.198.882v2.061a.27.27 0 0 0 .135.198.894.894 0 0 0 .27.09l-.027.828c-.144.006-.285.009-.423.009s-.255-.009-.351-.027a1.056 1.056 0 0 1-.36-.108 1.074 1.074 0 0 1-.234-.171c-.096.042-.225.09-.387.144a4.029 4.029 0 0 1-.531.135 2.977 2.977 0 0 1-.567.054Zm.288-.891c.114 0 .234-.012.36-.036a2.495 2.495 0 0 0 .621-.18v-1.035l-.918.081c-.198.018-.342.078-.432.18-.084.096-.126.234-.126.414 0 .18.039.321.117.423.084.102.21.153.378.153Zm4.775.9c-.33 0-.597-.048-.801-.144a.86.86 0 0 1-.441-.495c-.084-.24-.126-.573-.126-.999v-1.99h-.531v-.998h.531v-1.197h1.197v1.197h1.152v.999h-1.152v1.674c0 .234.009.417.027.549.024.132.072.225.144.279.072.054.183.081.333.081.042 0 .105-.003.189-.009l.252-.018c.084-.006.153-.012.207-.018l.036.963c-.144.024-.318.051-.522.081-.198.03-.363.045-.495.045Zm1.651-.108v-4.518h1.197v4.518h-1.197Zm0-5.238v-1.026h1.206v1.026h-1.206Zm4.141 5.337c-.51 0-.921-.084-1.233-.252a1.465 1.465 0 0 1-.666-.774c-.138-.354-.207-.81-.207-1.368 0-.54.072-.978.216-1.314.144-.342.372-.594.684-.756.312-.168.714-.252 1.206-.252.498 0 .9.084 1.206.252.312.162.54.414.684.756.15.336.225.774.225 1.314 0 .558-.069 1.014-.207 1.368a1.456 1.456 0 0 1-.675.774c-.306.168-.717.252-1.233.252Zm0-.99c.252 0 .441-.045.567-.135.126-.096.21-.246.252-.45.048-.21.072-.483.072-.819 0-.33-.027-.591-.081-.783-.054-.198-.144-.339-.27-.423-.126-.084-.306-.126-.54-.126-.228 0-.408.042-.54.126-.126.084-.216.225-.27.423-.054.192-.081.453-.081.783 0 .336.021.609.063.819.048.204.135.354.261.45.126.09.315.135.567.135Zm2.934.891v-4.518h1.197v.288a2.13 2.13 0 0 1 .351-.171c.138-.06.282-.111.432-.153a1.73 1.73 0 0 1 .45-.063c.42 0 .744.075.972.225.234.144.399.384.495.72.096.33.144.774.144 1.332v2.34h-1.206v-2.277c0-.312-.018-.561-.054-.747-.036-.192-.105-.33-.207-.414-.102-.084-.252-.126-.45-.126-.108 0-.222.012-.342.036a2.075 2.075 0 0 0-.333.081 1.755 1.755 0 0 0-.252.108v3.339h-1.197Zm6.154.099c-.468 0-.822-.117-1.062-.351-.234-.24-.351-.6-.351-1.08 0-.336.06-.597.18-.783.12-.192.297-.33.531-.414.24-.09.531-.144.873-.162l1.098-.099v-.27c0-.216-.054-.366-.162-.45-.108-.09-.267-.135-.477-.135-.168 0-.363.006-.585.018a23.498 23.498 0 0 0-1.197.099l-.036-.846a9.39 9.39 0 0 1 .558-.108 8.023 8.023 0 0 1 1.359-.135c.384 0 .705.048.963.144.258.096.453.255.585.477.132.216.198.51.198.882v2.061a.27.27 0 0 0 .135.198.894.894 0 0 0 .27.09l-.027.828c-.144.006-.285.009-.423.009s-.255-.009-.351-.027a1.056 1.056 0 0 1-.36-.108 1.074 1.074 0 0 1-.234-.171c-.096.042-.225.09-.387.144a4.029 4.029 0 0 1-.531.135 2.977 2.977 0 0 1-.567.054Zm.288-.891c.114 0 .234-.012.36-.036a2.495 2.495 0 0 0 .621-.18v-1.035l-.918.081c-.198.018-.342.078-.432.18-.084.096-.126.234-.126.414 0 .18.039.321.117.423.084.102.21.153.378.153Zm3.279.792v-6.363h1.197v6.363h-1.197Zm4.255 0v-6.147h1.242v6.147h-1.242Zm2.382 0v-6.147h2.349c.48 0 .882.069 1.206.207.33.132.594.327.792.585.198.258.339.57.423.936.09.366.135.783.135 1.251 0 .474-.042.903-.126 1.287a2.714 2.714 0 0 1-.405.999c-.192.282-.45.501-.774.657-.324.15-.729.225-1.215.225h-2.385Zm1.242-1.044h1.071c.282 0 .51-.054.684-.162.174-.108.306-.258.396-.45.096-.198.159-.423.189-.675a6.07 6.07 0 0 0 0-1.62 1.75 1.75 0 0 0-.198-.612.902.902 0 0 0-.396-.396c-.168-.096-.393-.144-.675-.144h-1.071v4.059Z" fill="#F9C23A"/>
  <path d="m111.82 165-1.467-6.147h1.305l1.053 4.95h.369l1.035-4.95h1.305L113.98 165h-2.16Zm5.748.099c-.498 0-.894-.084-1.188-.252a1.418 1.418 0 0 1-.621-.765c-.126-.342-.189-.771-.189-1.287 0-.558.078-1.014.234-1.368.162-.354.396-.615.702-.783.306-.174.684-.261 1.134-.261.666 0 1.167.168 1.503.504.342.336.513.867.513 1.593l-.054.666h-2.826c.006.336.075.588.207.756.132.168.36.252.684.252.186 0 .39-.003.612-.009l.657-.036c.222-.012.411-.024.567-.036l.027.837c-.15.024-.339.051-.567.081-.228.03-.465.054-.711.072-.24.024-.468.036-.684.036Zm-.792-2.718h1.683c0-.408-.066-.693-.198-.855-.126-.162-.333-.243-.621-.243-.282 0-.498.084-.648.252-.144.168-.216.45-.216.846Zm3.676 2.619v-4.518h1.197v.531c.102-.078.228-.159.378-.243.15-.09.312-.171.486-.243.18-.078.351-.129.513-.153v1.161a2.858 2.858 0 0 0-.495.126 5.307 5.307 0 0 0-.882.36V165h-1.197Zm3.199 0v-4.518h1.197V165h-1.197Zm0-5.238v-1.026h1.206v1.026h-1.206Zm2.378 5.238v-3.519h-.45v-.999h.45v-.261c0-.426.039-.762.117-1.008.084-.246.225-.42.423-.522.198-.102.465-.153.801-.153.096 0 .21.006.342.018.138.006.27.015.396.027s.222.024.288.036l-.009.918h-.324a5.751 5.751 0 0 0-.297-.009.725.725 0 0 0-.324.063.372.372 0 0 0-.171.207c-.03.096-.045.234-.045.414v.27h1.08v.999h-1.08V165h-1.197Zm4.003 1.899.576-1.899h-.963l-1.071-4.518h1.251l.801 3.501h.234l.801-3.501h1.206l-1.557 6.417h-1.278Z" fill="#fff"/>
  <path d="M89.785 46.117a5 5 0 0 1 5-5h53.773a5 5 0 0 1 5 5v30.88a5 5 0 0 1-5 5H94.785a5 5 0 0 1-5-5v-30.88Z" fill="url(#paint0_linear_59_4104)" stroke="#F9C23A" stroke-width="2"/>
  <path opacity=".9" d="M121.672 47.76a.92.92 0 0 1 .92-.92h26.22a.92.92 0 1 1 0 1.84h-26.22a.92.92 0 0 1-.92-.92Zm0 29.025a.92.92 0 0 1 .92-.92h26.22a.92.92 0 1 1 0 1.84h-26.22a.92.92 0 0 1-.92-.92Zm-26.574 0a.92.92 0 0 1 .92-.92h14.103a.92.92 0 1 1 0 1.84H96.018a.92.92 0 0 1-.92-.92Zm26.574-25.142a.92.92 0 0 1 .92-.92h26.22a.92.92 0 1 1 0 1.84h-26.22a.92.92 0 0 1-.92-.92Zm0 3.884a.92.92 0 0 1 .92-.92h26.22a.92.92 0 1 1 0 1.84h-26.22a.92.92 0 0 1-.92-.92Zm0 3.883a.92.92 0 0 1 .92-.919h26.22a.92.92 0 1 1 0 1.84h-26.22a.92.92 0 0 1-.92-.92Zm0 3.884a.92.92 0 0 1 .92-.92h26.22a.92.92 0 1 1 0 1.84h-26.22a.92.92 0 0 1-.92-.92Z" fill="#F9C23A"/>
  <path d="M111.535 61.957c3.837-3.837 3.837-10.057 0-13.894-3.836-3.836-10.056-3.836-13.893 0-3.837 3.837-3.837 10.057 0 13.894 3.837 3.836 10.057 3.836 13.893 0Z" fill="#F9C23A"/>
  <path d="m109.598 59.892-2.961-1.66v-1.371a4.468 4.468 0 0 0 .91-1.73.977.977 0 0 0 .317.054c.368 0 .601-1.108.64-1.9.428-.88-.154-1.397-.154-1.397s.241-.235.401-1.177c.16-.942-.564-.55-1.128-1.412-.564-.864-.968-1.803-2.82-1.803a2.598 2.598 0 0 0-1.445.383c-.431.266-.77.652-.973 1.108-.461.002-.92.054-1.369.156-.567.156-.727 1.961-.244 2.669.216.386.331.819.336 1.259-.129-.154-.263-.194-.336.153-.16.784.485 1.882.485 1.882l.333-.092c.168.678.492 1.31.947 1.847v1.371l-2.961 1.66a2.248 2.248 0 0 0-.833.811c-.2.337-.305.719-.305 1.107v.95a10.235 10.235 0 0 0 6.149 2.044c2.226 0 4.388-.719 6.15-2.044v-.95c0-.389-.105-.77-.305-1.107a2.246 2.246 0 0 0-.834-.81Z" fill="#fff"/>
  <defs>
    <linearGradient id="paint0_linear_59_4104" x1="89.785" y1="81.933" x2="153.36" y2="81.933" gradientUnits="userSpaceOnUse">
      <stop offset=".004" stop-color="#fff"/>
      <stop offset=".686" stop-color="#EDF1F9"/>
    </linearGradient>
  </defs>
</svg>
