<svg width="161" height="157" viewBox="0 0 161 157" fill="none" xmlns="http://www.w3.org/2000/svg">
  <path opacity=".7" d="M144.554 23.52C134.684.975 110.994-7.514 92.302 7.624c-7.3 5.906-11.853 15.304-20.79 19.076-8.387 3.537-19.01 2.496-28.078 4.411C24.123 35.165-1.877 50.545.107 74.243c.869 10.38 7.858 21.909 11.314 31.622 3.966 11.175 6.347 25.156 16.847 31.837 18.002 11.469 39.717 2.094 55.933-7.154 8.728-4.972 13.532-8.028 22.929-6.323 8.7 1.59 16.534 7.154 25.035.553 6.383-4.956 6.911-14.999 12.27-20.896 6.037-6.645 12.158-7.126 15.296-17.113 3.804-12.117-1.801-19.688-5.589-30.514-3.789-10.825-4.939-22.128-9.588-32.735Z" fill="#F28221"/>
  <path d="M70.905 156.268c33.867 0 61.321-1.711 61.321-3.821 0-2.109-27.454-3.82-61.32-3.82-33.867 0-61.321 1.711-61.321 3.82 0 2.11 27.454 3.821 61.32 3.821Z" fill="#2D317F"/>
  <path opacity=".8" d="M70.905 156.268c33.867 0 61.321-1.711 61.321-3.821 0-2.109-27.454-3.82-61.32-3.82-33.867 0-61.321 1.711-61.321 3.82 0 2.11 27.454 3.821 61.32 3.821Z" fill="#fff"/>
  <path d="M116.982 7.183H55.324a7.708 7.708 0 0 0-7.707 7.708v130.17a7.707 7.707 0 0 0 7.707 7.707h61.658a7.707 7.707 0 0 0 7.708-7.707V14.891a7.708 7.708 0 0 0-7.708-7.708Z" fill="#263238"/>
  <path d="M121.263 23.17H51.041v113.612h70.222V23.17Z" fill="#fff" stroke="#263238" stroke-width="1.337" stroke-miterlimit="10"/>
  <path d="M96.916 69.174c5.945-5.944 5.945-15.581 0-21.525-5.944-5.945-15.581-5.945-21.525 0-5.945 5.944-5.945 15.581 0 21.525 5.944 5.945 15.581 5.945 21.525 0Zm9.222 60.464H66.175a.694.694 0 0 1-.484-.199.678.678 0 0 1-.202-.484.679.679 0 0 1 .423-.635.679.679 0 0 1 .263-.051h39.963a.692.692 0 0 1 .484.201.695.695 0 0 1 .199.485.684.684 0 0 1-.683.683Zm1.3-47.448H64.869a1.59 1.59 0 0 0-1.59 1.59v5.018c0 .879.711 1.59 1.59 1.59h42.569a1.59 1.59 0 0 0 1.591-1.59V83.78a1.59 1.59 0 0 0-1.591-1.59Zm0 15.335H64.869a1.59 1.59 0 0 0-1.59 1.591v5.018a1.59 1.59 0 0 0 1.59 1.591h42.569a1.59 1.59 0 0 0 1.591-1.591v-5.018a1.59 1.59 0 0 0-1.591-1.59Z" fill="#2D317F"/>
  <path d="m93.733 66.004-4.478-2.578v-2.13a7.005 7.005 0 0 0 1.376-2.686c.154.055.317.083.48.083.555 0 .908-1.721.968-2.951.647-1.369-.234-2.17-.234-2.17s.365-.365.607-1.829-.853-.853-1.706-2.194c-.853-1.34-1.464-2.8-4.264-2.8a3.848 3.848 0 0 0-3.658 2.316 9.266 9.266 0 0 0-2.07.242c-.857.242-1.1 3.047-.37 4.146.327.6.502 1.272.508 1.955-.194-.238-.396-.3-.507.239-.242 1.217.733 2.923.733 2.923l.504-.143a7.14 7.14 0 0 0 1.432 2.868v2.13l-4.478 2.58a3.443 3.443 0 0 0-1.722 2.978v1.476a15.213 15.213 0 0 0 18.6 0v-1.476a3.435 3.435 0 0 0-1.72-2.979Zm-24.659 37.682a.4.4 0 0 1-.274-.115.37.37 0 0 1-.063-.48l.714-1.143-1.393.044a.366.366 0 0 1-.286-.107.398.398 0 0 1 0-.528.362.362 0 0 1 .286-.111l1.373.052-.706-1.139a.395.395 0 0 1-.06-.206.37.37 0 0 1 .123-.278.397.397 0 0 1 .274-.115.357.357 0 0 1 .321.207l.679 1.225.67-1.218a.397.397 0 0 1 .345-.222.361.361 0 0 1 .266.12.397.397 0 0 1 .111.281.395.395 0 0 1-.051.194l-.719 1.151 1.393-.052a.373.373 0 0 1 .285.111.371.371 0 0 1 .104.262.398.398 0 0 1-.103.266.366.366 0 0 1-.286.107l-1.4-.044.698 1.131a.4.4 0 0 1-.337.607.35.35 0 0 1-.318-.214l-.662-1.19-.659 1.19a.375.375 0 0 1-.325.214Zm6.436 0a.4.4 0 0 1-.273-.115.37.37 0 0 1-.123-.278.398.398 0 0 1 .059-.202l.714-1.143-1.388.044a.412.412 0 0 1-.156-.024.412.412 0 0 1-.134-.083.375.375 0 0 1 .075-.584.371.371 0 0 1 .215-.055l1.368.052-.706-1.139a.396.396 0 0 1-.06-.206.37.37 0 0 1 .124-.278.397.397 0 0 1 .273-.115.357.357 0 0 1 .322.207l.678 1.225.67-1.218a.396.396 0 0 1 .345-.222.353.353 0 0 1 .266.12.4.4 0 0 1 .115.281.394.394 0 0 1-.055.194l-.718 1.151 1.396-.044a.364.364 0 0 1 .282.111.37.37 0 0 1 .103.262.399.399 0 0 1-.103.266.371.371 0 0 1-.282.107l-1.404-.044.698 1.131a.397.397 0 0 1-.337.607.35.35 0 0 1-.318-.214l-.662-1.19-.659 1.19a.374.374 0 0 1-.325.206Zm6.436 0a.4.4 0 0 1-.278-.115.37.37 0 0 1-.063-.48l.714-1.143-1.389.044a.375.375 0 0 1-.157-.722.38.38 0 0 1 .157-.024l1.369.052-.706-1.139a.396.396 0 0 1-.06-.206.397.397 0 0 1 .123-.278.397.397 0 0 1 .278-.115.358.358 0 0 1 .317.207l.679 1.225.67-1.218a.397.397 0 0 1 .345-.222.353.353 0 0 1 .266.12.396.396 0 0 1 .115.281.394.394 0 0 1-.055.194l-.718 1.151 1.396-.052a.357.357 0 0 1 .152.018.356.356 0 0 1 .245.355.396.396 0 0 1-.1.266.367.367 0 0 1-.285.107l-1.4-.044.694 1.131a.4.4 0 0 1 .06.21.393.393 0 0 1-.124.278.369.369 0 0 1-.27.119.344.344 0 0 1-.313-.214l-.666-1.19-.659 1.19a.369.369 0 0 1-.337.214Zm6.434 0a.4.4 0 0 1-.396-.393.373.373 0 0 1 .055-.202l.714-1.143-1.388.044a.411.411 0 0 1-.156-.024.412.412 0 0 1-.134-.083.398.398 0 0 1 0-.528.397.397 0 0 1 .29-.111l1.372.052-.702-1.139a.396.396 0 0 1-.06-.206.397.397 0 0 1 .124-.278.397.397 0 0 1 .277-.115.357.357 0 0 1 .322.207l.674 1.225.67-1.218a.397.397 0 0 1 .345-.222.353.353 0 0 1 .266.12.398.398 0 0 1 .115.281.394.394 0 0 1-.055.194l-.718 1.151 1.396-.052a.357.357 0 0 1 .152.018.356.356 0 0 1 .245.355.396.396 0 0 1-.1.266.365.365 0 0 1-.285.107l-1.4-.044.694 1.131a.396.396 0 0 1 .028.362.37.37 0 0 1-.092.126.367.367 0 0 1-.27.119.344.344 0 0 1-.313-.214l-.666-1.19-.659 1.19a.369.369 0 0 1-.345.214Zm6.436 0a.4.4 0 0 1-.278-.115.395.395 0 0 1-.06-.48l.71-1.143-1.388.044a.411.411 0 0 1-.155-.024.412.412 0 0 1-.134-.083.398.398 0 0 1 0-.528.397.397 0 0 1 .29-.111l1.372.052-.706-1.139a.396.396 0 0 1-.06-.206.397.397 0 0 1 .397-.393.358.358 0 0 1 .321.207l.675 1.225.67-1.218a.397.397 0 0 1 .345-.222.36.36 0 0 1 .27.12.397.397 0 0 1 .056.475l-.719 1.151 1.397-.052a.357.357 0 0 1 .152.018.355.355 0 0 1 .245.355.396.396 0 0 1-.1.266.366.366 0 0 1-.285.107l-1.4-.044.694 1.131a.397.397 0 0 1 .028.362.37.37 0 0 1-.092.126.367.367 0 0 1-.27.119.344.344 0 0 1-.313-.214l-.666-1.19-.659 1.19a.369.369 0 0 1-.337.214Zm6.434 0a.4.4 0 0 1-.273-.115.37.37 0 0 1-.064-.48l.71-1.143-1.388.044a.369.369 0 0 1-.397-.373.363.363 0 0 1 .107-.262.357.357 0 0 1 .286-.111l1.372.052-.706-1.139a.394.394 0 0 1-.059-.206.397.397 0 0 1 .397-.393.358.358 0 0 1 .321.207l.674 1.225.675-1.218a.391.391 0 0 1 .341-.222.356.356 0 0 1 .269.12.4.4 0 0 1 .06.475l-.718 1.151 1.392-.052a.367.367 0 0 1 .389.373.398.398 0 0 1-.103.266.363.363 0 0 1-.286.107l-1.4-.044.694 1.131a.4.4 0 0 1 .06.21.397.397 0 0 1-.119.278.4.4 0 0 1-.274.119.347.347 0 0 1-.313-.214l-.667-1.19-.658 1.19a.37.37 0 0 1-.322.214Z" fill="#fff"/>
  <path d="M121.263 23.32H51.041v4.4h70.222v-4.4Z" fill="#F28221" style="mix-blend-mode:multiply"/>
  <path d="M93.787 15.216H78.514a1.04 1.04 0 0 1 0-2.079h15.273a1.04 1.04 0 1 1 0 2.079Z" fill="#2D317F" stroke="#263238" stroke-width="1.337" stroke-linecap="round" stroke-linejoin="round"/>
  <path d="M90.315 143.2a4.163 4.163 0 0 0-4.977-4.089 4.16 4.16 0 0 0-3.273 3.274 4.163 4.163 0 0 0 4.09 4.977 4.167 4.167 0 0 0 4.161-4.162Z" fill="#fff"/>
  <path d="M88.267 141.09h-4.22v4.221h4.22v-4.221Z" fill="#fff" stroke="#263238" stroke-width="1.337" stroke-linecap="round" stroke-linejoin="round"/>
  <path d="m32.371 67.468-13.063-4.264-1.162-3.07-2.654-.084-4.816-.912.58.995 6.06 4.4 1.496.745 13.662 7.137-.103-4.947Z" fill="#fff" stroke="#263238" stroke-width="1.004" stroke-miterlimit="10"/>
  <path d="m18.146 60.133-1.245-.745-2.487.912.412.496 3.32-.663Z" fill="#fff" stroke="#263238" stroke-width="1.004" stroke-linejoin="round"/>
  <path d="m32.371 67.468-13.063-4.264-1.162-3.07-2.654-.084-4.816-.912.58.995 6.06 4.4 1.496.745 13.662 7.137-.103-4.947Z" fill="#fff"/>
  <path opacity=".5" d="M32.373 67.469 19.31 63.204l-1.162-3.07-2.654-.084-4.816-.912.58.996 6.06 4.399 1.496.746 13.662 7.136-.103-4.947Z" fill="#2D317F" stroke="#263238" stroke-width="1.004" stroke-miterlimit="10"/>
  <path d="m32.371 67.468-13.063-4.264-1.162-3.07-2.654-.084-4.816-.912.58.995 6.06 4.4 1.496.745 13.662 7.137-.103-4.947Z" stroke="#263238" stroke-width="1.004" stroke-miterlimit="10"/>
  <path d="m18.146 60.133-1.245-.745-2.487.912.412.496 3.32-.663Z" fill="#fff"/>
  <path opacity=".5" d="m18.147 60.133-1.245-.745-2.487.912.412.496 3.32-.663Z" fill="#2D317F" stroke="#263238" stroke-width="1.004" stroke-linejoin="round"/>
  <path d="m18.146 60.133-1.245-.745-2.487.912.412.496 3.32-.663Z" stroke="#263238" stroke-width="1.004" stroke-linejoin="round"/>
  <path d="M35.146 39.791s-.203 1.785.301 2.932c.504 1.146 3.3 5.03 3.3 5.03l-5.22 4.185s-2.166-4.364-2.578-5.07c-.413-.706-.909-3.745.436-5.922 1.345-2.178 3.28-2.765 3.76-1.155Z" fill="#fff"/>
  <path d="m32.464 45.527 2.265 4.697-1.206 1.718-2.277-4.067 1.218-2.348Z" fill="#2D317F" style="mix-blend-mode:multiply" opacity=".5"/>
  <path d="M35.146 39.791s-.203 1.785.301 2.932c.504 1.146 3.3 5.03 3.3 5.03l-5.22 4.185s-2.166-4.364-2.578-5.07c-.413-.706-.909-3.745.436-5.922 1.345-2.178 3.28-2.765 3.76-1.155Z" stroke="#263238" stroke-width="1.004" stroke-miterlimit="10"/>
  <path d="M36.764 36.522c-.32-1.983-2.594-6.017-6.2-5.863-2.34.103-3.435.575-4.45 1.15a13.12 13.12 0 0 0-2.302 1.722c-1.76 2.115-2.38 2.694-2.039 4.312-.027.646.074 1.29.298 1.896.54 1.44.909 2.38 1.377 3.067-.143.67-.516 2.44-.536 2.844-.02.405 1.19.123 1.801-.032 1.134 2.54 3.213 4.3 3.86 4.503 1.126.353 2.908-1.5 3.852-2.936s.23-3.05.234-3.693c.004-.642 2.122-2.055 2.907-2.503.786-.448 1.516-2.487 1.198-4.467Z" fill="#fff"/>
  <path d="M21.79 37.843c-.029.646.073 1.29.297 1.897.54 1.44.908 2.38 1.376 3.066-.142.67-.515 2.44-.535 2.844-.02.405 1.19.123 1.8-.031 1.135 2.538 3.214 4.3 3.86 4.502 1.127.353 2.908-1.5 3.852-2.936.236-.358.39-.765.449-1.19a11.334 11.334 0 0 0-.088-.301s-.531 2.043-1.586 1.777c-1.055-.266-2.67-2.38-3.57-3.11-.901-.73-.532-1.69-.71-2.777-.18-1.087-2.845-2.043-3.023-2.666-.179-.622.444-3.2.444-3.2s1.011-1.35.793-.794a3.777 3.777 0 0 0 .266 2.931 2.023 2.023 0 0 0 1.869 1.155l.967-4.796-2.043-1.69-2.38.992c-1.777 2.13-2.384 2.709-2.039 4.327Z" fill="#2D317F" style="mix-blend-mode:multiply" opacity=".5"/>
  <path d="M36.764 36.522c-.32-1.983-2.594-6.017-6.2-5.863-2.34.103-3.435.575-4.45 1.15a13.12 13.12 0 0 0-2.302 1.722c-1.76 2.115-2.38 2.694-2.039 4.312-.027.646.074 1.29.298 1.896.54 1.44.909 2.38 1.377 3.067-.143.67-.516 2.44-.536 2.844-.02.405 1.19.123 1.801-.032 1.134 2.54 3.213 4.3 3.86 4.503 1.126.353 2.908-1.5 3.852-2.936s.23-3.05.234-3.693c.004-.642 2.122-2.055 2.907-2.503.786-.448 1.516-2.487 1.198-4.467Z" stroke="#263238" stroke-miterlimit="10"/>
  <path d="m23.939 41.608.396 1.134s.853.282 1.893-.852m.642 5.018s.944-.096 1.325-1.42m-4.918-4.828s.281-.853 1.983-.853" stroke="#263238" stroke-miterlimit="10" stroke-linecap="round"/>
  <path d="M31.998 29.08a28.194 28.194 0 0 0-3.732-.285s-3.737-2.154-7.327.143c-3.59 2.297-1.865 6.319-1.865 7.323 0 1.003-1.15 1.007-.432 2.3.718 1.294 3.146.58 3.146.58a3.452 3.452 0 0 1 1.297-2.52c1.293-1.003 2.324-1.221 2.753-.932 0 0-.286 2.154.143 3.015 0 0 1.436.718 1.868.718.433 0-.282.607 1.15 1.147a1.794 1.794 0 0 0 1.587-.187c.21-.873.67-2.186 1.528-1.88 1.257.448 2.403 3.542.702 4.597 2.047.373 4.526-3.248 4.673-6.549.146-3.3-3.364-7.097-5.49-7.47Z" fill="#263238"/>
  <path d="M25.903 34.273s1.055-.567 2.349.647c1.293 1.213 3.808 2.836 7.14 1.943m-9.636-3.562s.726-1.134 1.94-1.134 4.05 1.701 6.315 1.701m-9.078 1.619s-1.377-1.698-2.67-.321c-1.293 1.376-.472 2.677-.472 2.677m-2.363-1.221a4.205 4.205 0 0 0 1.373-2.754c.162-1.78 2.594-3.32 4.13-1.86m-2.995-1.864s2.431-2.349 4.454.646" stroke="#fff" stroke-width=".5" stroke-linecap="round" stroke-linejoin="round"/>
  <path d="M41.727 145.609s1.495 2.324 1.329 3.82l-.163 1.495s-5.486 1.504-6.649 1.504c-1.162 0-7.315-.583-7.315-.583l-.265-1.056a.349.349 0 0 1 .19-.396l5.486-2.559 1.73-1.892 5.657-.333Z" fill="#fff" stroke="#263238" stroke-width="1.004" stroke-miterlimit="10"/>
  <path d="M37.078 151.257c1.488.115 4.313-.793 5.95-1.372l-.114 1.039s-5.506 1.504-6.669 1.504c-1.162 0-7.315-.583-7.315-.583l-.19-.754c.984.004 6.37.016 8.338.166Z" fill="#2D317F" stroke="#263238" stroke-width="1.004" stroke-miterlimit="10"/>
  <path d="m34.35 147.834-7.986 3.475s-.682 1.71 0 2.051c.682.341 15.558 0 15.558 0s1.028-2.702-.595-4.515c-1.622-1.813-6.978-1.011-6.978-1.011Z" fill="#fff" stroke="#263238" stroke-width="1.004" stroke-miterlimit="10"/>
  <path d="M41.92 153.36s-14.876.341-15.558 0c-.33-.167-.341-.647-.266-1.103h16.086c-.053.375-.14.744-.262 1.103ZM30.57 87.454s-2.086 9.246-2.876 15.03c-.79 5.784-1.253 17.371-1.087 18.7.167 1.329 8.474 23.595 8.474 23.595l.829 1.984 5.815-1.162s-2.658-8.474-3.653-13.127c-.996-4.653-3.174-12.297-3.174-13.626 0-1.329 5.157-26.71 5.526-28.376.369-1.666 2.043-4.224 2.043-4.224l-11.135-.227-.762 1.433Z" fill="#2D317F" stroke="#263238" stroke-width="1.004" stroke-miterlimit="10"/>
  <path d="M30.572 87.454s-1.222 8.445-.718 14.316c.503 5.871 1.586 18.371 1.586 20.231 0 1.861 3.003 12.972 3.174 16.463.266 5.042-.107 7.537-.107 7.537l-.179 1.829s3.503.5 4.269.718a9.443 9.443 0 0 0 2.709.293s1.273-5.605 1.273-10.381-1.059-14.606-1.586-18.589c-.528-3.983 1.134-19.346 2.078-22.215.944-2.868 3.007-8.941 1.619-12.043-1.389-3.102-14.118 1.84-14.118 1.84Z" fill="#2D317F" stroke="#263238" stroke-width="1.004" stroke-miterlimit="10"/>
  <path d="m46.233 84.058-.127 3.776s-2.26.449-5.307.976c-2.515.437-8.83-.115-10.957-.321a.738.738 0 0 1-.67-.794l.206-3.411 16.855-.226Z" fill="#263238"/>
  <path d="M37.393 46.412s-3.57 3.86-4.915 6.26c-1.345 2.4-1.877 6.077-2.38 8.973-.504 2.896.86 9.695.476 12.817l-1.218 9.834s-.262.666.615 1.396c.876.73 5.157.996 9.024 1.19 1.413.072 5.63-.837 6.32-.88.833-.052.86-1.111.896-1.944.167-3.916.873-14.352 1.337-18.899.956-9.27-4.276-18.22-10.155-18.747Z" fill="#fff" stroke="#263238" stroke-width="1.004" stroke-miterlimit="10"/>
  <path d="M47.113 70.431c.16-2.058.318-3.927.457-5.272.04-.396.063-.793.083-1.19l-9.485 1.587-8.148-2.777c0 1.686.096 3.37.286 5.046l7.993 2.237 8.814.37ZM37.041 46.8c-.54.6-1.61 1.817-2.63 3.11l6.022 6.122 1.983-.794-5.375-8.438Z" fill="#FCB62E" style="mix-blend-mode:multiply"/>
  <path d="M37.395 46.412s-3.57 3.86-4.915 6.26a12.114 12.114 0 0 0-.964 2.293l7.18-8.295a6.738 6.738 0 0 0-1.3-.258Z" fill="#263238"/>
  <path d="m30.377 60.082 7.792 2.563 9.46-1.088a22.186 22.186 0 0 0-1.55-6.866l-7.629 3.058-6.819-3.09a35.894 35.894 0 0 0-1.254 5.423Zm13.413 20.06a24.122 24.122 0 0 1-11.797-.963l-1.9-.651-.591 4.76 2.166.607a32.658 32.658 0 0 0 12.666.976l1.75-.21c.09-.193.142-.402.15-.615.048-1.06.131-2.598.238-4.364l-2.681.46Zm1.059-6.482a24.031 24.031 0 0 1-11.798-.967l-2.42-.83c.06.865.048 1.733-.036 2.595l-.281 2.289 2.412.674a32.645 32.645 0 0 0 12.662.98l1.19-.143c.1-1.587.214-3.276.337-4.947l-2.066.35Z" fill="#FCB62E" style="mix-blend-mode:multiply"/>
  <path d="m7.633 56.885 7.67 6.167.33-.41-7.67-6.168-.33.411Z" fill="#263238"/>
  <path d="M41.088 50.692s2.813 1.916 2.876 6.442c.028 1.984-.178 3.836-.635 7.085-.456 3.25-3.288 13.829-5.494 15.114-2.206 1.285-5.629-1.142-5.629-1.142L15.648 67.198l-4.002-3.233-1.984-3.744.623-1.19 4.883 3.744-2.63-2.431.516-.655.952.663 2.777 1.039.607 3.967.857.587 15.84 5.788s-.199-8.525-.052-10.156c.147-1.63.349-5.728 2.094-8.7" fill="#fff"/>
  <path d="M33.973 65.29c0 2.944.099 6.442.099 6.442L18.248 65.97l-.857-.588-.607-3.967-2.777-1.039-.948-.674-.515.654 2.622 2.42-4.883-3.745-.592 1.17 1.984 3.745 4.002 3.253 1.008.67 21.878 7.05-4.59-9.628Z" fill="#2D317F" style="mix-blend-mode:multiply" opacity=".5"/>
  <path d="M41.088 50.692s2.813 1.916 2.876 6.442c.028 1.984-.178 3.836-.635 7.085-.456 3.25-3.288 13.829-5.494 15.114-2.206 1.285-5.629-1.142-5.629-1.142L15.648 67.198l-4.002-3.233-1.984-3.744.623-1.19 4.883 3.744-2.63-2.431.516-.655.952.663 2.777 1.039.607 3.967.857.587 15.84 5.788s-.199-8.525-.052-10.156c.147-1.63.349-5.728 2.094-8.7" stroke="#263238" stroke-width="1.004" stroke-miterlimit="10"/>
  <path d="m34.087 71.733 6.045 4.363L41.7 73.32s1.083-.852 1.242-1.495c.159-.643-.044-1.686.119-2.329.163-.642.972-1.245 1.047-2.8.076-1.555 0-2.852 0-2.852s1.31-5.384 1.167-7.724c-.143-2.34-2.4-6.478-4.21-6.57-1.808-.09-4.16.183-5.985 2.944-1.825 2.761-1.452 10.822-1.738 11.326-.285.504.111 2.99.111 2.99a1.394 1.394 0 0 0-.555 1.004c-.032.647.666 2.238.666 2.238l.524 1.682Z" fill="#fff" stroke="#263238" stroke-width="1.004" stroke-miterlimit="10"/>
  <path d="M33.5 61.748c.012.692-.04 1.384-.156 2.067-.253.452.036 2.495.1 2.912a23.547 23.547 0 0 0 10.516.793c.076-.276.12-.56.135-.845.08-1.551 0-2.852 0-2.852s.115-.48.273-1.21a38.283 38.283 0 0 1-10.869-.865Zm1.333-8.814c-.567 1.138-.885 2.848-1.067 4.581a23.632 23.632 0 0 0 11.31 1.377c.152-.918.22-1.847.202-2.777a7.73 7.73 0 0 0-.516-2.142 39.217 39.217 0 0 1-9.93-1.04Z" fill="#FCB62E" style="mix-blend-mode:multiply"/>
  <path d="m33.563 70.094.512 1.639 6.046 4.363 1.567-2.776s1.083-.853 1.241-1.496c.029-.112.046-.226.052-.341a36.968 36.968 0 0 1-9.418-1.389Z" fill="#263238"/>
  <path d="M37.938 148.496s.135-3.435.793-8.457c.659-5.022-.924-12.155-1.19-13.345-.266-1.19.135-3.832-.13-4.76-.267-.928-1.552-4.887-.794-9.481.757-4.594 1.372-16.736 1.372-16.736s-1.908-1.551-2.467-3.57c-.56-2.02-.131-2.654-.131-2.654m3.431.187-.734 4.061" stroke="#263238" stroke-width="1.004" stroke-miterlimit="10"/>
</svg>
