<svg width="262" height="267" viewBox="0 0 262 267" fill="none" xmlns="http://www.w3.org/2000/svg">
  <path d="m32.816 168.532-8.032.171-4.073.068c-1.358.03-2.728 0-4.092.036h-.275v-.275l-.031-6.844v-.306h.306l8.098.037c2.698 0 5.395.073 8.099.104h.165v.165c0 1.162-.055 2.318-.08 3.456l-.085 3.388Zm0 0-.086-3.456c0-1.144-.073-2.269-.086-3.388l.172.165c-2.704 0-5.401.098-8.099.104l-8.098.036.306-.305-.037 6.844-.27-.275c1.334 0 2.662 0 4.001.037l4.025.067 8.172.171Zm-9.035 8.63-8.03.171-4.074.068c-1.364.03-2.728 0-4.092.036h-.276v-7.425h.3l8.098.036c2.698 0 5.395.074 8.099.104h.165v.166c0 1.162-.055 2.318-.08 3.455l-.11 3.389Zm0 0-.091-3.456c0-1.144-.068-2.269-.08-3.388l.171.165c-2.703.03-5.4.098-8.098.104l-8.074.036.3-.305-.055 6.844-.27-.275c1.334 0 2.661 0 4 .037l4.026.067 8.171.171Zm18.081 0-8.031.171-4.074.068c-1.358.03-2.728 0-4.092.036h-.269v-7.425h.306l8.098.036c2.698 0 5.401.074 8.099.104h.165v.166c0 1.162-.05 2.318-.08 3.455l-.122 3.389Zm0 0-.086-3.456c0-1.144-.067-2.269-.08-3.388l.166.165c-2.698.03-5.401.098-8.098.104l-8.099.036.306-.305-.049 6.844-.27-.275c1.334 0 2.668 0 4.001.037l4.025.067 8.184.171Zm208.743 0-8.025.171-4.074.068c-1.364.03-2.734 0-4.098.036h-.269v-.275l-.037-6.844v-.306h.306l8.098.036c2.704 0 5.401.074 8.099.104h.171v.166c0 1.162-.055 2.318-.08 3.455l-.091 3.389Zm0 0-.086-3.456c0-1.144-.067-2.269-.079-3.388l.165.165c-2.698.03-5.395.098-8.099.104l-8.098.036.306-.305-.031 6.844-.275-.275c1.333 0 2.667 0 4.006.037l4.025.067 8.166.171Zm0-153.668-8.025.14-4.074.074h-4.367v-.27l-.037-6.844v-.312h.306l8.098.037c2.704 0 5.401.067 8.099.098h.171v.165c0 1.156-.055 2.312-.08 3.456l-.091 3.456Zm0 0-.086-3.462c0-1.138-.067-2.263-.079-3.383l.165.165c-2.698 0-5.395.098-8.099.098l-8.098.037.306-.3-.031 6.845-.275-.276c1.333 0 2.667 0 4.006.031l4.025.074 8.166.17Zm9.01 8.63-8.026.166-4.073.073h-4.367v-.269l-.037-6.845v-.311h.306l8.098.036c2.704 0 5.401.067 8.099.098h.171v.165c0 1.156-.055 2.312-.08 3.456l-.091 3.431Zm0 0-.086-3.462c0-1.137-.067-2.263-.08-3.382l.166.19c-2.698.03-5.395.098-8.099.098l-8.098.036.305-.3-.012 6.82-.275-.275h4.006l4.025.074 8.148.201ZM23.781 23.5l-8.03.17-4.074.068H7.309v-7.425h.3l8.098.036c2.698 0 5.395.067 8.099.098h.165v.165c0 1.162-.055 2.312-.08 3.456l-.11 3.431Zm0 0-.091-3.462c0-1.138-.068-2.264-.08-3.383l.171.165c-2.703 0-5.4.098-8.098.098l-8.074.043.3-.306-.055 6.845-.245-.276c1.333 0 2.66 0 4 .037l4.025.067 8.147.172Zm87.682 45.906 8.025-.171 4.074-.068c1.364-.03 2.734 0 4.098-.03h.269v.275l.037 6.844v.306h-.306l-8.117-.043c-2.703 0-5.401-.067-8.098-.097h-.171v-.184c0-1.162.055-2.312.079-3.456l.11-3.376Zm0 0 .086 3.462c0 1.138.067 2.263.079 3.382l-.165-.165c2.698-.03 5.395-.098 8.099-.098l8.098-.042-.306.305v-6.844l.276.275c-1.334 0-2.667 0-4.007-.037l-4.025-.067-8.135-.171Zm9.035-8.631 8.025-.171 4.073-.068c1.364-.03 2.735 0 4.099-.03h.269v.275l.036 6.845v.305h-.33l-8.098-.036c-2.698 0-5.401-.067-8.099-.098h-.171v-.165c0-1.162.049-2.312.08-3.456l.116-3.401Zm0 0 .085 3.462c.031 1.138.068 2.263.08 3.383l-.165-.166c2.697 0 5.401-.097 8.098-.097l8.099-.043-.306.306.03-6.845.276.275c-1.334 0-2.667 0-4.007-.036l-4.025-.068-8.165-.171Zm119.696 65.258c-25.439 0-25.482 36.18 0 36.18s25.482-36.18 0-36.18Z" fill="#EBEBEB"/>
  <path d="M255.669 147.514c-1.358 6.227-6.52 11.622-15.475 11.622-21.145 0-21.115-30.027 0-30.027h.416c-19.873.367-19.775 28.804.385 28.804 8.221.006 13.114-4.753 14.674-10.399Z" fill="#DBDBDB"/>
  <path d="M240.347 133.068a.647.647 0 0 1 .66.612v1.009a9.456 9.456 0 0 1 4.894 1.761c.244.178.385.331.385.581a.683.683 0 0 1-.715.612.7.7 0 0 1-.496-.177 8.208 8.208 0 0 0-4.129-1.64v7.084c4.184.807 5.946 2.244 5.946 4.709 0 2.673-2.447 4.557-5.891 4.661v1.964a.66.66 0 1 1-1.321 0v-1.988a10.836 10.836 0 0 1-6.19-2.447.616.616 0 0 1-.306-.526.692.692 0 0 1 .692-.612.72.72 0 0 1 .495.178 9.21 9.21 0 0 0 5.364 2.287v-7.211c-4.128-.832-5.835-2.214-5.835-4.734s2.447-4.484 5.78-4.557v-.961a.643.643 0 0 1 .667-.605Zm-.612 9.572v-6.875c-2.667.049-4.428 1.511-4.428 3.322.006 1.712.887 2.77 4.434 3.553h-.006Zm1.224 1.536v6.954c2.752-.055 4.544-1.511 4.544-3.425-.006-1.737-.972-2.795-4.551-3.529h.007Zm-133.08-112.59c18.521 3.321 13.634 30.755-4.893 27.427-18.528-3.327-13.653-30.754 4.893-27.427Z" fill="#DBDBDB"/>
  <path d="M106.142 31.28c17.653 3.163 12.759 30.584-4.924 27.428-17.683-3.157-12.753-30.602 4.924-27.427Z" fill="#EBEBEB"/>
  <path d="M92.49 45.655c.091 4.894 2.936 9.628 9.174 10.741 14.68 2.636 18.736-20.136 4.086-22.766l-.287-.049c13.738 2.752 9.787 24.301-4.19 21.794-5.731-1.046-8.484-5.26-8.783-9.72Z" fill="#DBDBDB"/>
  <path d="M104.717 35.61a.463.463 0 0 1 .373.545l-.141.759a6.341 6.341 0 0 1 3.144 1.97.55.55 0 0 1 .19.489.486.486 0 0 1-.223.325.492.492 0 0 1-.389.06.48.48 0 0 1-.318-.202 5.502 5.502 0 0 0-2.63-1.767l-.997 5.34c2.789 1.15 3.804 2.446 3.456 4.33-.373 2.024-2.337 3.138-4.735 2.77l-.281 1.487a.459.459 0 0 1-.358.4.468.468 0 0 1-.497-.204.47.47 0 0 1-.056-.367l.281-1.505a7.34 7.34 0 0 1-3.951-2.648.52.52 0 0 1-.135-.44.514.514 0 0 1 .569-.392.52.52 0 0 1 .318.202 6.287 6.287 0 0 0 3.395 2.446l1.009-5.438c-2.74-1.162-3.731-2.446-3.37-4.336.36-1.89 2.306-3.058 4.642-2.71l.141-.722a.465.465 0 0 1 .563-.391Zm-1.768 7.17.973-5.206c-1.835-.305-3.285.57-3.542 1.946-.257 1.376.202 2.208 2.569 3.26Zm.612 1.32-.979 5.261c1.915.318 3.358-.556 3.627-2.006.257-1.315-.263-2.239-2.636-3.254h-.012Z" fill="#DBDBDB"/>
  <path d="M140.503 136.766 13.901 125.623l-5.368 60.98 126.602 11.143 5.368-60.98Z" fill="#EBEBEB"/>
  <path d="m140.487 136.792-3.829-.336-118.926-10.49-3.84-.343-.337 3.829-4.692 53.307-.336 3.841 3.829.336 118.938 10.472 3.823.336 5.376-60.983-.006.031Zm-8.857 56.811L12.698 183.101l4.698-53.306 118.92 10.477-4.686 53.331Z" fill="#DBDBDB"/>
  <path d="M92.172 163.98c1.005-11.421-6.118-21.378-15.91-22.24-9.793-.862-18.547 7.698-19.552 19.119-1.005 11.421 6.118 21.379 15.91 22.241 9.793.862 18.546-7.698 19.552-19.12Zm-47.123-5.485a4.774 4.774 0 0 1-3.331 4.12 4.774 4.774 0 0 1-6.164-4.046 4.768 4.768 0 0 1 5.164-5.261 4.761 4.761 0 0 1 3.242 1.694 4.777 4.777 0 0 1 1.089 3.493Zm68.525 6.036a4.773 4.773 0 0 1-6.088 4.165 4.773 4.773 0 0 1-2.897-6.783 4.775 4.775 0 0 1 4.648-2.55 4.77 4.77 0 0 1 4.337 5.168Zm-92.392 19.316-8.484-.746.746-8.478a8.512 8.512 0 0 1 7.738 9.224Zm111.206 1.267-.746 8.484-8.471-.747a8.51 8.51 0 0 1 3.004-5.78 8.516 8.516 0 0 1 6.213-1.957Zm-4.55-45.593 8.484.746-.747 8.477a8.508 8.508 0 0 1-7.737-9.223Zm-111.194-1.248.752-8.484 8.478.746a8.515 8.515 0 0 1-3.01 5.783 8.498 8.498 0 0 1-6.22 1.955Z" fill="#DBDBDB"/>
  <path d="M76.024 146.835a.866.866 0 0 1 .777.93l-.123 1.425a11.674 11.674 0 0 1 6.117 3.058.995.995 0 0 1 .428.863.915.915 0 0 1-.99.807.896.896 0 0 1-.612-.306 10.158 10.158 0 0 0-5.145-2.789l-.874 9.982c5.315 1.621 7.42 3.854 7.113 7.34-.336 3.78-3.743 6.172-8.214 5.921l-.245 2.783a.863.863 0 1 1-1.713-.147l.251-2.819a13.41 13.41 0 0 1-7.719-4.166.914.914 0 0 1-.324-.783.93.93 0 0 1 .966-.813.916.916 0 0 1 .612.306 11.555 11.555 0 0 0 6.667 3.859l.893-10.166c-5.242-1.645-7.285-3.804-6.967-7.34.318-3.535 3.67-6.073 8.056-5.798l.116-1.352a.874.874 0 0 1 .93-.795Zm-1.982 13.457.856-9.738c-3.462-.233-5.927 1.639-6.153 4.202-.214 2.453.795 4.055 5.297 5.56v-.024Zm1.376 2.312-.862 9.841c3.572.245 6.068-1.621 6.306-4.33.22-2.435-.9-4.043-5.444-5.487v-.024Zm153.704-94.369L102.043 66.44l-.865 61.209 127.078 1.796.866-61.209Z" fill="#EBEBEB"/>
  <path d="m229.105 68.25-3.847-.055L105.885 66.5l-3.853-.055-.055 3.848-.753 53.508-.055 3.853 3.848.056 119.378 1.694 3.841.055.875-61.21h-.006Zm-4.655 57.306-119.378-1.7.758-53.508 119.379 1.7-.759 53.508Z" fill="#DBDBDB"/>
  <path d="M182.919 98.94c.162-11.463-7.675-20.87-17.505-21.009-9.829-.139-17.929 9.042-18.091 20.507-.162 11.464 7.675 20.87 17.504 21.009 9.83.139 17.929-9.042 18.092-20.506Zm-47.393-2.004a4.764 4.764 0 0 1-3.009 4.366 4.77 4.77 0 1 1-1.688-9.204 4.761 4.761 0 0 1 4.362 3.008c.231.582.345 1.204.335 1.83Zm68.782.979a4.772 4.772 0 1 1-9.543-.137 4.772 4.772 0 0 1 9.543.137Zm-90.722 26.062-8.515-.122.123-8.508a8.512 8.512 0 0 1 8.392 8.63Zm110.98-6.941-.116 8.52-8.508-.122a8.514 8.514 0 0 1 8.624-8.398Zm-7.878-45.116 8.52.122-.122 8.508a8.52 8.52 0 0 1-5.987-2.575 8.516 8.516 0 0 1-2.411-6.055Zm-110.98 6.942.122-8.52 8.508.122a8.51 8.51 0 0 1-5.363 7.795 8.514 8.514 0 0 1-3.267.603Z" fill="#DBDBDB"/>
  <path d="M165.553 83.026a.875.875 0 0 1 .85.875v1.431a11.677 11.677 0 0 1 6.331 2.594 1.003 1.003 0 0 1 .489.832.916.916 0 0 1-.942.88.884.884 0 0 1-.642-.256 10.125 10.125 0 0 0-5.334-2.404l-.14 10.019c5.419 1.223 7.682 3.297 7.633 6.802-.055 3.798-3.278 6.434-7.756 6.514l-.036 2.795a.866.866 0 0 1-.86.79.858.858 0 0 1-.583-.228.857.857 0 0 1-.276-.562l.043-2.832a13.46 13.46 0 0 1-8.007-3.584.912.912 0 0 1-.335-.619.897.897 0 0 1 .21-.672.91.91 0 0 1 .627-.319.904.904 0 0 1 .666.227 11.508 11.508 0 0 0 6.912 3.346l.147-10.202c-5.352-1.254-7.542-3.254-7.493-6.833.049-3.578 3.242-6.324 7.609-6.373v-1.358a.89.89 0 0 1 .071-.334.89.89 0 0 1 .48-.467.876.876 0 0 1 .336-.061Zm-.979 13.592.141-9.787c-3.474 0-5.792 2.067-5.829 4.649-.037 2.446 1.089 3.963 5.688 5.138Zm1.548 2.208-.141 9.878c3.578 0 5.933-2.067 5.97-4.783.037-2.471-1.193-3.994-5.829-5.095Zm-32.51 167.487c70.555 0 127.752-8.671 127.752-19.366s-57.197-19.365-127.752-19.365c-70.556 0-127.752 8.67-127.752 19.365 0 10.695 57.196 19.366 127.752 19.366Z" fill="#EBEBEB"/>
  <path d="m5.224 214.602 32.094-.153 32.1-.049 64.194-.104 64.194.104 32.1.049 32.094.153-32.094.147-32.1.055-64.194.104-64.194-.104-32.1-.055-32.094-.147Z" fill="#263238"/>
  <path d="M219.002 62.83 88.601 78.057l7.334 62.807 130.401-15.227-7.334-62.807Z" fill="#F9C23A"/>
  <path opacity=".1" d="M219.002 62.83 88.601 78.057l7.334 62.807 130.401-15.227-7.334-62.807Z" fill="#000"/>
  <path opacity=".1" d="m219.006 62.781-3.945.465L92.563 77.59l-3.957.458L89.07 82l6.417 54.903.465 3.957 3.945-.465L222.4 126.076l3.945-.459-7.328-62.836h-.012Zm2.936 59.332L99.438 136.438l-6.41-54.903L215.52 67.228l6.422 54.885Z" fill="#000"/>
  <path opacity=".1" d="M160.05 123.915c10.086-1.177 17.149-11.669 15.776-23.432-1.374-11.764-10.664-20.346-20.75-19.168-10.086 1.178-17.149 11.669-15.775 23.432 1.373 11.764 10.663 20.346 20.749 19.168Zm-33.038-19.142a4.926 4.926 0 0 1-5.283 5.48 4.927 4.927 0 0 1-4.292-3.393 4.92 4.92 0 0 1 4.113-6.406 4.924 4.924 0 0 1 5.462 4.319Zm70.58-8.246a4.922 4.922 0 0 1-5.287 5.473 4.924 4.924 0 1 1 5.287-5.473Zm-89.413 38.896-8.74 1.015-1.022-8.729a8.808 8.808 0 0 1 6.479 1.835 8.8 8.8 0 0 1 3.283 5.879Zm112.736-22.033 1.021 8.722-8.728 1.021a8.796 8.796 0 0 1 7.707-9.743Zm-14.13-45.146 8.734-1.021 1.022 8.728a8.791 8.791 0 0 1-9.756-7.707ZM94.043 90.27l-1.021-8.741 8.728-1.01a8.797 8.797 0 0 1-7.707 9.75Z" fill="#000"/>
  <path d="M155.901 86.496a.895.895 0 0 1 .985.776l.171 1.468a12.035 12.035 0 0 1 6.838 1.805 1.03 1.03 0 0 1 .612.789.943.943 0 0 1-.844 1.028.907.907 0 0 1-.691-.178 10.499 10.499 0 0 0-5.793-1.743l1.224 10.282c5.719.52 8.312 2.343 8.734 5.939.453 3.897-2.489 7.034-7.065 7.713l.331 2.869a.888.888 0 0 1-1.426.778.887.887 0 0 1-.336-.576l-.336-2.899c-3.103.13-6.16-.786-8.68-2.6a.945.945 0 0 1-.495-.722.964.964 0 0 1 .813-1.027.943.943 0 0 1 .691.183 11.913 11.913 0 0 0 7.548 2.502l-1.223-10.466c-5.652-.569-8.16-2.324-8.594-5.994-.434-3.67 2.447-6.918 6.936-7.548l-.159-1.4a.894.894 0 0 1 .759-.98Zm.82 14.068-1.169-10.031c-3.554.495-5.658 2.899-5.346 5.541.294 2.478 1.646 3.884 6.515 4.472v.018Zm1.883 2.049 1.181 10.135c3.67-.501 5.805-2.911 5.474-5.7-.293-2.551-1.761-3.946-6.655-4.453v.018Zm102.68 64.115h-48.456v24.588h48.456v-24.588Z" fill="#F9C23A"/>
  <path d="M255.731 180.277a5.499 5.499 0 1 0-10.705-2.517 5.499 5.499 0 0 0 10.705 2.517Z" fill="#EBEBEB"/>
  <path d="M250.384 182.031a3.01 3.01 0 1 0 0-6.02 3.01 3.01 0 0 0 0 6.02Z" fill="#DBDBDB"/>
  <path d="M231.992 123.293H85.327v109.506h146.665V123.293Z" fill="#F9C23A"/>
  <path opacity=".1" d="M231.992 123.293H85.327v109.506h146.665V123.293Z" fill="#000"/>
  <path d="m205.623 68.01 14.631 66.122a6.856 6.856 0 0 1-5.205 8.165l-104.876 23.244a6.858 6.858 0 0 1-5.165-.915 6.837 6.837 0 0 1-3.001-4.303L87.37 94.178a6.38 6.38 0 0 1 4.85-7.603L198.038 63.16a6.387 6.387 0 0 1 7.585 4.85Z" fill="#455A64"/>
  <path d="m118.134 92.746-17.181 3.802a2.569 2.569 0 0 0-1.954 3.064l2.286 10.326a2.569 2.569 0 0 0 3.063 1.953l17.182-3.803a2.57 2.57 0 0 0 1.953-3.064l-2.285-10.325a2.57 2.57 0 0 0-3.064-1.953Z" fill="#F9C23A"/>
  <path d="m194.943 84.581-10.037 2.22a4.282 4.282 0 0 1-5.138-3.278 4.295 4.295 0 0 1-.045-1.683 4.296 4.296 0 0 1 1.774-2.784 4.277 4.277 0 0 1 1.543-.671l10.044-2.22a4.28 4.28 0 0 1 5.138 3.278 4.31 4.31 0 0 1-3.279 5.138Z" fill="#fff"/>
  <path d="m104.117 126.614-.789.734a.212.212 0 0 1-.223.056.241.241 0 0 1-.101-.062.229.229 0 0 1-.053-.073.225.225 0 0 1 .053-.251l1.077-1.028a.24.24 0 0 1 .318 0c.039.044.063.1.067.159l1.309 5.915a.225.225 0 0 1-.343.238.24.24 0 0 1-.104-.14l-1.211-5.548Zm3.193 4.943 2.404-3.376a1.71 1.71 0 0 0 .282-1.358 1.703 1.703 0 0 0-2.019-1.279 1.725 1.725 0 0 0-1.034.673l-.244.355a.228.228 0 0 1-.147.096.23.23 0 0 1-.233-.353l.251-.367a2.208 2.208 0 0 1 1.303-.856 2.166 2.166 0 0 1 2.563 1.633 2.16 2.16 0 0 1-.343 1.719l-2.061 2.893 3.058-.673a.231.231 0 0 1 .27.184.228.228 0 0 1-.172.269l-3.572.783h-.037a.203.203 0 0 1-.095.005.2.2 0 0 1-.088-.036.245.245 0 0 1-.086-.312Zm8.099-7.701-1.285 2.079a2.2 2.2 0 0 1 2.208 1.75 2.2 2.2 0 0 1-.299 1.688 2.258 2.258 0 0 1-1.407.985 2.174 2.174 0 0 1-1.676-.306.232.232 0 0 1-.105-.144.227.227 0 0 1 .031-.174.241.241 0 0 1 .063-.068.235.235 0 0 1 .262-.006 1.783 1.783 0 0 0 2.701-1.184c.041-.23.036-.466-.016-.694a1.769 1.769 0 0 0-2.104-1.333.24.24 0 0 1-.202-.055.237.237 0 0 1-.108-.149.23.23 0 0 1 .034-.181l1.224-2-2.447.544a.237.237 0 0 1-.245-.093.233.233 0 0 1-.036-.084.239.239 0 0 1-.004-.092.27.27 0 0 1 .033-.087.236.236 0 0 1 .148-.103l3.01-.667a.238.238 0 0 1 .281.184.204.204 0 0 1 0 .104.395.395 0 0 1-.061.086Zm6.447 3.512-3.487.771a.2.2 0 0 1-.076.016.2.2 0 0 1-.077-.016.22.22 0 0 1-.114-.133.206.206 0 0 1-.007-.089.21.21 0 0 1 .029-.084l2.698-5.462a.21.21 0 0 1 .054-.071.208.208 0 0 1 .078-.044c.028-.01.058-.013.088-.01.03.003.059.012.086.027a.306.306 0 0 1 .098.098v.061l.978 4.416.428-.098a.254.254 0 0 1 .091-.004.27.27 0 0 1 .086.031.236.236 0 0 1 .105.144.232.232 0 0 1-.035.174.227.227 0 0 1-.149.096l-.428.097.245 1.108a.236.236 0 0 1-.041.163.235.235 0 0 1-.141.093.23.23 0 0 1-.166-.027.23.23 0 0 1-.105-.132l-.238-1.125Zm-.098-.44-.832-3.768-2.214 4.459 3.046-.691Zm8.319-.657a.206.206 0 0 1-.067-.061.214.214 0 0 1-.037-.174.228.228 0 0 1 .036-.083.235.235 0 0 1 .331-.073c.394.245.868.326 1.321.226a1.776 1.776 0 0 0 1.339-2.104 1.724 1.724 0 0 0-1.404-1.36 1.71 1.71 0 0 0-.687.021 1.742 1.742 0 0 0-1.114.776.206.206 0 0 1-.061.067.22.22 0 0 1-.173.04.234.234 0 0 1-.084-.033.189.189 0 0 1-.073-.061.23.23 0 0 1 0-.074.135.135 0 0 0 0-.049l-.263-2.66a.208.208 0 0 1 .006-.099.202.202 0 0 1 .049-.085.207.207 0 0 1 .134-.092l3.004-.66a.232.232 0 0 1 .279.272.224.224 0 0 1-.034.085.217.217 0 0 1-.063.065.223.223 0 0 1-.084.036l-2.802.612.19 1.97a2.229 2.229 0 0 1 2.948-.071 2.231 2.231 0 0 1 .447 2.915c-.327.494-.83.845-1.407.979a2.25 2.25 0 0 1-1.731-.325Zm5.162-5.754a2.677 2.677 0 0 1 1.939-1.897.235.235 0 0 1 .281.165.251.251 0 0 1-.171.288 2.23 2.23 0 0 0-1.615 1.584c-.135.45-.195.919-.177 1.389a2.166 2.166 0 1 1-.208 1.59 2.941 2.941 0 0 1-.11-.422 5.37 5.37 0 0 1 .061-2.697Zm.489 2.978c.01.041.027.08.049.117a.127.127 0 0 1 0 .067 1.738 1.738 0 1 0-.061-.22l.012.036Zm6.545.415 1.126-6.171-3.102.703a.228.228 0 0 1-.252-.175.227.227 0 0 1 .155-.265l3.406-.753a.264.264 0 0 1 .288.111c0 .03.031.042.037.073a.232.232 0 0 1 0 .128l-1.181 6.472a.247.247 0 0 1-.059.116.24.24 0 0 1-.112.067.181.181 0 0 1-.098 0 .263.263 0 0 1-.097-.035.254.254 0 0 1-.111-.271Zm5.01-7.535a1.374 1.374 0 0 1 1.48.64 1.373 1.373 0 0 1-.153 1.605 2.138 2.138 0 0 1 1.764 2.055 2.135 2.135 0 1 1-3.361-1.7 1.392 1.392 0 0 1-.497-.394 1.392 1.392 0 0 1-.093-1.606 1.36 1.36 0 0 1 .86-.6Zm1.327 6.001a1.686 1.686 0 0 0 1.182-2.327 1.686 1.686 0 0 0-2.513-.705 1.682 1.682 0 0 0-.681 1.747 1.678 1.678 0 0 0 .737 1.064 1.68 1.68 0 0 0 1.275.221Zm-.832-3.756a.926.926 0 0 0 .697-1.107.915.915 0 0 0-1.67-.294.915.915 0 0 0-.122.692.931.931 0 0 0 1.095.709Zm10.949-4.778a2.173 2.173 0 0 1 2.532 1.413v.037c.049.177.098.355.141.551.21.891.193 1.82-.049 2.703a2.713 2.713 0 0 1-1.945 1.896c-.029.01-.059.013-.089.01a.226.226 0 0 1-.084-.028.2.2 0 0 1-.066-.06.214.214 0 0 1-.037-.081.233.233 0 0 1 .023-.178.234.234 0 0 1 .143-.109 2.246 2.246 0 0 0 1.62-1.584c.135-.45.193-.92.172-1.389a2.181 2.181 0 0 1-2.813.924 2.179 2.179 0 0 1 .433-4.105h.019Zm2.153 1.744a1.717 1.717 0 0 0-2.366-1.206 1.713 1.713 0 0 0-1.031 1.606 1.714 1.714 0 0 0 1.088 1.568 1.723 1.723 0 0 0 2.077-.671 1.723 1.723 0 0 0 .232-1.297Zm2.324.642a4.208 4.208 0 0 1 .117-2.386 1.871 1.871 0 0 1 3.223-.715 4.331 4.331 0 0 1 1.126 2.116c.184.792.137 1.62-.135 2.386a1.83 1.83 0 0 1-1.388 1.357 1.836 1.836 0 0 1-1.829-.648 4.12 4.12 0 0 1-1.114-2.11Zm.453-.098c.142.707.484 1.359.985 1.878a1.403 1.403 0 0 0 2.065.12c.187-.182.319-.412.381-.665a3.968 3.968 0 0 0-.886-3.994 1.403 1.403 0 0 0-2.447.545 3.721 3.721 0 0 0-.098 2.116Zm6.416-4.111-.789.734a.212.212 0 0 1-.223.056.241.241 0 0 1-.101-.062.223.223 0 0 1-.051-.25.223.223 0 0 1 .051-.074l1.076-1.028a.232.232 0 0 1 .16-.065c.059 0 .116.024.159.065.039.044.063.1.067.159l1.309 5.915a.225.225 0 0 1-.171.269.234.234 0 0 1-.27-.171l-1.217-5.548Zm3.217 4.943 2.404-3.382a1.675 1.675 0 0 0 .281-1.352 1.663 1.663 0 0 0-.679-1.009 1.648 1.648 0 0 0-1.339-.269c-.414.086-.78.324-1.028.666l-.25.355a.21.21 0 0 1-.145.103.212.212 0 0 1-.173-.042.207.207 0 0 1-.097-.144.218.218 0 0 1 .041-.168l.245-.367a2.213 2.213 0 0 1 1.303-.856 2.166 2.166 0 0 1 2.563 1.633 2.164 2.164 0 0 1-.343 1.719l-2.061 2.893 3.058-.673a.232.232 0 0 1 .269.184.227.227 0 0 1-.171.269l-3.584.795h-.037a.21.21 0 0 1-.183 0 .245.245 0 0 1-.074-.355Zm13.592-8.917-1.285 2.079a2.24 2.24 0 0 1 1.223.343 2.24 2.24 0 0 1 .996 2.282 2.242 2.242 0 0 1-2.593 1.815 2.167 2.167 0 0 1-.806-.323.23.23 0 0 1-.105-.144.227.227 0 0 1 .031-.174.228.228 0 0 1 .239-.107c.03.005.059.016.085.033a1.772 1.772 0 0 0 1.665.134 1.766 1.766 0 0 0-.235-3.324 1.767 1.767 0 0 0-.861-.021.242.242 0 0 1-.202-.055.248.248 0 0 1-.103-.15.246.246 0 0 1 .03-.18l1.223-2.007-2.446.551a.24.24 0 0 1-.252-.362.24.24 0 0 1 .148-.103l3.009-.661a.238.238 0 0 1 .178.03.236.236 0 0 1 .067.063c.017.026.03.054.036.085.01.034.01.07 0 .104a.363.363 0 0 1-.042.092Zm6.447 3.511-3.487.77h-.031a.204.204 0 0 1-.146 0 .224.224 0 0 1-.072-.054.225.225 0 0 1-.043-.077c-.01-.029-.013-.059-.01-.089a.222.222 0 0 1 .027-.086l2.703-5.462a.215.215 0 0 1 .134-.111.217.217 0 0 1 .172.02c.04.022.073.053.098.091a.228.228 0 0 0 0 .037l.979 4.416.428-.098a.222.222 0 0 1 .089-.001.22.22 0 0 1 .147.094c.018.025.03.052.036.082a.23.23 0 0 1-.174.272l-.428.092.238 1.107a.222.222 0 0 1-.032.171.24.24 0 0 1-.063.064.246.246 0 0 1-.171.037.215.215 0 0 1-.18-.174l-.214-1.101Zm-.098-.447-.838-3.768-2.208 4.447 3.046-.679Zm2.801.569a.251.251 0 0 1-.066-.064.238.238 0 0 1-.001-.261.248.248 0 0 1 .15-.103.246.246 0 0 1 .18.03 1.754 1.754 0 0 0 2.423-.544c.251-.394.336-.871.238-1.328a1.726 1.726 0 0 0-.763-1.112 1.727 1.727 0 0 0-1.329-.227 1.744 1.744 0 0 0-1.107.777.236.236 0 0 1-.239.107.241.241 0 0 1-.085-.034.23.23 0 0 1-.074-.061.23.23 0 0 1 0-.074.13.13 0 0 0 0-.048l-.263-2.661a.236.236 0 0 1 .055-.19.224.224 0 0 1 .135-.085l3.003-.661a.237.237 0 0 1 .242.096.238.238 0 0 1 .038.176.241.241 0 0 1-.098.151.252.252 0 0 1-.084.036l-2.801.611.189 1.964a2.23 2.23 0 0 1 1.034-.532 2.152 2.152 0 0 1 1.676.293 2.15 2.15 0 0 1 .972 1.407 2.217 2.217 0 0 1-.287 1.682 2.31 2.31 0 0 1-1.407.979 2.252 2.252 0 0 1-1.731-.324Zm5.163-5.756a2.674 2.674 0 0 1 1.945-1.896.225.225 0 0 1 .275.159.251.251 0 0 1-.171.293 2.22 2.22 0 0 0-1.615 1.579 4.353 4.353 0 0 0-.177 1.394 2.141 2.141 0 0 1 1.431-1.082 2.173 2.173 0 0 1 2.242.863 2.178 2.178 0 1 1-3.881 1.81 2.92 2.92 0 0 1-.11-.423 5.45 5.45 0 0 1 .061-2.697Zm.495 2.979c.007.041.022.08.043.116a.127.127 0 0 1 0 .067 1.735 1.735 0 0 0 2.159 1.084 1.737 1.737 0 1 0-2.22-1.304l.018.037Z" fill="#F8F8F8"/>
  <path d="m164.814 130.834-56.156 12.429.611 2.759 56.156-12.429-.611-2.759Zm-15.044 9.754-39.756 8.8.61 2.759 39.757-8.799-.611-2.76Zm25.203-60.426L146.97 86.36l.611 2.76 28.003-6.198-.611-2.76Z" fill="#A6A6A6"/>
  <path d="M222.676 136.774H94.643v37.477h128.033v-37.477Z" fill="#F9C23A"/>
  <path opacity=".3" d="M222.676 136.774H94.643v37.477h128.033v-37.477Z" fill="#000"/>
  <path d="m219.128 135.838.178 67.723a6.864 6.864 0 0 1-6.832 6.875l-107.415.276a6.858 6.858 0 0 1-4.849-1.996 6.85 6.85 0 0 1-2.013-4.843l-.178-67.693a6.368 6.368 0 0 1 1.856-4.514 6.384 6.384 0 0 1 4.505-1.877l108.35-.337a6.39 6.39 0 0 1 4.526 1.864 6.385 6.385 0 0 1 1.872 4.522Z" fill="#DBDBDB"/>
  <path d="M201.825 194.062a6.31 6.31 0 0 1-3.876 5.838 6.311 6.311 0 0 1-6.877-1.347 6.312 6.312 0 0 1-1.387-6.869 6.312 6.312 0 0 1 5.815-3.91 6.329 6.329 0 0 1 2.415.473 6.32 6.32 0 0 1 3.423 3.403c.319.765.484 1.584.487 2.412Z" fill="#A6A6A6"/>
  <path d="M209.587 194.039a6.3 6.3 0 0 1-3.876 5.837 6.303 6.303 0 0 1-8.612-4.57 6.306 6.306 0 1 1 12.488-1.267Zm-81.211-52.716-17.597.046a2.569 2.569 0 0 0-2.562 2.576l.027 10.576a2.57 2.57 0 0 0 2.576 2.562l17.598-.046a2.57 2.57 0 0 0 2.562-2.576l-.028-10.576a2.57 2.57 0 0 0-2.576-2.562Z" fill="#F9C23A"/>
  <path d="m205.177 149.742-10.289.03a4.273 4.273 0 0 1-3.051-1.241 4.294 4.294 0 0 1-.938-1.393 4.292 4.292 0 0 1-.329-1.647 4.278 4.278 0 0 1 4.282-4.319l10.288-.03a4.282 4.282 0 0 1 4.318 4.281 4.278 4.278 0 0 1-4.281 4.319Z" fill="#fff"/>
  <path d="m107.451 171.413-.93.551a.239.239 0 0 1-.11.036.223.223 0 0 1-.202-.11.208.208 0 0 1-.031-.084.228.228 0 0 1 .047-.171.228.228 0 0 1 .07-.057l1.272-.776a.228.228 0 0 1 .17-.018.235.235 0 0 1 .166.274v6.056a.218.218 0 0 1-.066.16.223.223 0 0 1-.16.066.23.23 0 0 1-.226-.226v-5.701Zm2.086 5.516 3.058-2.789a1.698 1.698 0 1 0-2.287-2.508l-.319.294a.212.212 0 0 1-.073.052.21.21 0 0 1-.089.019.226.226 0 0 1-.162-.071.218.218 0 0 1-.07-.159.215.215 0 0 1 .07-.159l.318-.3c.4-.36.918-.56 1.456-.563a2.108 2.108 0 0 1 1.584.704c.369.389.573.907.569 1.443a2.16 2.16 0 0 1-.697 1.603l-2.636 2.385h3.168a.236.236 0 0 1 .211.149.23.23 0 0 1-.211.316h-3.707a.208.208 0 0 1-.171-.067.257.257 0 0 1-.057-.078.238.238 0 0 1-.006-.189.226.226 0 0 1 .051-.082Zm9.536-5.798-1.701 1.749a2.209 2.209 0 0 1 1.786 2.184c.002.294-.055.586-.168.858a2.246 2.246 0 0 1-2.071 1.387 2.201 2.201 0 0 1-1.571-.655.214.214 0 0 1-.075-.165.217.217 0 0 1 .075-.165.227.227 0 0 1 .165-.069.228.228 0 0 1 .165.069c.327.321.765.503 1.223.508a1.834 1.834 0 0 0 1.223-.514 1.75 1.75 0 0 0 .514-1.254 1.767 1.767 0 0 0-1.767-1.755.28.28 0 0 1-.106-.029.28.28 0 0 1-.084-.069.226.226 0 0 1-.053-.077.223.223 0 0 1-.019-.092c0-.031.006-.062.019-.091a.226.226 0 0 1 .053-.077l1.633-1.694h-2.526a.24.24 0 0 1-.201-.236.24.24 0 0 1 .201-.235h3.058a.232.232 0 0 1 .233.232c.01.034.01.071 0 .104a.275.275 0 0 1-.006.086Zm5.547 4.808h-3.572a.194.194 0 0 1-.14-.049.213.213 0 0 1-.031-.318l3.805-4.759a.217.217 0 0 1 .152-.083.217.217 0 0 1 .166.053.274.274 0 0 1 .079.116v4.587h.447a.226.226 0 0 1 .226.227c0 .06-.024.117-.066.16a.229.229 0 0 1-.16.066h-.447v1.131a.233.233 0 0 1-.38.14.233.233 0 0 1-.079-.14v-1.131Zm0-.453v-3.859l-3.107 3.865 3.107-.006Zm14.534-3.381a2.687 2.687 0 0 1 2.305-1.438c.06-.002.118.02.163.059.044.04.071.096.076.155a.25.25 0 0 1-.065.169.245.245 0 0 1-.161.082 2.221 2.221 0 0 0-1.921 1.223 4.256 4.256 0 0 0-.465 1.321 2.165 2.165 0 1 1-.544 1.505 3.396 3.396 0 0 1 0-.428 5.465 5.465 0 0 1 .612-2.648Zm-.153 3.015a.622.622 0 0 0 0 .122.258.258 0 0 1 0 .068 1.734 1.734 0 0 0 1.79 1.623 1.737 1.737 0 1 0-1.79-1.85v.037Zm6.306 1.804 2.447-5.793h-3.181a.23.23 0 0 1-.226-.226.227.227 0 0 1 .22-.226h3.486a.213.213 0 0 1 .141 0 .258.258 0 0 1 .128.14.357.357 0 0 1 0 .08.213.213 0 0 1-.036.122l-2.539 6.074a.227.227 0 0 1-.083.101.24.24 0 0 1-.125.04.176.176 0 0 1-.091 0 .252.252 0 0 1-.141-.312Zm6.496-6.294a1.375 1.375 0 0 1 1.382 1.364 1.396 1.396 0 0 1-.563 1.113 2.132 2.132 0 0 1-.813 4.108 2.133 2.133 0 0 1-.814-4.108 1.403 1.403 0 0 1-.55-1.113 1.355 1.355 0 0 1 1.358-1.364Zm0 6.117a1.694 1.694 0 0 0 1.56-1.044 1.682 1.682 0 0 0-.369-1.841 1.687 1.687 0 0 0-2.598.263 1.686 1.686 0 0 0-.282.939 1.682 1.682 0 0 0 1.049 1.586c.209.084.433.125.658.121l-.018-.024Zm0-3.842a.94.94 0 0 0 .923-.936.913.913 0 0 0-.577-.833.917.917 0 1 0-.346 1.769Zm11.725-2.305a2.173 2.173 0 0 1 2.172 1.914.102.102 0 0 0 0 .049v.569a5.43 5.43 0 0 1-.612 2.63 2.73 2.73 0 0 1-2.306 1.438.243.243 0 0 1-.166-.06.222.222 0 0 1-.052-.073.206.206 0 0 1-.02-.088.242.242 0 0 1 .226-.244 2.23 2.23 0 0 0 1.921-1.224c.23-.41.387-.857.464-1.321a2.143 2.143 0 0 1-1.633.728 2.17 2.17 0 0 1 0-4.343l.006.025Zm1.731 2.165a1.724 1.724 0 1 0-1.725 1.719 1.721 1.721 0 0 0 1.596-1.059c.086-.209.13-.434.129-.66Zm2.135 1.125a4.22 4.22 0 0 1 .612-2.312 1.867 1.867 0 0 1 1.648-.985 1.865 1.865 0 0 1 1.649.985 4.45 4.45 0 0 1 0 4.606 1.842 1.842 0 0 1-1.649 1.029 1.833 1.833 0 0 1-1.648-1.029 4.149 4.149 0 0 1-.612-2.294Zm.465 0c-.015.72.179 1.43.557 2.043a1.404 1.404 0 0 0 1.263.795 1.396 1.396 0 0 0 1.263-.795 3.954 3.954 0 0 0 0-4.086 1.4 1.4 0 0 0-2.52 0 3.672 3.672 0 0 0-.557 2.037l-.006.006Zm7.144-2.649-.929.544a.237.237 0 0 1-.111.043.227.227 0 0 1-.116-.031.217.217 0 0 1-.085-.085.211.211 0 0 1 .013-.256.216.216 0 0 1 .072-.056l1.266-.777a.242.242 0 0 1 .173-.018.236.236 0 0 1 .17.275v6.056c0 .06-.024.117-.066.16a.229.229 0 0 1-.32 0 .226.226 0 0 1-.067-.16v-5.695Zm2.086 5.511 3.058-2.783a1.69 1.69 0 0 0 .441-1.864 1.69 1.69 0 0 0-1.579-1.084c-.423 0-.832.154-1.149.434l-.319.294a.212.212 0 0 1-.073.052.21.21 0 0 1-.089.019.226.226 0 0 1-.162-.071.218.218 0 0 1-.071-.159.216.216 0 0 1 .071-.159l.318-.306a2.202 2.202 0 0 1 1.456-.557 2.162 2.162 0 0 1 2.153 2.141 2.16 2.16 0 0 1-.697 1.603l-2.636 2.391h3.119a.246.246 0 0 1 .089.02.233.233 0 0 1 .069.377.229.229 0 0 1-.158.068h-3.707a.213.213 0 0 1-.093-.013.21.21 0 0 1-.078-.054.251.251 0 0 1 .037-.349Zm15.181-5.81-1.7 1.755a2.196 2.196 0 0 1 1.786 2.184 2.196 2.196 0 0 1-.655 1.584 2.207 2.207 0 0 1-1.578.658 2.223 2.223 0 0 1-1.578-.658.231.231 0 0 1-.051-.255.227.227 0 0 1 .051-.075.218.218 0 0 1 .075-.053.217.217 0 0 1 .18 0c.029.012.054.03.076.053.326.32.765.5 1.223.501a1.798 1.798 0 0 0 1.223-.507 1.774 1.774 0 0 0-1.223-3.016.22.22 0 0 1-.19-.092.238.238 0 0 1 0-.336l1.633-1.694h-2.52a.257.257 0 0 1-.091-.016.262.262 0 0 1-.077-.05.245.245 0 0 1-.052-.076.238.238 0 0 1-.018-.091.219.219 0 0 1 .016-.091.218.218 0 0 1 .05-.077.224.224 0 0 1 .166-.07h3.058a.234.234 0 0 1 .169.065.238.238 0 0 1 .07.167c.01.034.01.07 0 .104a.132.132 0 0 1-.043.086Zm5.567 4.807h-3.597a.173.173 0 0 1-.075-.005.181.181 0 0 1-.066-.038.212.212 0 0 1-.086-.152.208.208 0 0 1 .056-.166l3.804-4.758a.213.213 0 0 1 .318-.031.354.354 0 0 1 .074.116v4.588h.44c.06 0 .118.023.16.066.043.042.066.1.066.16s-.023.118-.066.16a.227.227 0 0 1-.16.066h-.44v1.132a.223.223 0 0 1-.069.162.222.222 0 0 1-.164.064.23.23 0 0 1-.226-.226l.031-1.138Zm0-.452v-3.86l-3.138 3.89 3.138-.03Zm2.599 1.15a.242.242 0 0 1-.069-.166.228.228 0 0 1 .069-.165.248.248 0 0 1 .171-.07c.064 0 .126.026.171.07a1.755 1.755 0 0 0 2.484 0 1.713 1.713 0 0 0 .514-1.223 1.742 1.742 0 0 0-.507-1.249 1.723 1.723 0 0 0-1.249-.506 1.723 1.723 0 0 0-1.223.519.203.203 0 0 1-.075.055.215.215 0 0 1-.181 0 .203.203 0 0 1-.075-.055.137.137 0 0 1-.061-.073.08.08 0 0 1 0-.031.15.15 0 0 1 0-.073v-.049l.312-2.661a.198.198 0 0 1 .092-.165.221.221 0 0 1 .07-.047.21.21 0 0 1 .083-.014h3.058a.25.25 0 0 1 .102.006.235.235 0 0 1 .153.13.243.243 0 0 1 0 .2.247.247 0 0 1-.062.081.222.222 0 0 1-.091.048.22.22 0 0 1-.102.006h-2.869l-.232 1.963a2.226 2.226 0 0 1 2.231-.011 2.216 2.216 0 0 1 1.115 1.932 2.187 2.187 0 0 1-.642 1.584 2.277 2.277 0 0 1-1.585.655 2.233 2.233 0 0 1-1.602-.691Zm6.27-4.514a2.677 2.677 0 0 1 2.306-1.444.233.233 0 0 1 .232.22.238.238 0 0 1-.22.245 2.233 2.233 0 0 0-1.921 1.223 4.444 4.444 0 0 0-.471 1.322 2.171 2.171 0 1 1-.538 1.51 3.491 3.491 0 0 1 0-.434 5.453 5.453 0 0 1 .612-2.642Zm-.153 3.009a.632.632 0 0 0 0 .123.25.25 0 0 1 0 .067 1.736 1.736 0 0 0 3.47-.113 1.737 1.737 0 0 0-3.47-.114v.037Z" fill="#F8F8F8"/>
  <path d="m165.854 188.495-57.514.151.007 2.825 57.515-.15-.008-2.826Zm-16.786 6.325-40.718.107.007 2.826 40.719-.107-.008-2.826Zm37.52-53.655-28.681.075.008 2.826 28.68-.075-.007-2.826Z" fill="#A6A6A6"/>
  <path d="M222.676 148.787H94.643v62.751h128.033v-62.751Z" fill="#F9C23A"/>
  <path opacity=".2" d="M222.676 148.787H94.643v62.751h128.033v-62.751Z" fill="#000"/>
  <path d="M222.676 159.938H94.643v62.75h128.033v-62.75Z" fill="#F9C23A"/>
  <path opacity=".3" d="M222.676 159.938H94.643v62.75h128.033v-62.75Z" fill="#000"/>
  <path d="M222.676 171.438H94.643v51.257h128.033v-51.257Z" fill="#F9C23A"/>
  <path opacity=".2" d="M222.676 171.438H94.643v51.257h128.033v-51.257Z" fill="#000"/>
  <path d="M218.725 251.785 85.327 232.824V123.336l4.282 3.168a14.295 14.295 0 0 0 7.028 2.747l122.088 13.047v109.487Z" fill="#F9C23A"/>
  <path d="m85.514 128.006-.376.482.963.754.377-.482-.963-.754ZM210.07 147.19l-2.447-.275.067-.611 2.447.275-.067.611Zm-4.319-.483-2.446-.275.067-.612 2.447.276-.068.611Zm-4.318-.483-2.447-.275.068-.612 2.446.281-.067.606Zm-4.318-.483-2.447-.275.067-.612 2.447.275-.067.612Zm-4.319-.483-2.446-.276.067-.611 2.447.275-.068.612Zm-4.281-.484-2.447-.275.067-.612 2.447.276-.067.611Zm-4.319-.477-2.446-.281.067-.612 2.447.275-.068.618Zm-4.318-.483-2.447-.275.068-.612 2.446.275-.067.612Zm-4.318-.483-2.447-.275.067-.612 2.447.275-.067.612Zm-4.313-.483-2.446-.276.067-.611 2.447.275-.068.612Zm-4.318-.484-2.447-.275.074-.612 2.446.276-.073.611Zm-4.318-.483-2.447-.275.067-.612 2.447.276-.067.611Zm-4.319-.483-2.446-.275.067-.612 2.447.275-.068.612Zm-4.318-.477-2.447-.281.068-.612 2.446.275-.067.618Zm-4.337-.459-2.446-.275.067-.612 2.447.275-.068.612Zm-4.318-.483-2.447-.275.068-.612 2.446.275-.067.612Zm-4.318-.483-2.447-.276.067-.611 2.447.281-.067.606Zm-4.319-.484-2.446-.275.067-.611 2.447.275-.068.611Zm-4.294-.507-2.446-.275.067-.612 2.447.275-.068.612Zm-4.312-.483-2.447-.276.074-.611 2.447.275-.074.612Zm-4.318-.478-2.447-.281.067-.612 2.447.276-.067.617Zm-4.319-.483-2.446-.275.067-.612 2.447.276-.068.611Zm-4.318-.483-2.447-.275.068-.612 2.446.275-.067.612Zm-4.282-.483-2.446-.275.067-.612 2.447.281-.068.606Zm-4.318-.483-2.447-.276.068-.611 2.446.275-.067.612Zm-4.318-.484-2.447-.275.067-.611 2.447.275-.067.611Zm-4.319-.483-1.468-.159a18.806 18.806 0 0 1-1.015-.153l.11-.611c.324.055.648.104.973.14l1.468.165-.068.618Zm-4.324-.77a15.425 15.425 0 0 1-2.337-.979l.288-.545a14.06 14.06 0 0 0 2.239.936l-.19.588Zm-3.988-1.976-.612-.447-1.376-1.076.373-.483 1.376 1.076c.19.147.386.288.581.428l-.342.502Zm123.911 16.552h-.612v-.948l-.948-.11.067-.606 1.493.165v1.499Zm0 95.315h-.612v-2.478h.612v2.478Zm0-4.337h-.612v-2.477h.612v2.477Zm0-4.331h-.612v-2.477h.612v2.477Zm0-4.33h-.612v-2.478h.612v2.478Zm0-4.337h-.612v-2.447h.612v2.447Zm0-4.331h-.612v-2.477h.612v2.477Zm0-4.33h-.612v-2.477h.612v2.477Zm0-4.337h-.612v-2.446h.612v2.446Zm0-4.33h-.612v-2.478h.612v2.478Zm0-4.331h-.612v-2.477h.612v2.477Zm0-4.331h-.612v-2.483h.612v2.483Zm0-4.336h-.612v-2.447h.612v2.447Zm0-4.331h-.612v-2.477h.612v2.477Zm0-4.33h-.612v-2.478h.612v2.478Zm0-4.337h-.612v-2.447h.612v2.447Zm0-4.331h-.612v-2.477h.612v2.477Zm0-4.33h-.612v-2.477h.612v2.477Zm0-4.337h-.612v-2.447h.612v2.447Zm0-4.331h-.612v-2.477h.612v2.477Zm0-4.33h-.612v-2.477h.612v2.477Zm0-4.331h-.612v-2.477h.612v2.477Zm0-4.336h-.612v-2.447h.612v2.447Zm0 94.416-1.566-.232.092-.606.862.129v-.869h.612v1.578Zm-3.413-.501-2.447-.361.086-.612 2.446.361-.085.612Zm-4.282-.612-2.447-.361.092-.611 2.447.36-.092.612Zm-4.282-.612-2.446-.36.092-.612 2.446.361-.092.611Zm-4.281-.611-2.447-.361.092-.612 2.447.361-.092.612Zm-4.282-.612-2.446-.361.085-.611 2.447.36-.086.612Zm-4.281-.612-2.447-.36.086-.612 2.446.361-.085.611Zm-4.282-.611-2.447-.361.092-.612 2.447.361-.092.612Zm-4.282-.612-2.446-.361.091-.611 2.447.36-.092.612Zm-4.281-.612-2.447-.36.092-.612 2.446.361-.091.611Zm-4.282-.611-2.447-.361.092-.612 2.447.367-.092.606Zm-4.282-.612-2.446-.361.085-.611 2.447.361-.086.611Zm-4.281-.611-2.447-.361.092-.612 2.446.361-.091.612Zm-4.282-.612-2.447-.361.092-.612 2.447.361-.092.612Zm-4.282-.612-2.446-.361.091-.611 2.447.367-.092.605Zm-4.281-.611-2.447-.361.092-.612 2.446.361-.091.612Zm-4.282-.612-2.447-.361.086-.612 2.447.367-.086.606Zm-4.282-.612-2.446-.361.085-.611 2.447.361-.086.611Zm-4.281-.611-2.447-.361.092-.612 2.447.361-.092.612Zm-4.282-.612-2.446-.361.091-.612 2.447.361-.092.612Zm-4.281-.612-2.447-.361.092-.611 2.446.367-.091.605Zm-4.282-.611-2.447-.361.086-.612 2.447.361-.086.612Zm-4.282-.612-2.446-.361.091-.612 2.447.367-.092.606Zm-4.281-.612-2.447-.361.092-.611 2.446.361-.091.611Zm-4.282-.611-2.447-.361.092-.612 2.447.367-.092.606Zm-4.282-.612-2.446-.361.091-.612 2.447.361-.092.612Zm-4.281-.612-2.447-.361.086-.611 2.446.367-.085.605Zm-4.282-.611-2.447-.361.092-.612 2.447.361-.092.612Zm-4.282-.612-2.446-.361.091-.612 2.447.367-.092.606Zm-4.281-.612-2.447-.361.092-.611 2.447.361-.092.611Zm-4.813-2.029-.09.606 1.21.179.09-.605-1.21-.18Z" fill="#fff"/>
  <path d="M201.525 202.443c2.935 0 5.315-2.711 5.315-6.056 0-3.344-2.38-6.055-5.315-6.055-2.936 0-5.316 2.711-5.316 6.055 0 3.345 2.38 6.056 5.316 6.056Z" fill="#EBEBEB"/>
  <path d="M204.002 196.387a2.49 2.49 0 0 1-1.745 2.068 2.488 2.488 0 0 1-2.603-.737 2.493 2.493 0 0 1 .518-3.745 2.498 2.498 0 0 1 1.353-.4 2.661 2.661 0 0 1 2.477 2.814Z" fill="#DBDBDB"/>
  <path d="M189.377 222.278c25.36 4.551 18.662 42.113-6.728 37.556-25.39-4.557-18.668-42.113 6.728-37.556Z" fill="#F9C23A"/>
  <path opacity=".2" d="M189.377 222.278c25.36 4.551 18.662 42.113-6.728 37.556-25.39-4.557-18.668-42.113 6.728-37.556Z" fill="#000"/>
  <path d="M186.998 221.85c24.166 4.337 17.463 41.899-6.729 37.556-24.191-4.342-17.481-41.874 6.729-37.556Z" fill="#F9C23A"/>
  <path opacity=".1" d="M186.998 221.85c24.166 4.337 17.463 41.899-6.729 37.556-24.191-4.342-17.481-41.874 6.729-37.556Z" fill="#000"/>
  <path opacity=".1" d="M168.299 241.515c.129 6.691 4.025 13.175 12.533 14.679 20.087 3.609 25.647-27.573 5.591-31.194-.129 0-.257-.049-.392-.062 18.809 3.762 13.414 33.269-5.737 29.831-7.811-1.358-11.579-7.132-11.995-13.254Z" fill="#000"/>
  <path opacity=".1" d="M185.713 228.939a.643.643 0 0 1 .465.77l-.257 1.034a8.703 8.703 0 0 1 4.141 2.948.734.734 0 0 1 .208.685.677.677 0 0 1-.315.407.675.675 0 0 1-.511.064.603.603 0 0 1-.422-.293 7.548 7.548 0 0 0-3.449-2.637l-1.805 7.212c3.713 1.804 4.997 3.67 4.367 6.208-.685 2.734-3.462 4.092-6.728 3.395l-.501 2.006a.63.63 0 0 1-.765.459.63.63 0 0 1-.459-.764l.508-2.037a9.995 9.995 0 0 1-5.175-3.946.666.666 0 0 1-.16-.513.669.669 0 0 1 .516-.582.683.683 0 0 1 .721.294 8.59 8.59 0 0 0 4.44 3.603l1.835-7.34c-3.67-1.835-4.893-3.633-4.281-6.208.611-2.576 3.413-4.025 6.575-3.316l.245-.978a.602.602 0 0 1 .294-.423.608.608 0 0 1 .513-.048Zm-3.009 9.652 1.755-7.034c-2.514-.575-4.532.507-4.997 2.367-.434 1.749.116 3.04 3.242 4.667Zm.74 1.835-1.774 7.113c2.594.612 4.643-.483 5.132-2.446.44-1.756-.19-3.065-3.358-4.649v-.018Z" fill="#000"/>
  <path d="M127.77 15.548c-25.439 0-25.481 36.18 0 36.18 25.482 0 25.482-36.18 0-36.18Z" fill="#F9C23A"/>
  <path opacity=".1" d="M127.77 15.548c-25.439 0-25.481 36.18 0 36.18 25.482 0 25.482-36.18 0-36.18Z" fill="#000"/>
  <path opacity=".1" d="M143.24 37.029c-1.358 6.22-6.515 11.622-15.475 11.622-21.146 0-21.109-30.027 0-30.027h.416c-19.867.367-19.769 28.803.391 28.803 8.227.006 13.126-4.752 14.668-10.398Z" fill="#000"/>
  <path opacity=".1" d="M127.924 22.582a.648.648 0 0 1 .66.611v1.01a9.406 9.406 0 0 1 4.893 1.761c.245.177.386.324.386.612a.688.688 0 0 1-.716.611.727.727 0 0 1-.495-.177 8.25 8.25 0 0 0-4.129-1.64v7.035c4.184.807 5.945 2.239 5.945 4.71 0 2.666-2.446 4.557-5.89 4.66v1.964a.664.664 0 0 1-.661.66.66.66 0 0 1-.66-.66v-1.994a10.8 10.8 0 0 1-6.196-2.447.635.635 0 0 1-.3-.526.682.682 0 0 1 .685-.611.695.695 0 0 1 .495.177 9.281 9.281 0 0 0 5.371 2.288V33.42c-4.129-.832-5.835-2.22-5.835-4.734s2.446-4.483 5.78-4.557v-.942a.643.643 0 0 1 .667-.605Zm-.612 9.572V25.28c-2.673.049-4.435 1.51-4.435 3.321.006 1.713.887 2.771 4.441 3.554h-.006Zm1.223 1.535v6.949c2.753-.05 4.539-1.51 4.539-3.425-.006-1.738-.967-2.796-4.545-3.524h.006Z" fill="#000"/>
</svg>
